<?xml version="1.0" encoding="UTF-8"?>
<svg version="1.1" xmlns="http://www.w3.org/2000/svg" width="512" height="512">
<path d="M0 0 C1.01790619 0.00215515 2.03581238 0.0043103 3.08456421 0.00653076 C17.69363523 0.05620146 32.02575853 0.30709809 46.375 3.3125 C47.34985352 3.51117676 48.32470703 3.70985352 49.32910156 3.91455078 C88.47564494 12.10330594 124.69815091 27.79453981 156.375 52.3125 C157.261875 52.98667969 158.14875 53.66085938 159.0625 54.35546875 C174.64607275 66.46770077 189.25647311 80.753451 201.375 96.3125 C202.52162109 97.71628906 202.52162109 97.71628906 203.69140625 99.1484375 C239.07916076 143.34052901 256.86434184 199.41847869 256.75 255.625 C256.74918427 257.13927582 256.74918427 257.13927582 256.74835205 258.68414307 C256.70757156 275.19958953 255.77994321 291.10183935 252.375 307.3125 C252.16601074 308.32779785 251.95702148 309.3430957 251.74169922 310.38916016 C243.84945344 347.53296555 227.74595578 382.39695445 204.375 412.3125 C203.61574219 413.28445313 202.85648437 414.25640625 202.07421875 415.2578125 C189.73986402 430.63741644 175.93895499 445.19015196 160.375 457.3125 C159.43914062 458.07691406 158.50328125 458.84132813 157.5390625 459.62890625 C125.58628299 485.2157721 86.41988322 501.72551276 46.375 509.3125 C45.56562988 509.47621094 44.75625977 509.63992188 43.92236328 509.80859375 C13.88110013 515.67977137 -20.7615176 514.58512909 -50.625 508.3125 C-52.14794678 507.99901611 -52.14794678 507.99901611 -53.70166016 507.67919922 C-90.84546555 499.78695344 -125.70945445 483.68345578 -155.625 460.3125 C-156.59695312 459.55324219 -157.56890625 458.79398437 -158.5703125 458.01171875 C-173.94991644 445.67736402 -188.50265196 431.87645499 -200.625 416.3125 C-201.77162109 414.90871094 -201.77162109 414.90871094 -202.94140625 413.4765625 C-228.5282721 381.52378299 -245.03801276 342.35738322 -252.625 302.3125 C-252.78871094 301.50312988 -252.95242187 300.69375977 -253.12109375 299.85986328 C-258.59069558 271.87335724 -258.46977511 238.21828161 -252.625 210.3125 C-252.42632324 209.33764648 -252.22764648 208.36279297 -252.02294922 207.35839844 C-241.93598313 159.13741149 -219.89911449 114.53770064 -185.40722656 79.14160156 C-183.63301167 77.32072238 -181.87518486 75.48496071 -180.1171875 73.6484375 C-173.01562574 66.30860161 -165.60158994 59.73928631 -157.40917969 53.64355469 C-155.59628085 52.2910746 -153.80174757 50.91656557 -152.0078125 49.5390625 C-143.60124472 43.15234877 -134.85975388 37.61076633 -125.65234375 32.45166016 C-123.78933792 31.40484113 -121.94116361 30.33571119 -120.09375 29.26171875 C-83.4933446 8.69459905 -41.63834482 -0.15855121 0 0 Z " fill="#ED5180" transform="translate(255.625,-0.3125)"/>
<path d="M0 0 C1.01790619 0.00215515 2.03581238 0.0043103 3.08456421 0.00653076 C17.69363523 0.05620146 32.02575853 0.30709809 46.375 3.3125 C47.34985352 3.51117676 48.32470703 3.70985352 49.32910156 3.91455078 C88.47564494 12.10330594 124.69815091 27.79453981 156.375 52.3125 C157.261875 52.98667969 158.14875 53.66085938 159.0625 54.35546875 C174.64607275 66.46770077 189.25647311 80.753451 201.375 96.3125 C202.52162109 97.71628906 202.52162109 97.71628906 203.69140625 99.1484375 C239.07916076 143.34052901 256.86434184 199.41847869 256.75 255.625 C256.74918427 257.13927582 256.74918427 257.13927582 256.74835205 258.68414307 C256.70757156 275.19958953 255.77994321 291.10183935 252.375 307.3125 C252.16601074 308.32779785 251.95702148 309.3430957 251.74169922 310.38916016 C243.84945344 347.53296555 227.74595578 382.39695445 204.375 412.3125 C203.61574219 413.28445313 202.85648437 414.25640625 202.07421875 415.2578125 C189.73986402 430.63741644 175.93895499 445.19015196 160.375 457.3125 C159.43914062 458.07691406 158.50328125 458.84132813 157.5390625 459.62890625 C125.58628299 485.2157721 86.41988322 501.72551276 46.375 509.3125 C45.56562988 509.47621094 44.75625977 509.63992188 43.92236328 509.80859375 C13.88110013 515.67977137 -20.7615176 514.58512909 -50.625 508.3125 C-52.14794678 507.99901611 -52.14794678 507.99901611 -53.70166016 507.67919922 C-90.84546555 499.78695344 -125.70945445 483.68345578 -155.625 460.3125 C-156.59695312 459.55324219 -157.56890625 458.79398437 -158.5703125 458.01171875 C-173.94991644 445.67736402 -188.50265196 431.87645499 -200.625 416.3125 C-201.77162109 414.90871094 -201.77162109 414.90871094 -202.94140625 413.4765625 C-228.5282721 381.52378299 -245.03801276 342.35738322 -252.625 302.3125 C-252.78871094 301.50312988 -252.95242187 300.69375977 -253.12109375 299.85986328 C-258.59069558 271.87335724 -258.46977511 238.21828161 -252.625 210.3125 C-252.42632324 209.33764648 -252.22764648 208.36279297 -252.02294922 207.35839844 C-241.93598313 159.13741149 -219.89911449 114.53770064 -185.40722656 79.14160156 C-183.63301167 77.32072238 -181.87518486 75.48496071 -180.1171875 73.6484375 C-173.01562574 66.30860161 -165.60158994 59.73928631 -157.40917969 53.64355469 C-155.59628085 52.2910746 -153.80174757 50.91656557 -152.0078125 49.5390625 C-143.60124472 43.15234877 -134.85975388 37.61076633 -125.65234375 32.45166016 C-123.78933792 31.40484113 -121.94116361 30.33571119 -120.09375 29.26171875 C-83.4933446 8.69459905 -41.63834482 -0.15855121 0 0 Z M-51.6875 76.5 C-53.19981201 76.95282349 -53.19981201 76.95282349 -54.74267578 77.41479492 C-101.63853942 91.90859654 -142.05072236 125.71430606 -165.04589844 168.98632812 C-172.01808406 182.67483935 -177.4808534 196.42754135 -181.3125 211.3125 C-181.51528564 212.0950415 -181.71807129 212.87758301 -181.92700195 213.68383789 C-185.34703548 227.5967342 -186.06888801 241.24372392 -186.0625 255.5 C-186.06290283 256.42358307 -186.06330566 257.34716614 -186.0637207 258.29873657 C-185.94008549 307.67341767 -166.45538767 351.81510772 -132.625 387.3125 C-131.85929687 388.14265625 -131.09359375 388.9728125 -130.3046875 389.828125 C-119.46164315 401.22251059 -106.30116182 410.61582597 -92.625 418.3125 C-91.93212891 418.7053418 -91.23925781 419.09818359 -90.52539062 419.50292969 C-62.19095041 435.43339932 -32.61139143 442.76855162 -0.1875 442.6875 C0.74385773 442.68595917 1.67521545 442.68441833 2.63479614 442.68283081 C51.88594893 442.48887246 95.94458435 423.07905635 131.375 389.3125 C132.20515625 388.54679687 133.0353125 387.78109375 133.890625 386.9921875 C145.30671539 376.12848858 154.60991362 362.9763859 162.375 349.3125 C163.01695312 348.21421875 163.65890625 347.1159375 164.3203125 345.984375 C173.07273903 330.61656737 179.53516254 313.79607973 182.94992065 296.44848633 C183.34289877 294.47380587 183.75882044 292.50372864 184.17675781 290.53417969 C186.30858914 280.03146318 186.84195621 269.83102606 186.76611328 259.12939453 C186.75005339 256.44641993 186.76605195 253.76496025 186.78515625 251.08203125 C186.80632278 235.06043675 184.85252869 219.61389124 180.1875 204.25 C179.88706787 203.24396729 179.58663574 202.23793457 179.27709961 201.20141602 C176.39597691 191.86130099 172.70923468 183.06150771 168.375 174.3125 C168.06481934 173.67054688 167.75463867 173.02859375 167.43505859 172.3671875 C146.28515543 128.88182341 106.91963146 95.86588897 61.73388672 79.75610352 C40.98807526 72.64844604 21.96279693 69.97097611 0.125 69.875 C-0.76011261 69.86846405 -1.64522522 69.8619281 -2.55715942 69.85519409 C-19.36133605 69.78058505 -35.56053822 71.60172988 -51.6875 76.5 Z " fill="#EC5180" transform="translate(255.625,-0.3125)"/>
<path d="M0 0 C1.01790619 0.00215515 2.03581238 0.0043103 3.08456421 0.00653076 C17.69363523 0.05620146 32.02575853 0.30709809 46.375 3.3125 C47.34985352 3.51117676 48.32470703 3.70985352 49.32910156 3.91455078 C88.47564494 12.10330594 124.69815091 27.79453981 156.375 52.3125 C157.261875 52.98667969 158.14875 53.66085938 159.0625 54.35546875 C174.64607275 66.46770077 189.25647311 80.753451 201.375 96.3125 C202.52162109 97.71628906 202.52162109 97.71628906 203.69140625 99.1484375 C239.07916076 143.34052901 256.86434184 199.41847869 256.75 255.625 C256.74918427 257.13927582 256.74918427 257.13927582 256.74835205 258.68414307 C256.70757156 275.19958953 255.77994321 291.10183935 252.375 307.3125 C252.16601074 308.32779785 251.95702148 309.3430957 251.74169922 310.38916016 C243.84945344 347.53296555 227.74595578 382.39695445 204.375 412.3125 C203.61574219 413.28445313 202.85648437 414.25640625 202.07421875 415.2578125 C189.73986402 430.63741644 175.93895499 445.19015196 160.375 457.3125 C159.43914062 458.07691406 158.50328125 458.84132813 157.5390625 459.62890625 C125.58628299 485.2157721 86.41988322 501.72551276 46.375 509.3125 C45.56562988 509.47621094 44.75625977 509.63992188 43.92236328 509.80859375 C13.88110013 515.67977137 -20.7615176 514.58512909 -50.625 508.3125 C-52.14794678 507.99901611 -52.14794678 507.99901611 -53.70166016 507.67919922 C-90.84546555 499.78695344 -125.70945445 483.68345578 -155.625 460.3125 C-156.59695312 459.55324219 -157.56890625 458.79398437 -158.5703125 458.01171875 C-173.94991644 445.67736402 -188.50265196 431.87645499 -200.625 416.3125 C-201.77162109 414.90871094 -201.77162109 414.90871094 -202.94140625 413.4765625 C-228.5282721 381.52378299 -245.03801276 342.35738322 -252.625 302.3125 C-252.78871094 301.50312988 -252.95242187 300.69375977 -253.12109375 299.85986328 C-258.59069558 271.87335724 -258.46977511 238.21828161 -252.625 210.3125 C-252.42632324 209.33764648 -252.22764648 208.36279297 -252.02294922 207.35839844 C-241.93598313 159.13741149 -219.89911449 114.53770064 -185.40722656 79.14160156 C-183.63301167 77.32072238 -181.87518486 75.48496071 -180.1171875 73.6484375 C-173.01562574 66.30860161 -165.60158994 59.73928631 -157.40917969 53.64355469 C-155.59628085 52.2910746 -153.80174757 50.91656557 -152.0078125 49.5390625 C-143.60124472 43.15234877 -134.85975388 37.61076633 -125.65234375 32.45166016 C-123.78933792 31.40484113 -121.94116361 30.33571119 -120.09375 29.26171875 C-83.4933446 8.69459905 -41.63834482 -0.15855121 0 0 Z M-43.625 21.3125 C-44.33724228 21.43253387 -45.04948456 21.55256775 -45.78330994 21.67623901 C-69.51890554 25.69571582 -92.47151162 34.99614301 -113.625 46.3125 C-114.78128906 46.92609375 -115.93757813 47.5396875 -117.12890625 48.171875 C-131.7892726 56.24424965 -145.15857089 66.18023163 -157.625 77.3125 C-158.1607666 77.78655273 -158.6965332 78.26060547 -159.24853516 78.74902344 C-203.31486325 117.88713863 -233.08830798 174.22918034 -237.625 233.3125 C-237.77869408 236.67600709 -237.83395863 240.03564687 -237.86328125 243.40234375 C-237.87298447 244.33679321 -237.88268768 245.27124268 -237.89268494 246.23400879 C-237.91748684 249.23938343 -237.93019537 252.2445334 -237.9375 255.25 C-237.94011841 256.27562042 -237.94273682 257.30124084 -237.94543457 258.35794067 C-237.94989392 274.66499393 -237.11290232 290.3249938 -233.625 306.3125 C-233.47015137 307.04194824 -233.31530273 307.77139648 -233.15576172 308.52294922 C-232.20054717 312.86531434 -230.97418996 317.07791369 -229.625 321.3125 C-229.26365967 322.48208252 -229.26365967 322.48208252 -228.89501953 323.67529297 C-224.97975618 336.29860071 -220.39016516 348.41904883 -214.625 360.3125 C-214.22829102 361.13717773 -213.83158203 361.96185547 -213.42285156 362.81152344 C-204.23125034 381.70101269 -192.63684814 398.67910266 -178.625 414.3125 C-177.32175781 415.7975 -177.32175781 415.7975 -175.9921875 417.3125 C-157.12580742 438.58080976 -134.61674748 454.95378679 -109.625 468.3125 C-108.99013672 468.65522949 -108.35527344 468.99795898 -107.70117188 469.35107422 C-86.41542993 480.75259086 -63.38452016 488.13018361 -39.625 492.3125 C-38.58738525 492.49554688 -37.54977051 492.67859375 -36.48071289 492.8671875 C-24.80460312 494.67731179 -13.16711567 494.71117275 -1.375 494.6875 C0.22071335 494.68618576 0.22071335 494.68618576 1.84866333 494.68484497 C40.90679168 494.57876361 77.84707485 485.87940315 112.375 467.3125 C113.02243164 466.97138184 113.66986328 466.63026367 114.33691406 466.27880859 C130.3707715 457.80399522 144.83813473 447.35109331 158.375 435.3125 C159.12209229 434.65797852 159.12209229 434.65797852 159.88427734 433.99023438 C197.67144949 400.83281975 223.24218466 355.17273579 234.375 306.3125 C234.58817871 305.37696289 234.80135742 304.44142578 235.02099609 303.47753906 C241.57588136 272.86035094 241.62630537 236.78924408 234.375 206.3125 C234.17132813 205.37937988 233.96765625 204.44625977 233.7578125 203.48486328 C229.05909154 182.04694891 220.80811341 161.59177842 210.375 142.3125 C209.45847656 140.58773437 209.45847656 140.58773437 208.5234375 138.828125 C200.45267794 124.14797798 190.49028543 110.81114643 179.375 98.3125 C178.93865234 97.81443848 178.50230469 97.31637695 178.05273438 96.80322266 C161.6824965 78.14721453 142.72425139 62.92120422 121.375 50.3125 C120.74303711 49.9314209 120.11107422 49.5503418 119.45996094 49.15771484 C95.25674074 34.59980664 68.03498558 24.83701202 40.10180664 20.72241211 C38.2006568 20.43661834 36.30401367 20.11986894 34.41186523 19.77954102 C24.218139 18.06854092 14.13430896 17.97415536 3.8190918 17.99682617 C0.84190608 17.99996896 -2.13426564 17.97650753 -5.11132812 17.95117188 C-18.19173988 17.90878027 -30.74221996 19.08451349 -43.625 21.3125 Z " fill="#010001" transform="translate(255.625,-0.3125)"/>
<path d="M0 0 C1.39703659 0.00231125 1.39703659 0.00231125 2.82229614 0.00466919 C46.07766801 0.17501527 87.6230559 14.90881374 120.5625 43.375 C121.36558594 44.06851563 122.16867187 44.76203125 122.99609375 45.4765625 C125.55667878 47.7375471 128.06642924 50.04304399 130.5625 52.375 C131.42617188 53.17292969 132.28984375 53.97085938 133.1796875 54.79296875 C164.1251002 84.43777715 185.69931559 129.55003554 186.85418701 172.56266785 C186.93058216 176.9795981 186.94678607 181.39498484 186.9375 185.8125 C186.93728851 186.74020203 186.93707703 187.66790405 186.93685913 188.62371826 C186.9044708 202.86261032 186.21554181 216.54026731 182.5625 230.375 C182.38058105 231.08543457 182.19866211 231.79586914 182.01123047 232.52783203 C180.7680269 237.23734047 179.24999556 241.80756942 177.5625 246.375 C177.27890625 247.14908203 176.9953125 247.92316406 176.703125 248.72070312 C161.14455835 290.61675866 132.70263556 326.21847882 93.5625 348.375 C92.95035645 348.73013672 92.33821289 349.08527344 91.70751953 349.45117188 C75.13174624 359.01300261 57.24297259 365.36684705 38.5625 369.375 C36.71338013 369.77489136 36.71338013 369.77489136 34.8269043 370.18286133 C24.31167685 372.30914821 14.09190338 372.8420333 3.37939453 372.76611328 C0.69641993 372.75005339 -1.98503975 372.76605195 -4.66796875 372.78515625 C-20.68893938 372.80632195 -36.13693538 370.85375031 -51.5 366.1875 C-53.01231201 365.73467651 -53.01231201 365.73467651 -54.55517578 365.27270508 C-99.22102027 351.46812107 -138.42120834 320.03394499 -161.4375 279.375 C-161.79263672 278.76285645 -162.14777344 278.15071289 -162.51367188 277.52001953 C-172.07550261 260.94424624 -178.42934705 243.05547259 -182.4375 224.375 C-182.70409424 223.14225342 -182.97068848 221.90950684 -183.24536133 220.6394043 C-185.37164821 210.12417685 -185.9045333 199.90440338 -185.82861328 189.19189453 C-185.81255339 186.50891993 -185.82855195 183.82746025 -185.84765625 181.14453125 C-185.86882278 165.12293675 -183.91502869 149.67639124 -179.25 134.3125 C-178.94956787 133.30646729 -178.64913574 132.30043457 -178.33959961 131.26391602 C-175.45905446 121.92567329 -171.77890178 113.11909891 -167.4375 104.375 C-167.12200195 103.72772949 -166.80650391 103.08045898 -166.48144531 102.41357422 C-145.060507 58.82806916 -105.13202836 24.59223011 -59.2734375 8.90625 C-39.65341958 2.52914332 -20.56370304 -0.05140412 0 0 Z M-43.4375 22.375 C-44.24106934 22.58898437 -45.04463867 22.80296875 -45.87255859 23.0234375 C-63.69898675 27.9379346 -81.64496981 36.26435873 -96.4375 47.375 C-97.45199219 48.10847656 -98.46648437 48.84195313 -99.51171875 49.59765625 C-113.75442263 60.05629678 -125.98171639 72.14174005 -136.4375 86.375 C-136.86337402 86.94202637 -137.28924805 87.50905273 -137.72802734 88.09326172 C-149.54084753 103.97724489 -158.78180613 123.14366491 -163.4375 142.375 C-163.66018555 143.22304199 -163.88287109 144.07108398 -164.11230469 144.94482422 C-171.65749241 174.15315215 -171.25028062 207.73057242 -161.4375 236.375 C-161.0979126 237.41092285 -161.0979126 237.41092285 -160.75146484 238.46777344 C-154.38228912 257.78130034 -145.25694916 275.55770383 -132.4375 291.375 C-131.96199707 291.96861328 -131.48649414 292.56222656 -130.99658203 293.17382812 C-104.98223096 325.40276691 -69.6951131 344.93754552 -29.4375 353.375 C-28.18634399 353.65863403 -28.18634399 353.65863403 -26.90991211 353.94799805 C-18.84454997 355.6346993 -10.8284463 355.72924125 -2.625 355.6875 C-1.54042007 355.68526428 -1.54042007 355.68526428 -0.43392944 355.6829834 C17.01776188 355.61852833 33.95073579 354.06572632 50.5625 348.375 C51.25311523 348.1486084 51.94373047 347.9222168 52.65527344 347.68896484 C71.96880034 341.31978912 89.74520383 332.19444916 105.5625 319.375 C106.15611328 318.89949707 106.74972656 318.42399414 107.36132812 317.93408203 C142.41914682 289.63633355 163.98663572 249.25188888 169.14575195 204.61938477 C169.85297651 197.90501998 170.00310433 191.18491236 170 184.4375 C170.00073517 183.72944214 170.00147034 183.02138428 170.00222778 182.29187012 C169.96519101 168.56178093 168.21340617 155.64331836 164.5625 142.375 C164.31081055 141.45831543 164.05912109 140.54163086 163.79980469 139.59716797 C158.67222564 121.59259322 150.67072861 104.47624386 139.5625 89.375 C138.81613281 88.34503906 138.06976563 87.31507813 137.30078125 86.25390625 C128.15368586 73.86655276 117.85766737 62.68751221 105.5625 53.375 C104.49147725 52.51911719 103.42119951 51.6623015 102.3515625 50.8046875 C73.00459635 27.76145465 35.68763569 16.92548998 -1.3125 16.9375 C-2.02205841 16.9364325 -2.73161682 16.93536499 -3.462677 16.93426514 C-17.21163751 16.96382413 -30.14325177 18.76187829 -43.4375 22.375 Z " fill="#030202" transform="translate(255.4375,69.625)"/>
<path d="M0 0 C1.02609375 0.74507812 2.0521875 1.49015625 3.109375 2.2578125 C15.50817767 11.39750133 26.68020524 21.70650959 36 34 C36.84390969 35.04779613 37.68901732 36.09462825 38.53515625 37.140625 C54.95489351 57.91844788 65.37317576 83.03008327 70 109 C70.16701416 109.75466553 70.33402832 110.50933105 70.50610352 111.28686523 C72.2123616 119.44607444 72.35472606 127.51377524 72.3125 135.8125 C72.31100952 136.53555328 72.30951904 137.25860657 72.3079834 138.00357056 C72.24352833 155.45526188 70.69072632 172.38823579 65 189 C64.6604126 190.03592285 64.6604126 190.03592285 64.31396484 191.09277344 C56.80138222 213.87350253 45.42589191 234.26506033 29.02734375 251.81640625 C27.20341577 253.78090671 25.51141923 255.80325061 23.8125 257.875 C-2.59028788 287.98024779 -43.90298294 304.4440793 -83 308 C-88.31353883 308.31935383 -93.61542026 308.43923839 -98.9375 308.4375 C-99.64456085 308.4385675 -100.3516217 308.43963501 -101.08010864 308.44073486 C-114.80646075 308.41114185 -127.72961249 306.6165611 -141 303 C-141.8142041 302.78069824 -142.6284082 302.56139648 -143.46728516 302.33544922 C-177.05056053 292.95405717 -208.91855596 271.83350797 -230 244 C-230.85588281 242.92897725 -231.7126985 241.85869951 -232.5703125 240.7890625 C-255.88084775 211.08604995 -266.45469553 174.43782345 -266.4375 137.0625 C-266.43823517 136.35444214 -266.43897034 135.64638428 -266.43972778 134.91687012 C-266.40269101 121.18678093 -264.65090617 108.26831836 -261 95 C-260.74831055 94.08331543 -260.49662109 93.16663086 -260.23730469 92.22216797 C-255.11098282 74.22200759 -247.11361327 57.09334526 -236 42 C-235.23042969 40.94683594 -234.46085937 39.89367187 -233.66796875 38.80859375 C-205.77089238 1.2885808 -165.65644617 -22.05556656 -119.64379883 -29.54638672 C-78.56255996 -34.66055367 -33.31749852 -25.03683369 0 0 Z M-205 32 C-205.64582031 32.59296875 -206.29164063 33.1859375 -206.95703125 33.796875 C-233.65223662 59.05416533 -247.79245589 97.46814651 -249.2578125 133.56640625 C-250.33881625 174.0072902 -236.11528622 213.10366832 -208.24804688 242.59301758 C-206.83602325 244.06584931 -205.41823069 245.53314426 -204 247 C-203.38640625 247.66515625 -202.7728125 248.3303125 -202.140625 249.015625 C-177.07866927 275.56640978 -138.59647783 289.71969036 -102.7578125 291.2734375 C-62.15916784 292.31267043 -23.00495811 278.22160593 6.5925293 250.24829102 C8.06559075 248.83625607 9.53301941 247.4183514 11 246 C11.66515625 245.38640625 12.3303125 244.7728125 13.015625 244.140625 C38.94212773 219.66794485 53.77553475 180.93244083 55.34765625 145.90625 C55.99608808 119.50398304 51.1021204 94.51116783 39 71 C38.45601563 69.90429688 37.91203125 68.80859375 37.3515625 67.6796875 C30.19405303 53.7343052 20.84193826 42.21366186 10 31 C9.07960938 30.00226563 9.07960938 30.00226563 8.140625 28.984375 C-16.36279233 3.02530911 -54.95700921 -11.77057281 -90.09375 -13.34765625 C-134.6787077 -14.44264956 -172.93068819 1.47563314 -205 32 Z " fill="#FBFBFB" transform="translate(353,117)"/>
<path d="M0 0 C3.85071204 3.40233415 7.56356336 6.93405534 11.25732422 10.50537109 C12.25505859 11.42576172 12.25505859 11.42576172 13.27294922 12.36474609 C39.95847693 37.55388907 54.05265922 76.04444307 55.51513672 112.07177734 C56.59614046 152.51266129 42.37261044 191.60903942 14.50537109 221.09838867 C13.09334747 222.57122041 11.6755549 224.03851536 10.25732422 225.50537109 C9.33693359 226.50310547 9.33693359 226.50310547 8.39794922 227.52099609 C-16.06242324 253.43445998 -54.87705774 268.50256368 -90.01220703 269.81787109 C-114.12452308 270.27167403 -136.67074786 266.46600611 -158.74267578 256.50537109 C-159.37737793 256.2235498 -160.01208008 255.94172852 -160.66601562 255.65136719 C-177.48067362 248.07828944 -191.61478482 237.35073929 -204.74267578 224.50537109 C-205.40396484 223.89435547 -206.06525391 223.28333984 -206.74658203 222.65380859 C-232.72455047 198.18268288 -247.51405089 159.530487 -249.09033203 124.41162109 C-250.18532534 79.82666339 -234.26704264 41.5746829 -203.74267578 9.50537109 C-203.14970703 8.85955078 -202.55673828 8.21373047 -201.94580078 7.54833984 C-150.22328693 -47.11877257 -55.90616325 -47.94865949 0 0 Z M-128.74267578 -13.49462891 C-129.42604004 -13.32833984 -130.1094043 -13.16205078 -130.81347656 -12.99072266 C-150.77415515 -8.09906555 -169.1942142 2.12983116 -184.74267578 15.50537109 C-186.14259766 16.66939453 -186.14259766 16.66939453 -187.57080078 17.85693359 C-209.93011461 37.23110343 -225.07934155 65.34159624 -229.74267578 94.50537109 C-229.92443359 95.62814453 -230.10619141 96.75091797 -230.29345703 97.90771484 C-232.43840592 115.9274305 -232.38010245 136.19838541 -226.74267578 153.50537109 C-226.52836914 154.20436523 -226.3140625 154.90335938 -226.09326172 155.62353516 C-215.00977832 191.48755785 -191.17051567 219.68292892 -158.34423828 237.65771484 C-138.99586404 247.83912314 -118.31493016 251.93763505 -96.61767578 251.88037109 C-95.84232483 251.87982727 -95.06697388 251.87928345 -94.26812744 251.87872314 C-82.63680237 251.8411979 -71.85732244 251.18597737 -60.74267578 247.50537109 C-60.04658203 247.29106445 -59.35048828 247.07675781 -58.63330078 246.85595703 C-23.28715418 235.93743063 4.42530745 212.70166851 22.63623047 180.65380859 C32.69804308 161.11207133 37.69268559 140.47059196 37.63232422 118.56787109 C37.63144806 117.79258057 37.6305719 117.01729004 37.62966919 116.21850586 C37.58392298 103.93889377 36.87742939 92.31944009 33.25732422 80.50537109 C33.02126465 79.72387695 32.78520508 78.94238281 32.54199219 78.13720703 C27.01795602 60.47881161 18.19161833 44.61452126 6.25732422 30.50537109 C5.83370605 29.998125 5.41008789 29.49087891 4.97363281 28.96826172 C-15.46882615 4.70485424 -47.11183351 -12.82204955 -78.74267578 -16.49462891 C-84.12112187 -16.78818654 -89.48240226 -16.83486376 -94.86767578 -16.80712891 C-95.96583618 -16.80439468 -95.96583618 -16.80439468 -97.08618164 -16.80160522 C-107.92896075 -16.75610586 -118.20559428 -16.2599159 -128.74267578 -13.49462891 Z " fill="#030203" transform="translate(352.74267578125,138.49462890625)"/>
</svg>
