<svg xmlns="http://www.w3.org/2000/svg" xmlns:xlink="http://www.w3.org/1999/xlink" version="1.1" id="Layer_1" x="0px" y="0px" width="100%" viewBox="0 0 512 512" enable-background="new 0 0 512 512" xml:space="preserve">

<path fill="#288EE9" opacity="1.000000" stroke="none" d=" M149.907486,43.854828   C192.166702,22.809761 236.396240,14.884005 282.985596,19.831919   C377.298248,29.848171 458.659882,97.355133 485.367432,187.865402   C516.395325,293.017181 474.464233,403.478180 381.307831,460.554260   C335.220886,488.791321 284.964996,499.876556 231.131348,494.150146   C136.666122,484.101715 55.443985,416.720184 28.651569,326.232513   C-2.573383,220.774628 39.811649,110.161377 133.422806,52.958630   C138.669067,49.752815 144.180206,46.980495 149.907486,43.854828  z"/>
<path fill="#010101" opacity="1.000000" stroke="none" d=" M183.398087,367.398254   C175.605545,375.189331 167.743530,382.441040 160.592224,390.336426   C148.641525,403.530609 131.249237,402.546478 121.180016,392.267120   C111.657921,382.546295 110.903633,365.794983 123.451210,353.533234   C154.796143,322.902191 185.491638,291.607391 216.633331,260.766357   C219.897446,257.533752 219.460068,256.076752 216.485428,253.123108   C185.029099,221.888962 153.686142,190.540222 122.398567,159.136780   C109.243172,145.932663 111.667145,125.847664 127.283463,117.087845   C137.464233,111.377029 149.701004,113.095360 158.508743,121.771309   C170.737137,133.816711 182.811813,146.018188 194.950836,158.154312   C214.514709,177.713547 234.140213,197.211990 253.570007,216.903503   C256.354431,219.725449 257.760101,219.604492 260.482605,216.864853   C291.847015,185.302963 323.317657,153.846375 354.826172,122.428093   C366.024872,111.261452 382.388214,111.008682 392.739014,121.632179   C402.654510,131.808929 402.739441,147.607193 392.595398,158.108871   C382.755341,168.295853 372.611938,178.189896 362.596313,188.207169   C340.797638,210.009537 319.048584,231.862137 297.128326,253.541611   C294.349121,256.290314 294.346039,257.692932 297.125214,260.453949   C328.691589,291.813812 360.151672,323.281006 391.560455,354.798950   C403.168091,366.446930 402.941406,383.581299 391.279572,393.732361   C380.845154,402.814911 365.785706,402.317505 355.549530,392.268097   C343.182251,380.126556 331.009308,367.787140 318.753754,355.531830   C299.191925,335.970551 279.585083,316.453796 260.128540,296.788361   C257.695984,294.329681 256.438873,294.225311 253.939240,296.746674   C230.592331,320.296631 207.098999,343.701416 183.398087,367.398254  z"/>
<path fill="#FAFAFA" opacity="1.000000" stroke="none" d=" M189.843719,311.843628   C207.181320,294.505524 224.190063,277.337067 241.433151,260.407288   C244.352402,257.541107 243.946243,256.140289 241.299957,253.506699   C206.333328,218.707947 171.478241,183.797104 136.596954,148.912598   C130.442841,142.757935 129.520096,138.146393 133.578827,133.902710   C137.748825,129.542694 142.754578,130.438812 148.988159,136.670471   C183.876282,171.547989 218.799820,206.390320 253.581085,241.374084   C256.373749,244.183014 257.753235,244.069229 260.469543,241.338272   C295.258301,206.361725 330.173401,171.510880 365.064362,136.636063   C366.358246,135.342773 367.613983,133.962860 369.092957,132.912582   C372.858429,130.238571 376.632751,130.567047 380.046112,133.570312   C383.368195,136.493256 383.788513,141.107239 381.116241,144.869247   C380.065521,146.348389 378.701508,147.617172 377.408905,148.910538   C342.536621,183.803879 307.684082,218.717178 272.717255,253.515549   C270.052155,256.167816 269.728302,257.548798 272.606842,260.409088   C307.600586,295.180267 342.442688,330.104065 377.320038,364.992371   C378.497284,366.169983 379.746490,367.301208 380.763428,368.608643   C383.657562,372.329651 383.511505,376.768890 380.512115,380.003693   C377.451324,383.304688 372.550323,383.703339 368.729248,380.835388   C367.406738,379.842773 366.275116,378.587585 365.097961,377.410675   C330.329254,342.649231 295.528198,307.919922 260.869019,273.049622   C257.920868,270.083496 256.481171,269.659363 253.247406,272.919220   C218.505203,307.941528 183.562897,342.765350 148.659042,377.627197   C147.251328,379.033203 145.853851,380.587891 144.151535,381.532654   C140.181702,383.735962 136.318741,383.145569 133.320618,379.715851   C130.475662,376.461334 130.326294,372.754669 132.852692,369.168579   C133.802765,367.820007 135.039536,366.661377 136.214615,365.485138   C154.000870,347.681213 171.798645,329.888763 189.843719,311.843628  z"/>
</svg>