<svg xmlns="http://www.w3.org/2000/svg" xmlns:xlink="http://www.w3.org/1999/xlink" version="1.1" id="Layer_1" x="0px" y="0px" width="100%" viewBox="0 0 512 512" enable-background="new 0 0 512 512" xml:space="preserve">

<path fill="#FBAD3A" opacity="1.000000" stroke="none" d=" M495.648254,261.717987   C494.274170,308.046112 481.584412,350.488159 455.858337,388.526123   C417.606171,445.084930 364.884125,480.554626 297.379272,491.920441   C195.389755,509.092377 98.313385,462.034882 47.956711,371.731964   C23.662876,328.166656 13.403170,281.076019 20.031664,231.615555   C33.561066,130.661896 89.280464,62.183987 185.474686,29.719296   C298.094940,-8.289033 423.890198,48.463207 473.482269,156.672516   C488.712952,189.905670 496.061005,224.737030 495.648254,261.717987  M105.075912,361.500000   C105.075974,367.665558 105.068924,373.831116 105.077431,379.996674   C105.102516,398.183838 115.774506,408.919037 133.910507,408.921661   C215.898590,408.933533 297.886658,408.932129 379.874756,408.922791   C398.318726,408.920685 408.919464,398.251099 408.921021,379.705994   C408.927856,297.884552 408.928131,216.063110 408.920746,134.241669   C408.919098,115.698433 398.328461,105.078362 379.832336,105.076561   C298.010895,105.068619 216.189468,105.069588 134.368042,105.075737   C115.550888,105.077148 105.079224,115.612595 105.077995,134.532852   C105.073097,209.855240 105.075943,285.177612 105.075912,361.500000  z"/>
<path fill="#020201" opacity="1.000000" stroke="none" d=" M105.075912,361.000000   C105.075943,285.177612 105.073097,209.855240 105.077995,134.532852   C105.079224,115.612595 115.550888,105.077148 134.368042,105.075737   C216.189468,105.069588 298.010895,105.068619 379.832336,105.076561   C398.328461,105.078362 408.919098,115.698433 408.920746,134.241669   C408.928131,216.063110 408.927856,297.884552 408.921021,379.705994   C408.919464,398.251099 398.318726,408.920685 379.874756,408.922791   C297.886658,408.932129 215.898590,408.933533 133.910507,408.921661   C115.774506,408.919037 105.102516,398.183838 105.077431,379.996674   C105.068924,373.831116 105.075974,367.665558 105.075912,361.000000  M139.554718,122.409660   C138.721527,122.409668 137.888336,122.409508 137.055145,122.409698   C124.084038,122.412590 122.458420,124.060051 122.458412,137.203552   C122.458382,217.700455 122.457108,298.197357 122.459976,378.694275   C122.460350,389.203033 124.859612,391.587280 135.459366,391.587830   C216.456253,391.591980 297.453125,391.591766 378.450012,391.588196   C389.257568,391.587738 391.540649,389.259308 391.540833,378.280792   C391.542267,297.450562 391.542175,216.620346 391.540955,135.790131   C391.540802,124.606049 389.326874,122.411102 378.029755,122.410812   C298.866119,122.408791 219.702499,122.409706 139.554718,122.409660  z"/>
<path fill="#F6F6F6" opacity="1.000000" stroke="none" d=" M140.046799,122.409668   C219.702499,122.409706 298.866119,122.408791 378.029755,122.410812   C389.326874,122.411102 391.540802,124.606049 391.540955,135.790131   C391.542175,216.620346 391.542267,297.450562 391.540833,378.280792   C391.540649,389.259308 389.257568,391.587738 378.450012,391.588196   C297.453125,391.591766 216.456253,391.591980 135.459366,391.587830   C124.859612,391.587280 122.460350,389.203033 122.459976,378.694275   C122.457108,298.197357 122.458382,217.700455 122.458412,137.203552   C122.458420,124.060051 124.084038,122.412590 137.055145,122.409698   C137.888336,122.409508 138.721527,122.409668 140.046799,122.409668  M351.500000,374.057007   C358.936920,374.057007 366.373871,374.057007 373.835083,374.057007   C373.835083,295.770660 373.835083,218.033051 373.835083,140.304962   C295.740570,140.304962 217.881409,140.304962 140.253860,140.304962   C140.253860,218.405212 140.253860,296.143219 140.253860,374.057007   C210.551651,374.057007 280.525818,374.057007 351.500000,374.057007  z"/>
<path fill="#000000" opacity="1.000000" stroke="none" d=" M351.000000,374.057007   C280.525818,374.057007 210.551651,374.057007 140.253860,374.057007   C140.253860,296.143219 140.253860,218.405212 140.253860,140.304962   C217.881409,140.304962 295.740570,140.304962 373.835083,140.304962   C373.835083,218.033051 373.835083,295.770660 373.835083,374.057007   C366.373871,374.057007 358.936920,374.057007 351.000000,374.057007  M343.488403,157.121048   C281.442993,157.121048 219.397598,157.121048 157.480637,157.121048   C157.480637,224.137085 157.480637,290.348022 157.480637,356.564148   C224.049316,356.564148 290.259857,356.564148 356.606750,356.564148   C356.606750,290.038483 356.606750,223.827911 356.606750,157.720490   C356.052399,157.473190 355.763306,157.234741 355.470612,157.230270   C351.808380,157.174149 348.145691,157.151962 343.488403,157.121048  z"/>
<path fill="#FBAC3A" opacity="1.000000" stroke="none" d=" M343.985748,157.121063   C348.145691,157.151962 351.808380,157.174149 355.470612,157.230270   C355.763306,157.234741 356.052399,157.473190 356.606750,157.720490   C356.606750,223.827911 356.606750,290.038483 356.606750,356.564148   C290.259857,356.564148 224.049316,356.564148 157.480637,356.564148   C157.480637,290.348022 157.480637,224.137085 157.480637,157.121048   C219.397598,157.121048 281.442993,157.121048 343.985748,157.121063  z"/>
</svg>