<?xml version="1.0" encoding="UTF-8"?>
<!DOCTYPE svg PUBLIC "-//W3C//DTD SVG 1.1//EN" "http://www.w3.org/Graphics/SVG/1.1/DTD/svg11.dtd">
<svg xmlns="http://www.w3.org/2000/svg" version="1.1" width="512px" height="512px" style="shape-rendering:geometricPrecision; text-rendering:geometricPrecision; image-rendering:optimizeQuality; fill-rule:evenodd; clip-rule:evenodd" xmlns:xlink="http://www.w3.org/1999/xlink">
<g><path style="opacity:0.965" fill="#000100" d="M 232.5,-0.5 C 247.833,-0.5 263.167,-0.5 278.5,-0.5C 378.271,12.4486 449.438,64.4486 492,155.5C 502.136,180.379 508.636,206.046 511.5,232.5C 511.5,247.833 511.5,263.167 511.5,278.5C 498.549,378.273 446.549,449.439 355.5,492C 330.622,502.136 304.955,508.636 278.5,511.5C 263.167,511.5 247.833,511.5 232.5,511.5C 132.727,498.549 61.5605,446.549 19,355.5C 8.86392,330.621 2.36392,304.954 -0.5,278.5C -0.5,263.167 -0.5,247.833 -0.5,232.5C 12.4486,132.729 64.4486,61.5622 155.5,19C 180.379,8.86392 206.046,2.36392 232.5,-0.5 Z"/></g>
<g><path style="opacity:1" fill="#82d715" d="M 239.5,16.5 C 326.461,14.1657 396.295,47.1657 449,115.5C 501.45,193.128 508.45,274.794 470,360.5C 435.848,426.638 382.682,469.138 310.5,488C 220.226,505.833 143.06,481.999 79,416.5C 17.8012,344.664 1.80123,263.664 31,173.5C 65.074,90.0336 126.241,38.8669 214.5,20C 222.973,18.7653 231.306,17.5987 239.5,16.5 Z"/></g>
<g><path style="opacity:1" fill="#060704" d="M 250.5,87.5 C 262.091,86.8805 271.258,91.2138 278,100.5C 325.267,183.37 372.267,266.37 419,349.5C 420.492,365.994 413.325,376.494 397.5,381C 302.5,381.667 207.5,381.667 112.5,381C 97.2654,376.043 90.4321,365.543 92,349.5C 138.733,266.37 185.733,183.37 233,100.5C 237.38,94.0747 243.213,89.7414 250.5,87.5 Z"/></g>
<g><path style="opacity:1" fill="#fcfcfc" d="M 251.5,105.5 C 257.961,104.141 262.461,106.475 265,112.5C 309.08,190.329 353.414,267.996 398,345.5C 401.111,349.722 402.111,354.389 401,359.5C 399.833,360.667 398.667,361.833 397.5,363C 302.833,363.667 208.167,363.667 113.5,363C 109.723,360.045 108.557,356.212 110,351.5C 156.435,268.948 203.602,186.948 251.5,105.5 Z"/></g>
<g><path style="opacity:1" fill="#020201" d="M 377.5,345.5 C 296.167,346.833 214.833,346.833 133.5,345.5C 173.917,274.329 214.584,203.329 255.5,132.5C 296.416,203.329 337.083,274.329 377.5,345.5 Z"/></g>
<g><path style="opacity:1" fill="#82d715" d="M 347.5,327.5 C 286.336,328.499 225.002,328.832 163.5,328.5C 193.4,274.364 224.066,220.698 255.5,167.5C 286.669,220.499 317.335,273.832 347.5,327.5 Z"/></g>
<g><path style="opacity:1" fill="#5f9d0f" d="M 347.5,327.5 C 348.043,327.56 348.376,327.893 348.5,328.5C 317.5,328.833 286.5,329.167 255.5,329.5C 224.096,329.504 193.429,329.17 163.5,328.5C 225.002,328.832 286.336,328.499 347.5,327.5 Z"/></g>
<g><path style="opacity:1" fill="#dcdcdc" d="M 133.5,345.5 C 214.833,346.833 296.167,346.833 377.5,345.5C 378.043,345.56 378.376,345.893 378.5,346.5C 296.5,347.833 214.5,347.833 132.5,346.5C 132.624,345.893 132.957,345.56 133.5,345.5 Z"/></g>
</svg>
