<svg xmlns="http://www.w3.org/2000/svg" version="1.0" width="512.000000pt" height="512.000000pt" viewBox="0 0 512.000000 512.000000" preserveAspectRatio="xMidYMid meet">
  <g transform="translate(0.000000,512.000000) scale(0.100000,-0.100000)" fill="red" stroke="none">
    <path d="M2365 5113 c-330 -28 -635 -112 -930 -257 -516 -254 -917 -655 -1171 -1171 -126 -258 -203 -511 -246 -810 -17 -118 -17 -512 0 -630 42 -295 120 -553 242 -800 137 -280 272 -468 494 -691 218 -217 408 -355 677 -488 329 -164 668 -249 1044 -263 434 -15 840 74 1230 271 274 139 481 291 691 509 197 204 336 401 459 652 92 188 137 309 185 500 150 598 86 1208 -186 1754 -124 250 -263 447 -458 648 -216 224 -428 378 -711 518 -296 146 -572 225 -900 255 -102 9 -327 11 -420 3z m519 -893 c151 -30 269 -70 421 -145 343 -167 603 -428 770 -770 75 -153 116 -273 147 -428 33 -163 33 -471 0 -634 -59 -295 -200 -581 -394 -801 -247 -278 -580 -469 -951 -544 -96 -20 -142 -23 -322 -22 -177 0 -226 4 -315 22 -157 33 -280 76 -425 147 -345 169 -603 427 -770 770 -75 153 -115 271 -147 427 -33 164 -33 472 0 636 32 158 73 277 146 427 170 344 427 601 771 770 183 89 339 138 533 164 116 17 412 6 536 -19z"/>
    <path d="M2390 4069 c-341 -39 -651 -189 -900 -439 -262 -261 -407 -571 -441 -939 -10 -103 -10 -159 0 -262 34 -368 179 -678 441 -939 127 -128 242 -211 395 -288 360 -180 780 -209 1160 -80 118 40 268 116 380 191 116 79 301 264 381 382 276 405 345 893 192 1349 -119 357 -389 674 -728 858 -257 139 -583 201 -880 167z"/>
  </g>
</svg>
