<svg width="151" height="151" viewBox="0 0 151 151" fill="none" xmlns="http://www.w3.org/2000/svg">
<g clip-path="url(#clip0_3_22323)">
<path d="M12.5 0V6.25H6.25V12.5H0V137.52H6.25V143.77H12.5V150.02H37.5V150H37.51V150.02H112.51V150H112.52V150.02H137.52V143.77H143.77V137.52H150.02V112.52H150V112.51H150.02V37.51H150V37.5H150.02V12.5H143.77V6.25H137.52V0H12.5Z" fill="#4C4C4C"/>
<path d="M137.52 0.0200195H131.27V6.27002H137.52V0.0200195Z" fill="#4C4C4C"/>
<path d="M131.27 0.0200195H125.02V6.27002H131.27V0.0200195Z" fill="#4C4C4C"/>
<path d="M125.02 0.0200195H118.77V6.27002H125.02V0.0200195Z" fill="#4C4C4C"/>
<path d="M118.77 0.0200195H112.52V6.27002H118.77V0.0200195Z" fill="#4C4C4C"/>
<path d="M112.51 0.0200195H106.26V6.27002H112.51V0.0200195Z" fill="#4C4C4C"/>
<path d="M106.26 0.0200195H100.01V6.27002H106.26V0.0200195Z" fill="#4C4C4C"/>
<path d="M100.01 0.0200195H93.76V6.27002H100.01V0.0200195Z" fill="#4C4C4C"/>
<path d="M93.76 0.0200195H87.51V6.27002H93.76V0.0200195Z" fill="#4C4C4C"/>
<path d="M87.51 0.0200195H81.26V6.27002H87.51V0.0200195Z" fill="#4C4C4C"/>
<path d="M81.26 0.0200195H75.01V6.27002H81.26V0.0200195Z" fill="#4C4C4C"/>
<path d="M75.01 0.0200195H68.76V6.27002H75.01V0.0200195Z" fill="#4C4C4C"/>
<path d="M68.76 0.0200195H62.51V6.27002H68.76V0.0200195Z" fill="#4C4C4C"/>
<path d="M62.51 0.0200195H56.26V6.27002H62.51V0.0200195Z" fill="#4C4C4C"/>
<path d="M56.26 0.0200195H50.01V6.27002H56.26V0.0200195Z" fill="#4C4C4C"/>
<path d="M50.01 0.0200195H43.76V6.27002H50.01V0.0200195Z" fill="#4C4C4C"/>
<path d="M43.76 0.0200195H37.51V6.27002H43.76V0.0200195Z" fill="#4C4C4C"/>
<path d="M37.5 0.0200195H31.25V6.27002H37.5V0.0200195Z" fill="#4C4C4C"/>
<path d="M31.25 0.0200195H25V6.27002H31.25V0.0200195Z" fill="#4C4C4C"/>
<path d="M25 0.0200195H18.75V6.27002H25V0.0200195Z" fill="#4C4C4C"/>
<path d="M18.75 0.0200195H12.5V6.27002H18.75V0.0200195Z" fill="#4C4C4C"/>
<path d="M143.77 6.27002H137.52V12.52H143.77V6.27002Z" fill="#4C4C4C"/>
<path d="M137.52 6.27002H131.27V12.52H137.52V6.27002Z" fill="#3D3D3D"/>
<path d="M131.27 6.27002H125.02V12.52H131.27V6.27002Z" fill="#3D3D3D"/>
<path d="M125.02 6.27002H118.77V12.52H125.02V6.27002Z" fill="#3D3D3D"/>
<path d="M118.77 6.27002H112.52V12.52H118.77V6.27002Z" fill="#3D3D3D"/>
<path d="M112.51 6.27002H106.26V12.52H112.51V6.27002Z" fill="#D6D6D6"/>
<path d="M106.26 6.27002H100.01V12.52H106.26V6.27002Z" fill="#A5A5A5"/>
<path d="M100.01 6.27002H93.76V12.52H100.01V6.27002Z" fill="#A5A5A5"/>
<path d="M93.76 6.27002H87.51V12.52H93.76V6.27002Z" fill="#A5A5A5"/>
<path d="M87.51 6.27002H81.26V12.52H87.51V6.27002Z" fill="#A5A5A5"/>
<path d="M81.26 6.27002H75.01V12.52H81.26V6.27002Z" fill="#A5A5A5"/>
<path d="M75.01 6.27002H68.76V12.52H75.01V6.27002Z" fill="#A5A5A5"/>
<path d="M68.76 6.27002H62.51V12.52H68.76V6.27002Z" fill="#A5A5A5"/>
<path d="M62.51 6.27002H56.26V12.52H62.51V6.27002Z" fill="#A5A5A5"/>
<path d="M56.26 6.27002H50.01V12.52H56.26V6.27002Z" fill="#A5A5A5"/>
<path d="M50.01 6.27002H43.76V12.52H50.01V6.27002Z" fill="#D6D6D6"/>
<path d="M43.76 6.27002H37.51V12.52H43.76V6.27002Z" fill="#D6D6D6"/>
<path d="M37.5 6.27002H31.25V12.52H37.5V6.27002Z" fill="#808080"/>
<path d="M31.25 6.27002H25V12.52H31.25V6.27002Z" fill="#808080"/>
<path d="M25 6.27002H18.75V12.52H25V6.27002Z" fill="#808080"/>
<path d="M18.75 6.27002H12.5V12.52H18.75V6.27002Z" fill="#808080"/>
<path d="M12.5 6.27002H6.25V12.52H12.5V6.27002Z" fill="#4C4C4C"/>
<path d="M150.02 12.52H143.77V18.77H150.02V12.52Z" fill="#4C4C4C"/>
<path d="M143.77 12.52H137.52V18.77H143.77V12.52Z" fill="#3D3D3D"/>
<path d="M137.52 12.52H131.27V18.77H137.52V12.52Z" fill="#3D3D3D"/>
<path d="M131.27 12.52H125.02V18.77H131.27V12.52Z" fill="#3D3D3D"/>
<path d="M125.02 12.52H118.77V18.77H125.02V12.52Z" fill="#3D3D3D"/>
<path d="M118.77 12.52H112.52V18.77H118.77V12.52Z" fill="#D6D6D6"/>
<path d="M112.51 12.52H106.26V18.77H112.51V12.52Z" fill="#A5A5A5"/>
<path d="M106.26 12.52H100.01V18.77H106.26V12.52Z" fill="#A5A5A5"/>
<path d="M100.01 12.52H93.76V18.77H100.01V12.52Z" fill="#A5A5A5"/>
<path d="M93.76 12.52H87.51V18.77H93.76V12.52Z" fill="#A5A5A5"/>
<path d="M87.51 12.52H81.26V18.77H87.51V12.52Z" fill="#A5A5A5"/>
<path d="M81.26 12.52H75.01V18.77H81.26V12.52Z" fill="#A5A5A5"/>
<path d="M75.01 12.52H68.76V18.77H75.01V12.52Z" fill="#A5A5A5"/>
<path d="M68.76 12.52H62.51V18.77H68.76V12.52Z" fill="#A5A5A5"/>
<path d="M62.51 12.52H56.26V18.77H62.51V12.52Z" fill="#A5A5A5"/>
<path d="M56.26 12.52H50.01V18.77H56.26V12.52Z" fill="#D6D6D6"/>
<path d="M50.01 12.52H43.76V18.77H50.01V12.52Z" fill="#D6D6D6"/>
<path d="M43.76 12.52H37.51V18.77H43.76V12.52Z" fill="#D6D6D6"/>
<path d="M37.5 12.52H31.25V18.77H37.5V12.52Z" fill="#A5A5A5"/>
<path d="M31.25 12.52H25V18.77H31.25V12.52Z" fill="#808080"/>
<path d="M25 12.52H18.75V18.77H25V12.52Z" fill="#808080"/>
<path d="M18.75 12.52H12.5V18.77H18.75V12.52Z" fill="#808080"/>
<path d="M12.5 12.52H6.25V18.77H12.5V12.52Z" fill="#808080"/>
<path d="M6.25 12.52H0V18.77H6.25V12.52Z" fill="#4C4C4C"/>
<path d="M150.02 18.77H143.77V25.02H150.02V18.77Z" fill="#4C4C4C"/>
<path d="M143.77 18.77H137.52V25.02H143.77V18.77Z" fill="#3D3D3D"/>
<path d="M137.52 18.77H131.27V25.02H137.52V18.77Z" fill="#3D3D3D"/>
<path d="M131.27 18.77H125.02V25.02H131.27V18.77Z" fill="#3D3D3D"/>
<path d="M125.02 18.77H118.77V25.02H125.02V18.77Z" fill="#3D3D3D"/>
<path d="M118.77 18.77H112.52V25.02H118.77V18.77Z" fill="#A5A5A5"/>
<path d="M112.51 18.77H106.26V25.02H112.51V18.77Z" fill="#A5A5A5"/>
<path d="M106.26 18.77H100.01V25.02H106.26V18.77Z" fill="#A5A5A5"/>
<path d="M100.01 18.77H93.76V25.02H100.01V18.77Z" fill="#A5A5A5"/>
<path d="M93.76 18.77H87.51V25.02H93.76V18.77Z" fill="#A5A5A5"/>
<path d="M87.51 18.77H81.26V25.02H87.51V18.77Z" fill="#A5A5A5"/>
<path d="M81.26 18.77H75.01V25.02H81.26V18.77Z" fill="#A5A5A5"/>
<path d="M75.01 18.77H68.76V25.02H75.01V18.77Z" fill="#A5A5A5"/>
<path d="M68.76 18.77H62.51V25.02H68.76V18.77Z" fill="#A5A5A5"/>
<path d="M62.51 18.77H56.26V25.02H62.51V18.77Z" fill="#D6D6D6"/>
<path d="M56.26 18.77H50.01V25.02H56.26V18.77Z" fill="#D6D6D6"/>
<path d="M50.01 18.77H43.76V25.02H50.01V18.77Z" fill="#D6D6D6"/>
<path d="M43.76 18.77H37.51V25.02H43.76V18.77Z" fill="#A5A5A5"/>
<path d="M37.5 18.77H31.25V25.02H37.5V18.77Z" fill="#A5A5A5"/>
<path d="M31.25 18.77H25V25.02H31.25V18.77Z" fill="#808080"/>
<path d="M25 18.77H18.75V25.02H25V18.77Z" fill="#808080"/>
<path d="M18.75 18.77H12.5V25.02H18.75V18.77Z" fill="#808080"/>
<path d="M12.5 18.77H6.25V25.02H12.5V18.77Z" fill="#808080"/>
<path d="M6.25 18.77H0V25.02H6.25V18.77Z" fill="#4C4C4C"/>
<path d="M150.02 25.02H143.77V31.27H150.02V25.02Z" fill="#4C4C4C"/>
<path d="M143.77 25.02H137.52V31.27H143.77V25.02Z" fill="#3D3D3D"/>
<path d="M137.52 25.02H131.27V31.27H137.52V25.02Z" fill="#3D3D3D"/>
<path d="M131.27 25.02H125.02V31.27H131.27V25.02Z" fill="#3D3D3D"/>
<path d="M125.02 25.02H118.77V31.27H125.02V25.02Z" fill="#3D3D3D"/>
<path d="M118.77 25.02H112.52V31.27H118.77V25.02Z" fill="#A5A5A5"/>
<path d="M112.51 25.02H106.26V31.27H112.51V25.02Z" fill="#A5A5A5"/>
<path d="M106.26 25.02H100.01V31.27H106.26V25.02Z" fill="#A5A5A5"/>
<path d="M100.01 25.02H93.76V31.27H100.01V25.02Z" fill="#A5A5A5"/>
<path d="M93.76 25.02H87.51V31.27H93.76V25.02Z" fill="#A5A5A5"/>
<path d="M87.51 25.02H81.26V31.27H87.51V25.02Z" fill="#A5A5A5"/>
<path d="M81.26 25.02H75.01V31.27H81.26V25.02Z" fill="#A5A5A5"/>
<path d="M75.01 25.02H68.76V31.27H75.01V25.02Z" fill="#A5A5A5"/>
<path d="M68.76 25.02H62.51V31.27H68.76V25.02Z" fill="#D6D6D6"/>
<path d="M62.51 25.02H56.26V31.27H62.51V25.02Z" fill="#D6D6D6"/>
<path d="M56.26 25.02H50.01V31.27H56.26V25.02Z" fill="#D6D6D6"/>
<path d="M50.01 25.02H43.76V31.27H50.01V25.02Z" fill="#A5A5A5"/>
<path d="M43.76 25.02H37.51V31.27H43.76V25.02Z" fill="#A5A5A5"/>
<path d="M37.5 25.02H31.25V31.27H37.5V25.02Z" fill="#A5A5A5"/>
<path d="M31.25 25.02H25V31.27H31.25V25.02Z" fill="#808080"/>
<path d="M25 25.02H18.75V31.27H25V25.02Z" fill="#808080"/>
<path d="M18.75 25.02H12.5V31.27H18.75V25.02Z" fill="#808080"/>
<path d="M12.5 25.02H6.25V31.27H12.5V25.02Z" fill="#808080"/>
<path d="M6.25 25.02H0V31.27H6.25V25.02Z" fill="#4C4C4C"/>
<path d="M150.02 31.27H143.77V37.52H150.02V31.27Z" fill="#4C4C4C"/>
<path d="M143.77 31.27H137.52V37.52H143.77V31.27Z" fill="#3D3D3D"/>
<path d="M137.52 31.27H131.27V37.52H137.52V31.27Z" fill="#3D3D3D"/>
<path d="M131.27 31.27H125.02V37.52H131.27V31.27Z" fill="#3D3D3D"/>
<path d="M125.02 31.27H118.77V37.52H125.02V31.27Z" fill="#3D3D3D"/>
<path d="M118.77 31.27H112.52V37.52H118.77V31.27Z" fill="#A5A5A5"/>
<path d="M112.51 31.27H106.26V37.52H112.51V31.27Z" fill="#A5A5A5"/>
<path d="M106.26 31.27H100.01V37.52H106.26V31.27Z" fill="#A5A5A5"/>
<path d="M100.01 31.27H93.76V37.52H100.01V31.27Z" fill="#A5A5A5"/>
<path d="M93.76 31.27H87.51V37.52H93.76V31.27Z" fill="#A5A5A5"/>
<path d="M87.51 31.27H81.26V37.52H87.51V31.27Z" fill="#A5A5A5"/>
<path d="M81.26 31.27H75.01V37.52H81.26V31.27Z" fill="#A5A5A5"/>
<path d="M75.01 31.27H68.76V37.52H75.01V31.27Z" fill="#D6D6D6"/>
<path d="M68.76 31.27H62.51V37.52H68.76V31.27Z" fill="#D6D6D6"/>
<path d="M62.51 31.27H56.26V37.52H62.51V31.27Z" fill="#D6D6D6"/>
<path d="M56.26 31.27H50.01V37.52H56.26V31.27Z" fill="#A5A5A5"/>
<path d="M50.01 31.27H43.76V37.52H50.01V31.27Z" fill="#A5A5A5"/>
<path d="M43.76 31.27H37.51V37.52H43.76V31.27Z" fill="#A5A5A5"/>
<path d="M37.5 31.27H31.25V37.52H37.5V31.27Z" fill="#D6D6D6"/>
<path d="M31.25 31.27H25V37.52H31.25V31.27Z" fill="#808080"/>
<path d="M25 31.27H18.75V37.52H25V31.27Z" fill="#808080"/>
<path d="M18.75 31.27H12.5V37.52H18.75V31.27Z" fill="#808080"/>
<path d="M12.5 31.27H6.25V37.52H12.5V31.27Z" fill="#808080"/>
<path d="M6.25 31.27H0V37.52H6.25V31.27Z" fill="#4C4C4C"/>
<path d="M150.02 37.53H143.77V43.78H150.02V37.53Z" fill="#4C4C4C"/>
<path d="M143.77 37.53H137.52V43.78H143.77V37.53Z" fill="#3D3D3D"/>
<path d="M137.52 37.53H131.27V43.78H137.52V37.53Z" fill="#3D3D3D"/>
<path d="M131.27 37.53H125.02V43.78H131.27V37.53Z" fill="#3D3D3D"/>
<path d="M125.02 37.53H118.77V43.78H125.02V37.53Z" fill="#3D3D3D"/>
<path d="M118.77 37.53H112.52V43.78H118.77V37.53Z" fill="#A5A5A5"/>
<path d="M112.51 37.53H106.26V43.78H112.51V37.53Z" fill="#A5A5A5"/>
<path d="M106.26 37.53H100.01V43.78H106.26V37.53Z" fill="#A5A5A5"/>
<path d="M100.01 37.53H93.76V43.78H100.01V37.53Z" fill="#A5A5A5"/>
<path d="M93.76 37.53H87.51V43.78H93.76V37.53Z" fill="#A5A5A5"/>
<path d="M87.51 37.53H81.26V43.78H87.51V37.53Z" fill="#A5A5A5"/>
<path d="M81.26 37.53H75.01V43.78H81.26V37.53Z" fill="#D6D6D6"/>
<path d="M75.01 37.53H68.76V43.78H75.01V37.53Z" fill="#D6D6D6"/>
<path d="M68.76 37.53H62.51V43.78H68.76V37.53Z" fill="#D6D6D6"/>
<path d="M62.51 37.53H56.26V43.78H62.51V37.53Z" fill="#A5A5A5"/>
<path d="M56.26 37.53H50.01V43.78H56.26V37.53Z" fill="#A5A5A5"/>
<path d="M50.01 37.53H43.76V43.78H50.01V37.53Z" fill="#A5A5A5"/>
<path d="M43.76 37.53H37.51V43.78H43.76V37.53Z" fill="#D6D6D6"/>
<path d="M37.5 37.53H31.25V43.78H37.5V37.53Z" fill="#A5A5A5"/>
<path d="M31.25 37.53H25V43.78H31.25V37.53Z" fill="#808080"/>
<path d="M25 37.53H18.75V43.78H25V37.53Z" fill="#808080"/>
<path d="M18.75 37.53H12.5V43.78H18.75V37.53Z" fill="#808080"/>
<path d="M12.5 37.53H6.25V43.78H12.5V37.53Z" fill="#808080"/>
<path d="M6.25 37.53H0V43.78H6.25V37.53Z" fill="#4C4C4C"/>
<path d="M150.02 43.78H143.77V50.03H150.02V43.78Z" fill="#4C4C4C"/>
<path d="M143.77 43.78H137.52V50.03H143.77V43.78Z" fill="#3D3D3D"/>
<path d="M137.52 43.78H131.27V50.03H137.52V43.78Z" fill="#3D3D3D"/>
<path d="M131.27 43.78H125.02V50.03H131.27V43.78Z" fill="#3D3D3D"/>
<path d="M125.02 43.78H118.77V50.03H125.02V43.78Z" fill="#3D3D3D"/>
<path d="M118.77 43.78H112.52V50.03H118.77V43.78Z" fill="#A5A5A5"/>
<path d="M112.51 43.78H106.26V50.03H112.51V43.78Z" fill="#A5A5A5"/>
<path d="M106.26 43.78H100.01V50.03H106.26V43.78Z" fill="#A5A5A5"/>
<path d="M100.01 43.78H93.76V50.03H100.01V43.78Z" fill="#A5A5A5"/>
<path d="M93.76 43.78H87.51V50.03H93.76V43.78Z" fill="#A5A5A5"/>
<path d="M87.51 43.78H81.26V50.03H87.51V43.78Z" fill="#D6D6D6"/>
<path d="M81.26 43.78H75.01V50.03H81.26V43.78Z" fill="#D6D6D6"/>
<path d="M75.01 43.78H68.76V50.03H75.01V43.78Z" fill="#D6D6D6"/>
<path d="M68.76 43.78H62.51V50.03H68.76V43.78Z" fill="#A5A5A5"/>
<path d="M62.51 43.78H56.26V50.03H62.51V43.78Z" fill="#A5A5A5"/>
<path d="M56.26 43.78H50.01V50.03H56.26V43.78Z" fill="#A5A5A5"/>
<path d="M50.01 43.78H43.76V50.03H50.01V43.78Z" fill="#D6D6D6"/>
<path d="M43.76 43.78H37.51V50.03H43.76V43.78Z" fill="#A5A5A5"/>
<path d="M37.5 43.78H31.25V50.03H37.5V43.78Z" fill="#A5A5A5"/>
<path d="M31.25 43.78H25V50.03H31.25V43.78Z" fill="#808080"/>
<path d="M25 43.78H18.75V50.03H25V43.78Z" fill="#808080"/>
<path d="M18.75 43.78H12.5V50.03H18.75V43.78Z" fill="#808080"/>
<path d="M12.5 43.78H6.25V50.03H12.5V43.78Z" fill="#808080"/>
<path d="M6.25 43.78H0V50.03H6.25V43.78Z" fill="#4C4C4C"/>
<path d="M150.02 50.03H143.77V56.28H150.02V50.03Z" fill="#4C4C4C"/>
<path d="M143.77 50.03H137.52V56.28H143.77V50.03Z" fill="#3D3D3D"/>
<path d="M137.52 50.03H131.27V56.28H137.52V50.03Z" fill="#3D3D3D"/>
<path d="M131.27 50.03H125.02V56.28H131.27V50.03Z" fill="#3D3D3D"/>
<path d="M125.02 50.03H118.77V56.28H125.02V50.03Z" fill="#3D3D3D"/>
<path d="M118.77 50.03H112.52V56.28H118.77V50.03Z" fill="#A5A5A5"/>
<path d="M112.51 50.03H106.26V56.28H112.51V50.03Z" fill="#A5A5A5"/>
<path d="M106.26 50.03H100.01V56.28H106.26V50.03Z" fill="#A5A5A5"/>
<path d="M100.01 50.03H93.76V56.28H100.01V50.03Z" fill="#A5A5A5"/>
<path d="M93.76 50.03H87.51V56.28H93.76V50.03Z" fill="#D6D6D6"/>
<path d="M87.51 50.03H81.26V56.28H87.51V50.03Z" fill="#D6D6D6"/>
<path d="M81.26 50.03H75.01V56.28H81.26V50.03Z" fill="#D6D6D6"/>
<path d="M75.01 50.03H68.76V56.28H75.01V50.03Z" fill="#A5A5A5"/>
<path d="M68.76 50.03H62.51V56.28H68.76V50.03Z" fill="#A5A5A5"/>
<path d="M62.51 50.03H56.26V56.28H62.51V50.03Z" fill="#A5A5A5"/>
<path d="M56.26 50.03H50.01V56.28H56.26V50.03Z" fill="#D6D6D6"/>
<path d="M50.01 50.03H43.76V56.28H50.01V50.03Z" fill="#A5A5A5"/>
<path d="M43.76 50.03H37.51V56.28H43.76V50.03Z" fill="#A5A5A5"/>
<path d="M37.5 50.03H31.25V56.28H37.5V50.03Z" fill="#A5A5A5"/>
<path d="M31.25 50.03H25V56.28H31.25V50.03Z" fill="#808080"/>
<path d="M25 50.03H18.75V56.28H25V50.03Z" fill="#808080"/>
<path d="M18.75 50.03H12.5V56.28H18.75V50.03Z" fill="#808080"/>
<path d="M12.5 50.03H6.25V56.28H12.5V50.03Z" fill="#808080"/>
<path d="M6.25 50.03H0V56.28H6.25V50.03Z" fill="#4C4C4C"/>
<path d="M150.02 56.28H143.77V62.53H150.02V56.28Z" fill="#4C4C4C"/>
<path d="M143.77 56.28H137.52V62.53H143.77V56.28Z" fill="#3D3D3D"/>
<path d="M137.52 56.28H131.27V62.53H137.52V56.28Z" fill="#3D3D3D"/>
<path d="M131.27 56.28H125.02V62.53H131.27V56.28Z" fill="#3D3D3D"/>
<path d="M125.02 56.28H118.77V62.53H125.02V56.28Z" fill="#3D3D3D"/>
<path d="M118.77 56.28H112.52V62.53H118.77V56.28Z" fill="#A5A5A5"/>
<path d="M112.51 56.28H106.26V62.53H112.51V56.28Z" fill="#A5A5A5"/>
<path d="M106.26 56.28H100.01V62.53H106.26V56.28Z" fill="#A5A5A5"/>
<path d="M150.02 62.53H143.77V68.78H150.02V62.53Z" fill="#4C4C4C"/>
<path d="M143.77 62.53H137.52V68.78H143.77V62.53Z" fill="#3D3D3D"/>
<path d="M137.52 62.53H131.27V68.78H137.52V62.53Z" fill="#3D3D3D"/>
<path d="M131.27 62.53H125.02V68.78H131.27V62.53Z" fill="#3D3D3D"/>
<path d="M125.02 62.53H118.77V68.78H125.02V62.53Z" fill="#3D3D3D"/>
<path d="M118.77 62.53H112.52V68.78H118.77V62.53Z" fill="#A5A5A5"/>
<path d="M112.51 62.53H106.26V68.78H112.51V62.53Z" fill="#A5A5A5"/>
<path d="M106.26 62.53H100.01V68.78H106.26V62.53Z" fill="#D6D6D6"/>
<path d="M150.02 68.78H143.77V75.03H150.02V68.78Z" fill="#4C4C4C"/>
<path d="M143.77 68.78H137.52V75.03H143.77V68.78Z" fill="#3D3D3D"/>
<path d="M137.52 68.78H131.27V75.03H137.52V68.78Z" fill="#3D3D3D"/>
<path d="M131.27 68.78H125.02V75.03H131.27V68.78Z" fill="#3D3D3D"/>
<path d="M125.02 68.78H118.77V75.03H125.02V68.78Z" fill="#3D3D3D"/>
<path d="M118.77 68.78H112.52V75.03H118.77V68.78Z" fill="#A5A5A5"/>
<path d="M112.51 68.78H106.26V75.03H112.51V68.78Z" fill="#D6D6D6"/>
<path d="M106.26 68.78H100.01V75.03H106.26V68.78Z" fill="#D6D6D6"/>
<path d="M150.02 75.03H143.77V81.28H150.02V75.03Z" fill="#4C4C4C"/>
<path d="M143.77 75.03H137.52V81.28H143.77V75.03Z" fill="#3D3D3D"/>
<path d="M137.52 75.03H131.27V81.28H137.52V75.03Z" fill="#3D3D3D"/>
<path d="M131.27 75.03H125.02V81.28H131.27V75.03Z" fill="#3D3D3D"/>
<path d="M125.02 75.03H118.77V81.28H125.02V75.03Z" fill="#3D3D3D"/>
<path d="M118.77 75.03H112.52V81.28H118.77V75.03Z" fill="#D6D6D6"/>
<path d="M112.51 75.03H106.26V81.28H112.51V75.03Z" fill="#D6D6D6"/>
<path d="M106.26 75.03H100.01V81.28H106.26V75.03Z" fill="#D6D6D6"/>
<path d="M150.02 81.28H143.77V87.53H150.02V81.28Z" fill="#4C4C4C"/>
<path d="M143.77 81.28H137.52V87.53H143.77V81.28Z" fill="#3D3D3D"/>
<path d="M137.52 81.28H131.27V87.53H137.52V81.28Z" fill="#3D3D3D"/>
<path d="M131.27 81.28H125.02V87.53H131.27V81.28Z" fill="#3D3D3D"/>
<path d="M125.02 81.28H118.77V87.53H125.02V81.28Z" fill="#3D3D3D"/>
<path d="M118.77 81.28H112.52V87.53H118.77V81.28Z" fill="#D6D6D6"/>
<path d="M112.51 81.28H106.26V87.53H112.51V81.28Z" fill="#D6D6D6"/>
<path d="M106.26 81.28H100.01V87.53H106.26V81.28Z" fill="#A5A5A5"/>
<path d="M150.02 87.53H143.77V93.78H150.02V87.53Z" fill="#4C4C4C"/>
<path d="M143.77 87.53H137.52V93.78H143.77V87.53Z" fill="#3D3D3D"/>
<path d="M137.52 87.53H131.27V93.78H137.52V87.53Z" fill="#3D3D3D"/>
<path d="M131.27 87.53H125.02V93.78H131.27V87.53Z" fill="#3D3D3D"/>
<path d="M125.02 87.53H118.77V93.78H125.02V87.53Z" fill="#3D3D3D"/>
<path d="M118.77 87.53H112.52V93.78H118.77V87.53Z" fill="#D6D6D6"/>
<path d="M112.51 87.53H106.26V93.78H112.51V87.53Z" fill="#A5A5A5"/>
<path d="M106.26 87.53H100.01V93.78H106.26V87.53Z" fill="#A5A5A5"/>
<path d="M150.02 93.78H143.77V100.03H150.02V93.78Z" fill="#4C4C4C"/>
<path d="M143.77 93.78H137.52V100.03H143.77V93.78Z" fill="#3D3D3D"/>
<path d="M137.52 93.78H131.27V100.03H137.52V93.78Z" fill="#3D3D3D"/>
<path d="M131.27 93.78H125.02V100.03H131.27V93.78Z" fill="#3D3D3D"/>
<path d="M125.02 93.78H118.77V100.03H125.02V93.78Z" fill="#3D3D3D"/>
<path d="M118.77 93.78H112.52V100.03H118.77V93.78Z" fill="#A5A5A5"/>
<path d="M112.51 93.78H106.26V100.03H112.51V93.78Z" fill="#A5A5A5"/>
<path d="M106.26 93.78H100.01V100.03H106.26V93.78Z" fill="#A5A5A5"/>
<path d="M150.02 100.03H143.77V106.28H150.02V100.03Z" fill="#4C4C4C"/>
<path d="M143.77 100.03H137.52V106.28H143.77V100.03Z" fill="#3D3D3D"/>
<path d="M137.52 100.03H131.27V106.28H137.52V100.03Z" fill="#3D3D3D"/>
<path d="M131.27 100.03H125.02V106.28H131.27V100.03Z" fill="#3D3D3D"/>
<path d="M125.02 100.03H118.77V106.28H125.02V100.03Z" fill="#3D3D3D"/>
<path d="M118.77 100.03H112.52V106.28H118.77V100.03Z" fill="#A5A5A5"/>
<path d="M112.51 100.03H106.26V106.28H112.51V100.03Z" fill="#A5A5A5"/>
<path d="M106.26 100.03H100.01V106.28H106.26V100.03Z" fill="#D6D6D6"/>
<path d="M100.01 62.53H93.76V68.78H100.01V62.53Z" fill="#D6D6D6"/>
<path d="M93.76 62.53H87.51V68.78H93.76V62.53Z" fill="#D6D6D6"/>
<path d="M87.51 62.53H81.26V68.78H87.51V62.53Z" fill="#A5A5A5"/>
<path d="M100.01 68.78H93.76V75.03H100.01V68.78Z" fill="#D6D6D6"/>
<path d="M93.76 68.78H87.51V75.03H93.76V68.78Z" fill="#A5A5A5"/>
<path d="M87.51 68.78H81.26V75.03H87.51V68.78Z" fill="#A5A5A5"/>
<path d="M100.01 75.03H93.76V81.28H100.01V75.03Z" fill="#A5A5A5"/>
<path d="M93.76 75.03H87.51V81.28H93.76V75.03Z" fill="#A5A5A5"/>
<path d="M87.51 75.03H81.26V81.28H87.51V75.03Z" fill="#A5A5A5"/>
<path d="M100.01 81.28H93.76V87.53H100.01V81.28Z" fill="#A5A5A5"/>
<path d="M93.76 81.28H87.51V87.53H93.76V81.28Z" fill="#A5A5A5"/>
<path d="M87.51 81.28H81.26V87.53H87.51V81.28Z" fill="#D6D6D6"/>
<path d="M100.01 87.53H93.76V93.78H100.01V87.53Z" fill="#A5A5A5"/>
<path d="M93.76 87.53H87.51V93.78H93.76V87.53Z" fill="#D6D6D6"/>
<path d="M87.51 87.53H81.26V93.78H87.51V87.53Z" fill="#A5A5A5"/>
<path d="M100.01 93.78H93.76V100.03H100.01V93.78Z" fill="#D6D6D6"/>
<path d="M93.76 93.78H87.51V100.03H93.76V93.78Z" fill="#A5A5A5"/>
<path d="M87.51 93.78H81.26V100.03H87.51V93.78Z" fill="#A5A5A5"/>
<path d="M100.01 100.03H93.76V106.28H100.01V100.03Z" fill="#A5A5A5"/>
<path d="M93.76 100.03H87.51V106.28H93.76V100.03Z" fill="#A5A5A5"/>
<path d="M87.51 100.03H81.26V106.28H87.51V100.03Z" fill="#A5A5A5"/>
<path d="M81.26 62.53H75.01V68.78H81.26V62.53Z" fill="#A5A5A5"/>
<path d="M75.01 62.53H68.76V68.78H75.01V62.53Z" fill="#A5A5A5"/>
<path d="M68.76 62.53H62.51V68.78H68.76V62.53Z" fill="#D6D6D6"/>
<path d="M81.26 68.78H75.01V75.03H81.26V68.78Z" fill="#A5A5A5"/>
<path d="M75.01 68.78H68.76V75.03H75.01V68.78Z" fill="#D6D6D6"/>
<path d="M68.76 68.78H62.51V75.03H68.76V68.78Z" fill="#A5A5A5"/>
<path d="M81.26 75.03H75.01V81.28H81.26V75.03Z" fill="#D6D6D6"/>
<path d="M75.01 75.03H68.76V81.28H75.01V75.03Z" fill="#A5A5A5"/>
<path d="M68.76 75.03H62.51V81.28H68.76V75.03Z" fill="#A5A5A5"/>
<path d="M81.26 81.28H75.01V87.53H81.26V81.28Z" fill="#A5A5A5"/>
<path d="M75.01 81.28H68.76V87.53H75.01V81.28Z" fill="#A5A5A5"/>
<path d="M68.76 81.28H62.51V87.53H68.76V81.28Z" fill="#A5A5A5"/>
<path d="M81.26 87.53H75.01V93.78H81.26V87.53Z" fill="#A5A5A5"/>
<path d="M75.01 87.53H68.76V93.78H75.01V87.53Z" fill="#A5A5A5"/>
<path d="M68.76 87.53H62.51V93.78H68.76V87.53Z" fill="#A5A5A5"/>
<path d="M81.26 93.78H75.01V100.03H81.26V93.78Z" fill="#A5A5A5"/>
<path d="M75.01 93.78H68.76V100.03H75.01V93.78Z" fill="#A5A5A5"/>
<path d="M68.76 93.78H62.51V100.03H68.76V93.78Z" fill="#A5A5A5"/>
<path d="M81.26 100.03H75.01V106.28H81.26V100.03Z" fill="#A5A5A5"/>
<path d="M75.01 100.03H68.76V106.28H75.01V100.03Z" fill="#A5A5A5"/>
<path d="M68.76 100.03H62.51V106.28H68.76V100.03Z" fill="#A5A5A5"/>
<path d="M62.51 62.53H56.26V68.78H62.51V62.53Z" fill="#A5A5A5"/>
<path d="M56.26 62.53H50.01V68.78H56.26V62.53Z" fill="#A5A5A5"/>
<path d="M50.01 62.53H43.76V68.78H50.01V62.53Z" fill="#A5A5A5"/>
<path d="M62.51 68.78H56.26V75.03H62.51V68.78Z" fill="#A5A5A5"/>
<path d="M56.26 68.78H50.01V75.03H56.26V68.78Z" fill="#A5A5A5"/>
<path d="M50.01 68.78H43.76V75.03H50.01V68.78Z" fill="#A5A5A5"/>
<path d="M62.51 75.03H56.26V81.28H62.51V75.03Z" fill="#A5A5A5"/>
<path d="M56.26 75.03H50.01V81.28H56.26V75.03Z" fill="#A5A5A5"/>
<path d="M50.01 75.03H43.76V81.28H50.01V75.03Z" fill="#A5A5A5"/>
<path d="M62.51 81.28H56.26V87.53H62.51V81.28Z" fill="#A5A5A5"/>
<path d="M56.26 81.28H50.01V87.53H56.26V81.28Z" fill="#A5A5A5"/>
<path d="M50.01 81.28H43.76V87.53H50.01V81.28Z" fill="#A5A5A5"/>
<path d="M62.51 87.53H56.26V93.78H62.51V87.53Z" fill="#A5A5A5"/>
<path d="M56.26 87.53H50.01V93.78H56.26V87.53Z" fill="#A5A5A5"/>
<path d="M50.01 87.53H43.76V93.78H50.01V87.53Z" fill="#A5A5A5"/>
<path d="M62.51 93.78H56.26V100.03H62.51V93.78Z" fill="#A5A5A5"/>
<path d="M56.26 93.78H50.01V100.03H56.26V93.78Z" fill="#A5A5A5"/>
<path d="M50.01 93.78H43.76V100.03H50.01V93.78Z" fill="#A5A5A5"/>
<path d="M62.51 100.03H56.26V106.28H62.51V100.03Z" fill="#A5A5A5"/>
<path d="M56.26 100.03H50.01V106.28H56.26V100.03Z" fill="#A5A5A5"/>
<path d="M50.01 100.03H43.76V106.28H50.01V100.03Z" fill="#A5A5A5"/>
<path d="M43.76 62.53H37.51V68.78H43.76V62.53Z" fill="#A5A5A5"/>
<path d="M37.5 62.53H31.25V68.78H37.5V62.53Z" fill="#A5A5A5"/>
<path d="M43.76 68.78H37.51V75.03H43.76V68.78Z" fill="#A5A5A5"/>
<path d="M37.5 68.78H31.25V75.03H37.5V68.78Z" fill="#A5A5A5"/>
<path d="M43.76 75.03H37.51V81.28H43.76V75.03Z" fill="#A5A5A5"/>
<path d="M37.5 75.03H31.25V81.28H37.5V75.03Z" fill="#A5A5A5"/>
<path d="M43.76 81.28H37.51V87.53H43.76V81.28Z" fill="#A5A5A5"/>
<path d="M37.5 81.28H31.25V87.53H37.5V81.28Z" fill="#A5A5A5"/>
<path d="M43.76 87.53H37.51V93.78H43.76V87.53Z" fill="#A5A5A5"/>
<path d="M37.5 87.53H31.25V93.78H37.5V87.53Z" fill="#A5A5A5"/>
<path d="M43.76 93.78H37.51V100.03H43.76V93.78Z" fill="#A5A5A5"/>
<path d="M37.5 93.78H31.25V100.03H37.5V93.78Z" fill="#A5A5A5"/>
<path d="M43.76 100.03H37.51V106.28H43.76V100.03Z" fill="#A5A5A5"/>
<path d="M37.5 100.03H31.25V106.28H37.5V100.03Z" fill="#A5A5A5"/>
<path d="M100.01 56.28H93.76V62.53H100.01V56.28Z" fill="#D6D6D6"/>
<path d="M93.76 56.28H87.51V62.53H93.76V56.28Z" fill="#D6D6D6"/>
<path d="M87.51 56.28H81.26V62.53H87.51V56.28Z" fill="#D6D6D6"/>
<path d="M81.26 56.28H75.01V62.53H81.26V56.28Z" fill="#A5A5A5"/>
<path d="M75.01 56.28H68.76V62.53H75.01V56.28Z" fill="#A5A5A5"/>
<path d="M68.76 56.28H62.51V62.53H68.76V56.28Z" fill="#A5A5A5"/>
<path d="M62.51 56.28H56.26V62.53H62.51V56.28Z" fill="#D6D6D6"/>
<path d="M56.26 56.28H50.01V62.53H56.26V56.28Z" fill="#A5A5A5"/>
<path d="M50.01 56.28H43.76V62.53H50.01V56.28Z" fill="#A5A5A5"/>
<path d="M43.76 56.28H37.51V62.53H43.76V56.28Z" fill="#A5A5A5"/>
<path d="M37.5 56.28H31.25V62.53H37.5V56.28Z" fill="#A5A5A5"/>
<path d="M31.25 56.28H25V62.53H31.25V56.28Z" fill="#808080"/>
<path d="M25 56.28H18.75V62.53H25V56.28Z" fill="#808080"/>
<path d="M18.75 56.28H12.5V62.53H18.75V56.28Z" fill="#808080"/>
<path d="M12.5 56.28H6.25V62.53H12.5V56.28Z" fill="#808080"/>
<path d="M6.25 56.28H0V62.53H6.25V56.28Z" fill="#4C4C4C"/>
<path d="M31.25 62.53H25V68.78H31.25V62.53Z" fill="#808080"/>
<path d="M25 62.53H18.75V68.78H25V62.53Z" fill="#808080"/>
<path d="M18.75 62.53H12.5V68.78H18.75V62.53Z" fill="#808080"/>
<path d="M12.5 62.53H6.25V68.78H12.5V62.53Z" fill="#808080"/>
<path d="M6.25 62.53H0V68.78H6.25V62.53Z" fill="#4C4C4C"/>
<path d="M31.25 68.78H25V75.03H31.25V68.78Z" fill="#808080"/>
<path d="M25 68.78H18.75V75.03H25V68.78Z" fill="#808080"/>
<path d="M18.75 68.78H12.5V75.03H18.75V68.78Z" fill="#808080"/>
<path d="M12.5 68.78H6.25V75.03H12.5V68.78Z" fill="#808080"/>
<path d="M6.25 68.78H0V75.03H6.25V68.78Z" fill="#4C4C4C"/>
<path d="M31.25 75.03H25V81.28H31.25V75.03Z" fill="#808080"/>
<path d="M25 75.03H18.75V81.28H25V75.03Z" fill="#808080"/>
<path d="M18.75 75.03H12.5V81.28H18.75V75.03Z" fill="#808080"/>
<path d="M12.5 75.03H6.25V81.28H12.5V75.03Z" fill="#808080"/>
<path d="M6.25 75.03H0V81.28H6.25V75.03Z" fill="#4C4C4C"/>
<path d="M31.25 81.28H25V87.53H31.25V81.28Z" fill="#808080"/>
<path d="M25 81.28H18.75V87.53H25V81.28Z" fill="#808080"/>
<path d="M18.75 81.28H12.5V87.53H18.75V81.28Z" fill="#808080"/>
<path d="M12.5 81.28H6.25V87.53H12.5V81.28Z" fill="#808080"/>
<path d="M6.25 81.28H0V87.53H6.25V81.28Z" fill="#4C4C4C"/>
<path d="M31.25 87.53H25V93.78H31.25V87.53Z" fill="#808080"/>
<path d="M25 87.53H18.75V93.78H25V87.53Z" fill="#808080"/>
<path d="M18.75 87.53H12.5V93.78H18.75V87.53Z" fill="#808080"/>
<path d="M12.5 87.53H6.25V93.78H12.5V87.53Z" fill="#808080"/>
<path d="M6.25 87.53H0V93.78H6.25V87.53Z" fill="#4C4C4C"/>
<path d="M31.25 93.78H25V100.03H31.25V93.78Z" fill="#808080"/>
<path d="M25 93.78H18.75V100.03H25V93.78Z" fill="#808080"/>
<path d="M18.75 93.78H12.5V100.03H18.75V93.78Z" fill="#808080"/>
<path d="M12.5 93.78H6.25V100.03H12.5V93.78Z" fill="#808080"/>
<path d="M6.25 93.78H0V100.03H6.25V93.78Z" fill="#4C4C4C"/>
<path d="M31.25 100.03H25V106.28H31.25V100.03Z" fill="#808080"/>
<path d="M25 100.03H18.75V106.28H25V100.03Z" fill="#808080"/>
<path d="M18.75 100.03H12.5V106.28H18.75V100.03Z" fill="#808080"/>
<path d="M12.5 100.03H6.25V106.28H12.5V100.03Z" fill="#808080"/>
<path d="M6.25 100.03H0V106.28H6.25V100.03Z" fill="#4C4C4C"/>
<path d="M150.02 106.28H143.77V112.53H150.02V106.28Z" fill="#4C4C4C"/>
<path d="M143.77 106.28H137.52V112.53H143.77V106.28Z" fill="#3D3D3D"/>
<path d="M137.52 106.28H131.27V112.53H137.52V106.28Z" fill="#3D3D3D"/>
<path d="M131.27 106.28H125.02V112.53H131.27V106.28Z" fill="#3D3D3D"/>
<path d="M125.02 106.28H118.77V112.53H125.02V106.28Z" fill="#3D3D3D"/>
<path d="M118.77 106.28H112.52V112.53H118.77V106.28Z" fill="#D6D6D6"/>
<path d="M112.51 106.28H106.26V112.53H112.51V106.28Z" fill="#D6D6D6"/>
<path d="M106.26 106.28H100.01V112.53H106.26V106.28Z" fill="#A5A5A5"/>
<path d="M100.01 106.28H93.76V112.53H100.01V106.28Z" fill="#A5A5A5"/>
<path d="M93.76 106.28H87.51V112.53H93.76V106.28Z" fill="#A5A5A5"/>
<path d="M87.51 106.28H81.26V112.53H87.51V106.28Z" fill="#A5A5A5"/>
<path d="M81.26 106.28H75.01V112.53H81.26V106.28Z" fill="#A5A5A5"/>
<path d="M75.01 106.28H68.76V112.53H75.01V106.28Z" fill="#A5A5A5"/>
<path d="M68.76 106.28H62.51V112.53H68.76V106.28Z" fill="#A5A5A5"/>
<path d="M62.51 106.28H56.26V112.53H62.51V106.28Z" fill="#A5A5A5"/>
<path d="M56.26 106.28H50.01V112.53H56.26V106.28Z" fill="#A5A5A5"/>
<path d="M50.01 106.28H43.76V112.53H50.01V106.28Z" fill="#A5A5A5"/>
<path d="M43.76 106.28H37.51V112.53H43.76V106.28Z" fill="#A5A5A5"/>
<path d="M37.5 106.28H31.25V112.53H37.5V106.28Z" fill="#D6D6D6"/>
<path d="M31.25 106.28H25V112.53H31.25V106.28Z" fill="#808080"/>
<path d="M25 106.28H18.75V112.53H25V106.28Z" fill="#808080"/>
<path d="M18.75 106.28H12.5V112.53H18.75V106.28Z" fill="#808080"/>
<path d="M12.5 106.28H6.25V112.53H12.5V106.28Z" fill="#808080"/>
<path d="M6.25 106.28H0V112.53H6.25V106.28Z" fill="#4C4C4C"/>
<path d="M150.02 112.54H143.77V118.79H150.02V112.54Z" fill="#4C4C4C"/>
<path d="M143.77 112.54H137.52V118.79H143.77V112.54Z" fill="#3D3D3D"/>
<path d="M137.52 112.54H131.27V118.79H137.52V112.54Z" fill="#3D3D3D"/>
<path d="M131.27 112.54H125.02V118.79H131.27V112.54Z" fill="#3D3D3D"/>
<path d="M125.02 112.54H118.77V118.79H125.02V112.54Z" fill="#3D3D3D"/>
<path d="M118.77 112.54H112.52V118.79H118.77V112.54Z" fill="#808080"/>
<path d="M112.51 112.54H106.26V118.79H112.51V112.54Z" fill="#D6D6D6"/>
<path d="M106.26 112.54H100.01V118.79H106.26V112.54Z" fill="#D6D6D6"/>
<path d="M100.01 112.54H93.76V118.79H100.01V112.54Z" fill="#D6D6D6"/>
<path d="M93.76 112.54H87.51V118.79H93.76V112.54Z" fill="#D6D6D6"/>
<path d="M87.51 112.54H81.26V118.79H87.51V112.54Z" fill="#D6D6D6"/>
<path d="M81.26 112.54H75.01V118.79H81.26V112.54Z" fill="#D6D6D6"/>
<path d="M75.01 112.54H68.76V118.79H75.01V112.54Z" fill="#D6D6D6"/>
<path d="M68.76 112.54H62.51V118.79H68.76V112.54Z" fill="#D6D6D6"/>
<path d="M62.51 112.54H56.26V118.79H62.51V112.54Z" fill="#D6D6D6"/>
<path d="M56.26 112.54H50.01V118.79H56.26V112.54Z" fill="#D6D6D6"/>
<path d="M50.01 112.54H43.76V118.79H50.01V112.54Z" fill="#D6D6D6"/>
<path d="M43.76 112.54H37.51V118.79H43.76V112.54Z" fill="#D6D6D6"/>
<path d="M37.5 112.54H31.25V118.79H37.5V112.54Z" fill="#A5A5A5"/>
<path d="M31.25 112.54H25V118.79H31.25V112.54Z" fill="#808080"/>
<path d="M25 112.54H18.75V118.79H25V112.54Z" fill="#808080"/>
<path d="M18.75 112.54H12.5V118.79H18.75V112.54Z" fill="#808080"/>
<path d="M12.5 112.54H6.25V118.79H12.5V112.54Z" fill="#808080"/>
<path d="M6.25 112.54H0V118.79H6.25V112.54Z" fill="#4C4C4C"/>
<path d="M150.02 118.79H143.77V125.04H150.02V118.79Z" fill="#4C4C4C"/>
<path d="M143.77 118.79H137.52V125.04H143.77V118.79Z" fill="#3D3D3D"/>
<path d="M137.52 118.79H131.27V125.04H137.52V118.79Z" fill="#3D3D3D"/>
<path d="M131.27 118.79H125.02V125.04H131.27V118.79Z" fill="#3D3D3D"/>
<path d="M125.02 118.79H118.77V125.04H125.02V118.79Z" fill="#808080"/>
<path d="M118.77 118.79H112.52V125.04H118.77V118.79Z" fill="#606060"/>
<path d="M112.51 118.79H106.26V125.04H112.51V118.79Z" fill="#606060"/>
<path d="M106.26 118.79H100.01V125.04H106.26V118.79Z" fill="#606060"/>
<path d="M100.01 118.79H93.76V125.04H100.01V118.79Z" fill="#606060"/>
<path d="M93.76 118.79H87.51V125.04H93.76V118.79Z" fill="#606060"/>
<path d="M87.51 118.79H81.26V125.04H87.51V118.79Z" fill="#606060"/>
<path d="M81.26 118.79H75.01V125.04H81.26V118.79Z" fill="#606060"/>
<path d="M75.01 118.79H68.76V125.04H75.01V118.79Z" fill="#606060"/>
<path d="M68.76 118.79H62.51V125.04H68.76V118.79Z" fill="#606060"/>
<path d="M62.51 118.79H56.26V125.04H62.51V118.79Z" fill="#606060"/>
<path d="M56.26 118.79H50.01V125.04H56.26V118.79Z" fill="#606060"/>
<path d="M50.01 118.79H43.76V125.04H50.01V118.79Z" fill="#606060"/>
<path d="M43.76 118.79H37.51V125.04H43.76V118.79Z" fill="#606060"/>
<path d="M37.5 118.79H31.25V125.04H37.5V118.79Z" fill="#606060"/>
<path d="M31.25 118.79H25V125.04H31.25V118.79Z" fill="#A5A5A5"/>
<path d="M25 118.79H18.75V125.04H25V118.79Z" fill="#808080"/>
<path d="M18.75 118.79H12.5V125.04H18.75V118.79Z" fill="#808080"/>
<path d="M12.5 118.79H6.25V125.04H12.5V118.79Z" fill="#808080"/>
<path d="M6.25 118.79H0V125.04H6.25V118.79Z" fill="#4C4C4C"/>
<path d="M150.02 125.04H143.77V131.29H150.02V125.04Z" fill="#4C4C4C"/>
<path d="M143.77 125.04H137.52V131.29H143.77V125.04Z" fill="#3D3D3D"/>
<path d="M137.52 125.04H131.27V131.29H137.52V125.04Z" fill="#3D3D3D"/>
<path d="M131.27 125.04H125.02V131.29H131.27V125.04Z" fill="#808080"/>
<path d="M125.02 125.04H118.77V131.29H125.02V125.04Z" fill="#606060"/>
<path d="M118.77 125.04H112.52V131.29H118.77V125.04Z" fill="#606060"/>
<path d="M112.51 125.04H106.26V131.29H112.51V125.04Z" fill="#606060"/>
<path d="M106.26 125.04H100.01V131.29H106.26V125.04Z" fill="#606060"/>
<path d="M100.01 125.04H93.76V131.29H100.01V125.04Z" fill="#606060"/>
<path d="M93.76 125.04H87.51V131.29H93.76V125.04Z" fill="#606060"/>
<path d="M87.51 125.04H81.26V131.29H87.51V125.04Z" fill="#606060"/>
<path d="M81.26 125.04H75.01V131.29H81.26V125.04Z" fill="#606060"/>
<path d="M75.01 125.04H68.76V131.29H75.01V125.04Z" fill="#606060"/>
<path d="M68.76 125.04H62.51V131.29H68.76V125.04Z" fill="#606060"/>
<path d="M62.51 125.04H56.26V131.29H62.51V125.04Z" fill="#606060"/>
<path d="M56.26 125.04H50.01V131.29H56.26V125.04Z" fill="#606060"/>
<path d="M50.01 125.04H43.76V131.29H50.01V125.04Z" fill="#606060"/>
<path d="M43.76 125.04H37.51V131.29H43.76V125.04Z" fill="#606060"/>
<path d="M37.5 125.04H31.25V131.29H37.5V125.04Z" fill="#606060"/>
<path d="M31.25 125.04H25V131.29H31.25V125.04Z" fill="#606060"/>
<path d="M25 125.04H18.75V131.29H25V125.04Z" fill="#A5A5A5"/>
<path d="M18.75 125.04H12.5V131.29H18.75V125.04Z" fill="#808080"/>
<path d="M12.5 125.04H6.25V131.29H12.5V125.04Z" fill="#808080"/>
<path d="M6.25 125.04H0V131.29H6.25V125.04Z" fill="#4C4C4C"/>
<path d="M150.02 131.29H143.77V137.54H150.02V131.29Z" fill="#4C4C4C"/>
<path d="M143.77 131.29H137.52V137.54H143.77V131.29Z" fill="#3D3D3D"/>
<path d="M137.52 131.29H131.27V137.54H137.52V131.29Z" fill="#808080"/>
<path d="M131.27 131.29H125.02V137.54H131.27V131.29Z" fill="#606060"/>
<path d="M125.02 131.29H118.77V137.54H125.02V131.29Z" fill="#606060"/>
<path d="M118.77 131.29H112.52V137.54H118.77V131.29Z" fill="#606060"/>
<path d="M112.51 131.29H106.26V137.54H112.51V131.29Z" fill="#606060"/>
<path d="M106.26 131.29H100.01V137.54H106.26V131.29Z" fill="#606060"/>
<path d="M100.01 131.29H93.76V137.54H100.01V131.29Z" fill="#606060"/>
<path d="M93.76 131.29H87.51V137.54H93.76V131.29Z" fill="#606060"/>
<path d="M87.51 131.29H81.26V137.54H87.51V131.29Z" fill="#606060"/>
<path d="M81.26 131.29H75.01V137.54H81.26V131.29Z" fill="#606060"/>
<path d="M75.01 131.29H68.76V137.54H75.01V131.29Z" fill="#606060"/>
<path d="M68.76 131.29H62.51V137.54H68.76V131.29Z" fill="#606060"/>
<path d="M62.51 131.29H56.26V137.54H62.51V131.29Z" fill="#606060"/>
<path d="M56.26 131.29H50.01V137.54H56.26V131.29Z" fill="#606060"/>
<path d="M50.01 131.29H43.76V137.54H50.01V131.29Z" fill="#606060"/>
<path d="M43.76 131.29H37.51V137.54H43.76V131.29Z" fill="#606060"/>
<path d="M37.5 131.29H31.25V137.54H37.5V131.29Z" fill="#606060"/>
<path d="M31.25 131.29H25V137.54H31.25V131.29Z" fill="#606060"/>
<path d="M25 131.29H18.75V137.54H25V131.29Z" fill="#606060"/>
<path d="M18.75 131.29H12.5V137.54H18.75V131.29Z" fill="#A5A5A5"/>
<path d="M12.5 131.29H6.25V137.54H12.5V131.29Z" fill="#808080"/>
<path d="M6.25 131.29H0V137.54H6.25V131.29Z" fill="#4C4C4C"/>
<path d="M143.77 137.54H137.52V143.79H143.77V137.54Z" fill="#4C4C4C"/>
<path d="M137.52 137.54H131.27V143.79H137.52V137.54Z" fill="#606060"/>
<path d="M131.27 137.54H125.02V143.79H131.27V137.54Z" fill="#606060"/>
<path d="M125.02 137.54H118.77V143.79H125.02V137.54Z" fill="#606060"/>
<path d="M118.77 137.54H112.52V143.79H118.77V137.54Z" fill="#606060"/>
<path d="M112.51 137.54H106.26V143.79H112.51V137.54Z" fill="#606060"/>
<path d="M106.26 137.54H100.01V143.79H106.26V137.54Z" fill="#606060"/>
<path d="M100.01 137.54H93.76V143.79H100.01V137.54Z" fill="#606060"/>
<path d="M93.76 137.54H87.51V143.79H93.76V137.54Z" fill="#606060"/>
<path d="M87.51 137.54H81.26V143.79H87.51V137.54Z" fill="#606060"/>
<path d="M81.26 137.54H75.01V143.79H81.26V137.54Z" fill="#606060"/>
<path d="M75.01 137.54H68.76V143.79H75.01V137.54Z" fill="#606060"/>
<path d="M68.76 137.54H62.51V143.79H68.76V137.54Z" fill="#606060"/>
<path d="M62.51 137.54H56.26V143.79H62.51V137.54Z" fill="#606060"/>
<path d="M56.26 137.54H50.01V143.79H56.26V137.54Z" fill="#606060"/>
<path d="M50.01 137.54H43.76V143.79H50.01V137.54Z" fill="#606060"/>
<path d="M43.76 137.54H37.51V143.79H43.76V137.54Z" fill="#606060"/>
<path d="M37.5 137.54H31.25V143.79H37.5V137.54Z" fill="#606060"/>
<path d="M31.25 137.54H25V143.79H31.25V137.54Z" fill="#606060"/>
<path d="M25 137.54H18.75V143.79H25V137.54Z" fill="#606060"/>
<path d="M18.75 137.54H12.5V143.79H18.75V137.54Z" fill="#606060"/>
<path d="M12.5 137.54H6.25V143.79H12.5V137.54Z" fill="#4C4C4C"/>
<path d="M137.52 143.79H131.27V150.04H137.52V143.79Z" fill="#4C4C4C"/>
<path d="M131.27 143.79H125.02V150.04H131.27V143.79Z" fill="#4C4C4C"/>
<path d="M125.02 143.79H118.77V150.04H125.02V143.79Z" fill="#4C4C4C"/>
<path d="M118.77 143.79H112.52V150.04H118.77V143.79Z" fill="#4C4C4C"/>
<path d="M112.51 143.79H106.26V150.04H112.51V143.79Z" fill="#4C4C4C"/>
<path d="M106.26 143.79H100.01V150.04H106.26V143.79Z" fill="#4C4C4C"/>
<path d="M100.01 143.79H93.76V150.04H100.01V143.79Z" fill="#4C4C4C"/>
<path d="M93.76 143.79H87.51V150.04H93.76V143.79Z" fill="#4C4C4C"/>
<path d="M87.51 143.79H81.26V150.04H87.51V143.79Z" fill="#4C4C4C"/>
<path d="M81.26 143.79H75.01V150.04H81.26V143.79Z" fill="#4C4C4C"/>
<path d="M75.01 143.79H68.76V150.04H75.01V143.79Z" fill="#4C4C4C"/>
<path d="M68.76 143.79H62.51V150.04H68.76V143.79Z" fill="#4C4C4C"/>
<path d="M62.51 143.79H56.26V150.04H62.51V143.79Z" fill="#4C4C4C"/>
<path d="M56.26 143.79H50.01V150.04H56.26V143.79Z" fill="#4C4C4C"/>
<path d="M50.01 143.79H43.76V150.04H50.01V143.79Z" fill="#4C4C4C"/>
<path d="M43.76 143.79H37.51V150.04H43.76V143.79Z" fill="#4C4C4C"/>
<path d="M37.5 143.79H31.25V150.04H37.5V143.79Z" fill="#4C4C4C"/>
<path d="M31.25 143.79H25V150.04H31.25V143.79Z" fill="#4C4C4C"/>
<path d="M25 143.79H18.75V150.04H25V143.79Z" fill="#4C4C4C"/>
<path d="M18.75 143.79H12.5V150.04H18.75V143.79Z" fill="#4C4C4C"/>
<path d="M65.64 81.27V75.02H59.38V68.77H53.13V43.75H59.38V37.5H65.64V31.25H90.64V37.5H96.89V43.75H84.4V37.5H71.89V43.75H65.64V68.77H71.89V75.02H84.4V68.77H96.89V75.02H90.64V81.27H65.64Z" fill="#E5E5E5"/>
<path d="M65.64 93.78V87.53H59.38V81.28H53.13V56.26H59.38V50.01H65.64V43.76H90.64V50.01H96.89V56.26H84.4V50.01H71.89V56.26H65.64V81.28H71.89V87.53H84.4V81.28H96.89V87.53H90.64V93.78H65.64Z" fill="#808080"/>
<path d="M65.64 87.53V81.28H59.38V75.03H53.13V50.01H59.38V43.76H65.64V37.51H90.64V43.76H96.89V50.01H84.4V43.76H71.89V50.01H65.64V75.03H71.89V81.28H84.4V75.03H96.89V81.28H90.64V87.53H65.64Z" fill="#282828"/>
<g style="mix-blend-mode:color">
<path d="M12.5 0V6.25H6.25V12.5H0V137.52H6.25V143.77H12.5V150.02H37.5V150H37.51V150.02H112.51V150H112.52V150.02H137.52V143.77H143.77V137.52H150.02V112.52H150V112.51H150.02V37.51H150V37.5H150.02V12.5H143.77V6.25H137.52V0H12.5Z" fill="#7DC4C8"/>
</g>
</g>
<defs>
<clipPath id="clip0_3_22323">
<rect width="150.02" height="150.02" fill="white" transform="translate(0 0.0200195)"/>
</clipPath>
</defs>
</svg>
