<svg width="151" height="151" viewBox="0 0 151 151" fill="none" xmlns="http://www.w3.org/2000/svg">
<g clip-path="url(#clip0_3_11158)">
<path d="M12.5 0V6.25H6.25V12.5H0V137.52H6.25V143.77H12.5V150.02H37.5V150H37.51V150.02H112.51V150H112.52V150.02H137.52V143.77H143.77V137.52H150.02V112.52H150V112.51H150.02V37.51H150V37.5H150.02V12.5H143.77V6.25H137.52V0H12.5Z" fill="#4C4C4C"/>
<path d="M137.52 0H131.27V6.25H137.52V0Z" fill="#4C4C4C"/>
<path d="M131.27 0H125.02V6.25H131.27V0Z" fill="#4C4C4C"/>
<path d="M125.02 0H118.77V6.25H125.02V0Z" fill="#4C4C4C"/>
<path d="M118.77 0H112.52V6.25H118.77V0Z" fill="#4C4C4C"/>
<path d="M112.51 0H106.26V6.25H112.51V0Z" fill="#4C4C4C"/>
<path d="M106.26 0H100.01V6.25H106.26V0Z" fill="#4C4C4C"/>
<path d="M100.01 0H93.76V6.25H100.01V0Z" fill="#4C4C4C"/>
<path d="M93.76 0H87.51V6.25H93.76V0Z" fill="#4C4C4C"/>
<path d="M87.51 0H81.26V6.25H87.51V0Z" fill="#4C4C4C"/>
<path d="M81.26 0H75.01V6.25H81.26V0Z" fill="#4C4C4C"/>
<path d="M75.01 0H68.76V6.25H75.01V0Z" fill="#4C4C4C"/>
<path d="M68.76 0H62.51V6.25H68.76V0Z" fill="#4C4C4C"/>
<path d="M62.51 0H56.26V6.25H62.51V0Z" fill="#4C4C4C"/>
<path d="M56.26 0H50.01V6.25H56.26V0Z" fill="#4C4C4C"/>
<path d="M50.01 0H43.76V6.25H50.01V0Z" fill="#4C4C4C"/>
<path d="M43.76 0H37.51V6.25H43.76V0Z" fill="#4C4C4C"/>
<path d="M37.5 0H31.25V6.25H37.5V0Z" fill="#4C4C4C"/>
<path d="M31.25 0H25V6.25H31.25V0Z" fill="#4C4C4C"/>
<path d="M25 0H18.75V6.25H25V0Z" fill="#4C4C4C"/>
<path d="M18.75 0H12.5V6.25H18.75V0Z" fill="#4C4C4C"/>
<path d="M143.77 6.25H137.52V12.5H143.77V6.25Z" fill="#4C4C4C"/>
<path d="M137.52 6.25H131.27V12.5H137.52V6.25Z" fill="#3D3D3D"/>
<path d="M131.27 6.25H125.02V12.5H131.27V6.25Z" fill="#3D3D3D"/>
<path d="M125.02 6.25H118.77V12.5H125.02V6.25Z" fill="#3D3D3D"/>
<path d="M118.77 6.25H112.52V12.5H118.77V6.25Z" fill="#3D3D3D"/>
<path d="M112.51 6.25H106.26V12.5H112.51V6.25Z" fill="#D6D6D6"/>
<path d="M106.26 6.25H100.01V12.5H106.26V6.25Z" fill="#A5A5A5"/>
<path d="M100.01 6.25H93.76V12.5H100.01V6.25Z" fill="#A5A5A5"/>
<path d="M93.76 6.25H87.51V12.5H93.76V6.25Z" fill="#A5A5A5"/>
<path d="M87.51 6.25H81.26V12.5H87.51V6.25Z" fill="#A5A5A5"/>
<path d="M81.26 6.25H75.01V12.5H81.26V6.25Z" fill="#A5A5A5"/>
<path d="M75.01 6.25H68.76V12.5H75.01V6.25Z" fill="#A5A5A5"/>
<path d="M68.76 6.25H62.51V12.5H68.76V6.25Z" fill="#A5A5A5"/>
<path d="M62.51 6.25H56.26V12.5H62.51V6.25Z" fill="#A5A5A5"/>
<path d="M56.26 6.25H50.01V12.5H56.26V6.25Z" fill="#A5A5A5"/>
<path d="M50.01 6.25H43.76V12.5H50.01V6.25Z" fill="#D6D6D6"/>
<path d="M43.76 6.25H37.51V12.5H43.76V6.25Z" fill="#D6D6D6"/>
<path d="M37.5 6.25H31.25V12.5H37.5V6.25Z" fill="#808080"/>
<path d="M31.25 6.25H25V12.5H31.25V6.25Z" fill="#808080"/>
<path d="M25 6.25H18.75V12.5H25V6.25Z" fill="#808080"/>
<path d="M18.75 6.25H12.5V12.5H18.75V6.25Z" fill="#808080"/>
<path d="M12.5 6.25H6.25V12.5H12.5V6.25Z" fill="#4C4C4C"/>
<path d="M150.02 12.5H143.77V18.75H150.02V12.5Z" fill="#4C4C4C"/>
<path d="M143.77 12.5H137.52V18.75H143.77V12.5Z" fill="#3D3D3D"/>
<path d="M137.52 12.5H131.27V18.75H137.52V12.5Z" fill="#3D3D3D"/>
<path d="M131.27 12.5H125.02V18.75H131.27V12.5Z" fill="#3D3D3D"/>
<path d="M125.02 12.5H118.77V18.75H125.02V12.5Z" fill="#3D3D3D"/>
<path d="M118.77 12.5H112.52V18.75H118.77V12.5Z" fill="#D6D6D6"/>
<path d="M112.51 12.5H106.26V18.75H112.51V12.5Z" fill="#A5A5A5"/>
<path d="M106.26 12.5H100.01V18.75H106.26V12.5Z" fill="#A5A5A5"/>
<path d="M100.01 12.5H93.76V18.75H100.01V12.5Z" fill="#A5A5A5"/>
<path d="M93.76 12.5H87.51V18.75H93.76V12.5Z" fill="#A5A5A5"/>
<path d="M87.51 12.5H81.26V18.75H87.51V12.5Z" fill="#A5A5A5"/>
<path d="M81.26 12.5H75.01V18.75H81.26V12.5Z" fill="#A5A5A5"/>
<path d="M75.01 12.5H68.76V18.75H75.01V12.5Z" fill="#A5A5A5"/>
<path d="M68.76 12.5H62.51V18.75H68.76V12.5Z" fill="#A5A5A5"/>
<path d="M62.51 12.5H56.26V18.75H62.51V12.5Z" fill="#A5A5A5"/>
<path d="M56.26 12.5H50.01V18.75H56.26V12.5Z" fill="#D6D6D6"/>
<path d="M50.01 12.5H43.76V18.75H50.01V12.5Z" fill="#D6D6D6"/>
<path d="M43.76 12.5H37.51V18.75H43.76V12.5Z" fill="#D6D6D6"/>
<path d="M37.5 12.5H31.25V18.75H37.5V12.5Z" fill="#A5A5A5"/>
<path d="M31.25 12.5H25V18.75H31.25V12.5Z" fill="#808080"/>
<path d="M25 12.5H18.75V18.75H25V12.5Z" fill="#808080"/>
<path d="M18.75 12.5H12.5V18.75H18.75V12.5Z" fill="#808080"/>
<path d="M12.5 12.5H6.25V18.75H12.5V12.5Z" fill="#808080"/>
<path d="M6.25 12.5H0V18.75H6.25V12.5Z" fill="#4C4C4C"/>
<path d="M150.02 18.75H143.77V25H150.02V18.75Z" fill="#4C4C4C"/>
<path d="M143.77 18.75H137.52V25H143.77V18.75Z" fill="#3D3D3D"/>
<path d="M137.52 18.75H131.27V25H137.52V18.75Z" fill="#3D3D3D"/>
<path d="M131.27 18.75H125.02V25H131.27V18.75Z" fill="#3D3D3D"/>
<path d="M125.02 18.75H118.77V25H125.02V18.75Z" fill="#3D3D3D"/>
<path d="M118.77 18.75H112.52V25H118.77V18.75Z" fill="#A5A5A5"/>
<path d="M112.51 18.75H106.26V25H112.51V18.75Z" fill="#A5A5A5"/>
<path d="M106.26 18.75H100.01V25H106.26V18.75Z" fill="#A5A5A5"/>
<path d="M100.01 18.75H93.76V25H100.01V18.75Z" fill="#A5A5A5"/>
<path d="M93.76 18.75H87.51V25H93.76V18.75Z" fill="#A5A5A5"/>
<path d="M87.51 18.75H81.26V25H87.51V18.75Z" fill="#A5A5A5"/>
<path d="M81.26 18.75H75.01V25H81.26V18.75Z" fill="#A5A5A5"/>
<path d="M75.01 18.75H68.76V25H75.01V18.75Z" fill="#A5A5A5"/>
<path d="M68.76 18.75H62.51V25H68.76V18.75Z" fill="#A5A5A5"/>
<path d="M62.51 18.75H56.26V25H62.51V18.75Z" fill="#D6D6D6"/>
<path d="M56.26 18.75H50.01V25H56.26V18.75Z" fill="#D6D6D6"/>
<path d="M50.01 18.75H43.76V25H50.01V18.75Z" fill="#D6D6D6"/>
<path d="M43.76 18.75H37.51V25H43.76V18.75Z" fill="#A5A5A5"/>
<path d="M37.5 18.75H31.25V25H37.5V18.75Z" fill="#A5A5A5"/>
<path d="M31.25 18.75H25V25H31.25V18.75Z" fill="#808080"/>
<path d="M25 18.75H18.75V25H25V18.75Z" fill="#808080"/>
<path d="M18.75 18.75H12.5V25H18.75V18.75Z" fill="#808080"/>
<path d="M12.5 18.75H6.25V25H12.5V18.75Z" fill="#808080"/>
<path d="M6.25 18.75H0V25H6.25V18.75Z" fill="#4C4C4C"/>
<path d="M150.02 25H143.77V31.25H150.02V25Z" fill="#4C4C4C"/>
<path d="M143.77 25H137.52V31.25H143.77V25Z" fill="#3D3D3D"/>
<path d="M137.52 25H131.27V31.25H137.52V25Z" fill="#3D3D3D"/>
<path d="M131.27 25H125.02V31.25H131.27V25Z" fill="#3D3D3D"/>
<path d="M125.02 25H118.77V31.25H125.02V25Z" fill="#3D3D3D"/>
<path d="M118.77 25H112.52V31.25H118.77V25Z" fill="#A5A5A5"/>
<path d="M112.51 25H106.26V31.25H112.51V25Z" fill="#A5A5A5"/>
<path d="M106.26 25H100.01V31.25H106.26V25Z" fill="#A5A5A5"/>
<path d="M100.01 25H93.76V31.25H100.01V25Z" fill="#A5A5A5"/>
<path d="M93.76 25H87.51V31.25H93.76V25Z" fill="#A5A5A5"/>
<path d="M87.51 25H81.26V31.25H87.51V25Z" fill="#A5A5A5"/>
<path d="M81.26 25H75.01V31.25H81.26V25Z" fill="#A5A5A5"/>
<path d="M75.01 25H68.76V31.25H75.01V25Z" fill="#A5A5A5"/>
<path d="M68.76 25H62.51V31.25H68.76V25Z" fill="#D6D6D6"/>
<path d="M62.51 25H56.26V31.25H62.51V25Z" fill="#D6D6D6"/>
<path d="M56.26 25H50.01V31.25H56.26V25Z" fill="#D6D6D6"/>
<path d="M50.01 25H43.76V31.25H50.01V25Z" fill="#A5A5A5"/>
<path d="M43.76 25H37.51V31.25H43.76V25Z" fill="#A5A5A5"/>
<path d="M37.5 25H31.25V31.25H37.5V25Z" fill="#A5A5A5"/>
<path d="M31.25 25H25V31.25H31.25V25Z" fill="#808080"/>
<path d="M25 25H18.75V31.25H25V25Z" fill="#808080"/>
<path d="M18.75 25H12.5V31.25H18.75V25Z" fill="#808080"/>
<path d="M12.5 25H6.25V31.25H12.5V25Z" fill="#808080"/>
<path d="M6.25 25H0V31.25H6.25V25Z" fill="#4C4C4C"/>
<path d="M150.02 31.25H143.77V37.5H150.02V31.25Z" fill="#4C4C4C"/>
<path d="M143.77 31.25H137.52V37.5H143.77V31.25Z" fill="#3D3D3D"/>
<path d="M137.52 31.25H131.27V37.5H137.52V31.25Z" fill="#3D3D3D"/>
<path d="M131.27 31.25H125.02V37.5H131.27V31.25Z" fill="#3D3D3D"/>
<path d="M125.02 31.25H118.77V37.5H125.02V31.25Z" fill="#3D3D3D"/>
<path d="M118.77 31.25H112.52V37.5H118.77V31.25Z" fill="#A5A5A5"/>
<path d="M112.51 31.25H106.26V37.5H112.51V31.25Z" fill="#A5A5A5"/>
<path d="M106.26 31.25H100.01V37.5H106.26V31.25Z" fill="#A5A5A5"/>
<path d="M100.01 31.25H93.76V37.5H100.01V31.25Z" fill="#A5A5A5"/>
<path d="M93.76 31.25H87.51V37.5H93.76V31.25Z" fill="#A5A5A5"/>
<path d="M87.51 31.25H81.26V37.5H87.51V31.25Z" fill="#A5A5A5"/>
<path d="M81.26 31.25H75.01V37.5H81.26V31.25Z" fill="#A5A5A5"/>
<path d="M75.01 31.25H68.76V37.5H75.01V31.25Z" fill="#D6D6D6"/>
<path d="M68.76 31.25H62.51V37.5H68.76V31.25Z" fill="#D6D6D6"/>
<path d="M62.51 31.25H56.26V37.5H62.51V31.25Z" fill="#D6D6D6"/>
<path d="M56.26 31.25H50.01V37.5H56.26V31.25Z" fill="#A5A5A5"/>
<path d="M50.01 31.25H43.76V37.5H50.01V31.25Z" fill="#A5A5A5"/>
<path d="M43.76 31.25H37.51V37.5H43.76V31.25Z" fill="#A5A5A5"/>
<path d="M37.5 31.25H31.25V37.5H37.5V31.25Z" fill="#D6D6D6"/>
<path d="M31.25 31.25H25V37.5H31.25V31.25Z" fill="#808080"/>
<path d="M25 31.25H18.75V37.5H25V31.25Z" fill="#808080"/>
<path d="M18.75 31.25H12.5V37.5H18.75V31.25Z" fill="#808080"/>
<path d="M12.5 31.25H6.25V37.5H12.5V31.25Z" fill="#808080"/>
<path d="M6.25 31.25H0V37.5H6.25V31.25Z" fill="#4C4C4C"/>
<path d="M150.02 37.51H143.77V43.76H150.02V37.51Z" fill="#4C4C4C"/>
<path d="M143.77 37.51H137.52V43.76H143.77V37.51Z" fill="#3D3D3D"/>
<path d="M137.52 37.51H131.27V43.76H137.52V37.51Z" fill="#3D3D3D"/>
<path d="M131.27 37.51H125.02V43.76H131.27V37.51Z" fill="#3D3D3D"/>
<path d="M125.02 37.51H118.77V43.76H125.02V37.51Z" fill="#3D3D3D"/>
<path d="M118.77 37.51H112.52V43.76H118.77V37.51Z" fill="#A5A5A5"/>
<path d="M112.51 37.51H106.26V43.76H112.51V37.51Z" fill="#A5A5A5"/>
<path d="M106.26 37.51H100.01V43.76H106.26V37.51Z" fill="#A5A5A5"/>
<path d="M100.01 37.51H93.76V43.76H100.01V37.51Z" fill="#A5A5A5"/>
<path d="M93.76 37.51H87.51V43.76H93.76V37.51Z" fill="#A5A5A5"/>
<path d="M87.51 37.51H81.26V43.76H87.51V37.51Z" fill="#A5A5A5"/>
<path d="M81.26 37.51H75.01V43.76H81.26V37.51Z" fill="#D6D6D6"/>
<path d="M75.01 37.51H68.76V43.76H75.01V37.51Z" fill="#D6D6D6"/>
<path d="M68.76 37.51H62.51V43.76H68.76V37.51Z" fill="#D6D6D6"/>
<path d="M62.51 37.51H56.26V43.76H62.51V37.51Z" fill="#A5A5A5"/>
<path d="M56.26 37.51H50.01V43.76H56.26V37.51Z" fill="#A5A5A5"/>
<path d="M50.01 37.51H43.76V43.76H50.01V37.51Z" fill="#A5A5A5"/>
<path d="M43.76 37.51H37.51V43.76H43.76V37.51Z" fill="#D6D6D6"/>
<path d="M37.5 37.51H31.25V43.76H37.5V37.51Z" fill="#A5A5A5"/>
<path d="M31.25 37.51H25V43.76H31.25V37.51Z" fill="#808080"/>
<path d="M25 37.51H18.75V43.76H25V37.51Z" fill="#808080"/>
<path d="M18.75 37.51H12.5V43.76H18.75V37.51Z" fill="#808080"/>
<path d="M12.5 37.51H6.25V43.76H12.5V37.51Z" fill="#808080"/>
<path d="M6.25 37.51H0V43.76H6.25V37.51Z" fill="#4C4C4C"/>
<path d="M150.02 43.76H143.77V50.01H150.02V43.76Z" fill="#4C4C4C"/>
<path d="M143.77 43.76H137.52V50.01H143.77V43.76Z" fill="#3D3D3D"/>
<path d="M137.52 43.76H131.27V50.01H137.52V43.76Z" fill="#3D3D3D"/>
<path d="M131.27 43.76H125.02V50.01H131.27V43.76Z" fill="#3D3D3D"/>
<path d="M125.02 43.76H118.77V50.01H125.02V43.76Z" fill="#3D3D3D"/>
<path d="M118.77 43.76H112.52V50.01H118.77V43.76Z" fill="#A5A5A5"/>
<path d="M112.51 43.76H106.26V50.01H112.51V43.76Z" fill="#A5A5A5"/>
<path d="M106.26 43.76H100.01V50.01H106.26V43.76Z" fill="#A5A5A5"/>
<path d="M100.01 43.76H93.76V50.01H100.01V43.76Z" fill="#A5A5A5"/>
<path d="M93.76 43.76H87.51V50.01H93.76V43.76Z" fill="#A5A5A5"/>
<path d="M87.51 43.76H81.26V50.01H87.51V43.76Z" fill="#D6D6D6"/>
<path d="M81.26 43.76H75.01V50.01H81.26V43.76Z" fill="#D6D6D6"/>
<path d="M75.01 43.76H68.76V50.01H75.01V43.76Z" fill="#D6D6D6"/>
<path d="M68.76 43.76H62.51V50.01H68.76V43.76Z" fill="#A5A5A5"/>
<path d="M62.51 43.76H56.26V50.01H62.51V43.76Z" fill="#A5A5A5"/>
<path d="M56.26 43.76H50.01V50.01H56.26V43.76Z" fill="#A5A5A5"/>
<path d="M50.01 43.76H43.76V50.01H50.01V43.76Z" fill="#D6D6D6"/>
<path d="M43.76 43.76H37.51V50.01H43.76V43.76Z" fill="#A5A5A5"/>
<path d="M37.5 43.76H31.25V50.01H37.5V43.76Z" fill="#A5A5A5"/>
<path d="M31.25 43.76H25V50.01H31.25V43.76Z" fill="#808080"/>
<path d="M25 43.76H18.75V50.01H25V43.76Z" fill="#808080"/>
<path d="M18.75 43.76H12.5V50.01H18.75V43.76Z" fill="#808080"/>
<path d="M12.5 43.76H6.25V50.01H12.5V43.76Z" fill="#808080"/>
<path d="M6.25 43.76H0V50.01H6.25V43.76Z" fill="#4C4C4C"/>
<path d="M150.02 50.01H143.77V56.26H150.02V50.01Z" fill="#4C4C4C"/>
<path d="M143.77 50.01H137.52V56.26H143.77V50.01Z" fill="#3D3D3D"/>
<path d="M137.52 50.01H131.27V56.26H137.52V50.01Z" fill="#3D3D3D"/>
<path d="M131.27 50.01H125.02V56.26H131.27V50.01Z" fill="#3D3D3D"/>
<path d="M125.02 50.01H118.77V56.26H125.02V50.01Z" fill="#3D3D3D"/>
<path d="M118.77 50.01H112.52V56.26H118.77V50.01Z" fill="#A5A5A5"/>
<path d="M112.51 50.01H106.26V56.26H112.51V50.01Z" fill="#A5A5A5"/>
<path d="M106.26 50.01H100.01V56.26H106.26V50.01Z" fill="#A5A5A5"/>
<path d="M100.01 50.01H93.76V56.26H100.01V50.01Z" fill="#A5A5A5"/>
<path d="M93.76 50.01H87.51V56.26H93.76V50.01Z" fill="#D6D6D6"/>
<path d="M87.51 50.01H81.26V56.26H87.51V50.01Z" fill="#D6D6D6"/>
<path d="M81.26 50.01H75.01V56.26H81.26V50.01Z" fill="#D6D6D6"/>
<path d="M75.01 50.01H68.76V56.26H75.01V50.01Z" fill="#A5A5A5"/>
<path d="M68.76 50.01H62.51V56.26H68.76V50.01Z" fill="#A5A5A5"/>
<path d="M62.51 50.01H56.26V56.26H62.51V50.01Z" fill="#A5A5A5"/>
<path d="M56.26 50.01H50.01V56.26H56.26V50.01Z" fill="#D6D6D6"/>
<path d="M50.01 50.01H43.76V56.26H50.01V50.01Z" fill="#A5A5A5"/>
<path d="M43.76 50.01H37.51V56.26H43.76V50.01Z" fill="#A5A5A5"/>
<path d="M37.5 50.01H31.25V56.26H37.5V50.01Z" fill="#A5A5A5"/>
<path d="M31.25 50.01H25V56.26H31.25V50.01Z" fill="#808080"/>
<path d="M25 50.01H18.75V56.26H25V50.01Z" fill="#808080"/>
<path d="M18.75 50.01H12.5V56.26H18.75V50.01Z" fill="#808080"/>
<path d="M12.5 50.01H6.25V56.26H12.5V50.01Z" fill="#808080"/>
<path d="M6.25 50.01H0V56.26H6.25V50.01Z" fill="#4C4C4C"/>
<path d="M150.02 56.26H143.77V62.51H150.02V56.26Z" fill="#4C4C4C"/>
<path d="M143.77 56.26H137.52V62.51H143.77V56.26Z" fill="#3D3D3D"/>
<path d="M137.52 56.26H131.27V62.51H137.52V56.26Z" fill="#3D3D3D"/>
<path d="M131.27 56.26H125.02V62.51H131.27V56.26Z" fill="#3D3D3D"/>
<path d="M125.02 56.26H118.77V62.51H125.02V56.26Z" fill="#3D3D3D"/>
<path d="M118.77 56.26H112.52V62.51H118.77V56.26Z" fill="#A5A5A5"/>
<path d="M112.51 56.26H106.26V62.51H112.51V56.26Z" fill="#A5A5A5"/>
<path d="M106.26 56.26H100.01V62.51H106.26V56.26Z" fill="#A5A5A5"/>
<path d="M150.02 62.51H143.77V68.76H150.02V62.51Z" fill="#4C4C4C"/>
<path d="M143.77 62.51H137.52V68.76H143.77V62.51Z" fill="#3D3D3D"/>
<path d="M137.52 62.51H131.27V68.76H137.52V62.51Z" fill="#3D3D3D"/>
<path d="M131.27 62.51H125.02V68.76H131.27V62.51Z" fill="#3D3D3D"/>
<path d="M125.02 62.51H118.77V68.76H125.02V62.51Z" fill="#3D3D3D"/>
<path d="M118.77 62.51H112.52V68.76H118.77V62.51Z" fill="#A5A5A5"/>
<path d="M112.51 62.51H106.26V68.76H112.51V62.51Z" fill="#A5A5A5"/>
<path d="M106.26 62.51H100.01V68.76H106.26V62.51Z" fill="#D6D6D6"/>
<path d="M150.02 68.76H143.77V75.01H150.02V68.76Z" fill="#4C4C4C"/>
<path d="M143.77 68.76H137.52V75.01H143.77V68.76Z" fill="#3D3D3D"/>
<path d="M137.52 68.76H131.27V75.01H137.52V68.76Z" fill="#3D3D3D"/>
<path d="M131.27 68.76H125.02V75.01H131.27V68.76Z" fill="#3D3D3D"/>
<path d="M125.02 68.76H118.77V75.01H125.02V68.76Z" fill="#3D3D3D"/>
<path d="M118.77 68.76H112.52V75.01H118.77V68.76Z" fill="#A5A5A5"/>
<path d="M112.51 68.76H106.26V75.01H112.51V68.76Z" fill="#D6D6D6"/>
<path d="M106.26 68.76H100.01V75.01H106.26V68.76Z" fill="#D6D6D6"/>
<path d="M150.02 75.01H143.77V81.26H150.02V75.01Z" fill="#4C4C4C"/>
<path d="M143.77 75.01H137.52V81.26H143.77V75.01Z" fill="#3D3D3D"/>
<path d="M137.52 75.01H131.27V81.26H137.52V75.01Z" fill="#3D3D3D"/>
<path d="M131.27 75.01H125.02V81.26H131.27V75.01Z" fill="#3D3D3D"/>
<path d="M125.02 75.01H118.77V81.26H125.02V75.01Z" fill="#3D3D3D"/>
<path d="M118.77 75.01H112.52V81.26H118.77V75.01Z" fill="#D6D6D6"/>
<path d="M112.51 75.01H106.26V81.26H112.51V75.01Z" fill="#D6D6D6"/>
<path d="M106.26 75.01H100.01V81.26H106.26V75.01Z" fill="#D6D6D6"/>
<path d="M150.02 81.26H143.77V87.51H150.02V81.26Z" fill="#4C4C4C"/>
<path d="M143.77 81.26H137.52V87.51H143.77V81.26Z" fill="#3D3D3D"/>
<path d="M137.52 81.26H131.27V87.51H137.52V81.26Z" fill="#3D3D3D"/>
<path d="M131.27 81.26H125.02V87.51H131.27V81.26Z" fill="#3D3D3D"/>
<path d="M125.02 81.26H118.77V87.51H125.02V81.26Z" fill="#3D3D3D"/>
<path d="M118.77 81.26H112.52V87.51H118.77V81.26Z" fill="#D6D6D6"/>
<path d="M112.51 81.26H106.26V87.51H112.51V81.26Z" fill="#D6D6D6"/>
<path d="M106.26 81.26H100.01V87.51H106.26V81.26Z" fill="#A5A5A5"/>
<path d="M150.02 87.51H143.77V93.76H150.02V87.51Z" fill="#4C4C4C"/>
<path d="M143.77 87.51H137.52V93.76H143.77V87.51Z" fill="#3D3D3D"/>
<path d="M137.52 87.51H131.27V93.76H137.52V87.51Z" fill="#3D3D3D"/>
<path d="M131.27 87.51H125.02V93.76H131.27V87.51Z" fill="#3D3D3D"/>
<path d="M125.02 87.51H118.77V93.76H125.02V87.51Z" fill="#3D3D3D"/>
<path d="M118.77 87.51H112.52V93.76H118.77V87.51Z" fill="#D6D6D6"/>
<path d="M112.51 87.51H106.26V93.76H112.51V87.51Z" fill="#A5A5A5"/>
<path d="M106.26 87.51H100.01V93.76H106.26V87.51Z" fill="#A5A5A5"/>
<path d="M150.02 93.76H143.77V100.01H150.02V93.76Z" fill="#4C4C4C"/>
<path d="M143.77 93.76H137.52V100.01H143.77V93.76Z" fill="#3D3D3D"/>
<path d="M137.52 93.76H131.27V100.01H137.52V93.76Z" fill="#3D3D3D"/>
<path d="M131.27 93.76H125.02V100.01H131.27V93.76Z" fill="#3D3D3D"/>
<path d="M125.02 93.76H118.77V100.01H125.02V93.76Z" fill="#3D3D3D"/>
<path d="M118.77 93.76H112.52V100.01H118.77V93.76Z" fill="#A5A5A5"/>
<path d="M112.51 93.76H106.26V100.01H112.51V93.76Z" fill="#A5A5A5"/>
<path d="M106.26 93.76H100.01V100.01H106.26V93.76Z" fill="#A5A5A5"/>
<path d="M150.02 100.01H143.77V106.26H150.02V100.01Z" fill="#4C4C4C"/>
<path d="M143.77 100.01H137.52V106.26H143.77V100.01Z" fill="#3D3D3D"/>
<path d="M137.52 100.01H131.27V106.26H137.52V100.01Z" fill="#3D3D3D"/>
<path d="M131.27 100.01H125.02V106.26H131.27V100.01Z" fill="#3D3D3D"/>
<path d="M125.02 100.01H118.77V106.26H125.02V100.01Z" fill="#3D3D3D"/>
<path d="M118.77 100.01H112.52V106.26H118.77V100.01Z" fill="#A5A5A5"/>
<path d="M112.51 100.01H106.26V106.26H112.51V100.01Z" fill="#A5A5A5"/>
<path d="M106.26 100.01H100.01V106.26H106.26V100.01Z" fill="#D6D6D6"/>
<path d="M100.01 62.51H93.76V68.76H100.01V62.51Z" fill="#D6D6D6"/>
<path d="M93.76 62.51H87.51V68.76H93.76V62.51Z" fill="#D6D6D6"/>
<path d="M87.51 62.51H81.26V68.76H87.51V62.51Z" fill="#A5A5A5"/>
<path d="M100.01 68.76H93.76V75.01H100.01V68.76Z" fill="#D6D6D6"/>
<path d="M93.76 68.76H87.51V75.01H93.76V68.76Z" fill="#A5A5A5"/>
<path d="M87.51 68.76H81.26V75.01H87.51V68.76Z" fill="#A5A5A5"/>
<path d="M100.01 75.01H93.76V81.26H100.01V75.01Z" fill="#A5A5A5"/>
<path d="M93.76 75.01H87.51V81.26H93.76V75.01Z" fill="#A5A5A5"/>
<path d="M87.51 75.01H81.26V81.26H87.51V75.01Z" fill="#A5A5A5"/>
<path d="M100.01 81.26H93.76V87.51H100.01V81.26Z" fill="#A5A5A5"/>
<path d="M93.76 81.26H87.51V87.51H93.76V81.26Z" fill="#A5A5A5"/>
<path d="M87.51 81.26H81.26V87.51H87.51V81.26Z" fill="#D6D6D6"/>
<path d="M100.01 87.51H93.76V93.76H100.01V87.51Z" fill="#A5A5A5"/>
<path d="M93.76 87.51H87.51V93.76H93.76V87.51Z" fill="#D6D6D6"/>
<path d="M87.51 87.51H81.26V93.76H87.51V87.51Z" fill="#A5A5A5"/>
<path d="M100.01 93.76H93.76V100.01H100.01V93.76Z" fill="#D6D6D6"/>
<path d="M93.76 93.76H87.51V100.01H93.76V93.76Z" fill="#A5A5A5"/>
<path d="M87.51 93.76H81.26V100.01H87.51V93.76Z" fill="#A5A5A5"/>
<path d="M100.01 100.01H93.76V106.26H100.01V100.01Z" fill="#A5A5A5"/>
<path d="M93.76 100.01H87.51V106.26H93.76V100.01Z" fill="#A5A5A5"/>
<path d="M87.51 100.01H81.26V106.26H87.51V100.01Z" fill="#A5A5A5"/>
<path d="M81.26 62.51H75.01V68.76H81.26V62.51Z" fill="#A5A5A5"/>
<path d="M75.01 62.51H68.76V68.76H75.01V62.51Z" fill="#A5A5A5"/>
<path d="M68.76 62.51H62.51V68.76H68.76V62.51Z" fill="#D6D6D6"/>
<path d="M81.26 68.76H75.01V75.01H81.26V68.76Z" fill="#A5A5A5"/>
<path d="M75.01 68.76H68.76V75.01H75.01V68.76Z" fill="#D6D6D6"/>
<path d="M68.76 68.76H62.51V75.01H68.76V68.76Z" fill="#A5A5A5"/>
<path d="M81.26 75.01H75.01V81.26H81.26V75.01Z" fill="#D6D6D6"/>
<path d="M75.01 75.01H68.76V81.26H75.01V75.01Z" fill="#A5A5A5"/>
<path d="M68.76 75.01H62.51V81.26H68.76V75.01Z" fill="#A5A5A5"/>
<path d="M81.26 81.26H75.01V87.51H81.26V81.26Z" fill="#A5A5A5"/>
<path d="M75.01 81.26H68.76V87.51H75.01V81.26Z" fill="#A5A5A5"/>
<path d="M68.76 81.26H62.51V87.51H68.76V81.26Z" fill="#A5A5A5"/>
<path d="M81.26 87.51H75.01V93.76H81.26V87.51Z" fill="#A5A5A5"/>
<path d="M75.01 87.51H68.76V93.76H75.01V87.51Z" fill="#A5A5A5"/>
<path d="M68.76 87.51H62.51V93.76H68.76V87.51Z" fill="#A5A5A5"/>
<path d="M81.26 93.76H75.01V100.01H81.26V93.76Z" fill="#A5A5A5"/>
<path d="M75.01 93.76H68.76V100.01H75.01V93.76Z" fill="#A5A5A5"/>
<path d="M68.76 93.76H62.51V100.01H68.76V93.76Z" fill="#A5A5A5"/>
<path d="M81.26 100.01H75.01V106.26H81.26V100.01Z" fill="#A5A5A5"/>
<path d="M75.01 100.01H68.76V106.26H75.01V100.01Z" fill="#A5A5A5"/>
<path d="M68.76 100.01H62.51V106.26H68.76V100.01Z" fill="#A5A5A5"/>
<path d="M62.51 62.51H56.26V68.76H62.51V62.51Z" fill="#A5A5A5"/>
<path d="M56.26 62.51H50.01V68.76H56.26V62.51Z" fill="#A5A5A5"/>
<path d="M50.01 62.51H43.76V68.76H50.01V62.51Z" fill="#A5A5A5"/>
<path d="M62.51 68.76H56.26V75.01H62.51V68.76Z" fill="#A5A5A5"/>
<path d="M56.26 68.76H50.01V75.01H56.26V68.76Z" fill="#A5A5A5"/>
<path d="M50.01 68.76H43.76V75.01H50.01V68.76Z" fill="#A5A5A5"/>
<path d="M62.51 75.01H56.26V81.26H62.51V75.01Z" fill="#A5A5A5"/>
<path d="M56.26 75.01H50.01V81.26H56.26V75.01Z" fill="#A5A5A5"/>
<path d="M50.01 75.01H43.76V81.26H50.01V75.01Z" fill="#A5A5A5"/>
<path d="M62.51 81.26H56.26V87.51H62.51V81.26Z" fill="#A5A5A5"/>
<path d="M56.26 81.26H50.01V87.51H56.26V81.26Z" fill="#A5A5A5"/>
<path d="M50.01 81.26H43.76V87.51H50.01V81.26Z" fill="#A5A5A5"/>
<path d="M62.51 87.51H56.26V93.76H62.51V87.51Z" fill="#A5A5A5"/>
<path d="M56.26 87.51H50.01V93.76H56.26V87.51Z" fill="#A5A5A5"/>
<path d="M50.01 87.51H43.76V93.76H50.01V87.51Z" fill="#A5A5A5"/>
<path d="M62.51 93.76H56.26V100.01H62.51V93.76Z" fill="#A5A5A5"/>
<path d="M56.26 93.76H50.01V100.01H56.26V93.76Z" fill="#A5A5A5"/>
<path d="M50.01 93.76H43.76V100.01H50.01V93.76Z" fill="#A5A5A5"/>
<path d="M62.51 100.01H56.26V106.26H62.51V100.01Z" fill="#A5A5A5"/>
<path d="M56.26 100.01H50.01V106.26H56.26V100.01Z" fill="#A5A5A5"/>
<path d="M50.01 100.01H43.76V106.26H50.01V100.01Z" fill="#A5A5A5"/>
<path d="M43.76 62.51H37.51V68.76H43.76V62.51Z" fill="#A5A5A5"/>
<path d="M37.5 62.51H31.25V68.76H37.5V62.51Z" fill="#A5A5A5"/>
<path d="M43.76 68.76H37.51V75.01H43.76V68.76Z" fill="#A5A5A5"/>
<path d="M37.5 68.76H31.25V75.01H37.5V68.76Z" fill="#A5A5A5"/>
<path d="M43.76 75.01H37.51V81.26H43.76V75.01Z" fill="#A5A5A5"/>
<path d="M37.5 75.01H31.25V81.26H37.5V75.01Z" fill="#A5A5A5"/>
<path d="M43.76 81.26H37.51V87.51H43.76V81.26Z" fill="#A5A5A5"/>
<path d="M37.5 81.26H31.25V87.51H37.5V81.26Z" fill="#A5A5A5"/>
<path d="M43.76 87.51H37.51V93.76H43.76V87.51Z" fill="#A5A5A5"/>
<path d="M37.5 87.51H31.25V93.76H37.5V87.51Z" fill="#A5A5A5"/>
<path d="M43.76 93.76H37.51V100.01H43.76V93.76Z" fill="#A5A5A5"/>
<path d="M37.5 93.76H31.25V100.01H37.5V93.76Z" fill="#A5A5A5"/>
<path d="M43.76 100.01H37.51V106.26H43.76V100.01Z" fill="#A5A5A5"/>
<path d="M37.5 100.01H31.25V106.26H37.5V100.01Z" fill="#A5A5A5"/>
<path d="M100.01 56.26H93.76V62.51H100.01V56.26Z" fill="#D6D6D6"/>
<path d="M93.76 56.26H87.51V62.51H93.76V56.26Z" fill="#D6D6D6"/>
<path d="M87.51 56.26H81.26V62.51H87.51V56.26Z" fill="#D6D6D6"/>
<path d="M81.26 56.26H75.01V62.51H81.26V56.26Z" fill="#A5A5A5"/>
<path d="M75.01 56.26H68.76V62.51H75.01V56.26Z" fill="#A5A5A5"/>
<path d="M68.76 56.26H62.51V62.51H68.76V56.26Z" fill="#A5A5A5"/>
<path d="M62.51 56.26H56.26V62.51H62.51V56.26Z" fill="#D6D6D6"/>
<path d="M56.26 56.26H50.01V62.51H56.26V56.26Z" fill="#A5A5A5"/>
<path d="M50.01 56.26H43.76V62.51H50.01V56.26Z" fill="#A5A5A5"/>
<path d="M43.76 56.26H37.51V62.51H43.76V56.26Z" fill="#A5A5A5"/>
<path d="M37.5 56.26H31.25V62.51H37.5V56.26Z" fill="#A5A5A5"/>
<path d="M31.25 56.26H25V62.51H31.25V56.26Z" fill="#808080"/>
<path d="M25 56.26H18.75V62.51H25V56.26Z" fill="#808080"/>
<path d="M18.75 56.26H12.5V62.51H18.75V56.26Z" fill="#808080"/>
<path d="M12.5 56.26H6.25V62.51H12.5V56.26Z" fill="#808080"/>
<path d="M6.25 56.26H0V62.51H6.25V56.26Z" fill="#4C4C4C"/>
<path d="M31.25 62.51H25V68.76H31.25V62.51Z" fill="#808080"/>
<path d="M25 62.51H18.75V68.76H25V62.51Z" fill="#808080"/>
<path d="M18.75 62.51H12.5V68.76H18.75V62.51Z" fill="#808080"/>
<path d="M12.5 62.51H6.25V68.76H12.5V62.51Z" fill="#808080"/>
<path d="M6.25 62.51H0V68.76H6.25V62.51Z" fill="#4C4C4C"/>
<path d="M31.25 68.76H25V75.01H31.25V68.76Z" fill="#808080"/>
<path d="M25 68.76H18.75V75.01H25V68.76Z" fill="#808080"/>
<path d="M18.75 68.76H12.5V75.01H18.75V68.76Z" fill="#808080"/>
<path d="M12.5 68.76H6.25V75.01H12.5V68.76Z" fill="#808080"/>
<path d="M6.25 68.76H0V75.01H6.25V68.76Z" fill="#4C4C4C"/>
<path d="M31.25 75.01H25V81.26H31.25V75.01Z" fill="#808080"/>
<path d="M25 75.01H18.75V81.26H25V75.01Z" fill="#808080"/>
<path d="M18.75 75.01H12.5V81.26H18.75V75.01Z" fill="#808080"/>
<path d="M12.5 75.01H6.25V81.26H12.5V75.01Z" fill="#808080"/>
<path d="M6.25 75.01H0V81.26H6.25V75.01Z" fill="#4C4C4C"/>
<path d="M31.25 81.26H25V87.51H31.25V81.26Z" fill="#808080"/>
<path d="M25 81.26H18.75V87.51H25V81.26Z" fill="#808080"/>
<path d="M18.75 81.26H12.5V87.51H18.75V81.26Z" fill="#808080"/>
<path d="M12.5 81.26H6.25V87.51H12.5V81.26Z" fill="#808080"/>
<path d="M6.25 81.26H0V87.51H6.25V81.26Z" fill="#4C4C4C"/>
<path d="M31.25 87.51H25V93.76H31.25V87.51Z" fill="#808080"/>
<path d="M25 87.51H18.75V93.76H25V87.51Z" fill="#808080"/>
<path d="M18.75 87.51H12.5V93.76H18.75V87.51Z" fill="#808080"/>
<path d="M12.5 87.51H6.25V93.76H12.5V87.51Z" fill="#808080"/>
<path d="M6.25 87.51H0V93.76H6.25V87.51Z" fill="#4C4C4C"/>
<path d="M31.25 93.76H25V100.01H31.25V93.76Z" fill="#808080"/>
<path d="M25 93.76H18.75V100.01H25V93.76Z" fill="#808080"/>
<path d="M18.75 93.76H12.5V100.01H18.75V93.76Z" fill="#808080"/>
<path d="M12.5 93.76H6.25V100.01H12.5V93.76Z" fill="#808080"/>
<path d="M6.25 93.76H0V100.01H6.25V93.76Z" fill="#4C4C4C"/>
<path d="M31.25 100.01H25V106.26H31.25V100.01Z" fill="#808080"/>
<path d="M25 100.01H18.75V106.26H25V100.01Z" fill="#808080"/>
<path d="M18.75 100.01H12.5V106.26H18.75V100.01Z" fill="#808080"/>
<path d="M12.5 100.01H6.25V106.26H12.5V100.01Z" fill="#808080"/>
<path d="M6.25 100.01H0V106.26H6.25V100.01Z" fill="#4C4C4C"/>
<path d="M150.02 106.26H143.77V112.51H150.02V106.26Z" fill="#4C4C4C"/>
<path d="M143.77 106.26H137.52V112.51H143.77V106.26Z" fill="#3D3D3D"/>
<path d="M137.52 106.26H131.27V112.51H137.52V106.26Z" fill="#3D3D3D"/>
<path d="M131.27 106.26H125.02V112.51H131.27V106.26Z" fill="#3D3D3D"/>
<path d="M125.02 106.26H118.77V112.51H125.02V106.26Z" fill="#3D3D3D"/>
<path d="M118.77 106.26H112.52V112.51H118.77V106.26Z" fill="#D6D6D6"/>
<path d="M112.51 106.26H106.26V112.51H112.51V106.26Z" fill="#D6D6D6"/>
<path d="M106.26 106.26H100.01V112.51H106.26V106.26Z" fill="#A5A5A5"/>
<path d="M100.01 106.26H93.76V112.51H100.01V106.26Z" fill="#A5A5A5"/>
<path d="M93.76 106.26H87.51V112.51H93.76V106.26Z" fill="#A5A5A5"/>
<path d="M87.51 106.26H81.26V112.51H87.51V106.26Z" fill="#A5A5A5"/>
<path d="M81.26 106.26H75.01V112.51H81.26V106.26Z" fill="#A5A5A5"/>
<path d="M75.01 106.26H68.76V112.51H75.01V106.26Z" fill="#A5A5A5"/>
<path d="M68.76 106.26H62.51V112.51H68.76V106.26Z" fill="#A5A5A5"/>
<path d="M62.51 106.26H56.26V112.51H62.51V106.26Z" fill="#A5A5A5"/>
<path d="M56.26 106.26H50.01V112.51H56.26V106.26Z" fill="#A5A5A5"/>
<path d="M50.01 106.26H43.76V112.51H50.01V106.26Z" fill="#A5A5A5"/>
<path d="M43.76 106.26H37.51V112.51H43.76V106.26Z" fill="#A5A5A5"/>
<path d="M37.5 106.26H31.25V112.51H37.5V106.26Z" fill="#D6D6D6"/>
<path d="M31.25 106.26H25V112.51H31.25V106.26Z" fill="#808080"/>
<path d="M25 106.26H18.75V112.51H25V106.26Z" fill="#808080"/>
<path d="M18.75 106.26H12.5V112.51H18.75V106.26Z" fill="#808080"/>
<path d="M12.5 106.26H6.25V112.51H12.5V106.26Z" fill="#808080"/>
<path d="M6.25 106.26H0V112.51H6.25V106.26Z" fill="#4C4C4C"/>
<path d="M150.02 112.52H143.77V118.77H150.02V112.52Z" fill="#4C4C4C"/>
<path d="M143.77 112.52H137.52V118.77H143.77V112.52Z" fill="#3D3D3D"/>
<path d="M137.52 112.52H131.27V118.77H137.52V112.52Z" fill="#3D3D3D"/>
<path d="M131.27 112.52H125.02V118.77H131.27V112.52Z" fill="#3D3D3D"/>
<path d="M125.02 112.52H118.77V118.77H125.02V112.52Z" fill="#3D3D3D"/>
<path d="M118.77 112.52H112.52V118.77H118.77V112.52Z" fill="#808080"/>
<path d="M112.51 112.52H106.26V118.77H112.51V112.52Z" fill="#D6D6D6"/>
<path d="M106.26 112.52H100.01V118.77H106.26V112.52Z" fill="#D6D6D6"/>
<path d="M100.01 112.52H93.76V118.77H100.01V112.52Z" fill="#D6D6D6"/>
<path d="M93.76 112.52H87.51V118.77H93.76V112.52Z" fill="#D6D6D6"/>
<path d="M87.51 112.52H81.26V118.77H87.51V112.52Z" fill="#D6D6D6"/>
<path d="M81.26 112.52H75.01V118.77H81.26V112.52Z" fill="#D6D6D6"/>
<path d="M75.01 112.52H68.76V118.77H75.01V112.52Z" fill="#D6D6D6"/>
<path d="M68.76 112.52H62.51V118.77H68.76V112.52Z" fill="#D6D6D6"/>
<path d="M62.51 112.52H56.26V118.77H62.51V112.52Z" fill="#D6D6D6"/>
<path d="M56.26 112.52H50.01V118.77H56.26V112.52Z" fill="#D6D6D6"/>
<path d="M50.01 112.52H43.76V118.77H50.01V112.52Z" fill="#D6D6D6"/>
<path d="M43.76 112.52H37.51V118.77H43.76V112.52Z" fill="#D6D6D6"/>
<path d="M37.5 112.52H31.25V118.77H37.5V112.52Z" fill="#A5A5A5"/>
<path d="M31.25 112.52H25V118.77H31.25V112.52Z" fill="#808080"/>
<path d="M25 112.52H18.75V118.77H25V112.52Z" fill="#808080"/>
<path d="M18.75 112.52H12.5V118.77H18.75V112.52Z" fill="#808080"/>
<path d="M12.5 112.52H6.25V118.77H12.5V112.52Z" fill="#808080"/>
<path d="M6.25 112.52H0V118.77H6.25V112.52Z" fill="#4C4C4C"/>
<path d="M150.02 118.77H143.77V125.02H150.02V118.77Z" fill="#4C4C4C"/>
<path d="M143.77 118.77H137.52V125.02H143.77V118.77Z" fill="#3D3D3D"/>
<path d="M137.52 118.77H131.27V125.02H137.52V118.77Z" fill="#3D3D3D"/>
<path d="M131.27 118.77H125.02V125.02H131.27V118.77Z" fill="#3D3D3D"/>
<path d="M125.02 118.77H118.77V125.02H125.02V118.77Z" fill="#808080"/>
<path d="M118.77 118.77H112.52V125.02H118.77V118.77Z" fill="#606060"/>
<path d="M112.51 118.77H106.26V125.02H112.51V118.77Z" fill="#606060"/>
<path d="M106.26 118.77H100.01V125.02H106.26V118.77Z" fill="#606060"/>
<path d="M100.01 118.77H93.76V125.02H100.01V118.77Z" fill="#606060"/>
<path d="M93.76 118.77H87.51V125.02H93.76V118.77Z" fill="#606060"/>
<path d="M87.51 118.77H81.26V125.02H87.51V118.77Z" fill="#606060"/>
<path d="M81.26 118.77H75.01V125.02H81.26V118.77Z" fill="#606060"/>
<path d="M75.01 118.77H68.76V125.02H75.01V118.77Z" fill="#606060"/>
<path d="M68.76 118.77H62.51V125.02H68.76V118.77Z" fill="#606060"/>
<path d="M62.51 118.77H56.26V125.02H62.51V118.77Z" fill="#606060"/>
<path d="M56.26 118.77H50.01V125.02H56.26V118.77Z" fill="#606060"/>
<path d="M50.01 118.77H43.76V125.02H50.01V118.77Z" fill="#606060"/>
<path d="M43.76 118.77H37.51V125.02H43.76V118.77Z" fill="#606060"/>
<path d="M37.5 118.77H31.25V125.02H37.5V118.77Z" fill="#606060"/>
<path d="M31.25 118.77H25V125.02H31.25V118.77Z" fill="#A5A5A5"/>
<path d="M25 118.77H18.75V125.02H25V118.77Z" fill="#808080"/>
<path d="M18.75 118.77H12.5V125.02H18.75V118.77Z" fill="#808080"/>
<path d="M12.5 118.77H6.25V125.02H12.5V118.77Z" fill="#808080"/>
<path d="M6.25 118.77H0V125.02H6.25V118.77Z" fill="#4C4C4C"/>
<path d="M150.02 125.02H143.77V131.27H150.02V125.02Z" fill="#4C4C4C"/>
<path d="M143.77 125.02H137.52V131.27H143.77V125.02Z" fill="#3D3D3D"/>
<path d="M137.52 125.02H131.27V131.27H137.52V125.02Z" fill="#3D3D3D"/>
<path d="M131.27 125.02H125.02V131.27H131.27V125.02Z" fill="#808080"/>
<path d="M125.02 125.02H118.77V131.27H125.02V125.02Z" fill="#606060"/>
<path d="M118.77 125.02H112.52V131.27H118.77V125.02Z" fill="#606060"/>
<path d="M112.51 125.02H106.26V131.27H112.51V125.02Z" fill="#606060"/>
<path d="M106.26 125.02H100.01V131.27H106.26V125.02Z" fill="#606060"/>
<path d="M100.01 125.02H93.76V131.27H100.01V125.02Z" fill="#606060"/>
<path d="M93.76 125.02H87.51V131.27H93.76V125.02Z" fill="#606060"/>
<path d="M87.51 125.02H81.26V131.27H87.51V125.02Z" fill="#606060"/>
<path d="M81.26 125.02H75.01V131.27H81.26V125.02Z" fill="#606060"/>
<path d="M75.01 125.02H68.76V131.27H75.01V125.02Z" fill="#606060"/>
<path d="M68.76 125.02H62.51V131.27H68.76V125.02Z" fill="#606060"/>
<path d="M62.51 125.02H56.26V131.27H62.51V125.02Z" fill="#606060"/>
<path d="M56.26 125.02H50.01V131.27H56.26V125.02Z" fill="#606060"/>
<path d="M50.01 125.02H43.76V131.27H50.01V125.02Z" fill="#606060"/>
<path d="M43.76 125.02H37.51V131.27H43.76V125.02Z" fill="#606060"/>
<path d="M37.5 125.02H31.25V131.27H37.5V125.02Z" fill="#606060"/>
<path d="M31.25 125.02H25V131.27H31.25V125.02Z" fill="#606060"/>
<path d="M25 125.02H18.75V131.27H25V125.02Z" fill="#A5A5A5"/>
<path d="M18.75 125.02H12.5V131.27H18.75V125.02Z" fill="#808080"/>
<path d="M12.5 125.02H6.25V131.27H12.5V125.02Z" fill="#808080"/>
<path d="M6.25 125.02H0V131.27H6.25V125.02Z" fill="#4C4C4C"/>
<path d="M150.02 131.27H143.77V137.52H150.02V131.27Z" fill="#4C4C4C"/>
<path d="M143.77 131.27H137.52V137.52H143.77V131.27Z" fill="#3D3D3D"/>
<path d="M137.52 131.27H131.27V137.52H137.52V131.27Z" fill="#808080"/>
<path d="M131.27 131.27H125.02V137.52H131.27V131.27Z" fill="#606060"/>
<path d="M125.02 131.27H118.77V137.52H125.02V131.27Z" fill="#606060"/>
<path d="M118.77 131.27H112.52V137.52H118.77V131.27Z" fill="#606060"/>
<path d="M112.51 131.27H106.26V137.52H112.51V131.27Z" fill="#606060"/>
<path d="M106.26 131.27H100.01V137.52H106.26V131.27Z" fill="#606060"/>
<path d="M100.01 131.27H93.76V137.52H100.01V131.27Z" fill="#606060"/>
<path d="M93.76 131.27H87.51V137.52H93.76V131.27Z" fill="#606060"/>
<path d="M87.51 131.27H81.26V137.52H87.51V131.27Z" fill="#606060"/>
<path d="M81.26 131.27H75.01V137.52H81.26V131.27Z" fill="#606060"/>
<path d="M75.01 131.27H68.76V137.52H75.01V131.27Z" fill="#606060"/>
<path d="M68.76 131.27H62.51V137.52H68.76V131.27Z" fill="#606060"/>
<path d="M62.51 131.27H56.26V137.52H62.51V131.27Z" fill="#606060"/>
<path d="M56.26 131.27H50.01V137.52H56.26V131.27Z" fill="#606060"/>
<path d="M50.01 131.27H43.76V137.52H50.01V131.27Z" fill="#606060"/>
<path d="M43.76 131.27H37.51V137.52H43.76V131.27Z" fill="#606060"/>
<path d="M37.5 131.27H31.25V137.52H37.5V131.27Z" fill="#606060"/>
<path d="M31.25 131.27H25V137.52H31.25V131.27Z" fill="#606060"/>
<path d="M25 131.27H18.75V137.52H25V131.27Z" fill="#606060"/>
<path d="M18.75 131.27H12.5V137.52H18.75V131.27Z" fill="#A5A5A5"/>
<path d="M12.5 131.27H6.25V137.52H12.5V131.27Z" fill="#808080"/>
<path d="M6.25 131.27H0V137.52H6.25V131.27Z" fill="#4C4C4C"/>
<path d="M143.77 137.52H137.52V143.77H143.77V137.52Z" fill="#4C4C4C"/>
<path d="M137.52 137.52H131.27V143.77H137.52V137.52Z" fill="#606060"/>
<path d="M131.27 137.52H125.02V143.77H131.27V137.52Z" fill="#606060"/>
<path d="M125.02 137.52H118.77V143.77H125.02V137.52Z" fill="#606060"/>
<path d="M118.77 137.52H112.52V143.77H118.77V137.52Z" fill="#606060"/>
<path d="M112.51 137.52H106.26V143.77H112.51V137.52Z" fill="#606060"/>
<path d="M106.26 137.52H100.01V143.77H106.26V137.52Z" fill="#606060"/>
<path d="M100.01 137.52H93.76V143.77H100.01V137.52Z" fill="#606060"/>
<path d="M93.76 137.52H87.51V143.77H93.76V137.52Z" fill="#606060"/>
<path d="M87.51 137.52H81.26V143.77H87.51V137.52Z" fill="#606060"/>
<path d="M81.26 137.52H75.01V143.77H81.26V137.52Z" fill="#606060"/>
<path d="M75.01 137.52H68.76V143.77H75.01V137.52Z" fill="#606060"/>
<path d="M68.76 137.52H62.51V143.77H68.76V137.52Z" fill="#606060"/>
<path d="M62.51 137.52H56.26V143.77H62.51V137.52Z" fill="#606060"/>
<path d="M56.26 137.52H50.01V143.77H56.26V137.52Z" fill="#606060"/>
<path d="M50.01 137.52H43.76V143.77H50.01V137.52Z" fill="#606060"/>
<path d="M43.76 137.52H37.51V143.77H43.76V137.52Z" fill="#606060"/>
<path d="M37.5 137.52H31.25V143.77H37.5V137.52Z" fill="#606060"/>
<path d="M31.25 137.52H25V143.77H31.25V137.52Z" fill="#606060"/>
<path d="M25 137.52H18.75V143.77H25V137.52Z" fill="#606060"/>
<path d="M18.75 137.52H12.5V143.77H18.75V137.52Z" fill="#606060"/>
<path d="M12.5 137.52H6.25V143.77H12.5V137.52Z" fill="#4C4C4C"/>
<path d="M137.52 143.77H131.27V150.02H137.52V143.77Z" fill="#4C4C4C"/>
<path d="M131.27 143.77H125.02V150.02H131.27V143.77Z" fill="#4C4C4C"/>
<path d="M125.02 143.77H118.77V150.02H125.02V143.77Z" fill="#4C4C4C"/>
<path d="M118.77 143.77H112.52V150.02H118.77V143.77Z" fill="#4C4C4C"/>
<path d="M112.51 143.77H106.26V150.02H112.51V143.77Z" fill="#4C4C4C"/>
<path d="M106.26 143.77H100.01V150.02H106.26V143.77Z" fill="#4C4C4C"/>
<path d="M100.01 143.77H93.76V150.02H100.01V143.77Z" fill="#4C4C4C"/>
<path d="M93.76 143.77H87.51V150.02H93.76V143.77Z" fill="#4C4C4C"/>
<path d="M87.51 143.77H81.26V150.02H87.51V143.77Z" fill="#4C4C4C"/>
<path d="M81.26 143.77H75.01V150.02H81.26V143.77Z" fill="#4C4C4C"/>
<path d="M75.01 143.77H68.76V150.02H75.01V143.77Z" fill="#4C4C4C"/>
<path d="M68.76 143.77H62.51V150.02H68.76V143.77Z" fill="#4C4C4C"/>
<path d="M62.51 143.77H56.26V150.02H62.51V143.77Z" fill="#4C4C4C"/>
<path d="M56.26 143.77H50.01V150.02H56.26V143.77Z" fill="#4C4C4C"/>
<path d="M50.01 143.77H43.76V150.02H50.01V143.77Z" fill="#4C4C4C"/>
<path d="M43.76 143.77H37.51V150.02H43.76V143.77Z" fill="#4C4C4C"/>
<path d="M37.5 143.77H31.25V150.02H37.5V143.77Z" fill="#4C4C4C"/>
<path d="M31.25 143.77H25V150.02H31.25V143.77Z" fill="#4C4C4C"/>
<path d="M25 143.77H18.75V150.02H25V143.77Z" fill="#4C4C4C"/>
<path d="M18.75 143.77H12.5V150.02H18.75V143.77Z" fill="#4C4C4C"/>
<path d="M65.64 81.25V75H59.38V68.75H53.13V43.73H59.38V37.48H65.64V31.23H90.64V37.48H96.89V43.73H84.4V37.48H71.89V43.73H65.64V68.75H71.89V75H84.4V68.75H96.89V75H90.64V81.25H65.64Z" fill="#E5E5E5"/>
<path d="M65.64 93.76V87.51H59.38V81.26H53.13V56.24H59.38V49.99H65.64V43.74H90.64V49.99H96.89V56.24H84.4V49.99H71.89V56.24H65.64V81.26H71.89V87.51H84.4V81.26H96.89V87.51H90.64V93.76H65.64Z" fill="#808080"/>
<path d="M65.64 87.51V81.26H59.38V75.01H53.13V49.99H59.38V43.74H65.64V37.49H90.64V43.74H96.89V49.99H84.4V43.74H71.89V49.99H65.64V75.01H71.89V81.26H84.4V75.01H96.89V81.26H90.64V87.51H65.64Z" fill="#282828"/>
</g>
<defs>
<clipPath id="clip0_3_11158">
<rect width="150.02" height="150.02" fill="white"/>
</clipPath>
</defs>
</svg>
