<svg width="282" height="101" viewBox="0 0 282 101" fill="none" xmlns="http://www.w3.org/2000/svg">
<g clip-path="url(#clip0_3_49656)">
<path d="M12.5 0.0300293V6.28003H6.25V12.53H0V87.54H6.25V93.79H12.5V100.04H37.5V100.03H37.51V100.04H112.51V100.03H112.52V100.04H187.52V100.03H187.53V100.04H262.53V100.03H262.54V100.04H268.79V93.79H275.04V87.54H281.29V37.54H281V37.53H281.29V12.53H275.04V6.28003H268.79V0.0300293H12.5Z" fill="#4C4C4C"/>
<path d="M268.79 0.0300293H262.54V6.28003H268.79V0.0300293Z" fill="#4C4C4C"/>
<path d="M262.53 0.0300293H256.28V6.28003H262.53V0.0300293Z" fill="#4C4C4C"/>
<path d="M256.28 0.0300293H250.03V6.28003H256.28V0.0300293Z" fill="#4C4C4C"/>
<path d="M250.03 0.0300293H243.78V6.28003H250.03V0.0300293Z" fill="#4C4C4C"/>
<path d="M243.78 0.0300293H237.53V6.28003H243.78V0.0300293Z" fill="#4C4C4C"/>
<path d="M237.53 0.0300293H231.28V6.28003H237.53V0.0300293Z" fill="#4C4C4C"/>
<path d="M231.28 0.0300293H225.03V6.28003H231.28V0.0300293Z" fill="#4C4C4C"/>
<path d="M225.03 0.0300293H218.78V6.28003H225.03V0.0300293Z" fill="#4C4C4C"/>
<path d="M218.78 0.0300293H212.53V6.28003H218.78V0.0300293Z" fill="#4C4C4C"/>
<path d="M212.53 0.0300293H206.28V6.28003H212.53V0.0300293Z" fill="#4C4C4C"/>
<path d="M206.28 0.0300293H200.03V6.28003H206.28V0.0300293Z" fill="#4C4C4C"/>
<path d="M200.03 0.0300293H193.78V6.28003H200.03V0.0300293Z" fill="#4C4C4C"/>
<path d="M193.78 0.0300293H187.53V6.28003H193.78V0.0300293Z" fill="#4C4C4C"/>
<path d="M187.52 0.0300293H181.27V6.28003H187.52V0.0300293Z" fill="#4C4C4C"/>
<path d="M181.27 0.0300293H175.02V6.28003H181.27V0.0300293Z" fill="#4C4C4C"/>
<path d="M175.02 0.0300293H168.77V6.28003H175.02V0.0300293Z" fill="#4C4C4C"/>
<path d="M168.77 0.0300293H162.52V6.28003H168.77V0.0300293Z" fill="#4C4C4C"/>
<path d="M162.52 0.0300293H156.27V6.28003H162.52V0.0300293Z" fill="#4C4C4C"/>
<path d="M156.27 0.0300293H150.02V6.28003H156.27V0.0300293Z" fill="#4C4C4C"/>
<path d="M150.02 0.0300293H143.77V6.28003H150.02V0.0300293Z" fill="#4C4C4C"/>
<path d="M143.77 0.0300293H137.52V6.28003H143.77V0.0300293Z" fill="#4C4C4C"/>
<path d="M137.52 0.0300293H131.27V6.28003H137.52V0.0300293Z" fill="#4C4C4C"/>
<path d="M131.27 0.0300293H125.02V6.28003H131.27V0.0300293Z" fill="#4C4C4C"/>
<path d="M125.02 0.0300293H118.77V6.28003H125.02V0.0300293Z" fill="#4C4C4C"/>
<path d="M118.77 0.0300293H112.52V6.28003H118.77V0.0300293Z" fill="#4C4C4C"/>
<path d="M112.51 0.0300293H106.26V6.28003H112.51V0.0300293Z" fill="#4C4C4C"/>
<path d="M106.26 0.0300293H100.01V6.28003H106.26V0.0300293Z" fill="#4C4C4C"/>
<path d="M100.01 0.0300293H93.76V6.28003H100.01V0.0300293Z" fill="#4C4C4C"/>
<path d="M93.76 0.0300293H87.51V6.28003H93.76V0.0300293Z" fill="#4C4C4C"/>
<path d="M87.51 0.0300293H81.26V6.28003H87.51V0.0300293Z" fill="#4C4C4C"/>
<path d="M81.26 0.0300293H75.01V6.28003H81.26V0.0300293Z" fill="#4C4C4C"/>
<path d="M75.01 0.0300293H68.76V6.28003H75.01V0.0300293Z" fill="#4C4C4C"/>
<path d="M68.76 0.0300293H62.51V6.28003H68.76V0.0300293Z" fill="#4C4C4C"/>
<path d="M62.51 0.0300293H56.26V6.28003H62.51V0.0300293Z" fill="#4C4C4C"/>
<path d="M56.26 0.0300293H50.01V6.28003H56.26V0.0300293Z" fill="#4C4C4C"/>
<path d="M50.01 0.0300293H43.76V6.28003H50.01V0.0300293Z" fill="#4C4C4C"/>
<path d="M43.76 0.0300293H37.51V6.28003H43.76V0.0300293Z" fill="#4C4C4C"/>
<path d="M37.5 0.0300293H31.25V6.28003H37.5V0.0300293Z" fill="#4C4C4C"/>
<path d="M31.25 0.0300293H25V6.28003H31.25V0.0300293Z" fill="#4C4C4C"/>
<path d="M25 0.0300293H18.75V6.28003H25V0.0300293Z" fill="#4C4C4C"/>
<path d="M18.75 0.0300293H12.5V6.28003H18.75V0.0300293Z" fill="#4C4C4C"/>
<path d="M275.04 6.28003H268.79V12.53H275.04V6.28003Z" fill="#4C4C4C"/>
<path d="M268.79 6.28003H262.54V12.53H268.79V6.28003Z" fill="#3D3D3D"/>
<path d="M262.53 6.28003H256.28V12.53H262.53V6.28003Z" fill="#3D3D3D"/>
<path d="M256.28 6.28003H250.03V12.53H256.28V6.28003Z" fill="#3D3D3D"/>
<path d="M250.03 6.28003H243.78V12.53H250.03V6.28003Z" fill="#3D3D3D"/>
<path d="M243.78 6.28003H237.53V12.53H243.78V6.28003Z" fill="#D6D6D6"/>
<path d="M237.53 6.28003H231.28V12.53H237.53V6.28003Z" fill="#A5A5A5"/>
<path d="M231.28 6.28003H225.03V12.53H231.28V6.28003Z" fill="#A5A5A5"/>
<path d="M225.03 6.28003H218.78V12.53H225.03V6.28003Z" fill="#A5A5A5"/>
<path d="M218.78 6.28003H212.53V12.53H218.78V6.28003Z" fill="#A5A5A5"/>
<path d="M212.53 6.28003H206.28V12.53H212.53V6.28003Z" fill="#A5A5A5"/>
<path d="M206.28 6.28003H200.03V12.53H206.28V6.28003Z" fill="#A5A5A5"/>
<path d="M200.03 6.28003H193.78V12.53H200.03V6.28003Z" fill="#A5A5A5"/>
<path d="M193.78 6.28003H187.53V12.53H193.78V6.28003Z" fill="#A5A5A5"/>
<path d="M187.52 6.28003H181.27V12.53H187.52V6.28003Z" fill="#A5A5A5"/>
<path d="M181.27 6.28003H175.02V12.53H181.27V6.28003Z" fill="#A5A5A5"/>
<path d="M175.02 6.28003H168.77V12.53H175.02V6.28003Z" fill="#A5A5A5"/>
<path d="M168.77 6.28003H162.52V12.53H168.77V6.28003Z" fill="#A5A5A5"/>
<path d="M162.52 6.28003H156.27V12.53H162.52V6.28003Z" fill="#A5A5A5"/>
<path d="M156.27 6.28003H150.02V12.53H156.27V6.28003Z" fill="#D6D6D6"/>
<path d="M150.02 6.28003H143.77V12.53H150.02V6.28003Z" fill="#D6D6D6"/>
<path d="M143.77 6.28003H137.52V12.53H143.77V6.28003Z" fill="#D6D6D6"/>
<path d="M137.52 6.28003H131.27V12.53H137.52V6.28003Z" fill="#A5A5A5"/>
<path d="M131.27 6.28003H125.02V12.53H131.27V6.28003Z" fill="#A5A5A5"/>
<path d="M125.02 6.28003H118.77V12.53H125.02V6.28003Z" fill="#A5A5A5"/>
<path d="M118.77 6.28003H112.52V12.53H118.77V6.28003Z" fill="#D6D6D6"/>
<path d="M112.51 6.28003H106.26V12.53H112.51V6.28003Z" fill="#A5A5A5"/>
<path d="M106.26 6.28003H100.01V12.53H106.26V6.28003Z" fill="#A5A5A5"/>
<path d="M100.01 6.28003H93.76V12.53H100.01V6.28003Z" fill="#A5A5A5"/>
<path d="M93.76 6.28003H87.51V12.53H93.76V6.28003Z" fill="#A5A5A5"/>
<path d="M87.51 6.28003H81.26V12.53H87.51V6.28003Z" fill="#A5A5A5"/>
<path d="M81.26 6.28003H75.01V12.53H81.26V6.28003Z" fill="#A5A5A5"/>
<path d="M75.01 6.28003H68.76V12.53H75.01V6.28003Z" fill="#A5A5A5"/>
<path d="M68.76 6.28003H62.51V12.53H68.76V6.28003Z" fill="#A5A5A5"/>
<path d="M62.51 6.28003H56.26V12.53H62.51V6.28003Z" fill="#A5A5A5"/>
<path d="M56.26 6.28003H50.01V12.53H56.26V6.28003Z" fill="#A5A5A5"/>
<path d="M50.01 6.28003H43.76V12.53H50.01V6.28003Z" fill="#A5A5A5"/>
<path d="M43.76 6.28003H37.51V12.53H43.76V6.28003Z" fill="#D6D6D6"/>
<path d="M37.5 6.28003H31.25V12.53H37.5V6.28003Z" fill="#808080"/>
<path d="M31.25 6.28003H25V12.53H31.25V6.28003Z" fill="#808080"/>
<path d="M25 6.28003H18.75V12.53H25V6.28003Z" fill="#808080"/>
<path d="M18.75 6.28003H12.5V12.53H18.75V6.28003Z" fill="#808080"/>
<path d="M12.5 6.28003H6.25V12.53H12.5V6.28003Z" fill="#4C4C4C"/>
<path d="M281.29 12.53H275.04V18.78H281.29V12.53Z" fill="#4C4C4C"/>
<path d="M275.04 12.53H268.79V18.78H275.04V12.53Z" fill="#3D3D3D"/>
<path d="M268.79 12.53H262.54V18.78H268.79V12.53Z" fill="#3D3D3D"/>
<path d="M262.53 12.53H256.28V18.78H262.53V12.53Z" fill="#3D3D3D"/>
<path d="M256.28 12.53H250.03V18.78H256.28V12.53Z" fill="#3D3D3D"/>
<path d="M250.03 12.53H243.78V18.78H250.03V12.53Z" fill="#D6D6D6"/>
<path d="M243.78 12.53H237.53V18.78H243.78V12.53Z" fill="#A5A5A5"/>
<path d="M237.53 12.53H231.28V18.78H237.53V12.53Z" fill="#A5A5A5"/>
<path d="M231.28 12.53H225.03V18.78H231.28V12.53Z" fill="#A5A5A5"/>
<path d="M225.03 12.53H218.78V18.78H225.03V12.53Z" fill="#A5A5A5"/>
<path d="M218.78 12.53H212.53V18.78H218.78V12.53Z" fill="#A5A5A5"/>
<path d="M212.53 12.53H206.28V18.78H212.53V12.53Z" fill="#A5A5A5"/>
<path d="M206.28 12.53H200.03V18.78H206.28V12.53Z" fill="#A5A5A5"/>
<path d="M200.03 12.53H193.78V18.78H200.03V12.53Z" fill="#A5A5A5"/>
<path d="M193.78 12.53H187.53V18.78H193.78V12.53Z" fill="#A5A5A5"/>
<path d="M187.52 12.53H181.27V18.78H187.52V12.53Z" fill="#A5A5A5"/>
<path d="M181.27 12.53H175.02V18.78H181.27V12.53Z" fill="#A5A5A5"/>
<path d="M175.02 12.53H168.77V18.78H175.02V12.53Z" fill="#A5A5A5"/>
<path d="M168.77 12.53H162.52V18.78H168.77V12.53Z" fill="#A5A5A5"/>
<path d="M162.52 12.53H156.27V18.78H162.52V12.53Z" fill="#D6D6D6"/>
<path d="M156.27 12.53H150.02V18.78H156.27V12.53Z" fill="#D6D6D6"/>
<path d="M150.02 12.53H143.77V18.78H150.02V12.53Z" fill="#D6D6D6"/>
<path d="M143.77 12.53H137.52V18.78H143.77V12.53Z" fill="#A5A5A5"/>
<path d="M137.52 12.53H131.27V18.78H137.52V12.53Z" fill="#A5A5A5"/>
<path d="M131.27 12.53H125.02V18.78H131.27V12.53Z" fill="#A5A5A5"/>
<path d="M125.02 12.53H118.77V18.78H125.02V12.53Z" fill="#D6D6D6"/>
<path d="M118.77 12.53H112.52V18.78H118.77V12.53Z" fill="#A5A5A5"/>
<path d="M112.51 12.53H106.26V18.78H112.51V12.53Z" fill="#A5A5A5"/>
<path d="M106.26 12.53H100.01V18.78H106.26V12.53Z" fill="#A5A5A5"/>
<path d="M100.01 12.53H93.76V18.78H100.01V12.53Z" fill="#A5A5A5"/>
<path d="M93.76 12.53H87.51V18.78H93.76V12.53Z" fill="#A5A5A5"/>
<path d="M87.51 12.53H81.26V18.78H87.51V12.53Z" fill="#A5A5A5"/>
<path d="M81.26 12.53H75.01V18.78H81.26V12.53Z" fill="#A5A5A5"/>
<path d="M75.01 12.53H68.76V18.78H75.01V12.53Z" fill="#A5A5A5"/>
<path d="M68.76 12.53H62.51V18.78H68.76V12.53Z" fill="#A5A5A5"/>
<path d="M62.51 12.53H56.26V18.78H62.51V12.53Z" fill="#A5A5A5"/>
<path d="M56.26 12.53H50.01V18.78H56.26V12.53Z" fill="#A5A5A5"/>
<path d="M50.01 12.53H43.76V18.78H50.01V12.53Z" fill="#A5A5A5"/>
<path d="M43.76 12.53H37.51V18.78H43.76V12.53Z" fill="#A5A5A5"/>
<path d="M37.5 12.53H31.25V18.78H37.5V12.53Z" fill="#D6D6D6"/>
<path d="M31.25 12.53H25V18.78H31.25V12.53Z" fill="#808080"/>
<path d="M25 12.53H18.75V18.78H25V12.53Z" fill="#808080"/>
<path d="M18.75 12.53H12.5V18.78H18.75V12.53Z" fill="#808080"/>
<path d="M12.5 12.53H6.25V18.78H12.5V12.53Z" fill="#808080"/>
<path d="M6.25 12.53H0V18.78H6.25V12.53Z" fill="#4C4C4C"/>
<path d="M281.29 18.78H275.04V25.03H281.29V18.78Z" fill="#4C4C4C"/>
<path d="M275.04 18.78H268.79V25.03H275.04V18.78Z" fill="#3D3D3D"/>
<path d="M268.79 18.78H262.54V25.03H268.79V18.78Z" fill="#3D3D3D"/>
<path d="M262.53 18.78H256.28V25.03H262.53V18.78Z" fill="#3D3D3D"/>
<path d="M256.28 18.78H250.03V25.03H256.28V18.78Z" fill="#3D3D3D"/>
<path d="M250.03 18.78H243.78V25.03H250.03V18.78Z" fill="#A5A5A5"/>
<path d="M243.78 18.78H237.53V25.03H243.78V18.78Z" fill="#A5A5A5"/>
<path d="M237.53 18.78H231.28V25.03H237.53V18.78Z" fill="#A5A5A5"/>
<path d="M231.28 18.78H225.03V25.03H231.28V18.78Z" fill="#A5A5A5"/>
<path d="M225.03 18.78H218.78V25.03H225.03V18.78Z" fill="#A5A5A5"/>
<path d="M218.78 18.78H212.53V25.03H218.78V18.78Z" fill="#A5A5A5"/>
<path d="M212.53 18.78H206.28V25.03H212.53V18.78Z" fill="#A5A5A5"/>
<path d="M206.28 18.78H200.03V25.03H206.28V18.78Z" fill="#A5A5A5"/>
<path d="M200.03 18.78H193.78V25.03H200.03V18.78Z" fill="#A5A5A5"/>
<path d="M193.78 18.78H187.53V25.03H193.78V18.78Z" fill="#A5A5A5"/>
<path d="M187.52 18.78H181.27V25.03H187.52V18.78Z" fill="#A5A5A5"/>
<path d="M181.27 18.78H175.02V25.03H181.27V18.78Z" fill="#A5A5A5"/>
<path d="M175.02 18.78H168.77V25.03H175.02V18.78Z" fill="#A5A5A5"/>
<path d="M168.77 18.78H162.52V25.03H168.77V18.78Z" fill="#D6D6D6"/>
<path d="M162.52 18.78H156.27V25.03H162.52V18.78Z" fill="#D6D6D6"/>
<path d="M156.27 18.78H150.02V25.03H156.27V18.78Z" fill="#D6D6D6"/>
<path d="M150.02 18.78H143.77V25.03H150.02V18.78Z" fill="#A5A5A5"/>
<path d="M143.77 18.78H137.52V25.03H143.77V18.78Z" fill="#A5A5A5"/>
<path d="M137.52 18.78H131.27V25.03H137.52V18.78Z" fill="#A5A5A5"/>
<path d="M131.27 18.78H125.02V25.03H131.27V18.78Z" fill="#D6D6D6"/>
<path d="M125.02 18.78H118.77V25.03H125.02V18.78Z" fill="#A5A5A5"/>
<path d="M118.77 18.78H112.52V25.03H118.77V18.78Z" fill="#A5A5A5"/>
<path d="M112.51 18.78H106.26V25.03H112.51V18.78Z" fill="#A5A5A5"/>
<path d="M106.26 18.78H100.01V25.03H106.26V18.78Z" fill="#A5A5A5"/>
<path d="M100.01 18.78H93.76V25.03H100.01V18.78Z" fill="#A5A5A5"/>
<path d="M93.76 18.78H87.51V25.03H93.76V18.78Z" fill="#A5A5A5"/>
<path d="M87.51 18.78H81.26V25.03H87.51V18.78Z" fill="#A5A5A5"/>
<path d="M81.26 18.78H75.01V25.03H81.26V18.78Z" fill="#A5A5A5"/>
<path d="M75.01 18.78H68.76V25.03H75.01V18.78Z" fill="#A5A5A5"/>
<path d="M68.76 18.78H62.51V25.03H68.76V18.78Z" fill="#A5A5A5"/>
<path d="M62.51 18.78H56.26V25.03H62.51V18.78Z" fill="#A5A5A5"/>
<path d="M56.26 18.78H50.01V25.03H56.26V18.78Z" fill="#A5A5A5"/>
<path d="M50.01 18.78H43.76V25.03H50.01V18.78Z" fill="#A5A5A5"/>
<path d="M43.76 18.78H37.51V25.03H43.76V18.78Z" fill="#A5A5A5"/>
<path d="M37.5 18.78H31.25V25.03H37.5V18.78Z" fill="#A5A5A5"/>
<path d="M31.25 18.78H25V25.03H31.25V18.78Z" fill="#808080"/>
<path d="M25 18.78H18.75V25.03H25V18.78Z" fill="#808080"/>
<path d="M18.75 18.78H12.5V25.03H18.75V18.78Z" fill="#808080"/>
<path d="M12.5 18.78H6.25V25.03H12.5V18.78Z" fill="#808080"/>
<path d="M6.25 18.78H0V25.03H6.25V18.78Z" fill="#4C4C4C"/>
<path d="M281.29 25.03H275.04V31.28H281.29V25.03Z" fill="#4C4C4C"/>
<path d="M275.04 25.03H268.79V31.28H275.04V25.03Z" fill="#3D3D3D"/>
<path d="M268.79 25.03H262.54V31.28H268.79V25.03Z" fill="#3D3D3D"/>
<path d="M262.53 25.03H256.28V31.28H262.53V25.03Z" fill="#3D3D3D"/>
<path d="M256.28 25.03H250.03V31.28H256.28V25.03Z" fill="#3D3D3D"/>
<path d="M250.03 25.03H243.78V31.28H250.03V25.03Z" fill="#A5A5A5"/>
<path d="M243.78 25.03H237.53V31.28H243.78V25.03Z" fill="#A5A5A5"/>
<path d="M237.53 25.03H231.28V31.28H237.53V25.03Z" fill="#A5A5A5"/>
<path d="M231.28 25.03H225.03V31.28H231.28V25.03Z" fill="#A5A5A5"/>
<path d="M225.03 25.03H218.78V31.28H225.03V25.03Z" fill="#A5A5A5"/>
<path d="M218.78 25.03H212.53V31.28H218.78V25.03Z" fill="#A5A5A5"/>
<path d="M212.53 25.03H206.28V31.28H212.53V25.03Z" fill="#A5A5A5"/>
<path d="M206.28 25.03H200.03V31.28H206.28V25.03Z" fill="#A5A5A5"/>
<path d="M200.03 25.03H193.78V31.28H200.03V25.03Z" fill="#A5A5A5"/>
<path d="M193.78 25.03H187.53V31.28H193.78V25.03Z" fill="#A5A5A5"/>
<path d="M187.52 25.03H181.27V31.28H187.52V25.03Z" fill="#A5A5A5"/>
<path d="M181.27 25.03H175.02V31.28H181.27V25.03Z" fill="#A5A5A5"/>
<path d="M175.02 25.03H168.77V31.28H175.02V25.03Z" fill="#D6D6D6"/>
<path d="M168.77 25.03H162.52V31.28H168.77V25.03Z" fill="#D6D6D6"/>
<path d="M162.52 25.03H156.27V31.28H162.52V25.03Z" fill="#D6D6D6"/>
<path d="M156.27 25.03H150.02V31.28H156.27V25.03Z" fill="#A5A5A5"/>
<path d="M150.02 25.03H143.77V31.28H150.02V25.03Z" fill="#A5A5A5"/>
<path d="M143.77 25.03H137.52V31.28H143.77V25.03Z" fill="#A5A5A5"/>
<path d="M137.52 25.03H131.27V31.28H137.52V25.03Z" fill="#D6D6D6"/>
<path d="M131.27 25.03H125.02V31.28H131.27V25.03Z" fill="#A5A5A5"/>
<path d="M125.02 25.03H118.77V31.28H125.02V25.03Z" fill="#A5A5A5"/>
<path d="M118.77 25.03H112.52V31.28H118.77V25.03Z" fill="#A5A5A5"/>
<path d="M112.51 25.03H106.26V31.28H112.51V25.03Z" fill="#A5A5A5"/>
<path d="M106.26 25.03H100.01V31.28H106.26V25.03Z" fill="#A5A5A5"/>
<path d="M100.01 25.03H93.76V31.28H100.01V25.03Z" fill="#A5A5A5"/>
<path d="M93.76 25.03H87.51V31.28H93.76V25.03Z" fill="#A5A5A5"/>
<path d="M87.51 25.03H81.26V31.28H87.51V25.03Z" fill="#A5A5A5"/>
<path d="M81.26 25.03H75.01V31.28H81.26V25.03Z" fill="#A5A5A5"/>
<path d="M75.01 25.03H68.76V31.28H75.01V25.03Z" fill="#A5A5A5"/>
<path d="M68.76 25.03H62.51V31.28H68.76V25.03Z" fill="#A5A5A5"/>
<path d="M62.51 25.03H56.26V31.28H62.51V25.03Z" fill="#A5A5A5"/>
<path d="M56.26 25.03H50.01V31.28H56.26V25.03Z" fill="#A5A5A5"/>
<path d="M50.01 25.03H43.76V31.28H50.01V25.03Z" fill="#A5A5A5"/>
<path d="M43.76 25.03H37.51V31.28H43.76V25.03Z" fill="#A5A5A5"/>
<path d="M37.5 25.03H31.25V31.28H37.5V25.03Z" fill="#A5A5A5"/>
<path d="M31.25 25.03H25V31.28H31.25V25.03Z" fill="#808080"/>
<path d="M25 25.03H18.75V31.28H25V25.03Z" fill="#808080"/>
<path d="M18.75 25.03H12.5V31.28H18.75V25.03Z" fill="#808080"/>
<path d="M12.5 25.03H6.25V31.28H12.5V25.03Z" fill="#808080"/>
<path d="M6.25 25.03H0V31.28H6.25V25.03Z" fill="#4C4C4C"/>
<path d="M281.29 31.28H275.04V37.53H281.29V31.28Z" fill="#4C4C4C"/>
<path d="M275.04 31.28H268.79V37.53H275.04V31.28Z" fill="#3D3D3D"/>
<path d="M268.79 31.28H262.54V37.53H268.79V31.28Z" fill="#3D3D3D"/>
<path d="M262.53 31.28H256.28V37.53H262.53V31.28Z" fill="#3D3D3D"/>
<path d="M256.28 31.28H250.03V37.53H256.28V31.28Z" fill="#3D3D3D"/>
<path d="M250.03 31.28H243.78V37.53H250.03V31.28Z" fill="#A5A5A5"/>
<path d="M243.78 31.28H237.53V37.53H243.78V31.28Z" fill="#A5A5A5"/>
<path d="M237.53 31.28H231.28V37.53H237.53V31.28Z" fill="#A5A5A5"/>
<path d="M231.28 31.28H225.03V37.53H231.28V31.28Z" fill="#A5A5A5"/>
<path d="M225.03 31.28H218.78V37.53H225.03V31.28Z" fill="#A5A5A5"/>
<path d="M218.78 31.28H212.53V37.53H218.78V31.28Z" fill="#A5A5A5"/>
<path d="M212.53 31.28H206.28V37.53H212.53V31.28Z" fill="#A5A5A5"/>
<path d="M206.28 31.28H200.03V37.53H206.28V31.28Z" fill="#A5A5A5"/>
<path d="M200.03 31.28H193.78V37.53H200.03V31.28Z" fill="#A5A5A5"/>
<path d="M193.78 31.28H187.53V37.53H193.78V31.28Z" fill="#A5A5A5"/>
<path d="M187.52 31.28H181.27V37.53H187.52V31.28Z" fill="#A5A5A5"/>
<path d="M181.27 31.28H175.02V37.53H181.27V31.28Z" fill="#D6D6D6"/>
<path d="M175.02 31.28H168.77V37.53H175.02V31.28Z" fill="#D6D6D6"/>
<path d="M168.77 31.28H162.52V37.53H168.77V31.28Z" fill="#D6D6D6"/>
<path d="M162.52 31.28H156.27V37.53H162.52V31.28Z" fill="#A5A5A5"/>
<path d="M156.27 31.28H150.02V37.53H156.27V31.28Z" fill="#A5A5A5"/>
<path d="M150.02 31.28H143.77V37.53H150.02V31.28Z" fill="#A5A5A5"/>
<path d="M143.77 31.28H137.52V37.53H143.77V31.28Z" fill="#D6D6D6"/>
<path d="M137.52 31.28H131.27V37.53H137.52V31.28Z" fill="#A5A5A5"/>
<path d="M131.27 31.28H125.02V37.53H131.27V31.28Z" fill="#A5A5A5"/>
<path d="M125.02 31.28H118.77V37.53H125.02V31.28Z" fill="#A5A5A5"/>
<path d="M118.77 31.28H112.52V37.53H118.77V31.28Z" fill="#A5A5A5"/>
<path d="M112.51 31.28H106.26V37.53H112.51V31.28Z" fill="#A5A5A5"/>
<path d="M106.26 31.28H100.01V37.53H106.26V31.28Z" fill="#A5A5A5"/>
<path d="M100.01 31.28H93.76V37.53H100.01V31.28Z" fill="#A5A5A5"/>
<path d="M93.76 31.28H87.51V37.53H93.76V31.28Z" fill="#A5A5A5"/>
<path d="M87.51 31.28H81.26V37.53H87.51V31.28Z" fill="#A5A5A5"/>
<path d="M81.26 31.28H75.01V37.53H81.26V31.28Z" fill="#A5A5A5"/>
<path d="M75.01 31.28H68.76V37.53H75.01V31.28Z" fill="#A5A5A5"/>
<path d="M68.76 31.28H62.51V37.53H68.76V31.28Z" fill="#A5A5A5"/>
<path d="M62.51 31.28H56.26V37.53H62.51V31.28Z" fill="#A5A5A5"/>
<path d="M56.26 31.28H50.01V37.53H56.26V31.28Z" fill="#A5A5A5"/>
<path d="M50.01 31.28H43.76V37.53H50.01V31.28Z" fill="#A5A5A5"/>
<path d="M43.76 31.28H37.51V37.53H43.76V31.28Z" fill="#A5A5A5"/>
<path d="M37.5 31.28H31.25V37.53H37.5V31.28Z" fill="#A5A5A5"/>
<path d="M31.25 31.28H25V37.53H31.25V31.28Z" fill="#808080"/>
<path d="M25 31.28H18.75V37.53H25V31.28Z" fill="#808080"/>
<path d="M18.75 31.28H12.5V37.53H18.75V31.28Z" fill="#808080"/>
<path d="M12.5 31.28H6.25V37.53H12.5V31.28Z" fill="#808080"/>
<path d="M6.25 31.28H0V37.53H6.25V31.28Z" fill="#4C4C4C"/>
<path d="M281.29 37.54H275.04V43.79H281.29V37.54Z" fill="#4C4C4C"/>
<path d="M275.04 37.54H268.79V43.79H275.04V37.54Z" fill="#3D3D3D"/>
<path d="M268.79 37.54H262.54V43.79H268.79V37.54Z" fill="#3D3D3D"/>
<path d="M262.53 37.54H256.28V43.79H262.53V37.54Z" fill="#3D3D3D"/>
<path d="M256.28 37.54H250.03V43.79H256.28V37.54Z" fill="#3D3D3D"/>
<path d="M250.03 37.54H243.78V43.79H250.03V37.54Z" fill="#A5A5A5"/>
<path d="M243.78 37.54H237.53V43.79H243.78V37.54Z" fill="#A5A5A5"/>
<path d="M237.53 37.54H231.28V43.79H237.53V37.54Z" fill="#A5A5A5"/>
<path d="M231.28 37.54H225.03V43.79H231.28V37.54Z" fill="#A5A5A5"/>
<path d="M225.03 37.54H218.78V43.79H225.03V37.54Z" fill="#A5A5A5"/>
<path d="M218.78 37.54H212.53V43.79H218.78V37.54Z" fill="#A5A5A5"/>
<path d="M212.53 37.54H206.28V43.79H212.53V37.54Z" fill="#A5A5A5"/>
<path d="M206.28 37.54H200.03V43.79H206.28V37.54Z" fill="#A5A5A5"/>
<path d="M200.03 37.54H193.78V43.79H200.03V37.54Z" fill="#A5A5A5"/>
<path d="M193.78 37.54H187.53V43.79H193.78V37.54Z" fill="#A5A5A5"/>
<path d="M187.52 37.54H181.27V43.79H187.52V37.54Z" fill="#D6D6D6"/>
<path d="M181.27 37.54H175.02V43.79H181.27V37.54Z" fill="#D6D6D6"/>
<path d="M175.02 37.54H168.77V43.79H175.02V37.54Z" fill="#D6D6D6"/>
<path d="M168.77 37.54H162.52V43.79H168.77V37.54Z" fill="#A5A5A5"/>
<path d="M162.52 37.54H156.27V43.79H162.52V37.54Z" fill="#A5A5A5"/>
<path d="M156.27 37.54H150.02V43.79H156.27V37.54Z" fill="#A5A5A5"/>
<path d="M150.02 37.54H143.77V43.79H150.02V37.54Z" fill="#D6D6D6"/>
<path d="M143.77 37.54H137.52V43.79H143.77V37.54Z" fill="#A5A5A5"/>
<path d="M137.52 37.54H131.27V43.79H137.52V37.54Z" fill="#A5A5A5"/>
<path d="M131.27 37.54H125.02V43.79H131.27V37.54Z" fill="#A5A5A5"/>
<path d="M125.02 37.54H118.77V43.79H125.02V37.54Z" fill="#A5A5A5"/>
<path d="M118.77 37.54H112.52V43.79H118.77V37.54Z" fill="#A5A5A5"/>
<path d="M112.51 37.54H106.26V43.79H112.51V37.54Z" fill="#A5A5A5"/>
<path d="M106.26 37.54H100.01V43.79H106.26V37.54Z" fill="#A5A5A5"/>
<path d="M100.01 37.54H93.76V43.79H100.01V37.54Z" fill="#A5A5A5"/>
<path d="M93.76 37.54H87.51V43.79H93.76V37.54Z" fill="#A5A5A5"/>
<path d="M87.51 37.54H81.26V43.79H87.51V37.54Z" fill="#A5A5A5"/>
<path d="M81.26 37.54H75.01V43.79H81.26V37.54Z" fill="#A5A5A5"/>
<path d="M75.01 37.54H68.76V43.79H75.01V37.54Z" fill="#A5A5A5"/>
<path d="M68.76 37.54H62.51V43.79H68.76V37.54Z" fill="#A5A5A5"/>
<path d="M62.51 37.54H56.26V43.79H62.51V37.54Z" fill="#A5A5A5"/>
<path d="M56.26 37.54H50.01V43.79H56.26V37.54Z" fill="#A5A5A5"/>
<path d="M50.01 37.54H43.76V43.79H50.01V37.54Z" fill="#A5A5A5"/>
<path d="M43.76 37.54H37.51V43.79H43.76V37.54Z" fill="#A5A5A5"/>
<path d="M37.5 37.54H31.25V43.79H37.5V37.54Z" fill="#A5A5A5"/>
<path d="M31.25 37.54H25V43.79H31.25V37.54Z" fill="#808080"/>
<path d="M25 37.54H18.75V43.79H25V37.54Z" fill="#808080"/>
<path d="M18.75 37.54H12.5V43.79H18.75V37.54Z" fill="#808080"/>
<path d="M12.5 37.54H6.25V43.79H12.5V37.54Z" fill="#808080"/>
<path d="M6.25 37.54H0V43.79H6.25V37.54Z" fill="#4C4C4C"/>
<path d="M281.29 43.79H275.04V50.04H281.29V43.79Z" fill="#4C4C4C"/>
<path d="M275.04 43.79H268.79V50.04H275.04V43.79Z" fill="#3D3D3D"/>
<path d="M268.79 43.79H262.54V50.04H268.79V43.79Z" fill="#3D3D3D"/>
<path d="M262.53 43.79H256.28V50.04H262.53V43.79Z" fill="#3D3D3D"/>
<path d="M256.28 43.79H250.03V50.04H256.28V43.79Z" fill="#3D3D3D"/>
<path d="M250.03 43.79H243.78V50.04H250.03V43.79Z" fill="#A5A5A5"/>
<path d="M243.78 43.79H237.53V50.04H243.78V43.79Z" fill="#A5A5A5"/>
<path d="M237.53 43.79H231.28V50.04H237.53V43.79Z" fill="#A5A5A5"/>
<path d="M231.28 43.79H225.03V50.04H231.28V43.79Z" fill="#A5A5A5"/>
<path d="M225.03 43.79H218.78V50.04H225.03V43.79Z" fill="#A5A5A5"/>
<path d="M218.78 43.79H212.53V50.04H218.78V43.79Z" fill="#A5A5A5"/>
<path d="M212.53 43.79H206.28V50.04H212.53V43.79Z" fill="#A5A5A5"/>
<path d="M206.28 43.79H200.03V50.04H206.28V43.79Z" fill="#A5A5A5"/>
<path d="M200.03 43.79H193.78V50.04H200.03V43.79Z" fill="#A5A5A5"/>
<path d="M193.78 43.79H187.53V50.04H193.78V43.79Z" fill="#D6D6D6"/>
<path d="M187.52 43.79H181.27V50.04H187.52V43.79Z" fill="#D6D6D6"/>
<path d="M181.27 43.79H175.02V50.04H181.27V43.79Z" fill="#D6D6D6"/>
<path d="M175.02 43.79H168.77V50.04H175.02V43.79Z" fill="#A5A5A5"/>
<path d="M168.77 43.79H162.52V50.04H168.77V43.79Z" fill="#A5A5A5"/>
<path d="M162.52 43.79H156.27V50.04H162.52V43.79Z" fill="#A5A5A5"/>
<path d="M156.27 43.79H150.02V50.04H156.27V43.79Z" fill="#D6D6D6"/>
<path d="M150.02 43.79H143.77V50.04H150.02V43.79Z" fill="#A5A5A5"/>
<path d="M143.77 43.79H137.52V50.04H143.77V43.79Z" fill="#A5A5A5"/>
<path d="M137.52 43.79H131.27V50.04H137.52V43.79Z" fill="#A5A5A5"/>
<path d="M131.27 43.79H125.02V50.04H131.27V43.79Z" fill="#A5A5A5"/>
<path d="M125.02 43.79H118.77V50.04H125.02V43.79Z" fill="#A5A5A5"/>
<path d="M118.77 43.79H112.52V50.04H118.77V43.79Z" fill="#A5A5A5"/>
<path d="M112.51 43.79H106.26V50.04H112.51V43.79Z" fill="#A5A5A5"/>
<path d="M106.26 43.79H100.01V50.04H106.26V43.79Z" fill="#A5A5A5"/>
<path d="M100.01 43.79H93.76V50.04H100.01V43.79Z" fill="#A5A5A5"/>
<path d="M93.76 43.79H87.51V50.04H93.76V43.79Z" fill="#A5A5A5"/>
<path d="M87.51 43.79H81.26V50.04H87.51V43.79Z" fill="#A5A5A5"/>
<path d="M81.26 43.79H75.01V50.04H81.26V43.79Z" fill="#A5A5A5"/>
<path d="M75.01 43.79H68.76V50.04H75.01V43.79Z" fill="#A5A5A5"/>
<path d="M68.76 43.79H62.51V50.04H68.76V43.79Z" fill="#A5A5A5"/>
<path d="M62.51 43.79H56.26V50.04H62.51V43.79Z" fill="#A5A5A5"/>
<path d="M56.26 43.79H50.01V50.04H56.26V43.79Z" fill="#A5A5A5"/>
<path d="M50.01 43.79H43.76V50.04H50.01V43.79Z" fill="#A5A5A5"/>
<path d="M43.76 43.79H37.51V50.04H43.76V43.79Z" fill="#A5A5A5"/>
<path d="M37.5 43.79H31.25V50.04H37.5V43.79Z" fill="#A5A5A5"/>
<path d="M31.25 43.79H25V50.04H31.25V43.79Z" fill="#808080"/>
<path d="M25 43.79H18.75V50.04H25V43.79Z" fill="#808080"/>
<path d="M18.75 43.79H12.5V50.04H18.75V43.79Z" fill="#808080"/>
<path d="M12.5 43.79H6.25V50.04H12.5V43.79Z" fill="#808080"/>
<path d="M6.25 43.79H0V50.04H6.25V43.79Z" fill="#4C4C4C"/>
<path d="M281.29 50.04H275.04V56.29H281.29V50.04Z" fill="#4C4C4C"/>
<path d="M275.04 50.04H268.79V56.29H275.04V50.04Z" fill="#3D3D3D"/>
<path d="M268.79 50.04H262.54V56.29H268.79V50.04Z" fill="#3D3D3D"/>
<path d="M262.53 50.04H256.28V56.29H262.53V50.04Z" fill="#3D3D3D"/>
<path d="M256.28 50.04H250.03V56.29H256.28V50.04Z" fill="#3D3D3D"/>
<path d="M250.03 50.04H243.78V56.29H250.03V50.04Z" fill="#A5A5A5"/>
<path d="M243.78 50.04H237.53V56.29H243.78V50.04Z" fill="#A5A5A5"/>
<path d="M237.53 50.04H231.28V56.29H237.53V50.04Z" fill="#A5A5A5"/>
<path d="M231.28 50.04H225.03V56.29H231.28V50.04Z" fill="#A5A5A5"/>
<path d="M225.03 50.04H218.78V56.29H225.03V50.04Z" fill="#A5A5A5"/>
<path d="M218.78 50.04H212.53V56.29H218.78V50.04Z" fill="#A5A5A5"/>
<path d="M212.53 50.04H206.28V56.29H212.53V50.04Z" fill="#A5A5A5"/>
<path d="M206.28 50.04H200.03V56.29H206.28V50.04Z" fill="#A5A5A5"/>
<path d="M200.03 50.04H193.78V56.29H200.03V50.04Z" fill="#D6D6D6"/>
<path d="M193.78 50.04H187.53V56.29H193.78V50.04Z" fill="#D6D6D6"/>
<path d="M187.52 50.04H181.27V56.29H187.52V50.04Z" fill="#D6D6D6"/>
<path d="M181.27 50.04H175.02V56.29H181.27V50.04Z" fill="#A5A5A5"/>
<path d="M175.02 50.04H168.77V56.29H175.02V50.04Z" fill="#A5A5A5"/>
<path d="M168.77 50.04H162.52V56.29H168.77V50.04Z" fill="#A5A5A5"/>
<path d="M162.52 50.04H156.27V56.29H162.52V50.04Z" fill="#D6D6D6"/>
<path d="M156.27 50.04H150.02V56.29H156.27V50.04Z" fill="#A5A5A5"/>
<path d="M150.02 50.04H143.77V56.29H150.02V50.04Z" fill="#A5A5A5"/>
<path d="M143.77 50.04H137.52V56.29H143.77V50.04Z" fill="#A5A5A5"/>
<path d="M137.52 50.04H131.27V56.29H137.52V50.04Z" fill="#A5A5A5"/>
<path d="M131.27 50.04H125.02V56.29H131.27V50.04Z" fill="#A5A5A5"/>
<path d="M125.02 50.04H118.77V56.29H125.02V50.04Z" fill="#A5A5A5"/>
<path d="M118.77 50.04H112.52V56.29H118.77V50.04Z" fill="#A5A5A5"/>
<path d="M112.51 50.04H106.26V56.29H112.51V50.04Z" fill="#A5A5A5"/>
<path d="M106.26 50.04H100.01V56.29H106.26V50.04Z" fill="#A5A5A5"/>
<path d="M100.01 50.04H93.76V56.29H100.01V50.04Z" fill="#A5A5A5"/>
<path d="M93.76 50.04H87.51V56.29H93.76V50.04Z" fill="#A5A5A5"/>
<path d="M87.51 50.04H81.26V56.29H87.51V50.04Z" fill="#A5A5A5"/>
<path d="M81.26 50.04H75.01V56.29H81.26V50.04Z" fill="#A5A5A5"/>
<path d="M75.01 50.04H68.76V56.29H75.01V50.04Z" fill="#A5A5A5"/>
<path d="M68.76 50.04H62.51V56.29H68.76V50.04Z" fill="#A5A5A5"/>
<path d="M62.51 50.04H56.26V56.29H62.51V50.04Z" fill="#A5A5A5"/>
<path d="M56.26 50.04H50.01V56.29H56.26V50.04Z" fill="#A5A5A5"/>
<path d="M50.01 50.04H43.76V56.29H50.01V50.04Z" fill="#A5A5A5"/>
<path d="M43.76 50.04H37.51V56.29H43.76V50.04Z" fill="#A5A5A5"/>
<path d="M37.5 50.04H31.25V56.29H37.5V50.04Z" fill="#A5A5A5"/>
<path d="M31.25 50.04H25V56.29H31.25V50.04Z" fill="#808080"/>
<path d="M25 50.04H18.75V56.29H25V50.04Z" fill="#808080"/>
<path d="M18.75 50.04H12.5V56.29H18.75V50.04Z" fill="#808080"/>
<path d="M12.5 50.04H6.25V56.29H12.5V50.04Z" fill="#808080"/>
<path d="M6.25 50.04H0V56.29H6.25V50.04Z" fill="#4C4C4C"/>
<path d="M281.29 56.29H275.04V62.54H281.29V56.29Z" fill="#4C4C4C"/>
<path d="M275.04 56.29H268.79V62.54H275.04V56.29Z" fill="#3D3D3D"/>
<path d="M268.79 56.29H262.54V62.54H268.79V56.29Z" fill="#3D3D3D"/>
<path d="M262.53 56.29H256.28V62.54H262.53V56.29Z" fill="#3D3D3D"/>
<path d="M256.28 56.29H250.03V62.54H256.28V56.29Z" fill="#3D3D3D"/>
<path d="M250.03 56.29H243.78V62.54H250.03V56.29Z" fill="#D6D6D6"/>
<path d="M243.78 56.29H237.53V62.54H243.78V56.29Z" fill="#A5A5A5"/>
<path d="M237.53 56.29H231.28V62.54H237.53V56.29Z" fill="#A5A5A5"/>
<path d="M231.28 56.29H225.03V62.54H231.28V56.29Z" fill="#A5A5A5"/>
<path d="M225.03 56.29H218.78V62.54H225.03V56.29Z" fill="#A5A5A5"/>
<path d="M218.78 56.29H212.53V62.54H218.78V56.29Z" fill="#A5A5A5"/>
<path d="M212.53 56.29H206.28V62.54H212.53V56.29Z" fill="#A5A5A5"/>
<path d="M206.28 56.29H200.03V62.54H206.28V56.29Z" fill="#D6D6D6"/>
<path d="M200.03 56.29H193.78V62.54H200.03V56.29Z" fill="#D6D6D6"/>
<path d="M193.78 56.29H187.53V62.54H193.78V56.29Z" fill="#D6D6D6"/>
<path d="M187.52 56.29H181.27V62.54H187.52V56.29Z" fill="#A5A5A5"/>
<path d="M181.27 56.29H175.02V62.54H181.27V56.29Z" fill="#A5A5A5"/>
<path d="M175.02 56.29H168.77V62.54H175.02V56.29Z" fill="#A5A5A5"/>
<path d="M168.77 56.29H162.52V62.54H168.77V56.29Z" fill="#D6D6D6"/>
<path d="M162.52 56.29H156.27V62.54H162.52V56.29Z" fill="#A5A5A5"/>
<path d="M156.27 56.29H150.02V62.54H156.27V56.29Z" fill="#A5A5A5"/>
<path d="M150.02 56.29H143.77V62.54H150.02V56.29Z" fill="#A5A5A5"/>
<path d="M143.77 56.29H137.52V62.54H143.77V56.29Z" fill="#A5A5A5"/>
<path d="M137.52 56.29H131.27V62.54H137.52V56.29Z" fill="#A5A5A5"/>
<path d="M131.27 56.29H125.02V62.54H131.27V56.29Z" fill="#A5A5A5"/>
<path d="M125.02 56.29H118.77V62.54H125.02V56.29Z" fill="#A5A5A5"/>
<path d="M118.77 56.29H112.52V62.54H118.77V56.29Z" fill="#A5A5A5"/>
<path d="M112.51 56.29H106.26V62.54H112.51V56.29Z" fill="#A5A5A5"/>
<path d="M106.26 56.29H100.01V62.54H106.26V56.29Z" fill="#A5A5A5"/>
<path d="M100.01 56.29H93.76V62.54H100.01V56.29Z" fill="#A5A5A5"/>
<path d="M93.76 56.29H87.51V62.54H93.76V56.29Z" fill="#A5A5A5"/>
<path d="M87.51 56.29H81.26V62.54H87.51V56.29Z" fill="#A5A5A5"/>
<path d="M81.26 56.29H75.01V62.54H81.26V56.29Z" fill="#A5A5A5"/>
<path d="M75.01 56.29H68.76V62.54H75.01V56.29Z" fill="#A5A5A5"/>
<path d="M68.76 56.29H62.51V62.54H68.76V56.29Z" fill="#A5A5A5"/>
<path d="M62.51 56.29H56.26V62.54H62.51V56.29Z" fill="#A5A5A5"/>
<path d="M56.26 56.29H50.01V62.54H56.26V56.29Z" fill="#A5A5A5"/>
<path d="M50.01 56.29H43.76V62.54H50.01V56.29Z" fill="#A5A5A5"/>
<path d="M43.76 56.29H37.51V62.54H43.76V56.29Z" fill="#A5A5A5"/>
<path d="M37.5 56.29H31.25V62.54H37.5V56.29Z" fill="#D6D6D6"/>
<path d="M31.25 56.29H25V62.54H31.25V56.29Z" fill="#808080"/>
<path d="M25 56.29H18.75V62.54H25V56.29Z" fill="#808080"/>
<path d="M18.75 56.29H12.5V62.54H18.75V56.29Z" fill="#808080"/>
<path d="M12.5 56.29H6.25V62.54H12.5V56.29Z" fill="#808080"/>
<path d="M6.25 56.29H0V62.54H6.25V56.29Z" fill="#4C4C4C"/>
<path d="M281.29 62.54H275.04V68.79H281.29V62.54Z" fill="#4C4C4C"/>
<path d="M275.04 62.54H268.79V68.79H275.04V62.54Z" fill="#3D3D3D"/>
<path d="M268.79 62.54H262.54V68.79H268.79V62.54Z" fill="#3D3D3D"/>
<path d="M262.53 62.54H256.28V68.79H262.53V62.54Z" fill="#3D3D3D"/>
<path d="M256.28 62.54H250.03V68.79H256.28V62.54Z" fill="#3D3D3D"/>
<path d="M250.03 62.54H243.78V68.79H250.03V62.54Z" fill="#808080"/>
<path d="M243.78 62.54H237.53V68.79H243.78V62.54Z" fill="#D6D6D6"/>
<path d="M237.53 62.54H231.28V68.79H237.53V62.54Z" fill="#D6D6D6"/>
<path d="M231.28 62.54H225.03V68.79H231.28V62.54Z" fill="#D6D6D6"/>
<path d="M225.03 62.54H218.78V68.79H225.03V62.54Z" fill="#D6D6D6"/>
<path d="M218.78 62.54H212.53V68.79H218.78V62.54Z" fill="#D6D6D6"/>
<path d="M212.53 62.54H206.28V68.79H212.53V62.54Z" fill="#D6D6D6"/>
<path d="M206.28 62.54H200.03V68.79H206.28V62.54Z" fill="#D6D6D6"/>
<path d="M200.03 62.54H193.78V68.79H200.03V62.54Z" fill="#D6D6D6"/>
<path d="M193.78 62.54H187.53V68.79H193.78V62.54Z" fill="#D6D6D6"/>
<path d="M187.52 62.54H181.27V68.79H187.52V62.54Z" fill="#D6D6D6"/>
<path d="M181.27 62.54H175.02V68.79H181.27V62.54Z" fill="#D6D6D6"/>
<path d="M175.02 62.54H168.77V68.79H175.02V62.54Z" fill="#D6D6D6"/>
<path d="M168.77 62.54H162.52V68.79H168.77V62.54Z" fill="#D6D6D6"/>
<path d="M162.52 62.54H156.27V68.79H162.52V62.54Z" fill="#D6D6D6"/>
<path d="M156.27 62.54H150.02V68.79H156.27V62.54Z" fill="#D6D6D6"/>
<path d="M150.02 62.54H143.77V68.79H150.02V62.54Z" fill="#D6D6D6"/>
<path d="M143.77 62.54H137.52V68.79H143.77V62.54Z" fill="#D6D6D6"/>
<path d="M137.52 62.54H131.27V68.79H137.52V62.54Z" fill="#D6D6D6"/>
<path d="M131.27 62.54H125.02V68.79H131.27V62.54Z" fill="#D6D6D6"/>
<path d="M125.02 62.54H118.77V68.79H125.02V62.54Z" fill="#D6D6D6"/>
<path d="M118.77 62.54H112.52V68.79H118.77V62.54Z" fill="#D6D6D6"/>
<path d="M112.51 62.54H106.26V68.79H112.51V62.54Z" fill="#D6D6D6"/>
<path d="M106.26 62.54H100.01V68.79H106.26V62.54Z" fill="#D6D6D6"/>
<path d="M100.01 62.54H93.76V68.79H100.01V62.54Z" fill="#D6D6D6"/>
<path d="M93.76 62.54H87.51V68.79H93.76V62.54Z" fill="#D6D6D6"/>
<path d="M87.51 62.54H81.26V68.79H87.51V62.54Z" fill="#D6D6D6"/>
<path d="M81.26 62.54H75.01V68.79H81.26V62.54Z" fill="#D6D6D6"/>
<path d="M75.01 62.54H68.76V68.79H75.01V62.54Z" fill="#D6D6D6"/>
<path d="M68.76 62.54H62.51V68.79H68.76V62.54Z" fill="#D6D6D6"/>
<path d="M62.51 62.54H56.26V68.79H62.51V62.54Z" fill="#D6D6D6"/>
<path d="M56.26 62.54H50.01V68.79H56.26V62.54Z" fill="#D6D6D6"/>
<path d="M50.01 62.54H43.76V68.79H50.01V62.54Z" fill="#D6D6D6"/>
<path d="M43.76 62.54H37.51V68.79H43.76V62.54Z" fill="#D6D6D6"/>
<path d="M37.5 62.54H31.25V68.79H37.5V62.54Z" fill="#A5A5A5"/>
<path d="M31.25 62.54H25V68.79H31.25V62.54Z" fill="#808080"/>
<path d="M25 62.54H18.75V68.79H25V62.54Z" fill="#808080"/>
<path d="M18.75 62.54H12.5V68.79H18.75V62.54Z" fill="#808080"/>
<path d="M12.5 62.54H6.25V68.79H12.5V62.54Z" fill="#808080"/>
<path d="M6.25 62.54H0V68.79H6.25V62.54Z" fill="#4C4C4C"/>
<path d="M281.29 68.79H275.04V75.04H281.29V68.79Z" fill="#4C4C4C"/>
<path d="M275.04 68.79H268.79V75.04H275.04V68.79Z" fill="#3D3D3D"/>
<path d="M268.79 68.79H262.54V75.04H268.79V68.79Z" fill="#3D3D3D"/>
<path d="M262.53 68.79H256.28V75.04H262.53V68.79Z" fill="#3D3D3D"/>
<path d="M256.28 68.79H250.03V75.04H256.28V68.79Z" fill="#808080"/>
<path d="M250.03 68.79H243.78V75.04H250.03V68.79Z" fill="#606060"/>
<path d="M243.78 68.79H237.53V75.04H243.78V68.79Z" fill="#606060"/>
<path d="M237.53 68.79H231.28V75.04H237.53V68.79Z" fill="#606060"/>
<path d="M231.28 68.79H225.03V75.04H231.28V68.79Z" fill="#606060"/>
<path d="M225.03 68.79H218.78V75.04H225.03V68.79Z" fill="#606060"/>
<path d="M218.78 68.79H212.53V75.04H218.78V68.79Z" fill="#606060"/>
<path d="M212.53 68.79H206.28V75.04H212.53V68.79Z" fill="#606060"/>
<path d="M206.28 68.79H200.03V75.04H206.28V68.79Z" fill="#606060"/>
<path d="M200.03 68.79H193.78V75.04H200.03V68.79Z" fill="#606060"/>
<path d="M193.78 68.79H187.53V75.04H193.78V68.79Z" fill="#606060"/>
<path d="M187.52 68.79H181.27V75.04H187.52V68.79Z" fill="#606060"/>
<path d="M181.27 68.79H175.02V75.04H181.27V68.79Z" fill="#606060"/>
<path d="M175.02 68.79H168.77V75.04H175.02V68.79Z" fill="#606060"/>
<path d="M168.77 68.79H162.52V75.04H168.77V68.79Z" fill="#606060"/>
<path d="M162.52 68.79H156.27V75.04H162.52V68.79Z" fill="#606060"/>
<path d="M156.27 68.79H150.02V75.04H156.27V68.79Z" fill="#606060"/>
<path d="M150.02 68.79H143.77V75.04H150.02V68.79Z" fill="#606060"/>
<path d="M143.77 68.79H137.52V75.04H143.77V68.79Z" fill="#606060"/>
<path d="M137.52 68.79H131.27V75.04H137.52V68.79Z" fill="#606060"/>
<path d="M131.27 68.79H125.02V75.04H131.27V68.79Z" fill="#606060"/>
<path d="M125.02 68.79H118.77V75.04H125.02V68.79Z" fill="#606060"/>
<path d="M118.77 68.79H112.52V75.04H118.77V68.79Z" fill="#606060"/>
<path d="M112.51 68.79H106.26V75.04H112.51V68.79Z" fill="#606060"/>
<path d="M106.26 68.79H100.01V75.04H106.26V68.79Z" fill="#606060"/>
<path d="M100.01 68.79H93.76V75.04H100.01V68.79Z" fill="#606060"/>
<path d="M93.76 68.79H87.51V75.04H93.76V68.79Z" fill="#606060"/>
<path d="M87.51 68.79H81.26V75.04H87.51V68.79Z" fill="#606060"/>
<path d="M81.26 68.79H75.01V75.04H81.26V68.79Z" fill="#606060"/>
<path d="M75.01 68.79H68.76V75.04H75.01V68.79Z" fill="#606060"/>
<path d="M68.76 68.79H62.51V75.04H68.76V68.79Z" fill="#606060"/>
<path d="M62.51 68.79H56.26V75.04H62.51V68.79Z" fill="#606060"/>
<path d="M56.26 68.79H50.01V75.04H56.26V68.79Z" fill="#606060"/>
<path d="M50.01 68.79H43.76V75.04H50.01V68.79Z" fill="#606060"/>
<path d="M43.76 68.79H37.51V75.04H43.76V68.79Z" fill="#606060"/>
<path d="M37.5 68.79H31.25V75.04H37.5V68.79Z" fill="#606060"/>
<path d="M31.25 68.79H25V75.04H31.25V68.79Z" fill="#A5A5A5"/>
<path d="M25 68.79H18.75V75.04H25V68.79Z" fill="#808080"/>
<path d="M18.75 68.79H12.5V75.04H18.75V68.79Z" fill="#808080"/>
<path d="M12.5 68.79H6.25V75.04H12.5V68.79Z" fill="#808080"/>
<path d="M6.25 68.79H0V75.04H6.25V68.79Z" fill="#4C4C4C"/>
<path d="M281.29 75.04H275.04V81.29H281.29V75.04Z" fill="#4C4C4C"/>
<path d="M275.04 75.04H268.79V81.29H275.04V75.04Z" fill="#3D3D3D"/>
<path d="M268.79 75.04H262.54V81.29H268.79V75.04Z" fill="#3D3D3D"/>
<path d="M262.53 75.04H256.28V81.29H262.53V75.04Z" fill="#808080"/>
<path d="M256.28 75.04H250.03V81.29H256.28V75.04Z" fill="#606060"/>
<path d="M250.03 75.04H243.78V81.29H250.03V75.04Z" fill="#606060"/>
<path d="M243.78 75.04H237.53V81.29H243.78V75.04Z" fill="#606060"/>
<path d="M237.53 75.04H231.28V81.29H237.53V75.04Z" fill="#606060"/>
<path d="M231.28 75.04H225.03V81.29H231.28V75.04Z" fill="#606060"/>
<path d="M225.03 75.04H218.78V81.29H225.03V75.04Z" fill="#606060"/>
<path d="M218.78 75.04H212.53V81.29H218.78V75.04Z" fill="#606060"/>
<path d="M212.53 75.04H206.28V81.29H212.53V75.04Z" fill="#606060"/>
<path d="M206.28 75.04H200.03V81.29H206.28V75.04Z" fill="#606060"/>
<path d="M200.03 75.04H193.78V81.29H200.03V75.04Z" fill="#606060"/>
<path d="M193.78 75.04H187.53V81.29H193.78V75.04Z" fill="#606060"/>
<path d="M187.52 75.04H181.27V81.29H187.52V75.04Z" fill="#606060"/>
<path d="M181.27 75.04H175.02V81.29H181.27V75.04Z" fill="#606060"/>
<path d="M175.02 75.04H168.77V81.29H175.02V75.04Z" fill="#606060"/>
<path d="M168.77 75.04H162.52V81.29H168.77V75.04Z" fill="#606060"/>
<path d="M162.52 75.04H156.27V81.29H162.52V75.04Z" fill="#606060"/>
<path d="M156.27 75.04H150.02V81.29H156.27V75.04Z" fill="#606060"/>
<path d="M150.02 75.04H143.77V81.29H150.02V75.04Z" fill="#606060"/>
<path d="M143.77 75.04H137.52V81.29H143.77V75.04Z" fill="#606060"/>
<path d="M137.52 75.04H131.27V81.29H137.52V75.04Z" fill="#606060"/>
<path d="M131.27 75.04H125.02V81.29H131.27V75.04Z" fill="#606060"/>
<path d="M125.02 75.04H118.77V81.29H125.02V75.04Z" fill="#606060"/>
<path d="M118.77 75.04H112.52V81.29H118.77V75.04Z" fill="#606060"/>
<path d="M112.51 75.04H106.26V81.29H112.51V75.04Z" fill="#606060"/>
<path d="M106.26 75.04H100.01V81.29H106.26V75.04Z" fill="#606060"/>
<path d="M100.01 75.04H93.76V81.29H100.01V75.04Z" fill="#606060"/>
<path d="M93.76 75.04H87.51V81.29H93.76V75.04Z" fill="#606060"/>
<path d="M87.51 75.04H81.26V81.29H87.51V75.04Z" fill="#606060"/>
<path d="M81.26 75.04H75.01V81.29H81.26V75.04Z" fill="#606060"/>
<path d="M75.01 75.04H68.76V81.29H75.01V75.04Z" fill="#606060"/>
<path d="M68.76 75.04H62.51V81.29H68.76V75.04Z" fill="#606060"/>
<path d="M62.51 75.04H56.26V81.29H62.51V75.04Z" fill="#606060"/>
<path d="M56.26 75.04H50.01V81.29H56.26V75.04Z" fill="#606060"/>
<path d="M50.01 75.04H43.76V81.29H50.01V75.04Z" fill="#606060"/>
<path d="M43.76 75.04H37.51V81.29H43.76V75.04Z" fill="#606060"/>
<path d="M37.5 75.04H31.25V81.29H37.5V75.04Z" fill="#606060"/>
<path d="M31.25 75.04H25V81.29H31.25V75.04Z" fill="#606060"/>
<path d="M25 75.04H18.75V81.29H25V75.04Z" fill="#A5A5A5"/>
<path d="M18.75 75.04H12.5V81.29H18.75V75.04Z" fill="#808080"/>
<path d="M12.5 75.04H6.25V81.29H12.5V75.04Z" fill="#808080"/>
<path d="M6.25 75.04H0V81.29H6.25V75.04Z" fill="#4C4C4C"/>
<path d="M281.29 81.29H275.04V87.54H281.29V81.29Z" fill="#4C4C4C"/>
<path d="M275.04 81.29H268.79V87.54H275.04V81.29Z" fill="#3D3D3D"/>
<path d="M268.79 81.29H262.54V87.54H268.79V81.29Z" fill="#808080"/>
<path d="M262.53 81.29H256.28V87.54H262.53V81.29Z" fill="#606060"/>
<path d="M256.28 81.29H250.03V87.54H256.28V81.29Z" fill="#606060"/>
<path d="M250.03 81.29H243.78V87.54H250.03V81.29Z" fill="#606060"/>
<path d="M243.78 81.29H237.53V87.54H243.78V81.29Z" fill="#606060"/>
<path d="M237.53 81.29H231.28V87.54H237.53V81.29Z" fill="#606060"/>
<path d="M231.28 81.29H225.03V87.54H231.28V81.29Z" fill="#606060"/>
<path d="M225.03 81.29H218.78V87.54H225.03V81.29Z" fill="#606060"/>
<path d="M218.78 81.29H212.53V87.54H218.78V81.29Z" fill="#606060"/>
<path d="M212.53 81.29H206.28V87.54H212.53V81.29Z" fill="#606060"/>
<path d="M206.28 81.29H200.03V87.54H206.28V81.29Z" fill="#606060"/>
<path d="M200.03 81.29H193.78V87.54H200.03V81.29Z" fill="#606060"/>
<path d="M193.78 81.29H187.53V87.54H193.78V81.29Z" fill="#606060"/>
<path d="M187.52 81.29H181.27V87.54H187.52V81.29Z" fill="#606060"/>
<path d="M181.27 81.29H175.02V87.54H181.27V81.29Z" fill="#606060"/>
<path d="M175.02 81.29H168.77V87.54H175.02V81.29Z" fill="#606060"/>
<path d="M168.77 81.29H162.52V87.54H168.77V81.29Z" fill="#606060"/>
<path d="M162.52 81.29H156.27V87.54H162.52V81.29Z" fill="#606060"/>
<path d="M156.27 81.29H150.02V87.54H156.27V81.29Z" fill="#606060"/>
<path d="M150.02 81.29H143.77V87.54H150.02V81.29Z" fill="#606060"/>
<path d="M143.77 81.29H137.52V87.54H143.77V81.29Z" fill="#606060"/>
<path d="M137.52 81.29H131.27V87.54H137.52V81.29Z" fill="#606060"/>
<path d="M131.27 81.29H125.02V87.54H131.27V81.29Z" fill="#606060"/>
<path d="M125.02 81.29H118.77V87.54H125.02V81.29Z" fill="#606060"/>
<path d="M118.77 81.29H112.52V87.54H118.77V81.29Z" fill="#606060"/>
<path d="M112.51 81.29H106.26V87.54H112.51V81.29Z" fill="#606060"/>
<path d="M106.26 81.29H100.01V87.54H106.26V81.29Z" fill="#606060"/>
<path d="M100.01 81.29H93.76V87.54H100.01V81.29Z" fill="#606060"/>
<path d="M93.76 81.29H87.51V87.54H93.76V81.29Z" fill="#606060"/>
<path d="M87.51 81.29H81.26V87.54H87.51V81.29Z" fill="#606060"/>
<path d="M81.26 81.29H75.01V87.54H81.26V81.29Z" fill="#606060"/>
<path d="M75.01 81.29H68.76V87.54H75.01V81.29Z" fill="#606060"/>
<path d="M68.76 81.29H62.51V87.54H68.76V81.29Z" fill="#606060"/>
<path d="M62.51 81.29H56.26V87.54H62.51V81.29Z" fill="#606060"/>
<path d="M56.26 81.29H50.01V87.54H56.26V81.29Z" fill="#606060"/>
<path d="M50.01 81.29H43.76V87.54H50.01V81.29Z" fill="#606060"/>
<path d="M43.76 81.29H37.51V87.54H43.76V81.29Z" fill="#606060"/>
<path d="M37.5 81.29H31.25V87.54H37.5V81.29Z" fill="#606060"/>
<path d="M31.25 81.29H25V87.54H31.25V81.29Z" fill="#606060"/>
<path d="M25 81.29H18.75V87.54H25V81.29Z" fill="#606060"/>
<path d="M18.75 81.29H12.5V87.54H18.75V81.29Z" fill="#A5A5A5"/>
<path d="M12.5 81.29H6.25V87.54H12.5V81.29Z" fill="#808080"/>
<path d="M6.25 81.29H0V87.54H6.25V81.29Z" fill="#4C4C4C"/>
<path d="M275.04 87.54H268.79V93.79H275.04V87.54Z" fill="#4C4C4C"/>
<path d="M268.79 87.54H262.54V93.79H268.79V87.54Z" fill="#606060"/>
<path d="M262.53 87.54H256.28V93.79H262.53V87.54Z" fill="#606060"/>
<path d="M256.28 87.54H250.03V93.79H256.28V87.54Z" fill="#606060"/>
<path d="M250.03 87.54H243.78V93.79H250.03V87.54Z" fill="#606060"/>
<path d="M243.78 87.54H237.53V93.79H243.78V87.54Z" fill="#606060"/>
<path d="M237.53 87.54H231.28V93.79H237.53V87.54Z" fill="#606060"/>
<path d="M231.28 87.54H225.03V93.79H231.28V87.54Z" fill="#606060"/>
<path d="M225.03 87.54H218.78V93.79H225.03V87.54Z" fill="#606060"/>
<path d="M218.78 87.54H212.53V93.79H218.78V87.54Z" fill="#606060"/>
<path d="M212.53 87.54H206.28V93.79H212.53V87.54Z" fill="#606060"/>
<path d="M206.28 87.54H200.03V93.79H206.28V87.54Z" fill="#606060"/>
<path d="M200.03 87.54H193.78V93.79H200.03V87.54Z" fill="#606060"/>
<path d="M193.78 87.54H187.53V93.79H193.78V87.54Z" fill="#606060"/>
<path d="M187.52 87.54H181.27V93.79H187.52V87.54Z" fill="#606060"/>
<path d="M181.27 87.54H175.02V93.79H181.27V87.54Z" fill="#606060"/>
<path d="M175.02 87.54H168.77V93.79H175.02V87.54Z" fill="#606060"/>
<path d="M168.77 87.54H162.52V93.79H168.77V87.54Z" fill="#606060"/>
<path d="M162.52 87.54H156.27V93.79H162.52V87.54Z" fill="#606060"/>
<path d="M156.27 87.54H150.02V93.79H156.27V87.54Z" fill="#606060"/>
<path d="M150.02 87.54H143.77V93.79H150.02V87.54Z" fill="#606060"/>
<path d="M143.77 87.54H137.52V93.79H143.77V87.54Z" fill="#606060"/>
<path d="M137.52 87.54H131.27V93.79H137.52V87.54Z" fill="#606060"/>
<path d="M131.27 87.54H125.02V93.79H131.27V87.54Z" fill="#606060"/>
<path d="M125.02 87.54H118.77V93.79H125.02V87.54Z" fill="#606060"/>
<path d="M118.77 87.54H112.52V93.79H118.77V87.54Z" fill="#606060"/>
<path d="M112.51 87.54H106.26V93.79H112.51V87.54Z" fill="#606060"/>
<path d="M106.26 87.54H100.01V93.79H106.26V87.54Z" fill="#606060"/>
<path d="M100.01 87.54H93.76V93.79H100.01V87.54Z" fill="#606060"/>
<path d="M93.76 87.54H87.51V93.79H93.76V87.54Z" fill="#606060"/>
<path d="M87.51 87.54H81.26V93.79H87.51V87.54Z" fill="#606060"/>
<path d="M81.26 87.54H75.01V93.79H81.26V87.54Z" fill="#606060"/>
<path d="M75.01 87.54H68.76V93.79H75.01V87.54Z" fill="#606060"/>
<path d="M68.76 87.54H62.51V93.79H68.76V87.54Z" fill="#606060"/>
<path d="M62.51 87.54H56.26V93.79H62.51V87.54Z" fill="#606060"/>
<path d="M56.26 87.54H50.01V93.79H56.26V87.54Z" fill="#606060"/>
<path d="M50.01 87.54H43.76V93.79H50.01V87.54Z" fill="#606060"/>
<path d="M43.76 87.54H37.51V93.79H43.76V87.54Z" fill="#606060"/>
<path d="M37.5 87.54H31.25V93.79H37.5V87.54Z" fill="#606060"/>
<path d="M31.25 87.54H25V93.79H31.25V87.54Z" fill="#606060"/>
<path d="M25 87.54H18.75V93.79H25V87.54Z" fill="#606060"/>
<path d="M18.75 87.54H12.5V93.79H18.75V87.54Z" fill="#606060"/>
<path d="M12.5 87.54H6.25V93.79H12.5V87.54Z" fill="#4C4C4C"/>
<path d="M268.79 93.79H262.54V100.04H268.79V93.79Z" fill="#4C4C4C"/>
<path d="M262.53 93.79H256.28V100.04H262.53V93.79Z" fill="#4C4C4C"/>
<path d="M256.28 93.79H250.03V100.04H256.28V93.79Z" fill="#4C4C4C"/>
<path d="M250.03 93.79H243.78V100.04H250.03V93.79Z" fill="#4C4C4C"/>
<path d="M243.78 93.79H237.53V100.04H243.78V93.79Z" fill="#4C4C4C"/>
<path d="M237.53 93.79H231.28V100.04H237.53V93.79Z" fill="#4C4C4C"/>
<path d="M231.28 93.79H225.03V100.04H231.28V93.79Z" fill="#4C4C4C"/>
<path d="M225.03 93.79H218.78V100.04H225.03V93.79Z" fill="#4C4C4C"/>
<path d="M218.78 93.79H212.53V100.04H218.78V93.79Z" fill="#4C4C4C"/>
<path d="M212.53 93.79H206.28V100.04H212.53V93.79Z" fill="#4C4C4C"/>
<path d="M206.28 93.79H200.03V100.04H206.28V93.79Z" fill="#4C4C4C"/>
<path d="M200.03 93.79H193.78V100.04H200.03V93.79Z" fill="#4C4C4C"/>
<path d="M193.78 93.79H187.53V100.04H193.78V93.79Z" fill="#4C4C4C"/>
<path d="M187.52 93.79H181.27V100.04H187.52V93.79Z" fill="#4C4C4C"/>
<path d="M181.27 93.79H175.02V100.04H181.27V93.79Z" fill="#4C4C4C"/>
<path d="M175.02 93.79H168.77V100.04H175.02V93.79Z" fill="#4C4C4C"/>
<path d="M168.77 93.79H162.52V100.04H168.77V93.79Z" fill="#4C4C4C"/>
<path d="M162.52 93.79H156.27V100.04H162.52V93.79Z" fill="#4C4C4C"/>
<path d="M156.27 93.79H150.02V100.04H156.27V93.79Z" fill="#4C4C4C"/>
<path d="M150.02 93.79H143.77V100.04H150.02V93.79Z" fill="#4C4C4C"/>
<path d="M143.77 93.79H137.52V100.04H143.77V93.79Z" fill="#4C4C4C"/>
<path d="M137.52 93.79H131.27V100.04H137.52V93.79Z" fill="#4C4C4C"/>
<path d="M131.27 93.79H125.02V100.04H131.27V93.79Z" fill="#4C4C4C"/>
<path d="M125.02 93.79H118.77V100.04H125.02V93.79Z" fill="#4C4C4C"/>
<path d="M118.77 93.79H112.52V100.04H118.77V93.79Z" fill="#4C4C4C"/>
<path d="M112.51 93.79H106.26V100.04H112.51V93.79Z" fill="#4C4C4C"/>
<path d="M106.26 93.79H100.01V100.04H106.26V93.79Z" fill="#4C4C4C"/>
<path d="M100.01 93.79H93.76V100.04H100.01V93.79Z" fill="#4C4C4C"/>
<path d="M93.76 93.79H87.51V100.04H93.76V93.79Z" fill="#4C4C4C"/>
<path d="M87.51 93.79H81.26V100.04H87.51V93.79Z" fill="#4C4C4C"/>
<path d="M81.26 93.79H75.01V100.04H81.26V93.79Z" fill="#4C4C4C"/>
<path d="M75.01 93.79H68.76V100.04H75.01V93.79Z" fill="#4C4C4C"/>
<path d="M68.76 93.79H62.51V100.04H68.76V93.79Z" fill="#4C4C4C"/>
<path d="M62.51 93.79H56.26V100.04H62.51V93.79Z" fill="#4C4C4C"/>
<path d="M56.26 93.79H50.01V100.04H56.26V93.79Z" fill="#4C4C4C"/>
<path d="M50.01 93.79H43.76V100.04H50.01V93.79Z" fill="#4C4C4C"/>
<path d="M43.76 93.79H37.51V100.04H43.76V93.79Z" fill="#4C4C4C"/>
<path d="M37.5 93.79H31.25V100.04H37.5V93.79Z" fill="#4C4C4C"/>
<path d="M31.25 93.79H25V100.04H31.25V93.79Z" fill="#4C4C4C"/>
<path d="M25 93.79H18.75V100.04H25V93.79Z" fill="#4C4C4C"/>
<path d="M18.75 93.79H12.5V100.04H18.75V93.79Z" fill="#4C4C4C"/>
<path d="M116.42 47.01V22.01H135.17V25.13H138.29V31.38H135.17V34.5H138.29V47H132.04V34.5H122.66V47H116.41L116.42 47.01ZM132.05 31.39V25.14H122.67V31.39H132.05Z" fill="#E5E5E5"/>
<path d="M142.99 47.01V34.51H146.11V31.39H158.62V25.14H149.24V28.26H142.99V25.14H146.11V22.02H161.74V25.14H164.86V31.39H161.74V34.51H149.24V43.89H158.62V40.77H164.87V47.02H142.99V47.01Z" fill="#E5E5E5"/>
<path d="M116.42 53.26V28.26H135.17V31.38H138.29V37.63H135.17V40.75H138.29V53.25H132.04V40.75H122.66V53.25H116.41L116.42 53.26ZM132.05 37.64V31.39H122.67V37.64H132.05Z" fill="#808080"/>
<path d="M142.99 53.26V40.76H146.11V37.64H158.62V31.39H149.24V34.51H142.99V31.39H146.11V28.27H161.74V31.39H164.86V37.64H161.74V40.76H149.24V50.14H158.62V47.02H164.87V53.27H142.99V53.26Z" fill="#808080"/>
<path d="M116.42 50.04V25.04H135.17V28.16H138.29V34.41H135.17V37.53H138.29V50.03H132.04V37.53H122.66V50.03H116.41L116.42 50.04ZM132.05 34.41V28.16H122.67V34.41H132.05Z" fill="#282828"/>
<path d="M142.99 50.04V37.54H146.11V34.42H158.62V28.17H149.24V31.29H142.99V28.17H146.11V25.05H161.74V28.17H164.86V34.42H161.74V37.54H149.24V46.92H158.62V43.8H164.87V50.05H142.99V50.04Z" fill="#282828"/>
<g style="mix-blend-mode:color">
<path d="M12.5 0.0200195V6.27002H6.25V12.52H0V87.53H6.25V93.78H12.5V100.03H37.5V100.02H37.51V100.03H112.51V100.02H112.52V100.03H187.52V100.02H187.53V100.03H262.53V100.02H262.54V100.03H268.79V93.78H275.04V87.53H281.29V37.53H281V37.52H281.29V12.52H275.04V6.27002H268.79V0.0200195H12.5Z" fill="#7DC4C8"/>
</g>
</g>
<defs>
<clipPath id="clip0_3_49656">
<rect width="281.29" height="100.01" fill="white" transform="translate(0 0.0300293)"/>
</clipPath>
</defs>
</svg>
