<svg width="282" height="101" viewBox="0 0 282 101" fill="none" xmlns="http://www.w3.org/2000/svg">
<g clip-path="url(#clip0_3_11151)">
<path d="M12.5 0.0200195V6.27002H6.25V12.52H0V87.53H6.25V93.78H12.5V100.03H37.5V100.02H37.51V100.03H112.51V100.02H112.52V100.03H187.52V100.02H187.53V100.03H262.53V100.02H262.54V100.03H268.79V93.78H275.04V87.53H281.29V37.53H281V37.52H281.29V12.52H275.04V6.27002H268.79V0.0200195H12.5Z" fill="#4C4C4C"/>
<path d="M268.79 0.0200195H262.54V6.27002H268.79V0.0200195Z" fill="#4C4C4C"/>
<path d="M262.53 0.0200195H256.28V6.27002H262.53V0.0200195Z" fill="#4C4C4C"/>
<path d="M256.28 0.0200195H250.03V6.27002H256.28V0.0200195Z" fill="#4C4C4C"/>
<path d="M250.03 0.0200195H243.78V6.27002H250.03V0.0200195Z" fill="#4C4C4C"/>
<path d="M243.78 0.0200195H237.53V6.27002H243.78V0.0200195Z" fill="#4C4C4C"/>
<path d="M237.53 0.0200195H231.28V6.27002H237.53V0.0200195Z" fill="#4C4C4C"/>
<path d="M231.28 0.0200195H225.03V6.27002H231.28V0.0200195Z" fill="#4C4C4C"/>
<path d="M225.03 0.0200195H218.78V6.27002H225.03V0.0200195Z" fill="#4C4C4C"/>
<path d="M218.78 0.0200195H212.53V6.27002H218.78V0.0200195Z" fill="#4C4C4C"/>
<path d="M212.53 0.0200195H206.28V6.27002H212.53V0.0200195Z" fill="#4C4C4C"/>
<path d="M206.28 0.0200195H200.03V6.27002H206.28V0.0200195Z" fill="#4C4C4C"/>
<path d="M200.03 0.0200195H193.78V6.27002H200.03V0.0200195Z" fill="#4C4C4C"/>
<path d="M193.78 0.0200195H187.53V6.27002H193.78V0.0200195Z" fill="#4C4C4C"/>
<path d="M187.52 0.0200195H181.27V6.27002H187.52V0.0200195Z" fill="#4C4C4C"/>
<path d="M181.27 0.0200195H175.02V6.27002H181.27V0.0200195Z" fill="#4C4C4C"/>
<path d="M175.02 0.0200195H168.77V6.27002H175.02V0.0200195Z" fill="#4C4C4C"/>
<path d="M168.77 0.0200195H162.52V6.27002H168.77V0.0200195Z" fill="#4C4C4C"/>
<path d="M162.52 0.0200195H156.27V6.27002H162.52V0.0200195Z" fill="#4C4C4C"/>
<path d="M156.27 0.0200195H150.02V6.27002H156.27V0.0200195Z" fill="#4C4C4C"/>
<path d="M150.02 0.0200195H143.77V6.27002H150.02V0.0200195Z" fill="#4C4C4C"/>
<path d="M143.77 0.0200195H137.52V6.27002H143.77V0.0200195Z" fill="#4C4C4C"/>
<path d="M137.52 0.0200195H131.27V6.27002H137.52V0.0200195Z" fill="#4C4C4C"/>
<path d="M131.27 0.0200195H125.02V6.27002H131.27V0.0200195Z" fill="#4C4C4C"/>
<path d="M125.02 0.0200195H118.77V6.27002H125.02V0.0200195Z" fill="#4C4C4C"/>
<path d="M118.77 0.0200195H112.52V6.27002H118.77V0.0200195Z" fill="#4C4C4C"/>
<path d="M112.51 0.0200195H106.26V6.27002H112.51V0.0200195Z" fill="#4C4C4C"/>
<path d="M106.26 0.0200195H100.01V6.27002H106.26V0.0200195Z" fill="#4C4C4C"/>
<path d="M100.01 0.0200195H93.76V6.27002H100.01V0.0200195Z" fill="#4C4C4C"/>
<path d="M93.76 0.0200195H87.51V6.27002H93.76V0.0200195Z" fill="#4C4C4C"/>
<path d="M87.51 0.0200195H81.26V6.27002H87.51V0.0200195Z" fill="#4C4C4C"/>
<path d="M81.26 0.0200195H75.01V6.27002H81.26V0.0200195Z" fill="#4C4C4C"/>
<path d="M75.01 0.0200195H68.76V6.27002H75.01V0.0200195Z" fill="#4C4C4C"/>
<path d="M68.76 0.0200195H62.51V6.27002H68.76V0.0200195Z" fill="#4C4C4C"/>
<path d="M62.51 0.0200195H56.26V6.27002H62.51V0.0200195Z" fill="#4C4C4C"/>
<path d="M56.26 0.0200195H50.01V6.27002H56.26V0.0200195Z" fill="#4C4C4C"/>
<path d="M50.01 0.0200195H43.76V6.27002H50.01V0.0200195Z" fill="#4C4C4C"/>
<path d="M43.76 0.0200195H37.51V6.27002H43.76V0.0200195Z" fill="#4C4C4C"/>
<path d="M37.5 0.0200195H31.25V6.27002H37.5V0.0200195Z" fill="#4C4C4C"/>
<path d="M31.25 0.0200195H25V6.27002H31.25V0.0200195Z" fill="#4C4C4C"/>
<path d="M25 0.0200195H18.75V6.27002H25V0.0200195Z" fill="#4C4C4C"/>
<path d="M18.75 0.0200195H12.5V6.27002H18.75V0.0200195Z" fill="#4C4C4C"/>
<path d="M275.04 6.27002H268.79V12.52H275.04V6.27002Z" fill="#4C4C4C"/>
<path d="M268.79 6.27002H262.54V12.52H268.79V6.27002Z" fill="#3D3D3D"/>
<path d="M262.53 6.27002H256.28V12.52H262.53V6.27002Z" fill="#3D3D3D"/>
<path d="M256.28 6.27002H250.03V12.52H256.28V6.27002Z" fill="#3D3D3D"/>
<path d="M250.03 6.27002H243.78V12.52H250.03V6.27002Z" fill="#3D3D3D"/>
<path d="M243.78 6.27002H237.53V12.52H243.78V6.27002Z" fill="#D6D6D6"/>
<path d="M237.53 6.27002H231.28V12.52H237.53V6.27002Z" fill="#A5A5A5"/>
<path d="M231.28 6.27002H225.03V12.52H231.28V6.27002Z" fill="#A5A5A5"/>
<path d="M225.03 6.27002H218.78V12.52H225.03V6.27002Z" fill="#A5A5A5"/>
<path d="M218.78 6.27002H212.53V12.52H218.78V6.27002Z" fill="#A5A5A5"/>
<path d="M212.53 6.27002H206.28V12.52H212.53V6.27002Z" fill="#A5A5A5"/>
<path d="M206.28 6.27002H200.03V12.52H206.28V6.27002Z" fill="#A5A5A5"/>
<path d="M200.03 6.27002H193.78V12.52H200.03V6.27002Z" fill="#A5A5A5"/>
<path d="M193.78 6.27002H187.53V12.52H193.78V6.27002Z" fill="#A5A5A5"/>
<path d="M187.52 6.27002H181.27V12.52H187.52V6.27002Z" fill="#A5A5A5"/>
<path d="M181.27 6.27002H175.02V12.52H181.27V6.27002Z" fill="#A5A5A5"/>
<path d="M175.02 6.27002H168.77V12.52H175.02V6.27002Z" fill="#A5A5A5"/>
<path d="M168.77 6.27002H162.52V12.52H168.77V6.27002Z" fill="#A5A5A5"/>
<path d="M162.52 6.27002H156.27V12.52H162.52V6.27002Z" fill="#A5A5A5"/>
<path d="M156.27 6.27002H150.02V12.52H156.27V6.27002Z" fill="#D6D6D6"/>
<path d="M150.02 6.27002H143.77V12.52H150.02V6.27002Z" fill="#D6D6D6"/>
<path d="M143.77 6.27002H137.52V12.52H143.77V6.27002Z" fill="#D6D6D6"/>
<path d="M137.52 6.27002H131.27V12.52H137.52V6.27002Z" fill="#A5A5A5"/>
<path d="M131.27 6.27002H125.02V12.52H131.27V6.27002Z" fill="#A5A5A5"/>
<path d="M125.02 6.27002H118.77V12.52H125.02V6.27002Z" fill="#A5A5A5"/>
<path d="M118.77 6.27002H112.52V12.52H118.77V6.27002Z" fill="#D6D6D6"/>
<path d="M112.51 6.27002H106.26V12.52H112.51V6.27002Z" fill="#A5A5A5"/>
<path d="M106.26 6.27002H100.01V12.52H106.26V6.27002Z" fill="#A5A5A5"/>
<path d="M100.01 6.27002H93.76V12.52H100.01V6.27002Z" fill="#A5A5A5"/>
<path d="M93.76 6.27002H87.51V12.52H93.76V6.27002Z" fill="#A5A5A5"/>
<path d="M87.51 6.27002H81.26V12.52H87.51V6.27002Z" fill="#A5A5A5"/>
<path d="M81.26 6.27002H75.01V12.52H81.26V6.27002Z" fill="#A5A5A5"/>
<path d="M75.01 6.27002H68.76V12.52H75.01V6.27002Z" fill="#A5A5A5"/>
<path d="M68.76 6.27002H62.51V12.52H68.76V6.27002Z" fill="#A5A5A5"/>
<path d="M62.51 6.27002H56.26V12.52H62.51V6.27002Z" fill="#A5A5A5"/>
<path d="M56.26 6.27002H50.01V12.52H56.26V6.27002Z" fill="#A5A5A5"/>
<path d="M50.01 6.27002H43.76V12.52H50.01V6.27002Z" fill="#A5A5A5"/>
<path d="M43.76 6.27002H37.51V12.52H43.76V6.27002Z" fill="#D6D6D6"/>
<path d="M37.5 6.27002H31.25V12.52H37.5V6.27002Z" fill="#808080"/>
<path d="M31.25 6.27002H25V12.52H31.25V6.27002Z" fill="#808080"/>
<path d="M25 6.27002H18.75V12.52H25V6.27002Z" fill="#808080"/>
<path d="M18.75 6.27002H12.5V12.52H18.75V6.27002Z" fill="#808080"/>
<path d="M12.5 6.27002H6.25V12.52H12.5V6.27002Z" fill="#4C4C4C"/>
<path d="M281.29 12.52H275.04V18.77H281.29V12.52Z" fill="#4C4C4C"/>
<path d="M275.04 12.52H268.79V18.77H275.04V12.52Z" fill="#3D3D3D"/>
<path d="M268.79 12.52H262.54V18.77H268.79V12.52Z" fill="#3D3D3D"/>
<path d="M262.53 12.52H256.28V18.77H262.53V12.52Z" fill="#3D3D3D"/>
<path d="M256.28 12.52H250.03V18.77H256.28V12.52Z" fill="#3D3D3D"/>
<path d="M250.03 12.52H243.78V18.77H250.03V12.52Z" fill="#D6D6D6"/>
<path d="M243.78 12.52H237.53V18.77H243.78V12.52Z" fill="#A5A5A5"/>
<path d="M237.53 12.52H231.28V18.77H237.53V12.52Z" fill="#A5A5A5"/>
<path d="M231.28 12.52H225.03V18.77H231.28V12.52Z" fill="#A5A5A5"/>
<path d="M225.03 12.52H218.78V18.77H225.03V12.52Z" fill="#A5A5A5"/>
<path d="M218.78 12.52H212.53V18.77H218.78V12.52Z" fill="#A5A5A5"/>
<path d="M212.53 12.52H206.28V18.77H212.53V12.52Z" fill="#A5A5A5"/>
<path d="M206.28 12.52H200.03V18.77H206.28V12.52Z" fill="#A5A5A5"/>
<path d="M200.03 12.52H193.78V18.77H200.03V12.52Z" fill="#A5A5A5"/>
<path d="M193.78 12.52H187.53V18.77H193.78V12.52Z" fill="#A5A5A5"/>
<path d="M187.52 12.52H181.27V18.77H187.52V12.52Z" fill="#A5A5A5"/>
<path d="M181.27 12.52H175.02V18.77H181.27V12.52Z" fill="#A5A5A5"/>
<path d="M175.02 12.52H168.77V18.77H175.02V12.52Z" fill="#A5A5A5"/>
<path d="M168.77 12.52H162.52V18.77H168.77V12.52Z" fill="#A5A5A5"/>
<path d="M162.52 12.52H156.27V18.77H162.52V12.52Z" fill="#D6D6D6"/>
<path d="M156.27 12.52H150.02V18.77H156.27V12.52Z" fill="#D6D6D6"/>
<path d="M150.02 12.52H143.77V18.77H150.02V12.52Z" fill="#D6D6D6"/>
<path d="M143.77 12.52H137.52V18.77H143.77V12.52Z" fill="#A5A5A5"/>
<path d="M137.52 12.52H131.27V18.77H137.52V12.52Z" fill="#A5A5A5"/>
<path d="M131.27 12.52H125.02V18.77H131.27V12.52Z" fill="#A5A5A5"/>
<path d="M125.02 12.52H118.77V18.77H125.02V12.52Z" fill="#D6D6D6"/>
<path d="M118.77 12.52H112.52V18.77H118.77V12.52Z" fill="#A5A5A5"/>
<path d="M112.51 12.52H106.26V18.77H112.51V12.52Z" fill="#A5A5A5"/>
<path d="M106.26 12.52H100.01V18.77H106.26V12.52Z" fill="#A5A5A5"/>
<path d="M100.01 12.52H93.76V18.77H100.01V12.52Z" fill="#A5A5A5"/>
<path d="M93.76 12.52H87.51V18.77H93.76V12.52Z" fill="#A5A5A5"/>
<path d="M87.51 12.52H81.26V18.77H87.51V12.52Z" fill="#A5A5A5"/>
<path d="M81.26 12.52H75.01V18.77H81.26V12.52Z" fill="#A5A5A5"/>
<path d="M75.01 12.52H68.76V18.77H75.01V12.52Z" fill="#A5A5A5"/>
<path d="M68.76 12.52H62.51V18.77H68.76V12.52Z" fill="#A5A5A5"/>
<path d="M62.51 12.52H56.26V18.77H62.51V12.52Z" fill="#A5A5A5"/>
<path d="M56.26 12.52H50.01V18.77H56.26V12.52Z" fill="#A5A5A5"/>
<path d="M50.01 12.52H43.76V18.77H50.01V12.52Z" fill="#A5A5A5"/>
<path d="M43.76 12.52H37.51V18.77H43.76V12.52Z" fill="#A5A5A5"/>
<path d="M37.5 12.52H31.25V18.77H37.5V12.52Z" fill="#D6D6D6"/>
<path d="M31.25 12.52H25V18.77H31.25V12.52Z" fill="#808080"/>
<path d="M25 12.52H18.75V18.77H25V12.52Z" fill="#808080"/>
<path d="M18.75 12.52H12.5V18.77H18.75V12.52Z" fill="#808080"/>
<path d="M12.5 12.52H6.25V18.77H12.5V12.52Z" fill="#808080"/>
<path d="M6.25 12.52H0V18.77H6.25V12.52Z" fill="#4C4C4C"/>
<path d="M281.29 18.77H275.04V25.02H281.29V18.77Z" fill="#4C4C4C"/>
<path d="M275.04 18.77H268.79V25.02H275.04V18.77Z" fill="#3D3D3D"/>
<path d="M268.79 18.77H262.54V25.02H268.79V18.77Z" fill="#3D3D3D"/>
<path d="M262.53 18.77H256.28V25.02H262.53V18.77Z" fill="#3D3D3D"/>
<path d="M256.28 18.77H250.03V25.02H256.28V18.77Z" fill="#3D3D3D"/>
<path d="M250.03 18.77H243.78V25.02H250.03V18.77Z" fill="#A5A5A5"/>
<path d="M243.78 18.77H237.53V25.02H243.78V18.77Z" fill="#A5A5A5"/>
<path d="M237.53 18.77H231.28V25.02H237.53V18.77Z" fill="#A5A5A5"/>
<path d="M231.28 18.77H225.03V25.02H231.28V18.77Z" fill="#A5A5A5"/>
<path d="M225.03 18.77H218.78V25.02H225.03V18.77Z" fill="#A5A5A5"/>
<path d="M218.78 18.77H212.53V25.02H218.78V18.77Z" fill="#A5A5A5"/>
<path d="M212.53 18.77H206.28V25.02H212.53V18.77Z" fill="#A5A5A5"/>
<path d="M206.28 18.77H200.03V25.02H206.28V18.77Z" fill="#A5A5A5"/>
<path d="M200.03 18.77H193.78V25.02H200.03V18.77Z" fill="#A5A5A5"/>
<path d="M193.78 18.77H187.53V25.02H193.78V18.77Z" fill="#A5A5A5"/>
<path d="M187.52 18.77H181.27V25.02H187.52V18.77Z" fill="#A5A5A5"/>
<path d="M181.27 18.77H175.02V25.02H181.27V18.77Z" fill="#A5A5A5"/>
<path d="M175.02 18.77H168.77V25.02H175.02V18.77Z" fill="#A5A5A5"/>
<path d="M168.77 18.77H162.52V25.02H168.77V18.77Z" fill="#D6D6D6"/>
<path d="M162.52 18.77H156.27V25.02H162.52V18.77Z" fill="#D6D6D6"/>
<path d="M156.27 18.77H150.02V25.02H156.27V18.77Z" fill="#D6D6D6"/>
<path d="M150.02 18.77H143.77V25.02H150.02V18.77Z" fill="#A5A5A5"/>
<path d="M143.77 18.77H137.52V25.02H143.77V18.77Z" fill="#A5A5A5"/>
<path d="M137.52 18.77H131.27V25.02H137.52V18.77Z" fill="#A5A5A5"/>
<path d="M131.27 18.77H125.02V25.02H131.27V18.77Z" fill="#D6D6D6"/>
<path d="M125.02 18.77H118.77V25.02H125.02V18.77Z" fill="#A5A5A5"/>
<path d="M118.77 18.77H112.52V25.02H118.77V18.77Z" fill="#A5A5A5"/>
<path d="M112.51 18.77H106.26V25.02H112.51V18.77Z" fill="#A5A5A5"/>
<path d="M106.26 18.77H100.01V25.02H106.26V18.77Z" fill="#A5A5A5"/>
<path d="M100.01 18.77H93.76V25.02H100.01V18.77Z" fill="#A5A5A5"/>
<path d="M93.76 18.77H87.51V25.02H93.76V18.77Z" fill="#A5A5A5"/>
<path d="M87.51 18.77H81.26V25.02H87.51V18.77Z" fill="#A5A5A5"/>
<path d="M81.26 18.77H75.01V25.02H81.26V18.77Z" fill="#A5A5A5"/>
<path d="M75.01 18.77H68.76V25.02H75.01V18.77Z" fill="#A5A5A5"/>
<path d="M68.76 18.77H62.51V25.02H68.76V18.77Z" fill="#A5A5A5"/>
<path d="M62.51 18.77H56.26V25.02H62.51V18.77Z" fill="#A5A5A5"/>
<path d="M56.26 18.77H50.01V25.02H56.26V18.77Z" fill="#A5A5A5"/>
<path d="M50.01 18.77H43.76V25.02H50.01V18.77Z" fill="#A5A5A5"/>
<path d="M43.76 18.77H37.51V25.02H43.76V18.77Z" fill="#A5A5A5"/>
<path d="M37.5 18.77H31.25V25.02H37.5V18.77Z" fill="#A5A5A5"/>
<path d="M31.25 18.77H25V25.02H31.25V18.77Z" fill="#808080"/>
<path d="M25 18.77H18.75V25.02H25V18.77Z" fill="#808080"/>
<path d="M18.75 18.77H12.5V25.02H18.75V18.77Z" fill="#808080"/>
<path d="M12.5 18.77H6.25V25.02H12.5V18.77Z" fill="#808080"/>
<path d="M6.25 18.77H0V25.02H6.25V18.77Z" fill="#4C4C4C"/>
<path d="M281.29 25.02H275.04V31.27H281.29V25.02Z" fill="#4C4C4C"/>
<path d="M275.04 25.02H268.79V31.27H275.04V25.02Z" fill="#3D3D3D"/>
<path d="M268.79 25.02H262.54V31.27H268.79V25.02Z" fill="#3D3D3D"/>
<path d="M262.53 25.02H256.28V31.27H262.53V25.02Z" fill="#3D3D3D"/>
<path d="M256.28 25.02H250.03V31.27H256.28V25.02Z" fill="#3D3D3D"/>
<path d="M250.03 25.02H243.78V31.27H250.03V25.02Z" fill="#A5A5A5"/>
<path d="M243.78 25.02H237.53V31.27H243.78V25.02Z" fill="#A5A5A5"/>
<path d="M237.53 25.02H231.28V31.27H237.53V25.02Z" fill="#A5A5A5"/>
<path d="M231.28 25.02H225.03V31.27H231.28V25.02Z" fill="#A5A5A5"/>
<path d="M225.03 25.02H218.78V31.27H225.03V25.02Z" fill="#A5A5A5"/>
<path d="M218.78 25.02H212.53V31.27H218.78V25.02Z" fill="#A5A5A5"/>
<path d="M212.53 25.02H206.28V31.27H212.53V25.02Z" fill="#A5A5A5"/>
<path d="M206.28 25.02H200.03V31.27H206.28V25.02Z" fill="#A5A5A5"/>
<path d="M200.03 25.02H193.78V31.27H200.03V25.02Z" fill="#A5A5A5"/>
<path d="M193.78 25.02H187.53V31.27H193.78V25.02Z" fill="#A5A5A5"/>
<path d="M187.52 25.02H181.27V31.27H187.52V25.02Z" fill="#A5A5A5"/>
<path d="M181.27 25.02H175.02V31.27H181.27V25.02Z" fill="#A5A5A5"/>
<path d="M175.02 25.02H168.77V31.27H175.02V25.02Z" fill="#D6D6D6"/>
<path d="M168.77 25.02H162.52V31.27H168.77V25.02Z" fill="#D6D6D6"/>
<path d="M162.52 25.02H156.27V31.27H162.52V25.02Z" fill="#D6D6D6"/>
<path d="M156.27 25.02H150.02V31.27H156.27V25.02Z" fill="#A5A5A5"/>
<path d="M150.02 25.02H143.77V31.27H150.02V25.02Z" fill="#A5A5A5"/>
<path d="M143.77 25.02H137.52V31.27H143.77V25.02Z" fill="#A5A5A5"/>
<path d="M137.52 25.02H131.27V31.27H137.52V25.02Z" fill="#D6D6D6"/>
<path d="M131.27 25.02H125.02V31.27H131.27V25.02Z" fill="#A5A5A5"/>
<path d="M125.02 25.02H118.77V31.27H125.02V25.02Z" fill="#A5A5A5"/>
<path d="M118.77 25.02H112.52V31.27H118.77V25.02Z" fill="#A5A5A5"/>
<path d="M112.51 25.02H106.26V31.27H112.51V25.02Z" fill="#A5A5A5"/>
<path d="M106.26 25.02H100.01V31.27H106.26V25.02Z" fill="#A5A5A5"/>
<path d="M100.01 25.02H93.76V31.27H100.01V25.02Z" fill="#A5A5A5"/>
<path d="M93.76 25.02H87.51V31.27H93.76V25.02Z" fill="#A5A5A5"/>
<path d="M87.51 25.02H81.26V31.27H87.51V25.02Z" fill="#A5A5A5"/>
<path d="M81.26 25.02H75.01V31.27H81.26V25.02Z" fill="#A5A5A5"/>
<path d="M75.01 25.02H68.76V31.27H75.01V25.02Z" fill="#A5A5A5"/>
<path d="M68.76 25.02H62.51V31.27H68.76V25.02Z" fill="#A5A5A5"/>
<path d="M62.51 25.02H56.26V31.27H62.51V25.02Z" fill="#A5A5A5"/>
<path d="M56.26 25.02H50.01V31.27H56.26V25.02Z" fill="#A5A5A5"/>
<path d="M50.01 25.02H43.76V31.27H50.01V25.02Z" fill="#A5A5A5"/>
<path d="M43.76 25.02H37.51V31.27H43.76V25.02Z" fill="#A5A5A5"/>
<path d="M37.5 25.02H31.25V31.27H37.5V25.02Z" fill="#A5A5A5"/>
<path d="M31.25 25.02H25V31.27H31.25V25.02Z" fill="#808080"/>
<path d="M25 25.02H18.75V31.27H25V25.02Z" fill="#808080"/>
<path d="M18.75 25.02H12.5V31.27H18.75V25.02Z" fill="#808080"/>
<path d="M12.5 25.02H6.25V31.27H12.5V25.02Z" fill="#808080"/>
<path d="M6.25 25.02H0V31.27H6.25V25.02Z" fill="#4C4C4C"/>
<path d="M281.29 31.27H275.04V37.52H281.29V31.27Z" fill="#4C4C4C"/>
<path d="M275.04 31.27H268.79V37.52H275.04V31.27Z" fill="#3D3D3D"/>
<path d="M268.79 31.27H262.54V37.52H268.79V31.27Z" fill="#3D3D3D"/>
<path d="M262.53 31.27H256.28V37.52H262.53V31.27Z" fill="#3D3D3D"/>
<path d="M256.28 31.27H250.03V37.52H256.28V31.27Z" fill="#3D3D3D"/>
<path d="M250.03 31.27H243.78V37.52H250.03V31.27Z" fill="#A5A5A5"/>
<path d="M243.78 31.27H237.53V37.52H243.78V31.27Z" fill="#A5A5A5"/>
<path d="M237.53 31.27H231.28V37.52H237.53V31.27Z" fill="#A5A5A5"/>
<path d="M231.28 31.27H225.03V37.52H231.28V31.27Z" fill="#A5A5A5"/>
<path d="M225.03 31.27H218.78V37.52H225.03V31.27Z" fill="#A5A5A5"/>
<path d="M218.78 31.27H212.53V37.52H218.78V31.27Z" fill="#A5A5A5"/>
<path d="M212.53 31.27H206.28V37.52H212.53V31.27Z" fill="#A5A5A5"/>
<path d="M206.28 31.27H200.03V37.52H206.28V31.27Z" fill="#A5A5A5"/>
<path d="M200.03 31.27H193.78V37.52H200.03V31.27Z" fill="#A5A5A5"/>
<path d="M193.78 31.27H187.53V37.52H193.78V31.27Z" fill="#A5A5A5"/>
<path d="M187.52 31.27H181.27V37.52H187.52V31.27Z" fill="#A5A5A5"/>
<path d="M181.27 31.27H175.02V37.52H181.27V31.27Z" fill="#D6D6D6"/>
<path d="M175.02 31.27H168.77V37.52H175.02V31.27Z" fill="#D6D6D6"/>
<path d="M168.77 31.27H162.52V37.52H168.77V31.27Z" fill="#D6D6D6"/>
<path d="M162.52 31.27H156.27V37.52H162.52V31.27Z" fill="#A5A5A5"/>
<path d="M156.27 31.27H150.02V37.52H156.27V31.27Z" fill="#A5A5A5"/>
<path d="M150.02 31.27H143.77V37.52H150.02V31.27Z" fill="#A5A5A5"/>
<path d="M143.77 31.27H137.52V37.52H143.77V31.27Z" fill="#D6D6D6"/>
<path d="M137.52 31.27H131.27V37.52H137.52V31.27Z" fill="#A5A5A5"/>
<path d="M131.27 31.27H125.02V37.52H131.27V31.27Z" fill="#A5A5A5"/>
<path d="M125.02 31.27H118.77V37.52H125.02V31.27Z" fill="#A5A5A5"/>
<path d="M118.77 31.27H112.52V37.52H118.77V31.27Z" fill="#A5A5A5"/>
<path d="M112.51 31.27H106.26V37.52H112.51V31.27Z" fill="#A5A5A5"/>
<path d="M106.26 31.27H100.01V37.52H106.26V31.27Z" fill="#A5A5A5"/>
<path d="M100.01 31.27H93.76V37.52H100.01V31.27Z" fill="#A5A5A5"/>
<path d="M93.76 31.27H87.51V37.52H93.76V31.27Z" fill="#A5A5A5"/>
<path d="M87.51 31.27H81.26V37.52H87.51V31.27Z" fill="#A5A5A5"/>
<path d="M81.26 31.27H75.01V37.52H81.26V31.27Z" fill="#A5A5A5"/>
<path d="M75.01 31.27H68.76V37.52H75.01V31.27Z" fill="#A5A5A5"/>
<path d="M68.76 31.27H62.51V37.52H68.76V31.27Z" fill="#A5A5A5"/>
<path d="M62.51 31.27H56.26V37.52H62.51V31.27Z" fill="#A5A5A5"/>
<path d="M56.26 31.27H50.01V37.52H56.26V31.27Z" fill="#A5A5A5"/>
<path d="M50.01 31.27H43.76V37.52H50.01V31.27Z" fill="#A5A5A5"/>
<path d="M43.76 31.27H37.51V37.52H43.76V31.27Z" fill="#A5A5A5"/>
<path d="M37.5 31.27H31.25V37.52H37.5V31.27Z" fill="#A5A5A5"/>
<path d="M31.25 31.27H25V37.52H31.25V31.27Z" fill="#808080"/>
<path d="M25 31.27H18.75V37.52H25V31.27Z" fill="#808080"/>
<path d="M18.75 31.27H12.5V37.52H18.75V31.27Z" fill="#808080"/>
<path d="M12.5 31.27H6.25V37.52H12.5V31.27Z" fill="#808080"/>
<path d="M6.25 31.27H0V37.52H6.25V31.27Z" fill="#4C4C4C"/>
<path d="M281.29 37.53H275.04V43.78H281.29V37.53Z" fill="#4C4C4C"/>
<path d="M275.04 37.53H268.79V43.78H275.04V37.53Z" fill="#3D3D3D"/>
<path d="M268.79 37.53H262.54V43.78H268.79V37.53Z" fill="#3D3D3D"/>
<path d="M262.53 37.53H256.28V43.78H262.53V37.53Z" fill="#3D3D3D"/>
<path d="M256.28 37.53H250.03V43.78H256.28V37.53Z" fill="#3D3D3D"/>
<path d="M250.03 37.53H243.78V43.78H250.03V37.53Z" fill="#A5A5A5"/>
<path d="M243.78 37.53H237.53V43.78H243.78V37.53Z" fill="#A5A5A5"/>
<path d="M237.53 37.53H231.28V43.78H237.53V37.53Z" fill="#A5A5A5"/>
<path d="M231.28 37.53H225.03V43.78H231.28V37.53Z" fill="#A5A5A5"/>
<path d="M225.03 37.53H218.78V43.78H225.03V37.53Z" fill="#A5A5A5"/>
<path d="M218.78 37.53H212.53V43.78H218.78V37.53Z" fill="#A5A5A5"/>
<path d="M212.53 37.53H206.28V43.78H212.53V37.53Z" fill="#A5A5A5"/>
<path d="M206.28 37.53H200.03V43.78H206.28V37.53Z" fill="#A5A5A5"/>
<path d="M200.03 37.53H193.78V43.78H200.03V37.53Z" fill="#A5A5A5"/>
<path d="M193.78 37.53H187.53V43.78H193.78V37.53Z" fill="#A5A5A5"/>
<path d="M187.52 37.53H181.27V43.78H187.52V37.53Z" fill="#D6D6D6"/>
<path d="M181.27 37.53H175.02V43.78H181.27V37.53Z" fill="#D6D6D6"/>
<path d="M175.02 37.53H168.77V43.78H175.02V37.53Z" fill="#D6D6D6"/>
<path d="M168.77 37.53H162.52V43.78H168.77V37.53Z" fill="#A5A5A5"/>
<path d="M162.52 37.53H156.27V43.78H162.52V37.53Z" fill="#A5A5A5"/>
<path d="M156.27 37.53H150.02V43.78H156.27V37.53Z" fill="#A5A5A5"/>
<path d="M150.02 37.53H143.77V43.78H150.02V37.53Z" fill="#D6D6D6"/>
<path d="M143.77 37.53H137.52V43.78H143.77V37.53Z" fill="#A5A5A5"/>
<path d="M137.52 37.53H131.27V43.78H137.52V37.53Z" fill="#A5A5A5"/>
<path d="M131.27 37.53H125.02V43.78H131.27V37.53Z" fill="#A5A5A5"/>
<path d="M125.02 37.53H118.77V43.78H125.02V37.53Z" fill="#A5A5A5"/>
<path d="M118.77 37.53H112.52V43.78H118.77V37.53Z" fill="#A5A5A5"/>
<path d="M112.51 37.53H106.26V43.78H112.51V37.53Z" fill="#A5A5A5"/>
<path d="M106.26 37.53H100.01V43.78H106.26V37.53Z" fill="#A5A5A5"/>
<path d="M100.01 37.53H93.76V43.78H100.01V37.53Z" fill="#A5A5A5"/>
<path d="M93.76 37.53H87.51V43.78H93.76V37.53Z" fill="#A5A5A5"/>
<path d="M87.51 37.53H81.26V43.78H87.51V37.53Z" fill="#A5A5A5"/>
<path d="M81.26 37.53H75.01V43.78H81.26V37.53Z" fill="#A5A5A5"/>
<path d="M75.01 37.53H68.76V43.78H75.01V37.53Z" fill="#A5A5A5"/>
<path d="M68.76 37.53H62.51V43.78H68.76V37.53Z" fill="#A5A5A5"/>
<path d="M62.51 37.53H56.26V43.78H62.51V37.53Z" fill="#A5A5A5"/>
<path d="M56.26 37.53H50.01V43.78H56.26V37.53Z" fill="#A5A5A5"/>
<path d="M50.01 37.53H43.76V43.78H50.01V37.53Z" fill="#A5A5A5"/>
<path d="M43.76 37.53H37.51V43.78H43.76V37.53Z" fill="#A5A5A5"/>
<path d="M37.5 37.53H31.25V43.78H37.5V37.53Z" fill="#A5A5A5"/>
<path d="M31.25 37.53H25V43.78H31.25V37.53Z" fill="#808080"/>
<path d="M25 37.53H18.75V43.78H25V37.53Z" fill="#808080"/>
<path d="M18.75 37.53H12.5V43.78H18.75V37.53Z" fill="#808080"/>
<path d="M12.5 37.53H6.25V43.78H12.5V37.53Z" fill="#808080"/>
<path d="M6.25 37.53H0V43.78H6.25V37.53Z" fill="#4C4C4C"/>
<path d="M281.29 43.78H275.04V50.03H281.29V43.78Z" fill="#4C4C4C"/>
<path d="M275.04 43.78H268.79V50.03H275.04V43.78Z" fill="#3D3D3D"/>
<path d="M268.79 43.78H262.54V50.03H268.79V43.78Z" fill="#3D3D3D"/>
<path d="M262.53 43.78H256.28V50.03H262.53V43.78Z" fill="#3D3D3D"/>
<path d="M256.28 43.78H250.03V50.03H256.28V43.78Z" fill="#3D3D3D"/>
<path d="M250.03 43.78H243.78V50.03H250.03V43.78Z" fill="#A5A5A5"/>
<path d="M243.78 43.78H237.53V50.03H243.78V43.78Z" fill="#A5A5A5"/>
<path d="M237.53 43.78H231.28V50.03H237.53V43.78Z" fill="#A5A5A5"/>
<path d="M231.28 43.78H225.03V50.03H231.28V43.78Z" fill="#A5A5A5"/>
<path d="M225.03 43.78H218.78V50.03H225.03V43.78Z" fill="#A5A5A5"/>
<path d="M218.78 43.78H212.53V50.03H218.78V43.78Z" fill="#A5A5A5"/>
<path d="M212.53 43.78H206.28V50.03H212.53V43.78Z" fill="#A5A5A5"/>
<path d="M206.28 43.78H200.03V50.03H206.28V43.78Z" fill="#A5A5A5"/>
<path d="M200.03 43.78H193.78V50.03H200.03V43.78Z" fill="#A5A5A5"/>
<path d="M193.78 43.78H187.53V50.03H193.78V43.78Z" fill="#D6D6D6"/>
<path d="M187.52 43.78H181.27V50.03H187.52V43.78Z" fill="#D6D6D6"/>
<path d="M181.27 43.78H175.02V50.03H181.27V43.78Z" fill="#D6D6D6"/>
<path d="M175.02 43.78H168.77V50.03H175.02V43.78Z" fill="#A5A5A5"/>
<path d="M168.77 43.78H162.52V50.03H168.77V43.78Z" fill="#A5A5A5"/>
<path d="M162.52 43.78H156.27V50.03H162.52V43.78Z" fill="#A5A5A5"/>
<path d="M156.27 43.78H150.02V50.03H156.27V43.78Z" fill="#D6D6D6"/>
<path d="M150.02 43.78H143.77V50.03H150.02V43.78Z" fill="#A5A5A5"/>
<path d="M143.77 43.78H137.52V50.03H143.77V43.78Z" fill="#A5A5A5"/>
<path d="M137.52 43.78H131.27V50.03H137.52V43.78Z" fill="#A5A5A5"/>
<path d="M131.27 43.78H125.02V50.03H131.27V43.78Z" fill="#A5A5A5"/>
<path d="M125.02 43.78H118.77V50.03H125.02V43.78Z" fill="#A5A5A5"/>
<path d="M118.77 43.78H112.52V50.03H118.77V43.78Z" fill="#A5A5A5"/>
<path d="M112.51 43.78H106.26V50.03H112.51V43.78Z" fill="#A5A5A5"/>
<path d="M106.26 43.78H100.01V50.03H106.26V43.78Z" fill="#A5A5A5"/>
<path d="M100.01 43.78H93.76V50.03H100.01V43.78Z" fill="#A5A5A5"/>
<path d="M93.76 43.78H87.51V50.03H93.76V43.78Z" fill="#A5A5A5"/>
<path d="M87.51 43.78H81.26V50.03H87.51V43.78Z" fill="#A5A5A5"/>
<path d="M81.26 43.78H75.01V50.03H81.26V43.78Z" fill="#A5A5A5"/>
<path d="M75.01 43.78H68.76V50.03H75.01V43.78Z" fill="#A5A5A5"/>
<path d="M68.76 43.78H62.51V50.03H68.76V43.78Z" fill="#A5A5A5"/>
<path d="M62.51 43.78H56.26V50.03H62.51V43.78Z" fill="#A5A5A5"/>
<path d="M56.26 43.78H50.01V50.03H56.26V43.78Z" fill="#A5A5A5"/>
<path d="M50.01 43.78H43.76V50.03H50.01V43.78Z" fill="#A5A5A5"/>
<path d="M43.76 43.78H37.51V50.03H43.76V43.78Z" fill="#A5A5A5"/>
<path d="M37.5 43.78H31.25V50.03H37.5V43.78Z" fill="#A5A5A5"/>
<path d="M31.25 43.78H25V50.03H31.25V43.78Z" fill="#808080"/>
<path d="M25 43.78H18.75V50.03H25V43.78Z" fill="#808080"/>
<path d="M18.75 43.78H12.5V50.03H18.75V43.78Z" fill="#808080"/>
<path d="M12.5 43.78H6.25V50.03H12.5V43.78Z" fill="#808080"/>
<path d="M6.25 43.78H0V50.03H6.25V43.78Z" fill="#4C4C4C"/>
<path d="M281.29 50.03H275.04V56.28H281.29V50.03Z" fill="#4C4C4C"/>
<path d="M275.04 50.03H268.79V56.28H275.04V50.03Z" fill="#3D3D3D"/>
<path d="M268.79 50.03H262.54V56.28H268.79V50.03Z" fill="#3D3D3D"/>
<path d="M262.53 50.03H256.28V56.28H262.53V50.03Z" fill="#3D3D3D"/>
<path d="M256.28 50.03H250.03V56.28H256.28V50.03Z" fill="#3D3D3D"/>
<path d="M250.03 50.03H243.78V56.28H250.03V50.03Z" fill="#A5A5A5"/>
<path d="M243.78 50.03H237.53V56.28H243.78V50.03Z" fill="#A5A5A5"/>
<path d="M237.53 50.03H231.28V56.28H237.53V50.03Z" fill="#A5A5A5"/>
<path d="M231.28 50.03H225.03V56.28H231.28V50.03Z" fill="#A5A5A5"/>
<path d="M225.03 50.03H218.78V56.28H225.03V50.03Z" fill="#A5A5A5"/>
<path d="M218.78 50.03H212.53V56.28H218.78V50.03Z" fill="#A5A5A5"/>
<path d="M212.53 50.03H206.28V56.28H212.53V50.03Z" fill="#A5A5A5"/>
<path d="M206.28 50.03H200.03V56.28H206.28V50.03Z" fill="#A5A5A5"/>
<path d="M200.03 50.03H193.78V56.28H200.03V50.03Z" fill="#D6D6D6"/>
<path d="M193.78 50.03H187.53V56.28H193.78V50.03Z" fill="#D6D6D6"/>
<path d="M187.52 50.03H181.27V56.28H187.52V50.03Z" fill="#D6D6D6"/>
<path d="M181.27 50.03H175.02V56.28H181.27V50.03Z" fill="#A5A5A5"/>
<path d="M175.02 50.03H168.77V56.28H175.02V50.03Z" fill="#A5A5A5"/>
<path d="M168.77 50.03H162.52V56.28H168.77V50.03Z" fill="#A5A5A5"/>
<path d="M162.52 50.03H156.27V56.28H162.52V50.03Z" fill="#D6D6D6"/>
<path d="M156.27 50.03H150.02V56.28H156.27V50.03Z" fill="#A5A5A5"/>
<path d="M150.02 50.03H143.77V56.28H150.02V50.03Z" fill="#A5A5A5"/>
<path d="M143.77 50.03H137.52V56.28H143.77V50.03Z" fill="#A5A5A5"/>
<path d="M137.52 50.03H131.27V56.28H137.52V50.03Z" fill="#A5A5A5"/>
<path d="M131.27 50.03H125.02V56.28H131.27V50.03Z" fill="#A5A5A5"/>
<path d="M125.02 50.03H118.77V56.28H125.02V50.03Z" fill="#A5A5A5"/>
<path d="M118.77 50.03H112.52V56.28H118.77V50.03Z" fill="#A5A5A5"/>
<path d="M112.51 50.03H106.26V56.28H112.51V50.03Z" fill="#A5A5A5"/>
<path d="M106.26 50.03H100.01V56.28H106.26V50.03Z" fill="#A5A5A5"/>
<path d="M100.01 50.03H93.76V56.28H100.01V50.03Z" fill="#A5A5A5"/>
<path d="M93.76 50.03H87.51V56.28H93.76V50.03Z" fill="#A5A5A5"/>
<path d="M87.51 50.03H81.26V56.28H87.51V50.03Z" fill="#A5A5A5"/>
<path d="M81.26 50.03H75.01V56.28H81.26V50.03Z" fill="#A5A5A5"/>
<path d="M75.01 50.03H68.76V56.28H75.01V50.03Z" fill="#A5A5A5"/>
<path d="M68.76 50.03H62.51V56.28H68.76V50.03Z" fill="#A5A5A5"/>
<path d="M62.51 50.03H56.26V56.28H62.51V50.03Z" fill="#A5A5A5"/>
<path d="M56.26 50.03H50.01V56.28H56.26V50.03Z" fill="#A5A5A5"/>
<path d="M50.01 50.03H43.76V56.28H50.01V50.03Z" fill="#A5A5A5"/>
<path d="M43.76 50.03H37.51V56.28H43.76V50.03Z" fill="#A5A5A5"/>
<path d="M37.5 50.03H31.25V56.28H37.5V50.03Z" fill="#A5A5A5"/>
<path d="M31.25 50.03H25V56.28H31.25V50.03Z" fill="#808080"/>
<path d="M25 50.03H18.75V56.28H25V50.03Z" fill="#808080"/>
<path d="M18.75 50.03H12.5V56.28H18.75V50.03Z" fill="#808080"/>
<path d="M12.5 50.03H6.25V56.28H12.5V50.03Z" fill="#808080"/>
<path d="M6.25 50.03H0V56.28H6.25V50.03Z" fill="#4C4C4C"/>
<path d="M281.29 56.28H275.04V62.53H281.29V56.28Z" fill="#4C4C4C"/>
<path d="M275.04 56.28H268.79V62.53H275.04V56.28Z" fill="#3D3D3D"/>
<path d="M268.79 56.28H262.54V62.53H268.79V56.28Z" fill="#3D3D3D"/>
<path d="M262.53 56.28H256.28V62.53H262.53V56.28Z" fill="#3D3D3D"/>
<path d="M256.28 56.28H250.03V62.53H256.28V56.28Z" fill="#3D3D3D"/>
<path d="M250.03 56.28H243.78V62.53H250.03V56.28Z" fill="#D6D6D6"/>
<path d="M243.78 56.28H237.53V62.53H243.78V56.28Z" fill="#A5A5A5"/>
<path d="M237.53 56.28H231.28V62.53H237.53V56.28Z" fill="#A5A5A5"/>
<path d="M231.28 56.28H225.03V62.53H231.28V56.28Z" fill="#A5A5A5"/>
<path d="M225.03 56.28H218.78V62.53H225.03V56.28Z" fill="#A5A5A5"/>
<path d="M218.78 56.28H212.53V62.53H218.78V56.28Z" fill="#A5A5A5"/>
<path d="M212.53 56.28H206.28V62.53H212.53V56.28Z" fill="#A5A5A5"/>
<path d="M206.28 56.28H200.03V62.53H206.28V56.28Z" fill="#D6D6D6"/>
<path d="M200.03 56.28H193.78V62.53H200.03V56.28Z" fill="#D6D6D6"/>
<path d="M193.78 56.28H187.53V62.53H193.78V56.28Z" fill="#D6D6D6"/>
<path d="M187.52 56.28H181.27V62.53H187.52V56.28Z" fill="#A5A5A5"/>
<path d="M181.27 56.28H175.02V62.53H181.27V56.28Z" fill="#A5A5A5"/>
<path d="M175.02 56.28H168.77V62.53H175.02V56.28Z" fill="#A5A5A5"/>
<path d="M168.77 56.28H162.52V62.53H168.77V56.28Z" fill="#D6D6D6"/>
<path d="M162.52 56.28H156.27V62.53H162.52V56.28Z" fill="#A5A5A5"/>
<path d="M156.27 56.28H150.02V62.53H156.27V56.28Z" fill="#A5A5A5"/>
<path d="M150.02 56.28H143.77V62.53H150.02V56.28Z" fill="#A5A5A5"/>
<path d="M143.77 56.28H137.52V62.53H143.77V56.28Z" fill="#A5A5A5"/>
<path d="M137.52 56.28H131.27V62.53H137.52V56.28Z" fill="#A5A5A5"/>
<path d="M131.27 56.28H125.02V62.53H131.27V56.28Z" fill="#A5A5A5"/>
<path d="M125.02 56.28H118.77V62.53H125.02V56.28Z" fill="#A5A5A5"/>
<path d="M118.77 56.28H112.52V62.53H118.77V56.28Z" fill="#A5A5A5"/>
<path d="M112.51 56.28H106.26V62.53H112.51V56.28Z" fill="#A5A5A5"/>
<path d="M106.26 56.28H100.01V62.53H106.26V56.28Z" fill="#A5A5A5"/>
<path d="M100.01 56.28H93.76V62.53H100.01V56.28Z" fill="#A5A5A5"/>
<path d="M93.76 56.28H87.51V62.53H93.76V56.28Z" fill="#A5A5A5"/>
<path d="M87.51 56.28H81.26V62.53H87.51V56.28Z" fill="#A5A5A5"/>
<path d="M81.26 56.28H75.01V62.53H81.26V56.28Z" fill="#A5A5A5"/>
<path d="M75.01 56.28H68.76V62.53H75.01V56.28Z" fill="#A5A5A5"/>
<path d="M68.76 56.28H62.51V62.53H68.76V56.28Z" fill="#A5A5A5"/>
<path d="M62.51 56.28H56.26V62.53H62.51V56.28Z" fill="#A5A5A5"/>
<path d="M56.26 56.28H50.01V62.53H56.26V56.28Z" fill="#A5A5A5"/>
<path d="M50.01 56.28H43.76V62.53H50.01V56.28Z" fill="#A5A5A5"/>
<path d="M43.76 56.28H37.51V62.53H43.76V56.28Z" fill="#A5A5A5"/>
<path d="M37.5 56.28H31.25V62.53H37.5V56.28Z" fill="#D6D6D6"/>
<path d="M31.25 56.28H25V62.53H31.25V56.28Z" fill="#808080"/>
<path d="M25 56.28H18.75V62.53H25V56.28Z" fill="#808080"/>
<path d="M18.75 56.28H12.5V62.53H18.75V56.28Z" fill="#808080"/>
<path d="M12.5 56.28H6.25V62.53H12.5V56.28Z" fill="#808080"/>
<path d="M6.25 56.28H0V62.53H6.25V56.28Z" fill="#4C4C4C"/>
<path d="M281.29 62.53H275.04V68.78H281.29V62.53Z" fill="#4C4C4C"/>
<path d="M275.04 62.53H268.79V68.78H275.04V62.53Z" fill="#3D3D3D"/>
<path d="M268.79 62.53H262.54V68.78H268.79V62.53Z" fill="#3D3D3D"/>
<path d="M262.53 62.53H256.28V68.78H262.53V62.53Z" fill="#3D3D3D"/>
<path d="M256.28 62.53H250.03V68.78H256.28V62.53Z" fill="#3D3D3D"/>
<path d="M250.03 62.53H243.78V68.78H250.03V62.53Z" fill="#808080"/>
<path d="M243.78 62.53H237.53V68.78H243.78V62.53Z" fill="#D6D6D6"/>
<path d="M237.53 62.53H231.28V68.78H237.53V62.53Z" fill="#D6D6D6"/>
<path d="M231.28 62.53H225.03V68.78H231.28V62.53Z" fill="#D6D6D6"/>
<path d="M225.03 62.53H218.78V68.78H225.03V62.53Z" fill="#D6D6D6"/>
<path d="M218.78 62.53H212.53V68.78H218.78V62.53Z" fill="#D6D6D6"/>
<path d="M212.53 62.53H206.28V68.78H212.53V62.53Z" fill="#D6D6D6"/>
<path d="M206.28 62.53H200.03V68.78H206.28V62.53Z" fill="#D6D6D6"/>
<path d="M200.03 62.53H193.78V68.78H200.03V62.53Z" fill="#D6D6D6"/>
<path d="M193.78 62.53H187.53V68.78H193.78V62.53Z" fill="#D6D6D6"/>
<path d="M187.52 62.53H181.27V68.78H187.52V62.53Z" fill="#D6D6D6"/>
<path d="M181.27 62.53H175.02V68.78H181.27V62.53Z" fill="#D6D6D6"/>
<path d="M175.02 62.53H168.77V68.78H175.02V62.53Z" fill="#D6D6D6"/>
<path d="M168.77 62.53H162.52V68.78H168.77V62.53Z" fill="#D6D6D6"/>
<path d="M162.52 62.53H156.27V68.78H162.52V62.53Z" fill="#D6D6D6"/>
<path d="M156.27 62.53H150.02V68.78H156.27V62.53Z" fill="#D6D6D6"/>
<path d="M150.02 62.53H143.77V68.78H150.02V62.53Z" fill="#D6D6D6"/>
<path d="M143.77 62.53H137.52V68.78H143.77V62.53Z" fill="#D6D6D6"/>
<path d="M137.52 62.53H131.27V68.78H137.52V62.53Z" fill="#D6D6D6"/>
<path d="M131.27 62.53H125.02V68.78H131.27V62.53Z" fill="#D6D6D6"/>
<path d="M125.02 62.53H118.77V68.78H125.02V62.53Z" fill="#D6D6D6"/>
<path d="M118.77 62.53H112.52V68.78H118.77V62.53Z" fill="#D6D6D6"/>
<path d="M112.51 62.53H106.26V68.78H112.51V62.53Z" fill="#D6D6D6"/>
<path d="M106.26 62.53H100.01V68.78H106.26V62.53Z" fill="#D6D6D6"/>
<path d="M100.01 62.53H93.76V68.78H100.01V62.53Z" fill="#D6D6D6"/>
<path d="M93.76 62.53H87.51V68.78H93.76V62.53Z" fill="#D6D6D6"/>
<path d="M87.51 62.53H81.26V68.78H87.51V62.53Z" fill="#D6D6D6"/>
<path d="M81.26 62.53H75.01V68.78H81.26V62.53Z" fill="#D6D6D6"/>
<path d="M75.01 62.53H68.76V68.78H75.01V62.53Z" fill="#D6D6D6"/>
<path d="M68.76 62.53H62.51V68.78H68.76V62.53Z" fill="#D6D6D6"/>
<path d="M62.51 62.53H56.26V68.78H62.51V62.53Z" fill="#D6D6D6"/>
<path d="M56.26 62.53H50.01V68.78H56.26V62.53Z" fill="#D6D6D6"/>
<path d="M50.01 62.53H43.76V68.78H50.01V62.53Z" fill="#D6D6D6"/>
<path d="M43.76 62.53H37.51V68.78H43.76V62.53Z" fill="#D6D6D6"/>
<path d="M37.5 62.53H31.25V68.78H37.5V62.53Z" fill="#A5A5A5"/>
<path d="M31.25 62.53H25V68.78H31.25V62.53Z" fill="#808080"/>
<path d="M25 62.53H18.75V68.78H25V62.53Z" fill="#808080"/>
<path d="M18.75 62.53H12.5V68.78H18.75V62.53Z" fill="#808080"/>
<path d="M12.5 62.53H6.25V68.78H12.5V62.53Z" fill="#808080"/>
<path d="M6.25 62.53H0V68.78H6.25V62.53Z" fill="#4C4C4C"/>
<path d="M281.29 68.78H275.04V75.03H281.29V68.78Z" fill="#4C4C4C"/>
<path d="M275.04 68.78H268.79V75.03H275.04V68.78Z" fill="#3D3D3D"/>
<path d="M268.79 68.78H262.54V75.03H268.79V68.78Z" fill="#3D3D3D"/>
<path d="M262.53 68.78H256.28V75.03H262.53V68.78Z" fill="#3D3D3D"/>
<path d="M256.28 68.78H250.03V75.03H256.28V68.78Z" fill="#808080"/>
<path d="M250.03 68.78H243.78V75.03H250.03V68.78Z" fill="#606060"/>
<path d="M243.78 68.78H237.53V75.03H243.78V68.78Z" fill="#606060"/>
<path d="M237.53 68.78H231.28V75.03H237.53V68.78Z" fill="#606060"/>
<path d="M231.28 68.78H225.03V75.03H231.28V68.78Z" fill="#606060"/>
<path d="M225.03 68.78H218.78V75.03H225.03V68.78Z" fill="#606060"/>
<path d="M218.78 68.78H212.53V75.03H218.78V68.78Z" fill="#606060"/>
<path d="M212.53 68.78H206.28V75.03H212.53V68.78Z" fill="#606060"/>
<path d="M206.28 68.78H200.03V75.03H206.28V68.78Z" fill="#606060"/>
<path d="M200.03 68.78H193.78V75.03H200.03V68.78Z" fill="#606060"/>
<path d="M193.78 68.78H187.53V75.03H193.78V68.78Z" fill="#606060"/>
<path d="M187.52 68.78H181.27V75.03H187.52V68.78Z" fill="#606060"/>
<path d="M181.27 68.78H175.02V75.03H181.27V68.78Z" fill="#606060"/>
<path d="M175.02 68.78H168.77V75.03H175.02V68.78Z" fill="#606060"/>
<path d="M168.77 68.78H162.52V75.03H168.77V68.78Z" fill="#606060"/>
<path d="M162.52 68.78H156.27V75.03H162.52V68.78Z" fill="#606060"/>
<path d="M156.27 68.78H150.02V75.03H156.27V68.78Z" fill="#606060"/>
<path d="M150.02 68.78H143.77V75.03H150.02V68.78Z" fill="#606060"/>
<path d="M143.77 68.78H137.52V75.03H143.77V68.78Z" fill="#606060"/>
<path d="M137.52 68.78H131.27V75.03H137.52V68.78Z" fill="#606060"/>
<path d="M131.27 68.78H125.02V75.03H131.27V68.78Z" fill="#606060"/>
<path d="M125.02 68.78H118.77V75.03H125.02V68.78Z" fill="#606060"/>
<path d="M118.77 68.78H112.52V75.03H118.77V68.78Z" fill="#606060"/>
<path d="M112.51 68.78H106.26V75.03H112.51V68.78Z" fill="#606060"/>
<path d="M106.26 68.78H100.01V75.03H106.26V68.78Z" fill="#606060"/>
<path d="M100.01 68.78H93.76V75.03H100.01V68.78Z" fill="#606060"/>
<path d="M93.76 68.78H87.51V75.03H93.76V68.78Z" fill="#606060"/>
<path d="M87.51 68.78H81.26V75.03H87.51V68.78Z" fill="#606060"/>
<path d="M81.26 68.78H75.01V75.03H81.26V68.78Z" fill="#606060"/>
<path d="M75.01 68.78H68.76V75.03H75.01V68.78Z" fill="#606060"/>
<path d="M68.76 68.78H62.51V75.03H68.76V68.78Z" fill="#606060"/>
<path d="M62.51 68.78H56.26V75.03H62.51V68.78Z" fill="#606060"/>
<path d="M56.26 68.78H50.01V75.03H56.26V68.78Z" fill="#606060"/>
<path d="M50.01 68.78H43.76V75.03H50.01V68.78Z" fill="#606060"/>
<path d="M43.76 68.78H37.51V75.03H43.76V68.78Z" fill="#606060"/>
<path d="M37.5 68.78H31.25V75.03H37.5V68.78Z" fill="#606060"/>
<path d="M31.25 68.78H25V75.03H31.25V68.78Z" fill="#A5A5A5"/>
<path d="M25 68.78H18.75V75.03H25V68.78Z" fill="#808080"/>
<path d="M18.75 68.78H12.5V75.03H18.75V68.78Z" fill="#808080"/>
<path d="M12.5 68.78H6.25V75.03H12.5V68.78Z" fill="#808080"/>
<path d="M6.25 68.78H0V75.03H6.25V68.78Z" fill="#4C4C4C"/>
<path d="M281.29 75.03H275.04V81.28H281.29V75.03Z" fill="#4C4C4C"/>
<path d="M275.04 75.03H268.79V81.28H275.04V75.03Z" fill="#3D3D3D"/>
<path d="M268.79 75.03H262.54V81.28H268.79V75.03Z" fill="#3D3D3D"/>
<path d="M262.53 75.03H256.28V81.28H262.53V75.03Z" fill="#808080"/>
<path d="M256.28 75.03H250.03V81.28H256.28V75.03Z" fill="#606060"/>
<path d="M250.03 75.03H243.78V81.28H250.03V75.03Z" fill="#606060"/>
<path d="M243.78 75.03H237.53V81.28H243.78V75.03Z" fill="#606060"/>
<path d="M237.53 75.03H231.28V81.28H237.53V75.03Z" fill="#606060"/>
<path d="M231.28 75.03H225.03V81.28H231.28V75.03Z" fill="#606060"/>
<path d="M225.03 75.03H218.78V81.28H225.03V75.03Z" fill="#606060"/>
<path d="M218.78 75.03H212.53V81.28H218.78V75.03Z" fill="#606060"/>
<path d="M212.53 75.03H206.28V81.28H212.53V75.03Z" fill="#606060"/>
<path d="M206.28 75.03H200.03V81.28H206.28V75.03Z" fill="#606060"/>
<path d="M200.03 75.03H193.78V81.28H200.03V75.03Z" fill="#606060"/>
<path d="M193.78 75.03H187.53V81.28H193.78V75.03Z" fill="#606060"/>
<path d="M187.52 75.03H181.27V81.28H187.52V75.03Z" fill="#606060"/>
<path d="M181.27 75.03H175.02V81.28H181.27V75.03Z" fill="#606060"/>
<path d="M175.02 75.03H168.77V81.28H175.02V75.03Z" fill="#606060"/>
<path d="M168.77 75.03H162.52V81.28H168.77V75.03Z" fill="#606060"/>
<path d="M162.52 75.03H156.27V81.28H162.52V75.03Z" fill="#606060"/>
<path d="M156.27 75.03H150.02V81.28H156.27V75.03Z" fill="#606060"/>
<path d="M150.02 75.03H143.77V81.28H150.02V75.03Z" fill="#606060"/>
<path d="M143.77 75.03H137.52V81.28H143.77V75.03Z" fill="#606060"/>
<path d="M137.52 75.03H131.27V81.28H137.52V75.03Z" fill="#606060"/>
<path d="M131.27 75.03H125.02V81.28H131.27V75.03Z" fill="#606060"/>
<path d="M125.02 75.03H118.77V81.28H125.02V75.03Z" fill="#606060"/>
<path d="M118.77 75.03H112.52V81.28H118.77V75.03Z" fill="#606060"/>
<path d="M112.51 75.03H106.26V81.28H112.51V75.03Z" fill="#606060"/>
<path d="M106.26 75.03H100.01V81.28H106.26V75.03Z" fill="#606060"/>
<path d="M100.01 75.03H93.76V81.28H100.01V75.03Z" fill="#606060"/>
<path d="M93.76 75.03H87.51V81.28H93.76V75.03Z" fill="#606060"/>
<path d="M87.51 75.03H81.26V81.28H87.51V75.03Z" fill="#606060"/>
<path d="M81.26 75.03H75.01V81.28H81.26V75.03Z" fill="#606060"/>
<path d="M75.01 75.03H68.76V81.28H75.01V75.03Z" fill="#606060"/>
<path d="M68.76 75.03H62.51V81.28H68.76V75.03Z" fill="#606060"/>
<path d="M62.51 75.03H56.26V81.28H62.51V75.03Z" fill="#606060"/>
<path d="M56.26 75.03H50.01V81.28H56.26V75.03Z" fill="#606060"/>
<path d="M50.01 75.03H43.76V81.28H50.01V75.03Z" fill="#606060"/>
<path d="M43.76 75.03H37.51V81.28H43.76V75.03Z" fill="#606060"/>
<path d="M37.5 75.03H31.25V81.28H37.5V75.03Z" fill="#606060"/>
<path d="M31.25 75.03H25V81.28H31.25V75.03Z" fill="#606060"/>
<path d="M25 75.03H18.75V81.28H25V75.03Z" fill="#A5A5A5"/>
<path d="M18.75 75.03H12.5V81.28H18.75V75.03Z" fill="#808080"/>
<path d="M12.5 75.03H6.25V81.28H12.5V75.03Z" fill="#808080"/>
<path d="M6.25 75.03H0V81.28H6.25V75.03Z" fill="#4C4C4C"/>
<path d="M281.29 81.28H275.04V87.53H281.29V81.28Z" fill="#4C4C4C"/>
<path d="M275.04 81.28H268.79V87.53H275.04V81.28Z" fill="#3D3D3D"/>
<path d="M268.79 81.28H262.54V87.53H268.79V81.28Z" fill="#808080"/>
<path d="M262.53 81.28H256.28V87.53H262.53V81.28Z" fill="#606060"/>
<path d="M256.28 81.28H250.03V87.53H256.28V81.28Z" fill="#606060"/>
<path d="M250.03 81.28H243.78V87.53H250.03V81.28Z" fill="#606060"/>
<path d="M243.78 81.28H237.53V87.53H243.78V81.28Z" fill="#606060"/>
<path d="M237.53 81.28H231.28V87.53H237.53V81.28Z" fill="#606060"/>
<path d="M231.28 81.28H225.03V87.53H231.28V81.28Z" fill="#606060"/>
<path d="M225.03 81.28H218.78V87.53H225.03V81.28Z" fill="#606060"/>
<path d="M218.78 81.28H212.53V87.53H218.78V81.28Z" fill="#606060"/>
<path d="M212.53 81.28H206.28V87.53H212.53V81.28Z" fill="#606060"/>
<path d="M206.28 81.28H200.03V87.53H206.28V81.28Z" fill="#606060"/>
<path d="M200.03 81.28H193.78V87.53H200.03V81.28Z" fill="#606060"/>
<path d="M193.78 81.28H187.53V87.53H193.78V81.28Z" fill="#606060"/>
<path d="M187.52 81.28H181.27V87.53H187.52V81.28Z" fill="#606060"/>
<path d="M181.27 81.28H175.02V87.53H181.27V81.28Z" fill="#606060"/>
<path d="M175.02 81.28H168.77V87.53H175.02V81.28Z" fill="#606060"/>
<path d="M168.77 81.28H162.52V87.53H168.77V81.28Z" fill="#606060"/>
<path d="M162.52 81.28H156.27V87.53H162.52V81.28Z" fill="#606060"/>
<path d="M156.27 81.28H150.02V87.53H156.27V81.28Z" fill="#606060"/>
<path d="M150.02 81.28H143.77V87.53H150.02V81.28Z" fill="#606060"/>
<path d="M143.77 81.28H137.52V87.53H143.77V81.28Z" fill="#606060"/>
<path d="M137.52 81.28H131.27V87.53H137.52V81.28Z" fill="#606060"/>
<path d="M131.27 81.28H125.02V87.53H131.27V81.28Z" fill="#606060"/>
<path d="M125.02 81.28H118.77V87.53H125.02V81.28Z" fill="#606060"/>
<path d="M118.77 81.28H112.52V87.53H118.77V81.28Z" fill="#606060"/>
<path d="M112.51 81.28H106.26V87.53H112.51V81.28Z" fill="#606060"/>
<path d="M106.26 81.28H100.01V87.53H106.26V81.28Z" fill="#606060"/>
<path d="M100.01 81.28H93.76V87.53H100.01V81.28Z" fill="#606060"/>
<path d="M93.76 81.28H87.51V87.53H93.76V81.28Z" fill="#606060"/>
<path d="M87.51 81.28H81.26V87.53H87.51V81.28Z" fill="#606060"/>
<path d="M81.26 81.28H75.01V87.53H81.26V81.28Z" fill="#606060"/>
<path d="M75.01 81.28H68.76V87.53H75.01V81.28Z" fill="#606060"/>
<path d="M68.76 81.28H62.51V87.53H68.76V81.28Z" fill="#606060"/>
<path d="M62.51 81.28H56.26V87.53H62.51V81.28Z" fill="#606060"/>
<path d="M56.26 81.28H50.01V87.53H56.26V81.28Z" fill="#606060"/>
<path d="M50.01 81.28H43.76V87.53H50.01V81.28Z" fill="#606060"/>
<path d="M43.76 81.28H37.51V87.53H43.76V81.28Z" fill="#606060"/>
<path d="M37.5 81.28H31.25V87.53H37.5V81.28Z" fill="#606060"/>
<path d="M31.25 81.28H25V87.53H31.25V81.28Z" fill="#606060"/>
<path d="M25 81.28H18.75V87.53H25V81.28Z" fill="#606060"/>
<path d="M18.75 81.28H12.5V87.53H18.75V81.28Z" fill="#A5A5A5"/>
<path d="M12.5 81.28H6.25V87.53H12.5V81.28Z" fill="#808080"/>
<path d="M6.25 81.28H0V87.53H6.25V81.28Z" fill="#4C4C4C"/>
<path d="M275.04 87.53H268.79V93.78H275.04V87.53Z" fill="#4C4C4C"/>
<path d="M268.79 87.53H262.54V93.78H268.79V87.53Z" fill="#606060"/>
<path d="M262.53 87.53H256.28V93.78H262.53V87.53Z" fill="#606060"/>
<path d="M256.28 87.53H250.03V93.78H256.28V87.53Z" fill="#606060"/>
<path d="M250.03 87.53H243.78V93.78H250.03V87.53Z" fill="#606060"/>
<path d="M243.78 87.53H237.53V93.78H243.78V87.53Z" fill="#606060"/>
<path d="M237.53 87.53H231.28V93.78H237.53V87.53Z" fill="#606060"/>
<path d="M231.28 87.53H225.03V93.78H231.28V87.53Z" fill="#606060"/>
<path d="M225.03 87.53H218.78V93.78H225.03V87.53Z" fill="#606060"/>
<path d="M218.78 87.53H212.53V93.78H218.78V87.53Z" fill="#606060"/>
<path d="M212.53 87.53H206.28V93.78H212.53V87.53Z" fill="#606060"/>
<path d="M206.28 87.53H200.03V93.78H206.28V87.53Z" fill="#606060"/>
<path d="M200.03 87.53H193.78V93.78H200.03V87.53Z" fill="#606060"/>
<path d="M193.78 87.53H187.53V93.78H193.78V87.53Z" fill="#606060"/>
<path d="M187.52 87.53H181.27V93.78H187.52V87.53Z" fill="#606060"/>
<path d="M181.27 87.53H175.02V93.78H181.27V87.53Z" fill="#606060"/>
<path d="M175.02 87.53H168.77V93.78H175.02V87.53Z" fill="#606060"/>
<path d="M168.77 87.53H162.52V93.78H168.77V87.53Z" fill="#606060"/>
<path d="M162.52 87.53H156.27V93.78H162.52V87.53Z" fill="#606060"/>
<path d="M156.27 87.53H150.02V93.78H156.27V87.53Z" fill="#606060"/>
<path d="M150.02 87.53H143.77V93.78H150.02V87.53Z" fill="#606060"/>
<path d="M143.77 87.53H137.52V93.78H143.77V87.53Z" fill="#606060"/>
<path d="M137.52 87.53H131.27V93.78H137.52V87.53Z" fill="#606060"/>
<path d="M131.27 87.53H125.02V93.78H131.27V87.53Z" fill="#606060"/>
<path d="M125.02 87.53H118.77V93.78H125.02V87.53Z" fill="#606060"/>
<path d="M118.77 87.53H112.52V93.78H118.77V87.53Z" fill="#606060"/>
<path d="M112.51 87.53H106.26V93.78H112.51V87.53Z" fill="#606060"/>
<path d="M106.26 87.53H100.01V93.78H106.26V87.53Z" fill="#606060"/>
<path d="M100.01 87.53H93.76V93.78H100.01V87.53Z" fill="#606060"/>
<path d="M93.76 87.53H87.51V93.78H93.76V87.53Z" fill="#606060"/>
<path d="M87.51 87.53H81.26V93.78H87.51V87.53Z" fill="#606060"/>
<path d="M81.26 87.53H75.01V93.78H81.26V87.53Z" fill="#606060"/>
<path d="M75.01 87.53H68.76V93.78H75.01V87.53Z" fill="#606060"/>
<path d="M68.76 87.53H62.51V93.78H68.76V87.53Z" fill="#606060"/>
<path d="M62.51 87.53H56.26V93.78H62.51V87.53Z" fill="#606060"/>
<path d="M56.26 87.53H50.01V93.78H56.26V87.53Z" fill="#606060"/>
<path d="M50.01 87.53H43.76V93.78H50.01V87.53Z" fill="#606060"/>
<path d="M43.76 87.53H37.51V93.78H43.76V87.53Z" fill="#606060"/>
<path d="M37.5 87.53H31.25V93.78H37.5V87.53Z" fill="#606060"/>
<path d="M31.25 87.53H25V93.78H31.25V87.53Z" fill="#606060"/>
<path d="M25 87.53H18.75V93.78H25V87.53Z" fill="#606060"/>
<path d="M18.75 87.53H12.5V93.78H18.75V87.53Z" fill="#606060"/>
<path d="M12.5 87.53H6.25V93.78H12.5V87.53Z" fill="#4C4C4C"/>
<path d="M268.79 93.78H262.54V100.03H268.79V93.78Z" fill="#4C4C4C"/>
<path d="M262.53 93.78H256.28V100.03H262.53V93.78Z" fill="#4C4C4C"/>
<path d="M256.28 93.78H250.03V100.03H256.28V93.78Z" fill="#4C4C4C"/>
<path d="M250.03 93.78H243.78V100.03H250.03V93.78Z" fill="#4C4C4C"/>
<path d="M243.78 93.78H237.53V100.03H243.78V93.78Z" fill="#4C4C4C"/>
<path d="M237.53 93.78H231.28V100.03H237.53V93.78Z" fill="#4C4C4C"/>
<path d="M231.28 93.78H225.03V100.03H231.28V93.78Z" fill="#4C4C4C"/>
<path d="M225.03 93.78H218.78V100.03H225.03V93.78Z" fill="#4C4C4C"/>
<path d="M218.78 93.78H212.53V100.03H218.78V93.78Z" fill="#4C4C4C"/>
<path d="M212.53 93.78H206.28V100.03H212.53V93.78Z" fill="#4C4C4C"/>
<path d="M206.28 93.78H200.03V100.03H206.28V93.78Z" fill="#4C4C4C"/>
<path d="M200.03 93.78H193.78V100.03H200.03V93.78Z" fill="#4C4C4C"/>
<path d="M193.78 93.78H187.53V100.03H193.78V93.78Z" fill="#4C4C4C"/>
<path d="M187.52 93.78H181.27V100.03H187.52V93.78Z" fill="#4C4C4C"/>
<path d="M181.27 93.78H175.02V100.03H181.27V93.78Z" fill="#4C4C4C"/>
<path d="M175.02 93.78H168.77V100.03H175.02V93.78Z" fill="#4C4C4C"/>
<path d="M168.77 93.78H162.52V100.03H168.77V93.78Z" fill="#4C4C4C"/>
<path d="M162.52 93.78H156.27V100.03H162.52V93.78Z" fill="#4C4C4C"/>
<path d="M156.27 93.78H150.02V100.03H156.27V93.78Z" fill="#4C4C4C"/>
<path d="M150.02 93.78H143.77V100.03H150.02V93.78Z" fill="#4C4C4C"/>
<path d="M143.77 93.78H137.52V100.03H143.77V93.78Z" fill="#4C4C4C"/>
<path d="M137.52 93.78H131.27V100.03H137.52V93.78Z" fill="#4C4C4C"/>
<path d="M131.27 93.78H125.02V100.03H131.27V93.78Z" fill="#4C4C4C"/>
<path d="M125.02 93.78H118.77V100.03H125.02V93.78Z" fill="#4C4C4C"/>
<path d="M118.77 93.78H112.52V100.03H118.77V93.78Z" fill="#4C4C4C"/>
<path d="M112.51 93.78H106.26V100.03H112.51V93.78Z" fill="#4C4C4C"/>
<path d="M106.26 93.78H100.01V100.03H106.26V93.78Z" fill="#4C4C4C"/>
<path d="M100.01 93.78H93.76V100.03H100.01V93.78Z" fill="#4C4C4C"/>
<path d="M93.76 93.78H87.51V100.03H93.76V93.78Z" fill="#4C4C4C"/>
<path d="M87.51 93.78H81.26V100.03H87.51V93.78Z" fill="#4C4C4C"/>
<path d="M81.26 93.78H75.01V100.03H81.26V93.78Z" fill="#4C4C4C"/>
<path d="M75.01 93.78H68.76V100.03H75.01V93.78Z" fill="#4C4C4C"/>
<path d="M68.76 93.78H62.51V100.03H68.76V93.78Z" fill="#4C4C4C"/>
<path d="M62.51 93.78H56.26V100.03H62.51V93.78Z" fill="#4C4C4C"/>
<path d="M56.26 93.78H50.01V100.03H56.26V93.78Z" fill="#4C4C4C"/>
<path d="M50.01 93.78H43.76V100.03H50.01V93.78Z" fill="#4C4C4C"/>
<path d="M43.76 93.78H37.51V100.03H43.76V93.78Z" fill="#4C4C4C"/>
<path d="M37.5 93.78H31.25V100.03H37.5V93.78Z" fill="#4C4C4C"/>
<path d="M31.25 93.78H25V100.03H31.25V93.78Z" fill="#4C4C4C"/>
<path d="M25 93.78H18.75V100.03H25V93.78Z" fill="#4C4C4C"/>
<path d="M18.75 93.78H12.5V100.03H18.75V93.78Z" fill="#4C4C4C"/>
<path d="M116.42 47V22H135.17V25.12H138.29V31.37H135.17V34.49H138.29V46.99H132.04V34.49H122.66V46.99H116.41L116.42 47ZM132.05 31.38V25.13H122.67V31.38H132.05Z" fill="#E5E5E5"/>
<path d="M142.99 47V34.5H146.11V31.38H158.62V25.13H149.24V28.25H142.99V25.13H146.11V22.01H161.74V25.13H164.86V31.38H161.74V34.5H149.24V43.88H158.62V40.76H164.87V47.01H142.99V47Z" fill="#E5E5E5"/>
<path d="M116.42 53.25V28.25H135.17V31.37H138.29V37.62H135.17V40.74H138.29V53.24H132.04V40.74H122.66V53.24H116.41L116.42 53.25ZM132.05 37.63V31.38H122.67V37.63H132.05Z" fill="#808080"/>
<path d="M142.99 53.25V40.75H146.11V37.63H158.62V31.38H149.24V34.5H142.99V31.38H146.11V28.26H161.74V31.38H164.86V37.63H161.74V40.75H149.24V50.13H158.62V47.01H164.87V53.26H142.99V53.25Z" fill="#808080"/>
<path d="M116.42 50.03V25.03H135.17V28.15H138.29V34.4H135.17V37.52H138.29V50.02H132.04V37.52H122.66V50.02H116.41L116.42 50.03ZM132.05 34.4V28.15H122.67V34.4H132.05Z" fill="#282828"/>
<path d="M142.99 50.03V37.53H146.11V34.41H158.62V28.16H149.24V31.28H142.99V28.16H146.11V25.04H161.74V28.16H164.86V34.41H161.74V37.53H149.24V46.91H158.62V43.79H164.87V50.04H142.99V50.03Z" fill="#282828"/>
</g>
<defs>
<clipPath id="clip0_3_11151">
<rect width="281.29" height="100.01" fill="white" transform="translate(0 0.0200195)"/>
</clipPath>
</defs>
</svg>
