<svg width="282" height="101" viewBox="0 0 282 101" fill="none" xmlns="http://www.w3.org/2000/svg">
<g clip-path="url(#clip0_3_51834)">
<path d="M12.5 0.0100098V6.26001H6.25V12.51H0V87.52H6.25V93.77H12.5V100.02H37.5V100.01H37.51V100.02H112.51V100.01H112.52V100.02H187.52V100.01H187.53V100.02H262.53V100.01H262.54V100.02H268.79V93.77H275.04V87.52H281.29V37.52H281V37.51H281.29V12.51H275.04V6.26001H268.79V0.0100098H12.5Z" fill="#4C4C4C"/>
<path d="M268.79 0.0100098H262.54V6.26001H268.79V0.0100098Z" fill="#4C4C4C"/>
<path d="M262.53 0.0100098H256.28V6.26001H262.53V0.0100098Z" fill="#4C4C4C"/>
<path d="M256.28 0.0100098H250.03V6.26001H256.28V0.0100098Z" fill="#4C4C4C"/>
<path d="M250.03 0.0100098H243.78V6.26001H250.03V0.0100098Z" fill="#4C4C4C"/>
<path d="M243.78 0.0100098H237.53V6.26001H243.78V0.0100098Z" fill="#4C4C4C"/>
<path d="M237.53 0.0100098H231.28V6.26001H237.53V0.0100098Z" fill="#4C4C4C"/>
<path d="M231.28 0.0100098H225.03V6.26001H231.28V0.0100098Z" fill="#4C4C4C"/>
<path d="M225.03 0.0100098H218.78V6.26001H225.03V0.0100098Z" fill="#4C4C4C"/>
<path d="M218.78 0.0100098H212.53V6.26001H218.78V0.0100098Z" fill="#4C4C4C"/>
<path d="M212.53 0.0100098H206.28V6.26001H212.53V0.0100098Z" fill="#4C4C4C"/>
<path d="M206.28 0.0100098H200.03V6.26001H206.28V0.0100098Z" fill="#4C4C4C"/>
<path d="M200.03 0.0100098H193.78V6.26001H200.03V0.0100098Z" fill="#4C4C4C"/>
<path d="M193.78 0.0100098H187.53V6.26001H193.78V0.0100098Z" fill="#4C4C4C"/>
<path d="M187.52 0.0100098H181.27V6.26001H187.52V0.0100098Z" fill="#4C4C4C"/>
<path d="M181.27 0.0100098H175.02V6.26001H181.27V0.0100098Z" fill="#4C4C4C"/>
<path d="M175.02 0.0100098H168.77V6.26001H175.02V0.0100098Z" fill="#4C4C4C"/>
<path d="M168.77 0.0100098H162.52V6.26001H168.77V0.0100098Z" fill="#4C4C4C"/>
<path d="M162.52 0.0100098H156.27V6.26001H162.52V0.0100098Z" fill="#4C4C4C"/>
<path d="M156.27 0.0100098H150.02V6.26001H156.27V0.0100098Z" fill="#4C4C4C"/>
<path d="M150.02 0.0100098H143.77V6.26001H150.02V0.0100098Z" fill="#4C4C4C"/>
<path d="M143.77 0.0100098H137.52V6.26001H143.77V0.0100098Z" fill="#4C4C4C"/>
<path d="M137.52 0.0100098H131.27V6.26001H137.52V0.0100098Z" fill="#4C4C4C"/>
<path d="M131.27 0.0100098H125.02V6.26001H131.27V0.0100098Z" fill="#4C4C4C"/>
<path d="M125.02 0.0100098H118.77V6.26001H125.02V0.0100098Z" fill="#4C4C4C"/>
<path d="M118.77 0.0100098H112.52V6.26001H118.77V0.0100098Z" fill="#4C4C4C"/>
<path d="M112.51 0.0100098H106.26V6.26001H112.51V0.0100098Z" fill="#4C4C4C"/>
<path d="M106.26 0.0100098H100.01V6.26001H106.26V0.0100098Z" fill="#4C4C4C"/>
<path d="M100.01 0.0100098H93.76V6.26001H100.01V0.0100098Z" fill="#4C4C4C"/>
<path d="M93.76 0.0100098H87.51V6.26001H93.76V0.0100098Z" fill="#4C4C4C"/>
<path d="M87.51 0.0100098H81.26V6.26001H87.51V0.0100098Z" fill="#4C4C4C"/>
<path d="M81.26 0.0100098H75.01V6.26001H81.26V0.0100098Z" fill="#4C4C4C"/>
<path d="M75.01 0.0100098H68.76V6.26001H75.01V0.0100098Z" fill="#4C4C4C"/>
<path d="M68.76 0.0100098H62.51V6.26001H68.76V0.0100098Z" fill="#4C4C4C"/>
<path d="M62.51 0.0100098H56.26V6.26001H62.51V0.0100098Z" fill="#4C4C4C"/>
<path d="M56.26 0.0100098H50.01V6.26001H56.26V0.0100098Z" fill="#4C4C4C"/>
<path d="M50.01 0.0100098H43.76V6.26001H50.01V0.0100098Z" fill="#4C4C4C"/>
<path d="M43.76 0.0100098H37.51V6.26001H43.76V0.0100098Z" fill="#4C4C4C"/>
<path d="M37.5 0.0100098H31.25V6.26001H37.5V0.0100098Z" fill="#4C4C4C"/>
<path d="M31.25 0.0100098H25V6.26001H31.25V0.0100098Z" fill="#4C4C4C"/>
<path d="M25 0.0100098H18.75V6.26001H25V0.0100098Z" fill="#4C4C4C"/>
<path d="M18.75 0.0100098H12.5V6.26001H18.75V0.0100098Z" fill="#4C4C4C"/>
<path d="M275.04 6.26001H268.79V12.51H275.04V6.26001Z" fill="#4C4C4C"/>
<path d="M268.79 6.26001H262.54V12.51H268.79V6.26001Z" fill="#3D3D3D"/>
<path d="M262.53 6.26001H256.28V12.51H262.53V6.26001Z" fill="#3D3D3D"/>
<path d="M256.28 6.26001H250.03V12.51H256.28V6.26001Z" fill="#3D3D3D"/>
<path d="M250.03 6.26001H243.78V12.51H250.03V6.26001Z" fill="#3D3D3D"/>
<path d="M243.78 6.26001H237.53V12.51H243.78V6.26001Z" fill="#D6D6D6"/>
<path d="M237.53 6.26001H231.28V12.51H237.53V6.26001Z" fill="#A5A5A5"/>
<path d="M231.28 6.26001H225.03V12.51H231.28V6.26001Z" fill="#A5A5A5"/>
<path d="M225.03 6.26001H218.78V12.51H225.03V6.26001Z" fill="#A5A5A5"/>
<path d="M218.78 6.26001H212.53V12.51H218.78V6.26001Z" fill="#A5A5A5"/>
<path d="M212.53 6.26001H206.28V12.51H212.53V6.26001Z" fill="#A5A5A5"/>
<path d="M206.28 6.26001H200.03V12.51H206.28V6.26001Z" fill="#A5A5A5"/>
<path d="M200.03 6.26001H193.78V12.51H200.03V6.26001Z" fill="#A5A5A5"/>
<path d="M193.78 6.26001H187.53V12.51H193.78V6.26001Z" fill="#A5A5A5"/>
<path d="M187.52 6.26001H181.27V12.51H187.52V6.26001Z" fill="#A5A5A5"/>
<path d="M181.27 6.26001H175.02V12.51H181.27V6.26001Z" fill="#A5A5A5"/>
<path d="M175.02 6.26001H168.77V12.51H175.02V6.26001Z" fill="#A5A5A5"/>
<path d="M168.77 6.26001H162.52V12.51H168.77V6.26001Z" fill="#A5A5A5"/>
<path d="M162.52 6.26001H156.27V12.51H162.52V6.26001Z" fill="#A5A5A5"/>
<path d="M156.27 6.26001H150.02V12.51H156.27V6.26001Z" fill="#D6D6D6"/>
<path d="M150.02 6.26001H143.77V12.51H150.02V6.26001Z" fill="#D6D6D6"/>
<path d="M143.77 6.26001H137.52V12.51H143.77V6.26001Z" fill="#D6D6D6"/>
<path d="M137.52 6.26001H131.27V12.51H137.52V6.26001Z" fill="#A5A5A5"/>
<path d="M131.27 6.26001H125.02V12.51H131.27V6.26001Z" fill="#A5A5A5"/>
<path d="M125.02 6.26001H118.77V12.51H125.02V6.26001Z" fill="#A5A5A5"/>
<path d="M118.77 6.26001H112.52V12.51H118.77V6.26001Z" fill="#D6D6D6"/>
<path d="M112.51 6.26001H106.26V12.51H112.51V6.26001Z" fill="#A5A5A5"/>
<path d="M106.26 6.26001H100.01V12.51H106.26V6.26001Z" fill="#A5A5A5"/>
<path d="M100.01 6.26001H93.76V12.51H100.01V6.26001Z" fill="#A5A5A5"/>
<path d="M93.76 6.26001H87.51V12.51H93.76V6.26001Z" fill="#A5A5A5"/>
<path d="M87.51 6.26001H81.26V12.51H87.51V6.26001Z" fill="#A5A5A5"/>
<path d="M81.26 6.26001H75.01V12.51H81.26V6.26001Z" fill="#A5A5A5"/>
<path d="M75.01 6.26001H68.76V12.51H75.01V6.26001Z" fill="#A5A5A5"/>
<path d="M68.76 6.26001H62.51V12.51H68.76V6.26001Z" fill="#A5A5A5"/>
<path d="M62.51 6.26001H56.26V12.51H62.51V6.26001Z" fill="#A5A5A5"/>
<path d="M56.26 6.26001H50.01V12.51H56.26V6.26001Z" fill="#A5A5A5"/>
<path d="M50.01 6.26001H43.76V12.51H50.01V6.26001Z" fill="#A5A5A5"/>
<path d="M43.76 6.26001H37.51V12.51H43.76V6.26001Z" fill="#D6D6D6"/>
<path d="M37.5 6.26001H31.25V12.51H37.5V6.26001Z" fill="#808080"/>
<path d="M31.25 6.26001H25V12.51H31.25V6.26001Z" fill="#808080"/>
<path d="M25 6.26001H18.75V12.51H25V6.26001Z" fill="#808080"/>
<path d="M18.75 6.26001H12.5V12.51H18.75V6.26001Z" fill="#808080"/>
<path d="M12.5 6.26001H6.25V12.51H12.5V6.26001Z" fill="#4C4C4C"/>
<path d="M281.29 12.51H275.04V18.76H281.29V12.51Z" fill="#4C4C4C"/>
<path d="M275.04 12.51H268.79V18.76H275.04V12.51Z" fill="#3D3D3D"/>
<path d="M268.79 12.51H262.54V18.76H268.79V12.51Z" fill="#3D3D3D"/>
<path d="M262.53 12.51H256.28V18.76H262.53V12.51Z" fill="#3D3D3D"/>
<path d="M256.28 12.51H250.03V18.76H256.28V12.51Z" fill="#3D3D3D"/>
<path d="M250.03 12.51H243.78V18.76H250.03V12.51Z" fill="#D6D6D6"/>
<path d="M243.78 12.51H237.53V18.76H243.78V12.51Z" fill="#A5A5A5"/>
<path d="M237.53 12.51H231.28V18.76H237.53V12.51Z" fill="#A5A5A5"/>
<path d="M231.28 12.51H225.03V18.76H231.28V12.51Z" fill="#A5A5A5"/>
<path d="M225.03 12.51H218.78V18.76H225.03V12.51Z" fill="#A5A5A5"/>
<path d="M218.78 12.51H212.53V18.76H218.78V12.51Z" fill="#A5A5A5"/>
<path d="M212.53 12.51H206.28V18.76H212.53V12.51Z" fill="#A5A5A5"/>
<path d="M206.28 12.51H200.03V18.76H206.28V12.51Z" fill="#A5A5A5"/>
<path d="M200.03 12.51H193.78V18.76H200.03V12.51Z" fill="#A5A5A5"/>
<path d="M193.78 12.51H187.53V18.76H193.78V12.51Z" fill="#A5A5A5"/>
<path d="M187.52 12.51H181.27V18.76H187.52V12.51Z" fill="#A5A5A5"/>
<path d="M181.27 12.51H175.02V18.76H181.27V12.51Z" fill="#A5A5A5"/>
<path d="M175.02 12.51H168.77V18.76H175.02V12.51Z" fill="#A5A5A5"/>
<path d="M168.77 12.51H162.52V18.76H168.77V12.51Z" fill="#A5A5A5"/>
<path d="M162.52 12.51H156.27V18.76H162.52V12.51Z" fill="#D6D6D6"/>
<path d="M156.27 12.51H150.02V18.76H156.27V12.51Z" fill="#D6D6D6"/>
<path d="M150.02 12.51H143.77V18.76H150.02V12.51Z" fill="#D6D6D6"/>
<path d="M143.77 12.51H137.52V18.76H143.77V12.51Z" fill="#A5A5A5"/>
<path d="M137.52 12.51H131.27V18.76H137.52V12.51Z" fill="#A5A5A5"/>
<path d="M131.27 12.51H125.02V18.76H131.27V12.51Z" fill="#A5A5A5"/>
<path d="M125.02 12.51H118.77V18.76H125.02V12.51Z" fill="#D6D6D6"/>
<path d="M118.77 12.51H112.52V18.76H118.77V12.51Z" fill="#A5A5A5"/>
<path d="M112.51 12.51H106.26V18.76H112.51V12.51Z" fill="#A5A5A5"/>
<path d="M106.26 12.51H100.01V18.76H106.26V12.51Z" fill="#A5A5A5"/>
<path d="M100.01 12.51H93.76V18.76H100.01V12.51Z" fill="#A5A5A5"/>
<path d="M93.76 12.51H87.51V18.76H93.76V12.51Z" fill="#A5A5A5"/>
<path d="M87.51 12.51H81.26V18.76H87.51V12.51Z" fill="#A5A5A5"/>
<path d="M81.26 12.51H75.01V18.76H81.26V12.51Z" fill="#A5A5A5"/>
<path d="M75.01 12.51H68.76V18.76H75.01V12.51Z" fill="#A5A5A5"/>
<path d="M68.76 12.51H62.51V18.76H68.76V12.51Z" fill="#A5A5A5"/>
<path d="M62.51 12.51H56.26V18.76H62.51V12.51Z" fill="#A5A5A5"/>
<path d="M56.26 12.51H50.01V18.76H56.26V12.51Z" fill="#A5A5A5"/>
<path d="M50.01 12.51H43.76V18.76H50.01V12.51Z" fill="#A5A5A5"/>
<path d="M43.76 12.51H37.51V18.76H43.76V12.51Z" fill="#A5A5A5"/>
<path d="M37.5 12.51H31.25V18.76H37.5V12.51Z" fill="#D6D6D6"/>
<path d="M31.25 12.51H25V18.76H31.25V12.51Z" fill="#808080"/>
<path d="M25 12.51H18.75V18.76H25V12.51Z" fill="#808080"/>
<path d="M18.75 12.51H12.5V18.76H18.75V12.51Z" fill="#808080"/>
<path d="M12.5 12.51H6.25V18.76H12.5V12.51Z" fill="#808080"/>
<path d="M6.25 12.51H0V18.76H6.25V12.51Z" fill="#4C4C4C"/>
<path d="M281.29 18.76H275.04V25.01H281.29V18.76Z" fill="#4C4C4C"/>
<path d="M275.04 18.76H268.79V25.01H275.04V18.76Z" fill="#3D3D3D"/>
<path d="M268.79 18.76H262.54V25.01H268.79V18.76Z" fill="#3D3D3D"/>
<path d="M262.53 18.76H256.28V25.01H262.53V18.76Z" fill="#3D3D3D"/>
<path d="M256.28 18.76H250.03V25.01H256.28V18.76Z" fill="#3D3D3D"/>
<path d="M250.03 18.76H243.78V25.01H250.03V18.76Z" fill="#A5A5A5"/>
<path d="M243.78 18.76H237.53V25.01H243.78V18.76Z" fill="#A5A5A5"/>
<path d="M237.53 18.76H231.28V25.01H237.53V18.76Z" fill="#A5A5A5"/>
<path d="M231.28 18.76H225.03V25.01H231.28V18.76Z" fill="#A5A5A5"/>
<path d="M225.03 18.76H218.78V25.01H225.03V18.76Z" fill="#A5A5A5"/>
<path d="M218.78 18.76H212.53V25.01H218.78V18.76Z" fill="#A5A5A5"/>
<path d="M212.53 18.76H206.28V25.01H212.53V18.76Z" fill="#A5A5A5"/>
<path d="M206.28 18.76H200.03V25.01H206.28V18.76Z" fill="#A5A5A5"/>
<path d="M200.03 18.76H193.78V25.01H200.03V18.76Z" fill="#A5A5A5"/>
<path d="M193.78 18.76H187.53V25.01H193.78V18.76Z" fill="#A5A5A5"/>
<path d="M187.52 18.76H181.27V25.01H187.52V18.76Z" fill="#A5A5A5"/>
<path d="M181.27 18.76H175.02V25.01H181.27V18.76Z" fill="#A5A5A5"/>
<path d="M175.02 18.76H168.77V25.01H175.02V18.76Z" fill="#A5A5A5"/>
<path d="M168.77 18.76H162.52V25.01H168.77V18.76Z" fill="#D6D6D6"/>
<path d="M162.52 18.76H156.27V25.01H162.52V18.76Z" fill="#D6D6D6"/>
<path d="M156.27 18.76H150.02V25.01H156.27V18.76Z" fill="#D6D6D6"/>
<path d="M150.02 18.76H143.77V25.01H150.02V18.76Z" fill="#A5A5A5"/>
<path d="M143.77 18.76H137.52V25.01H143.77V18.76Z" fill="#A5A5A5"/>
<path d="M137.52 18.76H131.27V25.01H137.52V18.76Z" fill="#A5A5A5"/>
<path d="M131.27 18.76H125.02V25.01H131.27V18.76Z" fill="#D6D6D6"/>
<path d="M125.02 18.76H118.77V25.01H125.02V18.76Z" fill="#A5A5A5"/>
<path d="M118.77 18.76H112.52V25.01H118.77V18.76Z" fill="#A5A5A5"/>
<path d="M112.51 18.76H106.26V25.01H112.51V18.76Z" fill="#A5A5A5"/>
<path d="M106.26 18.76H100.01V25.01H106.26V18.76Z" fill="#A5A5A5"/>
<path d="M100.01 18.76H93.76V25.01H100.01V18.76Z" fill="#A5A5A5"/>
<path d="M93.76 18.76H87.51V25.01H93.76V18.76Z" fill="#A5A5A5"/>
<path d="M87.51 18.76H81.26V25.01H87.51V18.76Z" fill="#A5A5A5"/>
<path d="M81.26 18.76H75.01V25.01H81.26V18.76Z" fill="#A5A5A5"/>
<path d="M75.01 18.76H68.76V25.01H75.01V18.76Z" fill="#A5A5A5"/>
<path d="M68.76 18.76H62.51V25.01H68.76V18.76Z" fill="#A5A5A5"/>
<path d="M62.51 18.76H56.26V25.01H62.51V18.76Z" fill="#A5A5A5"/>
<path d="M56.26 18.76H50.01V25.01H56.26V18.76Z" fill="#A5A5A5"/>
<path d="M50.01 18.76H43.76V25.01H50.01V18.76Z" fill="#A5A5A5"/>
<path d="M43.76 18.76H37.51V25.01H43.76V18.76Z" fill="#A5A5A5"/>
<path d="M37.5 18.76H31.25V25.01H37.5V18.76Z" fill="#A5A5A5"/>
<path d="M31.25 18.76H25V25.01H31.25V18.76Z" fill="#808080"/>
<path d="M25 18.76H18.75V25.01H25V18.76Z" fill="#808080"/>
<path d="M18.75 18.76H12.5V25.01H18.75V18.76Z" fill="#808080"/>
<path d="M12.5 18.76H6.25V25.01H12.5V18.76Z" fill="#808080"/>
<path d="M6.25 18.76H0V25.01H6.25V18.76Z" fill="#4C4C4C"/>
<path d="M281.29 25.01H275.04V31.26H281.29V25.01Z" fill="#4C4C4C"/>
<path d="M275.04 25.01H268.79V31.26H275.04V25.01Z" fill="#3D3D3D"/>
<path d="M268.79 25.01H262.54V31.26H268.79V25.01Z" fill="#3D3D3D"/>
<path d="M262.53 25.01H256.28V31.26H262.53V25.01Z" fill="#3D3D3D"/>
<path d="M256.28 25.01H250.03V31.26H256.28V25.01Z" fill="#3D3D3D"/>
<path d="M250.03 25.01H243.78V31.26H250.03V25.01Z" fill="#A5A5A5"/>
<path d="M243.78 25.01H237.53V31.26H243.78V25.01Z" fill="#A5A5A5"/>
<path d="M237.53 25.01H231.28V31.26H237.53V25.01Z" fill="#A5A5A5"/>
<path d="M231.28 25.01H225.03V31.26H231.28V25.01Z" fill="#A5A5A5"/>
<path d="M225.03 25.01H218.78V31.26H225.03V25.01Z" fill="#A5A5A5"/>
<path d="M218.78 25.01H212.53V31.26H218.78V25.01Z" fill="#A5A5A5"/>
<path d="M212.53 25.01H206.28V31.26H212.53V25.01Z" fill="#A5A5A5"/>
<path d="M206.28 25.01H200.03V31.26H206.28V25.01Z" fill="#A5A5A5"/>
<path d="M200.03 25.01H193.78V31.26H200.03V25.01Z" fill="#A5A5A5"/>
<path d="M193.78 25.01H187.53V31.26H193.78V25.01Z" fill="#A5A5A5"/>
<path d="M187.52 25.01H181.27V31.26H187.52V25.01Z" fill="#A5A5A5"/>
<path d="M181.27 25.01H175.02V31.26H181.27V25.01Z" fill="#A5A5A5"/>
<path d="M175.02 25.01H168.77V31.26H175.02V25.01Z" fill="#D6D6D6"/>
<path d="M168.77 25.01H162.52V31.26H168.77V25.01Z" fill="#D6D6D6"/>
<path d="M162.52 25.01H156.27V31.26H162.52V25.01Z" fill="#D6D6D6"/>
<path d="M156.27 25.01H150.02V31.26H156.27V25.01Z" fill="#A5A5A5"/>
<path d="M150.02 25.01H143.77V31.26H150.02V25.01Z" fill="#A5A5A5"/>
<path d="M143.77 25.01H137.52V31.26H143.77V25.01Z" fill="#A5A5A5"/>
<path d="M137.52 25.01H131.27V31.26H137.52V25.01Z" fill="#D6D6D6"/>
<path d="M131.27 25.01H125.02V31.26H131.27V25.01Z" fill="#A5A5A5"/>
<path d="M125.02 25.01H118.77V31.26H125.02V25.01Z" fill="#A5A5A5"/>
<path d="M118.77 25.01H112.52V31.26H118.77V25.01Z" fill="#A5A5A5"/>
<path d="M112.51 25.01H106.26V31.26H112.51V25.01Z" fill="#A5A5A5"/>
<path d="M106.26 25.01H100.01V31.26H106.26V25.01Z" fill="#A5A5A5"/>
<path d="M100.01 25.01H93.76V31.26H100.01V25.01Z" fill="#A5A5A5"/>
<path d="M93.76 25.01H87.51V31.26H93.76V25.01Z" fill="#A5A5A5"/>
<path d="M87.51 25.01H81.26V31.26H87.51V25.01Z" fill="#A5A5A5"/>
<path d="M81.26 25.01H75.01V31.26H81.26V25.01Z" fill="#A5A5A5"/>
<path d="M75.01 25.01H68.76V31.26H75.01V25.01Z" fill="#A5A5A5"/>
<path d="M68.76 25.01H62.51V31.26H68.76V25.01Z" fill="#A5A5A5"/>
<path d="M62.51 25.01H56.26V31.26H62.51V25.01Z" fill="#A5A5A5"/>
<path d="M56.26 25.01H50.01V31.26H56.26V25.01Z" fill="#A5A5A5"/>
<path d="M50.01 25.01H43.76V31.26H50.01V25.01Z" fill="#A5A5A5"/>
<path d="M43.76 25.01H37.51V31.26H43.76V25.01Z" fill="#A5A5A5"/>
<path d="M37.5 25.01H31.25V31.26H37.5V25.01Z" fill="#A5A5A5"/>
<path d="M31.25 25.01H25V31.26H31.25V25.01Z" fill="#808080"/>
<path d="M25 25.01H18.75V31.26H25V25.01Z" fill="#808080"/>
<path d="M18.75 25.01H12.5V31.26H18.75V25.01Z" fill="#808080"/>
<path d="M12.5 25.01H6.25V31.26H12.5V25.01Z" fill="#808080"/>
<path d="M6.25 25.01H0V31.26H6.25V25.01Z" fill="#4C4C4C"/>
<path d="M281.29 31.26H275.04V37.51H281.29V31.26Z" fill="#4C4C4C"/>
<path d="M275.04 31.26H268.79V37.51H275.04V31.26Z" fill="#3D3D3D"/>
<path d="M268.79 31.26H262.54V37.51H268.79V31.26Z" fill="#3D3D3D"/>
<path d="M262.53 31.26H256.28V37.51H262.53V31.26Z" fill="#3D3D3D"/>
<path d="M256.28 31.26H250.03V37.51H256.28V31.26Z" fill="#3D3D3D"/>
<path d="M250.03 31.26H243.78V37.51H250.03V31.26Z" fill="#A5A5A5"/>
<path d="M243.78 31.26H237.53V37.51H243.78V31.26Z" fill="#A5A5A5"/>
<path d="M237.53 31.26H231.28V37.51H237.53V31.26Z" fill="#A5A5A5"/>
<path d="M231.28 31.26H225.03V37.51H231.28V31.26Z" fill="#A5A5A5"/>
<path d="M225.03 31.26H218.78V37.51H225.03V31.26Z" fill="#A5A5A5"/>
<path d="M218.78 31.26H212.53V37.51H218.78V31.26Z" fill="#A5A5A5"/>
<path d="M212.53 31.26H206.28V37.51H212.53V31.26Z" fill="#A5A5A5"/>
<path d="M206.28 31.26H200.03V37.51H206.28V31.26Z" fill="#A5A5A5"/>
<path d="M200.03 31.26H193.78V37.51H200.03V31.26Z" fill="#A5A5A5"/>
<path d="M193.78 31.26H187.53V37.51H193.78V31.26Z" fill="#A5A5A5"/>
<path d="M187.52 31.26H181.27V37.51H187.52V31.26Z" fill="#A5A5A5"/>
<path d="M181.27 31.26H175.02V37.51H181.27V31.26Z" fill="#D6D6D6"/>
<path d="M175.02 31.26H168.77V37.51H175.02V31.26Z" fill="#D6D6D6"/>
<path d="M168.77 31.26H162.52V37.51H168.77V31.26Z" fill="#D6D6D6"/>
<path d="M162.52 31.26H156.27V37.51H162.52V31.26Z" fill="#A5A5A5"/>
<path d="M156.27 31.26H150.02V37.51H156.27V31.26Z" fill="#A5A5A5"/>
<path d="M150.02 31.26H143.77V37.51H150.02V31.26Z" fill="#A5A5A5"/>
<path d="M143.77 31.26H137.52V37.51H143.77V31.26Z" fill="#D6D6D6"/>
<path d="M137.52 31.26H131.27V37.51H137.52V31.26Z" fill="#A5A5A5"/>
<path d="M131.27 31.26H125.02V37.51H131.27V31.26Z" fill="#A5A5A5"/>
<path d="M125.02 31.26H118.77V37.51H125.02V31.26Z" fill="#A5A5A5"/>
<path d="M118.77 31.26H112.52V37.51H118.77V31.26Z" fill="#A5A5A5"/>
<path d="M112.51 31.26H106.26V37.51H112.51V31.26Z" fill="#A5A5A5"/>
<path d="M106.26 31.26H100.01V37.51H106.26V31.26Z" fill="#A5A5A5"/>
<path d="M100.01 31.26H93.76V37.51H100.01V31.26Z" fill="#A5A5A5"/>
<path d="M93.76 31.26H87.51V37.51H93.76V31.26Z" fill="#A5A5A5"/>
<path d="M87.51 31.26H81.26V37.51H87.51V31.26Z" fill="#A5A5A5"/>
<path d="M81.26 31.26H75.01V37.51H81.26V31.26Z" fill="#A5A5A5"/>
<path d="M75.01 31.26H68.76V37.51H75.01V31.26Z" fill="#A5A5A5"/>
<path d="M68.76 31.26H62.51V37.51H68.76V31.26Z" fill="#A5A5A5"/>
<path d="M62.51 31.26H56.26V37.51H62.51V31.26Z" fill="#A5A5A5"/>
<path d="M56.26 31.26H50.01V37.51H56.26V31.26Z" fill="#A5A5A5"/>
<path d="M50.01 31.26H43.76V37.51H50.01V31.26Z" fill="#A5A5A5"/>
<path d="M43.76 31.26H37.51V37.51H43.76V31.26Z" fill="#A5A5A5"/>
<path d="M37.5 31.26H31.25V37.51H37.5V31.26Z" fill="#A5A5A5"/>
<path d="M31.25 31.26H25V37.51H31.25V31.26Z" fill="#808080"/>
<path d="M25 31.26H18.75V37.51H25V31.26Z" fill="#808080"/>
<path d="M18.75 31.26H12.5V37.51H18.75V31.26Z" fill="#808080"/>
<path d="M12.5 31.26H6.25V37.51H12.5V31.26Z" fill="#808080"/>
<path d="M6.25 31.26H0V37.51H6.25V31.26Z" fill="#4C4C4C"/>
<path d="M281.29 37.52H275.04V43.77H281.29V37.52Z" fill="#4C4C4C"/>
<path d="M275.04 37.52H268.79V43.77H275.04V37.52Z" fill="#3D3D3D"/>
<path d="M268.79 37.52H262.54V43.77H268.79V37.52Z" fill="#3D3D3D"/>
<path d="M262.53 37.52H256.28V43.77H262.53V37.52Z" fill="#3D3D3D"/>
<path d="M256.28 37.52H250.03V43.77H256.28V37.52Z" fill="#3D3D3D"/>
<path d="M250.03 37.52H243.78V43.77H250.03V37.52Z" fill="#A5A5A5"/>
<path d="M243.78 37.52H237.53V43.77H243.78V37.52Z" fill="#A5A5A5"/>
<path d="M237.53 37.52H231.28V43.77H237.53V37.52Z" fill="#A5A5A5"/>
<path d="M231.28 37.52H225.03V43.77H231.28V37.52Z" fill="#A5A5A5"/>
<path d="M225.03 37.52H218.78V43.77H225.03V37.52Z" fill="#A5A5A5"/>
<path d="M218.78 37.52H212.53V43.77H218.78V37.52Z" fill="#A5A5A5"/>
<path d="M212.53 37.52H206.28V43.77H212.53V37.52Z" fill="#A5A5A5"/>
<path d="M206.28 37.52H200.03V43.77H206.28V37.52Z" fill="#A5A5A5"/>
<path d="M200.03 37.52H193.78V43.77H200.03V37.52Z" fill="#A5A5A5"/>
<path d="M193.78 37.52H187.53V43.77H193.78V37.52Z" fill="#A5A5A5"/>
<path d="M187.52 37.52H181.27V43.77H187.52V37.52Z" fill="#D6D6D6"/>
<path d="M181.27 37.52H175.02V43.77H181.27V37.52Z" fill="#D6D6D6"/>
<path d="M175.02 37.52H168.77V43.77H175.02V37.52Z" fill="#D6D6D6"/>
<path d="M168.77 37.52H162.52V43.77H168.77V37.52Z" fill="#A5A5A5"/>
<path d="M162.52 37.52H156.27V43.77H162.52V37.52Z" fill="#A5A5A5"/>
<path d="M156.27 37.52H150.02V43.77H156.27V37.52Z" fill="#A5A5A5"/>
<path d="M150.02 37.52H143.77V43.77H150.02V37.52Z" fill="#D6D6D6"/>
<path d="M143.77 37.52H137.52V43.77H143.77V37.52Z" fill="#A5A5A5"/>
<path d="M137.52 37.52H131.27V43.77H137.52V37.52Z" fill="#A5A5A5"/>
<path d="M131.27 37.52H125.02V43.77H131.27V37.52Z" fill="#A5A5A5"/>
<path d="M125.02 37.52H118.77V43.77H125.02V37.52Z" fill="#A5A5A5"/>
<path d="M118.77 37.52H112.52V43.77H118.77V37.52Z" fill="#A5A5A5"/>
<path d="M112.51 37.52H106.26V43.77H112.51V37.52Z" fill="#A5A5A5"/>
<path d="M106.26 37.52H100.01V43.77H106.26V37.52Z" fill="#A5A5A5"/>
<path d="M100.01 37.52H93.76V43.77H100.01V37.52Z" fill="#A5A5A5"/>
<path d="M93.76 37.52H87.51V43.77H93.76V37.52Z" fill="#A5A5A5"/>
<path d="M87.51 37.52H81.26V43.77H87.51V37.52Z" fill="#A5A5A5"/>
<path d="M81.26 37.52H75.01V43.77H81.26V37.52Z" fill="#A5A5A5"/>
<path d="M75.01 37.52H68.76V43.77H75.01V37.52Z" fill="#A5A5A5"/>
<path d="M68.76 37.52H62.51V43.77H68.76V37.52Z" fill="#A5A5A5"/>
<path d="M62.51 37.52H56.26V43.77H62.51V37.52Z" fill="#A5A5A5"/>
<path d="M56.26 37.52H50.01V43.77H56.26V37.52Z" fill="#A5A5A5"/>
<path d="M50.01 37.52H43.76V43.77H50.01V37.52Z" fill="#A5A5A5"/>
<path d="M43.76 37.52H37.51V43.77H43.76V37.52Z" fill="#A5A5A5"/>
<path d="M37.5 37.52H31.25V43.77H37.5V37.52Z" fill="#A5A5A5"/>
<path d="M31.25 37.52H25V43.77H31.25V37.52Z" fill="#808080"/>
<path d="M25 37.52H18.75V43.77H25V37.52Z" fill="#808080"/>
<path d="M18.75 37.52H12.5V43.77H18.75V37.52Z" fill="#808080"/>
<path d="M12.5 37.52H6.25V43.77H12.5V37.52Z" fill="#808080"/>
<path d="M6.25 37.52H0V43.77H6.25V37.52Z" fill="#4C4C4C"/>
<path d="M281.29 43.77H275.04V50.02H281.29V43.77Z" fill="#4C4C4C"/>
<path d="M275.04 43.77H268.79V50.02H275.04V43.77Z" fill="#3D3D3D"/>
<path d="M268.79 43.77H262.54V50.02H268.79V43.77Z" fill="#3D3D3D"/>
<path d="M262.53 43.77H256.28V50.02H262.53V43.77Z" fill="#3D3D3D"/>
<path d="M256.28 43.77H250.03V50.02H256.28V43.77Z" fill="#3D3D3D"/>
<path d="M250.03 43.77H243.78V50.02H250.03V43.77Z" fill="#A5A5A5"/>
<path d="M243.78 43.77H237.53V50.02H243.78V43.77Z" fill="#A5A5A5"/>
<path d="M237.53 43.77H231.28V50.02H237.53V43.77Z" fill="#A5A5A5"/>
<path d="M231.28 43.77H225.03V50.02H231.28V43.77Z" fill="#A5A5A5"/>
<path d="M225.03 43.77H218.78V50.02H225.03V43.77Z" fill="#A5A5A5"/>
<path d="M218.78 43.77H212.53V50.02H218.78V43.77Z" fill="#A5A5A5"/>
<path d="M212.53 43.77H206.28V50.02H212.53V43.77Z" fill="#A5A5A5"/>
<path d="M206.28 43.77H200.03V50.02H206.28V43.77Z" fill="#A5A5A5"/>
<path d="M200.03 43.77H193.78V50.02H200.03V43.77Z" fill="#A5A5A5"/>
<path d="M193.78 43.77H187.53V50.02H193.78V43.77Z" fill="#D6D6D6"/>
<path d="M187.52 43.77H181.27V50.02H187.52V43.77Z" fill="#D6D6D6"/>
<path d="M181.27 43.77H175.02V50.02H181.27V43.77Z" fill="#D6D6D6"/>
<path d="M175.02 43.77H168.77V50.02H175.02V43.77Z" fill="#A5A5A5"/>
<path d="M168.77 43.77H162.52V50.02H168.77V43.77Z" fill="#A5A5A5"/>
<path d="M162.52 43.77H156.27V50.02H162.52V43.77Z" fill="#A5A5A5"/>
<path d="M156.27 43.77H150.02V50.02H156.27V43.77Z" fill="#D6D6D6"/>
<path d="M150.02 43.77H143.77V50.02H150.02V43.77Z" fill="#A5A5A5"/>
<path d="M143.77 43.77H137.52V50.02H143.77V43.77Z" fill="#A5A5A5"/>
<path d="M137.52 43.77H131.27V50.02H137.52V43.77Z" fill="#A5A5A5"/>
<path d="M131.27 43.77H125.02V50.02H131.27V43.77Z" fill="#A5A5A5"/>
<path d="M125.02 43.77H118.77V50.02H125.02V43.77Z" fill="#A5A5A5"/>
<path d="M118.77 43.77H112.52V50.02H118.77V43.77Z" fill="#A5A5A5"/>
<path d="M112.51 43.77H106.26V50.02H112.51V43.77Z" fill="#A5A5A5"/>
<path d="M106.26 43.77H100.01V50.02H106.26V43.77Z" fill="#A5A5A5"/>
<path d="M100.01 43.77H93.76V50.02H100.01V43.77Z" fill="#A5A5A5"/>
<path d="M93.76 43.77H87.51V50.02H93.76V43.77Z" fill="#A5A5A5"/>
<path d="M87.51 43.77H81.26V50.02H87.51V43.77Z" fill="#A5A5A5"/>
<path d="M81.26 43.77H75.01V50.02H81.26V43.77Z" fill="#A5A5A5"/>
<path d="M75.01 43.77H68.76V50.02H75.01V43.77Z" fill="#A5A5A5"/>
<path d="M68.76 43.77H62.51V50.02H68.76V43.77Z" fill="#A5A5A5"/>
<path d="M62.51 43.77H56.26V50.02H62.51V43.77Z" fill="#A5A5A5"/>
<path d="M56.26 43.77H50.01V50.02H56.26V43.77Z" fill="#A5A5A5"/>
<path d="M50.01 43.77H43.76V50.02H50.01V43.77Z" fill="#A5A5A5"/>
<path d="M43.76 43.77H37.51V50.02H43.76V43.77Z" fill="#A5A5A5"/>
<path d="M37.5 43.77H31.25V50.02H37.5V43.77Z" fill="#A5A5A5"/>
<path d="M31.25 43.77H25V50.02H31.25V43.77Z" fill="#808080"/>
<path d="M25 43.77H18.75V50.02H25V43.77Z" fill="#808080"/>
<path d="M18.75 43.77H12.5V50.02H18.75V43.77Z" fill="#808080"/>
<path d="M12.5 43.77H6.25V50.02H12.5V43.77Z" fill="#808080"/>
<path d="M6.25 43.77H0V50.02H6.25V43.77Z" fill="#4C4C4C"/>
<path d="M281.29 50.02H275.04V56.27H281.29V50.02Z" fill="#4C4C4C"/>
<path d="M275.04 50.02H268.79V56.27H275.04V50.02Z" fill="#3D3D3D"/>
<path d="M268.79 50.02H262.54V56.27H268.79V50.02Z" fill="#3D3D3D"/>
<path d="M262.53 50.02H256.28V56.27H262.53V50.02Z" fill="#3D3D3D"/>
<path d="M256.28 50.02H250.03V56.27H256.28V50.02Z" fill="#3D3D3D"/>
<path d="M250.03 50.02H243.78V56.27H250.03V50.02Z" fill="#A5A5A5"/>
<path d="M243.78 50.02H237.53V56.27H243.78V50.02Z" fill="#A5A5A5"/>
<path d="M237.53 50.02H231.28V56.27H237.53V50.02Z" fill="#A5A5A5"/>
<path d="M231.28 50.02H225.03V56.27H231.28V50.02Z" fill="#A5A5A5"/>
<path d="M225.03 50.02H218.78V56.27H225.03V50.02Z" fill="#A5A5A5"/>
<path d="M218.78 50.02H212.53V56.27H218.78V50.02Z" fill="#A5A5A5"/>
<path d="M212.53 50.02H206.28V56.27H212.53V50.02Z" fill="#A5A5A5"/>
<path d="M206.28 50.02H200.03V56.27H206.28V50.02Z" fill="#A5A5A5"/>
<path d="M200.03 50.02H193.78V56.27H200.03V50.02Z" fill="#D6D6D6"/>
<path d="M193.78 50.02H187.53V56.27H193.78V50.02Z" fill="#D6D6D6"/>
<path d="M187.52 50.02H181.27V56.27H187.52V50.02Z" fill="#D6D6D6"/>
<path d="M181.27 50.02H175.02V56.27H181.27V50.02Z" fill="#A5A5A5"/>
<path d="M175.02 50.02H168.77V56.27H175.02V50.02Z" fill="#A5A5A5"/>
<path d="M168.77 50.02H162.52V56.27H168.77V50.02Z" fill="#A5A5A5"/>
<path d="M162.52 50.02H156.27V56.27H162.52V50.02Z" fill="#D6D6D6"/>
<path d="M156.27 50.02H150.02V56.27H156.27V50.02Z" fill="#A5A5A5"/>
<path d="M150.02 50.02H143.77V56.27H150.02V50.02Z" fill="#A5A5A5"/>
<path d="M143.77 50.02H137.52V56.27H143.77V50.02Z" fill="#A5A5A5"/>
<path d="M137.52 50.02H131.27V56.27H137.52V50.02Z" fill="#A5A5A5"/>
<path d="M131.27 50.02H125.02V56.27H131.27V50.02Z" fill="#A5A5A5"/>
<path d="M125.02 50.02H118.77V56.27H125.02V50.02Z" fill="#A5A5A5"/>
<path d="M118.77 50.02H112.52V56.27H118.77V50.02Z" fill="#A5A5A5"/>
<path d="M112.51 50.02H106.26V56.27H112.51V50.02Z" fill="#A5A5A5"/>
<path d="M106.26 50.02H100.01V56.27H106.26V50.02Z" fill="#A5A5A5"/>
<path d="M100.01 50.02H93.76V56.27H100.01V50.02Z" fill="#A5A5A5"/>
<path d="M93.76 50.02H87.51V56.27H93.76V50.02Z" fill="#A5A5A5"/>
<path d="M87.51 50.02H81.26V56.27H87.51V50.02Z" fill="#A5A5A5"/>
<path d="M81.26 50.02H75.01V56.27H81.26V50.02Z" fill="#A5A5A5"/>
<path d="M75.01 50.02H68.76V56.27H75.01V50.02Z" fill="#A5A5A5"/>
<path d="M68.76 50.02H62.51V56.27H68.76V50.02Z" fill="#A5A5A5"/>
<path d="M62.51 50.02H56.26V56.27H62.51V50.02Z" fill="#A5A5A5"/>
<path d="M56.26 50.02H50.01V56.27H56.26V50.02Z" fill="#A5A5A5"/>
<path d="M50.01 50.02H43.76V56.27H50.01V50.02Z" fill="#A5A5A5"/>
<path d="M43.76 50.02H37.51V56.27H43.76V50.02Z" fill="#A5A5A5"/>
<path d="M37.5 50.02H31.25V56.27H37.5V50.02Z" fill="#A5A5A5"/>
<path d="M31.25 50.02H25V56.27H31.25V50.02Z" fill="#808080"/>
<path d="M25 50.02H18.75V56.27H25V50.02Z" fill="#808080"/>
<path d="M18.75 50.02H12.5V56.27H18.75V50.02Z" fill="#808080"/>
<path d="M12.5 50.02H6.25V56.27H12.5V50.02Z" fill="#808080"/>
<path d="M6.25 50.02H0V56.27H6.25V50.02Z" fill="#4C4C4C"/>
<path d="M281.29 56.27H275.04V62.52H281.29V56.27Z" fill="#4C4C4C"/>
<path d="M275.04 56.27H268.79V62.52H275.04V56.27Z" fill="#3D3D3D"/>
<path d="M268.79 56.27H262.54V62.52H268.79V56.27Z" fill="#3D3D3D"/>
<path d="M262.53 56.27H256.28V62.52H262.53V56.27Z" fill="#3D3D3D"/>
<path d="M256.28 56.27H250.03V62.52H256.28V56.27Z" fill="#3D3D3D"/>
<path d="M250.03 56.27H243.78V62.52H250.03V56.27Z" fill="#D6D6D6"/>
<path d="M243.78 56.27H237.53V62.52H243.78V56.27Z" fill="#A5A5A5"/>
<path d="M237.53 56.27H231.28V62.52H237.53V56.27Z" fill="#A5A5A5"/>
<path d="M231.28 56.27H225.03V62.52H231.28V56.27Z" fill="#A5A5A5"/>
<path d="M225.03 56.27H218.78V62.52H225.03V56.27Z" fill="#A5A5A5"/>
<path d="M218.78 56.27H212.53V62.52H218.78V56.27Z" fill="#A5A5A5"/>
<path d="M212.53 56.27H206.28V62.52H212.53V56.27Z" fill="#A5A5A5"/>
<path d="M206.28 56.27H200.03V62.52H206.28V56.27Z" fill="#D6D6D6"/>
<path d="M200.03 56.27H193.78V62.52H200.03V56.27Z" fill="#D6D6D6"/>
<path d="M193.78 56.27H187.53V62.52H193.78V56.27Z" fill="#D6D6D6"/>
<path d="M187.52 56.27H181.27V62.52H187.52V56.27Z" fill="#A5A5A5"/>
<path d="M181.27 56.27H175.02V62.52H181.27V56.27Z" fill="#A5A5A5"/>
<path d="M175.02 56.27H168.77V62.52H175.02V56.27Z" fill="#A5A5A5"/>
<path d="M168.77 56.27H162.52V62.52H168.77V56.27Z" fill="#D6D6D6"/>
<path d="M162.52 56.27H156.27V62.52H162.52V56.27Z" fill="#A5A5A5"/>
<path d="M156.27 56.27H150.02V62.52H156.27V56.27Z" fill="#A5A5A5"/>
<path d="M150.02 56.27H143.77V62.52H150.02V56.27Z" fill="#A5A5A5"/>
<path d="M143.77 56.27H137.52V62.52H143.77V56.27Z" fill="#A5A5A5"/>
<path d="M137.52 56.27H131.27V62.52H137.52V56.27Z" fill="#A5A5A5"/>
<path d="M131.27 56.27H125.02V62.52H131.27V56.27Z" fill="#A5A5A5"/>
<path d="M125.02 56.27H118.77V62.52H125.02V56.27Z" fill="#A5A5A5"/>
<path d="M118.77 56.27H112.52V62.52H118.77V56.27Z" fill="#A5A5A5"/>
<path d="M112.51 56.27H106.26V62.52H112.51V56.27Z" fill="#A5A5A5"/>
<path d="M106.26 56.27H100.01V62.52H106.26V56.27Z" fill="#A5A5A5"/>
<path d="M100.01 56.27H93.76V62.52H100.01V56.27Z" fill="#A5A5A5"/>
<path d="M93.76 56.27H87.51V62.52H93.76V56.27Z" fill="#A5A5A5"/>
<path d="M87.51 56.27H81.26V62.52H87.51V56.27Z" fill="#A5A5A5"/>
<path d="M81.26 56.27H75.01V62.52H81.26V56.27Z" fill="#A5A5A5"/>
<path d="M75.01 56.27H68.76V62.52H75.01V56.27Z" fill="#A5A5A5"/>
<path d="M68.76 56.27H62.51V62.52H68.76V56.27Z" fill="#A5A5A5"/>
<path d="M62.51 56.27H56.26V62.52H62.51V56.27Z" fill="#A5A5A5"/>
<path d="M56.26 56.27H50.01V62.52H56.26V56.27Z" fill="#A5A5A5"/>
<path d="M50.01 56.27H43.76V62.52H50.01V56.27Z" fill="#A5A5A5"/>
<path d="M43.76 56.27H37.51V62.52H43.76V56.27Z" fill="#A5A5A5"/>
<path d="M37.5 56.27H31.25V62.52H37.5V56.27Z" fill="#D6D6D6"/>
<path d="M31.25 56.27H25V62.52H31.25V56.27Z" fill="#808080"/>
<path d="M25 56.27H18.75V62.52H25V56.27Z" fill="#808080"/>
<path d="M18.75 56.27H12.5V62.52H18.75V56.27Z" fill="#808080"/>
<path d="M12.5 56.27H6.25V62.52H12.5V56.27Z" fill="#808080"/>
<path d="M6.25 56.27H0V62.52H6.25V56.27Z" fill="#4C4C4C"/>
<path d="M281.29 62.52H275.04V68.77H281.29V62.52Z" fill="#4C4C4C"/>
<path d="M275.04 62.52H268.79V68.77H275.04V62.52Z" fill="#3D3D3D"/>
<path d="M268.79 62.52H262.54V68.77H268.79V62.52Z" fill="#3D3D3D"/>
<path d="M262.53 62.52H256.28V68.77H262.53V62.52Z" fill="#3D3D3D"/>
<path d="M256.28 62.52H250.03V68.77H256.28V62.52Z" fill="#3D3D3D"/>
<path d="M250.03 62.52H243.78V68.77H250.03V62.52Z" fill="#808080"/>
<path d="M243.78 62.52H237.53V68.77H243.78V62.52Z" fill="#D6D6D6"/>
<path d="M237.53 62.52H231.28V68.77H237.53V62.52Z" fill="#D6D6D6"/>
<path d="M231.28 62.52H225.03V68.77H231.28V62.52Z" fill="#D6D6D6"/>
<path d="M225.03 62.52H218.78V68.77H225.03V62.52Z" fill="#D6D6D6"/>
<path d="M218.78 62.52H212.53V68.77H218.78V62.52Z" fill="#D6D6D6"/>
<path d="M212.53 62.52H206.28V68.77H212.53V62.52Z" fill="#D6D6D6"/>
<path d="M206.28 62.52H200.03V68.77H206.28V62.52Z" fill="#D6D6D6"/>
<path d="M200.03 62.52H193.78V68.77H200.03V62.52Z" fill="#D6D6D6"/>
<path d="M193.78 62.52H187.53V68.77H193.78V62.52Z" fill="#D6D6D6"/>
<path d="M187.52 62.52H181.27V68.77H187.52V62.52Z" fill="#D6D6D6"/>
<path d="M181.27 62.52H175.02V68.77H181.27V62.52Z" fill="#D6D6D6"/>
<path d="M175.02 62.52H168.77V68.77H175.02V62.52Z" fill="#D6D6D6"/>
<path d="M168.77 62.52H162.52V68.77H168.77V62.52Z" fill="#D6D6D6"/>
<path d="M162.52 62.52H156.27V68.77H162.52V62.52Z" fill="#D6D6D6"/>
<path d="M156.27 62.52H150.02V68.77H156.27V62.52Z" fill="#D6D6D6"/>
<path d="M150.02 62.52H143.77V68.77H150.02V62.52Z" fill="#D6D6D6"/>
<path d="M143.77 62.52H137.52V68.77H143.77V62.52Z" fill="#D6D6D6"/>
<path d="M137.52 62.52H131.27V68.77H137.52V62.52Z" fill="#D6D6D6"/>
<path d="M131.27 62.52H125.02V68.77H131.27V62.52Z" fill="#D6D6D6"/>
<path d="M125.02 62.52H118.77V68.77H125.02V62.52Z" fill="#D6D6D6"/>
<path d="M118.77 62.52H112.52V68.77H118.77V62.52Z" fill="#D6D6D6"/>
<path d="M112.51 62.52H106.26V68.77H112.51V62.52Z" fill="#D6D6D6"/>
<path d="M106.26 62.52H100.01V68.77H106.26V62.52Z" fill="#D6D6D6"/>
<path d="M100.01 62.52H93.76V68.77H100.01V62.52Z" fill="#D6D6D6"/>
<path d="M93.76 62.52H87.51V68.77H93.76V62.52Z" fill="#D6D6D6"/>
<path d="M87.51 62.52H81.26V68.77H87.51V62.52Z" fill="#D6D6D6"/>
<path d="M81.26 62.52H75.01V68.77H81.26V62.52Z" fill="#D6D6D6"/>
<path d="M75.01 62.52H68.76V68.77H75.01V62.52Z" fill="#D6D6D6"/>
<path d="M68.76 62.52H62.51V68.77H68.76V62.52Z" fill="#D6D6D6"/>
<path d="M62.51 62.52H56.26V68.77H62.51V62.52Z" fill="#D6D6D6"/>
<path d="M56.26 62.52H50.01V68.77H56.26V62.52Z" fill="#D6D6D6"/>
<path d="M50.01 62.52H43.76V68.77H50.01V62.52Z" fill="#D6D6D6"/>
<path d="M43.76 62.52H37.51V68.77H43.76V62.52Z" fill="#D6D6D6"/>
<path d="M37.5 62.52H31.25V68.77H37.5V62.52Z" fill="#A5A5A5"/>
<path d="M31.25 62.52H25V68.77H31.25V62.52Z" fill="#808080"/>
<path d="M25 62.52H18.75V68.77H25V62.52Z" fill="#808080"/>
<path d="M18.75 62.52H12.5V68.77H18.75V62.52Z" fill="#808080"/>
<path d="M12.5 62.52H6.25V68.77H12.5V62.52Z" fill="#808080"/>
<path d="M6.25 62.52H0V68.77H6.25V62.52Z" fill="#4C4C4C"/>
<path d="M281.29 68.77H275.04V75.02H281.29V68.77Z" fill="#4C4C4C"/>
<path d="M275.04 68.77H268.79V75.02H275.04V68.77Z" fill="#3D3D3D"/>
<path d="M268.79 68.77H262.54V75.02H268.79V68.77Z" fill="#3D3D3D"/>
<path d="M262.53 68.77H256.28V75.02H262.53V68.77Z" fill="#3D3D3D"/>
<path d="M256.28 68.77H250.03V75.02H256.28V68.77Z" fill="#808080"/>
<path d="M250.03 68.77H243.78V75.02H250.03V68.77Z" fill="#606060"/>
<path d="M243.78 68.77H237.53V75.02H243.78V68.77Z" fill="#606060"/>
<path d="M237.53 68.77H231.28V75.02H237.53V68.77Z" fill="#606060"/>
<path d="M231.28 68.77H225.03V75.02H231.28V68.77Z" fill="#606060"/>
<path d="M225.03 68.77H218.78V75.02H225.03V68.77Z" fill="#606060"/>
<path d="M218.78 68.77H212.53V75.02H218.78V68.77Z" fill="#606060"/>
<path d="M212.53 68.77H206.28V75.02H212.53V68.77Z" fill="#606060"/>
<path d="M206.28 68.77H200.03V75.02H206.28V68.77Z" fill="#606060"/>
<path d="M200.03 68.77H193.78V75.02H200.03V68.77Z" fill="#606060"/>
<path d="M193.78 68.77H187.53V75.02H193.78V68.77Z" fill="#606060"/>
<path d="M187.52 68.77H181.27V75.02H187.52V68.77Z" fill="#606060"/>
<path d="M181.27 68.77H175.02V75.02H181.27V68.77Z" fill="#606060"/>
<path d="M175.02 68.77H168.77V75.02H175.02V68.77Z" fill="#606060"/>
<path d="M168.77 68.77H162.52V75.02H168.77V68.77Z" fill="#606060"/>
<path d="M162.52 68.77H156.27V75.02H162.52V68.77Z" fill="#606060"/>
<path d="M156.27 68.77H150.02V75.02H156.27V68.77Z" fill="#606060"/>
<path d="M150.02 68.77H143.77V75.02H150.02V68.77Z" fill="#606060"/>
<path d="M143.77 68.77H137.52V75.02H143.77V68.77Z" fill="#606060"/>
<path d="M137.52 68.77H131.27V75.02H137.52V68.77Z" fill="#606060"/>
<path d="M131.27 68.77H125.02V75.02H131.27V68.77Z" fill="#606060"/>
<path d="M125.02 68.77H118.77V75.02H125.02V68.77Z" fill="#606060"/>
<path d="M118.77 68.77H112.52V75.02H118.77V68.77Z" fill="#606060"/>
<path d="M112.51 68.77H106.26V75.02H112.51V68.77Z" fill="#606060"/>
<path d="M106.26 68.77H100.01V75.02H106.26V68.77Z" fill="#606060"/>
<path d="M100.01 68.77H93.76V75.02H100.01V68.77Z" fill="#606060"/>
<path d="M93.76 68.77H87.51V75.02H93.76V68.77Z" fill="#606060"/>
<path d="M87.51 68.77H81.26V75.02H87.51V68.77Z" fill="#606060"/>
<path d="M81.26 68.77H75.01V75.02H81.26V68.77Z" fill="#606060"/>
<path d="M75.01 68.77H68.76V75.02H75.01V68.77Z" fill="#606060"/>
<path d="M68.76 68.77H62.51V75.02H68.76V68.77Z" fill="#606060"/>
<path d="M62.51 68.77H56.26V75.02H62.51V68.77Z" fill="#606060"/>
<path d="M56.26 68.77H50.01V75.02H56.26V68.77Z" fill="#606060"/>
<path d="M50.01 68.77H43.76V75.02H50.01V68.77Z" fill="#606060"/>
<path d="M43.76 68.77H37.51V75.02H43.76V68.77Z" fill="#606060"/>
<path d="M37.5 68.77H31.25V75.02H37.5V68.77Z" fill="#606060"/>
<path d="M31.25 68.77H25V75.02H31.25V68.77Z" fill="#A5A5A5"/>
<path d="M25 68.77H18.75V75.02H25V68.77Z" fill="#808080"/>
<path d="M18.75 68.77H12.5V75.02H18.75V68.77Z" fill="#808080"/>
<path d="M12.5 68.77H6.25V75.02H12.5V68.77Z" fill="#808080"/>
<path d="M6.25 68.77H0V75.02H6.25V68.77Z" fill="#4C4C4C"/>
<path d="M281.29 75.02H275.04V81.27H281.29V75.02Z" fill="#4C4C4C"/>
<path d="M275.04 75.02H268.79V81.27H275.04V75.02Z" fill="#3D3D3D"/>
<path d="M268.79 75.02H262.54V81.27H268.79V75.02Z" fill="#3D3D3D"/>
<path d="M262.53 75.02H256.28V81.27H262.53V75.02Z" fill="#808080"/>
<path d="M256.28 75.02H250.03V81.27H256.28V75.02Z" fill="#606060"/>
<path d="M250.03 75.02H243.78V81.27H250.03V75.02Z" fill="#606060"/>
<path d="M243.78 75.02H237.53V81.27H243.78V75.02Z" fill="#606060"/>
<path d="M237.53 75.02H231.28V81.27H237.53V75.02Z" fill="#606060"/>
<path d="M231.28 75.02H225.03V81.27H231.28V75.02Z" fill="#606060"/>
<path d="M225.03 75.02H218.78V81.27H225.03V75.02Z" fill="#606060"/>
<path d="M218.78 75.02H212.53V81.27H218.78V75.02Z" fill="#606060"/>
<path d="M212.53 75.02H206.28V81.27H212.53V75.02Z" fill="#606060"/>
<path d="M206.28 75.02H200.03V81.27H206.28V75.02Z" fill="#606060"/>
<path d="M200.03 75.02H193.78V81.27H200.03V75.02Z" fill="#606060"/>
<path d="M193.78 75.02H187.53V81.27H193.78V75.02Z" fill="#606060"/>
<path d="M187.52 75.02H181.27V81.27H187.52V75.02Z" fill="#606060"/>
<path d="M181.27 75.02H175.02V81.27H181.27V75.02Z" fill="#606060"/>
<path d="M175.02 75.02H168.77V81.27H175.02V75.02Z" fill="#606060"/>
<path d="M168.77 75.02H162.52V81.27H168.77V75.02Z" fill="#606060"/>
<path d="M162.52 75.02H156.27V81.27H162.52V75.02Z" fill="#606060"/>
<path d="M156.27 75.02H150.02V81.27H156.27V75.02Z" fill="#606060"/>
<path d="M150.02 75.02H143.77V81.27H150.02V75.02Z" fill="#606060"/>
<path d="M143.77 75.02H137.52V81.27H143.77V75.02Z" fill="#606060"/>
<path d="M137.52 75.02H131.27V81.27H137.52V75.02Z" fill="#606060"/>
<path d="M131.27 75.02H125.02V81.27H131.27V75.02Z" fill="#606060"/>
<path d="M125.02 75.02H118.77V81.27H125.02V75.02Z" fill="#606060"/>
<path d="M118.77 75.02H112.52V81.27H118.77V75.02Z" fill="#606060"/>
<path d="M112.51 75.02H106.26V81.27H112.51V75.02Z" fill="#606060"/>
<path d="M106.26 75.02H100.01V81.27H106.26V75.02Z" fill="#606060"/>
<path d="M100.01 75.02H93.76V81.27H100.01V75.02Z" fill="#606060"/>
<path d="M93.76 75.02H87.51V81.27H93.76V75.02Z" fill="#606060"/>
<path d="M87.51 75.02H81.26V81.27H87.51V75.02Z" fill="#606060"/>
<path d="M81.26 75.02H75.01V81.27H81.26V75.02Z" fill="#606060"/>
<path d="M75.01 75.02H68.76V81.27H75.01V75.02Z" fill="#606060"/>
<path d="M68.76 75.02H62.51V81.27H68.76V75.02Z" fill="#606060"/>
<path d="M62.51 75.02H56.26V81.27H62.51V75.02Z" fill="#606060"/>
<path d="M56.26 75.02H50.01V81.27H56.26V75.02Z" fill="#606060"/>
<path d="M50.01 75.02H43.76V81.27H50.01V75.02Z" fill="#606060"/>
<path d="M43.76 75.02H37.51V81.27H43.76V75.02Z" fill="#606060"/>
<path d="M37.5 75.02H31.25V81.27H37.5V75.02Z" fill="#606060"/>
<path d="M31.25 75.02H25V81.27H31.25V75.02Z" fill="#606060"/>
<path d="M25 75.02H18.75V81.27H25V75.02Z" fill="#A5A5A5"/>
<path d="M18.75 75.02H12.5V81.27H18.75V75.02Z" fill="#808080"/>
<path d="M12.5 75.02H6.25V81.27H12.5V75.02Z" fill="#808080"/>
<path d="M6.25 75.02H0V81.27H6.25V75.02Z" fill="#4C4C4C"/>
<path d="M281.29 81.27H275.04V87.52H281.29V81.27Z" fill="#4C4C4C"/>
<path d="M275.04 81.27H268.79V87.52H275.04V81.27Z" fill="#3D3D3D"/>
<path d="M268.79 81.27H262.54V87.52H268.79V81.27Z" fill="#808080"/>
<path d="M262.53 81.27H256.28V87.52H262.53V81.27Z" fill="#606060"/>
<path d="M256.28 81.27H250.03V87.52H256.28V81.27Z" fill="#606060"/>
<path d="M250.03 81.27H243.78V87.52H250.03V81.27Z" fill="#606060"/>
<path d="M243.78 81.27H237.53V87.52H243.78V81.27Z" fill="#606060"/>
<path d="M237.53 81.27H231.28V87.52H237.53V81.27Z" fill="#606060"/>
<path d="M231.28 81.27H225.03V87.52H231.28V81.27Z" fill="#606060"/>
<path d="M225.03 81.27H218.78V87.52H225.03V81.27Z" fill="#606060"/>
<path d="M218.78 81.27H212.53V87.52H218.78V81.27Z" fill="#606060"/>
<path d="M212.53 81.27H206.28V87.52H212.53V81.27Z" fill="#606060"/>
<path d="M206.28 81.27H200.03V87.52H206.28V81.27Z" fill="#606060"/>
<path d="M200.03 81.27H193.78V87.52H200.03V81.27Z" fill="#606060"/>
<path d="M193.78 81.27H187.53V87.52H193.78V81.27Z" fill="#606060"/>
<path d="M187.52 81.27H181.27V87.52H187.52V81.27Z" fill="#606060"/>
<path d="M181.27 81.27H175.02V87.52H181.27V81.27Z" fill="#606060"/>
<path d="M175.02 81.27H168.77V87.52H175.02V81.27Z" fill="#606060"/>
<path d="M168.77 81.27H162.52V87.52H168.77V81.27Z" fill="#606060"/>
<path d="M162.52 81.27H156.27V87.52H162.52V81.27Z" fill="#606060"/>
<path d="M156.27 81.27H150.02V87.52H156.27V81.27Z" fill="#606060"/>
<path d="M150.02 81.27H143.77V87.52H150.02V81.27Z" fill="#606060"/>
<path d="M143.77 81.27H137.52V87.52H143.77V81.27Z" fill="#606060"/>
<path d="M137.52 81.27H131.27V87.52H137.52V81.27Z" fill="#606060"/>
<path d="M131.27 81.27H125.02V87.52H131.27V81.27Z" fill="#606060"/>
<path d="M125.02 81.27H118.77V87.52H125.02V81.27Z" fill="#606060"/>
<path d="M118.77 81.27H112.52V87.52H118.77V81.27Z" fill="#606060"/>
<path d="M112.51 81.27H106.26V87.52H112.51V81.27Z" fill="#606060"/>
<path d="M106.26 81.27H100.01V87.52H106.26V81.27Z" fill="#606060"/>
<path d="M100.01 81.27H93.76V87.52H100.01V81.27Z" fill="#606060"/>
<path d="M93.76 81.27H87.51V87.52H93.76V81.27Z" fill="#606060"/>
<path d="M87.51 81.27H81.26V87.52H87.51V81.27Z" fill="#606060"/>
<path d="M81.26 81.27H75.01V87.52H81.26V81.27Z" fill="#606060"/>
<path d="M75.01 81.27H68.76V87.52H75.01V81.27Z" fill="#606060"/>
<path d="M68.76 81.27H62.51V87.52H68.76V81.27Z" fill="#606060"/>
<path d="M62.51 81.27H56.26V87.52H62.51V81.27Z" fill="#606060"/>
<path d="M56.26 81.27H50.01V87.52H56.26V81.27Z" fill="#606060"/>
<path d="M50.01 81.27H43.76V87.52H50.01V81.27Z" fill="#606060"/>
<path d="M43.76 81.27H37.51V87.52H43.76V81.27Z" fill="#606060"/>
<path d="M37.5 81.27H31.25V87.52H37.5V81.27Z" fill="#606060"/>
<path d="M31.25 81.27H25V87.52H31.25V81.27Z" fill="#606060"/>
<path d="M25 81.27H18.75V87.52H25V81.27Z" fill="#606060"/>
<path d="M18.75 81.27H12.5V87.52H18.75V81.27Z" fill="#A5A5A5"/>
<path d="M12.5 81.27H6.25V87.52H12.5V81.27Z" fill="#808080"/>
<path d="M6.25 81.27H0V87.52H6.25V81.27Z" fill="#4C4C4C"/>
<path d="M275.04 87.52H268.79V93.77H275.04V87.52Z" fill="#4C4C4C"/>
<path d="M268.79 87.52H262.54V93.77H268.79V87.52Z" fill="#606060"/>
<path d="M262.53 87.52H256.28V93.77H262.53V87.52Z" fill="#606060"/>
<path d="M256.28 87.52H250.03V93.77H256.28V87.52Z" fill="#606060"/>
<path d="M250.03 87.52H243.78V93.77H250.03V87.52Z" fill="#606060"/>
<path d="M243.78 87.52H237.53V93.77H243.78V87.52Z" fill="#606060"/>
<path d="M237.53 87.52H231.28V93.77H237.53V87.52Z" fill="#606060"/>
<path d="M231.28 87.52H225.03V93.77H231.28V87.52Z" fill="#606060"/>
<path d="M225.03 87.52H218.78V93.77H225.03V87.52Z" fill="#606060"/>
<path d="M218.78 87.52H212.53V93.77H218.78V87.52Z" fill="#606060"/>
<path d="M212.53 87.52H206.28V93.77H212.53V87.52Z" fill="#606060"/>
<path d="M206.28 87.52H200.03V93.77H206.28V87.52Z" fill="#606060"/>
<path d="M200.03 87.52H193.78V93.77H200.03V87.52Z" fill="#606060"/>
<path d="M193.78 87.52H187.53V93.77H193.78V87.52Z" fill="#606060"/>
<path d="M187.52 87.52H181.27V93.77H187.52V87.52Z" fill="#606060"/>
<path d="M181.27 87.52H175.02V93.77H181.27V87.52Z" fill="#606060"/>
<path d="M175.02 87.52H168.77V93.77H175.02V87.52Z" fill="#606060"/>
<path d="M168.77 87.52H162.52V93.77H168.77V87.52Z" fill="#606060"/>
<path d="M162.52 87.52H156.27V93.77H162.52V87.52Z" fill="#606060"/>
<path d="M156.27 87.52H150.02V93.77H156.27V87.52Z" fill="#606060"/>
<path d="M150.02 87.52H143.77V93.77H150.02V87.52Z" fill="#606060"/>
<path d="M143.77 87.52H137.52V93.77H143.77V87.52Z" fill="#606060"/>
<path d="M137.52 87.52H131.27V93.77H137.52V87.52Z" fill="#606060"/>
<path d="M131.27 87.52H125.02V93.77H131.27V87.52Z" fill="#606060"/>
<path d="M125.02 87.52H118.77V93.77H125.02V87.52Z" fill="#606060"/>
<path d="M118.77 87.52H112.52V93.77H118.77V87.52Z" fill="#606060"/>
<path d="M112.51 87.52H106.26V93.77H112.51V87.52Z" fill="#606060"/>
<path d="M106.26 87.52H100.01V93.77H106.26V87.52Z" fill="#606060"/>
<path d="M100.01 87.52H93.76V93.77H100.01V87.52Z" fill="#606060"/>
<path d="M93.76 87.52H87.51V93.77H93.76V87.52Z" fill="#606060"/>
<path d="M87.51 87.52H81.26V93.77H87.51V87.52Z" fill="#606060"/>
<path d="M81.26 87.52H75.01V93.77H81.26V87.52Z" fill="#606060"/>
<path d="M75.01 87.52H68.76V93.77H75.01V87.52Z" fill="#606060"/>
<path d="M68.76 87.52H62.51V93.77H68.76V87.52Z" fill="#606060"/>
<path d="M62.51 87.52H56.26V93.77H62.51V87.52Z" fill="#606060"/>
<path d="M56.26 87.52H50.01V93.77H56.26V87.52Z" fill="#606060"/>
<path d="M50.01 87.52H43.76V93.77H50.01V87.52Z" fill="#606060"/>
<path d="M43.76 87.52H37.51V93.77H43.76V87.52Z" fill="#606060"/>
<path d="M37.5 87.52H31.25V93.77H37.5V87.52Z" fill="#606060"/>
<path d="M31.25 87.52H25V93.77H31.25V87.52Z" fill="#606060"/>
<path d="M25 87.52H18.75V93.77H25V87.52Z" fill="#606060"/>
<path d="M18.75 87.52H12.5V93.77H18.75V87.52Z" fill="#606060"/>
<path d="M12.5 87.52H6.25V93.77H12.5V87.52Z" fill="#4C4C4C"/>
<path d="M268.79 93.77H262.54V100.02H268.79V93.77Z" fill="#4C4C4C"/>
<path d="M262.53 93.77H256.28V100.02H262.53V93.77Z" fill="#4C4C4C"/>
<path d="M256.28 93.77H250.03V100.02H256.28V93.77Z" fill="#4C4C4C"/>
<path d="M250.03 93.77H243.78V100.02H250.03V93.77Z" fill="#4C4C4C"/>
<path d="M243.78 93.77H237.53V100.02H243.78V93.77Z" fill="#4C4C4C"/>
<path d="M237.53 93.77H231.28V100.02H237.53V93.77Z" fill="#4C4C4C"/>
<path d="M231.28 93.77H225.03V100.02H231.28V93.77Z" fill="#4C4C4C"/>
<path d="M225.03 93.77H218.78V100.02H225.03V93.77Z" fill="#4C4C4C"/>
<path d="M218.78 93.77H212.53V100.02H218.78V93.77Z" fill="#4C4C4C"/>
<path d="M212.53 93.77H206.28V100.02H212.53V93.77Z" fill="#4C4C4C"/>
<path d="M206.28 93.77H200.03V100.02H206.28V93.77Z" fill="#4C4C4C"/>
<path d="M200.03 93.77H193.78V100.02H200.03V93.77Z" fill="#4C4C4C"/>
<path d="M193.78 93.77H187.53V100.02H193.78V93.77Z" fill="#4C4C4C"/>
<path d="M187.52 93.77H181.27V100.02H187.52V93.77Z" fill="#4C4C4C"/>
<path d="M181.27 93.77H175.02V100.02H181.27V93.77Z" fill="#4C4C4C"/>
<path d="M175.02 93.77H168.77V100.02H175.02V93.77Z" fill="#4C4C4C"/>
<path d="M168.77 93.77H162.52V100.02H168.77V93.77Z" fill="#4C4C4C"/>
<path d="M162.52 93.77H156.27V100.02H162.52V93.77Z" fill="#4C4C4C"/>
<path d="M156.27 93.77H150.02V100.02H156.27V93.77Z" fill="#4C4C4C"/>
<path d="M150.02 93.77H143.77V100.02H150.02V93.77Z" fill="#4C4C4C"/>
<path d="M143.77 93.77H137.52V100.02H143.77V93.77Z" fill="#4C4C4C"/>
<path d="M137.52 93.77H131.27V100.02H137.52V93.77Z" fill="#4C4C4C"/>
<path d="M131.27 93.77H125.02V100.02H131.27V93.77Z" fill="#4C4C4C"/>
<path d="M125.02 93.77H118.77V100.02H125.02V93.77Z" fill="#4C4C4C"/>
<path d="M118.77 93.77H112.52V100.02H118.77V93.77Z" fill="#4C4C4C"/>
<path d="M112.51 93.77H106.26V100.02H112.51V93.77Z" fill="#4C4C4C"/>
<path d="M106.26 93.77H100.01V100.02H106.26V93.77Z" fill="#4C4C4C"/>
<path d="M100.01 93.77H93.76V100.02H100.01V93.77Z" fill="#4C4C4C"/>
<path d="M93.76 93.77H87.51V100.02H93.76V93.77Z" fill="#4C4C4C"/>
<path d="M87.51 93.77H81.26V100.02H87.51V93.77Z" fill="#4C4C4C"/>
<path d="M81.26 93.77H75.01V100.02H81.26V93.77Z" fill="#4C4C4C"/>
<path d="M75.01 93.77H68.76V100.02H75.01V93.77Z" fill="#4C4C4C"/>
<path d="M68.76 93.77H62.51V100.02H68.76V93.77Z" fill="#4C4C4C"/>
<path d="M62.51 93.77H56.26V100.02H62.51V93.77Z" fill="#4C4C4C"/>
<path d="M56.26 93.77H50.01V100.02H56.26V93.77Z" fill="#4C4C4C"/>
<path d="M50.01 93.77H43.76V100.02H50.01V93.77Z" fill="#4C4C4C"/>
<path d="M43.76 93.77H37.51V100.02H43.76V93.77Z" fill="#4C4C4C"/>
<path d="M37.5 93.77H31.25V100.02H37.5V93.77Z" fill="#4C4C4C"/>
<path d="M31.25 93.77H25V100.02H31.25V93.77Z" fill="#4C4C4C"/>
<path d="M25 93.77H18.75V100.02H25V93.77Z" fill="#4C4C4C"/>
<path d="M18.75 93.77H12.5V100.02H18.75V93.77Z" fill="#4C4C4C"/>
<path d="M67.96 46.89V43.77H64.84V40.65H71.1V43.77H80.48V34.39H67.97V31.27H64.85V25.01H67.97V21.89H83.6V25.01H86.72V28.13H80.47V25.01H71.09V31.27H83.59V34.39H86.71V43.77H83.59V46.89H67.96Z" fill="#E5E5E5"/>
<path d="M91.41 46.89V21.89H113.29V25.01H97.66V31.27H107.04V34.39H97.66V43.77H113.29V46.89H91.41Z" fill="#E5E5E5"/>
<path d="M117.98 46.89V21.89H124.24V43.77H136.74V46.89H117.98Z" fill="#E5E5E5"/>
<path d="M141.42 46.89V21.89H163.3V25.01H147.67V31.27H157.05V34.39H147.67V43.77H163.3V46.89H141.42Z" fill="#E5E5E5"/>
<path d="M174.25 46.89V43.77H171.12V40.65H168V28.14H171.12V25.02H174.25V21.9H186.75V25.02H189.87V28.14H183.62V25.02H177.36V28.14H174.24V40.65H177.36V43.77H183.62V40.65H189.87V43.77H186.75V46.89H174.25Z" fill="#E5E5E5"/>
<path d="M202.39 46.89V25.01H194.57V21.89H216.45V25.01H208.64V46.89H202.38H202.39Z" fill="#E5E5E5"/>
<path d="M67.96 53.15V50.03H64.84V46.91H71.1V50.03H80.48V40.65H67.97V37.53H64.85V31.27H67.97V28.15H83.6V31.27H86.72V34.39H80.47V31.27H71.09V37.53H83.59V40.65H86.71V50.03H83.59V53.15H67.96Z" fill="#808080"/>
<path d="M91.41 53.15V28.15H113.29V31.27H97.66V37.53H107.04V40.65H97.66V50.03H113.29V53.15H91.41Z" fill="#808080"/>
<path d="M117.98 53.15V28.15H124.24V50.03H136.74V53.15H117.98Z" fill="#808080"/>
<path d="M141.42 53.15V28.15H163.3V31.27H147.67V37.53H157.05V40.65H147.67V50.03H163.3V53.15H141.42Z" fill="#808080"/>
<path d="M174.25 53.15V50.03H171.12V46.91H168V34.4H171.12V31.28H174.25V28.16H186.75V31.28H189.87V34.4H183.62V31.28H177.36V34.4H174.24V46.91H177.36V50.03H183.62V46.91H189.87V50.03H186.75V53.15H174.25Z" fill="#808080"/>
<path d="M202.39 53.15V31.27H194.57V28.15H216.45V31.27H208.64V53.15H202.38H202.39Z" fill="#808080"/>
<path d="M67.96 50.02V46.9H64.84V43.78H71.1V46.9H80.48V37.52H67.97V34.4H64.85V28.14H67.97V25.02H83.6V28.14H86.72V31.26H80.47V28.14H71.09V34.4H83.59V37.52H86.71V46.9H83.59V50.02H67.96Z" fill="#282828"/>
<path d="M91.41 50.02V25.02H113.29V28.14H97.66V34.4H107.04V37.52H97.66V46.9H113.29V50.02H91.41Z" fill="#282828"/>
<path d="M117.98 50.02V25.02H124.24V46.9H136.74V50.02H117.98Z" fill="#282828"/>
<path d="M141.42 50.02V25.02H163.3V28.14H147.67V34.4H157.05V37.52H147.67V46.9H163.3V50.02H141.42Z" fill="#282828"/>
<path d="M174.25 50.02V46.9H171.12V43.78H168V31.27H171.12V28.15H174.25V25.03H186.75V28.15H189.87V31.27H183.62V28.15H177.36V31.27H174.24V43.78H177.36V46.9H183.62V43.78H189.87V46.9H186.75V50.02H174.25Z" fill="#282828"/>
<path d="M202.39 50.02V28.14H194.57V25.02H216.45V28.14H208.64V50.02H202.38H202.39Z" fill="#282828"/>
<g style="mix-blend-mode:color">
<path d="M12.5 0.0100098V6.26001H6.25V12.51H0V87.52H6.25V93.77H12.5V100.02H37.5V100.01H37.51V100.02H112.51V100.01H112.52V100.02H187.52V100.01H187.53V100.02H262.53V100.01H262.54V100.02H268.79V93.77H275.04V87.52H281.29V37.52H281V37.51H281.29V12.51H275.04V6.26001H268.79V0.0100098H12.5Z" fill="#7DC4C8"/>
</g>
</g>
<defs>
<clipPath id="clip0_3_51834">
<rect width="281.29" height="100.01" fill="white" transform="translate(0 0.0100098)"/>
</clipPath>
</defs>
</svg>
