<svg width="282" height="100" viewBox="0 0 282 100" fill="none" xmlns="http://www.w3.org/2000/svg">
<g clip-path="url(#clip0_3_11149)">
<path d="M12.5 0V6.25H6.25V12.5H0V87.51H6.25V93.76H12.5V100.01H37.5V100H37.51V100.01H112.51V100H112.52V100.01H187.52V100H187.53V100.01H262.53V100H262.54V100.01H268.79V93.76H275.04V87.51H281.29V37.51H281V37.5H281.29V12.5H275.04V6.25H268.79V0H12.5Z" fill="#4C4C4C"/>
<path d="M268.79 0H262.54V6.25H268.79V0Z" fill="#4C4C4C"/>
<path d="M262.53 0H256.28V6.25H262.53V0Z" fill="#4C4C4C"/>
<path d="M256.28 0H250.03V6.25H256.28V0Z" fill="#4C4C4C"/>
<path d="M250.03 0H243.78V6.25H250.03V0Z" fill="#4C4C4C"/>
<path d="M243.78 0H237.53V6.25H243.78V0Z" fill="#4C4C4C"/>
<path d="M237.53 0H231.28V6.25H237.53V0Z" fill="#4C4C4C"/>
<path d="M231.28 0H225.03V6.25H231.28V0Z" fill="#4C4C4C"/>
<path d="M225.03 0H218.78V6.25H225.03V0Z" fill="#4C4C4C"/>
<path d="M218.78 0H212.53V6.25H218.78V0Z" fill="#4C4C4C"/>
<path d="M212.53 0H206.28V6.25H212.53V0Z" fill="#4C4C4C"/>
<path d="M206.28 0H200.03V6.25H206.28V0Z" fill="#4C4C4C"/>
<path d="M200.03 0H193.78V6.25H200.03V0Z" fill="#4C4C4C"/>
<path d="M193.78 0H187.53V6.25H193.78V0Z" fill="#4C4C4C"/>
<path d="M187.52 0H181.27V6.25H187.52V0Z" fill="#4C4C4C"/>
<path d="M181.27 0H175.02V6.25H181.27V0Z" fill="#4C4C4C"/>
<path d="M175.02 0H168.77V6.25H175.02V0Z" fill="#4C4C4C"/>
<path d="M168.77 0H162.52V6.25H168.77V0Z" fill="#4C4C4C"/>
<path d="M162.52 0H156.27V6.25H162.52V0Z" fill="#4C4C4C"/>
<path d="M156.27 0H150.02V6.25H156.27V0Z" fill="#4C4C4C"/>
<path d="M150.02 0H143.77V6.25H150.02V0Z" fill="#4C4C4C"/>
<path d="M143.77 0H137.52V6.25H143.77V0Z" fill="#4C4C4C"/>
<path d="M137.52 0H131.27V6.25H137.52V0Z" fill="#4C4C4C"/>
<path d="M131.27 0H125.02V6.25H131.27V0Z" fill="#4C4C4C"/>
<path d="M125.02 0H118.77V6.25H125.02V0Z" fill="#4C4C4C"/>
<path d="M118.77 0H112.52V6.25H118.77V0Z" fill="#4C4C4C"/>
<path d="M112.51 0H106.26V6.25H112.51V0Z" fill="#4C4C4C"/>
<path d="M106.26 0H100.01V6.25H106.26V0Z" fill="#4C4C4C"/>
<path d="M100.01 0H93.76V6.25H100.01V0Z" fill="#4C4C4C"/>
<path d="M93.76 0H87.51V6.25H93.76V0Z" fill="#4C4C4C"/>
<path d="M87.51 0H81.26V6.25H87.51V0Z" fill="#4C4C4C"/>
<path d="M81.26 0H75.01V6.25H81.26V0Z" fill="#4C4C4C"/>
<path d="M75.01 0H68.76V6.25H75.01V0Z" fill="#4C4C4C"/>
<path d="M68.76 0H62.51V6.25H68.76V0Z" fill="#4C4C4C"/>
<path d="M62.51 0H56.26V6.25H62.51V0Z" fill="#4C4C4C"/>
<path d="M56.26 0H50.01V6.25H56.26V0Z" fill="#4C4C4C"/>
<path d="M50.01 0H43.76V6.25H50.01V0Z" fill="#4C4C4C"/>
<path d="M43.76 0H37.51V6.25H43.76V0Z" fill="#4C4C4C"/>
<path d="M37.5 0H31.25V6.25H37.5V0Z" fill="#4C4C4C"/>
<path d="M31.25 0H25V6.25H31.25V0Z" fill="#4C4C4C"/>
<path d="M25 0H18.75V6.25H25V0Z" fill="#4C4C4C"/>
<path d="M18.75 0H12.5V6.25H18.75V0Z" fill="#4C4C4C"/>
<path d="M275.04 6.25H268.79V12.5H275.04V6.25Z" fill="#4C4C4C"/>
<path d="M268.79 6.25H262.54V12.5H268.79V6.25Z" fill="#3D3D3D"/>
<path d="M262.53 6.25H256.28V12.5H262.53V6.25Z" fill="#3D3D3D"/>
<path d="M256.28 6.25H250.03V12.5H256.28V6.25Z" fill="#3D3D3D"/>
<path d="M250.03 6.25H243.78V12.5H250.03V6.25Z" fill="#3D3D3D"/>
<path d="M243.78 6.25H237.53V12.5H243.78V6.25Z" fill="#D6D6D6"/>
<path d="M237.53 6.25H231.28V12.5H237.53V6.25Z" fill="#A5A5A5"/>
<path d="M231.28 6.25H225.03V12.5H231.28V6.25Z" fill="#A5A5A5"/>
<path d="M225.03 6.25H218.78V12.5H225.03V6.25Z" fill="#A5A5A5"/>
<path d="M218.78 6.25H212.53V12.5H218.78V6.25Z" fill="#A5A5A5"/>
<path d="M212.53 6.25H206.28V12.5H212.53V6.25Z" fill="#A5A5A5"/>
<path d="M206.28 6.25H200.03V12.5H206.28V6.25Z" fill="#A5A5A5"/>
<path d="M200.03 6.25H193.78V12.5H200.03V6.25Z" fill="#A5A5A5"/>
<path d="M193.78 6.25H187.53V12.5H193.78V6.25Z" fill="#A5A5A5"/>
<path d="M187.52 6.25H181.27V12.5H187.52V6.25Z" fill="#A5A5A5"/>
<path d="M181.27 6.25H175.02V12.5H181.27V6.25Z" fill="#A5A5A5"/>
<path d="M175.02 6.25H168.77V12.5H175.02V6.25Z" fill="#A5A5A5"/>
<path d="M168.77 6.25H162.52V12.5H168.77V6.25Z" fill="#A5A5A5"/>
<path d="M162.52 6.25H156.27V12.5H162.52V6.25Z" fill="#A5A5A5"/>
<path d="M156.27 6.25H150.02V12.5H156.27V6.25Z" fill="#D6D6D6"/>
<path d="M150.02 6.25H143.77V12.5H150.02V6.25Z" fill="#D6D6D6"/>
<path d="M143.77 6.25H137.52V12.5H143.77V6.25Z" fill="#D6D6D6"/>
<path d="M137.52 6.25H131.27V12.5H137.52V6.25Z" fill="#A5A5A5"/>
<path d="M131.27 6.25H125.02V12.5H131.27V6.25Z" fill="#A5A5A5"/>
<path d="M125.02 6.25H118.77V12.5H125.02V6.25Z" fill="#A5A5A5"/>
<path d="M118.77 6.25H112.52V12.5H118.77V6.25Z" fill="#D6D6D6"/>
<path d="M112.51 6.25H106.26V12.5H112.51V6.25Z" fill="#A5A5A5"/>
<path d="M106.26 6.25H100.01V12.5H106.26V6.25Z" fill="#A5A5A5"/>
<path d="M100.01 6.25H93.76V12.5H100.01V6.25Z" fill="#A5A5A5"/>
<path d="M93.76 6.25H87.51V12.5H93.76V6.25Z" fill="#A5A5A5"/>
<path d="M87.51 6.25H81.26V12.5H87.51V6.25Z" fill="#A5A5A5"/>
<path d="M81.26 6.25H75.01V12.5H81.26V6.25Z" fill="#A5A5A5"/>
<path d="M75.01 6.25H68.76V12.5H75.01V6.25Z" fill="#A5A5A5"/>
<path d="M68.76 6.25H62.51V12.5H68.76V6.25Z" fill="#A5A5A5"/>
<path d="M62.51 6.25H56.26V12.5H62.51V6.25Z" fill="#A5A5A5"/>
<path d="M56.26 6.25H50.01V12.5H56.26V6.25Z" fill="#A5A5A5"/>
<path d="M50.01 6.25H43.76V12.5H50.01V6.25Z" fill="#A5A5A5"/>
<path d="M43.76 6.25H37.51V12.5H43.76V6.25Z" fill="#D6D6D6"/>
<path d="M37.5 6.25H31.25V12.5H37.5V6.25Z" fill="#808080"/>
<path d="M31.25 6.25H25V12.5H31.25V6.25Z" fill="#808080"/>
<path d="M25 6.25H18.75V12.5H25V6.25Z" fill="#808080"/>
<path d="M18.75 6.25H12.5V12.5H18.75V6.25Z" fill="#808080"/>
<path d="M12.5 6.25H6.25V12.5H12.5V6.25Z" fill="#4C4C4C"/>
<path d="M281.29 12.5H275.04V18.75H281.29V12.5Z" fill="#4C4C4C"/>
<path d="M275.04 12.5H268.79V18.75H275.04V12.5Z" fill="#3D3D3D"/>
<path d="M268.79 12.5H262.54V18.75H268.79V12.5Z" fill="#3D3D3D"/>
<path d="M262.53 12.5H256.28V18.75H262.53V12.5Z" fill="#3D3D3D"/>
<path d="M256.28 12.5H250.03V18.75H256.28V12.5Z" fill="#3D3D3D"/>
<path d="M250.03 12.5H243.78V18.75H250.03V12.5Z" fill="#D6D6D6"/>
<path d="M243.78 12.5H237.53V18.75H243.78V12.5Z" fill="#A5A5A5"/>
<path d="M237.53 12.5H231.28V18.75H237.53V12.5Z" fill="#A5A5A5"/>
<path d="M231.28 12.5H225.03V18.75H231.28V12.5Z" fill="#A5A5A5"/>
<path d="M225.03 12.5H218.78V18.75H225.03V12.5Z" fill="#A5A5A5"/>
<path d="M218.78 12.5H212.53V18.75H218.78V12.5Z" fill="#A5A5A5"/>
<path d="M212.53 12.5H206.28V18.75H212.53V12.5Z" fill="#A5A5A5"/>
<path d="M206.28 12.5H200.03V18.75H206.28V12.5Z" fill="#A5A5A5"/>
<path d="M200.03 12.5H193.78V18.75H200.03V12.5Z" fill="#A5A5A5"/>
<path d="M193.78 12.5H187.53V18.75H193.78V12.5Z" fill="#A5A5A5"/>
<path d="M187.52 12.5H181.27V18.75H187.52V12.5Z" fill="#A5A5A5"/>
<path d="M181.27 12.5H175.02V18.75H181.27V12.5Z" fill="#A5A5A5"/>
<path d="M175.02 12.5H168.77V18.75H175.02V12.5Z" fill="#A5A5A5"/>
<path d="M168.77 12.5H162.52V18.75H168.77V12.5Z" fill="#A5A5A5"/>
<path d="M162.52 12.5H156.27V18.75H162.52V12.5Z" fill="#D6D6D6"/>
<path d="M156.27 12.5H150.02V18.75H156.27V12.5Z" fill="#D6D6D6"/>
<path d="M150.02 12.5H143.77V18.75H150.02V12.5Z" fill="#D6D6D6"/>
<path d="M143.77 12.5H137.52V18.75H143.77V12.5Z" fill="#A5A5A5"/>
<path d="M137.52 12.5H131.27V18.75H137.52V12.5Z" fill="#A5A5A5"/>
<path d="M131.27 12.5H125.02V18.75H131.27V12.5Z" fill="#A5A5A5"/>
<path d="M125.02 12.5H118.77V18.75H125.02V12.5Z" fill="#D6D6D6"/>
<path d="M118.77 12.5H112.52V18.75H118.77V12.5Z" fill="#A5A5A5"/>
<path d="M112.51 12.5H106.26V18.75H112.51V12.5Z" fill="#A5A5A5"/>
<path d="M106.26 12.5H100.01V18.75H106.26V12.5Z" fill="#A5A5A5"/>
<path d="M100.01 12.5H93.76V18.75H100.01V12.5Z" fill="#A5A5A5"/>
<path d="M93.76 12.5H87.51V18.75H93.76V12.5Z" fill="#A5A5A5"/>
<path d="M87.51 12.5H81.26V18.75H87.51V12.5Z" fill="#A5A5A5"/>
<path d="M81.26 12.5H75.01V18.75H81.26V12.5Z" fill="#A5A5A5"/>
<path d="M75.01 12.5H68.76V18.75H75.01V12.5Z" fill="#A5A5A5"/>
<path d="M68.76 12.5H62.51V18.75H68.76V12.5Z" fill="#A5A5A5"/>
<path d="M62.51 12.5H56.26V18.75H62.51V12.5Z" fill="#A5A5A5"/>
<path d="M56.26 12.5H50.01V18.75H56.26V12.5Z" fill="#A5A5A5"/>
<path d="M50.01 12.5H43.76V18.75H50.01V12.5Z" fill="#A5A5A5"/>
<path d="M43.76 12.5H37.51V18.75H43.76V12.5Z" fill="#A5A5A5"/>
<path d="M37.5 12.5H31.25V18.75H37.5V12.5Z" fill="#D6D6D6"/>
<path d="M31.25 12.5H25V18.75H31.25V12.5Z" fill="#808080"/>
<path d="M25 12.5H18.75V18.75H25V12.5Z" fill="#808080"/>
<path d="M18.75 12.5H12.5V18.75H18.75V12.5Z" fill="#808080"/>
<path d="M12.5 12.5H6.25V18.75H12.5V12.5Z" fill="#808080"/>
<path d="M6.25 12.5H0V18.75H6.25V12.5Z" fill="#4C4C4C"/>
<path d="M281.29 18.75H275.04V25H281.29V18.75Z" fill="#4C4C4C"/>
<path d="M275.04 18.75H268.79V25H275.04V18.75Z" fill="#3D3D3D"/>
<path d="M268.79 18.75H262.54V25H268.79V18.75Z" fill="#3D3D3D"/>
<path d="M262.53 18.75H256.28V25H262.53V18.75Z" fill="#3D3D3D"/>
<path d="M256.28 18.75H250.03V25H256.28V18.75Z" fill="#3D3D3D"/>
<path d="M250.03 18.75H243.78V25H250.03V18.75Z" fill="#A5A5A5"/>
<path d="M243.78 18.75H237.53V25H243.78V18.75Z" fill="#A5A5A5"/>
<path d="M237.53 18.75H231.28V25H237.53V18.75Z" fill="#A5A5A5"/>
<path d="M231.28 18.75H225.03V25H231.28V18.75Z" fill="#A5A5A5"/>
<path d="M225.03 18.75H218.78V25H225.03V18.75Z" fill="#A5A5A5"/>
<path d="M218.78 18.75H212.53V25H218.78V18.75Z" fill="#A5A5A5"/>
<path d="M212.53 18.75H206.28V25H212.53V18.75Z" fill="#A5A5A5"/>
<path d="M206.28 18.75H200.03V25H206.28V18.75Z" fill="#A5A5A5"/>
<path d="M200.03 18.75H193.78V25H200.03V18.75Z" fill="#A5A5A5"/>
<path d="M193.78 18.75H187.53V25H193.78V18.75Z" fill="#A5A5A5"/>
<path d="M187.52 18.75H181.27V25H187.52V18.75Z" fill="#A5A5A5"/>
<path d="M181.27 18.75H175.02V25H181.27V18.75Z" fill="#A5A5A5"/>
<path d="M175.02 18.75H168.77V25H175.02V18.75Z" fill="#A5A5A5"/>
<path d="M168.77 18.75H162.52V25H168.77V18.75Z" fill="#D6D6D6"/>
<path d="M162.52 18.75H156.27V25H162.52V18.75Z" fill="#D6D6D6"/>
<path d="M156.27 18.75H150.02V25H156.27V18.75Z" fill="#D6D6D6"/>
<path d="M150.02 18.75H143.77V25H150.02V18.75Z" fill="#A5A5A5"/>
<path d="M143.77 18.75H137.52V25H143.77V18.75Z" fill="#A5A5A5"/>
<path d="M137.52 18.75H131.27V25H137.52V18.75Z" fill="#A5A5A5"/>
<path d="M131.27 18.75H125.02V25H131.27V18.75Z" fill="#D6D6D6"/>
<path d="M125.02 18.75H118.77V25H125.02V18.75Z" fill="#A5A5A5"/>
<path d="M118.77 18.75H112.52V25H118.77V18.75Z" fill="#A5A5A5"/>
<path d="M112.51 18.75H106.26V25H112.51V18.75Z" fill="#A5A5A5"/>
<path d="M106.26 18.75H100.01V25H106.26V18.75Z" fill="#A5A5A5"/>
<path d="M100.01 18.75H93.76V25H100.01V18.75Z" fill="#A5A5A5"/>
<path d="M93.76 18.75H87.51V25H93.76V18.75Z" fill="#A5A5A5"/>
<path d="M87.51 18.75H81.26V25H87.51V18.75Z" fill="#A5A5A5"/>
<path d="M81.26 18.75H75.01V25H81.26V18.75Z" fill="#A5A5A5"/>
<path d="M75.01 18.75H68.76V25H75.01V18.75Z" fill="#A5A5A5"/>
<path d="M68.76 18.75H62.51V25H68.76V18.75Z" fill="#A5A5A5"/>
<path d="M62.51 18.75H56.26V25H62.51V18.75Z" fill="#A5A5A5"/>
<path d="M56.26 18.75H50.01V25H56.26V18.75Z" fill="#A5A5A5"/>
<path d="M50.01 18.75H43.76V25H50.01V18.75Z" fill="#A5A5A5"/>
<path d="M43.76 18.75H37.51V25H43.76V18.75Z" fill="#A5A5A5"/>
<path d="M37.5 18.75H31.25V25H37.5V18.75Z" fill="#A5A5A5"/>
<path d="M31.25 18.75H25V25H31.25V18.75Z" fill="#808080"/>
<path d="M25 18.75H18.75V25H25V18.75Z" fill="#808080"/>
<path d="M18.75 18.75H12.5V25H18.75V18.75Z" fill="#808080"/>
<path d="M12.5 18.75H6.25V25H12.5V18.75Z" fill="#808080"/>
<path d="M6.25 18.75H0V25H6.25V18.75Z" fill="#4C4C4C"/>
<path d="M281.29 25H275.04V31.25H281.29V25Z" fill="#4C4C4C"/>
<path d="M275.04 25H268.79V31.25H275.04V25Z" fill="#3D3D3D"/>
<path d="M268.79 25H262.54V31.25H268.79V25Z" fill="#3D3D3D"/>
<path d="M262.53 25H256.28V31.25H262.53V25Z" fill="#3D3D3D"/>
<path d="M256.28 25H250.03V31.25H256.28V25Z" fill="#3D3D3D"/>
<path d="M250.03 25H243.78V31.25H250.03V25Z" fill="#A5A5A5"/>
<path d="M243.78 25H237.53V31.25H243.78V25Z" fill="#A5A5A5"/>
<path d="M237.53 25H231.28V31.25H237.53V25Z" fill="#A5A5A5"/>
<path d="M231.28 25H225.03V31.25H231.28V25Z" fill="#A5A5A5"/>
<path d="M225.03 25H218.78V31.25H225.03V25Z" fill="#A5A5A5"/>
<path d="M218.78 25H212.53V31.25H218.78V25Z" fill="#A5A5A5"/>
<path d="M212.53 25H206.28V31.25H212.53V25Z" fill="#A5A5A5"/>
<path d="M206.28 25H200.03V31.25H206.28V25Z" fill="#A5A5A5"/>
<path d="M200.03 25H193.78V31.25H200.03V25Z" fill="#A5A5A5"/>
<path d="M193.78 25H187.53V31.25H193.78V25Z" fill="#A5A5A5"/>
<path d="M187.52 25H181.27V31.25H187.52V25Z" fill="#A5A5A5"/>
<path d="M181.27 25H175.02V31.25H181.27V25Z" fill="#A5A5A5"/>
<path d="M175.02 25H168.77V31.25H175.02V25Z" fill="#D6D6D6"/>
<path d="M168.77 25H162.52V31.25H168.77V25Z" fill="#D6D6D6"/>
<path d="M162.52 25H156.27V31.25H162.52V25Z" fill="#D6D6D6"/>
<path d="M156.27 25H150.02V31.25H156.27V25Z" fill="#A5A5A5"/>
<path d="M150.02 25H143.77V31.25H150.02V25Z" fill="#A5A5A5"/>
<path d="M143.77 25H137.52V31.25H143.77V25Z" fill="#A5A5A5"/>
<path d="M137.52 25H131.27V31.25H137.52V25Z" fill="#D6D6D6"/>
<path d="M131.27 25H125.02V31.25H131.27V25Z" fill="#A5A5A5"/>
<path d="M125.02 25H118.77V31.25H125.02V25Z" fill="#A5A5A5"/>
<path d="M118.77 25H112.52V31.25H118.77V25Z" fill="#A5A5A5"/>
<path d="M112.51 25H106.26V31.25H112.51V25Z" fill="#A5A5A5"/>
<path d="M106.26 25H100.01V31.25H106.26V25Z" fill="#A5A5A5"/>
<path d="M100.01 25H93.76V31.25H100.01V25Z" fill="#A5A5A5"/>
<path d="M93.76 25H87.51V31.25H93.76V25Z" fill="#A5A5A5"/>
<path d="M87.51 25H81.26V31.25H87.51V25Z" fill="#A5A5A5"/>
<path d="M81.26 25H75.01V31.25H81.26V25Z" fill="#A5A5A5"/>
<path d="M75.01 25H68.76V31.25H75.01V25Z" fill="#A5A5A5"/>
<path d="M68.76 25H62.51V31.25H68.76V25Z" fill="#A5A5A5"/>
<path d="M62.51 25H56.26V31.25H62.51V25Z" fill="#A5A5A5"/>
<path d="M56.26 25H50.01V31.25H56.26V25Z" fill="#A5A5A5"/>
<path d="M50.01 25H43.76V31.25H50.01V25Z" fill="#A5A5A5"/>
<path d="M43.76 25H37.51V31.25H43.76V25Z" fill="#A5A5A5"/>
<path d="M37.5 25H31.25V31.25H37.5V25Z" fill="#A5A5A5"/>
<path d="M31.25 25H25V31.25H31.25V25Z" fill="#808080"/>
<path d="M25 25H18.75V31.25H25V25Z" fill="#808080"/>
<path d="M18.75 25H12.5V31.25H18.75V25Z" fill="#808080"/>
<path d="M12.5 25H6.25V31.25H12.5V25Z" fill="#808080"/>
<path d="M6.25 25H0V31.25H6.25V25Z" fill="#4C4C4C"/>
<path d="M281.29 31.25H275.04V37.5H281.29V31.25Z" fill="#4C4C4C"/>
<path d="M275.04 31.25H268.79V37.5H275.04V31.25Z" fill="#3D3D3D"/>
<path d="M268.79 31.25H262.54V37.5H268.79V31.25Z" fill="#3D3D3D"/>
<path d="M262.53 31.25H256.28V37.5H262.53V31.25Z" fill="#3D3D3D"/>
<path d="M256.28 31.25H250.03V37.5H256.28V31.25Z" fill="#3D3D3D"/>
<path d="M250.03 31.25H243.78V37.5H250.03V31.25Z" fill="#A5A5A5"/>
<path d="M243.78 31.25H237.53V37.5H243.78V31.25Z" fill="#A5A5A5"/>
<path d="M237.53 31.25H231.28V37.5H237.53V31.25Z" fill="#A5A5A5"/>
<path d="M231.28 31.25H225.03V37.5H231.28V31.25Z" fill="#A5A5A5"/>
<path d="M225.03 31.25H218.78V37.5H225.03V31.25Z" fill="#A5A5A5"/>
<path d="M218.78 31.25H212.53V37.5H218.78V31.25Z" fill="#A5A5A5"/>
<path d="M212.53 31.25H206.28V37.5H212.53V31.25Z" fill="#A5A5A5"/>
<path d="M206.28 31.25H200.03V37.5H206.28V31.25Z" fill="#A5A5A5"/>
<path d="M200.03 31.25H193.78V37.5H200.03V31.25Z" fill="#A5A5A5"/>
<path d="M193.78 31.25H187.53V37.5H193.78V31.25Z" fill="#A5A5A5"/>
<path d="M187.52 31.25H181.27V37.5H187.52V31.25Z" fill="#A5A5A5"/>
<path d="M181.27 31.25H175.02V37.5H181.27V31.25Z" fill="#D6D6D6"/>
<path d="M175.02 31.25H168.77V37.5H175.02V31.25Z" fill="#D6D6D6"/>
<path d="M168.77 31.25H162.52V37.5H168.77V31.25Z" fill="#D6D6D6"/>
<path d="M162.52 31.25H156.27V37.5H162.52V31.25Z" fill="#A5A5A5"/>
<path d="M156.27 31.25H150.02V37.5H156.27V31.25Z" fill="#A5A5A5"/>
<path d="M150.02 31.25H143.77V37.5H150.02V31.25Z" fill="#A5A5A5"/>
<path d="M143.77 31.25H137.52V37.5H143.77V31.25Z" fill="#D6D6D6"/>
<path d="M137.52 31.25H131.27V37.5H137.52V31.25Z" fill="#A5A5A5"/>
<path d="M131.27 31.25H125.02V37.5H131.27V31.25Z" fill="#A5A5A5"/>
<path d="M125.02 31.25H118.77V37.5H125.02V31.25Z" fill="#A5A5A5"/>
<path d="M118.77 31.25H112.52V37.5H118.77V31.25Z" fill="#A5A5A5"/>
<path d="M112.51 31.25H106.26V37.5H112.51V31.25Z" fill="#A5A5A5"/>
<path d="M106.26 31.25H100.01V37.5H106.26V31.25Z" fill="#A5A5A5"/>
<path d="M100.01 31.25H93.76V37.5H100.01V31.25Z" fill="#A5A5A5"/>
<path d="M93.76 31.25H87.51V37.5H93.76V31.25Z" fill="#A5A5A5"/>
<path d="M87.51 31.25H81.26V37.5H87.51V31.25Z" fill="#A5A5A5"/>
<path d="M81.26 31.25H75.01V37.5H81.26V31.25Z" fill="#A5A5A5"/>
<path d="M75.01 31.25H68.76V37.5H75.01V31.25Z" fill="#A5A5A5"/>
<path d="M68.76 31.25H62.51V37.5H68.76V31.25Z" fill="#A5A5A5"/>
<path d="M62.51 31.25H56.26V37.5H62.51V31.25Z" fill="#A5A5A5"/>
<path d="M56.26 31.25H50.01V37.5H56.26V31.25Z" fill="#A5A5A5"/>
<path d="M50.01 31.25H43.76V37.5H50.01V31.25Z" fill="#A5A5A5"/>
<path d="M43.76 31.25H37.51V37.5H43.76V31.25Z" fill="#A5A5A5"/>
<path d="M37.5 31.25H31.25V37.5H37.5V31.25Z" fill="#A5A5A5"/>
<path d="M31.25 31.25H25V37.5H31.25V31.25Z" fill="#808080"/>
<path d="M25 31.25H18.75V37.5H25V31.25Z" fill="#808080"/>
<path d="M18.75 31.25H12.5V37.5H18.75V31.25Z" fill="#808080"/>
<path d="M12.5 31.25H6.25V37.5H12.5V31.25Z" fill="#808080"/>
<path d="M6.25 31.25H0V37.5H6.25V31.25Z" fill="#4C4C4C"/>
<path d="M281.29 37.51H275.04V43.76H281.29V37.51Z" fill="#4C4C4C"/>
<path d="M275.04 37.51H268.79V43.76H275.04V37.51Z" fill="#3D3D3D"/>
<path d="M268.79 37.51H262.54V43.76H268.79V37.51Z" fill="#3D3D3D"/>
<path d="M262.53 37.51H256.28V43.76H262.53V37.51Z" fill="#3D3D3D"/>
<path d="M256.28 37.51H250.03V43.76H256.28V37.51Z" fill="#3D3D3D"/>
<path d="M250.03 37.51H243.78V43.76H250.03V37.51Z" fill="#A5A5A5"/>
<path d="M243.78 37.51H237.53V43.76H243.78V37.51Z" fill="#A5A5A5"/>
<path d="M237.53 37.51H231.28V43.76H237.53V37.51Z" fill="#A5A5A5"/>
<path d="M231.28 37.51H225.03V43.76H231.28V37.51Z" fill="#A5A5A5"/>
<path d="M225.03 37.51H218.78V43.76H225.03V37.51Z" fill="#A5A5A5"/>
<path d="M218.78 37.51H212.53V43.76H218.78V37.51Z" fill="#A5A5A5"/>
<path d="M212.53 37.51H206.28V43.76H212.53V37.51Z" fill="#A5A5A5"/>
<path d="M206.28 37.51H200.03V43.76H206.28V37.51Z" fill="#A5A5A5"/>
<path d="M200.03 37.51H193.78V43.76H200.03V37.51Z" fill="#A5A5A5"/>
<path d="M193.78 37.51H187.53V43.76H193.78V37.51Z" fill="#A5A5A5"/>
<path d="M187.52 37.51H181.27V43.76H187.52V37.51Z" fill="#D6D6D6"/>
<path d="M181.27 37.51H175.02V43.76H181.27V37.51Z" fill="#D6D6D6"/>
<path d="M175.02 37.51H168.77V43.76H175.02V37.51Z" fill="#D6D6D6"/>
<path d="M168.77 37.51H162.52V43.76H168.77V37.51Z" fill="#A5A5A5"/>
<path d="M162.52 37.51H156.27V43.76H162.52V37.51Z" fill="#A5A5A5"/>
<path d="M156.27 37.51H150.02V43.76H156.27V37.51Z" fill="#A5A5A5"/>
<path d="M150.02 37.51H143.77V43.76H150.02V37.51Z" fill="#D6D6D6"/>
<path d="M143.77 37.51H137.52V43.76H143.77V37.51Z" fill="#A5A5A5"/>
<path d="M137.52 37.51H131.27V43.76H137.52V37.51Z" fill="#A5A5A5"/>
<path d="M131.27 37.51H125.02V43.76H131.27V37.51Z" fill="#A5A5A5"/>
<path d="M125.02 37.51H118.77V43.76H125.02V37.51Z" fill="#A5A5A5"/>
<path d="M118.77 37.51H112.52V43.76H118.77V37.51Z" fill="#A5A5A5"/>
<path d="M112.51 37.51H106.26V43.76H112.51V37.51Z" fill="#A5A5A5"/>
<path d="M106.26 37.51H100.01V43.76H106.26V37.51Z" fill="#A5A5A5"/>
<path d="M100.01 37.51H93.76V43.76H100.01V37.51Z" fill="#A5A5A5"/>
<path d="M93.76 37.51H87.51V43.76H93.76V37.51Z" fill="#A5A5A5"/>
<path d="M87.51 37.51H81.26V43.76H87.51V37.51Z" fill="#A5A5A5"/>
<path d="M81.26 37.51H75.01V43.76H81.26V37.51Z" fill="#A5A5A5"/>
<path d="M75.01 37.51H68.76V43.76H75.01V37.51Z" fill="#A5A5A5"/>
<path d="M68.76 37.51H62.51V43.76H68.76V37.51Z" fill="#A5A5A5"/>
<path d="M62.51 37.51H56.26V43.76H62.51V37.51Z" fill="#A5A5A5"/>
<path d="M56.26 37.51H50.01V43.76H56.26V37.51Z" fill="#A5A5A5"/>
<path d="M50.01 37.51H43.76V43.76H50.01V37.51Z" fill="#A5A5A5"/>
<path d="M43.76 37.51H37.51V43.76H43.76V37.51Z" fill="#A5A5A5"/>
<path d="M37.5 37.51H31.25V43.76H37.5V37.51Z" fill="#A5A5A5"/>
<path d="M31.25 37.51H25V43.76H31.25V37.51Z" fill="#808080"/>
<path d="M25 37.51H18.75V43.76H25V37.51Z" fill="#808080"/>
<path d="M18.75 37.51H12.5V43.76H18.75V37.51Z" fill="#808080"/>
<path d="M12.5 37.51H6.25V43.76H12.5V37.51Z" fill="#808080"/>
<path d="M6.25 37.51H0V43.76H6.25V37.51Z" fill="#4C4C4C"/>
<path d="M281.29 43.76H275.04V50.01H281.29V43.76Z" fill="#4C4C4C"/>
<path d="M275.04 43.76H268.79V50.01H275.04V43.76Z" fill="#3D3D3D"/>
<path d="M268.79 43.76H262.54V50.01H268.79V43.76Z" fill="#3D3D3D"/>
<path d="M262.53 43.76H256.28V50.01H262.53V43.76Z" fill="#3D3D3D"/>
<path d="M256.28 43.76H250.03V50.01H256.28V43.76Z" fill="#3D3D3D"/>
<path d="M250.03 43.76H243.78V50.01H250.03V43.76Z" fill="#A5A5A5"/>
<path d="M243.78 43.76H237.53V50.01H243.78V43.76Z" fill="#A5A5A5"/>
<path d="M237.53 43.76H231.28V50.01H237.53V43.76Z" fill="#A5A5A5"/>
<path d="M231.28 43.76H225.03V50.01H231.28V43.76Z" fill="#A5A5A5"/>
<path d="M225.03 43.76H218.78V50.01H225.03V43.76Z" fill="#A5A5A5"/>
<path d="M218.78 43.76H212.53V50.01H218.78V43.76Z" fill="#A5A5A5"/>
<path d="M212.53 43.76H206.28V50.01H212.53V43.76Z" fill="#A5A5A5"/>
<path d="M206.28 43.76H200.03V50.01H206.28V43.76Z" fill="#A5A5A5"/>
<path d="M200.03 43.76H193.78V50.01H200.03V43.76Z" fill="#A5A5A5"/>
<path d="M193.78 43.76H187.53V50.01H193.78V43.76Z" fill="#D6D6D6"/>
<path d="M187.52 43.76H181.27V50.01H187.52V43.76Z" fill="#D6D6D6"/>
<path d="M181.27 43.76H175.02V50.01H181.27V43.76Z" fill="#D6D6D6"/>
<path d="M175.02 43.76H168.77V50.01H175.02V43.76Z" fill="#A5A5A5"/>
<path d="M168.77 43.76H162.52V50.01H168.77V43.76Z" fill="#A5A5A5"/>
<path d="M162.52 43.76H156.27V50.01H162.52V43.76Z" fill="#A5A5A5"/>
<path d="M156.27 43.76H150.02V50.01H156.27V43.76Z" fill="#D6D6D6"/>
<path d="M150.02 43.76H143.77V50.01H150.02V43.76Z" fill="#A5A5A5"/>
<path d="M143.77 43.76H137.52V50.01H143.77V43.76Z" fill="#A5A5A5"/>
<path d="M137.52 43.76H131.27V50.01H137.52V43.76Z" fill="#A5A5A5"/>
<path d="M131.27 43.76H125.02V50.01H131.27V43.76Z" fill="#A5A5A5"/>
<path d="M125.02 43.76H118.77V50.01H125.02V43.76Z" fill="#A5A5A5"/>
<path d="M118.77 43.76H112.52V50.01H118.77V43.76Z" fill="#A5A5A5"/>
<path d="M112.51 43.76H106.26V50.01H112.51V43.76Z" fill="#A5A5A5"/>
<path d="M106.26 43.76H100.01V50.01H106.26V43.76Z" fill="#A5A5A5"/>
<path d="M100.01 43.76H93.76V50.01H100.01V43.76Z" fill="#A5A5A5"/>
<path d="M93.76 43.76H87.51V50.01H93.76V43.76Z" fill="#A5A5A5"/>
<path d="M87.51 43.76H81.26V50.01H87.51V43.76Z" fill="#A5A5A5"/>
<path d="M81.26 43.76H75.01V50.01H81.26V43.76Z" fill="#A5A5A5"/>
<path d="M75.01 43.76H68.76V50.01H75.01V43.76Z" fill="#A5A5A5"/>
<path d="M68.76 43.76H62.51V50.01H68.76V43.76Z" fill="#A5A5A5"/>
<path d="M62.51 43.76H56.26V50.01H62.51V43.76Z" fill="#A5A5A5"/>
<path d="M56.26 43.76H50.01V50.01H56.26V43.76Z" fill="#A5A5A5"/>
<path d="M50.01 43.76H43.76V50.01H50.01V43.76Z" fill="#A5A5A5"/>
<path d="M43.76 43.76H37.51V50.01H43.76V43.76Z" fill="#A5A5A5"/>
<path d="M37.5 43.76H31.25V50.01H37.5V43.76Z" fill="#A5A5A5"/>
<path d="M31.25 43.76H25V50.01H31.25V43.76Z" fill="#808080"/>
<path d="M25 43.76H18.75V50.01H25V43.76Z" fill="#808080"/>
<path d="M18.75 43.76H12.5V50.01H18.75V43.76Z" fill="#808080"/>
<path d="M12.5 43.76H6.25V50.01H12.5V43.76Z" fill="#808080"/>
<path d="M6.25 43.76H0V50.01H6.25V43.76Z" fill="#4C4C4C"/>
<path d="M281.29 50.01H275.04V56.26H281.29V50.01Z" fill="#4C4C4C"/>
<path d="M275.04 50.01H268.79V56.26H275.04V50.01Z" fill="#3D3D3D"/>
<path d="M268.79 50.01H262.54V56.26H268.79V50.01Z" fill="#3D3D3D"/>
<path d="M262.53 50.01H256.28V56.26H262.53V50.01Z" fill="#3D3D3D"/>
<path d="M256.28 50.01H250.03V56.26H256.28V50.01Z" fill="#3D3D3D"/>
<path d="M250.03 50.01H243.78V56.26H250.03V50.01Z" fill="#A5A5A5"/>
<path d="M243.78 50.01H237.53V56.26H243.78V50.01Z" fill="#A5A5A5"/>
<path d="M237.53 50.01H231.28V56.26H237.53V50.01Z" fill="#A5A5A5"/>
<path d="M231.28 50.01H225.03V56.26H231.28V50.01Z" fill="#A5A5A5"/>
<path d="M225.03 50.01H218.78V56.26H225.03V50.01Z" fill="#A5A5A5"/>
<path d="M218.78 50.01H212.53V56.26H218.78V50.01Z" fill="#A5A5A5"/>
<path d="M212.53 50.01H206.28V56.26H212.53V50.01Z" fill="#A5A5A5"/>
<path d="M206.28 50.01H200.03V56.26H206.28V50.01Z" fill="#A5A5A5"/>
<path d="M200.03 50.01H193.78V56.26H200.03V50.01Z" fill="#D6D6D6"/>
<path d="M193.78 50.01H187.53V56.26H193.78V50.01Z" fill="#D6D6D6"/>
<path d="M187.52 50.01H181.27V56.26H187.52V50.01Z" fill="#D6D6D6"/>
<path d="M181.27 50.01H175.02V56.26H181.27V50.01Z" fill="#A5A5A5"/>
<path d="M175.02 50.01H168.77V56.26H175.02V50.01Z" fill="#A5A5A5"/>
<path d="M168.77 50.01H162.52V56.26H168.77V50.01Z" fill="#A5A5A5"/>
<path d="M162.52 50.01H156.27V56.26H162.52V50.01Z" fill="#D6D6D6"/>
<path d="M156.27 50.01H150.02V56.26H156.27V50.01Z" fill="#A5A5A5"/>
<path d="M150.02 50.01H143.77V56.26H150.02V50.01Z" fill="#A5A5A5"/>
<path d="M143.77 50.01H137.52V56.26H143.77V50.01Z" fill="#A5A5A5"/>
<path d="M137.52 50.01H131.27V56.26H137.52V50.01Z" fill="#A5A5A5"/>
<path d="M131.27 50.01H125.02V56.26H131.27V50.01Z" fill="#A5A5A5"/>
<path d="M125.02 50.01H118.77V56.26H125.02V50.01Z" fill="#A5A5A5"/>
<path d="M118.77 50.01H112.52V56.26H118.77V50.01Z" fill="#A5A5A5"/>
<path d="M112.51 50.01H106.26V56.26H112.51V50.01Z" fill="#A5A5A5"/>
<path d="M106.26 50.01H100.01V56.26H106.26V50.01Z" fill="#A5A5A5"/>
<path d="M100.01 50.01H93.76V56.26H100.01V50.01Z" fill="#A5A5A5"/>
<path d="M93.76 50.01H87.51V56.26H93.76V50.01Z" fill="#A5A5A5"/>
<path d="M87.51 50.01H81.26V56.26H87.51V50.01Z" fill="#A5A5A5"/>
<path d="M81.26 50.01H75.01V56.26H81.26V50.01Z" fill="#A5A5A5"/>
<path d="M75.01 50.01H68.76V56.26H75.01V50.01Z" fill="#A5A5A5"/>
<path d="M68.76 50.01H62.51V56.26H68.76V50.01Z" fill="#A5A5A5"/>
<path d="M62.51 50.01H56.26V56.26H62.51V50.01Z" fill="#A5A5A5"/>
<path d="M56.26 50.01H50.01V56.26H56.26V50.01Z" fill="#A5A5A5"/>
<path d="M50.01 50.01H43.76V56.26H50.01V50.01Z" fill="#A5A5A5"/>
<path d="M43.76 50.01H37.51V56.26H43.76V50.01Z" fill="#A5A5A5"/>
<path d="M37.5 50.01H31.25V56.26H37.5V50.01Z" fill="#A5A5A5"/>
<path d="M31.25 50.01H25V56.26H31.25V50.01Z" fill="#808080"/>
<path d="M25 50.01H18.75V56.26H25V50.01Z" fill="#808080"/>
<path d="M18.75 50.01H12.5V56.26H18.75V50.01Z" fill="#808080"/>
<path d="M12.5 50.01H6.25V56.26H12.5V50.01Z" fill="#808080"/>
<path d="M6.25 50.01H0V56.26H6.25V50.01Z" fill="#4C4C4C"/>
<path d="M281.29 56.26H275.04V62.51H281.29V56.26Z" fill="#4C4C4C"/>
<path d="M275.04 56.26H268.79V62.51H275.04V56.26Z" fill="#3D3D3D"/>
<path d="M268.79 56.26H262.54V62.51H268.79V56.26Z" fill="#3D3D3D"/>
<path d="M262.53 56.26H256.28V62.51H262.53V56.26Z" fill="#3D3D3D"/>
<path d="M256.28 56.26H250.03V62.51H256.28V56.26Z" fill="#3D3D3D"/>
<path d="M250.03 56.26H243.78V62.51H250.03V56.26Z" fill="#D6D6D6"/>
<path d="M243.78 56.26H237.53V62.51H243.78V56.26Z" fill="#A5A5A5"/>
<path d="M237.53 56.26H231.28V62.51H237.53V56.26Z" fill="#A5A5A5"/>
<path d="M231.28 56.26H225.03V62.51H231.28V56.26Z" fill="#A5A5A5"/>
<path d="M225.03 56.26H218.78V62.51H225.03V56.26Z" fill="#A5A5A5"/>
<path d="M218.78 56.26H212.53V62.51H218.78V56.26Z" fill="#A5A5A5"/>
<path d="M212.53 56.26H206.28V62.51H212.53V56.26Z" fill="#A5A5A5"/>
<path d="M206.28 56.26H200.03V62.51H206.28V56.26Z" fill="#D6D6D6"/>
<path d="M200.03 56.26H193.78V62.51H200.03V56.26Z" fill="#D6D6D6"/>
<path d="M193.78 56.26H187.53V62.51H193.78V56.26Z" fill="#D6D6D6"/>
<path d="M187.52 56.26H181.27V62.51H187.52V56.26Z" fill="#A5A5A5"/>
<path d="M181.27 56.26H175.02V62.51H181.27V56.26Z" fill="#A5A5A5"/>
<path d="M175.02 56.26H168.77V62.51H175.02V56.26Z" fill="#A5A5A5"/>
<path d="M168.77 56.26H162.52V62.51H168.77V56.26Z" fill="#D6D6D6"/>
<path d="M162.52 56.26H156.27V62.51H162.52V56.26Z" fill="#A5A5A5"/>
<path d="M156.27 56.26H150.02V62.51H156.27V56.26Z" fill="#A5A5A5"/>
<path d="M150.02 56.26H143.77V62.51H150.02V56.26Z" fill="#A5A5A5"/>
<path d="M143.77 56.26H137.52V62.51H143.77V56.26Z" fill="#A5A5A5"/>
<path d="M137.52 56.26H131.27V62.51H137.52V56.26Z" fill="#A5A5A5"/>
<path d="M131.27 56.26H125.02V62.51H131.27V56.26Z" fill="#A5A5A5"/>
<path d="M125.02 56.26H118.77V62.51H125.02V56.26Z" fill="#A5A5A5"/>
<path d="M118.77 56.26H112.52V62.51H118.77V56.26Z" fill="#A5A5A5"/>
<path d="M112.51 56.26H106.26V62.51H112.51V56.26Z" fill="#A5A5A5"/>
<path d="M106.26 56.26H100.01V62.51H106.26V56.26Z" fill="#A5A5A5"/>
<path d="M100.01 56.26H93.76V62.51H100.01V56.26Z" fill="#A5A5A5"/>
<path d="M93.76 56.26H87.51V62.51H93.76V56.26Z" fill="#A5A5A5"/>
<path d="M87.51 56.26H81.26V62.51H87.51V56.26Z" fill="#A5A5A5"/>
<path d="M81.26 56.26H75.01V62.51H81.26V56.26Z" fill="#A5A5A5"/>
<path d="M75.01 56.26H68.76V62.51H75.01V56.26Z" fill="#A5A5A5"/>
<path d="M68.76 56.26H62.51V62.51H68.76V56.26Z" fill="#A5A5A5"/>
<path d="M62.51 56.26H56.26V62.51H62.51V56.26Z" fill="#A5A5A5"/>
<path d="M56.26 56.26H50.01V62.51H56.26V56.26Z" fill="#A5A5A5"/>
<path d="M50.01 56.26H43.76V62.51H50.01V56.26Z" fill="#A5A5A5"/>
<path d="M43.76 56.26H37.51V62.51H43.76V56.26Z" fill="#A5A5A5"/>
<path d="M37.5 56.26H31.25V62.51H37.5V56.26Z" fill="#D6D6D6"/>
<path d="M31.25 56.26H25V62.51H31.25V56.26Z" fill="#808080"/>
<path d="M25 56.26H18.75V62.51H25V56.26Z" fill="#808080"/>
<path d="M18.75 56.26H12.5V62.51H18.75V56.26Z" fill="#808080"/>
<path d="M12.5 56.26H6.25V62.51H12.5V56.26Z" fill="#808080"/>
<path d="M6.25 56.26H0V62.51H6.25V56.26Z" fill="#4C4C4C"/>
<path d="M281.29 62.51H275.04V68.76H281.29V62.51Z" fill="#4C4C4C"/>
<path d="M275.04 62.51H268.79V68.76H275.04V62.51Z" fill="#3D3D3D"/>
<path d="M268.79 62.51H262.54V68.76H268.79V62.51Z" fill="#3D3D3D"/>
<path d="M262.53 62.51H256.28V68.76H262.53V62.51Z" fill="#3D3D3D"/>
<path d="M256.28 62.51H250.03V68.76H256.28V62.51Z" fill="#3D3D3D"/>
<path d="M250.03 62.51H243.78V68.76H250.03V62.51Z" fill="#808080"/>
<path d="M243.78 62.51H237.53V68.76H243.78V62.51Z" fill="#D6D6D6"/>
<path d="M237.53 62.51H231.28V68.76H237.53V62.51Z" fill="#D6D6D6"/>
<path d="M231.28 62.51H225.03V68.76H231.28V62.51Z" fill="#D6D6D6"/>
<path d="M225.03 62.51H218.78V68.76H225.03V62.51Z" fill="#D6D6D6"/>
<path d="M218.78 62.51H212.53V68.76H218.78V62.51Z" fill="#D6D6D6"/>
<path d="M212.53 62.51H206.28V68.76H212.53V62.51Z" fill="#D6D6D6"/>
<path d="M206.28 62.51H200.03V68.76H206.28V62.51Z" fill="#D6D6D6"/>
<path d="M200.03 62.51H193.78V68.76H200.03V62.51Z" fill="#D6D6D6"/>
<path d="M193.78 62.51H187.53V68.76H193.78V62.51Z" fill="#D6D6D6"/>
<path d="M187.52 62.51H181.27V68.76H187.52V62.51Z" fill="#D6D6D6"/>
<path d="M181.27 62.51H175.02V68.76H181.27V62.51Z" fill="#D6D6D6"/>
<path d="M175.02 62.51H168.77V68.76H175.02V62.51Z" fill="#D6D6D6"/>
<path d="M168.77 62.51H162.52V68.76H168.77V62.51Z" fill="#D6D6D6"/>
<path d="M162.52 62.51H156.27V68.76H162.52V62.51Z" fill="#D6D6D6"/>
<path d="M156.27 62.51H150.02V68.76H156.27V62.51Z" fill="#D6D6D6"/>
<path d="M150.02 62.51H143.77V68.76H150.02V62.51Z" fill="#D6D6D6"/>
<path d="M143.77 62.51H137.52V68.76H143.77V62.51Z" fill="#D6D6D6"/>
<path d="M137.52 62.51H131.27V68.76H137.52V62.51Z" fill="#D6D6D6"/>
<path d="M131.27 62.51H125.02V68.76H131.27V62.51Z" fill="#D6D6D6"/>
<path d="M125.02 62.51H118.77V68.76H125.02V62.51Z" fill="#D6D6D6"/>
<path d="M118.77 62.51H112.52V68.76H118.77V62.51Z" fill="#D6D6D6"/>
<path d="M112.51 62.51H106.26V68.76H112.51V62.51Z" fill="#D6D6D6"/>
<path d="M106.26 62.51H100.01V68.76H106.26V62.51Z" fill="#D6D6D6"/>
<path d="M100.01 62.51H93.76V68.76H100.01V62.51Z" fill="#D6D6D6"/>
<path d="M93.76 62.51H87.51V68.76H93.76V62.51Z" fill="#D6D6D6"/>
<path d="M87.51 62.51H81.26V68.76H87.51V62.51Z" fill="#D6D6D6"/>
<path d="M81.26 62.51H75.01V68.76H81.26V62.51Z" fill="#D6D6D6"/>
<path d="M75.01 62.51H68.76V68.76H75.01V62.51Z" fill="#D6D6D6"/>
<path d="M68.76 62.51H62.51V68.76H68.76V62.51Z" fill="#D6D6D6"/>
<path d="M62.51 62.51H56.26V68.76H62.51V62.51Z" fill="#D6D6D6"/>
<path d="M56.26 62.51H50.01V68.76H56.26V62.51Z" fill="#D6D6D6"/>
<path d="M50.01 62.51H43.76V68.76H50.01V62.51Z" fill="#D6D6D6"/>
<path d="M43.76 62.51H37.51V68.76H43.76V62.51Z" fill="#D6D6D6"/>
<path d="M37.5 62.51H31.25V68.76H37.5V62.51Z" fill="#A5A5A5"/>
<path d="M31.25 62.51H25V68.76H31.25V62.51Z" fill="#808080"/>
<path d="M25 62.51H18.75V68.76H25V62.51Z" fill="#808080"/>
<path d="M18.75 62.51H12.5V68.76H18.75V62.51Z" fill="#808080"/>
<path d="M12.5 62.51H6.25V68.76H12.5V62.51Z" fill="#808080"/>
<path d="M6.25 62.51H0V68.76H6.25V62.51Z" fill="#4C4C4C"/>
<path d="M281.29 68.76H275.04V75.01H281.29V68.76Z" fill="#4C4C4C"/>
<path d="M275.04 68.76H268.79V75.01H275.04V68.76Z" fill="#3D3D3D"/>
<path d="M268.79 68.76H262.54V75.01H268.79V68.76Z" fill="#3D3D3D"/>
<path d="M262.53 68.76H256.28V75.01H262.53V68.76Z" fill="#3D3D3D"/>
<path d="M256.28 68.76H250.03V75.01H256.28V68.76Z" fill="#808080"/>
<path d="M250.03 68.76H243.78V75.01H250.03V68.76Z" fill="#606060"/>
<path d="M243.78 68.76H237.53V75.01H243.78V68.76Z" fill="#606060"/>
<path d="M237.53 68.76H231.28V75.01H237.53V68.76Z" fill="#606060"/>
<path d="M231.28 68.76H225.03V75.01H231.28V68.76Z" fill="#606060"/>
<path d="M225.03 68.76H218.78V75.01H225.03V68.76Z" fill="#606060"/>
<path d="M218.78 68.76H212.53V75.01H218.78V68.76Z" fill="#606060"/>
<path d="M212.53 68.76H206.28V75.01H212.53V68.76Z" fill="#606060"/>
<path d="M206.28 68.76H200.03V75.01H206.28V68.76Z" fill="#606060"/>
<path d="M200.03 68.76H193.78V75.01H200.03V68.76Z" fill="#606060"/>
<path d="M193.78 68.76H187.53V75.01H193.78V68.76Z" fill="#606060"/>
<path d="M187.52 68.76H181.27V75.01H187.52V68.76Z" fill="#606060"/>
<path d="M181.27 68.76H175.02V75.01H181.27V68.76Z" fill="#606060"/>
<path d="M175.02 68.76H168.77V75.01H175.02V68.76Z" fill="#606060"/>
<path d="M168.77 68.76H162.52V75.01H168.77V68.76Z" fill="#606060"/>
<path d="M162.52 68.76H156.27V75.01H162.52V68.76Z" fill="#606060"/>
<path d="M156.27 68.76H150.02V75.01H156.27V68.76Z" fill="#606060"/>
<path d="M150.02 68.76H143.77V75.01H150.02V68.76Z" fill="#606060"/>
<path d="M143.77 68.76H137.52V75.01H143.77V68.76Z" fill="#606060"/>
<path d="M137.52 68.76H131.27V75.01H137.52V68.76Z" fill="#606060"/>
<path d="M131.27 68.76H125.02V75.01H131.27V68.76Z" fill="#606060"/>
<path d="M125.02 68.76H118.77V75.01H125.02V68.76Z" fill="#606060"/>
<path d="M118.77 68.76H112.52V75.01H118.77V68.76Z" fill="#606060"/>
<path d="M112.51 68.76H106.26V75.01H112.51V68.76Z" fill="#606060"/>
<path d="M106.26 68.76H100.01V75.01H106.26V68.76Z" fill="#606060"/>
<path d="M100.01 68.76H93.76V75.01H100.01V68.76Z" fill="#606060"/>
<path d="M93.76 68.76H87.51V75.01H93.76V68.76Z" fill="#606060"/>
<path d="M87.51 68.76H81.26V75.01H87.51V68.76Z" fill="#606060"/>
<path d="M81.26 68.76H75.01V75.01H81.26V68.76Z" fill="#606060"/>
<path d="M75.01 68.76H68.76V75.01H75.01V68.76Z" fill="#606060"/>
<path d="M68.76 68.76H62.51V75.01H68.76V68.76Z" fill="#606060"/>
<path d="M62.51 68.76H56.26V75.01H62.51V68.76Z" fill="#606060"/>
<path d="M56.26 68.76H50.01V75.01H56.26V68.76Z" fill="#606060"/>
<path d="M50.01 68.76H43.76V75.01H50.01V68.76Z" fill="#606060"/>
<path d="M43.76 68.76H37.51V75.01H43.76V68.76Z" fill="#606060"/>
<path d="M37.5 68.76H31.25V75.01H37.5V68.76Z" fill="#606060"/>
<path d="M31.25 68.76H25V75.01H31.25V68.76Z" fill="#A5A5A5"/>
<path d="M25 68.76H18.75V75.01H25V68.76Z" fill="#808080"/>
<path d="M18.75 68.76H12.5V75.01H18.75V68.76Z" fill="#808080"/>
<path d="M12.5 68.76H6.25V75.01H12.5V68.76Z" fill="#808080"/>
<path d="M6.25 68.76H0V75.01H6.25V68.76Z" fill="#4C4C4C"/>
<path d="M281.29 75.01H275.04V81.26H281.29V75.01Z" fill="#4C4C4C"/>
<path d="M275.04 75.01H268.79V81.26H275.04V75.01Z" fill="#3D3D3D"/>
<path d="M268.79 75.01H262.54V81.26H268.79V75.01Z" fill="#3D3D3D"/>
<path d="M262.53 75.01H256.28V81.26H262.53V75.01Z" fill="#808080"/>
<path d="M256.28 75.01H250.03V81.26H256.28V75.01Z" fill="#606060"/>
<path d="M250.03 75.01H243.78V81.26H250.03V75.01Z" fill="#606060"/>
<path d="M243.78 75.01H237.53V81.26H243.78V75.01Z" fill="#606060"/>
<path d="M237.53 75.01H231.28V81.26H237.53V75.01Z" fill="#606060"/>
<path d="M231.28 75.01H225.03V81.26H231.28V75.01Z" fill="#606060"/>
<path d="M225.03 75.01H218.78V81.26H225.03V75.01Z" fill="#606060"/>
<path d="M218.78 75.01H212.53V81.26H218.78V75.01Z" fill="#606060"/>
<path d="M212.53 75.01H206.28V81.26H212.53V75.01Z" fill="#606060"/>
<path d="M206.28 75.01H200.03V81.26H206.28V75.01Z" fill="#606060"/>
<path d="M200.03 75.01H193.78V81.26H200.03V75.01Z" fill="#606060"/>
<path d="M193.78 75.01H187.53V81.26H193.78V75.01Z" fill="#606060"/>
<path d="M187.52 75.01H181.27V81.26H187.52V75.01Z" fill="#606060"/>
<path d="M181.27 75.01H175.02V81.26H181.27V75.01Z" fill="#606060"/>
<path d="M175.02 75.01H168.77V81.26H175.02V75.01Z" fill="#606060"/>
<path d="M168.77 75.01H162.52V81.26H168.77V75.01Z" fill="#606060"/>
<path d="M162.52 75.01H156.27V81.26H162.52V75.01Z" fill="#606060"/>
<path d="M156.27 75.01H150.02V81.26H156.27V75.01Z" fill="#606060"/>
<path d="M150.02 75.01H143.77V81.26H150.02V75.01Z" fill="#606060"/>
<path d="M143.77 75.01H137.52V81.26H143.77V75.01Z" fill="#606060"/>
<path d="M137.52 75.01H131.27V81.26H137.52V75.01Z" fill="#606060"/>
<path d="M131.27 75.01H125.02V81.26H131.27V75.01Z" fill="#606060"/>
<path d="M125.02 75.01H118.77V81.26H125.02V75.01Z" fill="#606060"/>
<path d="M118.77 75.01H112.52V81.26H118.77V75.01Z" fill="#606060"/>
<path d="M112.51 75.01H106.26V81.26H112.51V75.01Z" fill="#606060"/>
<path d="M106.26 75.01H100.01V81.26H106.26V75.01Z" fill="#606060"/>
<path d="M100.01 75.01H93.76V81.26H100.01V75.01Z" fill="#606060"/>
<path d="M93.76 75.01H87.51V81.26H93.76V75.01Z" fill="#606060"/>
<path d="M87.51 75.01H81.26V81.26H87.51V75.01Z" fill="#606060"/>
<path d="M81.26 75.01H75.01V81.26H81.26V75.01Z" fill="#606060"/>
<path d="M75.01 75.01H68.76V81.26H75.01V75.01Z" fill="#606060"/>
<path d="M68.76 75.01H62.51V81.26H68.76V75.01Z" fill="#606060"/>
<path d="M62.51 75.01H56.26V81.26H62.51V75.01Z" fill="#606060"/>
<path d="M56.26 75.01H50.01V81.26H56.26V75.01Z" fill="#606060"/>
<path d="M50.01 75.01H43.76V81.26H50.01V75.01Z" fill="#606060"/>
<path d="M43.76 75.01H37.51V81.26H43.76V75.01Z" fill="#606060"/>
<path d="M37.5 75.01H31.25V81.26H37.5V75.01Z" fill="#606060"/>
<path d="M31.25 75.01H25V81.26H31.25V75.01Z" fill="#606060"/>
<path d="M25 75.01H18.75V81.26H25V75.01Z" fill="#A5A5A5"/>
<path d="M18.75 75.01H12.5V81.26H18.75V75.01Z" fill="#808080"/>
<path d="M12.5 75.01H6.25V81.26H12.5V75.01Z" fill="#808080"/>
<path d="M6.25 75.01H0V81.26H6.25V75.01Z" fill="#4C4C4C"/>
<path d="M281.29 81.26H275.04V87.51H281.29V81.26Z" fill="#4C4C4C"/>
<path d="M275.04 81.26H268.79V87.51H275.04V81.26Z" fill="#3D3D3D"/>
<path d="M268.79 81.26H262.54V87.51H268.79V81.26Z" fill="#808080"/>
<path d="M262.53 81.26H256.28V87.51H262.53V81.26Z" fill="#606060"/>
<path d="M256.28 81.26H250.03V87.51H256.28V81.26Z" fill="#606060"/>
<path d="M250.03 81.26H243.78V87.51H250.03V81.26Z" fill="#606060"/>
<path d="M243.78 81.26H237.53V87.51H243.78V81.26Z" fill="#606060"/>
<path d="M237.53 81.26H231.28V87.51H237.53V81.26Z" fill="#606060"/>
<path d="M231.28 81.26H225.03V87.51H231.28V81.26Z" fill="#606060"/>
<path d="M225.03 81.26H218.78V87.51H225.03V81.26Z" fill="#606060"/>
<path d="M218.78 81.26H212.53V87.51H218.78V81.26Z" fill="#606060"/>
<path d="M212.53 81.26H206.28V87.51H212.53V81.26Z" fill="#606060"/>
<path d="M206.28 81.26H200.03V87.51H206.28V81.26Z" fill="#606060"/>
<path d="M200.03 81.26H193.78V87.51H200.03V81.26Z" fill="#606060"/>
<path d="M193.78 81.26H187.53V87.51H193.78V81.26Z" fill="#606060"/>
<path d="M187.52 81.26H181.27V87.51H187.52V81.26Z" fill="#606060"/>
<path d="M181.27 81.26H175.02V87.51H181.27V81.26Z" fill="#606060"/>
<path d="M175.02 81.26H168.77V87.51H175.02V81.26Z" fill="#606060"/>
<path d="M168.77 81.26H162.52V87.51H168.77V81.26Z" fill="#606060"/>
<path d="M162.52 81.26H156.27V87.51H162.52V81.26Z" fill="#606060"/>
<path d="M156.27 81.26H150.02V87.51H156.27V81.26Z" fill="#606060"/>
<path d="M150.02 81.26H143.77V87.51H150.02V81.26Z" fill="#606060"/>
<path d="M143.77 81.26H137.52V87.51H143.77V81.26Z" fill="#606060"/>
<path d="M137.52 81.26H131.27V87.51H137.52V81.26Z" fill="#606060"/>
<path d="M131.27 81.26H125.02V87.51H131.27V81.26Z" fill="#606060"/>
<path d="M125.02 81.26H118.77V87.51H125.02V81.26Z" fill="#606060"/>
<path d="M118.77 81.26H112.52V87.51H118.77V81.26Z" fill="#606060"/>
<path d="M112.51 81.26H106.26V87.51H112.51V81.26Z" fill="#606060"/>
<path d="M106.26 81.26H100.01V87.51H106.26V81.26Z" fill="#606060"/>
<path d="M100.01 81.26H93.76V87.51H100.01V81.26Z" fill="#606060"/>
<path d="M93.76 81.26H87.51V87.51H93.76V81.26Z" fill="#606060"/>
<path d="M87.51 81.26H81.26V87.51H87.51V81.26Z" fill="#606060"/>
<path d="M81.26 81.26H75.01V87.51H81.26V81.26Z" fill="#606060"/>
<path d="M75.01 81.26H68.76V87.51H75.01V81.26Z" fill="#606060"/>
<path d="M68.76 81.26H62.51V87.51H68.76V81.26Z" fill="#606060"/>
<path d="M62.51 81.26H56.26V87.51H62.51V81.26Z" fill="#606060"/>
<path d="M56.26 81.26H50.01V87.51H56.26V81.26Z" fill="#606060"/>
<path d="M50.01 81.26H43.76V87.51H50.01V81.26Z" fill="#606060"/>
<path d="M43.76 81.26H37.51V87.51H43.76V81.26Z" fill="#606060"/>
<path d="M37.5 81.26H31.25V87.51H37.5V81.26Z" fill="#606060"/>
<path d="M31.25 81.26H25V87.51H31.25V81.26Z" fill="#606060"/>
<path d="M25 81.26H18.75V87.51H25V81.26Z" fill="#606060"/>
<path d="M18.75 81.26H12.5V87.51H18.75V81.26Z" fill="#A5A5A5"/>
<path d="M12.5 81.26H6.25V87.51H12.5V81.26Z" fill="#808080"/>
<path d="M6.25 81.26H0V87.51H6.25V81.26Z" fill="#4C4C4C"/>
<path d="M275.04 87.51H268.79V93.76H275.04V87.51Z" fill="#4C4C4C"/>
<path d="M268.79 87.51H262.54V93.76H268.79V87.51Z" fill="#606060"/>
<path d="M262.53 87.51H256.28V93.76H262.53V87.51Z" fill="#606060"/>
<path d="M256.28 87.51H250.03V93.76H256.28V87.51Z" fill="#606060"/>
<path d="M250.03 87.51H243.78V93.76H250.03V87.51Z" fill="#606060"/>
<path d="M243.78 87.51H237.53V93.76H243.78V87.51Z" fill="#606060"/>
<path d="M237.53 87.51H231.28V93.76H237.53V87.51Z" fill="#606060"/>
<path d="M231.28 87.51H225.03V93.76H231.28V87.51Z" fill="#606060"/>
<path d="M225.03 87.51H218.78V93.76H225.03V87.51Z" fill="#606060"/>
<path d="M218.78 87.51H212.53V93.76H218.78V87.51Z" fill="#606060"/>
<path d="M212.53 87.51H206.28V93.76H212.53V87.51Z" fill="#606060"/>
<path d="M206.28 87.51H200.03V93.76H206.28V87.51Z" fill="#606060"/>
<path d="M200.03 87.51H193.78V93.76H200.03V87.51Z" fill="#606060"/>
<path d="M193.78 87.51H187.53V93.76H193.78V87.51Z" fill="#606060"/>
<path d="M187.52 87.51H181.27V93.76H187.52V87.51Z" fill="#606060"/>
<path d="M181.27 87.51H175.02V93.76H181.27V87.51Z" fill="#606060"/>
<path d="M175.02 87.51H168.77V93.76H175.02V87.51Z" fill="#606060"/>
<path d="M168.77 87.51H162.52V93.76H168.77V87.51Z" fill="#606060"/>
<path d="M162.52 87.51H156.27V93.76H162.52V87.51Z" fill="#606060"/>
<path d="M156.27 87.51H150.02V93.76H156.27V87.51Z" fill="#606060"/>
<path d="M150.02 87.51H143.77V93.76H150.02V87.51Z" fill="#606060"/>
<path d="M143.77 87.51H137.52V93.76H143.77V87.51Z" fill="#606060"/>
<path d="M137.52 87.51H131.27V93.76H137.52V87.51Z" fill="#606060"/>
<path d="M131.27 87.51H125.02V93.76H131.27V87.51Z" fill="#606060"/>
<path d="M125.02 87.51H118.77V93.76H125.02V87.51Z" fill="#606060"/>
<path d="M118.77 87.51H112.52V93.76H118.77V87.51Z" fill="#606060"/>
<path d="M112.51 87.51H106.26V93.76H112.51V87.51Z" fill="#606060"/>
<path d="M106.26 87.51H100.01V93.76H106.26V87.51Z" fill="#606060"/>
<path d="M100.01 87.51H93.76V93.76H100.01V87.51Z" fill="#606060"/>
<path d="M93.76 87.51H87.51V93.76H93.76V87.51Z" fill="#606060"/>
<path d="M87.51 87.51H81.26V93.76H87.51V87.51Z" fill="#606060"/>
<path d="M81.26 87.51H75.01V93.76H81.26V87.51Z" fill="#606060"/>
<path d="M75.01 87.51H68.76V93.76H75.01V87.51Z" fill="#606060"/>
<path d="M68.76 87.51H62.51V93.76H68.76V87.51Z" fill="#606060"/>
<path d="M62.51 87.51H56.26V93.76H62.51V87.51Z" fill="#606060"/>
<path d="M56.26 87.51H50.01V93.76H56.26V87.51Z" fill="#606060"/>
<path d="M50.01 87.51H43.76V93.76H50.01V87.51Z" fill="#606060"/>
<path d="M43.76 87.51H37.51V93.76H43.76V87.51Z" fill="#606060"/>
<path d="M37.5 87.51H31.25V93.76H37.5V87.51Z" fill="#606060"/>
<path d="M31.25 87.51H25V93.76H31.25V87.51Z" fill="#606060"/>
<path d="M25 87.51H18.75V93.76H25V87.51Z" fill="#606060"/>
<path d="M18.75 87.51H12.5V93.76H18.75V87.51Z" fill="#606060"/>
<path d="M12.5 87.51H6.25V93.76H12.5V87.51Z" fill="#4C4C4C"/>
<path d="M268.79 93.76H262.54V100.01H268.79V93.76Z" fill="#4C4C4C"/>
<path d="M262.53 93.76H256.28V100.01H262.53V93.76Z" fill="#4C4C4C"/>
<path d="M256.28 93.76H250.03V100.01H256.28V93.76Z" fill="#4C4C4C"/>
<path d="M250.03 93.76H243.78V100.01H250.03V93.76Z" fill="#4C4C4C"/>
<path d="M243.78 93.76H237.53V100.01H243.78V93.76Z" fill="#4C4C4C"/>
<path d="M237.53 93.76H231.28V100.01H237.53V93.76Z" fill="#4C4C4C"/>
<path d="M231.28 93.76H225.03V100.01H231.28V93.76Z" fill="#4C4C4C"/>
<path d="M225.03 93.76H218.78V100.01H225.03V93.76Z" fill="#4C4C4C"/>
<path d="M218.78 93.76H212.53V100.01H218.78V93.76Z" fill="#4C4C4C"/>
<path d="M212.53 93.76H206.28V100.01H212.53V93.76Z" fill="#4C4C4C"/>
<path d="M206.28 93.76H200.03V100.01H206.28V93.76Z" fill="#4C4C4C"/>
<path d="M200.03 93.76H193.78V100.01H200.03V93.76Z" fill="#4C4C4C"/>
<path d="M193.78 93.76H187.53V100.01H193.78V93.76Z" fill="#4C4C4C"/>
<path d="M187.52 93.76H181.27V100.01H187.52V93.76Z" fill="#4C4C4C"/>
<path d="M181.27 93.76H175.02V100.01H181.27V93.76Z" fill="#4C4C4C"/>
<path d="M175.02 93.76H168.77V100.01H175.02V93.76Z" fill="#4C4C4C"/>
<path d="M168.77 93.76H162.52V100.01H168.77V93.76Z" fill="#4C4C4C"/>
<path d="M162.52 93.76H156.27V100.01H162.52V93.76Z" fill="#4C4C4C"/>
<path d="M156.27 93.76H150.02V100.01H156.27V93.76Z" fill="#4C4C4C"/>
<path d="M150.02 93.76H143.77V100.01H150.02V93.76Z" fill="#4C4C4C"/>
<path d="M143.77 93.76H137.52V100.01H143.77V93.76Z" fill="#4C4C4C"/>
<path d="M137.52 93.76H131.27V100.01H137.52V93.76Z" fill="#4C4C4C"/>
<path d="M131.27 93.76H125.02V100.01H131.27V93.76Z" fill="#4C4C4C"/>
<path d="M125.02 93.76H118.77V100.01H125.02V93.76Z" fill="#4C4C4C"/>
<path d="M118.77 93.76H112.52V100.01H118.77V93.76Z" fill="#4C4C4C"/>
<path d="M112.51 93.76H106.26V100.01H112.51V93.76Z" fill="#4C4C4C"/>
<path d="M106.26 93.76H100.01V100.01H106.26V93.76Z" fill="#4C4C4C"/>
<path d="M100.01 93.76H93.76V100.01H100.01V93.76Z" fill="#4C4C4C"/>
<path d="M93.76 93.76H87.51V100.01H93.76V93.76Z" fill="#4C4C4C"/>
<path d="M87.51 93.76H81.26V100.01H87.51V93.76Z" fill="#4C4C4C"/>
<path d="M81.26 93.76H75.01V100.01H81.26V93.76Z" fill="#4C4C4C"/>
<path d="M75.01 93.76H68.76V100.01H75.01V93.76Z" fill="#4C4C4C"/>
<path d="M68.76 93.76H62.51V100.01H68.76V93.76Z" fill="#4C4C4C"/>
<path d="M62.51 93.76H56.26V100.01H62.51V93.76Z" fill="#4C4C4C"/>
<path d="M56.26 93.76H50.01V100.01H56.26V93.76Z" fill="#4C4C4C"/>
<path d="M50.01 93.76H43.76V100.01H50.01V93.76Z" fill="#4C4C4C"/>
<path d="M43.76 93.76H37.51V100.01H43.76V93.76Z" fill="#4C4C4C"/>
<path d="M37.5 93.76H31.25V100.01H37.5V93.76Z" fill="#4C4C4C"/>
<path d="M31.25 93.76H25V100.01H31.25V93.76Z" fill="#4C4C4C"/>
<path d="M25 93.76H18.75V100.01H25V93.76Z" fill="#4C4C4C"/>
<path d="M18.75 93.76H12.5V100.01H18.75V93.76Z" fill="#4C4C4C"/>
<path d="M67.96 46.88V43.76H64.84V40.64H71.1V43.76H80.48V34.38H67.97V31.26H64.85V25H67.97V21.88H83.6V25H86.72V28.12H80.47V25H71.09V31.26H83.59V34.38H86.71V43.76H83.59V46.88H67.96Z" fill="#E5E5E5"/>
<path d="M91.41 46.88V21.88H113.29V25H97.66V31.26H107.04V34.38H97.66V43.76H113.29V46.88H91.41Z" fill="#E5E5E5"/>
<path d="M117.98 46.88V21.88H124.24V43.76H136.74V46.88H117.98Z" fill="#E5E5E5"/>
<path d="M141.42 46.88V21.88H163.3V25H147.67V31.26H157.05V34.38H147.67V43.76H163.3V46.88H141.42Z" fill="#E5E5E5"/>
<path d="M174.25 46.88V43.76H171.12V40.64H168V28.13H171.12V25.01H174.25V21.89H186.75V25.01H189.87V28.13H183.62V25.01H177.36V28.13H174.24V40.64H177.36V43.76H183.62V40.64H189.87V43.76H186.75V46.88H174.25Z" fill="#E5E5E5"/>
<path d="M202.39 46.88V25H194.57V21.88H216.45V25H208.64V46.88H202.38H202.39Z" fill="#E5E5E5"/>
<path d="M67.96 53.14V50.02H64.84V46.9H71.1V50.02H80.48V40.64H67.97V37.52H64.85V31.26H67.97V28.14H83.6V31.26H86.72V34.38H80.47V31.26H71.09V37.52H83.59V40.64H86.71V50.02H83.59V53.14H67.96Z" fill="#808080"/>
<path d="M91.41 53.14V28.14H113.29V31.26H97.66V37.52H107.04V40.64H97.66V50.02H113.29V53.14H91.41Z" fill="#808080"/>
<path d="M117.98 53.14V28.14H124.24V50.02H136.74V53.14H117.98Z" fill="#808080"/>
<path d="M141.42 53.14V28.14H163.3V31.26H147.67V37.52H157.05V40.64H147.67V50.02H163.3V53.14H141.42Z" fill="#808080"/>
<path d="M174.25 53.14V50.02H171.12V46.9H168V34.39H171.12V31.27H174.25V28.15H186.75V31.27H189.87V34.39H183.62V31.27H177.36V34.39H174.24V46.9H177.36V50.02H183.62V46.9H189.87V50.02H186.75V53.14H174.25Z" fill="#808080"/>
<path d="M202.39 53.14V31.26H194.57V28.14H216.45V31.26H208.64V53.14H202.38H202.39Z" fill="#808080"/>
<path d="M67.96 50.01V46.89H64.84V43.77H71.1V46.89H80.48V37.51H67.97V34.39H64.85V28.13H67.97V25.01H83.6V28.13H86.72V31.25H80.47V28.13H71.09V34.39H83.59V37.51H86.71V46.89H83.59V50.01H67.96Z" fill="#282828"/>
<path d="M91.41 50.01V25.01H113.29V28.13H97.66V34.39H107.04V37.51H97.66V46.89H113.29V50.01H91.41Z" fill="#282828"/>
<path d="M117.98 50.01V25.01H124.24V46.89H136.74V50.01H117.98Z" fill="#282828"/>
<path d="M141.42 50.01V25.01H163.3V28.13H147.67V34.39H157.05V37.51H147.67V46.89H163.3V50.01H141.42Z" fill="#282828"/>
<path d="M174.25 50.01V46.89H171.12V43.77H168V31.26H171.12V28.14H174.25V25.02H186.75V28.14H189.87V31.26H183.62V28.14H177.36V31.26H174.24V43.77H177.36V46.89H183.62V43.77H189.87V46.89H186.75V50.01H174.25Z" fill="#282828"/>
<path d="M202.39 50.01V28.13H194.57V25.01H216.45V28.13H208.64V50.01H202.38H202.39Z" fill="#282828"/>
</g>
<defs>
<clipPath id="clip0_3_11149">
<rect width="281.29" height="100.01" fill="white"/>
</clipPath>
</defs>
</svg>
