<svg width="282" height="100" viewBox="0 0 282 100" fill="none" xmlns="http://www.w3.org/2000/svg">
<g clip-path="url(#clip0_3_11156)">
<path d="M12.79 0V6.25H6.54004V12.5H0.290039V87.51H6.54004V93.76H12.79V100.01H37.79V100H37.8V100.01H112.8V100H112.81V100.01H187.81V100H187.82V100.01H262.82V100H262.83V100.01H269.08V93.76H275.33V87.51H281.58V37.51H281.29V37.5H281.58V12.5H275.33V6.25H269.08V0H12.79Z" fill="#4C4C4C"/>
<path d="M269.08 0H262.83V6.25H269.08V0Z" fill="#4C4C4C"/>
<path d="M262.82 0H256.57V6.25H262.82V0Z" fill="#4C4C4C"/>
<path d="M256.57 0H250.32V6.25H256.57V0Z" fill="#4C4C4C"/>
<path d="M250.32 0H244.07V6.25H250.32V0Z" fill="#4C4C4C"/>
<path d="M244.07 0H237.82V6.25H244.07V0Z" fill="#4C4C4C"/>
<path d="M237.82 0H231.57V6.25H237.82V0Z" fill="#4C4C4C"/>
<path d="M231.57 0H225.32V6.25H231.57V0Z" fill="#4C4C4C"/>
<path d="M225.32 0H219.07V6.25H225.32V0Z" fill="#4C4C4C"/>
<path d="M219.07 0H212.82V6.25H219.07V0Z" fill="#4C4C4C"/>
<path d="M212.82 0H206.57V6.25H212.82V0Z" fill="#4C4C4C"/>
<path d="M206.57 0H200.32V6.25H206.57V0Z" fill="#4C4C4C"/>
<path d="M200.32 0H194.07V6.25H200.32V0Z" fill="#4C4C4C"/>
<path d="M194.07 0H187.82V6.25H194.07V0Z" fill="#4C4C4C"/>
<path d="M187.81 0H181.56V6.25H187.81V0Z" fill="#4C4C4C"/>
<path d="M181.56 0H175.31V6.25H181.56V0Z" fill="#4C4C4C"/>
<path d="M175.31 0H169.06V6.25H175.31V0Z" fill="#4C4C4C"/>
<path d="M169.06 0H162.81V6.25H169.06V0Z" fill="#4C4C4C"/>
<path d="M162.81 0H156.56V6.25H162.81V0Z" fill="#4C4C4C"/>
<path d="M156.56 0H150.31V6.25H156.56V0Z" fill="#4C4C4C"/>
<path d="M150.31 0H144.06V6.25H150.31V0Z" fill="#4C4C4C"/>
<path d="M144.06 0H137.81V6.25H144.06V0Z" fill="#4C4C4C"/>
<path d="M137.81 0H131.56V6.25H137.81V0Z" fill="#4C4C4C"/>
<path d="M131.56 0H125.31V6.25H131.56V0Z" fill="#4C4C4C"/>
<path d="M125.31 0H119.06V6.25H125.31V0Z" fill="#4C4C4C"/>
<path d="M119.06 0H112.81V6.25H119.06V0Z" fill="#4C4C4C"/>
<path d="M112.8 0H106.55V6.25H112.8V0Z" fill="#4C4C4C"/>
<path d="M106.55 0H100.3V6.25H106.55V0Z" fill="#4C4C4C"/>
<path d="M100.3 0H94.05V6.25H100.3V0Z" fill="#4C4C4C"/>
<path d="M94.05 0H87.8V6.25H94.05V0Z" fill="#4C4C4C"/>
<path d="M87.8 0H81.55V6.25H87.8V0Z" fill="#4C4C4C"/>
<path d="M81.55 0H75.3V6.25H81.55V0Z" fill="#4C4C4C"/>
<path d="M75.3 0H69.05V6.25H75.3V0Z" fill="#4C4C4C"/>
<path d="M69.0501 0H62.8V6.25H69.0501V0Z" fill="#4C4C4C"/>
<path d="M62.8 0H56.55V6.25H62.8V0Z" fill="#4C4C4C"/>
<path d="M56.55 0H50.3V6.25H56.55V0Z" fill="#4C4C4C"/>
<path d="M50.3 0H44.05V6.25H50.3V0Z" fill="#4C4C4C"/>
<path d="M44.05 0H37.8V6.25H44.05V0Z" fill="#4C4C4C"/>
<path d="M37.79 0H31.54V6.25H37.79V0Z" fill="#4C4C4C"/>
<path d="M31.54 0H25.29V6.25H31.54V0Z" fill="#4C4C4C"/>
<path d="M25.29 0H19.04V6.25H25.29V0Z" fill="#4C4C4C"/>
<path d="M19.04 0H12.79V6.25H19.04V0Z" fill="#4C4C4C"/>
<path d="M275.33 6.25H269.08V12.5H275.33V6.25Z" fill="#4C4C4C"/>
<path d="M269.08 6.25H262.83V12.5H269.08V6.25Z" fill="#3D3D3D"/>
<path d="M262.82 6.25H256.57V12.5H262.82V6.25Z" fill="#3D3D3D"/>
<path d="M256.57 6.25H250.32V12.5H256.57V6.25Z" fill="#3D3D3D"/>
<path d="M250.32 6.25H244.07V12.5H250.32V6.25Z" fill="#3D3D3D"/>
<path d="M244.07 6.25H237.82V12.5H244.07V6.25Z" fill="#D6D6D6"/>
<path d="M237.82 6.25H231.57V12.5H237.82V6.25Z" fill="#A5A5A5"/>
<path d="M231.57 6.25H225.32V12.5H231.57V6.25Z" fill="#A5A5A5"/>
<path d="M225.32 6.25H219.07V12.5H225.32V6.25Z" fill="#A5A5A5"/>
<path d="M219.07 6.25H212.82V12.5H219.07V6.25Z" fill="#A5A5A5"/>
<path d="M212.82 6.25H206.57V12.5H212.82V6.25Z" fill="#A5A5A5"/>
<path d="M206.57 6.25H200.32V12.5H206.57V6.25Z" fill="#A5A5A5"/>
<path d="M200.32 6.25H194.07V12.5H200.32V6.25Z" fill="#A5A5A5"/>
<path d="M194.07 6.25H187.82V12.5H194.07V6.25Z" fill="#A5A5A5"/>
<path d="M187.81 6.25H181.56V12.5H187.81V6.25Z" fill="#A5A5A5"/>
<path d="M181.56 6.25H175.31V12.5H181.56V6.25Z" fill="#A5A5A5"/>
<path d="M175.31 6.25H169.06V12.5H175.31V6.25Z" fill="#A5A5A5"/>
<path d="M169.06 6.25H162.81V12.5H169.06V6.25Z" fill="#A5A5A5"/>
<path d="M162.81 6.25H156.56V12.5H162.81V6.25Z" fill="#A5A5A5"/>
<path d="M156.56 6.25H150.31V12.5H156.56V6.25Z" fill="#D6D6D6"/>
<path d="M150.31 6.25H144.06V12.5H150.31V6.25Z" fill="#D6D6D6"/>
<path d="M144.06 6.25H137.81V12.5H144.06V6.25Z" fill="#D6D6D6"/>
<path d="M137.81 6.25H131.56V12.5H137.81V6.25Z" fill="#A5A5A5"/>
<path d="M131.56 6.25H125.31V12.5H131.56V6.25Z" fill="#A5A5A5"/>
<path d="M125.31 6.25H119.06V12.5H125.31V6.25Z" fill="#A5A5A5"/>
<path d="M119.06 6.25H112.81V12.5H119.06V6.25Z" fill="#D6D6D6"/>
<path d="M112.8 6.25H106.55V12.5H112.8V6.25Z" fill="#A5A5A5"/>
<path d="M106.55 6.25H100.3V12.5H106.55V6.25Z" fill="#A5A5A5"/>
<path d="M100.3 6.25H94.05V12.5H100.3V6.25Z" fill="#A5A5A5"/>
<path d="M94.05 6.25H87.8V12.5H94.05V6.25Z" fill="#A5A5A5"/>
<path d="M87.8 6.25H81.55V12.5H87.8V6.25Z" fill="#A5A5A5"/>
<path d="M81.55 6.25H75.3V12.5H81.55V6.25Z" fill="#A5A5A5"/>
<path d="M75.3 6.25H69.05V12.5H75.3V6.25Z" fill="#A5A5A5"/>
<path d="M69.0501 6.25H62.8V12.5H69.0501V6.25Z" fill="#A5A5A5"/>
<path d="M62.8 6.25H56.55V12.5H62.8V6.25Z" fill="#A5A5A5"/>
<path d="M56.55 6.25H50.3V12.5H56.55V6.25Z" fill="#A5A5A5"/>
<path d="M50.3 6.25H44.05V12.5H50.3V6.25Z" fill="#A5A5A5"/>
<path d="M44.05 6.25H37.8V12.5H44.05V6.25Z" fill="#D6D6D6"/>
<path d="M37.79 6.25H31.54V12.5H37.79V6.25Z" fill="#808080"/>
<path d="M31.54 6.25H25.29V12.5H31.54V6.25Z" fill="#808080"/>
<path d="M25.29 6.25H19.04V12.5H25.29V6.25Z" fill="#808080"/>
<path d="M19.04 6.25H12.79V12.5H19.04V6.25Z" fill="#808080"/>
<path d="M12.79 6.25H6.54004V12.5H12.79V6.25Z" fill="#4C4C4C"/>
<path d="M281.58 12.5H275.33V18.75H281.58V12.5Z" fill="#4C4C4C"/>
<path d="M275.33 12.5H269.08V18.75H275.33V12.5Z" fill="#3D3D3D"/>
<path d="M269.08 12.5H262.83V18.75H269.08V12.5Z" fill="#3D3D3D"/>
<path d="M262.82 12.5H256.57V18.75H262.82V12.5Z" fill="#3D3D3D"/>
<path d="M256.57 12.5H250.32V18.75H256.57V12.5Z" fill="#3D3D3D"/>
<path d="M250.32 12.5H244.07V18.75H250.32V12.5Z" fill="#D6D6D6"/>
<path d="M244.07 12.5H237.82V18.75H244.07V12.5Z" fill="#A5A5A5"/>
<path d="M237.82 12.5H231.57V18.75H237.82V12.5Z" fill="#A5A5A5"/>
<path d="M231.57 12.5H225.32V18.75H231.57V12.5Z" fill="#A5A5A5"/>
<path d="M225.32 12.5H219.07V18.75H225.32V12.5Z" fill="#A5A5A5"/>
<path d="M219.07 12.5H212.82V18.75H219.07V12.5Z" fill="#A5A5A5"/>
<path d="M212.82 12.5H206.57V18.75H212.82V12.5Z" fill="#A5A5A5"/>
<path d="M206.57 12.5H200.32V18.75H206.57V12.5Z" fill="#A5A5A5"/>
<path d="M200.32 12.5H194.07V18.75H200.32V12.5Z" fill="#A5A5A5"/>
<path d="M194.07 12.5H187.82V18.75H194.07V12.5Z" fill="#A5A5A5"/>
<path d="M187.81 12.5H181.56V18.75H187.81V12.5Z" fill="#A5A5A5"/>
<path d="M181.56 12.5H175.31V18.75H181.56V12.5Z" fill="#A5A5A5"/>
<path d="M175.31 12.5H169.06V18.75H175.31V12.5Z" fill="#A5A5A5"/>
<path d="M169.06 12.5H162.81V18.75H169.06V12.5Z" fill="#A5A5A5"/>
<path d="M162.81 12.5H156.56V18.75H162.81V12.5Z" fill="#D6D6D6"/>
<path d="M156.56 12.5H150.31V18.75H156.56V12.5Z" fill="#D6D6D6"/>
<path d="M150.31 12.5H144.06V18.75H150.31V12.5Z" fill="#D6D6D6"/>
<path d="M144.06 12.5H137.81V18.75H144.06V12.5Z" fill="#A5A5A5"/>
<path d="M137.81 12.5H131.56V18.75H137.81V12.5Z" fill="#A5A5A5"/>
<path d="M131.56 12.5H125.31V18.75H131.56V12.5Z" fill="#A5A5A5"/>
<path d="M125.31 12.5H119.06V18.75H125.31V12.5Z" fill="#D6D6D6"/>
<path d="M119.06 12.5H112.81V18.75H119.06V12.5Z" fill="#A5A5A5"/>
<path d="M112.8 12.5H106.55V18.75H112.8V12.5Z" fill="#A5A5A5"/>
<path d="M106.55 12.5H100.3V18.75H106.55V12.5Z" fill="#A5A5A5"/>
<path d="M100.3 12.5H94.05V18.75H100.3V12.5Z" fill="#A5A5A5"/>
<path d="M94.05 12.5H87.8V18.75H94.05V12.5Z" fill="#A5A5A5"/>
<path d="M87.8 12.5H81.55V18.75H87.8V12.5Z" fill="#A5A5A5"/>
<path d="M81.55 12.5H75.3V18.75H81.55V12.5Z" fill="#A5A5A5"/>
<path d="M75.3 12.5H69.05V18.75H75.3V12.5Z" fill="#A5A5A5"/>
<path d="M69.0501 12.5H62.8V18.75H69.0501V12.5Z" fill="#A5A5A5"/>
<path d="M62.8 12.5H56.55V18.75H62.8V12.5Z" fill="#A5A5A5"/>
<path d="M56.55 12.5H50.3V18.75H56.55V12.5Z" fill="#A5A5A5"/>
<path d="M50.3 12.5H44.05V18.75H50.3V12.5Z" fill="#A5A5A5"/>
<path d="M44.05 12.5H37.8V18.75H44.05V12.5Z" fill="#A5A5A5"/>
<path d="M37.79 12.5H31.54V18.75H37.79V12.5Z" fill="#D6D6D6"/>
<path d="M31.54 12.5H25.29V18.75H31.54V12.5Z" fill="#808080"/>
<path d="M25.29 12.5H19.04V18.75H25.29V12.5Z" fill="#808080"/>
<path d="M19.04 12.5H12.79V18.75H19.04V12.5Z" fill="#808080"/>
<path d="M12.79 12.5H6.54004V18.75H12.79V12.5Z" fill="#808080"/>
<path d="M6.54004 12.5H0.290039V18.75H6.54004V12.5Z" fill="#4C4C4C"/>
<path d="M281.58 18.75H275.33V25H281.58V18.75Z" fill="#4C4C4C"/>
<path d="M275.33 18.75H269.08V25H275.33V18.75Z" fill="#3D3D3D"/>
<path d="M269.08 18.75H262.83V25H269.08V18.75Z" fill="#3D3D3D"/>
<path d="M262.82 18.75H256.57V25H262.82V18.75Z" fill="#3D3D3D"/>
<path d="M256.57 18.75H250.32V25H256.57V18.75Z" fill="#3D3D3D"/>
<path d="M250.32 18.75H244.07V25H250.32V18.75Z" fill="#A5A5A5"/>
<path d="M244.07 18.75H237.82V25H244.07V18.75Z" fill="#A5A5A5"/>
<path d="M237.82 18.75H231.57V25H237.82V18.75Z" fill="#A5A5A5"/>
<path d="M231.57 18.75H225.32V25H231.57V18.75Z" fill="#A5A5A5"/>
<path d="M225.32 18.75H219.07V25H225.32V18.75Z" fill="#A5A5A5"/>
<path d="M219.07 18.75H212.82V25H219.07V18.75Z" fill="#A5A5A5"/>
<path d="M212.82 18.75H206.57V25H212.82V18.75Z" fill="#A5A5A5"/>
<path d="M206.57 18.75H200.32V25H206.57V18.75Z" fill="#A5A5A5"/>
<path d="M200.32 18.75H194.07V25H200.32V18.75Z" fill="#A5A5A5"/>
<path d="M194.07 18.75H187.82V25H194.07V18.75Z" fill="#A5A5A5"/>
<path d="M187.81 18.75H181.56V25H187.81V18.75Z" fill="#A5A5A5"/>
<path d="M181.56 18.75H175.31V25H181.56V18.75Z" fill="#A5A5A5"/>
<path d="M175.31 18.75H169.06V25H175.31V18.75Z" fill="#A5A5A5"/>
<path d="M169.06 18.75H162.81V25H169.06V18.75Z" fill="#D6D6D6"/>
<path d="M162.81 18.75H156.56V25H162.81V18.75Z" fill="#D6D6D6"/>
<path d="M156.56 18.75H150.31V25H156.56V18.75Z" fill="#D6D6D6"/>
<path d="M150.31 18.75H144.06V25H150.31V18.75Z" fill="#A5A5A5"/>
<path d="M144.06 18.75H137.81V25H144.06V18.75Z" fill="#A5A5A5"/>
<path d="M137.81 18.75H131.56V25H137.81V18.75Z" fill="#A5A5A5"/>
<path d="M131.56 18.75H125.31V25H131.56V18.75Z" fill="#D6D6D6"/>
<path d="M125.31 18.75H119.06V25H125.31V18.75Z" fill="#A5A5A5"/>
<path d="M119.06 18.75H112.81V25H119.06V18.75Z" fill="#A5A5A5"/>
<path d="M112.8 18.75H106.55V25H112.8V18.75Z" fill="#A5A5A5"/>
<path d="M106.55 18.75H100.3V25H106.55V18.75Z" fill="#A5A5A5"/>
<path d="M100.3 18.75H94.05V25H100.3V18.75Z" fill="#A5A5A5"/>
<path d="M94.05 18.75H87.8V25H94.05V18.75Z" fill="#A5A5A5"/>
<path d="M87.8 18.75H81.55V25H87.8V18.75Z" fill="#A5A5A5"/>
<path d="M81.55 18.75H75.3V25H81.55V18.75Z" fill="#A5A5A5"/>
<path d="M75.3 18.75H69.05V25H75.3V18.75Z" fill="#A5A5A5"/>
<path d="M69.0501 18.75H62.8V25H69.0501V18.75Z" fill="#A5A5A5"/>
<path d="M62.8 18.75H56.55V25H62.8V18.75Z" fill="#A5A5A5"/>
<path d="M56.55 18.75H50.3V25H56.55V18.75Z" fill="#A5A5A5"/>
<path d="M50.3 18.75H44.05V25H50.3V18.75Z" fill="#A5A5A5"/>
<path d="M44.05 18.75H37.8V25H44.05V18.75Z" fill="#A5A5A5"/>
<path d="M37.79 18.75H31.54V25H37.79V18.75Z" fill="#A5A5A5"/>
<path d="M31.54 18.75H25.29V25H31.54V18.75Z" fill="#808080"/>
<path d="M25.29 18.75H19.04V25H25.29V18.75Z" fill="#808080"/>
<path d="M19.04 18.75H12.79V25H19.04V18.75Z" fill="#808080"/>
<path d="M12.79 18.75H6.54004V25H12.79V18.75Z" fill="#808080"/>
<path d="M6.54004 18.75H0.290039V25H6.54004V18.75Z" fill="#4C4C4C"/>
<path d="M281.58 25H275.33V31.25H281.58V25Z" fill="#4C4C4C"/>
<path d="M275.33 25H269.08V31.25H275.33V25Z" fill="#3D3D3D"/>
<path d="M269.08 25H262.83V31.25H269.08V25Z" fill="#3D3D3D"/>
<path d="M262.82 25H256.57V31.25H262.82V25Z" fill="#3D3D3D"/>
<path d="M256.57 25H250.32V31.25H256.57V25Z" fill="#3D3D3D"/>
<path d="M250.32 25H244.07V31.25H250.32V25Z" fill="#A5A5A5"/>
<path d="M244.07 25H237.82V31.25H244.07V25Z" fill="#A5A5A5"/>
<path d="M237.82 25H231.57V31.25H237.82V25Z" fill="#A5A5A5"/>
<path d="M231.57 25H225.32V31.25H231.57V25Z" fill="#A5A5A5"/>
<path d="M225.32 25H219.07V31.25H225.32V25Z" fill="#A5A5A5"/>
<path d="M219.07 25H212.82V31.25H219.07V25Z" fill="#A5A5A5"/>
<path d="M212.82 25H206.57V31.25H212.82V25Z" fill="#A5A5A5"/>
<path d="M206.57 25H200.32V31.25H206.57V25Z" fill="#A5A5A5"/>
<path d="M200.32 25H194.07V31.25H200.32V25Z" fill="#A5A5A5"/>
<path d="M194.07 25H187.82V31.25H194.07V25Z" fill="#A5A5A5"/>
<path d="M187.81 25H181.56V31.25H187.81V25Z" fill="#A5A5A5"/>
<path d="M181.56 25H175.31V31.25H181.56V25Z" fill="#A5A5A5"/>
<path d="M175.31 25H169.06V31.25H175.31V25Z" fill="#D6D6D6"/>
<path d="M169.06 25H162.81V31.25H169.06V25Z" fill="#D6D6D6"/>
<path d="M162.81 25H156.56V31.25H162.81V25Z" fill="#D6D6D6"/>
<path d="M156.56 25H150.31V31.25H156.56V25Z" fill="#A5A5A5"/>
<path d="M150.31 25H144.06V31.25H150.31V25Z" fill="#A5A5A5"/>
<path d="M144.06 25H137.81V31.25H144.06V25Z" fill="#A5A5A5"/>
<path d="M137.81 25H131.56V31.25H137.81V25Z" fill="#D6D6D6"/>
<path d="M131.56 25H125.31V31.25H131.56V25Z" fill="#A5A5A5"/>
<path d="M125.31 25H119.06V31.25H125.31V25Z" fill="#A5A5A5"/>
<path d="M119.06 25H112.81V31.25H119.06V25Z" fill="#A5A5A5"/>
<path d="M112.8 25H106.55V31.25H112.8V25Z" fill="#A5A5A5"/>
<path d="M106.55 25H100.3V31.25H106.55V25Z" fill="#A5A5A5"/>
<path d="M100.3 25H94.05V31.25H100.3V25Z" fill="#A5A5A5"/>
<path d="M94.05 25H87.8V31.25H94.05V25Z" fill="#A5A5A5"/>
<path d="M87.8 25H81.55V31.25H87.8V25Z" fill="#A5A5A5"/>
<path d="M81.55 25H75.3V31.25H81.55V25Z" fill="#A5A5A5"/>
<path d="M75.3 25H69.05V31.25H75.3V25Z" fill="#A5A5A5"/>
<path d="M69.0501 25H62.8V31.25H69.0501V25Z" fill="#A5A5A5"/>
<path d="M62.8 25H56.55V31.25H62.8V25Z" fill="#A5A5A5"/>
<path d="M56.55 25H50.3V31.25H56.55V25Z" fill="#A5A5A5"/>
<path d="M50.3 25H44.05V31.25H50.3V25Z" fill="#A5A5A5"/>
<path d="M44.05 25H37.8V31.25H44.05V25Z" fill="#A5A5A5"/>
<path d="M37.79 25H31.54V31.25H37.79V25Z" fill="#A5A5A5"/>
<path d="M31.54 25H25.29V31.25H31.54V25Z" fill="#808080"/>
<path d="M25.29 25H19.04V31.25H25.29V25Z" fill="#808080"/>
<path d="M19.04 25H12.79V31.25H19.04V25Z" fill="#808080"/>
<path d="M12.79 25H6.54004V31.25H12.79V25Z" fill="#808080"/>
<path d="M6.54004 25H0.290039V31.25H6.54004V25Z" fill="#4C4C4C"/>
<path d="M281.58 31.25H275.33V37.5H281.58V31.25Z" fill="#4C4C4C"/>
<path d="M275.33 31.25H269.08V37.5H275.33V31.25Z" fill="#3D3D3D"/>
<path d="M269.08 31.25H262.83V37.5H269.08V31.25Z" fill="#3D3D3D"/>
<path d="M262.82 31.25H256.57V37.5H262.82V31.25Z" fill="#3D3D3D"/>
<path d="M256.57 31.25H250.32V37.5H256.57V31.25Z" fill="#3D3D3D"/>
<path d="M250.32 31.25H244.07V37.5H250.32V31.25Z" fill="#A5A5A5"/>
<path d="M244.07 31.25H237.82V37.5H244.07V31.25Z" fill="#A5A5A5"/>
<path d="M237.82 31.25H231.57V37.5H237.82V31.25Z" fill="#A5A5A5"/>
<path d="M231.57 31.25H225.32V37.5H231.57V31.25Z" fill="#A5A5A5"/>
<path d="M225.32 31.25H219.07V37.5H225.32V31.25Z" fill="#A5A5A5"/>
<path d="M219.07 31.25H212.82V37.5H219.07V31.25Z" fill="#A5A5A5"/>
<path d="M212.82 31.25H206.57V37.5H212.82V31.25Z" fill="#A5A5A5"/>
<path d="M206.57 31.25H200.32V37.5H206.57V31.25Z" fill="#A5A5A5"/>
<path d="M200.32 31.25H194.07V37.5H200.32V31.25Z" fill="#A5A5A5"/>
<path d="M194.07 31.25H187.82V37.5H194.07V31.25Z" fill="#A5A5A5"/>
<path d="M187.81 31.25H181.56V37.5H187.81V31.25Z" fill="#A5A5A5"/>
<path d="M181.56 31.25H175.31V37.5H181.56V31.25Z" fill="#D6D6D6"/>
<path d="M175.31 31.25H169.06V37.5H175.31V31.25Z" fill="#D6D6D6"/>
<path d="M169.06 31.25H162.81V37.5H169.06V31.25Z" fill="#D6D6D6"/>
<path d="M162.81 31.25H156.56V37.5H162.81V31.25Z" fill="#A5A5A5"/>
<path d="M156.56 31.25H150.31V37.5H156.56V31.25Z" fill="#A5A5A5"/>
<path d="M150.31 31.25H144.06V37.5H150.31V31.25Z" fill="#A5A5A5"/>
<path d="M144.06 31.25H137.81V37.5H144.06V31.25Z" fill="#D6D6D6"/>
<path d="M137.81 31.25H131.56V37.5H137.81V31.25Z" fill="#A5A5A5"/>
<path d="M131.56 31.25H125.31V37.5H131.56V31.25Z" fill="#A5A5A5"/>
<path d="M125.31 31.25H119.06V37.5H125.31V31.25Z" fill="#A5A5A5"/>
<path d="M119.06 31.25H112.81V37.5H119.06V31.25Z" fill="#A5A5A5"/>
<path d="M112.8 31.25H106.55V37.5H112.8V31.25Z" fill="#A5A5A5"/>
<path d="M106.55 31.25H100.3V37.5H106.55V31.25Z" fill="#A5A5A5"/>
<path d="M100.3 31.25H94.05V37.5H100.3V31.25Z" fill="#A5A5A5"/>
<path d="M94.05 31.25H87.8V37.5H94.05V31.25Z" fill="#A5A5A5"/>
<path d="M87.8 31.25H81.55V37.5H87.8V31.25Z" fill="#A5A5A5"/>
<path d="M81.55 31.25H75.3V37.5H81.55V31.25Z" fill="#A5A5A5"/>
<path d="M75.3 31.25H69.05V37.5H75.3V31.25Z" fill="#A5A5A5"/>
<path d="M69.0501 31.25H62.8V37.5H69.0501V31.25Z" fill="#A5A5A5"/>
<path d="M62.8 31.25H56.55V37.5H62.8V31.25Z" fill="#A5A5A5"/>
<path d="M56.55 31.25H50.3V37.5H56.55V31.25Z" fill="#A5A5A5"/>
<path d="M50.3 31.25H44.05V37.5H50.3V31.25Z" fill="#A5A5A5"/>
<path d="M44.05 31.25H37.8V37.5H44.05V31.25Z" fill="#A5A5A5"/>
<path d="M37.79 31.25H31.54V37.5H37.79V31.25Z" fill="#A5A5A5"/>
<path d="M31.54 31.25H25.29V37.5H31.54V31.25Z" fill="#808080"/>
<path d="M25.29 31.25H19.04V37.5H25.29V31.25Z" fill="#808080"/>
<path d="M19.04 31.25H12.79V37.5H19.04V31.25Z" fill="#808080"/>
<path d="M12.79 31.25H6.54004V37.5H12.79V31.25Z" fill="#808080"/>
<path d="M6.54004 31.25H0.290039V37.5H6.54004V31.25Z" fill="#4C4C4C"/>
<path d="M281.58 37.51H275.33V43.76H281.58V37.51Z" fill="#4C4C4C"/>
<path d="M275.33 37.51H269.08V43.76H275.33V37.51Z" fill="#3D3D3D"/>
<path d="M269.08 37.51H262.83V43.76H269.08V37.51Z" fill="#3D3D3D"/>
<path d="M262.82 37.51H256.57V43.76H262.82V37.51Z" fill="#3D3D3D"/>
<path d="M256.57 37.51H250.32V43.76H256.57V37.51Z" fill="#3D3D3D"/>
<path d="M250.32 37.51H244.07V43.76H250.32V37.51Z" fill="#A5A5A5"/>
<path d="M244.07 37.51H237.82V43.76H244.07V37.51Z" fill="#A5A5A5"/>
<path d="M237.82 37.51H231.57V43.76H237.82V37.51Z" fill="#A5A5A5"/>
<path d="M231.57 37.51H225.32V43.76H231.57V37.51Z" fill="#A5A5A5"/>
<path d="M225.32 37.51H219.07V43.76H225.32V37.51Z" fill="#A5A5A5"/>
<path d="M219.07 37.51H212.82V43.76H219.07V37.51Z" fill="#A5A5A5"/>
<path d="M212.82 37.51H206.57V43.76H212.82V37.51Z" fill="#A5A5A5"/>
<path d="M206.57 37.51H200.32V43.76H206.57V37.51Z" fill="#A5A5A5"/>
<path d="M200.32 37.51H194.07V43.76H200.32V37.51Z" fill="#A5A5A5"/>
<path d="M194.07 37.51H187.82V43.76H194.07V37.51Z" fill="#A5A5A5"/>
<path d="M187.81 37.51H181.56V43.76H187.81V37.51Z" fill="#D6D6D6"/>
<path d="M181.56 37.51H175.31V43.76H181.56V37.51Z" fill="#D6D6D6"/>
<path d="M175.31 37.51H169.06V43.76H175.31V37.51Z" fill="#D6D6D6"/>
<path d="M169.06 37.51H162.81V43.76H169.06V37.51Z" fill="#A5A5A5"/>
<path d="M162.81 37.51H156.56V43.76H162.81V37.51Z" fill="#A5A5A5"/>
<path d="M156.56 37.51H150.31V43.76H156.56V37.51Z" fill="#A5A5A5"/>
<path d="M150.31 37.51H144.06V43.76H150.31V37.51Z" fill="#D6D6D6"/>
<path d="M144.06 37.51H137.81V43.76H144.06V37.51Z" fill="#A5A5A5"/>
<path d="M137.81 37.51H131.56V43.76H137.81V37.51Z" fill="#A5A5A5"/>
<path d="M131.56 37.51H125.31V43.76H131.56V37.51Z" fill="#A5A5A5"/>
<path d="M125.31 37.51H119.06V43.76H125.31V37.51Z" fill="#A5A5A5"/>
<path d="M119.06 37.51H112.81V43.76H119.06V37.51Z" fill="#A5A5A5"/>
<path d="M112.8 37.51H106.55V43.76H112.8V37.51Z" fill="#A5A5A5"/>
<path d="M106.55 37.51H100.3V43.76H106.55V37.51Z" fill="#A5A5A5"/>
<path d="M100.3 37.51H94.05V43.76H100.3V37.51Z" fill="#A5A5A5"/>
<path d="M94.05 37.51H87.8V43.76H94.05V37.51Z" fill="#A5A5A5"/>
<path d="M87.8 37.51H81.55V43.76H87.8V37.51Z" fill="#A5A5A5"/>
<path d="M81.55 37.51H75.3V43.76H81.55V37.51Z" fill="#A5A5A5"/>
<path d="M75.3 37.51H69.05V43.76H75.3V37.51Z" fill="#A5A5A5"/>
<path d="M69.0501 37.51H62.8V43.76H69.0501V37.51Z" fill="#A5A5A5"/>
<path d="M62.8 37.51H56.55V43.76H62.8V37.51Z" fill="#A5A5A5"/>
<path d="M56.55 37.51H50.3V43.76H56.55V37.51Z" fill="#A5A5A5"/>
<path d="M50.3 37.51H44.05V43.76H50.3V37.51Z" fill="#A5A5A5"/>
<path d="M44.05 37.51H37.8V43.76H44.05V37.51Z" fill="#A5A5A5"/>
<path d="M37.79 37.51H31.54V43.76H37.79V37.51Z" fill="#A5A5A5"/>
<path d="M31.54 37.51H25.29V43.76H31.54V37.51Z" fill="#808080"/>
<path d="M25.29 37.51H19.04V43.76H25.29V37.51Z" fill="#808080"/>
<path d="M19.04 37.51H12.79V43.76H19.04V37.51Z" fill="#808080"/>
<path d="M12.79 37.51H6.54004V43.76H12.79V37.51Z" fill="#808080"/>
<path d="M6.54004 37.51H0.290039V43.76H6.54004V37.51Z" fill="#4C4C4C"/>
<path d="M281.58 43.76H275.33V50.01H281.58V43.76Z" fill="#4C4C4C"/>
<path d="M275.33 43.76H269.08V50.01H275.33V43.76Z" fill="#3D3D3D"/>
<path d="M269.08 43.76H262.83V50.01H269.08V43.76Z" fill="#3D3D3D"/>
<path d="M262.82 43.76H256.57V50.01H262.82V43.76Z" fill="#3D3D3D"/>
<path d="M256.57 43.76H250.32V50.01H256.57V43.76Z" fill="#3D3D3D"/>
<path d="M250.32 43.76H244.07V50.01H250.32V43.76Z" fill="#A5A5A5"/>
<path d="M244.07 43.76H237.82V50.01H244.07V43.76Z" fill="#A5A5A5"/>
<path d="M237.82 43.76H231.57V50.01H237.82V43.76Z" fill="#A5A5A5"/>
<path d="M231.57 43.76H225.32V50.01H231.57V43.76Z" fill="#A5A5A5"/>
<path d="M225.32 43.76H219.07V50.01H225.32V43.76Z" fill="#A5A5A5"/>
<path d="M219.07 43.76H212.82V50.01H219.07V43.76Z" fill="#A5A5A5"/>
<path d="M212.82 43.76H206.57V50.01H212.82V43.76Z" fill="#A5A5A5"/>
<path d="M206.57 43.76H200.32V50.01H206.57V43.76Z" fill="#A5A5A5"/>
<path d="M200.32 43.76H194.07V50.01H200.32V43.76Z" fill="#A5A5A5"/>
<path d="M194.07 43.76H187.82V50.01H194.07V43.76Z" fill="#D6D6D6"/>
<path d="M187.81 43.76H181.56V50.01H187.81V43.76Z" fill="#D6D6D6"/>
<path d="M181.56 43.76H175.31V50.01H181.56V43.76Z" fill="#D6D6D6"/>
<path d="M175.31 43.76H169.06V50.01H175.31V43.76Z" fill="#A5A5A5"/>
<path d="M169.06 43.76H162.81V50.01H169.06V43.76Z" fill="#A5A5A5"/>
<path d="M162.81 43.76H156.56V50.01H162.81V43.76Z" fill="#A5A5A5"/>
<path d="M156.56 43.76H150.31V50.01H156.56V43.76Z" fill="#D6D6D6"/>
<path d="M150.31 43.76H144.06V50.01H150.31V43.76Z" fill="#A5A5A5"/>
<path d="M144.06 43.76H137.81V50.01H144.06V43.76Z" fill="#A5A5A5"/>
<path d="M137.81 43.76H131.56V50.01H137.81V43.76Z" fill="#A5A5A5"/>
<path d="M131.56 43.76H125.31V50.01H131.56V43.76Z" fill="#A5A5A5"/>
<path d="M125.31 43.76H119.06V50.01H125.31V43.76Z" fill="#A5A5A5"/>
<path d="M119.06 43.76H112.81V50.01H119.06V43.76Z" fill="#A5A5A5"/>
<path d="M112.8 43.76H106.55V50.01H112.8V43.76Z" fill="#A5A5A5"/>
<path d="M106.55 43.76H100.3V50.01H106.55V43.76Z" fill="#A5A5A5"/>
<path d="M100.3 43.76H94.05V50.01H100.3V43.76Z" fill="#A5A5A5"/>
<path d="M94.05 43.76H87.8V50.01H94.05V43.76Z" fill="#A5A5A5"/>
<path d="M87.8 43.76H81.55V50.01H87.8V43.76Z" fill="#A5A5A5"/>
<path d="M81.55 43.76H75.3V50.01H81.55V43.76Z" fill="#A5A5A5"/>
<path d="M75.3 43.76H69.05V50.01H75.3V43.76Z" fill="#A5A5A5"/>
<path d="M69.0501 43.76H62.8V50.01H69.0501V43.76Z" fill="#A5A5A5"/>
<path d="M62.8 43.76H56.55V50.01H62.8V43.76Z" fill="#A5A5A5"/>
<path d="M56.55 43.76H50.3V50.01H56.55V43.76Z" fill="#A5A5A5"/>
<path d="M50.3 43.76H44.05V50.01H50.3V43.76Z" fill="#A5A5A5"/>
<path d="M44.05 43.76H37.8V50.01H44.05V43.76Z" fill="#A5A5A5"/>
<path d="M37.79 43.76H31.54V50.01H37.79V43.76Z" fill="#A5A5A5"/>
<path d="M31.54 43.76H25.29V50.01H31.54V43.76Z" fill="#808080"/>
<path d="M25.29 43.76H19.04V50.01H25.29V43.76Z" fill="#808080"/>
<path d="M19.04 43.76H12.79V50.01H19.04V43.76Z" fill="#808080"/>
<path d="M12.79 43.76H6.54004V50.01H12.79V43.76Z" fill="#808080"/>
<path d="M6.54004 43.76H0.290039V50.01H6.54004V43.76Z" fill="#4C4C4C"/>
<path d="M281.58 50.01H275.33V56.26H281.58V50.01Z" fill="#4C4C4C"/>
<path d="M275.33 50.01H269.08V56.26H275.33V50.01Z" fill="#3D3D3D"/>
<path d="M269.08 50.01H262.83V56.26H269.08V50.01Z" fill="#3D3D3D"/>
<path d="M262.82 50.01H256.57V56.26H262.82V50.01Z" fill="#3D3D3D"/>
<path d="M256.57 50.01H250.32V56.26H256.57V50.01Z" fill="#3D3D3D"/>
<path d="M250.32 50.01H244.07V56.26H250.32V50.01Z" fill="#A5A5A5"/>
<path d="M244.07 50.01H237.82V56.26H244.07V50.01Z" fill="#A5A5A5"/>
<path d="M237.82 50.01H231.57V56.26H237.82V50.01Z" fill="#A5A5A5"/>
<path d="M231.57 50.01H225.32V56.26H231.57V50.01Z" fill="#A5A5A5"/>
<path d="M225.32 50.01H219.07V56.26H225.32V50.01Z" fill="#A5A5A5"/>
<path d="M219.07 50.01H212.82V56.26H219.07V50.01Z" fill="#A5A5A5"/>
<path d="M212.82 50.01H206.57V56.26H212.82V50.01Z" fill="#A5A5A5"/>
<path d="M206.57 50.01H200.32V56.26H206.57V50.01Z" fill="#A5A5A5"/>
<path d="M200.32 50.01H194.07V56.26H200.32V50.01Z" fill="#D6D6D6"/>
<path d="M194.07 50.01H187.82V56.26H194.07V50.01Z" fill="#D6D6D6"/>
<path d="M187.81 50.01H181.56V56.26H187.81V50.01Z" fill="#D6D6D6"/>
<path d="M181.56 50.01H175.31V56.26H181.56V50.01Z" fill="#A5A5A5"/>
<path d="M175.31 50.01H169.06V56.26H175.31V50.01Z" fill="#A5A5A5"/>
<path d="M169.06 50.01H162.81V56.26H169.06V50.01Z" fill="#A5A5A5"/>
<path d="M162.81 50.01H156.56V56.26H162.81V50.01Z" fill="#D6D6D6"/>
<path d="M156.56 50.01H150.31V56.26H156.56V50.01Z" fill="#A5A5A5"/>
<path d="M150.31 50.01H144.06V56.26H150.31V50.01Z" fill="#A5A5A5"/>
<path d="M144.06 50.01H137.81V56.26H144.06V50.01Z" fill="#A5A5A5"/>
<path d="M137.81 50.01H131.56V56.26H137.81V50.01Z" fill="#A5A5A5"/>
<path d="M131.56 50.01H125.31V56.26H131.56V50.01Z" fill="#A5A5A5"/>
<path d="M125.31 50.01H119.06V56.26H125.31V50.01Z" fill="#A5A5A5"/>
<path d="M119.06 50.01H112.81V56.26H119.06V50.01Z" fill="#A5A5A5"/>
<path d="M112.8 50.01H106.55V56.26H112.8V50.01Z" fill="#A5A5A5"/>
<path d="M106.55 50.01H100.3V56.26H106.55V50.01Z" fill="#A5A5A5"/>
<path d="M100.3 50.01H94.05V56.26H100.3V50.01Z" fill="#A5A5A5"/>
<path d="M94.05 50.01H87.8V56.26H94.05V50.01Z" fill="#A5A5A5"/>
<path d="M87.8 50.01H81.55V56.26H87.8V50.01Z" fill="#A5A5A5"/>
<path d="M81.55 50.01H75.3V56.26H81.55V50.01Z" fill="#A5A5A5"/>
<path d="M75.3 50.01H69.05V56.26H75.3V50.01Z" fill="#A5A5A5"/>
<path d="M69.0501 50.01H62.8V56.26H69.0501V50.01Z" fill="#A5A5A5"/>
<path d="M62.8 50.01H56.55V56.26H62.8V50.01Z" fill="#A5A5A5"/>
<path d="M56.55 50.01H50.3V56.26H56.55V50.01Z" fill="#A5A5A5"/>
<path d="M50.3 50.01H44.05V56.26H50.3V50.01Z" fill="#A5A5A5"/>
<path d="M44.05 50.01H37.8V56.26H44.05V50.01Z" fill="#A5A5A5"/>
<path d="M37.79 50.01H31.54V56.26H37.79V50.01Z" fill="#A5A5A5"/>
<path d="M31.54 50.01H25.29V56.26H31.54V50.01Z" fill="#808080"/>
<path d="M25.29 50.01H19.04V56.26H25.29V50.01Z" fill="#808080"/>
<path d="M19.04 50.01H12.79V56.26H19.04V50.01Z" fill="#808080"/>
<path d="M12.79 50.01H6.54004V56.26H12.79V50.01Z" fill="#808080"/>
<path d="M6.54004 50.01H0.290039V56.26H6.54004V50.01Z" fill="#4C4C4C"/>
<path d="M281.58 56.26H275.33V62.51H281.58V56.26Z" fill="#4C4C4C"/>
<path d="M275.33 56.26H269.08V62.51H275.33V56.26Z" fill="#3D3D3D"/>
<path d="M269.08 56.26H262.83V62.51H269.08V56.26Z" fill="#3D3D3D"/>
<path d="M262.82 56.26H256.57V62.51H262.82V56.26Z" fill="#3D3D3D"/>
<path d="M256.57 56.26H250.32V62.51H256.57V56.26Z" fill="#3D3D3D"/>
<path d="M250.32 56.26H244.07V62.51H250.32V56.26Z" fill="#D6D6D6"/>
<path d="M244.07 56.26H237.82V62.51H244.07V56.26Z" fill="#A5A5A5"/>
<path d="M237.82 56.26H231.57V62.51H237.82V56.26Z" fill="#A5A5A5"/>
<path d="M231.57 56.26H225.32V62.51H231.57V56.26Z" fill="#A5A5A5"/>
<path d="M225.32 56.26H219.07V62.51H225.32V56.26Z" fill="#A5A5A5"/>
<path d="M219.07 56.26H212.82V62.51H219.07V56.26Z" fill="#A5A5A5"/>
<path d="M212.82 56.26H206.57V62.51H212.82V56.26Z" fill="#A5A5A5"/>
<path d="M206.57 56.26H200.32V62.51H206.57V56.26Z" fill="#D6D6D6"/>
<path d="M200.32 56.26H194.07V62.51H200.32V56.26Z" fill="#D6D6D6"/>
<path d="M194.07 56.26H187.82V62.51H194.07V56.26Z" fill="#D6D6D6"/>
<path d="M187.81 56.26H181.56V62.51H187.81V56.26Z" fill="#A5A5A5"/>
<path d="M181.56 56.26H175.31V62.51H181.56V56.26Z" fill="#A5A5A5"/>
<path d="M175.31 56.26H169.06V62.51H175.31V56.26Z" fill="#A5A5A5"/>
<path d="M169.06 56.26H162.81V62.51H169.06V56.26Z" fill="#D6D6D6"/>
<path d="M162.81 56.26H156.56V62.51H162.81V56.26Z" fill="#A5A5A5"/>
<path d="M156.56 56.26H150.31V62.51H156.56V56.26Z" fill="#A5A5A5"/>
<path d="M150.31 56.26H144.06V62.51H150.31V56.26Z" fill="#A5A5A5"/>
<path d="M144.06 56.26H137.81V62.51H144.06V56.26Z" fill="#A5A5A5"/>
<path d="M137.81 56.26H131.56V62.51H137.81V56.26Z" fill="#A5A5A5"/>
<path d="M131.56 56.26H125.31V62.51H131.56V56.26Z" fill="#A5A5A5"/>
<path d="M125.31 56.26H119.06V62.51H125.31V56.26Z" fill="#A5A5A5"/>
<path d="M119.06 56.26H112.81V62.51H119.06V56.26Z" fill="#A5A5A5"/>
<path d="M112.8 56.26H106.55V62.51H112.8V56.26Z" fill="#A5A5A5"/>
<path d="M106.55 56.26H100.3V62.51H106.55V56.26Z" fill="#A5A5A5"/>
<path d="M100.3 56.26H94.05V62.51H100.3V56.26Z" fill="#A5A5A5"/>
<path d="M94.05 56.26H87.8V62.51H94.05V56.26Z" fill="#A5A5A5"/>
<path d="M87.8 56.26H81.55V62.51H87.8V56.26Z" fill="#A5A5A5"/>
<path d="M81.55 56.26H75.3V62.51H81.55V56.26Z" fill="#A5A5A5"/>
<path d="M75.3 56.26H69.05V62.51H75.3V56.26Z" fill="#A5A5A5"/>
<path d="M69.0501 56.26H62.8V62.51H69.0501V56.26Z" fill="#A5A5A5"/>
<path d="M62.8 56.26H56.55V62.51H62.8V56.26Z" fill="#A5A5A5"/>
<path d="M56.55 56.26H50.3V62.51H56.55V56.26Z" fill="#A5A5A5"/>
<path d="M50.3 56.26H44.05V62.51H50.3V56.26Z" fill="#A5A5A5"/>
<path d="M44.05 56.26H37.8V62.51H44.05V56.26Z" fill="#A5A5A5"/>
<path d="M37.79 56.26H31.54V62.51H37.79V56.26Z" fill="#D6D6D6"/>
<path d="M31.54 56.26H25.29V62.51H31.54V56.26Z" fill="#808080"/>
<path d="M25.29 56.26H19.04V62.51H25.29V56.26Z" fill="#808080"/>
<path d="M19.04 56.26H12.79V62.51H19.04V56.26Z" fill="#808080"/>
<path d="M12.79 56.26H6.54004V62.51H12.79V56.26Z" fill="#808080"/>
<path d="M6.54004 56.26H0.290039V62.51H6.54004V56.26Z" fill="#4C4C4C"/>
<path d="M281.58 62.51H275.33V68.76H281.58V62.51Z" fill="#4C4C4C"/>
<path d="M275.33 62.51H269.08V68.76H275.33V62.51Z" fill="#3D3D3D"/>
<path d="M269.08 62.51H262.83V68.76H269.08V62.51Z" fill="#3D3D3D"/>
<path d="M262.82 62.51H256.57V68.76H262.82V62.51Z" fill="#3D3D3D"/>
<path d="M256.57 62.51H250.32V68.76H256.57V62.51Z" fill="#3D3D3D"/>
<path d="M250.32 62.51H244.07V68.76H250.32V62.51Z" fill="#808080"/>
<path d="M244.07 62.51H237.82V68.76H244.07V62.51Z" fill="#D6D6D6"/>
<path d="M237.82 62.51H231.57V68.76H237.82V62.51Z" fill="#D6D6D6"/>
<path d="M231.57 62.51H225.32V68.76H231.57V62.51Z" fill="#D6D6D6"/>
<path d="M225.32 62.51H219.07V68.76H225.32V62.51Z" fill="#D6D6D6"/>
<path d="M219.07 62.51H212.82V68.76H219.07V62.51Z" fill="#D6D6D6"/>
<path d="M212.82 62.51H206.57V68.76H212.82V62.51Z" fill="#D6D6D6"/>
<path d="M206.57 62.51H200.32V68.76H206.57V62.51Z" fill="#D6D6D6"/>
<path d="M200.32 62.51H194.07V68.76H200.32V62.51Z" fill="#D6D6D6"/>
<path d="M194.07 62.51H187.82V68.76H194.07V62.51Z" fill="#D6D6D6"/>
<path d="M187.81 62.51H181.56V68.76H187.81V62.51Z" fill="#D6D6D6"/>
<path d="M181.56 62.51H175.31V68.76H181.56V62.51Z" fill="#D6D6D6"/>
<path d="M175.31 62.51H169.06V68.76H175.31V62.51Z" fill="#D6D6D6"/>
<path d="M169.06 62.51H162.81V68.76H169.06V62.51Z" fill="#D6D6D6"/>
<path d="M162.81 62.51H156.56V68.76H162.81V62.51Z" fill="#D6D6D6"/>
<path d="M156.56 62.51H150.31V68.76H156.56V62.51Z" fill="#D6D6D6"/>
<path d="M150.31 62.51H144.06V68.76H150.31V62.51Z" fill="#D6D6D6"/>
<path d="M144.06 62.51H137.81V68.76H144.06V62.51Z" fill="#D6D6D6"/>
<path d="M137.81 62.51H131.56V68.76H137.81V62.51Z" fill="#D6D6D6"/>
<path d="M131.56 62.51H125.31V68.76H131.56V62.51Z" fill="#D6D6D6"/>
<path d="M125.31 62.51H119.06V68.76H125.31V62.51Z" fill="#D6D6D6"/>
<path d="M119.06 62.51H112.81V68.76H119.06V62.51Z" fill="#D6D6D6"/>
<path d="M112.8 62.51H106.55V68.76H112.8V62.51Z" fill="#D6D6D6"/>
<path d="M106.55 62.51H100.3V68.76H106.55V62.51Z" fill="#D6D6D6"/>
<path d="M100.3 62.51H94.05V68.76H100.3V62.51Z" fill="#D6D6D6"/>
<path d="M94.05 62.51H87.8V68.76H94.05V62.51Z" fill="#D6D6D6"/>
<path d="M87.8 62.51H81.55V68.76H87.8V62.51Z" fill="#D6D6D6"/>
<path d="M81.55 62.51H75.3V68.76H81.55V62.51Z" fill="#D6D6D6"/>
<path d="M75.3 62.51H69.05V68.76H75.3V62.51Z" fill="#D6D6D6"/>
<path d="M69.0501 62.51H62.8V68.76H69.0501V62.51Z" fill="#D6D6D6"/>
<path d="M62.8 62.51H56.55V68.76H62.8V62.51Z" fill="#D6D6D6"/>
<path d="M56.55 62.51H50.3V68.76H56.55V62.51Z" fill="#D6D6D6"/>
<path d="M50.3 62.51H44.05V68.76H50.3V62.51Z" fill="#D6D6D6"/>
<path d="M44.05 62.51H37.8V68.76H44.05V62.51Z" fill="#D6D6D6"/>
<path d="M37.79 62.51H31.54V68.76H37.79V62.51Z" fill="#A5A5A5"/>
<path d="M31.54 62.51H25.29V68.76H31.54V62.51Z" fill="#808080"/>
<path d="M25.29 62.51H19.04V68.76H25.29V62.51Z" fill="#808080"/>
<path d="M19.04 62.51H12.79V68.76H19.04V62.51Z" fill="#808080"/>
<path d="M12.79 62.51H6.54004V68.76H12.79V62.51Z" fill="#808080"/>
<path d="M6.54004 62.51H0.290039V68.76H6.54004V62.51Z" fill="#4C4C4C"/>
<path d="M281.58 68.76H275.33V75.01H281.58V68.76Z" fill="#4C4C4C"/>
<path d="M275.33 68.76H269.08V75.01H275.33V68.76Z" fill="#3D3D3D"/>
<path d="M269.08 68.76H262.83V75.01H269.08V68.76Z" fill="#3D3D3D"/>
<path d="M262.82 68.76H256.57V75.01H262.82V68.76Z" fill="#3D3D3D"/>
<path d="M256.57 68.76H250.32V75.01H256.57V68.76Z" fill="#808080"/>
<path d="M250.32 68.76H244.07V75.01H250.32V68.76Z" fill="#606060"/>
<path d="M244.07 68.76H237.82V75.01H244.07V68.76Z" fill="#606060"/>
<path d="M237.82 68.76H231.57V75.01H237.82V68.76Z" fill="#606060"/>
<path d="M231.57 68.76H225.32V75.01H231.57V68.76Z" fill="#606060"/>
<path d="M225.32 68.76H219.07V75.01H225.32V68.76Z" fill="#606060"/>
<path d="M219.07 68.76H212.82V75.01H219.07V68.76Z" fill="#606060"/>
<path d="M212.82 68.76H206.57V75.01H212.82V68.76Z" fill="#606060"/>
<path d="M206.57 68.76H200.32V75.01H206.57V68.76Z" fill="#606060"/>
<path d="M200.32 68.76H194.07V75.01H200.32V68.76Z" fill="#606060"/>
<path d="M194.07 68.76H187.82V75.01H194.07V68.76Z" fill="#606060"/>
<path d="M187.81 68.76H181.56V75.01H187.81V68.76Z" fill="#606060"/>
<path d="M181.56 68.76H175.31V75.01H181.56V68.76Z" fill="#606060"/>
<path d="M175.31 68.76H169.06V75.01H175.31V68.76Z" fill="#606060"/>
<path d="M169.06 68.76H162.81V75.01H169.06V68.76Z" fill="#606060"/>
<path d="M162.81 68.76H156.56V75.01H162.81V68.76Z" fill="#606060"/>
<path d="M156.56 68.76H150.31V75.01H156.56V68.76Z" fill="#606060"/>
<path d="M150.31 68.76H144.06V75.01H150.31V68.76Z" fill="#606060"/>
<path d="M144.06 68.76H137.81V75.01H144.06V68.76Z" fill="#606060"/>
<path d="M137.81 68.76H131.56V75.01H137.81V68.76Z" fill="#606060"/>
<path d="M131.56 68.76H125.31V75.01H131.56V68.76Z" fill="#606060"/>
<path d="M125.31 68.76H119.06V75.01H125.31V68.76Z" fill="#606060"/>
<path d="M119.06 68.76H112.81V75.01H119.06V68.76Z" fill="#606060"/>
<path d="M112.8 68.76H106.55V75.01H112.8V68.76Z" fill="#606060"/>
<path d="M106.55 68.76H100.3V75.01H106.55V68.76Z" fill="#606060"/>
<path d="M100.3 68.76H94.05V75.01H100.3V68.76Z" fill="#606060"/>
<path d="M94.05 68.76H87.8V75.01H94.05V68.76Z" fill="#606060"/>
<path d="M87.8 68.76H81.55V75.01H87.8V68.76Z" fill="#606060"/>
<path d="M81.55 68.76H75.3V75.01H81.55V68.76Z" fill="#606060"/>
<path d="M75.3 68.76H69.05V75.01H75.3V68.76Z" fill="#606060"/>
<path d="M69.0501 68.76H62.8V75.01H69.0501V68.76Z" fill="#606060"/>
<path d="M62.8 68.76H56.55V75.01H62.8V68.76Z" fill="#606060"/>
<path d="M56.55 68.76H50.3V75.01H56.55V68.76Z" fill="#606060"/>
<path d="M50.3 68.76H44.05V75.01H50.3V68.76Z" fill="#606060"/>
<path d="M44.05 68.76H37.8V75.01H44.05V68.76Z" fill="#606060"/>
<path d="M37.79 68.76H31.54V75.01H37.79V68.76Z" fill="#606060"/>
<path d="M31.54 68.76H25.29V75.01H31.54V68.76Z" fill="#A5A5A5"/>
<path d="M25.29 68.76H19.04V75.01H25.29V68.76Z" fill="#808080"/>
<path d="M19.04 68.76H12.79V75.01H19.04V68.76Z" fill="#808080"/>
<path d="M12.79 68.76H6.54004V75.01H12.79V68.76Z" fill="#808080"/>
<path d="M6.54004 68.76H0.290039V75.01H6.54004V68.76Z" fill="#4C4C4C"/>
<path d="M281.58 75.01H275.33V81.26H281.58V75.01Z" fill="#4C4C4C"/>
<path d="M275.33 75.01H269.08V81.26H275.33V75.01Z" fill="#3D3D3D"/>
<path d="M269.08 75.01H262.83V81.26H269.08V75.01Z" fill="#3D3D3D"/>
<path d="M262.82 75.01H256.57V81.26H262.82V75.01Z" fill="#808080"/>
<path d="M256.57 75.01H250.32V81.26H256.57V75.01Z" fill="#606060"/>
<path d="M250.32 75.01H244.07V81.26H250.32V75.01Z" fill="#606060"/>
<path d="M244.07 75.01H237.82V81.26H244.07V75.01Z" fill="#606060"/>
<path d="M237.82 75.01H231.57V81.26H237.82V75.01Z" fill="#606060"/>
<path d="M231.57 75.01H225.32V81.26H231.57V75.01Z" fill="#606060"/>
<path d="M225.32 75.01H219.07V81.26H225.32V75.01Z" fill="#606060"/>
<path d="M219.07 75.01H212.82V81.26H219.07V75.01Z" fill="#606060"/>
<path d="M212.82 75.01H206.57V81.26H212.82V75.01Z" fill="#606060"/>
<path d="M206.57 75.01H200.32V81.26H206.57V75.01Z" fill="#606060"/>
<path d="M200.32 75.01H194.07V81.26H200.32V75.01Z" fill="#606060"/>
<path d="M194.07 75.01H187.82V81.26H194.07V75.01Z" fill="#606060"/>
<path d="M187.81 75.01H181.56V81.26H187.81V75.01Z" fill="#606060"/>
<path d="M181.56 75.01H175.31V81.26H181.56V75.01Z" fill="#606060"/>
<path d="M175.31 75.01H169.06V81.26H175.31V75.01Z" fill="#606060"/>
<path d="M169.06 75.01H162.81V81.26H169.06V75.01Z" fill="#606060"/>
<path d="M162.81 75.01H156.56V81.26H162.81V75.01Z" fill="#606060"/>
<path d="M156.56 75.01H150.31V81.26H156.56V75.01Z" fill="#606060"/>
<path d="M150.31 75.01H144.06V81.26H150.31V75.01Z" fill="#606060"/>
<path d="M144.06 75.01H137.81V81.26H144.06V75.01Z" fill="#606060"/>
<path d="M137.81 75.01H131.56V81.26H137.81V75.01Z" fill="#606060"/>
<path d="M131.56 75.01H125.31V81.26H131.56V75.01Z" fill="#606060"/>
<path d="M125.31 75.01H119.06V81.26H125.31V75.01Z" fill="#606060"/>
<path d="M119.06 75.01H112.81V81.26H119.06V75.01Z" fill="#606060"/>
<path d="M112.8 75.01H106.55V81.26H112.8V75.01Z" fill="#606060"/>
<path d="M106.55 75.01H100.3V81.26H106.55V75.01Z" fill="#606060"/>
<path d="M100.3 75.01H94.05V81.26H100.3V75.01Z" fill="#606060"/>
<path d="M94.05 75.01H87.8V81.26H94.05V75.01Z" fill="#606060"/>
<path d="M87.8 75.01H81.55V81.26H87.8V75.01Z" fill="#606060"/>
<path d="M81.55 75.01H75.3V81.26H81.55V75.01Z" fill="#606060"/>
<path d="M75.3 75.01H69.05V81.26H75.3V75.01Z" fill="#606060"/>
<path d="M69.0501 75.01H62.8V81.26H69.0501V75.01Z" fill="#606060"/>
<path d="M62.8 75.01H56.55V81.26H62.8V75.01Z" fill="#606060"/>
<path d="M56.55 75.01H50.3V81.26H56.55V75.01Z" fill="#606060"/>
<path d="M50.3 75.01H44.05V81.26H50.3V75.01Z" fill="#606060"/>
<path d="M44.05 75.01H37.8V81.26H44.05V75.01Z" fill="#606060"/>
<path d="M37.79 75.01H31.54V81.26H37.79V75.01Z" fill="#606060"/>
<path d="M31.54 75.01H25.29V81.26H31.54V75.01Z" fill="#606060"/>
<path d="M25.29 75.01H19.04V81.26H25.29V75.01Z" fill="#A5A5A5"/>
<path d="M19.04 75.01H12.79V81.26H19.04V75.01Z" fill="#808080"/>
<path d="M12.79 75.01H6.54004V81.26H12.79V75.01Z" fill="#808080"/>
<path d="M6.54004 75.01H0.290039V81.26H6.54004V75.01Z" fill="#4C4C4C"/>
<path d="M281.58 81.26H275.33V87.51H281.58V81.26Z" fill="#4C4C4C"/>
<path d="M275.33 81.26H269.08V87.51H275.33V81.26Z" fill="#3D3D3D"/>
<path d="M269.08 81.26H262.83V87.51H269.08V81.26Z" fill="#808080"/>
<path d="M262.82 81.26H256.57V87.51H262.82V81.26Z" fill="#606060"/>
<path d="M256.57 81.26H250.32V87.51H256.57V81.26Z" fill="#606060"/>
<path d="M250.32 81.26H244.07V87.51H250.32V81.26Z" fill="#606060"/>
<path d="M244.07 81.26H237.82V87.51H244.07V81.26Z" fill="#606060"/>
<path d="M237.82 81.26H231.57V87.51H237.82V81.26Z" fill="#606060"/>
<path d="M231.57 81.26H225.32V87.51H231.57V81.26Z" fill="#606060"/>
<path d="M225.32 81.26H219.07V87.51H225.32V81.26Z" fill="#606060"/>
<path d="M219.07 81.26H212.82V87.51H219.07V81.26Z" fill="#606060"/>
<path d="M212.82 81.26H206.57V87.51H212.82V81.26Z" fill="#606060"/>
<path d="M206.57 81.26H200.32V87.51H206.57V81.26Z" fill="#606060"/>
<path d="M200.32 81.26H194.07V87.51H200.32V81.26Z" fill="#606060"/>
<path d="M194.07 81.26H187.82V87.51H194.07V81.26Z" fill="#606060"/>
<path d="M187.81 81.26H181.56V87.51H187.81V81.26Z" fill="#606060"/>
<path d="M181.56 81.26H175.31V87.51H181.56V81.26Z" fill="#606060"/>
<path d="M175.31 81.26H169.06V87.51H175.31V81.26Z" fill="#606060"/>
<path d="M169.06 81.26H162.81V87.51H169.06V81.26Z" fill="#606060"/>
<path d="M162.81 81.26H156.56V87.51H162.81V81.26Z" fill="#606060"/>
<path d="M156.56 81.26H150.31V87.51H156.56V81.26Z" fill="#606060"/>
<path d="M150.31 81.26H144.06V87.51H150.31V81.26Z" fill="#606060"/>
<path d="M144.06 81.26H137.81V87.51H144.06V81.26Z" fill="#606060"/>
<path d="M137.81 81.26H131.56V87.51H137.81V81.26Z" fill="#606060"/>
<path d="M131.56 81.26H125.31V87.51H131.56V81.26Z" fill="#606060"/>
<path d="M125.31 81.26H119.06V87.51H125.31V81.26Z" fill="#606060"/>
<path d="M119.06 81.26H112.81V87.51H119.06V81.26Z" fill="#606060"/>
<path d="M112.8 81.26H106.55V87.51H112.8V81.26Z" fill="#606060"/>
<path d="M106.55 81.26H100.3V87.51H106.55V81.26Z" fill="#606060"/>
<path d="M100.3 81.26H94.05V87.51H100.3V81.26Z" fill="#606060"/>
<path d="M94.05 81.26H87.8V87.51H94.05V81.26Z" fill="#606060"/>
<path d="M87.8 81.26H81.55V87.51H87.8V81.26Z" fill="#606060"/>
<path d="M81.55 81.26H75.3V87.51H81.55V81.26Z" fill="#606060"/>
<path d="M75.3 81.26H69.05V87.51H75.3V81.26Z" fill="#606060"/>
<path d="M69.0501 81.26H62.8V87.51H69.0501V81.26Z" fill="#606060"/>
<path d="M62.8 81.26H56.55V87.51H62.8V81.26Z" fill="#606060"/>
<path d="M56.55 81.26H50.3V87.51H56.55V81.26Z" fill="#606060"/>
<path d="M50.3 81.26H44.05V87.51H50.3V81.26Z" fill="#606060"/>
<path d="M44.05 81.26H37.8V87.51H44.05V81.26Z" fill="#606060"/>
<path d="M37.79 81.26H31.54V87.51H37.79V81.26Z" fill="#606060"/>
<path d="M31.54 81.26H25.29V87.51H31.54V81.26Z" fill="#606060"/>
<path d="M25.29 81.26H19.04V87.51H25.29V81.26Z" fill="#606060"/>
<path d="M19.04 81.26H12.79V87.51H19.04V81.26Z" fill="#A5A5A5"/>
<path d="M12.79 81.26H6.54004V87.51H12.79V81.26Z" fill="#808080"/>
<path d="M6.54004 81.26H0.290039V87.51H6.54004V81.26Z" fill="#4C4C4C"/>
<path d="M275.33 87.51H269.08V93.76H275.33V87.51Z" fill="#4C4C4C"/>
<path d="M269.08 87.51H262.83V93.76H269.08V87.51Z" fill="#606060"/>
<path d="M262.82 87.51H256.57V93.76H262.82V87.51Z" fill="#606060"/>
<path d="M256.57 87.51H250.32V93.76H256.57V87.51Z" fill="#606060"/>
<path d="M250.32 87.51H244.07V93.76H250.32V87.51Z" fill="#606060"/>
<path d="M244.07 87.51H237.82V93.76H244.07V87.51Z" fill="#606060"/>
<path d="M237.82 87.51H231.57V93.76H237.82V87.51Z" fill="#606060"/>
<path d="M231.57 87.51H225.32V93.76H231.57V87.51Z" fill="#606060"/>
<path d="M225.32 87.51H219.07V93.76H225.32V87.51Z" fill="#606060"/>
<path d="M219.07 87.51H212.82V93.76H219.07V87.51Z" fill="#606060"/>
<path d="M212.82 87.51H206.57V93.76H212.82V87.51Z" fill="#606060"/>
<path d="M206.57 87.51H200.32V93.76H206.57V87.51Z" fill="#606060"/>
<path d="M200.32 87.51H194.07V93.76H200.32V87.51Z" fill="#606060"/>
<path d="M194.07 87.51H187.82V93.76H194.07V87.51Z" fill="#606060"/>
<path d="M187.81 87.51H181.56V93.76H187.81V87.51Z" fill="#606060"/>
<path d="M181.56 87.51H175.31V93.76H181.56V87.51Z" fill="#606060"/>
<path d="M175.31 87.51H169.06V93.76H175.31V87.51Z" fill="#606060"/>
<path d="M169.06 87.51H162.81V93.76H169.06V87.51Z" fill="#606060"/>
<path d="M162.81 87.51H156.56V93.76H162.81V87.51Z" fill="#606060"/>
<path d="M156.56 87.51H150.31V93.76H156.56V87.51Z" fill="#606060"/>
<path d="M150.31 87.51H144.06V93.76H150.31V87.51Z" fill="#606060"/>
<path d="M144.06 87.51H137.81V93.76H144.06V87.51Z" fill="#606060"/>
<path d="M137.81 87.51H131.56V93.76H137.81V87.51Z" fill="#606060"/>
<path d="M131.56 87.51H125.31V93.76H131.56V87.51Z" fill="#606060"/>
<path d="M125.31 87.51H119.06V93.76H125.31V87.51Z" fill="#606060"/>
<path d="M119.06 87.51H112.81V93.76H119.06V87.51Z" fill="#606060"/>
<path d="M112.8 87.51H106.55V93.76H112.8V87.51Z" fill="#606060"/>
<path d="M106.55 87.51H100.3V93.76H106.55V87.51Z" fill="#606060"/>
<path d="M100.3 87.51H94.05V93.76H100.3V87.51Z" fill="#606060"/>
<path d="M94.05 87.51H87.8V93.76H94.05V87.51Z" fill="#606060"/>
<path d="M87.8 87.51H81.55V93.76H87.8V87.51Z" fill="#606060"/>
<path d="M81.55 87.51H75.3V93.76H81.55V87.51Z" fill="#606060"/>
<path d="M75.3 87.51H69.05V93.76H75.3V87.51Z" fill="#606060"/>
<path d="M69.0501 87.51H62.8V93.76H69.0501V87.51Z" fill="#606060"/>
<path d="M62.8 87.51H56.55V93.76H62.8V87.51Z" fill="#606060"/>
<path d="M56.55 87.51H50.3V93.76H56.55V87.51Z" fill="#606060"/>
<path d="M50.3 87.51H44.05V93.76H50.3V87.51Z" fill="#606060"/>
<path d="M44.05 87.51H37.8V93.76H44.05V87.51Z" fill="#606060"/>
<path d="M37.79 87.51H31.54V93.76H37.79V87.51Z" fill="#606060"/>
<path d="M31.54 87.51H25.29V93.76H31.54V87.51Z" fill="#606060"/>
<path d="M25.29 87.51H19.04V93.76H25.29V87.51Z" fill="#606060"/>
<path d="M19.04 87.51H12.79V93.76H19.04V87.51Z" fill="#606060"/>
<path d="M12.79 87.51H6.54004V93.76H12.79V87.51Z" fill="#4C4C4C"/>
<path d="M269.08 93.76H262.83V100.01H269.08V93.76Z" fill="#4C4C4C"/>
<path d="M262.82 93.76H256.57V100.01H262.82V93.76Z" fill="#4C4C4C"/>
<path d="M256.57 93.76H250.32V100.01H256.57V93.76Z" fill="#4C4C4C"/>
<path d="M250.32 93.76H244.07V100.01H250.32V93.76Z" fill="#4C4C4C"/>
<path d="M244.07 93.76H237.82V100.01H244.07V93.76Z" fill="#4C4C4C"/>
<path d="M237.82 93.76H231.57V100.01H237.82V93.76Z" fill="#4C4C4C"/>
<path d="M231.57 93.76H225.32V100.01H231.57V93.76Z" fill="#4C4C4C"/>
<path d="M225.32 93.76H219.07V100.01H225.32V93.76Z" fill="#4C4C4C"/>
<path d="M219.07 93.76H212.82V100.01H219.07V93.76Z" fill="#4C4C4C"/>
<path d="M212.82 93.76H206.57V100.01H212.82V93.76Z" fill="#4C4C4C"/>
<path d="M206.57 93.76H200.32V100.01H206.57V93.76Z" fill="#4C4C4C"/>
<path d="M200.32 93.76H194.07V100.01H200.32V93.76Z" fill="#4C4C4C"/>
<path d="M194.07 93.76H187.82V100.01H194.07V93.76Z" fill="#4C4C4C"/>
<path d="M187.81 93.76H181.56V100.01H187.81V93.76Z" fill="#4C4C4C"/>
<path d="M181.56 93.76H175.31V100.01H181.56V93.76Z" fill="#4C4C4C"/>
<path d="M175.31 93.76H169.06V100.01H175.31V93.76Z" fill="#4C4C4C"/>
<path d="M169.06 93.76H162.81V100.01H169.06V93.76Z" fill="#4C4C4C"/>
<path d="M162.81 93.76H156.56V100.01H162.81V93.76Z" fill="#4C4C4C"/>
<path d="M156.56 93.76H150.31V100.01H156.56V93.76Z" fill="#4C4C4C"/>
<path d="M150.31 93.76H144.06V100.01H150.31V93.76Z" fill="#4C4C4C"/>
<path d="M144.06 93.76H137.81V100.01H144.06V93.76Z" fill="#4C4C4C"/>
<path d="M137.81 93.76H131.56V100.01H137.81V93.76Z" fill="#4C4C4C"/>
<path d="M131.56 93.76H125.31V100.01H131.56V93.76Z" fill="#4C4C4C"/>
<path d="M125.31 93.76H119.06V100.01H125.31V93.76Z" fill="#4C4C4C"/>
<path d="M119.06 93.76H112.81V100.01H119.06V93.76Z" fill="#4C4C4C"/>
<path d="M112.8 93.76H106.55V100.01H112.8V93.76Z" fill="#4C4C4C"/>
<path d="M106.55 93.76H100.3V100.01H106.55V93.76Z" fill="#4C4C4C"/>
<path d="M100.3 93.76H94.05V100.01H100.3V93.76Z" fill="#4C4C4C"/>
<path d="M94.05 93.76H87.8V100.01H94.05V93.76Z" fill="#4C4C4C"/>
<path d="M87.8 93.76H81.55V100.01H87.8V93.76Z" fill="#4C4C4C"/>
<path d="M81.55 93.76H75.3V100.01H81.55V93.76Z" fill="#4C4C4C"/>
<path d="M75.3 93.76H69.05V100.01H75.3V93.76Z" fill="#4C4C4C"/>
<path d="M69.0501 93.76H62.8V100.01H69.0501V93.76Z" fill="#4C4C4C"/>
<path d="M62.8 93.76H56.55V100.01H62.8V93.76Z" fill="#4C4C4C"/>
<path d="M56.55 93.76H50.3V100.01H56.55V93.76Z" fill="#4C4C4C"/>
<path d="M50.3 93.76H44.05V100.01H50.3V93.76Z" fill="#4C4C4C"/>
<path d="M44.05 93.76H37.8V100.01H44.05V93.76Z" fill="#4C4C4C"/>
<path d="M37.79 93.76H31.54V100.01H37.79V93.76Z" fill="#4C4C4C"/>
<path d="M31.54 93.76H25.29V100.01H31.54V93.76Z" fill="#4C4C4C"/>
<path d="M25.29 93.76H19.04V100.01H25.29V93.76Z" fill="#4C4C4C"/>
<path d="M19.04 93.76H12.79V100.01H19.04V93.76Z" fill="#4C4C4C"/>
<path d="M79.98 46.88V43.76H76.86V40.64H83.11V43.76H92.49V34.38H79.98V31.26H76.86V25.01H79.98V21.89H95.61V25.01H98.73V28.13H92.48V25.01H83.1V31.26H95.6V34.38H98.72V43.76H95.6V46.88H79.97H79.98Z" fill="#E5E5E5"/>
<path d="M111.24 46.88V25H103.42V21.88H125.3V25H117.49V46.88H111.24Z" fill="#E5E5E5"/>
<path d="M130 46.88V28.13H133.12V25.01H136.25V21.89H145.63V25.01H148.75V28.13H151.87V46.88H145.62V37.5H136.24V46.88H129.99H130ZM145.63 34.38V28.13H142.5V25.01H139.38V28.13H136.26V34.38H145.64H145.63Z" fill="#E5E5E5"/>
<path d="M156.56 46.88V21.88H175.31V25H178.43V31.25H175.31V34.37H178.43V46.87H172.18V34.37H162.8V46.87H156.55L156.56 46.88ZM172.2 31.26V25.01H162.82V31.26H172.2Z" fill="#E5E5E5"/>
<path d="M190.95 46.88V25H183.13V21.88H205.01V25H197.2V46.88H190.95Z" fill="#E5E5E5"/>
<path d="M79.98 53.13V50.01H76.86V46.89H83.11V50.01H92.49V40.63H79.98V37.51H76.86V31.26H79.98V28.14H95.61V31.26H98.73V34.38H92.48V31.26H83.1V37.51H95.6V40.63H98.72V50.01H95.6V53.13H79.97H79.98Z" fill="#808080"/>
<path d="M111.24 53.13V31.25H103.42V28.13H125.3V31.25H117.49V53.13H111.24Z" fill="#808080"/>
<path d="M130 53.13V34.38H133.12V31.26H136.25V28.14H145.63V31.26H148.75V34.38H151.87V53.13H145.62V43.75H136.24V53.13H129.99H130ZM145.63 40.63V34.38H142.5V31.26H139.38V34.38H136.26V40.63H145.64H145.63Z" fill="#808080"/>
<path d="M156.56 53.13V28.13H175.31V31.25H178.43V37.5H175.31V40.62H178.43V53.12H172.18V40.62H162.8V53.12H156.55L156.56 53.13ZM172.2 37.51V31.26H162.82V37.51H172.2Z" fill="#808080"/>
<path d="M190.95 53.13V31.25H183.13V28.13H205.01V31.25H197.2V53.13H190.95Z" fill="#808080"/>
<path d="M79.98 50.01V46.89H76.86V43.77H83.11V46.89H92.49V37.51H79.98V34.39H76.86V28.14H79.98V25.02H95.61V28.14H98.73V31.26H92.48V28.14H83.1V34.39H95.6V37.51H98.72V46.89H95.6V50.01H79.97H79.98Z" fill="#282828"/>
<path d="M111.24 50.01V28.13H103.42V25.01H125.3V28.13H117.49V50.01H111.24Z" fill="#282828"/>
<path d="M130 50.01V31.26H133.12V28.14H136.25V25.02H145.63V28.14H148.75V31.26H151.87V50.01H145.62V40.63H136.24V50.01H129.99H130ZM145.63 37.51V31.26H142.5V28.14H139.38V31.26H136.26V37.51H145.64H145.63Z" fill="#282828"/>
<path d="M156.56 50.01V25.01H175.31V28.13H178.43V34.38H175.31V37.5H178.43V50H172.18V37.5H162.8V50H156.55L156.56 50.01ZM172.2 34.38V28.13H162.82V34.38H172.2Z" fill="#282828"/>
<path d="M190.95 50.01V28.13H183.13V25.01H205.01V28.13H197.2V50.01H190.95Z" fill="#282828"/>
</g>
<defs>
<clipPath id="clip0_3_11156">
<rect width="281.29" height="100.01" fill="white" transform="translate(0.290039)"/>
</clipPath>
</defs>
</svg>
