<svg width="282" height="101" viewBox="0 0 282 101" fill="none" xmlns="http://www.w3.org/2000/svg">
<g clip-path="url(#clip0_3_51102)">
<path d="M12.79 0.0100098V6.26001H6.54004V12.51H0.290039V87.52H6.54004V93.77H12.79V100.02H37.79V100.01H37.8V100.02H112.8V100.01H112.81V100.02H187.81V100.01H187.82V100.02H262.82V100.01H262.83V100.02H269.08V93.77H275.33V87.52H281.58V37.52H281.29V37.51H281.58V12.51H275.33V6.26001H269.08V0.0100098H12.79Z" fill="#4C4C4C"/>
<path d="M269.08 0.0100098H262.83V6.26001H269.08V0.0100098Z" fill="#4C4C4C"/>
<path d="M262.82 0.0100098H256.57V6.26001H262.82V0.0100098Z" fill="#4C4C4C"/>
<path d="M256.57 0.0100098H250.32V6.26001H256.57V0.0100098Z" fill="#4C4C4C"/>
<path d="M250.32 0.0100098H244.07V6.26001H250.32V0.0100098Z" fill="#4C4C4C"/>
<path d="M244.07 0.0100098H237.82V6.26001H244.07V0.0100098Z" fill="#4C4C4C"/>
<path d="M237.82 0.0100098H231.57V6.26001H237.82V0.0100098Z" fill="#4C4C4C"/>
<path d="M231.57 0.0100098H225.32V6.26001H231.57V0.0100098Z" fill="#4C4C4C"/>
<path d="M225.32 0.0100098H219.07V6.26001H225.32V0.0100098Z" fill="#4C4C4C"/>
<path d="M219.07 0.0100098H212.82V6.26001H219.07V0.0100098Z" fill="#4C4C4C"/>
<path d="M212.82 0.0100098H206.57V6.26001H212.82V0.0100098Z" fill="#4C4C4C"/>
<path d="M206.57 0.0100098H200.32V6.26001H206.57V0.0100098Z" fill="#4C4C4C"/>
<path d="M200.32 0.0100098H194.07V6.26001H200.32V0.0100098Z" fill="#4C4C4C"/>
<path d="M194.07 0.0100098H187.82V6.26001H194.07V0.0100098Z" fill="#4C4C4C"/>
<path d="M187.81 0.0100098H181.56V6.26001H187.81V0.0100098Z" fill="#4C4C4C"/>
<path d="M181.56 0.0100098H175.31V6.26001H181.56V0.0100098Z" fill="#4C4C4C"/>
<path d="M175.31 0.0100098H169.06V6.26001H175.31V0.0100098Z" fill="#4C4C4C"/>
<path d="M169.06 0.0100098H162.81V6.26001H169.06V0.0100098Z" fill="#4C4C4C"/>
<path d="M162.81 0.0100098H156.56V6.26001H162.81V0.0100098Z" fill="#4C4C4C"/>
<path d="M156.56 0.0100098H150.31V6.26001H156.56V0.0100098Z" fill="#4C4C4C"/>
<path d="M150.31 0.0100098H144.06V6.26001H150.31V0.0100098Z" fill="#4C4C4C"/>
<path d="M144.06 0.0100098H137.81V6.26001H144.06V0.0100098Z" fill="#4C4C4C"/>
<path d="M137.81 0.0100098H131.56V6.26001H137.81V0.0100098Z" fill="#4C4C4C"/>
<path d="M131.56 0.0100098H125.31V6.26001H131.56V0.0100098Z" fill="#4C4C4C"/>
<path d="M125.31 0.0100098H119.06V6.26001H125.31V0.0100098Z" fill="#4C4C4C"/>
<path d="M119.06 0.0100098H112.81V6.26001H119.06V0.0100098Z" fill="#4C4C4C"/>
<path d="M112.8 0.0100098H106.55V6.26001H112.8V0.0100098Z" fill="#4C4C4C"/>
<path d="M106.55 0.0100098H100.3V6.26001H106.55V0.0100098Z" fill="#4C4C4C"/>
<path d="M100.3 0.0100098H94.05V6.26001H100.3V0.0100098Z" fill="#4C4C4C"/>
<path d="M94.05 0.0100098H87.8V6.26001H94.05V0.0100098Z" fill="#4C4C4C"/>
<path d="M87.8 0.0100098H81.55V6.26001H87.8V0.0100098Z" fill="#4C4C4C"/>
<path d="M81.55 0.0100098H75.3V6.26001H81.55V0.0100098Z" fill="#4C4C4C"/>
<path d="M75.3 0.0100098H69.05V6.26001H75.3V0.0100098Z" fill="#4C4C4C"/>
<path d="M69.0501 0.0100098H62.8V6.26001H69.0501V0.0100098Z" fill="#4C4C4C"/>
<path d="M62.8 0.0100098H56.55V6.26001H62.8V0.0100098Z" fill="#4C4C4C"/>
<path d="M56.55 0.0100098H50.3V6.26001H56.55V0.0100098Z" fill="#4C4C4C"/>
<path d="M50.3 0.0100098H44.05V6.26001H50.3V0.0100098Z" fill="#4C4C4C"/>
<path d="M44.05 0.0100098H37.8V6.26001H44.05V0.0100098Z" fill="#4C4C4C"/>
<path d="M37.79 0.0100098H31.54V6.26001H37.79V0.0100098Z" fill="#4C4C4C"/>
<path d="M31.54 0.0100098H25.29V6.26001H31.54V0.0100098Z" fill="#4C4C4C"/>
<path d="M25.29 0.0100098H19.04V6.26001H25.29V0.0100098Z" fill="#4C4C4C"/>
<path d="M19.04 0.0100098H12.79V6.26001H19.04V0.0100098Z" fill="#4C4C4C"/>
<path d="M275.33 6.26001H269.08V12.51H275.33V6.26001Z" fill="#4C4C4C"/>
<path d="M269.08 6.26001H262.83V12.51H269.08V6.26001Z" fill="#3D3D3D"/>
<path d="M262.82 6.26001H256.57V12.51H262.82V6.26001Z" fill="#3D3D3D"/>
<path d="M256.57 6.26001H250.32V12.51H256.57V6.26001Z" fill="#3D3D3D"/>
<path d="M250.32 6.26001H244.07V12.51H250.32V6.26001Z" fill="#3D3D3D"/>
<path d="M244.07 6.26001H237.82V12.51H244.07V6.26001Z" fill="#D6D6D6"/>
<path d="M237.82 6.26001H231.57V12.51H237.82V6.26001Z" fill="#A5A5A5"/>
<path d="M231.57 6.26001H225.32V12.51H231.57V6.26001Z" fill="#A5A5A5"/>
<path d="M225.32 6.26001H219.07V12.51H225.32V6.26001Z" fill="#A5A5A5"/>
<path d="M219.07 6.26001H212.82V12.51H219.07V6.26001Z" fill="#A5A5A5"/>
<path d="M212.82 6.26001H206.57V12.51H212.82V6.26001Z" fill="#A5A5A5"/>
<path d="M206.57 6.26001H200.32V12.51H206.57V6.26001Z" fill="#A5A5A5"/>
<path d="M200.32 6.26001H194.07V12.51H200.32V6.26001Z" fill="#A5A5A5"/>
<path d="M194.07 6.26001H187.82V12.51H194.07V6.26001Z" fill="#A5A5A5"/>
<path d="M187.81 6.26001H181.56V12.51H187.81V6.26001Z" fill="#A5A5A5"/>
<path d="M181.56 6.26001H175.31V12.51H181.56V6.26001Z" fill="#A5A5A5"/>
<path d="M175.31 6.26001H169.06V12.51H175.31V6.26001Z" fill="#A5A5A5"/>
<path d="M169.06 6.26001H162.81V12.51H169.06V6.26001Z" fill="#A5A5A5"/>
<path d="M162.81 6.26001H156.56V12.51H162.81V6.26001Z" fill="#A5A5A5"/>
<path d="M156.56 6.26001H150.31V12.51H156.56V6.26001Z" fill="#D6D6D6"/>
<path d="M150.31 6.26001H144.06V12.51H150.31V6.26001Z" fill="#D6D6D6"/>
<path d="M144.06 6.26001H137.81V12.51H144.06V6.26001Z" fill="#D6D6D6"/>
<path d="M137.81 6.26001H131.56V12.51H137.81V6.26001Z" fill="#A5A5A5"/>
<path d="M131.56 6.26001H125.31V12.51H131.56V6.26001Z" fill="#A5A5A5"/>
<path d="M125.31 6.26001H119.06V12.51H125.31V6.26001Z" fill="#A5A5A5"/>
<path d="M119.06 6.26001H112.81V12.51H119.06V6.26001Z" fill="#D6D6D6"/>
<path d="M112.8 6.26001H106.55V12.51H112.8V6.26001Z" fill="#A5A5A5"/>
<path d="M106.55 6.26001H100.3V12.51H106.55V6.26001Z" fill="#A5A5A5"/>
<path d="M100.3 6.26001H94.05V12.51H100.3V6.26001Z" fill="#A5A5A5"/>
<path d="M94.05 6.26001H87.8V12.51H94.05V6.26001Z" fill="#A5A5A5"/>
<path d="M87.8 6.26001H81.55V12.51H87.8V6.26001Z" fill="#A5A5A5"/>
<path d="M81.55 6.26001H75.3V12.51H81.55V6.26001Z" fill="#A5A5A5"/>
<path d="M75.3 6.26001H69.05V12.51H75.3V6.26001Z" fill="#A5A5A5"/>
<path d="M69.0501 6.26001H62.8V12.51H69.0501V6.26001Z" fill="#A5A5A5"/>
<path d="M62.8 6.26001H56.55V12.51H62.8V6.26001Z" fill="#A5A5A5"/>
<path d="M56.55 6.26001H50.3V12.51H56.55V6.26001Z" fill="#A5A5A5"/>
<path d="M50.3 6.26001H44.05V12.51H50.3V6.26001Z" fill="#A5A5A5"/>
<path d="M44.05 6.26001H37.8V12.51H44.05V6.26001Z" fill="#D6D6D6"/>
<path d="M37.79 6.26001H31.54V12.51H37.79V6.26001Z" fill="#808080"/>
<path d="M31.54 6.26001H25.29V12.51H31.54V6.26001Z" fill="#808080"/>
<path d="M25.29 6.26001H19.04V12.51H25.29V6.26001Z" fill="#808080"/>
<path d="M19.04 6.26001H12.79V12.51H19.04V6.26001Z" fill="#808080"/>
<path d="M12.79 6.26001H6.54004V12.51H12.79V6.26001Z" fill="#4C4C4C"/>
<path d="M281.58 12.51H275.33V18.76H281.58V12.51Z" fill="#4C4C4C"/>
<path d="M275.33 12.51H269.08V18.76H275.33V12.51Z" fill="#3D3D3D"/>
<path d="M269.08 12.51H262.83V18.76H269.08V12.51Z" fill="#3D3D3D"/>
<path d="M262.82 12.51H256.57V18.76H262.82V12.51Z" fill="#3D3D3D"/>
<path d="M256.57 12.51H250.32V18.76H256.57V12.51Z" fill="#3D3D3D"/>
<path d="M250.32 12.51H244.07V18.76H250.32V12.51Z" fill="#D6D6D6"/>
<path d="M244.07 12.51H237.82V18.76H244.07V12.51Z" fill="#A5A5A5"/>
<path d="M237.82 12.51H231.57V18.76H237.82V12.51Z" fill="#A5A5A5"/>
<path d="M231.57 12.51H225.32V18.76H231.57V12.51Z" fill="#A5A5A5"/>
<path d="M225.32 12.51H219.07V18.76H225.32V12.51Z" fill="#A5A5A5"/>
<path d="M219.07 12.51H212.82V18.76H219.07V12.51Z" fill="#A5A5A5"/>
<path d="M212.82 12.51H206.57V18.76H212.82V12.51Z" fill="#A5A5A5"/>
<path d="M206.57 12.51H200.32V18.76H206.57V12.51Z" fill="#A5A5A5"/>
<path d="M200.32 12.51H194.07V18.76H200.32V12.51Z" fill="#A5A5A5"/>
<path d="M194.07 12.51H187.82V18.76H194.07V12.51Z" fill="#A5A5A5"/>
<path d="M187.81 12.51H181.56V18.76H187.81V12.51Z" fill="#A5A5A5"/>
<path d="M181.56 12.51H175.31V18.76H181.56V12.51Z" fill="#A5A5A5"/>
<path d="M175.31 12.51H169.06V18.76H175.31V12.51Z" fill="#A5A5A5"/>
<path d="M169.06 12.51H162.81V18.76H169.06V12.51Z" fill="#A5A5A5"/>
<path d="M162.81 12.51H156.56V18.76H162.81V12.51Z" fill="#D6D6D6"/>
<path d="M156.56 12.51H150.31V18.76H156.56V12.51Z" fill="#D6D6D6"/>
<path d="M150.31 12.51H144.06V18.76H150.31V12.51Z" fill="#D6D6D6"/>
<path d="M144.06 12.51H137.81V18.76H144.06V12.51Z" fill="#A5A5A5"/>
<path d="M137.81 12.51H131.56V18.76H137.81V12.51Z" fill="#A5A5A5"/>
<path d="M131.56 12.51H125.31V18.76H131.56V12.51Z" fill="#A5A5A5"/>
<path d="M125.31 12.51H119.06V18.76H125.31V12.51Z" fill="#D6D6D6"/>
<path d="M119.06 12.51H112.81V18.76H119.06V12.51Z" fill="#A5A5A5"/>
<path d="M112.8 12.51H106.55V18.76H112.8V12.51Z" fill="#A5A5A5"/>
<path d="M106.55 12.51H100.3V18.76H106.55V12.51Z" fill="#A5A5A5"/>
<path d="M100.3 12.51H94.05V18.76H100.3V12.51Z" fill="#A5A5A5"/>
<path d="M94.05 12.51H87.8V18.76H94.05V12.51Z" fill="#A5A5A5"/>
<path d="M87.8 12.51H81.55V18.76H87.8V12.51Z" fill="#A5A5A5"/>
<path d="M81.55 12.51H75.3V18.76H81.55V12.51Z" fill="#A5A5A5"/>
<path d="M75.3 12.51H69.05V18.76H75.3V12.51Z" fill="#A5A5A5"/>
<path d="M69.0501 12.51H62.8V18.76H69.0501V12.51Z" fill="#A5A5A5"/>
<path d="M62.8 12.51H56.55V18.76H62.8V12.51Z" fill="#A5A5A5"/>
<path d="M56.55 12.51H50.3V18.76H56.55V12.51Z" fill="#A5A5A5"/>
<path d="M50.3 12.51H44.05V18.76H50.3V12.51Z" fill="#A5A5A5"/>
<path d="M44.05 12.51H37.8V18.76H44.05V12.51Z" fill="#A5A5A5"/>
<path d="M37.79 12.51H31.54V18.76H37.79V12.51Z" fill="#D6D6D6"/>
<path d="M31.54 12.51H25.29V18.76H31.54V12.51Z" fill="#808080"/>
<path d="M25.29 12.51H19.04V18.76H25.29V12.51Z" fill="#808080"/>
<path d="M19.04 12.51H12.79V18.76H19.04V12.51Z" fill="#808080"/>
<path d="M12.79 12.51H6.54004V18.76H12.79V12.51Z" fill="#808080"/>
<path d="M6.54004 12.51H0.290039V18.76H6.54004V12.51Z" fill="#4C4C4C"/>
<path d="M281.58 18.76H275.33V25.01H281.58V18.76Z" fill="#4C4C4C"/>
<path d="M275.33 18.76H269.08V25.01H275.33V18.76Z" fill="#3D3D3D"/>
<path d="M269.08 18.76H262.83V25.01H269.08V18.76Z" fill="#3D3D3D"/>
<path d="M262.82 18.76H256.57V25.01H262.82V18.76Z" fill="#3D3D3D"/>
<path d="M256.57 18.76H250.32V25.01H256.57V18.76Z" fill="#3D3D3D"/>
<path d="M250.32 18.76H244.07V25.01H250.32V18.76Z" fill="#A5A5A5"/>
<path d="M244.07 18.76H237.82V25.01H244.07V18.76Z" fill="#A5A5A5"/>
<path d="M237.82 18.76H231.57V25.01H237.82V18.76Z" fill="#A5A5A5"/>
<path d="M231.57 18.76H225.32V25.01H231.57V18.76Z" fill="#A5A5A5"/>
<path d="M225.32 18.76H219.07V25.01H225.32V18.76Z" fill="#A5A5A5"/>
<path d="M219.07 18.76H212.82V25.01H219.07V18.76Z" fill="#A5A5A5"/>
<path d="M212.82 18.76H206.57V25.01H212.82V18.76Z" fill="#A5A5A5"/>
<path d="M206.57 18.76H200.32V25.01H206.57V18.76Z" fill="#A5A5A5"/>
<path d="M200.32 18.76H194.07V25.01H200.32V18.76Z" fill="#A5A5A5"/>
<path d="M194.07 18.76H187.82V25.01H194.07V18.76Z" fill="#A5A5A5"/>
<path d="M187.81 18.76H181.56V25.01H187.81V18.76Z" fill="#A5A5A5"/>
<path d="M181.56 18.76H175.31V25.01H181.56V18.76Z" fill="#A5A5A5"/>
<path d="M175.31 18.76H169.06V25.01H175.31V18.76Z" fill="#A5A5A5"/>
<path d="M169.06 18.76H162.81V25.01H169.06V18.76Z" fill="#D6D6D6"/>
<path d="M162.81 18.76H156.56V25.01H162.81V18.76Z" fill="#D6D6D6"/>
<path d="M156.56 18.76H150.31V25.01H156.56V18.76Z" fill="#D6D6D6"/>
<path d="M150.31 18.76H144.06V25.01H150.31V18.76Z" fill="#A5A5A5"/>
<path d="M144.06 18.76H137.81V25.01H144.06V18.76Z" fill="#A5A5A5"/>
<path d="M137.81 18.76H131.56V25.01H137.81V18.76Z" fill="#A5A5A5"/>
<path d="M131.56 18.76H125.31V25.01H131.56V18.76Z" fill="#D6D6D6"/>
<path d="M125.31 18.76H119.06V25.01H125.31V18.76Z" fill="#A5A5A5"/>
<path d="M119.06 18.76H112.81V25.01H119.06V18.76Z" fill="#A5A5A5"/>
<path d="M112.8 18.76H106.55V25.01H112.8V18.76Z" fill="#A5A5A5"/>
<path d="M106.55 18.76H100.3V25.01H106.55V18.76Z" fill="#A5A5A5"/>
<path d="M100.3 18.76H94.05V25.01H100.3V18.76Z" fill="#A5A5A5"/>
<path d="M94.05 18.76H87.8V25.01H94.05V18.76Z" fill="#A5A5A5"/>
<path d="M87.8 18.76H81.55V25.01H87.8V18.76Z" fill="#A5A5A5"/>
<path d="M81.55 18.76H75.3V25.01H81.55V18.76Z" fill="#A5A5A5"/>
<path d="M75.3 18.76H69.05V25.01H75.3V18.76Z" fill="#A5A5A5"/>
<path d="M69.0501 18.76H62.8V25.01H69.0501V18.76Z" fill="#A5A5A5"/>
<path d="M62.8 18.76H56.55V25.01H62.8V18.76Z" fill="#A5A5A5"/>
<path d="M56.55 18.76H50.3V25.01H56.55V18.76Z" fill="#A5A5A5"/>
<path d="M50.3 18.76H44.05V25.01H50.3V18.76Z" fill="#A5A5A5"/>
<path d="M44.05 18.76H37.8V25.01H44.05V18.76Z" fill="#A5A5A5"/>
<path d="M37.79 18.76H31.54V25.01H37.79V18.76Z" fill="#A5A5A5"/>
<path d="M31.54 18.76H25.29V25.01H31.54V18.76Z" fill="#808080"/>
<path d="M25.29 18.76H19.04V25.01H25.29V18.76Z" fill="#808080"/>
<path d="M19.04 18.76H12.79V25.01H19.04V18.76Z" fill="#808080"/>
<path d="M12.79 18.76H6.54004V25.01H12.79V18.76Z" fill="#808080"/>
<path d="M6.54004 18.76H0.290039V25.01H6.54004V18.76Z" fill="#4C4C4C"/>
<path d="M281.58 25.01H275.33V31.26H281.58V25.01Z" fill="#4C4C4C"/>
<path d="M275.33 25.01H269.08V31.26H275.33V25.01Z" fill="#3D3D3D"/>
<path d="M269.08 25.01H262.83V31.26H269.08V25.01Z" fill="#3D3D3D"/>
<path d="M262.82 25.01H256.57V31.26H262.82V25.01Z" fill="#3D3D3D"/>
<path d="M256.57 25.01H250.32V31.26H256.57V25.01Z" fill="#3D3D3D"/>
<path d="M250.32 25.01H244.07V31.26H250.32V25.01Z" fill="#A5A5A5"/>
<path d="M244.07 25.01H237.82V31.26H244.07V25.01Z" fill="#A5A5A5"/>
<path d="M237.82 25.01H231.57V31.26H237.82V25.01Z" fill="#A5A5A5"/>
<path d="M231.57 25.01H225.32V31.26H231.57V25.01Z" fill="#A5A5A5"/>
<path d="M225.32 25.01H219.07V31.26H225.32V25.01Z" fill="#A5A5A5"/>
<path d="M219.07 25.01H212.82V31.26H219.07V25.01Z" fill="#A5A5A5"/>
<path d="M212.82 25.01H206.57V31.26H212.82V25.01Z" fill="#A5A5A5"/>
<path d="M206.57 25.01H200.32V31.26H206.57V25.01Z" fill="#A5A5A5"/>
<path d="M200.32 25.01H194.07V31.26H200.32V25.01Z" fill="#A5A5A5"/>
<path d="M194.07 25.01H187.82V31.26H194.07V25.01Z" fill="#A5A5A5"/>
<path d="M187.81 25.01H181.56V31.26H187.81V25.01Z" fill="#A5A5A5"/>
<path d="M181.56 25.01H175.31V31.26H181.56V25.01Z" fill="#A5A5A5"/>
<path d="M175.31 25.01H169.06V31.26H175.31V25.01Z" fill="#D6D6D6"/>
<path d="M169.06 25.01H162.81V31.26H169.06V25.01Z" fill="#D6D6D6"/>
<path d="M162.81 25.01H156.56V31.26H162.81V25.01Z" fill="#D6D6D6"/>
<path d="M156.56 25.01H150.31V31.26H156.56V25.01Z" fill="#A5A5A5"/>
<path d="M150.31 25.01H144.06V31.26H150.31V25.01Z" fill="#A5A5A5"/>
<path d="M144.06 25.01H137.81V31.26H144.06V25.01Z" fill="#A5A5A5"/>
<path d="M137.81 25.01H131.56V31.26H137.81V25.01Z" fill="#D6D6D6"/>
<path d="M131.56 25.01H125.31V31.26H131.56V25.01Z" fill="#A5A5A5"/>
<path d="M125.31 25.01H119.06V31.26H125.31V25.01Z" fill="#A5A5A5"/>
<path d="M119.06 25.01H112.81V31.26H119.06V25.01Z" fill="#A5A5A5"/>
<path d="M112.8 25.01H106.55V31.26H112.8V25.01Z" fill="#A5A5A5"/>
<path d="M106.55 25.01H100.3V31.26H106.55V25.01Z" fill="#A5A5A5"/>
<path d="M100.3 25.01H94.05V31.26H100.3V25.01Z" fill="#A5A5A5"/>
<path d="M94.05 25.01H87.8V31.26H94.05V25.01Z" fill="#A5A5A5"/>
<path d="M87.8 25.01H81.55V31.26H87.8V25.01Z" fill="#A5A5A5"/>
<path d="M81.55 25.01H75.3V31.26H81.55V25.01Z" fill="#A5A5A5"/>
<path d="M75.3 25.01H69.05V31.26H75.3V25.01Z" fill="#A5A5A5"/>
<path d="M69.0501 25.01H62.8V31.26H69.0501V25.01Z" fill="#A5A5A5"/>
<path d="M62.8 25.01H56.55V31.26H62.8V25.01Z" fill="#A5A5A5"/>
<path d="M56.55 25.01H50.3V31.26H56.55V25.01Z" fill="#A5A5A5"/>
<path d="M50.3 25.01H44.05V31.26H50.3V25.01Z" fill="#A5A5A5"/>
<path d="M44.05 25.01H37.8V31.26H44.05V25.01Z" fill="#A5A5A5"/>
<path d="M37.79 25.01H31.54V31.26H37.79V25.01Z" fill="#A5A5A5"/>
<path d="M31.54 25.01H25.29V31.26H31.54V25.01Z" fill="#808080"/>
<path d="M25.29 25.01H19.04V31.26H25.29V25.01Z" fill="#808080"/>
<path d="M19.04 25.01H12.79V31.26H19.04V25.01Z" fill="#808080"/>
<path d="M12.79 25.01H6.54004V31.26H12.79V25.01Z" fill="#808080"/>
<path d="M6.54004 25.01H0.290039V31.26H6.54004V25.01Z" fill="#4C4C4C"/>
<path d="M281.58 31.26H275.33V37.51H281.58V31.26Z" fill="#4C4C4C"/>
<path d="M275.33 31.26H269.08V37.51H275.33V31.26Z" fill="#3D3D3D"/>
<path d="M269.08 31.26H262.83V37.51H269.08V31.26Z" fill="#3D3D3D"/>
<path d="M262.82 31.26H256.57V37.51H262.82V31.26Z" fill="#3D3D3D"/>
<path d="M256.57 31.26H250.32V37.51H256.57V31.26Z" fill="#3D3D3D"/>
<path d="M250.32 31.26H244.07V37.51H250.32V31.26Z" fill="#A5A5A5"/>
<path d="M244.07 31.26H237.82V37.51H244.07V31.26Z" fill="#A5A5A5"/>
<path d="M237.82 31.26H231.57V37.51H237.82V31.26Z" fill="#A5A5A5"/>
<path d="M231.57 31.26H225.32V37.51H231.57V31.26Z" fill="#A5A5A5"/>
<path d="M225.32 31.26H219.07V37.51H225.32V31.26Z" fill="#A5A5A5"/>
<path d="M219.07 31.26H212.82V37.51H219.07V31.26Z" fill="#A5A5A5"/>
<path d="M212.82 31.26H206.57V37.51H212.82V31.26Z" fill="#A5A5A5"/>
<path d="M206.57 31.26H200.32V37.51H206.57V31.26Z" fill="#A5A5A5"/>
<path d="M200.32 31.26H194.07V37.51H200.32V31.26Z" fill="#A5A5A5"/>
<path d="M194.07 31.26H187.82V37.51H194.07V31.26Z" fill="#A5A5A5"/>
<path d="M187.81 31.26H181.56V37.51H187.81V31.26Z" fill="#A5A5A5"/>
<path d="M181.56 31.26H175.31V37.51H181.56V31.26Z" fill="#D6D6D6"/>
<path d="M175.31 31.26H169.06V37.51H175.31V31.26Z" fill="#D6D6D6"/>
<path d="M169.06 31.26H162.81V37.51H169.06V31.26Z" fill="#D6D6D6"/>
<path d="M162.81 31.26H156.56V37.51H162.81V31.26Z" fill="#A5A5A5"/>
<path d="M156.56 31.26H150.31V37.51H156.56V31.26Z" fill="#A5A5A5"/>
<path d="M150.31 31.26H144.06V37.51H150.31V31.26Z" fill="#A5A5A5"/>
<path d="M144.06 31.26H137.81V37.51H144.06V31.26Z" fill="#D6D6D6"/>
<path d="M137.81 31.26H131.56V37.51H137.81V31.26Z" fill="#A5A5A5"/>
<path d="M131.56 31.26H125.31V37.51H131.56V31.26Z" fill="#A5A5A5"/>
<path d="M125.31 31.26H119.06V37.51H125.31V31.26Z" fill="#A5A5A5"/>
<path d="M119.06 31.26H112.81V37.51H119.06V31.26Z" fill="#A5A5A5"/>
<path d="M112.8 31.26H106.55V37.51H112.8V31.26Z" fill="#A5A5A5"/>
<path d="M106.55 31.26H100.3V37.51H106.55V31.26Z" fill="#A5A5A5"/>
<path d="M100.3 31.26H94.05V37.51H100.3V31.26Z" fill="#A5A5A5"/>
<path d="M94.05 31.26H87.8V37.51H94.05V31.26Z" fill="#A5A5A5"/>
<path d="M87.8 31.26H81.55V37.51H87.8V31.26Z" fill="#A5A5A5"/>
<path d="M81.55 31.26H75.3V37.51H81.55V31.26Z" fill="#A5A5A5"/>
<path d="M75.3 31.26H69.05V37.51H75.3V31.26Z" fill="#A5A5A5"/>
<path d="M69.0501 31.26H62.8V37.51H69.0501V31.26Z" fill="#A5A5A5"/>
<path d="M62.8 31.26H56.55V37.51H62.8V31.26Z" fill="#A5A5A5"/>
<path d="M56.55 31.26H50.3V37.51H56.55V31.26Z" fill="#A5A5A5"/>
<path d="M50.3 31.26H44.05V37.51H50.3V31.26Z" fill="#A5A5A5"/>
<path d="M44.05 31.26H37.8V37.51H44.05V31.26Z" fill="#A5A5A5"/>
<path d="M37.79 31.26H31.54V37.51H37.79V31.26Z" fill="#A5A5A5"/>
<path d="M31.54 31.26H25.29V37.51H31.54V31.26Z" fill="#808080"/>
<path d="M25.29 31.26H19.04V37.51H25.29V31.26Z" fill="#808080"/>
<path d="M19.04 31.26H12.79V37.51H19.04V31.26Z" fill="#808080"/>
<path d="M12.79 31.26H6.54004V37.51H12.79V31.26Z" fill="#808080"/>
<path d="M6.54004 31.26H0.290039V37.51H6.54004V31.26Z" fill="#4C4C4C"/>
<path d="M281.58 37.52H275.33V43.77H281.58V37.52Z" fill="#4C4C4C"/>
<path d="M275.33 37.52H269.08V43.77H275.33V37.52Z" fill="#3D3D3D"/>
<path d="M269.08 37.52H262.83V43.77H269.08V37.52Z" fill="#3D3D3D"/>
<path d="M262.82 37.52H256.57V43.77H262.82V37.52Z" fill="#3D3D3D"/>
<path d="M256.57 37.52H250.32V43.77H256.57V37.52Z" fill="#3D3D3D"/>
<path d="M250.32 37.52H244.07V43.77H250.32V37.52Z" fill="#A5A5A5"/>
<path d="M244.07 37.52H237.82V43.77H244.07V37.52Z" fill="#A5A5A5"/>
<path d="M237.82 37.52H231.57V43.77H237.82V37.52Z" fill="#A5A5A5"/>
<path d="M231.57 37.52H225.32V43.77H231.57V37.52Z" fill="#A5A5A5"/>
<path d="M225.32 37.52H219.07V43.77H225.32V37.52Z" fill="#A5A5A5"/>
<path d="M219.07 37.52H212.82V43.77H219.07V37.52Z" fill="#A5A5A5"/>
<path d="M212.82 37.52H206.57V43.77H212.82V37.52Z" fill="#A5A5A5"/>
<path d="M206.57 37.52H200.32V43.77H206.57V37.52Z" fill="#A5A5A5"/>
<path d="M200.32 37.52H194.07V43.77H200.32V37.52Z" fill="#A5A5A5"/>
<path d="M194.07 37.52H187.82V43.77H194.07V37.52Z" fill="#A5A5A5"/>
<path d="M187.81 37.52H181.56V43.77H187.81V37.52Z" fill="#D6D6D6"/>
<path d="M181.56 37.52H175.31V43.77H181.56V37.52Z" fill="#D6D6D6"/>
<path d="M175.31 37.52H169.06V43.77H175.31V37.52Z" fill="#D6D6D6"/>
<path d="M169.06 37.52H162.81V43.77H169.06V37.52Z" fill="#A5A5A5"/>
<path d="M162.81 37.52H156.56V43.77H162.81V37.52Z" fill="#A5A5A5"/>
<path d="M156.56 37.52H150.31V43.77H156.56V37.52Z" fill="#A5A5A5"/>
<path d="M150.31 37.52H144.06V43.77H150.31V37.52Z" fill="#D6D6D6"/>
<path d="M144.06 37.52H137.81V43.77H144.06V37.52Z" fill="#A5A5A5"/>
<path d="M137.81 37.52H131.56V43.77H137.81V37.52Z" fill="#A5A5A5"/>
<path d="M131.56 37.52H125.31V43.77H131.56V37.52Z" fill="#A5A5A5"/>
<path d="M125.31 37.52H119.06V43.77H125.31V37.52Z" fill="#A5A5A5"/>
<path d="M119.06 37.52H112.81V43.77H119.06V37.52Z" fill="#A5A5A5"/>
<path d="M112.8 37.52H106.55V43.77H112.8V37.52Z" fill="#A5A5A5"/>
<path d="M106.55 37.52H100.3V43.77H106.55V37.52Z" fill="#A5A5A5"/>
<path d="M100.3 37.52H94.05V43.77H100.3V37.52Z" fill="#A5A5A5"/>
<path d="M94.05 37.52H87.8V43.77H94.05V37.52Z" fill="#A5A5A5"/>
<path d="M87.8 37.52H81.55V43.77H87.8V37.52Z" fill="#A5A5A5"/>
<path d="M81.55 37.52H75.3V43.77H81.55V37.52Z" fill="#A5A5A5"/>
<path d="M75.3 37.52H69.05V43.77H75.3V37.52Z" fill="#A5A5A5"/>
<path d="M69.0501 37.52H62.8V43.77H69.0501V37.52Z" fill="#A5A5A5"/>
<path d="M62.8 37.52H56.55V43.77H62.8V37.52Z" fill="#A5A5A5"/>
<path d="M56.55 37.52H50.3V43.77H56.55V37.52Z" fill="#A5A5A5"/>
<path d="M50.3 37.52H44.05V43.77H50.3V37.52Z" fill="#A5A5A5"/>
<path d="M44.05 37.52H37.8V43.77H44.05V37.52Z" fill="#A5A5A5"/>
<path d="M37.79 37.52H31.54V43.77H37.79V37.52Z" fill="#A5A5A5"/>
<path d="M31.54 37.52H25.29V43.77H31.54V37.52Z" fill="#808080"/>
<path d="M25.29 37.52H19.04V43.77H25.29V37.52Z" fill="#808080"/>
<path d="M19.04 37.52H12.79V43.77H19.04V37.52Z" fill="#808080"/>
<path d="M12.79 37.52H6.54004V43.77H12.79V37.52Z" fill="#808080"/>
<path d="M6.54004 37.52H0.290039V43.77H6.54004V37.52Z" fill="#4C4C4C"/>
<path d="M281.58 43.77H275.33V50.02H281.58V43.77Z" fill="#4C4C4C"/>
<path d="M275.33 43.77H269.08V50.02H275.33V43.77Z" fill="#3D3D3D"/>
<path d="M269.08 43.77H262.83V50.02H269.08V43.77Z" fill="#3D3D3D"/>
<path d="M262.82 43.77H256.57V50.02H262.82V43.77Z" fill="#3D3D3D"/>
<path d="M256.57 43.77H250.32V50.02H256.57V43.77Z" fill="#3D3D3D"/>
<path d="M250.32 43.77H244.07V50.02H250.32V43.77Z" fill="#A5A5A5"/>
<path d="M244.07 43.77H237.82V50.02H244.07V43.77Z" fill="#A5A5A5"/>
<path d="M237.82 43.77H231.57V50.02H237.82V43.77Z" fill="#A5A5A5"/>
<path d="M231.57 43.77H225.32V50.02H231.57V43.77Z" fill="#A5A5A5"/>
<path d="M225.32 43.77H219.07V50.02H225.32V43.77Z" fill="#A5A5A5"/>
<path d="M219.07 43.77H212.82V50.02H219.07V43.77Z" fill="#A5A5A5"/>
<path d="M212.82 43.77H206.57V50.02H212.82V43.77Z" fill="#A5A5A5"/>
<path d="M206.57 43.77H200.32V50.02H206.57V43.77Z" fill="#A5A5A5"/>
<path d="M200.32 43.77H194.07V50.02H200.32V43.77Z" fill="#A5A5A5"/>
<path d="M194.07 43.77H187.82V50.02H194.07V43.77Z" fill="#D6D6D6"/>
<path d="M187.81 43.77H181.56V50.02H187.81V43.77Z" fill="#D6D6D6"/>
<path d="M181.56 43.77H175.31V50.02H181.56V43.77Z" fill="#D6D6D6"/>
<path d="M175.31 43.77H169.06V50.02H175.31V43.77Z" fill="#A5A5A5"/>
<path d="M169.06 43.77H162.81V50.02H169.06V43.77Z" fill="#A5A5A5"/>
<path d="M162.81 43.77H156.56V50.02H162.81V43.77Z" fill="#A5A5A5"/>
<path d="M156.56 43.77H150.31V50.02H156.56V43.77Z" fill="#D6D6D6"/>
<path d="M150.31 43.77H144.06V50.02H150.31V43.77Z" fill="#A5A5A5"/>
<path d="M144.06 43.77H137.81V50.02H144.06V43.77Z" fill="#A5A5A5"/>
<path d="M137.81 43.77H131.56V50.02H137.81V43.77Z" fill="#A5A5A5"/>
<path d="M131.56 43.77H125.31V50.02H131.56V43.77Z" fill="#A5A5A5"/>
<path d="M125.31 43.77H119.06V50.02H125.31V43.77Z" fill="#A5A5A5"/>
<path d="M119.06 43.77H112.81V50.02H119.06V43.77Z" fill="#A5A5A5"/>
<path d="M112.8 43.77H106.55V50.02H112.8V43.77Z" fill="#A5A5A5"/>
<path d="M106.55 43.77H100.3V50.02H106.55V43.77Z" fill="#A5A5A5"/>
<path d="M100.3 43.77H94.05V50.02H100.3V43.77Z" fill="#A5A5A5"/>
<path d="M94.05 43.77H87.8V50.02H94.05V43.77Z" fill="#A5A5A5"/>
<path d="M87.8 43.77H81.55V50.02H87.8V43.77Z" fill="#A5A5A5"/>
<path d="M81.55 43.77H75.3V50.02H81.55V43.77Z" fill="#A5A5A5"/>
<path d="M75.3 43.77H69.05V50.02H75.3V43.77Z" fill="#A5A5A5"/>
<path d="M69.0501 43.77H62.8V50.02H69.0501V43.77Z" fill="#A5A5A5"/>
<path d="M62.8 43.77H56.55V50.02H62.8V43.77Z" fill="#A5A5A5"/>
<path d="M56.55 43.77H50.3V50.02H56.55V43.77Z" fill="#A5A5A5"/>
<path d="M50.3 43.77H44.05V50.02H50.3V43.77Z" fill="#A5A5A5"/>
<path d="M44.05 43.77H37.8V50.02H44.05V43.77Z" fill="#A5A5A5"/>
<path d="M37.79 43.77H31.54V50.02H37.79V43.77Z" fill="#A5A5A5"/>
<path d="M31.54 43.77H25.29V50.02H31.54V43.77Z" fill="#808080"/>
<path d="M25.29 43.77H19.04V50.02H25.29V43.77Z" fill="#808080"/>
<path d="M19.04 43.77H12.79V50.02H19.04V43.77Z" fill="#808080"/>
<path d="M12.79 43.77H6.54004V50.02H12.79V43.77Z" fill="#808080"/>
<path d="M6.54004 43.77H0.290039V50.02H6.54004V43.77Z" fill="#4C4C4C"/>
<path d="M281.58 50.02H275.33V56.27H281.58V50.02Z" fill="#4C4C4C"/>
<path d="M275.33 50.02H269.08V56.27H275.33V50.02Z" fill="#3D3D3D"/>
<path d="M269.08 50.02H262.83V56.27H269.08V50.02Z" fill="#3D3D3D"/>
<path d="M262.82 50.02H256.57V56.27H262.82V50.02Z" fill="#3D3D3D"/>
<path d="M256.57 50.02H250.32V56.27H256.57V50.02Z" fill="#3D3D3D"/>
<path d="M250.32 50.02H244.07V56.27H250.32V50.02Z" fill="#A5A5A5"/>
<path d="M244.07 50.02H237.82V56.27H244.07V50.02Z" fill="#A5A5A5"/>
<path d="M237.82 50.02H231.57V56.27H237.82V50.02Z" fill="#A5A5A5"/>
<path d="M231.57 50.02H225.32V56.27H231.57V50.02Z" fill="#A5A5A5"/>
<path d="M225.32 50.02H219.07V56.27H225.32V50.02Z" fill="#A5A5A5"/>
<path d="M219.07 50.02H212.82V56.27H219.07V50.02Z" fill="#A5A5A5"/>
<path d="M212.82 50.02H206.57V56.27H212.82V50.02Z" fill="#A5A5A5"/>
<path d="M206.57 50.02H200.32V56.27H206.57V50.02Z" fill="#A5A5A5"/>
<path d="M200.32 50.02H194.07V56.27H200.32V50.02Z" fill="#D6D6D6"/>
<path d="M194.07 50.02H187.82V56.27H194.07V50.02Z" fill="#D6D6D6"/>
<path d="M187.81 50.02H181.56V56.27H187.81V50.02Z" fill="#D6D6D6"/>
<path d="M181.56 50.02H175.31V56.27H181.56V50.02Z" fill="#A5A5A5"/>
<path d="M175.31 50.02H169.06V56.27H175.31V50.02Z" fill="#A5A5A5"/>
<path d="M169.06 50.02H162.81V56.27H169.06V50.02Z" fill="#A5A5A5"/>
<path d="M162.81 50.02H156.56V56.27H162.81V50.02Z" fill="#D6D6D6"/>
<path d="M156.56 50.02H150.31V56.27H156.56V50.02Z" fill="#A5A5A5"/>
<path d="M150.31 50.02H144.06V56.27H150.31V50.02Z" fill="#A5A5A5"/>
<path d="M144.06 50.02H137.81V56.27H144.06V50.02Z" fill="#A5A5A5"/>
<path d="M137.81 50.02H131.56V56.27H137.81V50.02Z" fill="#A5A5A5"/>
<path d="M131.56 50.02H125.31V56.27H131.56V50.02Z" fill="#A5A5A5"/>
<path d="M125.31 50.02H119.06V56.27H125.31V50.02Z" fill="#A5A5A5"/>
<path d="M119.06 50.02H112.81V56.27H119.06V50.02Z" fill="#A5A5A5"/>
<path d="M112.8 50.02H106.55V56.27H112.8V50.02Z" fill="#A5A5A5"/>
<path d="M106.55 50.02H100.3V56.27H106.55V50.02Z" fill="#A5A5A5"/>
<path d="M100.3 50.02H94.05V56.27H100.3V50.02Z" fill="#A5A5A5"/>
<path d="M94.05 50.02H87.8V56.27H94.05V50.02Z" fill="#A5A5A5"/>
<path d="M87.8 50.02H81.55V56.27H87.8V50.02Z" fill="#A5A5A5"/>
<path d="M81.55 50.02H75.3V56.27H81.55V50.02Z" fill="#A5A5A5"/>
<path d="M75.3 50.02H69.05V56.27H75.3V50.02Z" fill="#A5A5A5"/>
<path d="M69.0501 50.02H62.8V56.27H69.0501V50.02Z" fill="#A5A5A5"/>
<path d="M62.8 50.02H56.55V56.27H62.8V50.02Z" fill="#A5A5A5"/>
<path d="M56.55 50.02H50.3V56.27H56.55V50.02Z" fill="#A5A5A5"/>
<path d="M50.3 50.02H44.05V56.27H50.3V50.02Z" fill="#A5A5A5"/>
<path d="M44.05 50.02H37.8V56.27H44.05V50.02Z" fill="#A5A5A5"/>
<path d="M37.79 50.02H31.54V56.27H37.79V50.02Z" fill="#A5A5A5"/>
<path d="M31.54 50.02H25.29V56.27H31.54V50.02Z" fill="#808080"/>
<path d="M25.29 50.02H19.04V56.27H25.29V50.02Z" fill="#808080"/>
<path d="M19.04 50.02H12.79V56.27H19.04V50.02Z" fill="#808080"/>
<path d="M12.79 50.02H6.54004V56.27H12.79V50.02Z" fill="#808080"/>
<path d="M6.54004 50.02H0.290039V56.27H6.54004V50.02Z" fill="#4C4C4C"/>
<path d="M281.58 56.27H275.33V62.52H281.58V56.27Z" fill="#4C4C4C"/>
<path d="M275.33 56.27H269.08V62.52H275.33V56.27Z" fill="#3D3D3D"/>
<path d="M269.08 56.27H262.83V62.52H269.08V56.27Z" fill="#3D3D3D"/>
<path d="M262.82 56.27H256.57V62.52H262.82V56.27Z" fill="#3D3D3D"/>
<path d="M256.57 56.27H250.32V62.52H256.57V56.27Z" fill="#3D3D3D"/>
<path d="M250.32 56.27H244.07V62.52H250.32V56.27Z" fill="#D6D6D6"/>
<path d="M244.07 56.27H237.82V62.52H244.07V56.27Z" fill="#A5A5A5"/>
<path d="M237.82 56.27H231.57V62.52H237.82V56.27Z" fill="#A5A5A5"/>
<path d="M231.57 56.27H225.32V62.52H231.57V56.27Z" fill="#A5A5A5"/>
<path d="M225.32 56.27H219.07V62.52H225.32V56.27Z" fill="#A5A5A5"/>
<path d="M219.07 56.27H212.82V62.52H219.07V56.27Z" fill="#A5A5A5"/>
<path d="M212.82 56.27H206.57V62.52H212.82V56.27Z" fill="#A5A5A5"/>
<path d="M206.57 56.27H200.32V62.52H206.57V56.27Z" fill="#D6D6D6"/>
<path d="M200.32 56.27H194.07V62.52H200.32V56.27Z" fill="#D6D6D6"/>
<path d="M194.07 56.27H187.82V62.52H194.07V56.27Z" fill="#D6D6D6"/>
<path d="M187.81 56.27H181.56V62.52H187.81V56.27Z" fill="#A5A5A5"/>
<path d="M181.56 56.27H175.31V62.52H181.56V56.27Z" fill="#A5A5A5"/>
<path d="M175.31 56.27H169.06V62.52H175.31V56.27Z" fill="#A5A5A5"/>
<path d="M169.06 56.27H162.81V62.52H169.06V56.27Z" fill="#D6D6D6"/>
<path d="M162.81 56.27H156.56V62.52H162.81V56.27Z" fill="#A5A5A5"/>
<path d="M156.56 56.27H150.31V62.52H156.56V56.27Z" fill="#A5A5A5"/>
<path d="M150.31 56.27H144.06V62.52H150.31V56.27Z" fill="#A5A5A5"/>
<path d="M144.06 56.27H137.81V62.52H144.06V56.27Z" fill="#A5A5A5"/>
<path d="M137.81 56.27H131.56V62.52H137.81V56.27Z" fill="#A5A5A5"/>
<path d="M131.56 56.27H125.31V62.52H131.56V56.27Z" fill="#A5A5A5"/>
<path d="M125.31 56.27H119.06V62.52H125.31V56.27Z" fill="#A5A5A5"/>
<path d="M119.06 56.27H112.81V62.52H119.06V56.27Z" fill="#A5A5A5"/>
<path d="M112.8 56.27H106.55V62.52H112.8V56.27Z" fill="#A5A5A5"/>
<path d="M106.55 56.27H100.3V62.52H106.55V56.27Z" fill="#A5A5A5"/>
<path d="M100.3 56.27H94.05V62.52H100.3V56.27Z" fill="#A5A5A5"/>
<path d="M94.05 56.27H87.8V62.52H94.05V56.27Z" fill="#A5A5A5"/>
<path d="M87.8 56.27H81.55V62.52H87.8V56.27Z" fill="#A5A5A5"/>
<path d="M81.55 56.27H75.3V62.52H81.55V56.27Z" fill="#A5A5A5"/>
<path d="M75.3 56.27H69.05V62.52H75.3V56.27Z" fill="#A5A5A5"/>
<path d="M69.0501 56.27H62.8V62.52H69.0501V56.27Z" fill="#A5A5A5"/>
<path d="M62.8 56.27H56.55V62.52H62.8V56.27Z" fill="#A5A5A5"/>
<path d="M56.55 56.27H50.3V62.52H56.55V56.27Z" fill="#A5A5A5"/>
<path d="M50.3 56.27H44.05V62.52H50.3V56.27Z" fill="#A5A5A5"/>
<path d="M44.05 56.27H37.8V62.52H44.05V56.27Z" fill="#A5A5A5"/>
<path d="M37.79 56.27H31.54V62.52H37.79V56.27Z" fill="#D6D6D6"/>
<path d="M31.54 56.27H25.29V62.52H31.54V56.27Z" fill="#808080"/>
<path d="M25.29 56.27H19.04V62.52H25.29V56.27Z" fill="#808080"/>
<path d="M19.04 56.27H12.79V62.52H19.04V56.27Z" fill="#808080"/>
<path d="M12.79 56.27H6.54004V62.52H12.79V56.27Z" fill="#808080"/>
<path d="M6.54004 56.27H0.290039V62.52H6.54004V56.27Z" fill="#4C4C4C"/>
<path d="M281.58 62.52H275.33V68.77H281.58V62.52Z" fill="#4C4C4C"/>
<path d="M275.33 62.52H269.08V68.77H275.33V62.52Z" fill="#3D3D3D"/>
<path d="M269.08 62.52H262.83V68.77H269.08V62.52Z" fill="#3D3D3D"/>
<path d="M262.82 62.52H256.57V68.77H262.82V62.52Z" fill="#3D3D3D"/>
<path d="M256.57 62.52H250.32V68.77H256.57V62.52Z" fill="#3D3D3D"/>
<path d="M250.32 62.52H244.07V68.77H250.32V62.52Z" fill="#808080"/>
<path d="M244.07 62.52H237.82V68.77H244.07V62.52Z" fill="#D6D6D6"/>
<path d="M237.82 62.52H231.57V68.77H237.82V62.52Z" fill="#D6D6D6"/>
<path d="M231.57 62.52H225.32V68.77H231.57V62.52Z" fill="#D6D6D6"/>
<path d="M225.32 62.52H219.07V68.77H225.32V62.52Z" fill="#D6D6D6"/>
<path d="M219.07 62.52H212.82V68.77H219.07V62.52Z" fill="#D6D6D6"/>
<path d="M212.82 62.52H206.57V68.77H212.82V62.52Z" fill="#D6D6D6"/>
<path d="M206.57 62.52H200.32V68.77H206.57V62.52Z" fill="#D6D6D6"/>
<path d="M200.32 62.52H194.07V68.77H200.32V62.52Z" fill="#D6D6D6"/>
<path d="M194.07 62.52H187.82V68.77H194.07V62.52Z" fill="#D6D6D6"/>
<path d="M187.81 62.52H181.56V68.77H187.81V62.52Z" fill="#D6D6D6"/>
<path d="M181.56 62.52H175.31V68.77H181.56V62.52Z" fill="#D6D6D6"/>
<path d="M175.31 62.52H169.06V68.77H175.31V62.52Z" fill="#D6D6D6"/>
<path d="M169.06 62.52H162.81V68.77H169.06V62.52Z" fill="#D6D6D6"/>
<path d="M162.81 62.52H156.56V68.77H162.81V62.52Z" fill="#D6D6D6"/>
<path d="M156.56 62.52H150.31V68.77H156.56V62.52Z" fill="#D6D6D6"/>
<path d="M150.31 62.52H144.06V68.77H150.31V62.52Z" fill="#D6D6D6"/>
<path d="M144.06 62.52H137.81V68.77H144.06V62.52Z" fill="#D6D6D6"/>
<path d="M137.81 62.52H131.56V68.77H137.81V62.52Z" fill="#D6D6D6"/>
<path d="M131.56 62.52H125.31V68.77H131.56V62.52Z" fill="#D6D6D6"/>
<path d="M125.31 62.52H119.06V68.77H125.31V62.52Z" fill="#D6D6D6"/>
<path d="M119.06 62.52H112.81V68.77H119.06V62.52Z" fill="#D6D6D6"/>
<path d="M112.8 62.52H106.55V68.77H112.8V62.52Z" fill="#D6D6D6"/>
<path d="M106.55 62.52H100.3V68.77H106.55V62.52Z" fill="#D6D6D6"/>
<path d="M100.3 62.52H94.05V68.77H100.3V62.52Z" fill="#D6D6D6"/>
<path d="M94.05 62.52H87.8V68.77H94.05V62.52Z" fill="#D6D6D6"/>
<path d="M87.8 62.52H81.55V68.77H87.8V62.52Z" fill="#D6D6D6"/>
<path d="M81.55 62.52H75.3V68.77H81.55V62.52Z" fill="#D6D6D6"/>
<path d="M75.3 62.52H69.05V68.77H75.3V62.52Z" fill="#D6D6D6"/>
<path d="M69.0501 62.52H62.8V68.77H69.0501V62.52Z" fill="#D6D6D6"/>
<path d="M62.8 62.52H56.55V68.77H62.8V62.52Z" fill="#D6D6D6"/>
<path d="M56.55 62.52H50.3V68.77H56.55V62.52Z" fill="#D6D6D6"/>
<path d="M50.3 62.52H44.05V68.77H50.3V62.52Z" fill="#D6D6D6"/>
<path d="M44.05 62.52H37.8V68.77H44.05V62.52Z" fill="#D6D6D6"/>
<path d="M37.79 62.52H31.54V68.77H37.79V62.52Z" fill="#A5A5A5"/>
<path d="M31.54 62.52H25.29V68.77H31.54V62.52Z" fill="#808080"/>
<path d="M25.29 62.52H19.04V68.77H25.29V62.52Z" fill="#808080"/>
<path d="M19.04 62.52H12.79V68.77H19.04V62.52Z" fill="#808080"/>
<path d="M12.79 62.52H6.54004V68.77H12.79V62.52Z" fill="#808080"/>
<path d="M6.54004 62.52H0.290039V68.77H6.54004V62.52Z" fill="#4C4C4C"/>
<path d="M281.58 68.77H275.33V75.02H281.58V68.77Z" fill="#4C4C4C"/>
<path d="M275.33 68.77H269.08V75.02H275.33V68.77Z" fill="#3D3D3D"/>
<path d="M269.08 68.77H262.83V75.02H269.08V68.77Z" fill="#3D3D3D"/>
<path d="M262.82 68.77H256.57V75.02H262.82V68.77Z" fill="#3D3D3D"/>
<path d="M256.57 68.77H250.32V75.02H256.57V68.77Z" fill="#808080"/>
<path d="M250.32 68.77H244.07V75.02H250.32V68.77Z" fill="#606060"/>
<path d="M244.07 68.77H237.82V75.02H244.07V68.77Z" fill="#606060"/>
<path d="M237.82 68.77H231.57V75.02H237.82V68.77Z" fill="#606060"/>
<path d="M231.57 68.77H225.32V75.02H231.57V68.77Z" fill="#606060"/>
<path d="M225.32 68.77H219.07V75.02H225.32V68.77Z" fill="#606060"/>
<path d="M219.07 68.77H212.82V75.02H219.07V68.77Z" fill="#606060"/>
<path d="M212.82 68.77H206.57V75.02H212.82V68.77Z" fill="#606060"/>
<path d="M206.57 68.77H200.32V75.02H206.57V68.77Z" fill="#606060"/>
<path d="M200.32 68.77H194.07V75.02H200.32V68.77Z" fill="#606060"/>
<path d="M194.07 68.77H187.82V75.02H194.07V68.77Z" fill="#606060"/>
<path d="M187.81 68.77H181.56V75.02H187.81V68.77Z" fill="#606060"/>
<path d="M181.56 68.77H175.31V75.02H181.56V68.77Z" fill="#606060"/>
<path d="M175.31 68.77H169.06V75.02H175.31V68.77Z" fill="#606060"/>
<path d="M169.06 68.77H162.81V75.02H169.06V68.77Z" fill="#606060"/>
<path d="M162.81 68.77H156.56V75.02H162.81V68.77Z" fill="#606060"/>
<path d="M156.56 68.77H150.31V75.02H156.56V68.77Z" fill="#606060"/>
<path d="M150.31 68.77H144.06V75.02H150.31V68.77Z" fill="#606060"/>
<path d="M144.06 68.77H137.81V75.02H144.06V68.77Z" fill="#606060"/>
<path d="M137.81 68.77H131.56V75.02H137.81V68.77Z" fill="#606060"/>
<path d="M131.56 68.77H125.31V75.02H131.56V68.77Z" fill="#606060"/>
<path d="M125.31 68.77H119.06V75.02H125.31V68.77Z" fill="#606060"/>
<path d="M119.06 68.77H112.81V75.02H119.06V68.77Z" fill="#606060"/>
<path d="M112.8 68.77H106.55V75.02H112.8V68.77Z" fill="#606060"/>
<path d="M106.55 68.77H100.3V75.02H106.55V68.77Z" fill="#606060"/>
<path d="M100.3 68.77H94.05V75.02H100.3V68.77Z" fill="#606060"/>
<path d="M94.05 68.77H87.8V75.02H94.05V68.77Z" fill="#606060"/>
<path d="M87.8 68.77H81.55V75.02H87.8V68.77Z" fill="#606060"/>
<path d="M81.55 68.77H75.3V75.02H81.55V68.77Z" fill="#606060"/>
<path d="M75.3 68.77H69.05V75.02H75.3V68.77Z" fill="#606060"/>
<path d="M69.0501 68.77H62.8V75.02H69.0501V68.77Z" fill="#606060"/>
<path d="M62.8 68.77H56.55V75.02H62.8V68.77Z" fill="#606060"/>
<path d="M56.55 68.77H50.3V75.02H56.55V68.77Z" fill="#606060"/>
<path d="M50.3 68.77H44.05V75.02H50.3V68.77Z" fill="#606060"/>
<path d="M44.05 68.77H37.8V75.02H44.05V68.77Z" fill="#606060"/>
<path d="M37.79 68.77H31.54V75.02H37.79V68.77Z" fill="#606060"/>
<path d="M31.54 68.77H25.29V75.02H31.54V68.77Z" fill="#A5A5A5"/>
<path d="M25.29 68.77H19.04V75.02H25.29V68.77Z" fill="#808080"/>
<path d="M19.04 68.77H12.79V75.02H19.04V68.77Z" fill="#808080"/>
<path d="M12.79 68.77H6.54004V75.02H12.79V68.77Z" fill="#808080"/>
<path d="M6.54004 68.77H0.290039V75.02H6.54004V68.77Z" fill="#4C4C4C"/>
<path d="M281.58 75.02H275.33V81.27H281.58V75.02Z" fill="#4C4C4C"/>
<path d="M275.33 75.02H269.08V81.27H275.33V75.02Z" fill="#3D3D3D"/>
<path d="M269.08 75.02H262.83V81.27H269.08V75.02Z" fill="#3D3D3D"/>
<path d="M262.82 75.02H256.57V81.27H262.82V75.02Z" fill="#808080"/>
<path d="M256.57 75.02H250.32V81.27H256.57V75.02Z" fill="#606060"/>
<path d="M250.32 75.02H244.07V81.27H250.32V75.02Z" fill="#606060"/>
<path d="M244.07 75.02H237.82V81.27H244.07V75.02Z" fill="#606060"/>
<path d="M237.82 75.02H231.57V81.27H237.82V75.02Z" fill="#606060"/>
<path d="M231.57 75.02H225.32V81.27H231.57V75.02Z" fill="#606060"/>
<path d="M225.32 75.02H219.07V81.27H225.32V75.02Z" fill="#606060"/>
<path d="M219.07 75.02H212.82V81.27H219.07V75.02Z" fill="#606060"/>
<path d="M212.82 75.02H206.57V81.27H212.82V75.02Z" fill="#606060"/>
<path d="M206.57 75.02H200.32V81.27H206.57V75.02Z" fill="#606060"/>
<path d="M200.32 75.02H194.07V81.27H200.32V75.02Z" fill="#606060"/>
<path d="M194.07 75.02H187.82V81.27H194.07V75.02Z" fill="#606060"/>
<path d="M187.81 75.02H181.56V81.27H187.81V75.02Z" fill="#606060"/>
<path d="M181.56 75.02H175.31V81.27H181.56V75.02Z" fill="#606060"/>
<path d="M175.31 75.02H169.06V81.27H175.31V75.02Z" fill="#606060"/>
<path d="M169.06 75.02H162.81V81.27H169.06V75.02Z" fill="#606060"/>
<path d="M162.81 75.02H156.56V81.27H162.81V75.02Z" fill="#606060"/>
<path d="M156.56 75.02H150.31V81.27H156.56V75.02Z" fill="#606060"/>
<path d="M150.31 75.02H144.06V81.27H150.31V75.02Z" fill="#606060"/>
<path d="M144.06 75.02H137.81V81.27H144.06V75.02Z" fill="#606060"/>
<path d="M137.81 75.02H131.56V81.27H137.81V75.02Z" fill="#606060"/>
<path d="M131.56 75.02H125.31V81.27H131.56V75.02Z" fill="#606060"/>
<path d="M125.31 75.02H119.06V81.27H125.31V75.02Z" fill="#606060"/>
<path d="M119.06 75.02H112.81V81.27H119.06V75.02Z" fill="#606060"/>
<path d="M112.8 75.02H106.55V81.27H112.8V75.02Z" fill="#606060"/>
<path d="M106.55 75.02H100.3V81.27H106.55V75.02Z" fill="#606060"/>
<path d="M100.3 75.02H94.05V81.27H100.3V75.02Z" fill="#606060"/>
<path d="M94.05 75.02H87.8V81.27H94.05V75.02Z" fill="#606060"/>
<path d="M87.8 75.02H81.55V81.27H87.8V75.02Z" fill="#606060"/>
<path d="M81.55 75.02H75.3V81.27H81.55V75.02Z" fill="#606060"/>
<path d="M75.3 75.02H69.05V81.27H75.3V75.02Z" fill="#606060"/>
<path d="M69.0501 75.02H62.8V81.27H69.0501V75.02Z" fill="#606060"/>
<path d="M62.8 75.02H56.55V81.27H62.8V75.02Z" fill="#606060"/>
<path d="M56.55 75.02H50.3V81.27H56.55V75.02Z" fill="#606060"/>
<path d="M50.3 75.02H44.05V81.27H50.3V75.02Z" fill="#606060"/>
<path d="M44.05 75.02H37.8V81.27H44.05V75.02Z" fill="#606060"/>
<path d="M37.79 75.02H31.54V81.27H37.79V75.02Z" fill="#606060"/>
<path d="M31.54 75.02H25.29V81.27H31.54V75.02Z" fill="#606060"/>
<path d="M25.29 75.02H19.04V81.27H25.29V75.02Z" fill="#A5A5A5"/>
<path d="M19.04 75.02H12.79V81.27H19.04V75.02Z" fill="#808080"/>
<path d="M12.79 75.02H6.54004V81.27H12.79V75.02Z" fill="#808080"/>
<path d="M6.54004 75.02H0.290039V81.27H6.54004V75.02Z" fill="#4C4C4C"/>
<path d="M281.58 81.27H275.33V87.52H281.58V81.27Z" fill="#4C4C4C"/>
<path d="M275.33 81.27H269.08V87.52H275.33V81.27Z" fill="#3D3D3D"/>
<path d="M269.08 81.27H262.83V87.52H269.08V81.27Z" fill="#808080"/>
<path d="M262.82 81.27H256.57V87.52H262.82V81.27Z" fill="#606060"/>
<path d="M256.57 81.27H250.32V87.52H256.57V81.27Z" fill="#606060"/>
<path d="M250.32 81.27H244.07V87.52H250.32V81.27Z" fill="#606060"/>
<path d="M244.07 81.27H237.82V87.52H244.07V81.27Z" fill="#606060"/>
<path d="M237.82 81.27H231.57V87.52H237.82V81.27Z" fill="#606060"/>
<path d="M231.57 81.27H225.32V87.52H231.57V81.27Z" fill="#606060"/>
<path d="M225.32 81.27H219.07V87.52H225.32V81.27Z" fill="#606060"/>
<path d="M219.07 81.27H212.82V87.52H219.07V81.27Z" fill="#606060"/>
<path d="M212.82 81.27H206.57V87.52H212.82V81.27Z" fill="#606060"/>
<path d="M206.57 81.27H200.32V87.52H206.57V81.27Z" fill="#606060"/>
<path d="M200.32 81.27H194.07V87.52H200.32V81.27Z" fill="#606060"/>
<path d="M194.07 81.27H187.82V87.52H194.07V81.27Z" fill="#606060"/>
<path d="M187.81 81.27H181.56V87.52H187.81V81.27Z" fill="#606060"/>
<path d="M181.56 81.27H175.31V87.52H181.56V81.27Z" fill="#606060"/>
<path d="M175.31 81.27H169.06V87.52H175.31V81.27Z" fill="#606060"/>
<path d="M169.06 81.27H162.81V87.52H169.06V81.27Z" fill="#606060"/>
<path d="M162.81 81.27H156.56V87.52H162.81V81.27Z" fill="#606060"/>
<path d="M156.56 81.27H150.31V87.52H156.56V81.27Z" fill="#606060"/>
<path d="M150.31 81.27H144.06V87.52H150.31V81.27Z" fill="#606060"/>
<path d="M144.06 81.27H137.81V87.52H144.06V81.27Z" fill="#606060"/>
<path d="M137.81 81.27H131.56V87.52H137.81V81.27Z" fill="#606060"/>
<path d="M131.56 81.27H125.31V87.52H131.56V81.27Z" fill="#606060"/>
<path d="M125.31 81.27H119.06V87.52H125.31V81.27Z" fill="#606060"/>
<path d="M119.06 81.27H112.81V87.52H119.06V81.27Z" fill="#606060"/>
<path d="M112.8 81.27H106.55V87.52H112.8V81.27Z" fill="#606060"/>
<path d="M106.55 81.27H100.3V87.52H106.55V81.27Z" fill="#606060"/>
<path d="M100.3 81.27H94.05V87.52H100.3V81.27Z" fill="#606060"/>
<path d="M94.05 81.27H87.8V87.52H94.05V81.27Z" fill="#606060"/>
<path d="M87.8 81.27H81.55V87.52H87.8V81.27Z" fill="#606060"/>
<path d="M81.55 81.27H75.3V87.52H81.55V81.27Z" fill="#606060"/>
<path d="M75.3 81.27H69.05V87.52H75.3V81.27Z" fill="#606060"/>
<path d="M69.0501 81.27H62.8V87.52H69.0501V81.27Z" fill="#606060"/>
<path d="M62.8 81.27H56.55V87.52H62.8V81.27Z" fill="#606060"/>
<path d="M56.55 81.27H50.3V87.52H56.55V81.27Z" fill="#606060"/>
<path d="M50.3 81.27H44.05V87.52H50.3V81.27Z" fill="#606060"/>
<path d="M44.05 81.27H37.8V87.52H44.05V81.27Z" fill="#606060"/>
<path d="M37.79 81.27H31.54V87.52H37.79V81.27Z" fill="#606060"/>
<path d="M31.54 81.27H25.29V87.52H31.54V81.27Z" fill="#606060"/>
<path d="M25.29 81.27H19.04V87.52H25.29V81.27Z" fill="#606060"/>
<path d="M19.04 81.27H12.79V87.52H19.04V81.27Z" fill="#A5A5A5"/>
<path d="M12.79 81.27H6.54004V87.52H12.79V81.27Z" fill="#808080"/>
<path d="M6.54004 81.27H0.290039V87.52H6.54004V81.27Z" fill="#4C4C4C"/>
<path d="M275.33 87.52H269.08V93.77H275.33V87.52Z" fill="#4C4C4C"/>
<path d="M269.08 87.52H262.83V93.77H269.08V87.52Z" fill="#606060"/>
<path d="M262.82 87.52H256.57V93.77H262.82V87.52Z" fill="#606060"/>
<path d="M256.57 87.52H250.32V93.77H256.57V87.52Z" fill="#606060"/>
<path d="M250.32 87.52H244.07V93.77H250.32V87.52Z" fill="#606060"/>
<path d="M244.07 87.52H237.82V93.77H244.07V87.52Z" fill="#606060"/>
<path d="M237.82 87.52H231.57V93.77H237.82V87.52Z" fill="#606060"/>
<path d="M231.57 87.52H225.32V93.77H231.57V87.52Z" fill="#606060"/>
<path d="M225.32 87.52H219.07V93.77H225.32V87.52Z" fill="#606060"/>
<path d="M219.07 87.52H212.82V93.77H219.07V87.52Z" fill="#606060"/>
<path d="M212.82 87.52H206.57V93.77H212.82V87.52Z" fill="#606060"/>
<path d="M206.57 87.52H200.32V93.77H206.57V87.52Z" fill="#606060"/>
<path d="M200.32 87.52H194.07V93.77H200.32V87.52Z" fill="#606060"/>
<path d="M194.07 87.52H187.82V93.77H194.07V87.52Z" fill="#606060"/>
<path d="M187.81 87.52H181.56V93.77H187.81V87.52Z" fill="#606060"/>
<path d="M181.56 87.52H175.31V93.77H181.56V87.52Z" fill="#606060"/>
<path d="M175.31 87.52H169.06V93.77H175.31V87.52Z" fill="#606060"/>
<path d="M169.06 87.52H162.81V93.77H169.06V87.52Z" fill="#606060"/>
<path d="M162.81 87.52H156.56V93.77H162.81V87.52Z" fill="#606060"/>
<path d="M156.56 87.52H150.31V93.77H156.56V87.52Z" fill="#606060"/>
<path d="M150.31 87.52H144.06V93.77H150.31V87.52Z" fill="#606060"/>
<path d="M144.06 87.52H137.81V93.77H144.06V87.52Z" fill="#606060"/>
<path d="M137.81 87.52H131.56V93.77H137.81V87.52Z" fill="#606060"/>
<path d="M131.56 87.52H125.31V93.77H131.56V87.52Z" fill="#606060"/>
<path d="M125.31 87.52H119.06V93.77H125.31V87.52Z" fill="#606060"/>
<path d="M119.06 87.52H112.81V93.77H119.06V87.52Z" fill="#606060"/>
<path d="M112.8 87.52H106.55V93.77H112.8V87.52Z" fill="#606060"/>
<path d="M106.55 87.52H100.3V93.77H106.55V87.52Z" fill="#606060"/>
<path d="M100.3 87.52H94.05V93.77H100.3V87.52Z" fill="#606060"/>
<path d="M94.05 87.52H87.8V93.77H94.05V87.52Z" fill="#606060"/>
<path d="M87.8 87.52H81.55V93.77H87.8V87.52Z" fill="#606060"/>
<path d="M81.55 87.52H75.3V93.77H81.55V87.52Z" fill="#606060"/>
<path d="M75.3 87.52H69.05V93.77H75.3V87.52Z" fill="#606060"/>
<path d="M69.0501 87.52H62.8V93.77H69.0501V87.52Z" fill="#606060"/>
<path d="M62.8 87.52H56.55V93.77H62.8V87.52Z" fill="#606060"/>
<path d="M56.55 87.52H50.3V93.77H56.55V87.52Z" fill="#606060"/>
<path d="M50.3 87.52H44.05V93.77H50.3V87.52Z" fill="#606060"/>
<path d="M44.05 87.52H37.8V93.77H44.05V87.52Z" fill="#606060"/>
<path d="M37.79 87.52H31.54V93.77H37.79V87.52Z" fill="#606060"/>
<path d="M31.54 87.52H25.29V93.77H31.54V87.52Z" fill="#606060"/>
<path d="M25.29 87.52H19.04V93.77H25.29V87.52Z" fill="#606060"/>
<path d="M19.04 87.52H12.79V93.77H19.04V87.52Z" fill="#606060"/>
<path d="M12.79 87.52H6.54004V93.77H12.79V87.52Z" fill="#4C4C4C"/>
<path d="M269.08 93.77H262.83V100.02H269.08V93.77Z" fill="#4C4C4C"/>
<path d="M262.82 93.77H256.57V100.02H262.82V93.77Z" fill="#4C4C4C"/>
<path d="M256.57 93.77H250.32V100.02H256.57V93.77Z" fill="#4C4C4C"/>
<path d="M250.32 93.77H244.07V100.02H250.32V93.77Z" fill="#4C4C4C"/>
<path d="M244.07 93.77H237.82V100.02H244.07V93.77Z" fill="#4C4C4C"/>
<path d="M237.82 93.77H231.57V100.02H237.82V93.77Z" fill="#4C4C4C"/>
<path d="M231.57 93.77H225.32V100.02H231.57V93.77Z" fill="#4C4C4C"/>
<path d="M225.32 93.77H219.07V100.02H225.32V93.77Z" fill="#4C4C4C"/>
<path d="M219.07 93.77H212.82V100.02H219.07V93.77Z" fill="#4C4C4C"/>
<path d="M212.82 93.77H206.57V100.02H212.82V93.77Z" fill="#4C4C4C"/>
<path d="M206.57 93.77H200.32V100.02H206.57V93.77Z" fill="#4C4C4C"/>
<path d="M200.32 93.77H194.07V100.02H200.32V93.77Z" fill="#4C4C4C"/>
<path d="M194.07 93.77H187.82V100.02H194.07V93.77Z" fill="#4C4C4C"/>
<path d="M187.81 93.77H181.56V100.02H187.81V93.77Z" fill="#4C4C4C"/>
<path d="M181.56 93.77H175.31V100.02H181.56V93.77Z" fill="#4C4C4C"/>
<path d="M175.31 93.77H169.06V100.02H175.31V93.77Z" fill="#4C4C4C"/>
<path d="M169.06 93.77H162.81V100.02H169.06V93.77Z" fill="#4C4C4C"/>
<path d="M162.81 93.77H156.56V100.02H162.81V93.77Z" fill="#4C4C4C"/>
<path d="M156.56 93.77H150.31V100.02H156.56V93.77Z" fill="#4C4C4C"/>
<path d="M150.31 93.77H144.06V100.02H150.31V93.77Z" fill="#4C4C4C"/>
<path d="M144.06 93.77H137.81V100.02H144.06V93.77Z" fill="#4C4C4C"/>
<path d="M137.81 93.77H131.56V100.02H137.81V93.77Z" fill="#4C4C4C"/>
<path d="M131.56 93.77H125.31V100.02H131.56V93.77Z" fill="#4C4C4C"/>
<path d="M125.31 93.77H119.06V100.02H125.31V93.77Z" fill="#4C4C4C"/>
<path d="M119.06 93.77H112.81V100.02H119.06V93.77Z" fill="#4C4C4C"/>
<path d="M112.8 93.77H106.55V100.02H112.8V93.77Z" fill="#4C4C4C"/>
<path d="M106.55 93.77H100.3V100.02H106.55V93.77Z" fill="#4C4C4C"/>
<path d="M100.3 93.77H94.05V100.02H100.3V93.77Z" fill="#4C4C4C"/>
<path d="M94.05 93.77H87.8V100.02H94.05V93.77Z" fill="#4C4C4C"/>
<path d="M87.8 93.77H81.55V100.02H87.8V93.77Z" fill="#4C4C4C"/>
<path d="M81.55 93.77H75.3V100.02H81.55V93.77Z" fill="#4C4C4C"/>
<path d="M75.3 93.77H69.05V100.02H75.3V93.77Z" fill="#4C4C4C"/>
<path d="M69.0501 93.77H62.8V100.02H69.0501V93.77Z" fill="#4C4C4C"/>
<path d="M62.8 93.77H56.55V100.02H62.8V93.77Z" fill="#4C4C4C"/>
<path d="M56.55 93.77H50.3V100.02H56.55V93.77Z" fill="#4C4C4C"/>
<path d="M50.3 93.77H44.05V100.02H50.3V93.77Z" fill="#4C4C4C"/>
<path d="M44.05 93.77H37.8V100.02H44.05V93.77Z" fill="#4C4C4C"/>
<path d="M37.79 93.77H31.54V100.02H37.79V93.77Z" fill="#4C4C4C"/>
<path d="M31.54 93.77H25.29V100.02H31.54V93.77Z" fill="#4C4C4C"/>
<path d="M25.29 93.77H19.04V100.02H25.29V93.77Z" fill="#4C4C4C"/>
<path d="M19.04 93.77H12.79V100.02H19.04V93.77Z" fill="#4C4C4C"/>
<path d="M79.98 46.89V43.77H76.86V40.65H83.11V43.77H92.49V34.39H79.98V31.27H76.86V25.02H79.98V21.9H95.61V25.02H98.73V28.14H92.48V25.02H83.1V31.27H95.6V34.39H98.72V43.77H95.6V46.89H79.97H79.98Z" fill="#E5E5E5"/>
<path d="M111.24 46.89V25.01H103.42V21.89H125.3V25.01H117.49V46.89H111.24Z" fill="#E5E5E5"/>
<path d="M130 46.89V28.14H133.12V25.02H136.25V21.9H145.63V25.02H148.75V28.14H151.87V46.89H145.62V37.51H136.24V46.89H129.99H130ZM145.63 34.39V28.14H142.5V25.02H139.38V28.14H136.26V34.39H145.64H145.63Z" fill="#E5E5E5"/>
<path d="M156.56 46.89V21.89H175.31V25.01H178.43V31.26H175.31V34.38H178.43V46.88H172.18V34.38H162.8V46.88H156.55L156.56 46.89ZM172.2 31.27V25.02H162.82V31.27H172.2Z" fill="#E5E5E5"/>
<path d="M190.95 46.89V25.01H183.13V21.89H205.01V25.01H197.2V46.89H190.95Z" fill="#E5E5E5"/>
<path d="M79.98 53.14V50.02H76.86V46.9H83.11V50.02H92.49V40.64H79.98V37.52H76.86V31.27H79.98V28.15H95.61V31.27H98.73V34.39H92.48V31.27H83.1V37.52H95.6V40.64H98.72V50.02H95.6V53.14H79.97H79.98Z" fill="#808080"/>
<path d="M111.24 53.14V31.26H103.42V28.14H125.3V31.26H117.49V53.14H111.24Z" fill="#808080"/>
<path d="M130 53.14V34.39H133.12V31.27H136.25V28.15H145.63V31.27H148.75V34.39H151.87V53.14H145.62V43.76H136.24V53.14H129.99H130ZM145.63 40.64V34.39H142.5V31.27H139.38V34.39H136.26V40.64H145.64H145.63Z" fill="#808080"/>
<path d="M156.56 53.14V28.14H175.31V31.26H178.43V37.51H175.31V40.63H178.43V53.13H172.18V40.63H162.8V53.13H156.55L156.56 53.14ZM172.2 37.52V31.27H162.82V37.52H172.2Z" fill="#808080"/>
<path d="M190.95 53.14V31.26H183.13V28.14H205.01V31.26H197.2V53.14H190.95Z" fill="#808080"/>
<path d="M79.98 50.02V46.9H76.86V43.78H83.11V46.9H92.49V37.52H79.98V34.4H76.86V28.15H79.98V25.03H95.61V28.15H98.73V31.27H92.48V28.15H83.1V34.4H95.6V37.52H98.72V46.9H95.6V50.02H79.97H79.98Z" fill="#282828"/>
<path d="M111.24 50.02V28.14H103.42V25.02H125.3V28.14H117.49V50.02H111.24Z" fill="#282828"/>
<path d="M130 50.02V31.27H133.12V28.15H136.25V25.03H145.63V28.15H148.75V31.27H151.87V50.02H145.62V40.64H136.24V50.02H129.99H130ZM145.63 37.52V31.27H142.5V28.15H139.38V31.27H136.26V37.52H145.64H145.63Z" fill="#282828"/>
<path d="M156.56 50.02V25.02H175.31V28.14H178.43V34.39H175.31V37.51H178.43V50.01H172.18V37.51H162.8V50.01H156.55L156.56 50.02ZM172.2 34.39V28.14H162.82V34.39H172.2Z" fill="#282828"/>
<path d="M190.95 50.02V28.14H183.13V25.02H205.01V28.14H197.2V50.02H190.95Z" fill="#282828"/>
<g style="mix-blend-mode:color">
<path d="M12.79 0V6.25H6.54004V12.5H0.290039V87.51H6.54004V93.76H12.79V100.01H37.79V100H37.8V100.01H112.8V100H112.81V100.01H187.81V100H187.82V100.01H262.82V100H262.83V100.01H269.08V93.76H275.33V87.51H281.58V37.51H281.29V37.5H281.58V12.5H275.33V6.25H269.08V0H12.79Z" fill="#7DC4C8"/>
</g>
</g>
<defs>
<clipPath id="clip0_3_51102">
<rect width="281.29" height="100.01" fill="white" transform="translate(0.290039 0.0100098)"/>
</clipPath>
</defs>
</svg>
