<svg width="151" height="151" viewBox="0 0 151 151" fill="none" xmlns="http://www.w3.org/2000/svg">
<g clip-path="url(#clip0_3_41022)">
<path d="M12.52 0.0200195V6.27002H6.27002V12.52H0.0200195V137.54H6.27002V143.79H12.52V150.04H37.52V150.02H37.53V150.04H112.53V150.02H112.54V150.04H137.54V143.79H143.79V137.54H150.04V112.54H150.02V112.53H150.04V37.53H150.02V37.52H150.04V12.52H143.79V6.27002H137.54V0.0200195H12.52Z" fill="#4C4C4C"/>
<path d="M137.54 0.0200195H131.29V6.27002H137.54V0.0200195Z" fill="#4C4C4C"/>
<path d="M131.29 0.0200195H125.04V6.27002H131.29V0.0200195Z" fill="#4C4C4C"/>
<path d="M125.04 0.0200195H118.79V6.27002H125.04V0.0200195Z" fill="#4C4C4C"/>
<path d="M118.79 0.0200195H112.54V6.27002H118.79V0.0200195Z" fill="#4C4C4C"/>
<path d="M112.53 0.0200195H106.28V6.27002H112.53V0.0200195Z" fill="#4C4C4C"/>
<path d="M106.28 0.0200195H100.03V6.27002H106.28V0.0200195Z" fill="#4C4C4C"/>
<path d="M100.03 0.0200195H93.78V6.27002H100.03V0.0200195Z" fill="#4C4C4C"/>
<path d="M93.78 0.0200195H87.53V6.27002H93.78V0.0200195Z" fill="#4C4C4C"/>
<path d="M87.53 0.0200195H81.28V6.27002H87.53V0.0200195Z" fill="#4C4C4C"/>
<path d="M81.28 0.0200195H75.03V6.27002H81.28V0.0200195Z" fill="#4C4C4C"/>
<path d="M75.03 0.0200195H68.78V6.27002H75.03V0.0200195Z" fill="#4C4C4C"/>
<path d="M68.78 0.0200195H62.53V6.27002H68.78V0.0200195Z" fill="#4C4C4C"/>
<path d="M62.53 0.0200195H56.28V6.27002H62.53V0.0200195Z" fill="#4C4C4C"/>
<path d="M56.28 0.0200195H50.03V6.27002H56.28V0.0200195Z" fill="#4C4C4C"/>
<path d="M50.03 0.0200195H43.78V6.27002H50.03V0.0200195Z" fill="#4C4C4C"/>
<path d="M43.78 0.0200195H37.53V6.27002H43.78V0.0200195Z" fill="#4C4C4C"/>
<path d="M37.52 0.0200195H31.27V6.27002H37.52V0.0200195Z" fill="#4C4C4C"/>
<path d="M31.27 0.0200195H25.02V6.27002H31.27V0.0200195Z" fill="#4C4C4C"/>
<path d="M25.02 0.0200195H18.77V6.27002H25.02V0.0200195Z" fill="#4C4C4C"/>
<path d="M18.77 0.0200195H12.52V6.27002H18.77V0.0200195Z" fill="#4C4C4C"/>
<path d="M143.79 6.27002H137.54V12.52H143.79V6.27002Z" fill="#4C4C4C"/>
<path d="M137.54 6.27002H131.29V12.52H137.54V6.27002Z" fill="#3D3D3D"/>
<path d="M131.29 6.27002H125.04V12.52H131.29V6.27002Z" fill="#3D3D3D"/>
<path d="M125.04 6.27002H118.79V12.52H125.04V6.27002Z" fill="#3D3D3D"/>
<path d="M118.79 6.27002H112.54V12.52H118.79V6.27002Z" fill="#3D3D3D"/>
<path d="M112.53 6.27002H106.28V12.52H112.53V6.27002Z" fill="#D6D6D6"/>
<path d="M106.28 6.27002H100.03V12.52H106.28V6.27002Z" fill="#A5A5A5"/>
<path d="M100.03 6.27002H93.78V12.52H100.03V6.27002Z" fill="#A5A5A5"/>
<path d="M93.78 6.27002H87.53V12.52H93.78V6.27002Z" fill="#A5A5A5"/>
<path d="M87.53 6.27002H81.28V12.52H87.53V6.27002Z" fill="#A5A5A5"/>
<path d="M81.28 6.27002H75.03V12.52H81.28V6.27002Z" fill="#A5A5A5"/>
<path d="M75.03 6.27002H68.78V12.52H75.03V6.27002Z" fill="#A5A5A5"/>
<path d="M68.78 6.27002H62.53V12.52H68.78V6.27002Z" fill="#A5A5A5"/>
<path d="M62.53 6.27002H56.28V12.52H62.53V6.27002Z" fill="#A5A5A5"/>
<path d="M56.28 6.27002H50.03V12.52H56.28V6.27002Z" fill="#A5A5A5"/>
<path d="M50.03 6.27002H43.78V12.52H50.03V6.27002Z" fill="#D6D6D6"/>
<path d="M43.78 6.27002H37.53V12.52H43.78V6.27002Z" fill="#D6D6D6"/>
<path d="M37.52 6.27002H31.27V12.52H37.52V6.27002Z" fill="#808080"/>
<path d="M31.27 6.27002H25.02V12.52H31.27V6.27002Z" fill="#808080"/>
<path d="M25.02 6.27002H18.77V12.52H25.02V6.27002Z" fill="#808080"/>
<path d="M18.77 6.27002H12.52V12.52H18.77V6.27002Z" fill="#808080"/>
<path d="M12.52 6.27002H6.27002V12.52H12.52V6.27002Z" fill="#4C4C4C"/>
<path d="M150.04 12.52H143.79V18.77H150.04V12.52Z" fill="#4C4C4C"/>
<path d="M143.79 12.52H137.54V18.77H143.79V12.52Z" fill="#3D3D3D"/>
<path d="M137.54 12.52H131.29V18.77H137.54V12.52Z" fill="#3D3D3D"/>
<path d="M131.29 12.52H125.04V18.77H131.29V12.52Z" fill="#3D3D3D"/>
<path d="M125.04 12.52H118.79V18.77H125.04V12.52Z" fill="#3D3D3D"/>
<path d="M118.79 12.52H112.54V18.77H118.79V12.52Z" fill="#D6D6D6"/>
<path d="M112.53 12.52H106.28V18.77H112.53V12.52Z" fill="#A5A5A5"/>
<path d="M106.28 12.52H100.03V18.77H106.28V12.52Z" fill="#A5A5A5"/>
<path d="M100.03 12.52H93.78V18.77H100.03V12.52Z" fill="#A5A5A5"/>
<path d="M93.78 12.52H87.53V18.77H93.78V12.52Z" fill="#A5A5A5"/>
<path d="M87.53 12.52H81.28V18.77H87.53V12.52Z" fill="#A5A5A5"/>
<path d="M81.28 12.52H75.03V18.77H81.28V12.52Z" fill="#A5A5A5"/>
<path d="M75.03 12.52H68.78V18.77H75.03V12.52Z" fill="#A5A5A5"/>
<path d="M68.78 12.52H62.53V18.77H68.78V12.52Z" fill="#A5A5A5"/>
<path d="M62.53 12.52H56.28V18.77H62.53V12.52Z" fill="#A5A5A5"/>
<path d="M56.28 12.52H50.03V18.77H56.28V12.52Z" fill="#D6D6D6"/>
<path d="M50.03 12.52H43.78V18.77H50.03V12.52Z" fill="#D6D6D6"/>
<path d="M43.78 12.52H37.53V18.77H43.78V12.52Z" fill="#D6D6D6"/>
<path d="M37.52 12.52H31.27V18.77H37.52V12.52Z" fill="#A5A5A5"/>
<path d="M31.27 12.52H25.02V18.77H31.27V12.52Z" fill="#808080"/>
<path d="M25.02 12.52H18.77V18.77H25.02V12.52Z" fill="#808080"/>
<path d="M18.77 12.52H12.52V18.77H18.77V12.52Z" fill="#808080"/>
<path d="M12.52 12.52H6.27002V18.77H12.52V12.52Z" fill="#808080"/>
<path d="M6.27002 12.52H0.0200195V18.77H6.27002V12.52Z" fill="#4C4C4C"/>
<path d="M150.04 18.77H143.79V25.02H150.04V18.77Z" fill="#4C4C4C"/>
<path d="M143.79 18.77H137.54V25.02H143.79V18.77Z" fill="#3D3D3D"/>
<path d="M137.54 18.77H131.29V25.02H137.54V18.77Z" fill="#3D3D3D"/>
<path d="M131.29 18.77H125.04V25.02H131.29V18.77Z" fill="#3D3D3D"/>
<path d="M125.04 18.77H118.79V25.02H125.04V18.77Z" fill="#3D3D3D"/>
<path d="M118.79 18.77H112.54V25.02H118.79V18.77Z" fill="#A5A5A5"/>
<path d="M112.53 18.77H106.28V25.02H112.53V18.77Z" fill="#A5A5A5"/>
<path d="M106.28 18.77H100.03V25.02H106.28V18.77Z" fill="#A5A5A5"/>
<path d="M100.03 18.77H93.78V25.02H100.03V18.77Z" fill="#A5A5A5"/>
<path d="M93.78 18.77H87.53V25.02H93.78V18.77Z" fill="#A5A5A5"/>
<path d="M87.53 18.77H81.28V25.02H87.53V18.77Z" fill="#A5A5A5"/>
<path d="M81.28 18.77H75.03V25.02H81.28V18.77Z" fill="#A5A5A5"/>
<path d="M75.03 18.77H68.78V25.02H75.03V18.77Z" fill="#A5A5A5"/>
<path d="M68.78 18.77H62.53V25.02H68.78V18.77Z" fill="#A5A5A5"/>
<path d="M62.53 18.77H56.28V25.02H62.53V18.77Z" fill="#D6D6D6"/>
<path d="M56.28 18.77H50.03V25.02H56.28V18.77Z" fill="#D6D6D6"/>
<path d="M50.03 18.77H43.78V25.02H50.03V18.77Z" fill="#D6D6D6"/>
<path d="M43.78 18.77H37.53V25.02H43.78V18.77Z" fill="#A5A5A5"/>
<path d="M37.52 18.77H31.27V25.02H37.52V18.77Z" fill="#A5A5A5"/>
<path d="M31.27 18.77H25.02V25.02H31.27V18.77Z" fill="#808080"/>
<path d="M25.02 18.77H18.77V25.02H25.02V18.77Z" fill="#808080"/>
<path d="M18.77 18.77H12.52V25.02H18.77V18.77Z" fill="#808080"/>
<path d="M12.52 18.77H6.27002V25.02H12.52V18.77Z" fill="#808080"/>
<path d="M6.27002 18.77H0.0200195V25.02H6.27002V18.77Z" fill="#4C4C4C"/>
<path d="M150.04 25.02H143.79V31.27H150.04V25.02Z" fill="#4C4C4C"/>
<path d="M143.79 25.02H137.54V31.27H143.79V25.02Z" fill="#3D3D3D"/>
<path d="M137.54 25.02H131.29V31.27H137.54V25.02Z" fill="#3D3D3D"/>
<path d="M131.29 25.02H125.04V31.27H131.29V25.02Z" fill="#3D3D3D"/>
<path d="M125.04 25.02H118.79V31.27H125.04V25.02Z" fill="#3D3D3D"/>
<path d="M118.79 25.02H112.54V31.27H118.79V25.02Z" fill="#A5A5A5"/>
<path d="M112.53 25.02H106.28V31.27H112.53V25.02Z" fill="#A5A5A5"/>
<path d="M106.28 25.02H100.03V31.27H106.28V25.02Z" fill="#A5A5A5"/>
<path d="M100.03 25.02H93.78V31.27H100.03V25.02Z" fill="#A5A5A5"/>
<path d="M93.78 25.02H87.53V31.27H93.78V25.02Z" fill="#A5A5A5"/>
<path d="M87.53 25.02H81.28V31.27H87.53V25.02Z" fill="#A5A5A5"/>
<path d="M81.28 25.02H75.03V31.27H81.28V25.02Z" fill="#A5A5A5"/>
<path d="M75.03 25.02H68.78V31.27H75.03V25.02Z" fill="#A5A5A5"/>
<path d="M68.78 25.02H62.53V31.27H68.78V25.02Z" fill="#D6D6D6"/>
<path d="M62.53 25.02H56.28V31.27H62.53V25.02Z" fill="#D6D6D6"/>
<path d="M56.28 25.02H50.03V31.27H56.28V25.02Z" fill="#D6D6D6"/>
<path d="M50.03 25.02H43.78V31.27H50.03V25.02Z" fill="#A5A5A5"/>
<path d="M43.78 25.02H37.53V31.27H43.78V25.02Z" fill="#A5A5A5"/>
<path d="M37.52 25.02H31.27V31.27H37.52V25.02Z" fill="#A5A5A5"/>
<path d="M31.27 25.02H25.02V31.27H31.27V25.02Z" fill="#808080"/>
<path d="M25.02 25.02H18.77V31.27H25.02V25.02Z" fill="#808080"/>
<path d="M18.77 25.02H12.52V31.27H18.77V25.02Z" fill="#808080"/>
<path d="M12.52 25.02H6.27002V31.27H12.52V25.02Z" fill="#808080"/>
<path d="M6.27002 25.02H0.0200195V31.27H6.27002V25.02Z" fill="#4C4C4C"/>
<path d="M150.04 31.27H143.79V37.52H150.04V31.27Z" fill="#4C4C4C"/>
<path d="M143.79 31.27H137.54V37.52H143.79V31.27Z" fill="#3D3D3D"/>
<path d="M137.54 31.27H131.29V37.52H137.54V31.27Z" fill="#3D3D3D"/>
<path d="M131.29 31.27H125.04V37.52H131.29V31.27Z" fill="#3D3D3D"/>
<path d="M125.04 31.27H118.79V37.52H125.04V31.27Z" fill="#3D3D3D"/>
<path d="M118.79 31.27H112.54V37.52H118.79V31.27Z" fill="#A5A5A5"/>
<path d="M112.53 31.27H106.28V37.52H112.53V31.27Z" fill="#A5A5A5"/>
<path d="M106.28 31.27H100.03V37.52H106.28V31.27Z" fill="#A5A5A5"/>
<path d="M100.03 31.27H93.78V37.52H100.03V31.27Z" fill="#A5A5A5"/>
<path d="M93.78 31.27H87.53V37.52H93.78V31.27Z" fill="#A5A5A5"/>
<path d="M87.53 31.27H81.28V37.52H87.53V31.27Z" fill="#A5A5A5"/>
<path d="M81.28 31.27H75.03V37.52H81.28V31.27Z" fill="#A5A5A5"/>
<path d="M75.03 31.27H68.78V37.52H75.03V31.27Z" fill="#D6D6D6"/>
<path d="M68.78 31.27H62.53V37.52H68.78V31.27Z" fill="#D6D6D6"/>
<path d="M62.53 31.27H56.28V37.52H62.53V31.27Z" fill="#D6D6D6"/>
<path d="M56.28 31.27H50.03V37.52H56.28V31.27Z" fill="#A5A5A5"/>
<path d="M50.03 31.27H43.78V37.52H50.03V31.27Z" fill="#A5A5A5"/>
<path d="M43.78 31.27H37.53V37.52H43.78V31.27Z" fill="#A5A5A5"/>
<path d="M37.52 31.27H31.27V37.52H37.52V31.27Z" fill="#D6D6D6"/>
<path d="M31.27 31.27H25.02V37.52H31.27V31.27Z" fill="#808080"/>
<path d="M25.02 31.27H18.77V37.52H25.02V31.27Z" fill="#808080"/>
<path d="M18.77 31.27H12.52V37.52H18.77V31.27Z" fill="#808080"/>
<path d="M12.52 31.27H6.27002V37.52H12.52V31.27Z" fill="#808080"/>
<path d="M6.27002 31.27H0.0200195V37.52H6.27002V31.27Z" fill="#4C4C4C"/>
<path d="M150.04 37.53H143.79V43.78H150.04V37.53Z" fill="#4C4C4C"/>
<path d="M143.79 37.53H137.54V43.78H143.79V37.53Z" fill="#3D3D3D"/>
<path d="M137.54 37.53H131.29V43.78H137.54V37.53Z" fill="#3D3D3D"/>
<path d="M131.29 37.53H125.04V43.78H131.29V37.53Z" fill="#3D3D3D"/>
<path d="M125.04 37.53H118.79V43.78H125.04V37.53Z" fill="#3D3D3D"/>
<path d="M118.79 37.53H112.54V43.78H118.79V37.53Z" fill="#A5A5A5"/>
<path d="M112.53 37.53H106.28V43.78H112.53V37.53Z" fill="#A5A5A5"/>
<path d="M106.28 37.53H100.03V43.78H106.28V37.53Z" fill="#A5A5A5"/>
<path d="M100.03 37.53H93.78V43.78H100.03V37.53Z" fill="#A5A5A5"/>
<path d="M93.78 37.53H87.53V43.78H93.78V37.53Z" fill="#A5A5A5"/>
<path d="M87.53 37.53H81.28V43.78H87.53V37.53Z" fill="#A5A5A5"/>
<path d="M81.28 37.53H75.03V43.78H81.28V37.53Z" fill="#D6D6D6"/>
<path d="M75.03 37.53H68.78V43.78H75.03V37.53Z" fill="#D6D6D6"/>
<path d="M68.78 37.53H62.53V43.78H68.78V37.53Z" fill="#D6D6D6"/>
<path d="M62.53 37.53H56.28V43.78H62.53V37.53Z" fill="#A5A5A5"/>
<path d="M56.28 37.53H50.03V43.78H56.28V37.53Z" fill="#A5A5A5"/>
<path d="M50.03 37.53H43.78V43.78H50.03V37.53Z" fill="#A5A5A5"/>
<path d="M43.78 37.53H37.53V43.78H43.78V37.53Z" fill="#D6D6D6"/>
<path d="M37.52 37.53H31.27V43.78H37.52V37.53Z" fill="#A5A5A5"/>
<path d="M31.27 37.53H25.02V43.78H31.27V37.53Z" fill="#808080"/>
<path d="M25.02 37.53H18.77V43.78H25.02V37.53Z" fill="#808080"/>
<path d="M18.77 37.53H12.52V43.78H18.77V37.53Z" fill="#808080"/>
<path d="M12.52 37.53H6.27002V43.78H12.52V37.53Z" fill="#808080"/>
<path d="M6.27002 37.53H0.0200195V43.78H6.27002V37.53Z" fill="#4C4C4C"/>
<path d="M150.04 43.78H143.79V50.03H150.04V43.78Z" fill="#4C4C4C"/>
<path d="M143.79 43.78H137.54V50.03H143.79V43.78Z" fill="#3D3D3D"/>
<path d="M137.54 43.78H131.29V50.03H137.54V43.78Z" fill="#3D3D3D"/>
<path d="M131.29 43.78H125.04V50.03H131.29V43.78Z" fill="#3D3D3D"/>
<path d="M125.04 43.78H118.79V50.03H125.04V43.78Z" fill="#3D3D3D"/>
<path d="M118.79 43.78H112.54V50.03H118.79V43.78Z" fill="#A5A5A5"/>
<path d="M112.53 43.78H106.28V50.03H112.53V43.78Z" fill="#A5A5A5"/>
<path d="M106.28 43.78H100.03V50.03H106.28V43.78Z" fill="#A5A5A5"/>
<path d="M100.03 43.78H93.78V50.03H100.03V43.78Z" fill="#A5A5A5"/>
<path d="M93.78 43.78H87.53V50.03H93.78V43.78Z" fill="#A5A5A5"/>
<path d="M87.53 43.78H81.28V50.03H87.53V43.78Z" fill="#D6D6D6"/>
<path d="M81.28 43.78H75.03V50.03H81.28V43.78Z" fill="#D6D6D6"/>
<path d="M75.03 43.78H68.78V50.03H75.03V43.78Z" fill="#D6D6D6"/>
<path d="M68.78 43.78H62.53V50.03H68.78V43.78Z" fill="#A5A5A5"/>
<path d="M62.53 43.78H56.28V50.03H62.53V43.78Z" fill="#A5A5A5"/>
<path d="M56.28 43.78H50.03V50.03H56.28V43.78Z" fill="#A5A5A5"/>
<path d="M50.03 43.78H43.78V50.03H50.03V43.78Z" fill="#D6D6D6"/>
<path d="M43.78 43.78H37.53V50.03H43.78V43.78Z" fill="#A5A5A5"/>
<path d="M37.52 43.78H31.27V50.03H37.52V43.78Z" fill="#A5A5A5"/>
<path d="M31.27 43.78H25.02V50.03H31.27V43.78Z" fill="#808080"/>
<path d="M25.02 43.78H18.77V50.03H25.02V43.78Z" fill="#808080"/>
<path d="M18.77 43.78H12.52V50.03H18.77V43.78Z" fill="#808080"/>
<path d="M12.52 43.78H6.27002V50.03H12.52V43.78Z" fill="#808080"/>
<path d="M6.27002 43.78H0.0200195V50.03H6.27002V43.78Z" fill="#4C4C4C"/>
<path d="M150.04 50.03H143.79V56.28H150.04V50.03Z" fill="#4C4C4C"/>
<path d="M143.79 50.03H137.54V56.28H143.79V50.03Z" fill="#3D3D3D"/>
<path d="M137.54 50.03H131.29V56.28H137.54V50.03Z" fill="#3D3D3D"/>
<path d="M131.29 50.03H125.04V56.28H131.29V50.03Z" fill="#3D3D3D"/>
<path d="M125.04 50.03H118.79V56.28H125.04V50.03Z" fill="#3D3D3D"/>
<path d="M118.79 50.03H112.54V56.28H118.79V50.03Z" fill="#A5A5A5"/>
<path d="M112.53 50.03H106.28V56.28H112.53V50.03Z" fill="#A5A5A5"/>
<path d="M106.28 50.03H100.03V56.28H106.28V50.03Z" fill="#A5A5A5"/>
<path d="M100.03 50.03H93.78V56.28H100.03V50.03Z" fill="#A5A5A5"/>
<path d="M93.78 50.03H87.53V56.28H93.78V50.03Z" fill="#D6D6D6"/>
<path d="M87.53 50.03H81.28V56.28H87.53V50.03Z" fill="#D6D6D6"/>
<path d="M81.28 50.03H75.03V56.28H81.28V50.03Z" fill="#D6D6D6"/>
<path d="M75.03 50.03H68.78V56.28H75.03V50.03Z" fill="#A5A5A5"/>
<path d="M68.78 50.03H62.53V56.28H68.78V50.03Z" fill="#A5A5A5"/>
<path d="M62.53 50.03H56.28V56.28H62.53V50.03Z" fill="#A5A5A5"/>
<path d="M56.28 50.03H50.03V56.28H56.28V50.03Z" fill="#D6D6D6"/>
<path d="M50.03 50.03H43.78V56.28H50.03V50.03Z" fill="#A5A5A5"/>
<path d="M43.78 50.03H37.53V56.28H43.78V50.03Z" fill="#A5A5A5"/>
<path d="M37.52 50.03H31.27V56.28H37.52V50.03Z" fill="#A5A5A5"/>
<path d="M31.27 50.03H25.02V56.28H31.27V50.03Z" fill="#808080"/>
<path d="M25.02 50.03H18.77V56.28H25.02V50.03Z" fill="#808080"/>
<path d="M18.77 50.03H12.52V56.28H18.77V50.03Z" fill="#808080"/>
<path d="M12.52 50.03H6.27002V56.28H12.52V50.03Z" fill="#808080"/>
<path d="M6.27002 50.03H0.0200195V56.28H6.27002V50.03Z" fill="#4C4C4C"/>
<path d="M150.04 56.28H143.79V62.53H150.04V56.28Z" fill="#4C4C4C"/>
<path d="M143.79 56.28H137.54V62.53H143.79V56.28Z" fill="#3D3D3D"/>
<path d="M137.54 56.28H131.29V62.53H137.54V56.28Z" fill="#3D3D3D"/>
<path d="M131.29 56.28H125.04V62.53H131.29V56.28Z" fill="#3D3D3D"/>
<path d="M125.04 56.28H118.79V62.53H125.04V56.28Z" fill="#3D3D3D"/>
<path d="M118.79 56.28H112.54V62.53H118.79V56.28Z" fill="#A5A5A5"/>
<path d="M112.53 56.28H106.28V62.53H112.53V56.28Z" fill="#A5A5A5"/>
<path d="M106.28 56.28H100.03V62.53H106.28V56.28Z" fill="#A5A5A5"/>
<path d="M150.04 62.53H143.79V68.78H150.04V62.53Z" fill="#4C4C4C"/>
<path d="M143.79 62.53H137.54V68.78H143.79V62.53Z" fill="#3D3D3D"/>
<path d="M137.54 62.53H131.29V68.78H137.54V62.53Z" fill="#3D3D3D"/>
<path d="M131.29 62.53H125.04V68.78H131.29V62.53Z" fill="#3D3D3D"/>
<path d="M125.04 62.53H118.79V68.78H125.04V62.53Z" fill="#3D3D3D"/>
<path d="M118.79 62.53H112.54V68.78H118.79V62.53Z" fill="#A5A5A5"/>
<path d="M112.53 62.53H106.28V68.78H112.53V62.53Z" fill="#A5A5A5"/>
<path d="M106.28 62.53H100.03V68.78H106.28V62.53Z" fill="#D6D6D6"/>
<path d="M150.04 68.78H143.79V75.03H150.04V68.78Z" fill="#4C4C4C"/>
<path d="M143.79 68.78H137.54V75.03H143.79V68.78Z" fill="#3D3D3D"/>
<path d="M137.54 68.78H131.29V75.03H137.54V68.78Z" fill="#3D3D3D"/>
<path d="M131.29 68.78H125.04V75.03H131.29V68.78Z" fill="#3D3D3D"/>
<path d="M125.04 68.78H118.79V75.03H125.04V68.78Z" fill="#3D3D3D"/>
<path d="M118.79 68.78H112.54V75.03H118.79V68.78Z" fill="#A5A5A5"/>
<path d="M112.53 68.78H106.28V75.03H112.53V68.78Z" fill="#D6D6D6"/>
<path d="M106.28 68.78H100.03V75.03H106.28V68.78Z" fill="#D6D6D6"/>
<path d="M150.04 75.03H143.79V81.28H150.04V75.03Z" fill="#4C4C4C"/>
<path d="M143.79 75.03H137.54V81.28H143.79V75.03Z" fill="#3D3D3D"/>
<path d="M137.54 75.03H131.29V81.28H137.54V75.03Z" fill="#3D3D3D"/>
<path d="M131.29 75.03H125.04V81.28H131.29V75.03Z" fill="#3D3D3D"/>
<path d="M125.04 75.03H118.79V81.28H125.04V75.03Z" fill="#3D3D3D"/>
<path d="M118.79 75.03H112.54V81.28H118.79V75.03Z" fill="#D6D6D6"/>
<path d="M112.53 75.03H106.28V81.28H112.53V75.03Z" fill="#D6D6D6"/>
<path d="M106.28 75.03H100.03V81.28H106.28V75.03Z" fill="#D6D6D6"/>
<path d="M150.04 81.28H143.79V87.53H150.04V81.28Z" fill="#4C4C4C"/>
<path d="M143.79 81.28H137.54V87.53H143.79V81.28Z" fill="#3D3D3D"/>
<path d="M137.54 81.28H131.29V87.53H137.54V81.28Z" fill="#3D3D3D"/>
<path d="M131.29 81.28H125.04V87.53H131.29V81.28Z" fill="#3D3D3D"/>
<path d="M125.04 81.28H118.79V87.53H125.04V81.28Z" fill="#3D3D3D"/>
<path d="M118.79 81.28H112.54V87.53H118.79V81.28Z" fill="#D6D6D6"/>
<path d="M112.53 81.28H106.28V87.53H112.53V81.28Z" fill="#D6D6D6"/>
<path d="M106.28 81.28H100.03V87.53H106.28V81.28Z" fill="#A5A5A5"/>
<path d="M150.04 87.53H143.79V93.78H150.04V87.53Z" fill="#4C4C4C"/>
<path d="M143.79 87.53H137.54V93.78H143.79V87.53Z" fill="#3D3D3D"/>
<path d="M137.54 87.53H131.29V93.78H137.54V87.53Z" fill="#3D3D3D"/>
<path d="M131.29 87.53H125.04V93.78H131.29V87.53Z" fill="#3D3D3D"/>
<path d="M125.04 87.53H118.79V93.78H125.04V87.53Z" fill="#3D3D3D"/>
<path d="M118.79 87.53H112.54V93.78H118.79V87.53Z" fill="#D6D6D6"/>
<path d="M112.53 87.53H106.28V93.78H112.53V87.53Z" fill="#A5A5A5"/>
<path d="M106.28 87.53H100.03V93.78H106.28V87.53Z" fill="#A5A5A5"/>
<path d="M150.04 93.78H143.79V100.03H150.04V93.78Z" fill="#4C4C4C"/>
<path d="M143.79 93.78H137.54V100.03H143.79V93.78Z" fill="#3D3D3D"/>
<path d="M137.54 93.78H131.29V100.03H137.54V93.78Z" fill="#3D3D3D"/>
<path d="M131.29 93.78H125.04V100.03H131.29V93.78Z" fill="#3D3D3D"/>
<path d="M125.04 93.78H118.79V100.03H125.04V93.78Z" fill="#3D3D3D"/>
<path d="M118.79 93.78H112.54V100.03H118.79V93.78Z" fill="#A5A5A5"/>
<path d="M112.53 93.78H106.28V100.03H112.53V93.78Z" fill="#A5A5A5"/>
<path d="M106.28 93.78H100.03V100.03H106.28V93.78Z" fill="#A5A5A5"/>
<path d="M150.04 100.03H143.79V106.28H150.04V100.03Z" fill="#4C4C4C"/>
<path d="M143.79 100.03H137.54V106.28H143.79V100.03Z" fill="#3D3D3D"/>
<path d="M137.54 100.03H131.29V106.28H137.54V100.03Z" fill="#3D3D3D"/>
<path d="M131.29 100.03H125.04V106.28H131.29V100.03Z" fill="#3D3D3D"/>
<path d="M125.04 100.03H118.79V106.28H125.04V100.03Z" fill="#3D3D3D"/>
<path d="M118.79 100.03H112.54V106.28H118.79V100.03Z" fill="#A5A5A5"/>
<path d="M112.53 100.03H106.28V106.28H112.53V100.03Z" fill="#A5A5A5"/>
<path d="M106.28 100.03H100.03V106.28H106.28V100.03Z" fill="#D6D6D6"/>
<path d="M100.03 62.53H93.78V68.78H100.03V62.53Z" fill="#D6D6D6"/>
<path d="M93.78 62.53H87.53V68.78H93.78V62.53Z" fill="#D6D6D6"/>
<path d="M87.53 62.53H81.28V68.78H87.53V62.53Z" fill="#A5A5A5"/>
<path d="M100.03 68.78H93.78V75.03H100.03V68.78Z" fill="#D6D6D6"/>
<path d="M93.78 68.78H87.53V75.03H93.78V68.78Z" fill="#A5A5A5"/>
<path d="M87.53 68.78H81.28V75.03H87.53V68.78Z" fill="#A5A5A5"/>
<path d="M100.03 75.03H93.78V81.28H100.03V75.03Z" fill="#A5A5A5"/>
<path d="M93.78 75.03H87.53V81.28H93.78V75.03Z" fill="#A5A5A5"/>
<path d="M87.53 75.03H81.28V81.28H87.53V75.03Z" fill="#A5A5A5"/>
<path d="M100.03 81.28H93.78V87.53H100.03V81.28Z" fill="#A5A5A5"/>
<path d="M93.78 81.28H87.53V87.53H93.78V81.28Z" fill="#A5A5A5"/>
<path d="M87.53 81.28H81.28V87.53H87.53V81.28Z" fill="#D6D6D6"/>
<path d="M100.03 87.53H93.78V93.78H100.03V87.53Z" fill="#A5A5A5"/>
<path d="M93.78 87.53H87.53V93.78H93.78V87.53Z" fill="#D6D6D6"/>
<path d="M87.53 87.53H81.28V93.78H87.53V87.53Z" fill="#A5A5A5"/>
<path d="M100.03 93.78H93.78V100.03H100.03V93.78Z" fill="#D6D6D6"/>
<path d="M93.78 93.78H87.53V100.03H93.78V93.78Z" fill="#A5A5A5"/>
<path d="M87.53 93.78H81.28V100.03H87.53V93.78Z" fill="#A5A5A5"/>
<path d="M100.03 100.03H93.78V106.28H100.03V100.03Z" fill="#A5A5A5"/>
<path d="M93.78 100.03H87.53V106.28H93.78V100.03Z" fill="#A5A5A5"/>
<path d="M87.53 100.03H81.28V106.28H87.53V100.03Z" fill="#A5A5A5"/>
<path d="M81.28 62.53H75.03V68.78H81.28V62.53Z" fill="#A5A5A5"/>
<path d="M75.03 62.53H68.78V68.78H75.03V62.53Z" fill="#A5A5A5"/>
<path d="M68.78 62.53H62.53V68.78H68.78V62.53Z" fill="#D6D6D6"/>
<path d="M81.28 68.78H75.03V75.03H81.28V68.78Z" fill="#A5A5A5"/>
<path d="M75.03 68.78H68.78V75.03H75.03V68.78Z" fill="#D6D6D6"/>
<path d="M68.78 68.78H62.53V75.03H68.78V68.78Z" fill="#A5A5A5"/>
<path d="M81.28 75.03H75.03V81.28H81.28V75.03Z" fill="#D6D6D6"/>
<path d="M75.03 75.03H68.78V81.28H75.03V75.03Z" fill="#A5A5A5"/>
<path d="M68.78 75.03H62.53V81.28H68.78V75.03Z" fill="#A5A5A5"/>
<path d="M81.28 81.28H75.03V87.53H81.28V81.28Z" fill="#A5A5A5"/>
<path d="M75.03 81.28H68.78V87.53H75.03V81.28Z" fill="#A5A5A5"/>
<path d="M68.78 81.28H62.53V87.53H68.78V81.28Z" fill="#A5A5A5"/>
<path d="M81.28 87.53H75.03V93.78H81.28V87.53Z" fill="#A5A5A5"/>
<path d="M75.03 87.53H68.78V93.78H75.03V87.53Z" fill="#A5A5A5"/>
<path d="M68.78 87.53H62.53V93.78H68.78V87.53Z" fill="#A5A5A5"/>
<path d="M81.28 93.78H75.03V100.03H81.28V93.78Z" fill="#A5A5A5"/>
<path d="M75.03 93.78H68.78V100.03H75.03V93.78Z" fill="#A5A5A5"/>
<path d="M68.78 93.78H62.53V100.03H68.78V93.78Z" fill="#A5A5A5"/>
<path d="M81.28 100.03H75.03V106.28H81.28V100.03Z" fill="#A5A5A5"/>
<path d="M75.03 100.03H68.78V106.28H75.03V100.03Z" fill="#A5A5A5"/>
<path d="M68.78 100.03H62.53V106.28H68.78V100.03Z" fill="#A5A5A5"/>
<path d="M62.53 62.53H56.28V68.78H62.53V62.53Z" fill="#A5A5A5"/>
<path d="M56.28 62.53H50.03V68.78H56.28V62.53Z" fill="#A5A5A5"/>
<path d="M50.03 62.53H43.78V68.78H50.03V62.53Z" fill="#A5A5A5"/>
<path d="M62.53 68.78H56.28V75.03H62.53V68.78Z" fill="#A5A5A5"/>
<path d="M56.28 68.78H50.03V75.03H56.28V68.78Z" fill="#A5A5A5"/>
<path d="M50.03 68.78H43.78V75.03H50.03V68.78Z" fill="#A5A5A5"/>
<path d="M62.53 75.03H56.28V81.28H62.53V75.03Z" fill="#A5A5A5"/>
<path d="M56.28 75.03H50.03V81.28H56.28V75.03Z" fill="#A5A5A5"/>
<path d="M50.03 75.03H43.78V81.28H50.03V75.03Z" fill="#A5A5A5"/>
<path d="M62.53 81.28H56.28V87.53H62.53V81.28Z" fill="#A5A5A5"/>
<path d="M56.28 81.28H50.03V87.53H56.28V81.28Z" fill="#A5A5A5"/>
<path d="M50.03 81.28H43.78V87.53H50.03V81.28Z" fill="#A5A5A5"/>
<path d="M62.53 87.53H56.28V93.78H62.53V87.53Z" fill="#A5A5A5"/>
<path d="M56.28 87.53H50.03V93.78H56.28V87.53Z" fill="#A5A5A5"/>
<path d="M50.03 87.53H43.78V93.78H50.03V87.53Z" fill="#A5A5A5"/>
<path d="M62.53 93.78H56.28V100.03H62.53V93.78Z" fill="#A5A5A5"/>
<path d="M56.28 93.78H50.03V100.03H56.28V93.78Z" fill="#A5A5A5"/>
<path d="M50.03 93.78H43.78V100.03H50.03V93.78Z" fill="#A5A5A5"/>
<path d="M62.53 100.03H56.28V106.28H62.53V100.03Z" fill="#A5A5A5"/>
<path d="M56.28 100.03H50.03V106.28H56.28V100.03Z" fill="#A5A5A5"/>
<path d="M50.03 100.03H43.78V106.28H50.03V100.03Z" fill="#A5A5A5"/>
<path d="M43.78 62.53H37.53V68.78H43.78V62.53Z" fill="#A5A5A5"/>
<path d="M37.52 62.53H31.27V68.78H37.52V62.53Z" fill="#A5A5A5"/>
<path d="M43.78 68.78H37.53V75.03H43.78V68.78Z" fill="#A5A5A5"/>
<path d="M37.52 68.78H31.27V75.03H37.52V68.78Z" fill="#A5A5A5"/>
<path d="M43.78 75.03H37.53V81.28H43.78V75.03Z" fill="#A5A5A5"/>
<path d="M37.52 75.03H31.27V81.28H37.52V75.03Z" fill="#A5A5A5"/>
<path d="M43.78 81.28H37.53V87.53H43.78V81.28Z" fill="#A5A5A5"/>
<path d="M37.52 81.28H31.27V87.53H37.52V81.28Z" fill="#A5A5A5"/>
<path d="M43.78 87.53H37.53V93.78H43.78V87.53Z" fill="#A5A5A5"/>
<path d="M37.52 87.53H31.27V93.78H37.52V87.53Z" fill="#A5A5A5"/>
<path d="M43.78 93.78H37.53V100.03H43.78V93.78Z" fill="#A5A5A5"/>
<path d="M37.52 93.78H31.27V100.03H37.52V93.78Z" fill="#A5A5A5"/>
<path d="M43.78 100.03H37.53V106.28H43.78V100.03Z" fill="#A5A5A5"/>
<path d="M37.52 100.03H31.27V106.28H37.52V100.03Z" fill="#A5A5A5"/>
<path d="M100.03 56.28H93.78V62.53H100.03V56.28Z" fill="#D6D6D6"/>
<path d="M93.78 56.28H87.53V62.53H93.78V56.28Z" fill="#D6D6D6"/>
<path d="M87.53 56.28H81.28V62.53H87.53V56.28Z" fill="#D6D6D6"/>
<path d="M81.28 56.28H75.03V62.53H81.28V56.28Z" fill="#A5A5A5"/>
<path d="M75.03 56.28H68.78V62.53H75.03V56.28Z" fill="#A5A5A5"/>
<path d="M68.78 56.28H62.53V62.53H68.78V56.28Z" fill="#A5A5A5"/>
<path d="M62.53 56.28H56.28V62.53H62.53V56.28Z" fill="#D6D6D6"/>
<path d="M56.28 56.28H50.03V62.53H56.28V56.28Z" fill="#A5A5A5"/>
<path d="M50.03 56.28H43.78V62.53H50.03V56.28Z" fill="#A5A5A5"/>
<path d="M43.78 56.28H37.53V62.53H43.78V56.28Z" fill="#A5A5A5"/>
<path d="M37.52 56.28H31.27V62.53H37.52V56.28Z" fill="#A5A5A5"/>
<path d="M31.27 56.28H25.02V62.53H31.27V56.28Z" fill="#808080"/>
<path d="M25.02 56.28H18.77V62.53H25.02V56.28Z" fill="#808080"/>
<path d="M18.77 56.28H12.52V62.53H18.77V56.28Z" fill="#808080"/>
<path d="M12.52 56.28H6.27002V62.53H12.52V56.28Z" fill="#808080"/>
<path d="M6.27002 56.28H0.0200195V62.53H6.27002V56.28Z" fill="#4C4C4C"/>
<path d="M31.27 62.53H25.02V68.78H31.27V62.53Z" fill="#808080"/>
<path d="M25.02 62.53H18.77V68.78H25.02V62.53Z" fill="#808080"/>
<path d="M18.77 62.53H12.52V68.78H18.77V62.53Z" fill="#808080"/>
<path d="M12.52 62.53H6.27002V68.78H12.52V62.53Z" fill="#808080"/>
<path d="M6.27002 62.53H0.0200195V68.78H6.27002V62.53Z" fill="#4C4C4C"/>
<path d="M31.27 68.78H25.02V75.03H31.27V68.78Z" fill="#808080"/>
<path d="M25.02 68.78H18.77V75.03H25.02V68.78Z" fill="#808080"/>
<path d="M18.77 68.78H12.52V75.03H18.77V68.78Z" fill="#808080"/>
<path d="M12.52 68.78H6.27002V75.03H12.52V68.78Z" fill="#808080"/>
<path d="M6.27002 68.78H0.0200195V75.03H6.27002V68.78Z" fill="#4C4C4C"/>
<path d="M31.27 75.03H25.02V81.28H31.27V75.03Z" fill="#808080"/>
<path d="M25.02 75.03H18.77V81.28H25.02V75.03Z" fill="#808080"/>
<path d="M18.77 75.03H12.52V81.28H18.77V75.03Z" fill="#808080"/>
<path d="M12.52 75.03H6.27002V81.28H12.52V75.03Z" fill="#808080"/>
<path d="M6.27002 75.03H0.0200195V81.28H6.27002V75.03Z" fill="#4C4C4C"/>
<path d="M31.27 81.28H25.02V87.53H31.27V81.28Z" fill="#808080"/>
<path d="M25.02 81.28H18.77V87.53H25.02V81.28Z" fill="#808080"/>
<path d="M18.77 81.28H12.52V87.53H18.77V81.28Z" fill="#808080"/>
<path d="M12.52 81.28H6.27002V87.53H12.52V81.28Z" fill="#808080"/>
<path d="M6.27002 81.28H0.0200195V87.53H6.27002V81.28Z" fill="#4C4C4C"/>
<path d="M31.27 87.53H25.02V93.78H31.27V87.53Z" fill="#808080"/>
<path d="M25.02 87.53H18.77V93.78H25.02V87.53Z" fill="#808080"/>
<path d="M18.77 87.53H12.52V93.78H18.77V87.53Z" fill="#808080"/>
<path d="M12.52 87.53H6.27002V93.78H12.52V87.53Z" fill="#808080"/>
<path d="M6.27002 87.53H0.0200195V93.78H6.27002V87.53Z" fill="#4C4C4C"/>
<path d="M31.27 93.78H25.02V100.03H31.27V93.78Z" fill="#808080"/>
<path d="M25.02 93.78H18.77V100.03H25.02V93.78Z" fill="#808080"/>
<path d="M18.77 93.78H12.52V100.03H18.77V93.78Z" fill="#808080"/>
<path d="M12.52 93.78H6.27002V100.03H12.52V93.78Z" fill="#808080"/>
<path d="M6.27002 93.78H0.0200195V100.03H6.27002V93.78Z" fill="#4C4C4C"/>
<path d="M31.27 100.03H25.02V106.28H31.27V100.03Z" fill="#808080"/>
<path d="M25.02 100.03H18.77V106.28H25.02V100.03Z" fill="#808080"/>
<path d="M18.77 100.03H12.52V106.28H18.77V100.03Z" fill="#808080"/>
<path d="M12.52 100.03H6.27002V106.28H12.52V100.03Z" fill="#808080"/>
<path d="M6.27002 100.03H0.0200195V106.28H6.27002V100.03Z" fill="#4C4C4C"/>
<path d="M150.04 106.28H143.79V112.53H150.04V106.28Z" fill="#4C4C4C"/>
<path d="M143.79 106.28H137.54V112.53H143.79V106.28Z" fill="#3D3D3D"/>
<path d="M137.54 106.28H131.29V112.53H137.54V106.28Z" fill="#3D3D3D"/>
<path d="M131.29 106.28H125.04V112.53H131.29V106.28Z" fill="#3D3D3D"/>
<path d="M125.04 106.28H118.79V112.53H125.04V106.28Z" fill="#3D3D3D"/>
<path d="M118.79 106.28H112.54V112.53H118.79V106.28Z" fill="#D6D6D6"/>
<path d="M112.53 106.28H106.28V112.53H112.53V106.28Z" fill="#D6D6D6"/>
<path d="M106.28 106.28H100.03V112.53H106.28V106.28Z" fill="#A5A5A5"/>
<path d="M100.03 106.28H93.78V112.53H100.03V106.28Z" fill="#A5A5A5"/>
<path d="M93.78 106.28H87.53V112.53H93.78V106.28Z" fill="#A5A5A5"/>
<path d="M87.53 106.28H81.28V112.53H87.53V106.28Z" fill="#A5A5A5"/>
<path d="M81.28 106.28H75.03V112.53H81.28V106.28Z" fill="#A5A5A5"/>
<path d="M75.03 106.28H68.78V112.53H75.03V106.28Z" fill="#A5A5A5"/>
<path d="M68.78 106.28H62.53V112.53H68.78V106.28Z" fill="#A5A5A5"/>
<path d="M62.53 106.28H56.28V112.53H62.53V106.28Z" fill="#A5A5A5"/>
<path d="M56.28 106.28H50.03V112.53H56.28V106.28Z" fill="#A5A5A5"/>
<path d="M50.03 106.28H43.78V112.53H50.03V106.28Z" fill="#A5A5A5"/>
<path d="M43.78 106.28H37.53V112.53H43.78V106.28Z" fill="#A5A5A5"/>
<path d="M37.52 106.28H31.27V112.53H37.52V106.28Z" fill="#D6D6D6"/>
<path d="M31.27 106.28H25.02V112.53H31.27V106.28Z" fill="#808080"/>
<path d="M25.02 106.28H18.77V112.53H25.02V106.28Z" fill="#808080"/>
<path d="M18.77 106.28H12.52V112.53H18.77V106.28Z" fill="#808080"/>
<path d="M12.52 106.28H6.27002V112.53H12.52V106.28Z" fill="#808080"/>
<path d="M6.27002 106.28H0.0200195V112.53H6.27002V106.28Z" fill="#4C4C4C"/>
<path d="M150.04 112.54H143.79V118.79H150.04V112.54Z" fill="#4C4C4C"/>
<path d="M143.79 112.54H137.54V118.79H143.79V112.54Z" fill="#3D3D3D"/>
<path d="M137.54 112.54H131.29V118.79H137.54V112.54Z" fill="#3D3D3D"/>
<path d="M131.29 112.54H125.04V118.79H131.29V112.54Z" fill="#3D3D3D"/>
<path d="M125.04 112.54H118.79V118.79H125.04V112.54Z" fill="#3D3D3D"/>
<path d="M118.79 112.54H112.54V118.79H118.79V112.54Z" fill="#808080"/>
<path d="M112.53 112.54H106.28V118.79H112.53V112.54Z" fill="#D6D6D6"/>
<path d="M106.28 112.54H100.03V118.79H106.28V112.54Z" fill="#D6D6D6"/>
<path d="M100.03 112.54H93.78V118.79H100.03V112.54Z" fill="#D6D6D6"/>
<path d="M93.78 112.54H87.53V118.79H93.78V112.54Z" fill="#D6D6D6"/>
<path d="M87.53 112.54H81.28V118.79H87.53V112.54Z" fill="#D6D6D6"/>
<path d="M81.28 112.54H75.03V118.79H81.28V112.54Z" fill="#D6D6D6"/>
<path d="M75.03 112.54H68.78V118.79H75.03V112.54Z" fill="#D6D6D6"/>
<path d="M68.78 112.54H62.53V118.79H68.78V112.54Z" fill="#D6D6D6"/>
<path d="M62.53 112.54H56.28V118.79H62.53V112.54Z" fill="#D6D6D6"/>
<path d="M56.28 112.54H50.03V118.79H56.28V112.54Z" fill="#D6D6D6"/>
<path d="M50.03 112.54H43.78V118.79H50.03V112.54Z" fill="#D6D6D6"/>
<path d="M43.78 112.54H37.53V118.79H43.78V112.54Z" fill="#D6D6D6"/>
<path d="M37.52 112.54H31.27V118.79H37.52V112.54Z" fill="#A5A5A5"/>
<path d="M31.27 112.54H25.02V118.79H31.27V112.54Z" fill="#808080"/>
<path d="M25.02 112.54H18.77V118.79H25.02V112.54Z" fill="#808080"/>
<path d="M18.77 112.54H12.52V118.79H18.77V112.54Z" fill="#808080"/>
<path d="M12.52 112.54H6.27002V118.79H12.52V112.54Z" fill="#808080"/>
<path d="M6.27002 112.54H0.0200195V118.79H6.27002V112.54Z" fill="#4C4C4C"/>
<path d="M150.04 118.79H143.79V125.04H150.04V118.79Z" fill="#4C4C4C"/>
<path d="M143.79 118.79H137.54V125.04H143.79V118.79Z" fill="#3D3D3D"/>
<path d="M137.54 118.79H131.29V125.04H137.54V118.79Z" fill="#3D3D3D"/>
<path d="M131.29 118.79H125.04V125.04H131.29V118.79Z" fill="#3D3D3D"/>
<path d="M125.04 118.79H118.79V125.04H125.04V118.79Z" fill="#808080"/>
<path d="M118.79 118.79H112.54V125.04H118.79V118.79Z" fill="#606060"/>
<path d="M112.53 118.79H106.28V125.04H112.53V118.79Z" fill="#606060"/>
<path d="M106.28 118.79H100.03V125.04H106.28V118.79Z" fill="#606060"/>
<path d="M100.03 118.79H93.78V125.04H100.03V118.79Z" fill="#606060"/>
<path d="M93.78 118.79H87.53V125.04H93.78V118.79Z" fill="#606060"/>
<path d="M87.53 118.79H81.28V125.04H87.53V118.79Z" fill="#606060"/>
<path d="M81.28 118.79H75.03V125.04H81.28V118.79Z" fill="#606060"/>
<path d="M75.03 118.79H68.78V125.04H75.03V118.79Z" fill="#606060"/>
<path d="M68.78 118.79H62.53V125.04H68.78V118.79Z" fill="#606060"/>
<path d="M62.53 118.79H56.28V125.04H62.53V118.79Z" fill="#606060"/>
<path d="M56.28 118.79H50.03V125.04H56.28V118.79Z" fill="#606060"/>
<path d="M50.03 118.79H43.78V125.04H50.03V118.79Z" fill="#606060"/>
<path d="M43.78 118.79H37.53V125.04H43.78V118.79Z" fill="#606060"/>
<path d="M37.52 118.79H31.27V125.04H37.52V118.79Z" fill="#606060"/>
<path d="M31.27 118.79H25.02V125.04H31.27V118.79Z" fill="#A5A5A5"/>
<path d="M25.02 118.79H18.77V125.04H25.02V118.79Z" fill="#808080"/>
<path d="M18.77 118.79H12.52V125.04H18.77V118.79Z" fill="#808080"/>
<path d="M12.52 118.79H6.27002V125.04H12.52V118.79Z" fill="#808080"/>
<path d="M6.27002 118.79H0.0200195V125.04H6.27002V118.79Z" fill="#4C4C4C"/>
<path d="M150.04 125.04H143.79V131.29H150.04V125.04Z" fill="#4C4C4C"/>
<path d="M143.79 125.04H137.54V131.29H143.79V125.04Z" fill="#3D3D3D"/>
<path d="M137.54 125.04H131.29V131.29H137.54V125.04Z" fill="#3D3D3D"/>
<path d="M131.29 125.04H125.04V131.29H131.29V125.04Z" fill="#808080"/>
<path d="M125.04 125.04H118.79V131.29H125.04V125.04Z" fill="#606060"/>
<path d="M118.79 125.04H112.54V131.29H118.79V125.04Z" fill="#606060"/>
<path d="M112.53 125.04H106.28V131.29H112.53V125.04Z" fill="#606060"/>
<path d="M106.28 125.04H100.03V131.29H106.28V125.04Z" fill="#606060"/>
<path d="M100.03 125.04H93.78V131.29H100.03V125.04Z" fill="#606060"/>
<path d="M93.78 125.04H87.53V131.29H93.78V125.04Z" fill="#606060"/>
<path d="M87.53 125.04H81.28V131.29H87.53V125.04Z" fill="#606060"/>
<path d="M81.28 125.04H75.03V131.29H81.28V125.04Z" fill="#606060"/>
<path d="M75.03 125.04H68.78V131.29H75.03V125.04Z" fill="#606060"/>
<path d="M68.78 125.04H62.53V131.29H68.78V125.04Z" fill="#606060"/>
<path d="M62.53 125.04H56.28V131.29H62.53V125.04Z" fill="#606060"/>
<path d="M56.28 125.04H50.03V131.29H56.28V125.04Z" fill="#606060"/>
<path d="M50.03 125.04H43.78V131.29H50.03V125.04Z" fill="#606060"/>
<path d="M43.78 125.04H37.53V131.29H43.78V125.04Z" fill="#606060"/>
<path d="M37.52 125.04H31.27V131.29H37.52V125.04Z" fill="#606060"/>
<path d="M31.27 125.04H25.02V131.29H31.27V125.04Z" fill="#606060"/>
<path d="M25.02 125.04H18.77V131.29H25.02V125.04Z" fill="#A5A5A5"/>
<path d="M18.77 125.04H12.52V131.29H18.77V125.04Z" fill="#808080"/>
<path d="M12.52 125.04H6.27002V131.29H12.52V125.04Z" fill="#808080"/>
<path d="M6.27002 125.04H0.0200195V131.29H6.27002V125.04Z" fill="#4C4C4C"/>
<path d="M150.04 131.29H143.79V137.54H150.04V131.29Z" fill="#4C4C4C"/>
<path d="M143.79 131.29H137.54V137.54H143.79V131.29Z" fill="#3D3D3D"/>
<path d="M137.54 131.29H131.29V137.54H137.54V131.29Z" fill="#808080"/>
<path d="M131.29 131.29H125.04V137.54H131.29V131.29Z" fill="#606060"/>
<path d="M125.04 131.29H118.79V137.54H125.04V131.29Z" fill="#606060"/>
<path d="M118.79 131.29H112.54V137.54H118.79V131.29Z" fill="#606060"/>
<path d="M112.53 131.29H106.28V137.54H112.53V131.29Z" fill="#606060"/>
<path d="M106.28 131.29H100.03V137.54H106.28V131.29Z" fill="#606060"/>
<path d="M100.03 131.29H93.78V137.54H100.03V131.29Z" fill="#606060"/>
<path d="M93.78 131.29H87.53V137.54H93.78V131.29Z" fill="#606060"/>
<path d="M87.53 131.29H81.28V137.54H87.53V131.29Z" fill="#606060"/>
<path d="M81.28 131.29H75.03V137.54H81.28V131.29Z" fill="#606060"/>
<path d="M75.03 131.29H68.78V137.54H75.03V131.29Z" fill="#606060"/>
<path d="M68.78 131.29H62.53V137.54H68.78V131.29Z" fill="#606060"/>
<path d="M62.53 131.29H56.28V137.54H62.53V131.29Z" fill="#606060"/>
<path d="M56.28 131.29H50.03V137.54H56.28V131.29Z" fill="#606060"/>
<path d="M50.03 131.29H43.78V137.54H50.03V131.29Z" fill="#606060"/>
<path d="M43.78 131.29H37.53V137.54H43.78V131.29Z" fill="#606060"/>
<path d="M37.52 131.29H31.27V137.54H37.52V131.29Z" fill="#606060"/>
<path d="M31.27 131.29H25.02V137.54H31.27V131.29Z" fill="#606060"/>
<path d="M25.02 131.29H18.77V137.54H25.02V131.29Z" fill="#606060"/>
<path d="M18.77 131.29H12.52V137.54H18.77V131.29Z" fill="#A5A5A5"/>
<path d="M12.52 131.29H6.27002V137.54H12.52V131.29Z" fill="#808080"/>
<path d="M6.27002 131.29H0.0200195V137.54H6.27002V131.29Z" fill="#4C4C4C"/>
<path d="M143.79 137.54H137.54V143.79H143.79V137.54Z" fill="#4C4C4C"/>
<path d="M137.54 137.54H131.29V143.79H137.54V137.54Z" fill="#606060"/>
<path d="M131.29 137.54H125.04V143.79H131.29V137.54Z" fill="#606060"/>
<path d="M125.04 137.54H118.79V143.79H125.04V137.54Z" fill="#606060"/>
<path d="M118.79 137.54H112.54V143.79H118.79V137.54Z" fill="#606060"/>
<path d="M112.53 137.54H106.28V143.79H112.53V137.54Z" fill="#606060"/>
<path d="M106.28 137.54H100.03V143.79H106.28V137.54Z" fill="#606060"/>
<path d="M100.03 137.54H93.78V143.79H100.03V137.54Z" fill="#606060"/>
<path d="M93.78 137.54H87.53V143.79H93.78V137.54Z" fill="#606060"/>
<path d="M87.53 137.54H81.28V143.79H87.53V137.54Z" fill="#606060"/>
<path d="M81.28 137.54H75.03V143.79H81.28V137.54Z" fill="#606060"/>
<path d="M75.03 137.54H68.78V143.79H75.03V137.54Z" fill="#606060"/>
<path d="M68.78 137.54H62.53V143.79H68.78V137.54Z" fill="#606060"/>
<path d="M62.53 137.54H56.28V143.79H62.53V137.54Z" fill="#606060"/>
<path d="M56.28 137.54H50.03V143.79H56.28V137.54Z" fill="#606060"/>
<path d="M50.03 137.54H43.78V143.79H50.03V137.54Z" fill="#606060"/>
<path d="M43.78 137.54H37.53V143.79H43.78V137.54Z" fill="#606060"/>
<path d="M37.52 137.54H31.27V143.79H37.52V137.54Z" fill="#606060"/>
<path d="M31.27 137.54H25.02V143.79H31.27V137.54Z" fill="#606060"/>
<path d="M25.02 137.54H18.77V143.79H25.02V137.54Z" fill="#606060"/>
<path d="M18.77 137.54H12.52V143.79H18.77V137.54Z" fill="#606060"/>
<path d="M12.52 137.54H6.27002V143.79H12.52V137.54Z" fill="#4C4C4C"/>
<path d="M137.54 143.79H131.29V150.04H137.54V143.79Z" fill="#4C4C4C"/>
<path d="M131.29 143.79H125.04V150.04H131.29V143.79Z" fill="#4C4C4C"/>
<path d="M125.04 143.79H118.79V150.04H125.04V143.79Z" fill="#4C4C4C"/>
<path d="M118.79 143.79H112.54V150.04H118.79V143.79Z" fill="#4C4C4C"/>
<path d="M112.53 143.79H106.28V150.04H112.53V143.79Z" fill="#4C4C4C"/>
<path d="M106.28 143.79H100.03V150.04H106.28V143.79Z" fill="#4C4C4C"/>
<path d="M100.03 143.79H93.78V150.04H100.03V143.79Z" fill="#4C4C4C"/>
<path d="M93.78 143.79H87.53V150.04H93.78V143.79Z" fill="#4C4C4C"/>
<path d="M87.53 143.79H81.28V150.04H87.53V143.79Z" fill="#4C4C4C"/>
<path d="M81.28 143.79H75.03V150.04H81.28V143.79Z" fill="#4C4C4C"/>
<path d="M75.03 143.79H68.78V150.04H75.03V143.79Z" fill="#4C4C4C"/>
<path d="M68.78 143.79H62.53V150.04H68.78V143.79Z" fill="#4C4C4C"/>
<path d="M62.53 143.79H56.28V150.04H62.53V143.79Z" fill="#4C4C4C"/>
<path d="M56.28 143.79H50.03V150.04H56.28V143.79Z" fill="#4C4C4C"/>
<path d="M50.03 143.79H43.78V150.04H50.03V143.79Z" fill="#4C4C4C"/>
<path d="M43.78 143.79H37.53V150.04H43.78V143.79Z" fill="#4C4C4C"/>
<path d="M37.52 143.79H31.27V150.04H37.52V143.79Z" fill="#4C4C4C"/>
<path d="M31.27 143.79H25.02V150.04H31.27V143.79Z" fill="#4C4C4C"/>
<path d="M25.02 143.79H18.77V150.04H25.02V143.79Z" fill="#4C4C4C"/>
<path d="M18.77 143.79H12.52V150.04H18.77V143.79Z" fill="#4C4C4C"/>
<path d="M71.91 81.28V75.03H65.66V68.78H59.4V62.52H53.15V31.27H65.66V62.52H71.91V68.78H78.16V62.52H84.42V31.27H96.91V62.52H90.66V68.78H84.41V75.03H78.15V81.28H71.9H71.91Z" fill="#E5E5E5"/>
<path d="M71.91 93.78V87.53H65.66V81.28H59.4V75.02H53.15V43.77H65.66V75.02H71.91V81.28H78.16V75.02H84.42V43.77H96.91V75.02H90.66V81.28H84.41V87.53H78.15V93.78H71.9H71.91Z" fill="#808080"/>
<path d="M71.91 87.53V81.28H65.66V75.03H59.4V68.77H53.15V37.52H65.66V68.77H71.91V75.03H78.16V68.77H84.42V37.52H96.91V68.77H90.66V75.03H84.41V81.28H78.15V87.53H71.9H71.91Z" fill="#282828"/>
<g style="mix-blend-mode:color">
<path d="M12.52 0.0200195V6.27002H6.27002V12.52H0.0200195V137.54H6.27002V143.79H12.52V150.04H37.52V150.02H37.53V150.04H112.53V150.02H112.54V150.04H137.54V143.79H143.79V137.54H150.04V112.54H150.02V112.53H150.04V37.53H150.02V37.52H150.04V12.52H143.79V6.27002H137.54V0.0200195H12.52Z" fill="#7DC4C8"/>
</g>
</g>
<defs>
<clipPath id="clip0_3_41022">
<rect width="150.02" height="150.02" fill="white" transform="translate(0.0200195 0.0200195)"/>
</clipPath>
</defs>
</svg>
