<svg width="151" height="151" viewBox="0 0 151 151" fill="none" xmlns="http://www.w3.org/2000/svg">
<g clip-path="url(#clip0_3_11157)">
<path d="M12.52 0V6.25H6.27002V12.5H0.0200195V137.52H6.27002V143.77H12.52V150.02H37.52V150H37.53V150.02H112.53V150H112.54V150.02H137.54V143.77H143.79V137.52H150.04V112.52H150.02V112.51H150.04V37.51H150.02V37.5H150.04V12.5H143.79V6.25H137.54V0H12.52Z" fill="#4C4C4C"/>
<path d="M137.54 0H131.29V6.25H137.54V0Z" fill="#4C4C4C"/>
<path d="M131.29 0H125.04V6.25H131.29V0Z" fill="#4C4C4C"/>
<path d="M125.04 0H118.79V6.25H125.04V0Z" fill="#4C4C4C"/>
<path d="M118.79 0H112.54V6.25H118.79V0Z" fill="#4C4C4C"/>
<path d="M112.53 0H106.28V6.25H112.53V0Z" fill="#4C4C4C"/>
<path d="M106.28 0H100.03V6.25H106.28V0Z" fill="#4C4C4C"/>
<path d="M100.03 0H93.78V6.25H100.03V0Z" fill="#4C4C4C"/>
<path d="M93.78 0H87.53V6.25H93.78V0Z" fill="#4C4C4C"/>
<path d="M87.53 0H81.28V6.25H87.53V0Z" fill="#4C4C4C"/>
<path d="M81.28 0H75.03V6.25H81.28V0Z" fill="#4C4C4C"/>
<path d="M75.03 0H68.78V6.25H75.03V0Z" fill="#4C4C4C"/>
<path d="M68.78 0H62.53V6.25H68.78V0Z" fill="#4C4C4C"/>
<path d="M62.53 0H56.28V6.25H62.53V0Z" fill="#4C4C4C"/>
<path d="M56.28 0H50.03V6.25H56.28V0Z" fill="#4C4C4C"/>
<path d="M50.03 0H43.78V6.25H50.03V0Z" fill="#4C4C4C"/>
<path d="M43.78 0H37.53V6.25H43.78V0Z" fill="#4C4C4C"/>
<path d="M37.52 0H31.27V6.25H37.52V0Z" fill="#4C4C4C"/>
<path d="M31.27 0H25.02V6.25H31.27V0Z" fill="#4C4C4C"/>
<path d="M25.02 0H18.77V6.25H25.02V0Z" fill="#4C4C4C"/>
<path d="M18.77 0H12.52V6.25H18.77V0Z" fill="#4C4C4C"/>
<path d="M143.79 6.25H137.54V12.5H143.79V6.25Z" fill="#4C4C4C"/>
<path d="M137.54 6.25H131.29V12.5H137.54V6.25Z" fill="#3D3D3D"/>
<path d="M131.29 6.25H125.04V12.5H131.29V6.25Z" fill="#3D3D3D"/>
<path d="M125.04 6.25H118.79V12.5H125.04V6.25Z" fill="#3D3D3D"/>
<path d="M118.79 6.25H112.54V12.5H118.79V6.25Z" fill="#3D3D3D"/>
<path d="M112.53 6.25H106.28V12.5H112.53V6.25Z" fill="#D6D6D6"/>
<path d="M106.28 6.25H100.03V12.5H106.28V6.25Z" fill="#A5A5A5"/>
<path d="M100.03 6.25H93.78V12.5H100.03V6.25Z" fill="#A5A5A5"/>
<path d="M93.78 6.25H87.53V12.5H93.78V6.25Z" fill="#A5A5A5"/>
<path d="M87.53 6.25H81.28V12.5H87.53V6.25Z" fill="#A5A5A5"/>
<path d="M81.28 6.25H75.03V12.5H81.28V6.25Z" fill="#A5A5A5"/>
<path d="M75.03 6.25H68.78V12.5H75.03V6.25Z" fill="#A5A5A5"/>
<path d="M68.78 6.25H62.53V12.5H68.78V6.25Z" fill="#A5A5A5"/>
<path d="M62.53 6.25H56.28V12.5H62.53V6.25Z" fill="#A5A5A5"/>
<path d="M56.28 6.25H50.03V12.5H56.28V6.25Z" fill="#A5A5A5"/>
<path d="M50.03 6.25H43.78V12.5H50.03V6.25Z" fill="#D6D6D6"/>
<path d="M43.78 6.25H37.53V12.5H43.78V6.25Z" fill="#D6D6D6"/>
<path d="M37.52 6.25H31.27V12.5H37.52V6.25Z" fill="#808080"/>
<path d="M31.27 6.25H25.02V12.5H31.27V6.25Z" fill="#808080"/>
<path d="M25.02 6.25H18.77V12.5H25.02V6.25Z" fill="#808080"/>
<path d="M18.77 6.25H12.52V12.5H18.77V6.25Z" fill="#808080"/>
<path d="M12.52 6.25H6.27002V12.5H12.52V6.25Z" fill="#4C4C4C"/>
<path d="M150.04 12.5H143.79V18.75H150.04V12.5Z" fill="#4C4C4C"/>
<path d="M143.79 12.5H137.54V18.75H143.79V12.5Z" fill="#3D3D3D"/>
<path d="M137.54 12.5H131.29V18.75H137.54V12.5Z" fill="#3D3D3D"/>
<path d="M131.29 12.5H125.04V18.75H131.29V12.5Z" fill="#3D3D3D"/>
<path d="M125.04 12.5H118.79V18.75H125.04V12.5Z" fill="#3D3D3D"/>
<path d="M118.79 12.5H112.54V18.75H118.79V12.5Z" fill="#D6D6D6"/>
<path d="M112.53 12.5H106.28V18.75H112.53V12.5Z" fill="#A5A5A5"/>
<path d="M106.28 12.5H100.03V18.75H106.28V12.5Z" fill="#A5A5A5"/>
<path d="M100.03 12.5H93.78V18.75H100.03V12.5Z" fill="#A5A5A5"/>
<path d="M93.78 12.5H87.53V18.75H93.78V12.5Z" fill="#A5A5A5"/>
<path d="M87.53 12.5H81.28V18.75H87.53V12.5Z" fill="#A5A5A5"/>
<path d="M81.28 12.5H75.03V18.75H81.28V12.5Z" fill="#A5A5A5"/>
<path d="M75.03 12.5H68.78V18.75H75.03V12.5Z" fill="#A5A5A5"/>
<path d="M68.78 12.5H62.53V18.75H68.78V12.5Z" fill="#A5A5A5"/>
<path d="M62.53 12.5H56.28V18.75H62.53V12.5Z" fill="#A5A5A5"/>
<path d="M56.28 12.5H50.03V18.75H56.28V12.5Z" fill="#D6D6D6"/>
<path d="M50.03 12.5H43.78V18.75H50.03V12.5Z" fill="#D6D6D6"/>
<path d="M43.78 12.5H37.53V18.75H43.78V12.5Z" fill="#D6D6D6"/>
<path d="M37.52 12.5H31.27V18.75H37.52V12.5Z" fill="#A5A5A5"/>
<path d="M31.27 12.5H25.02V18.75H31.27V12.5Z" fill="#808080"/>
<path d="M25.02 12.5H18.77V18.75H25.02V12.5Z" fill="#808080"/>
<path d="M18.77 12.5H12.52V18.75H18.77V12.5Z" fill="#808080"/>
<path d="M12.52 12.5H6.27002V18.75H12.52V12.5Z" fill="#808080"/>
<path d="M6.27002 12.5H0.0200195V18.75H6.27002V12.5Z" fill="#4C4C4C"/>
<path d="M150.04 18.75H143.79V25H150.04V18.75Z" fill="#4C4C4C"/>
<path d="M143.79 18.75H137.54V25H143.79V18.75Z" fill="#3D3D3D"/>
<path d="M137.54 18.75H131.29V25H137.54V18.75Z" fill="#3D3D3D"/>
<path d="M131.29 18.75H125.04V25H131.29V18.75Z" fill="#3D3D3D"/>
<path d="M125.04 18.75H118.79V25H125.04V18.75Z" fill="#3D3D3D"/>
<path d="M118.79 18.75H112.54V25H118.79V18.75Z" fill="#A5A5A5"/>
<path d="M112.53 18.75H106.28V25H112.53V18.75Z" fill="#A5A5A5"/>
<path d="M106.28 18.75H100.03V25H106.28V18.75Z" fill="#A5A5A5"/>
<path d="M100.03 18.75H93.78V25H100.03V18.75Z" fill="#A5A5A5"/>
<path d="M93.78 18.75H87.53V25H93.78V18.75Z" fill="#A5A5A5"/>
<path d="M87.53 18.75H81.28V25H87.53V18.75Z" fill="#A5A5A5"/>
<path d="M81.28 18.75H75.03V25H81.28V18.75Z" fill="#A5A5A5"/>
<path d="M75.03 18.75H68.78V25H75.03V18.75Z" fill="#A5A5A5"/>
<path d="M68.78 18.75H62.53V25H68.78V18.75Z" fill="#A5A5A5"/>
<path d="M62.53 18.75H56.28V25H62.53V18.75Z" fill="#D6D6D6"/>
<path d="M56.28 18.75H50.03V25H56.28V18.75Z" fill="#D6D6D6"/>
<path d="M50.03 18.75H43.78V25H50.03V18.75Z" fill="#D6D6D6"/>
<path d="M43.78 18.75H37.53V25H43.78V18.75Z" fill="#A5A5A5"/>
<path d="M37.52 18.75H31.27V25H37.52V18.75Z" fill="#A5A5A5"/>
<path d="M31.27 18.75H25.02V25H31.27V18.75Z" fill="#808080"/>
<path d="M25.02 18.75H18.77V25H25.02V18.75Z" fill="#808080"/>
<path d="M18.77 18.75H12.52V25H18.77V18.75Z" fill="#808080"/>
<path d="M12.52 18.75H6.27002V25H12.52V18.75Z" fill="#808080"/>
<path d="M6.27002 18.75H0.0200195V25H6.27002V18.75Z" fill="#4C4C4C"/>
<path d="M150.04 25H143.79V31.25H150.04V25Z" fill="#4C4C4C"/>
<path d="M143.79 25H137.54V31.25H143.79V25Z" fill="#3D3D3D"/>
<path d="M137.54 25H131.29V31.25H137.54V25Z" fill="#3D3D3D"/>
<path d="M131.29 25H125.04V31.25H131.29V25Z" fill="#3D3D3D"/>
<path d="M125.04 25H118.79V31.25H125.04V25Z" fill="#3D3D3D"/>
<path d="M118.79 25H112.54V31.25H118.79V25Z" fill="#A5A5A5"/>
<path d="M112.53 25H106.28V31.25H112.53V25Z" fill="#A5A5A5"/>
<path d="M106.28 25H100.03V31.25H106.28V25Z" fill="#A5A5A5"/>
<path d="M100.03 25H93.78V31.25H100.03V25Z" fill="#A5A5A5"/>
<path d="M93.78 25H87.53V31.25H93.78V25Z" fill="#A5A5A5"/>
<path d="M87.53 25H81.28V31.25H87.53V25Z" fill="#A5A5A5"/>
<path d="M81.28 25H75.03V31.25H81.28V25Z" fill="#A5A5A5"/>
<path d="M75.03 25H68.78V31.25H75.03V25Z" fill="#A5A5A5"/>
<path d="M68.78 25H62.53V31.25H68.78V25Z" fill="#D6D6D6"/>
<path d="M62.53 25H56.28V31.25H62.53V25Z" fill="#D6D6D6"/>
<path d="M56.28 25H50.03V31.25H56.28V25Z" fill="#D6D6D6"/>
<path d="M50.03 25H43.78V31.25H50.03V25Z" fill="#A5A5A5"/>
<path d="M43.78 25H37.53V31.25H43.78V25Z" fill="#A5A5A5"/>
<path d="M37.52 25H31.27V31.25H37.52V25Z" fill="#A5A5A5"/>
<path d="M31.27 25H25.02V31.25H31.27V25Z" fill="#808080"/>
<path d="M25.02 25H18.77V31.25H25.02V25Z" fill="#808080"/>
<path d="M18.77 25H12.52V31.25H18.77V25Z" fill="#808080"/>
<path d="M12.52 25H6.27002V31.25H12.52V25Z" fill="#808080"/>
<path d="M6.27002 25H0.0200195V31.25H6.27002V25Z" fill="#4C4C4C"/>
<path d="M150.04 31.25H143.79V37.5H150.04V31.25Z" fill="#4C4C4C"/>
<path d="M143.79 31.25H137.54V37.5H143.79V31.25Z" fill="#3D3D3D"/>
<path d="M137.54 31.25H131.29V37.5H137.54V31.25Z" fill="#3D3D3D"/>
<path d="M131.29 31.25H125.04V37.5H131.29V31.25Z" fill="#3D3D3D"/>
<path d="M125.04 31.25H118.79V37.5H125.04V31.25Z" fill="#3D3D3D"/>
<path d="M118.79 31.25H112.54V37.5H118.79V31.25Z" fill="#A5A5A5"/>
<path d="M112.53 31.25H106.28V37.5H112.53V31.25Z" fill="#A5A5A5"/>
<path d="M106.28 31.25H100.03V37.5H106.28V31.25Z" fill="#A5A5A5"/>
<path d="M100.03 31.25H93.78V37.5H100.03V31.25Z" fill="#A5A5A5"/>
<path d="M93.78 31.25H87.53V37.5H93.78V31.25Z" fill="#A5A5A5"/>
<path d="M87.53 31.25H81.28V37.5H87.53V31.25Z" fill="#A5A5A5"/>
<path d="M81.28 31.25H75.03V37.5H81.28V31.25Z" fill="#A5A5A5"/>
<path d="M75.03 31.25H68.78V37.5H75.03V31.25Z" fill="#D6D6D6"/>
<path d="M68.78 31.25H62.53V37.5H68.78V31.25Z" fill="#D6D6D6"/>
<path d="M62.53 31.25H56.28V37.5H62.53V31.25Z" fill="#D6D6D6"/>
<path d="M56.28 31.25H50.03V37.5H56.28V31.25Z" fill="#A5A5A5"/>
<path d="M50.03 31.25H43.78V37.5H50.03V31.25Z" fill="#A5A5A5"/>
<path d="M43.78 31.25H37.53V37.5H43.78V31.25Z" fill="#A5A5A5"/>
<path d="M37.52 31.25H31.27V37.5H37.52V31.25Z" fill="#D6D6D6"/>
<path d="M31.27 31.25H25.02V37.5H31.27V31.25Z" fill="#808080"/>
<path d="M25.02 31.25H18.77V37.5H25.02V31.25Z" fill="#808080"/>
<path d="M18.77 31.25H12.52V37.5H18.77V31.25Z" fill="#808080"/>
<path d="M12.52 31.25H6.27002V37.5H12.52V31.25Z" fill="#808080"/>
<path d="M6.27002 31.25H0.0200195V37.5H6.27002V31.25Z" fill="#4C4C4C"/>
<path d="M150.04 37.51H143.79V43.76H150.04V37.51Z" fill="#4C4C4C"/>
<path d="M143.79 37.51H137.54V43.76H143.79V37.51Z" fill="#3D3D3D"/>
<path d="M137.54 37.51H131.29V43.76H137.54V37.51Z" fill="#3D3D3D"/>
<path d="M131.29 37.51H125.04V43.76H131.29V37.51Z" fill="#3D3D3D"/>
<path d="M125.04 37.51H118.79V43.76H125.04V37.51Z" fill="#3D3D3D"/>
<path d="M118.79 37.51H112.54V43.76H118.79V37.51Z" fill="#A5A5A5"/>
<path d="M112.53 37.51H106.28V43.76H112.53V37.51Z" fill="#A5A5A5"/>
<path d="M106.28 37.51H100.03V43.76H106.28V37.51Z" fill="#A5A5A5"/>
<path d="M100.03 37.51H93.78V43.76H100.03V37.51Z" fill="#A5A5A5"/>
<path d="M93.78 37.51H87.53V43.76H93.78V37.51Z" fill="#A5A5A5"/>
<path d="M87.53 37.51H81.28V43.76H87.53V37.51Z" fill="#A5A5A5"/>
<path d="M81.28 37.51H75.03V43.76H81.28V37.51Z" fill="#D6D6D6"/>
<path d="M75.03 37.51H68.78V43.76H75.03V37.51Z" fill="#D6D6D6"/>
<path d="M68.78 37.51H62.53V43.76H68.78V37.51Z" fill="#D6D6D6"/>
<path d="M62.53 37.51H56.28V43.76H62.53V37.51Z" fill="#A5A5A5"/>
<path d="M56.28 37.51H50.03V43.76H56.28V37.51Z" fill="#A5A5A5"/>
<path d="M50.03 37.51H43.78V43.76H50.03V37.51Z" fill="#A5A5A5"/>
<path d="M43.78 37.51H37.53V43.76H43.78V37.51Z" fill="#D6D6D6"/>
<path d="M37.52 37.51H31.27V43.76H37.52V37.51Z" fill="#A5A5A5"/>
<path d="M31.27 37.51H25.02V43.76H31.27V37.51Z" fill="#808080"/>
<path d="M25.02 37.51H18.77V43.76H25.02V37.51Z" fill="#808080"/>
<path d="M18.77 37.51H12.52V43.76H18.77V37.51Z" fill="#808080"/>
<path d="M12.52 37.51H6.27002V43.76H12.52V37.51Z" fill="#808080"/>
<path d="M6.27002 37.51H0.0200195V43.76H6.27002V37.51Z" fill="#4C4C4C"/>
<path d="M150.04 43.76H143.79V50.01H150.04V43.76Z" fill="#4C4C4C"/>
<path d="M143.79 43.76H137.54V50.01H143.79V43.76Z" fill="#3D3D3D"/>
<path d="M137.54 43.76H131.29V50.01H137.54V43.76Z" fill="#3D3D3D"/>
<path d="M131.29 43.76H125.04V50.01H131.29V43.76Z" fill="#3D3D3D"/>
<path d="M125.04 43.76H118.79V50.01H125.04V43.76Z" fill="#3D3D3D"/>
<path d="M118.79 43.76H112.54V50.01H118.79V43.76Z" fill="#A5A5A5"/>
<path d="M112.53 43.76H106.28V50.01H112.53V43.76Z" fill="#A5A5A5"/>
<path d="M106.28 43.76H100.03V50.01H106.28V43.76Z" fill="#A5A5A5"/>
<path d="M100.03 43.76H93.78V50.01H100.03V43.76Z" fill="#A5A5A5"/>
<path d="M93.78 43.76H87.53V50.01H93.78V43.76Z" fill="#A5A5A5"/>
<path d="M87.53 43.76H81.28V50.01H87.53V43.76Z" fill="#D6D6D6"/>
<path d="M81.28 43.76H75.03V50.01H81.28V43.76Z" fill="#D6D6D6"/>
<path d="M75.03 43.76H68.78V50.01H75.03V43.76Z" fill="#D6D6D6"/>
<path d="M68.78 43.76H62.53V50.01H68.78V43.76Z" fill="#A5A5A5"/>
<path d="M62.53 43.76H56.28V50.01H62.53V43.76Z" fill="#A5A5A5"/>
<path d="M56.28 43.76H50.03V50.01H56.28V43.76Z" fill="#A5A5A5"/>
<path d="M50.03 43.76H43.78V50.01H50.03V43.76Z" fill="#D6D6D6"/>
<path d="M43.78 43.76H37.53V50.01H43.78V43.76Z" fill="#A5A5A5"/>
<path d="M37.52 43.76H31.27V50.01H37.52V43.76Z" fill="#A5A5A5"/>
<path d="M31.27 43.76H25.02V50.01H31.27V43.76Z" fill="#808080"/>
<path d="M25.02 43.76H18.77V50.01H25.02V43.76Z" fill="#808080"/>
<path d="M18.77 43.76H12.52V50.01H18.77V43.76Z" fill="#808080"/>
<path d="M12.52 43.76H6.27002V50.01H12.52V43.76Z" fill="#808080"/>
<path d="M6.27002 43.76H0.0200195V50.01H6.27002V43.76Z" fill="#4C4C4C"/>
<path d="M150.04 50.01H143.79V56.26H150.04V50.01Z" fill="#4C4C4C"/>
<path d="M143.79 50.01H137.54V56.26H143.79V50.01Z" fill="#3D3D3D"/>
<path d="M137.54 50.01H131.29V56.26H137.54V50.01Z" fill="#3D3D3D"/>
<path d="M131.29 50.01H125.04V56.26H131.29V50.01Z" fill="#3D3D3D"/>
<path d="M125.04 50.01H118.79V56.26H125.04V50.01Z" fill="#3D3D3D"/>
<path d="M118.79 50.01H112.54V56.26H118.79V50.01Z" fill="#A5A5A5"/>
<path d="M112.53 50.01H106.28V56.26H112.53V50.01Z" fill="#A5A5A5"/>
<path d="M106.28 50.01H100.03V56.26H106.28V50.01Z" fill="#A5A5A5"/>
<path d="M100.03 50.01H93.78V56.26H100.03V50.01Z" fill="#A5A5A5"/>
<path d="M93.78 50.01H87.53V56.26H93.78V50.01Z" fill="#D6D6D6"/>
<path d="M87.53 50.01H81.28V56.26H87.53V50.01Z" fill="#D6D6D6"/>
<path d="M81.28 50.01H75.03V56.26H81.28V50.01Z" fill="#D6D6D6"/>
<path d="M75.03 50.01H68.78V56.26H75.03V50.01Z" fill="#A5A5A5"/>
<path d="M68.78 50.01H62.53V56.26H68.78V50.01Z" fill="#A5A5A5"/>
<path d="M62.53 50.01H56.28V56.26H62.53V50.01Z" fill="#A5A5A5"/>
<path d="M56.28 50.01H50.03V56.26H56.28V50.01Z" fill="#D6D6D6"/>
<path d="M50.03 50.01H43.78V56.26H50.03V50.01Z" fill="#A5A5A5"/>
<path d="M43.78 50.01H37.53V56.26H43.78V50.01Z" fill="#A5A5A5"/>
<path d="M37.52 50.01H31.27V56.26H37.52V50.01Z" fill="#A5A5A5"/>
<path d="M31.27 50.01H25.02V56.26H31.27V50.01Z" fill="#808080"/>
<path d="M25.02 50.01H18.77V56.26H25.02V50.01Z" fill="#808080"/>
<path d="M18.77 50.01H12.52V56.26H18.77V50.01Z" fill="#808080"/>
<path d="M12.52 50.01H6.27002V56.26H12.52V50.01Z" fill="#808080"/>
<path d="M6.27002 50.01H0.0200195V56.26H6.27002V50.01Z" fill="#4C4C4C"/>
<path d="M150.04 56.26H143.79V62.51H150.04V56.26Z" fill="#4C4C4C"/>
<path d="M143.79 56.26H137.54V62.51H143.79V56.26Z" fill="#3D3D3D"/>
<path d="M137.54 56.26H131.29V62.51H137.54V56.26Z" fill="#3D3D3D"/>
<path d="M131.29 56.26H125.04V62.51H131.29V56.26Z" fill="#3D3D3D"/>
<path d="M125.04 56.26H118.79V62.51H125.04V56.26Z" fill="#3D3D3D"/>
<path d="M118.79 56.26H112.54V62.51H118.79V56.26Z" fill="#A5A5A5"/>
<path d="M112.53 56.26H106.28V62.51H112.53V56.26Z" fill="#A5A5A5"/>
<path d="M106.28 56.26H100.03V62.51H106.28V56.26Z" fill="#A5A5A5"/>
<path d="M150.04 62.51H143.79V68.76H150.04V62.51Z" fill="#4C4C4C"/>
<path d="M143.79 62.51H137.54V68.76H143.79V62.51Z" fill="#3D3D3D"/>
<path d="M137.54 62.51H131.29V68.76H137.54V62.51Z" fill="#3D3D3D"/>
<path d="M131.29 62.51H125.04V68.76H131.29V62.51Z" fill="#3D3D3D"/>
<path d="M125.04 62.51H118.79V68.76H125.04V62.51Z" fill="#3D3D3D"/>
<path d="M118.79 62.51H112.54V68.76H118.79V62.51Z" fill="#A5A5A5"/>
<path d="M112.53 62.51H106.28V68.76H112.53V62.51Z" fill="#A5A5A5"/>
<path d="M106.28 62.51H100.03V68.76H106.28V62.51Z" fill="#D6D6D6"/>
<path d="M150.04 68.76H143.79V75.01H150.04V68.76Z" fill="#4C4C4C"/>
<path d="M143.79 68.76H137.54V75.01H143.79V68.76Z" fill="#3D3D3D"/>
<path d="M137.54 68.76H131.29V75.01H137.54V68.76Z" fill="#3D3D3D"/>
<path d="M131.29 68.76H125.04V75.01H131.29V68.76Z" fill="#3D3D3D"/>
<path d="M125.04 68.76H118.79V75.01H125.04V68.76Z" fill="#3D3D3D"/>
<path d="M118.79 68.76H112.54V75.01H118.79V68.76Z" fill="#A5A5A5"/>
<path d="M112.53 68.76H106.28V75.01H112.53V68.76Z" fill="#D6D6D6"/>
<path d="M106.28 68.76H100.03V75.01H106.28V68.76Z" fill="#D6D6D6"/>
<path d="M150.04 75.01H143.79V81.26H150.04V75.01Z" fill="#4C4C4C"/>
<path d="M143.79 75.01H137.54V81.26H143.79V75.01Z" fill="#3D3D3D"/>
<path d="M137.54 75.01H131.29V81.26H137.54V75.01Z" fill="#3D3D3D"/>
<path d="M131.29 75.01H125.04V81.26H131.29V75.01Z" fill="#3D3D3D"/>
<path d="M125.04 75.01H118.79V81.26H125.04V75.01Z" fill="#3D3D3D"/>
<path d="M118.79 75.01H112.54V81.26H118.79V75.01Z" fill="#D6D6D6"/>
<path d="M112.53 75.01H106.28V81.26H112.53V75.01Z" fill="#D6D6D6"/>
<path d="M106.28 75.01H100.03V81.26H106.28V75.01Z" fill="#D6D6D6"/>
<path d="M150.04 81.26H143.79V87.51H150.04V81.26Z" fill="#4C4C4C"/>
<path d="M143.79 81.26H137.54V87.51H143.79V81.26Z" fill="#3D3D3D"/>
<path d="M137.54 81.26H131.29V87.51H137.54V81.26Z" fill="#3D3D3D"/>
<path d="M131.29 81.26H125.04V87.51H131.29V81.26Z" fill="#3D3D3D"/>
<path d="M125.04 81.26H118.79V87.51H125.04V81.26Z" fill="#3D3D3D"/>
<path d="M118.79 81.26H112.54V87.51H118.79V81.26Z" fill="#D6D6D6"/>
<path d="M112.53 81.26H106.28V87.51H112.53V81.26Z" fill="#D6D6D6"/>
<path d="M106.28 81.26H100.03V87.51H106.28V81.26Z" fill="#A5A5A5"/>
<path d="M150.04 87.51H143.79V93.76H150.04V87.51Z" fill="#4C4C4C"/>
<path d="M143.79 87.51H137.54V93.76H143.79V87.51Z" fill="#3D3D3D"/>
<path d="M137.54 87.51H131.29V93.76H137.54V87.51Z" fill="#3D3D3D"/>
<path d="M131.29 87.51H125.04V93.76H131.29V87.51Z" fill="#3D3D3D"/>
<path d="M125.04 87.51H118.79V93.76H125.04V87.51Z" fill="#3D3D3D"/>
<path d="M118.79 87.51H112.54V93.76H118.79V87.51Z" fill="#D6D6D6"/>
<path d="M112.53 87.51H106.28V93.76H112.53V87.51Z" fill="#A5A5A5"/>
<path d="M106.28 87.51H100.03V93.76H106.28V87.51Z" fill="#A5A5A5"/>
<path d="M150.04 93.76H143.79V100.01H150.04V93.76Z" fill="#4C4C4C"/>
<path d="M143.79 93.76H137.54V100.01H143.79V93.76Z" fill="#3D3D3D"/>
<path d="M137.54 93.76H131.29V100.01H137.54V93.76Z" fill="#3D3D3D"/>
<path d="M131.29 93.76H125.04V100.01H131.29V93.76Z" fill="#3D3D3D"/>
<path d="M125.04 93.76H118.79V100.01H125.04V93.76Z" fill="#3D3D3D"/>
<path d="M118.79 93.76H112.54V100.01H118.79V93.76Z" fill="#A5A5A5"/>
<path d="M112.53 93.76H106.28V100.01H112.53V93.76Z" fill="#A5A5A5"/>
<path d="M106.28 93.76H100.03V100.01H106.28V93.76Z" fill="#A5A5A5"/>
<path d="M150.04 100.01H143.79V106.26H150.04V100.01Z" fill="#4C4C4C"/>
<path d="M143.79 100.01H137.54V106.26H143.79V100.01Z" fill="#3D3D3D"/>
<path d="M137.54 100.01H131.29V106.26H137.54V100.01Z" fill="#3D3D3D"/>
<path d="M131.29 100.01H125.04V106.26H131.29V100.01Z" fill="#3D3D3D"/>
<path d="M125.04 100.01H118.79V106.26H125.04V100.01Z" fill="#3D3D3D"/>
<path d="M118.79 100.01H112.54V106.26H118.79V100.01Z" fill="#A5A5A5"/>
<path d="M112.53 100.01H106.28V106.26H112.53V100.01Z" fill="#A5A5A5"/>
<path d="M106.28 100.01H100.03V106.26H106.28V100.01Z" fill="#D6D6D6"/>
<path d="M100.03 62.51H93.78V68.76H100.03V62.51Z" fill="#D6D6D6"/>
<path d="M93.78 62.51H87.53V68.76H93.78V62.51Z" fill="#D6D6D6"/>
<path d="M87.53 62.51H81.28V68.76H87.53V62.51Z" fill="#A5A5A5"/>
<path d="M100.03 68.76H93.78V75.01H100.03V68.76Z" fill="#D6D6D6"/>
<path d="M93.78 68.76H87.53V75.01H93.78V68.76Z" fill="#A5A5A5"/>
<path d="M87.53 68.76H81.28V75.01H87.53V68.76Z" fill="#A5A5A5"/>
<path d="M100.03 75.01H93.78V81.26H100.03V75.01Z" fill="#A5A5A5"/>
<path d="M93.78 75.01H87.53V81.26H93.78V75.01Z" fill="#A5A5A5"/>
<path d="M87.53 75.01H81.28V81.26H87.53V75.01Z" fill="#A5A5A5"/>
<path d="M100.03 81.26H93.78V87.51H100.03V81.26Z" fill="#A5A5A5"/>
<path d="M93.78 81.26H87.53V87.51H93.78V81.26Z" fill="#A5A5A5"/>
<path d="M87.53 81.26H81.28V87.51H87.53V81.26Z" fill="#D6D6D6"/>
<path d="M100.03 87.51H93.78V93.76H100.03V87.51Z" fill="#A5A5A5"/>
<path d="M93.78 87.51H87.53V93.76H93.78V87.51Z" fill="#D6D6D6"/>
<path d="M87.53 87.51H81.28V93.76H87.53V87.51Z" fill="#A5A5A5"/>
<path d="M100.03 93.76H93.78V100.01H100.03V93.76Z" fill="#D6D6D6"/>
<path d="M93.78 93.76H87.53V100.01H93.78V93.76Z" fill="#A5A5A5"/>
<path d="M87.53 93.76H81.28V100.01H87.53V93.76Z" fill="#A5A5A5"/>
<path d="M100.03 100.01H93.78V106.26H100.03V100.01Z" fill="#A5A5A5"/>
<path d="M93.78 100.01H87.53V106.26H93.78V100.01Z" fill="#A5A5A5"/>
<path d="M87.53 100.01H81.28V106.26H87.53V100.01Z" fill="#A5A5A5"/>
<path d="M81.28 62.51H75.03V68.76H81.28V62.51Z" fill="#A5A5A5"/>
<path d="M75.03 62.51H68.78V68.76H75.03V62.51Z" fill="#A5A5A5"/>
<path d="M68.78 62.51H62.53V68.76H68.78V62.51Z" fill="#D6D6D6"/>
<path d="M81.28 68.76H75.03V75.01H81.28V68.76Z" fill="#A5A5A5"/>
<path d="M75.03 68.76H68.78V75.01H75.03V68.76Z" fill="#D6D6D6"/>
<path d="M68.78 68.76H62.53V75.01H68.78V68.76Z" fill="#A5A5A5"/>
<path d="M81.28 75.01H75.03V81.26H81.28V75.01Z" fill="#D6D6D6"/>
<path d="M75.03 75.01H68.78V81.26H75.03V75.01Z" fill="#A5A5A5"/>
<path d="M68.78 75.01H62.53V81.26H68.78V75.01Z" fill="#A5A5A5"/>
<path d="M81.28 81.26H75.03V87.51H81.28V81.26Z" fill="#A5A5A5"/>
<path d="M75.03 81.26H68.78V87.51H75.03V81.26Z" fill="#A5A5A5"/>
<path d="M68.78 81.26H62.53V87.51H68.78V81.26Z" fill="#A5A5A5"/>
<path d="M81.28 87.51H75.03V93.76H81.28V87.51Z" fill="#A5A5A5"/>
<path d="M75.03 87.51H68.78V93.76H75.03V87.51Z" fill="#A5A5A5"/>
<path d="M68.78 87.51H62.53V93.76H68.78V87.51Z" fill="#A5A5A5"/>
<path d="M81.28 93.76H75.03V100.01H81.28V93.76Z" fill="#A5A5A5"/>
<path d="M75.03 93.76H68.78V100.01H75.03V93.76Z" fill="#A5A5A5"/>
<path d="M68.78 93.76H62.53V100.01H68.78V93.76Z" fill="#A5A5A5"/>
<path d="M81.28 100.01H75.03V106.26H81.28V100.01Z" fill="#A5A5A5"/>
<path d="M75.03 100.01H68.78V106.26H75.03V100.01Z" fill="#A5A5A5"/>
<path d="M68.78 100.01H62.53V106.26H68.78V100.01Z" fill="#A5A5A5"/>
<path d="M62.53 62.51H56.28V68.76H62.53V62.51Z" fill="#A5A5A5"/>
<path d="M56.28 62.51H50.03V68.76H56.28V62.51Z" fill="#A5A5A5"/>
<path d="M50.03 62.51H43.78V68.76H50.03V62.51Z" fill="#A5A5A5"/>
<path d="M62.53 68.76H56.28V75.01H62.53V68.76Z" fill="#A5A5A5"/>
<path d="M56.28 68.76H50.03V75.01H56.28V68.76Z" fill="#A5A5A5"/>
<path d="M50.03 68.76H43.78V75.01H50.03V68.76Z" fill="#A5A5A5"/>
<path d="M62.53 75.01H56.28V81.26H62.53V75.01Z" fill="#A5A5A5"/>
<path d="M56.28 75.01H50.03V81.26H56.28V75.01Z" fill="#A5A5A5"/>
<path d="M50.03 75.01H43.78V81.26H50.03V75.01Z" fill="#A5A5A5"/>
<path d="M62.53 81.26H56.28V87.51H62.53V81.26Z" fill="#A5A5A5"/>
<path d="M56.28 81.26H50.03V87.51H56.28V81.26Z" fill="#A5A5A5"/>
<path d="M50.03 81.26H43.78V87.51H50.03V81.26Z" fill="#A5A5A5"/>
<path d="M62.53 87.51H56.28V93.76H62.53V87.51Z" fill="#A5A5A5"/>
<path d="M56.28 87.51H50.03V93.76H56.28V87.51Z" fill="#A5A5A5"/>
<path d="M50.03 87.51H43.78V93.76H50.03V87.51Z" fill="#A5A5A5"/>
<path d="M62.53 93.76H56.28V100.01H62.53V93.76Z" fill="#A5A5A5"/>
<path d="M56.28 93.76H50.03V100.01H56.28V93.76Z" fill="#A5A5A5"/>
<path d="M50.03 93.76H43.78V100.01H50.03V93.76Z" fill="#A5A5A5"/>
<path d="M62.53 100.01H56.28V106.26H62.53V100.01Z" fill="#A5A5A5"/>
<path d="M56.28 100.01H50.03V106.26H56.28V100.01Z" fill="#A5A5A5"/>
<path d="M50.03 100.01H43.78V106.26H50.03V100.01Z" fill="#A5A5A5"/>
<path d="M43.78 62.51H37.53V68.76H43.78V62.51Z" fill="#A5A5A5"/>
<path d="M37.52 62.51H31.27V68.76H37.52V62.51Z" fill="#A5A5A5"/>
<path d="M43.78 68.76H37.53V75.01H43.78V68.76Z" fill="#A5A5A5"/>
<path d="M37.52 68.76H31.27V75.01H37.52V68.76Z" fill="#A5A5A5"/>
<path d="M43.78 75.01H37.53V81.26H43.78V75.01Z" fill="#A5A5A5"/>
<path d="M37.52 75.01H31.27V81.26H37.52V75.01Z" fill="#A5A5A5"/>
<path d="M43.78 81.26H37.53V87.51H43.78V81.26Z" fill="#A5A5A5"/>
<path d="M37.52 81.26H31.27V87.51H37.52V81.26Z" fill="#A5A5A5"/>
<path d="M43.78 87.51H37.53V93.76H43.78V87.51Z" fill="#A5A5A5"/>
<path d="M37.52 87.51H31.27V93.76H37.52V87.51Z" fill="#A5A5A5"/>
<path d="M43.78 93.76H37.53V100.01H43.78V93.76Z" fill="#A5A5A5"/>
<path d="M37.52 93.76H31.27V100.01H37.52V93.76Z" fill="#A5A5A5"/>
<path d="M43.78 100.01H37.53V106.26H43.78V100.01Z" fill="#A5A5A5"/>
<path d="M37.52 100.01H31.27V106.26H37.52V100.01Z" fill="#A5A5A5"/>
<path d="M100.03 56.26H93.78V62.51H100.03V56.26Z" fill="#D6D6D6"/>
<path d="M93.78 56.26H87.53V62.51H93.78V56.26Z" fill="#D6D6D6"/>
<path d="M87.53 56.26H81.28V62.51H87.53V56.26Z" fill="#D6D6D6"/>
<path d="M81.28 56.26H75.03V62.51H81.28V56.26Z" fill="#A5A5A5"/>
<path d="M75.03 56.26H68.78V62.51H75.03V56.26Z" fill="#A5A5A5"/>
<path d="M68.78 56.26H62.53V62.51H68.78V56.26Z" fill="#A5A5A5"/>
<path d="M62.53 56.26H56.28V62.51H62.53V56.26Z" fill="#D6D6D6"/>
<path d="M56.28 56.26H50.03V62.51H56.28V56.26Z" fill="#A5A5A5"/>
<path d="M50.03 56.26H43.78V62.51H50.03V56.26Z" fill="#A5A5A5"/>
<path d="M43.78 56.26H37.53V62.51H43.78V56.26Z" fill="#A5A5A5"/>
<path d="M37.52 56.26H31.27V62.51H37.52V56.26Z" fill="#A5A5A5"/>
<path d="M31.27 56.26H25.02V62.51H31.27V56.26Z" fill="#808080"/>
<path d="M25.02 56.26H18.77V62.51H25.02V56.26Z" fill="#808080"/>
<path d="M18.77 56.26H12.52V62.51H18.77V56.26Z" fill="#808080"/>
<path d="M12.52 56.26H6.27002V62.51H12.52V56.26Z" fill="#808080"/>
<path d="M6.27002 56.26H0.0200195V62.51H6.27002V56.26Z" fill="#4C4C4C"/>
<path d="M31.27 62.51H25.02V68.76H31.27V62.51Z" fill="#808080"/>
<path d="M25.02 62.51H18.77V68.76H25.02V62.51Z" fill="#808080"/>
<path d="M18.77 62.51H12.52V68.76H18.77V62.51Z" fill="#808080"/>
<path d="M12.52 62.51H6.27002V68.76H12.52V62.51Z" fill="#808080"/>
<path d="M6.27002 62.51H0.0200195V68.76H6.27002V62.51Z" fill="#4C4C4C"/>
<path d="M31.27 68.76H25.02V75.01H31.27V68.76Z" fill="#808080"/>
<path d="M25.02 68.76H18.77V75.01H25.02V68.76Z" fill="#808080"/>
<path d="M18.77 68.76H12.52V75.01H18.77V68.76Z" fill="#808080"/>
<path d="M12.52 68.76H6.27002V75.01H12.52V68.76Z" fill="#808080"/>
<path d="M6.27002 68.76H0.0200195V75.01H6.27002V68.76Z" fill="#4C4C4C"/>
<path d="M31.27 75.01H25.02V81.26H31.27V75.01Z" fill="#808080"/>
<path d="M25.02 75.01H18.77V81.26H25.02V75.01Z" fill="#808080"/>
<path d="M18.77 75.01H12.52V81.26H18.77V75.01Z" fill="#808080"/>
<path d="M12.52 75.01H6.27002V81.26H12.52V75.01Z" fill="#808080"/>
<path d="M6.27002 75.01H0.0200195V81.26H6.27002V75.01Z" fill="#4C4C4C"/>
<path d="M31.27 81.26H25.02V87.51H31.27V81.26Z" fill="#808080"/>
<path d="M25.02 81.26H18.77V87.51H25.02V81.26Z" fill="#808080"/>
<path d="M18.77 81.26H12.52V87.51H18.77V81.26Z" fill="#808080"/>
<path d="M12.52 81.26H6.27002V87.51H12.52V81.26Z" fill="#808080"/>
<path d="M6.27002 81.26H0.0200195V87.51H6.27002V81.26Z" fill="#4C4C4C"/>
<path d="M31.27 87.51H25.02V93.76H31.27V87.51Z" fill="#808080"/>
<path d="M25.02 87.51H18.77V93.76H25.02V87.51Z" fill="#808080"/>
<path d="M18.77 87.51H12.52V93.76H18.77V87.51Z" fill="#808080"/>
<path d="M12.52 87.51H6.27002V93.76H12.52V87.51Z" fill="#808080"/>
<path d="M6.27002 87.51H0.0200195V93.76H6.27002V87.51Z" fill="#4C4C4C"/>
<path d="M31.27 93.76H25.02V100.01H31.27V93.76Z" fill="#808080"/>
<path d="M25.02 93.76H18.77V100.01H25.02V93.76Z" fill="#808080"/>
<path d="M18.77 93.76H12.52V100.01H18.77V93.76Z" fill="#808080"/>
<path d="M12.52 93.76H6.27002V100.01H12.52V93.76Z" fill="#808080"/>
<path d="M6.27002 93.76H0.0200195V100.01H6.27002V93.76Z" fill="#4C4C4C"/>
<path d="M31.27 100.01H25.02V106.26H31.27V100.01Z" fill="#808080"/>
<path d="M25.02 100.01H18.77V106.26H25.02V100.01Z" fill="#808080"/>
<path d="M18.77 100.01H12.52V106.26H18.77V100.01Z" fill="#808080"/>
<path d="M12.52 100.01H6.27002V106.26H12.52V100.01Z" fill="#808080"/>
<path d="M6.27002 100.01H0.0200195V106.26H6.27002V100.01Z" fill="#4C4C4C"/>
<path d="M150.04 106.26H143.79V112.51H150.04V106.26Z" fill="#4C4C4C"/>
<path d="M143.79 106.26H137.54V112.51H143.79V106.26Z" fill="#3D3D3D"/>
<path d="M137.54 106.26H131.29V112.51H137.54V106.26Z" fill="#3D3D3D"/>
<path d="M131.29 106.26H125.04V112.51H131.29V106.26Z" fill="#3D3D3D"/>
<path d="M125.04 106.26H118.79V112.51H125.04V106.26Z" fill="#3D3D3D"/>
<path d="M118.79 106.26H112.54V112.51H118.79V106.26Z" fill="#D6D6D6"/>
<path d="M112.53 106.26H106.28V112.51H112.53V106.26Z" fill="#D6D6D6"/>
<path d="M106.28 106.26H100.03V112.51H106.28V106.26Z" fill="#A5A5A5"/>
<path d="M100.03 106.26H93.78V112.51H100.03V106.26Z" fill="#A5A5A5"/>
<path d="M93.78 106.26H87.53V112.51H93.78V106.26Z" fill="#A5A5A5"/>
<path d="M87.53 106.26H81.28V112.51H87.53V106.26Z" fill="#A5A5A5"/>
<path d="M81.28 106.26H75.03V112.51H81.28V106.26Z" fill="#A5A5A5"/>
<path d="M75.03 106.26H68.78V112.51H75.03V106.26Z" fill="#A5A5A5"/>
<path d="M68.78 106.26H62.53V112.51H68.78V106.26Z" fill="#A5A5A5"/>
<path d="M62.53 106.26H56.28V112.51H62.53V106.26Z" fill="#A5A5A5"/>
<path d="M56.28 106.26H50.03V112.51H56.28V106.26Z" fill="#A5A5A5"/>
<path d="M50.03 106.26H43.78V112.51H50.03V106.26Z" fill="#A5A5A5"/>
<path d="M43.78 106.26H37.53V112.51H43.78V106.26Z" fill="#A5A5A5"/>
<path d="M37.52 106.26H31.27V112.51H37.52V106.26Z" fill="#D6D6D6"/>
<path d="M31.27 106.26H25.02V112.51H31.27V106.26Z" fill="#808080"/>
<path d="M25.02 106.26H18.77V112.51H25.02V106.26Z" fill="#808080"/>
<path d="M18.77 106.26H12.52V112.51H18.77V106.26Z" fill="#808080"/>
<path d="M12.52 106.26H6.27002V112.51H12.52V106.26Z" fill="#808080"/>
<path d="M6.27002 106.26H0.0200195V112.51H6.27002V106.26Z" fill="#4C4C4C"/>
<path d="M150.04 112.52H143.79V118.77H150.04V112.52Z" fill="#4C4C4C"/>
<path d="M143.79 112.52H137.54V118.77H143.79V112.52Z" fill="#3D3D3D"/>
<path d="M137.54 112.52H131.29V118.77H137.54V112.52Z" fill="#3D3D3D"/>
<path d="M131.29 112.52H125.04V118.77H131.29V112.52Z" fill="#3D3D3D"/>
<path d="M125.04 112.52H118.79V118.77H125.04V112.52Z" fill="#3D3D3D"/>
<path d="M118.79 112.52H112.54V118.77H118.79V112.52Z" fill="#808080"/>
<path d="M112.53 112.52H106.28V118.77H112.53V112.52Z" fill="#D6D6D6"/>
<path d="M106.28 112.52H100.03V118.77H106.28V112.52Z" fill="#D6D6D6"/>
<path d="M100.03 112.52H93.78V118.77H100.03V112.52Z" fill="#D6D6D6"/>
<path d="M93.78 112.52H87.53V118.77H93.78V112.52Z" fill="#D6D6D6"/>
<path d="M87.53 112.52H81.28V118.77H87.53V112.52Z" fill="#D6D6D6"/>
<path d="M81.28 112.52H75.03V118.77H81.28V112.52Z" fill="#D6D6D6"/>
<path d="M75.03 112.52H68.78V118.77H75.03V112.52Z" fill="#D6D6D6"/>
<path d="M68.78 112.52H62.53V118.77H68.78V112.52Z" fill="#D6D6D6"/>
<path d="M62.53 112.52H56.28V118.77H62.53V112.52Z" fill="#D6D6D6"/>
<path d="M56.28 112.52H50.03V118.77H56.28V112.52Z" fill="#D6D6D6"/>
<path d="M50.03 112.52H43.78V118.77H50.03V112.52Z" fill="#D6D6D6"/>
<path d="M43.78 112.52H37.53V118.77H43.78V112.52Z" fill="#D6D6D6"/>
<path d="M37.52 112.52H31.27V118.77H37.52V112.52Z" fill="#A5A5A5"/>
<path d="M31.27 112.52H25.02V118.77H31.27V112.52Z" fill="#808080"/>
<path d="M25.02 112.52H18.77V118.77H25.02V112.52Z" fill="#808080"/>
<path d="M18.77 112.52H12.52V118.77H18.77V112.52Z" fill="#808080"/>
<path d="M12.52 112.52H6.27002V118.77H12.52V112.52Z" fill="#808080"/>
<path d="M6.27002 112.52H0.0200195V118.77H6.27002V112.52Z" fill="#4C4C4C"/>
<path d="M150.04 118.77H143.79V125.02H150.04V118.77Z" fill="#4C4C4C"/>
<path d="M143.79 118.77H137.54V125.02H143.79V118.77Z" fill="#3D3D3D"/>
<path d="M137.54 118.77H131.29V125.02H137.54V118.77Z" fill="#3D3D3D"/>
<path d="M131.29 118.77H125.04V125.02H131.29V118.77Z" fill="#3D3D3D"/>
<path d="M125.04 118.77H118.79V125.02H125.04V118.77Z" fill="#808080"/>
<path d="M118.79 118.77H112.54V125.02H118.79V118.77Z" fill="#606060"/>
<path d="M112.53 118.77H106.28V125.02H112.53V118.77Z" fill="#606060"/>
<path d="M106.28 118.77H100.03V125.02H106.28V118.77Z" fill="#606060"/>
<path d="M100.03 118.77H93.78V125.02H100.03V118.77Z" fill="#606060"/>
<path d="M93.78 118.77H87.53V125.02H93.78V118.77Z" fill="#606060"/>
<path d="M87.53 118.77H81.28V125.02H87.53V118.77Z" fill="#606060"/>
<path d="M81.28 118.77H75.03V125.02H81.28V118.77Z" fill="#606060"/>
<path d="M75.03 118.77H68.78V125.02H75.03V118.77Z" fill="#606060"/>
<path d="M68.78 118.77H62.53V125.02H68.78V118.77Z" fill="#606060"/>
<path d="M62.53 118.77H56.28V125.02H62.53V118.77Z" fill="#606060"/>
<path d="M56.28 118.77H50.03V125.02H56.28V118.77Z" fill="#606060"/>
<path d="M50.03 118.77H43.78V125.02H50.03V118.77Z" fill="#606060"/>
<path d="M43.78 118.77H37.53V125.02H43.78V118.77Z" fill="#606060"/>
<path d="M37.52 118.77H31.27V125.02H37.52V118.77Z" fill="#606060"/>
<path d="M31.27 118.77H25.02V125.02H31.27V118.77Z" fill="#A5A5A5"/>
<path d="M25.02 118.77H18.77V125.02H25.02V118.77Z" fill="#808080"/>
<path d="M18.77 118.77H12.52V125.02H18.77V118.77Z" fill="#808080"/>
<path d="M12.52 118.77H6.27002V125.02H12.52V118.77Z" fill="#808080"/>
<path d="M6.27002 118.77H0.0200195V125.02H6.27002V118.77Z" fill="#4C4C4C"/>
<path d="M150.04 125.02H143.79V131.27H150.04V125.02Z" fill="#4C4C4C"/>
<path d="M143.79 125.02H137.54V131.27H143.79V125.02Z" fill="#3D3D3D"/>
<path d="M137.54 125.02H131.29V131.27H137.54V125.02Z" fill="#3D3D3D"/>
<path d="M131.29 125.02H125.04V131.27H131.29V125.02Z" fill="#808080"/>
<path d="M125.04 125.02H118.79V131.27H125.04V125.02Z" fill="#606060"/>
<path d="M118.79 125.02H112.54V131.27H118.79V125.02Z" fill="#606060"/>
<path d="M112.53 125.02H106.28V131.27H112.53V125.02Z" fill="#606060"/>
<path d="M106.28 125.02H100.03V131.27H106.28V125.02Z" fill="#606060"/>
<path d="M100.03 125.02H93.78V131.27H100.03V125.02Z" fill="#606060"/>
<path d="M93.78 125.02H87.53V131.27H93.78V125.02Z" fill="#606060"/>
<path d="M87.53 125.02H81.28V131.27H87.53V125.02Z" fill="#606060"/>
<path d="M81.28 125.02H75.03V131.27H81.28V125.02Z" fill="#606060"/>
<path d="M75.03 125.02H68.78V131.27H75.03V125.02Z" fill="#606060"/>
<path d="M68.78 125.02H62.53V131.27H68.78V125.02Z" fill="#606060"/>
<path d="M62.53 125.02H56.28V131.27H62.53V125.02Z" fill="#606060"/>
<path d="M56.28 125.02H50.03V131.27H56.28V125.02Z" fill="#606060"/>
<path d="M50.03 125.02H43.78V131.27H50.03V125.02Z" fill="#606060"/>
<path d="M43.78 125.02H37.53V131.27H43.78V125.02Z" fill="#606060"/>
<path d="M37.52 125.02H31.27V131.27H37.52V125.02Z" fill="#606060"/>
<path d="M31.27 125.02H25.02V131.27H31.27V125.02Z" fill="#606060"/>
<path d="M25.02 125.02H18.77V131.27H25.02V125.02Z" fill="#A5A5A5"/>
<path d="M18.77 125.02H12.52V131.27H18.77V125.02Z" fill="#808080"/>
<path d="M12.52 125.02H6.27002V131.27H12.52V125.02Z" fill="#808080"/>
<path d="M6.27002 125.02H0.0200195V131.27H6.27002V125.02Z" fill="#4C4C4C"/>
<path d="M150.04 131.27H143.79V137.52H150.04V131.27Z" fill="#4C4C4C"/>
<path d="M143.79 131.27H137.54V137.52H143.79V131.27Z" fill="#3D3D3D"/>
<path d="M137.54 131.27H131.29V137.52H137.54V131.27Z" fill="#808080"/>
<path d="M131.29 131.27H125.04V137.52H131.29V131.27Z" fill="#606060"/>
<path d="M125.04 131.27H118.79V137.52H125.04V131.27Z" fill="#606060"/>
<path d="M118.79 131.27H112.54V137.52H118.79V131.27Z" fill="#606060"/>
<path d="M112.53 131.27H106.28V137.52H112.53V131.27Z" fill="#606060"/>
<path d="M106.28 131.27H100.03V137.52H106.28V131.27Z" fill="#606060"/>
<path d="M100.03 131.27H93.78V137.52H100.03V131.27Z" fill="#606060"/>
<path d="M93.78 131.27H87.53V137.52H93.78V131.27Z" fill="#606060"/>
<path d="M87.53 131.27H81.28V137.52H87.53V131.27Z" fill="#606060"/>
<path d="M81.28 131.27H75.03V137.52H81.28V131.27Z" fill="#606060"/>
<path d="M75.03 131.27H68.78V137.52H75.03V131.27Z" fill="#606060"/>
<path d="M68.78 131.27H62.53V137.52H68.78V131.27Z" fill="#606060"/>
<path d="M62.53 131.27H56.28V137.52H62.53V131.27Z" fill="#606060"/>
<path d="M56.28 131.27H50.03V137.52H56.28V131.27Z" fill="#606060"/>
<path d="M50.03 131.27H43.78V137.52H50.03V131.27Z" fill="#606060"/>
<path d="M43.78 131.27H37.53V137.52H43.78V131.27Z" fill="#606060"/>
<path d="M37.52 131.27H31.27V137.52H37.52V131.27Z" fill="#606060"/>
<path d="M31.27 131.27H25.02V137.52H31.27V131.27Z" fill="#606060"/>
<path d="M25.02 131.27H18.77V137.52H25.02V131.27Z" fill="#606060"/>
<path d="M18.77 131.27H12.52V137.52H18.77V131.27Z" fill="#A5A5A5"/>
<path d="M12.52 131.27H6.27002V137.52H12.52V131.27Z" fill="#808080"/>
<path d="M6.27002 131.27H0.0200195V137.52H6.27002V131.27Z" fill="#4C4C4C"/>
<path d="M143.79 137.52H137.54V143.77H143.79V137.52Z" fill="#4C4C4C"/>
<path d="M137.54 137.52H131.29V143.77H137.54V137.52Z" fill="#606060"/>
<path d="M131.29 137.52H125.04V143.77H131.29V137.52Z" fill="#606060"/>
<path d="M125.04 137.52H118.79V143.77H125.04V137.52Z" fill="#606060"/>
<path d="M118.79 137.52H112.54V143.77H118.79V137.52Z" fill="#606060"/>
<path d="M112.53 137.52H106.28V143.77H112.53V137.52Z" fill="#606060"/>
<path d="M106.28 137.52H100.03V143.77H106.28V137.52Z" fill="#606060"/>
<path d="M100.03 137.52H93.78V143.77H100.03V137.52Z" fill="#606060"/>
<path d="M93.78 137.52H87.53V143.77H93.78V137.52Z" fill="#606060"/>
<path d="M87.53 137.52H81.28V143.77H87.53V137.52Z" fill="#606060"/>
<path d="M81.28 137.52H75.03V143.77H81.28V137.52Z" fill="#606060"/>
<path d="M75.03 137.52H68.78V143.77H75.03V137.52Z" fill="#606060"/>
<path d="M68.78 137.52H62.53V143.77H68.78V137.52Z" fill="#606060"/>
<path d="M62.53 137.52H56.28V143.77H62.53V137.52Z" fill="#606060"/>
<path d="M56.28 137.52H50.03V143.77H56.28V137.52Z" fill="#606060"/>
<path d="M50.03 137.52H43.78V143.77H50.03V137.52Z" fill="#606060"/>
<path d="M43.78 137.52H37.53V143.77H43.78V137.52Z" fill="#606060"/>
<path d="M37.52 137.52H31.27V143.77H37.52V137.52Z" fill="#606060"/>
<path d="M31.27 137.52H25.02V143.77H31.27V137.52Z" fill="#606060"/>
<path d="M25.02 137.52H18.77V143.77H25.02V137.52Z" fill="#606060"/>
<path d="M18.77 137.52H12.52V143.77H18.77V137.52Z" fill="#606060"/>
<path d="M12.52 137.52H6.27002V143.77H12.52V137.52Z" fill="#4C4C4C"/>
<path d="M137.54 143.77H131.29V150.02H137.54V143.77Z" fill="#4C4C4C"/>
<path d="M131.29 143.77H125.04V150.02H131.29V143.77Z" fill="#4C4C4C"/>
<path d="M125.04 143.77H118.79V150.02H125.04V143.77Z" fill="#4C4C4C"/>
<path d="M118.79 143.77H112.54V150.02H118.79V143.77Z" fill="#4C4C4C"/>
<path d="M112.53 143.77H106.28V150.02H112.53V143.77Z" fill="#4C4C4C"/>
<path d="M106.28 143.77H100.03V150.02H106.28V143.77Z" fill="#4C4C4C"/>
<path d="M100.03 143.77H93.78V150.02H100.03V143.77Z" fill="#4C4C4C"/>
<path d="M93.78 143.77H87.53V150.02H93.78V143.77Z" fill="#4C4C4C"/>
<path d="M87.53 143.77H81.28V150.02H87.53V143.77Z" fill="#4C4C4C"/>
<path d="M81.28 143.77H75.03V150.02H81.28V143.77Z" fill="#4C4C4C"/>
<path d="M75.03 143.77H68.78V150.02H75.03V143.77Z" fill="#4C4C4C"/>
<path d="M68.78 143.77H62.53V150.02H68.78V143.77Z" fill="#4C4C4C"/>
<path d="M62.53 143.77H56.28V150.02H62.53V143.77Z" fill="#4C4C4C"/>
<path d="M56.28 143.77H50.03V150.02H56.28V143.77Z" fill="#4C4C4C"/>
<path d="M50.03 143.77H43.78V150.02H50.03V143.77Z" fill="#4C4C4C"/>
<path d="M43.78 143.77H37.53V150.02H43.78V143.77Z" fill="#4C4C4C"/>
<path d="M37.52 143.77H31.27V150.02H37.52V143.77Z" fill="#4C4C4C"/>
<path d="M31.27 143.77H25.02V150.02H31.27V143.77Z" fill="#4C4C4C"/>
<path d="M25.02 143.77H18.77V150.02H25.02V143.77Z" fill="#4C4C4C"/>
<path d="M18.77 143.77H12.52V150.02H18.77V143.77Z" fill="#4C4C4C"/>
<path d="M71.91 81.26V75.01H65.66V68.76H59.4V62.5H53.15V31.25H65.66V62.5H71.91V68.76H78.16V62.5H84.42V31.25H96.91V62.5H90.66V68.76H84.41V75.01H78.15V81.26H71.9H71.91Z" fill="#E5E5E5"/>
<path d="M71.91 93.76V87.51H65.66V81.26H59.4V75H53.15V43.75H65.66V75H71.91V81.26H78.16V75H84.42V43.75H96.91V75H90.66V81.26H84.41V87.51H78.15V93.76H71.9H71.91Z" fill="#808080"/>
<path d="M71.91 87.51V81.26H65.66V75.01H59.4V68.75H53.15V37.5H65.66V68.75H71.91V75.01H78.16V68.75H84.42V37.5H96.91V68.75H90.66V75.01H84.41V81.26H78.15V87.51H71.9H71.91Z" fill="#282828"/>
</g>
<defs>
<clipPath id="clip0_3_11157">
<rect width="150.02" height="150.02" fill="white" transform="translate(0.0200195)"/>
</clipPath>
</defs>
</svg>
