<svg width="151" height="151" viewBox="0 0 151 151" fill="none" xmlns="http://www.w3.org/2000/svg">
<g clip-path="url(#clip0_3_41594)">
<path d="M12.54 0.0200195V6.27002H6.29004V12.52H0.0400391V137.54H6.29004V143.79H12.54V150.04H37.54V150.02H37.55V150.04H112.55V150.02H112.56V150.04H137.56V143.79H143.81V137.54H150.06V112.54H150.04V112.53H150.06V37.53H150.04V37.52H150.06V12.52H143.81V6.27002H137.56V0.0200195H12.54Z" fill="#4C4C4C"/>
<path d="M137.56 0.0200195H131.31V6.27002H137.56V0.0200195Z" fill="#4C4C4C"/>
<path d="M131.31 0.0200195H125.06V6.27002H131.31V0.0200195Z" fill="#4C4C4C"/>
<path d="M125.06 0.0200195H118.81V6.27002H125.06V0.0200195Z" fill="#4C4C4C"/>
<path d="M118.81 0.0200195H112.56V6.27002H118.81V0.0200195Z" fill="#4C4C4C"/>
<path d="M112.55 0.0200195H106.3V6.27002H112.55V0.0200195Z" fill="#4C4C4C"/>
<path d="M106.3 0.0200195H100.05V6.27002H106.3V0.0200195Z" fill="#4C4C4C"/>
<path d="M100.05 0.0200195H93.8V6.27002H100.05V0.0200195Z" fill="#4C4C4C"/>
<path d="M93.8 0.0200195H87.55V6.27002H93.8V0.0200195Z" fill="#4C4C4C"/>
<path d="M87.55 0.0200195H81.3V6.27002H87.55V0.0200195Z" fill="#4C4C4C"/>
<path d="M81.3 0.0200195H75.05V6.27002H81.3V0.0200195Z" fill="#4C4C4C"/>
<path d="M75.05 0.0200195H68.8V6.27002H75.05V0.0200195Z" fill="#4C4C4C"/>
<path d="M68.8001 0.0200195H62.55V6.27002H68.8001V0.0200195Z" fill="#4C4C4C"/>
<path d="M62.55 0.0200195H56.3V6.27002H62.55V0.0200195Z" fill="#4C4C4C"/>
<path d="M56.3 0.0200195H50.05V6.27002H56.3V0.0200195Z" fill="#4C4C4C"/>
<path d="M50.05 0.0200195H43.8V6.27002H50.05V0.0200195Z" fill="#4C4C4C"/>
<path d="M43.8 0.0200195H37.55V6.27002H43.8V0.0200195Z" fill="#4C4C4C"/>
<path d="M37.54 0.0200195H31.29V6.27002H37.54V0.0200195Z" fill="#4C4C4C"/>
<path d="M31.29 0.0200195H25.04V6.27002H31.29V0.0200195Z" fill="#4C4C4C"/>
<path d="M25.04 0.0200195H18.79V6.27002H25.04V0.0200195Z" fill="#4C4C4C"/>
<path d="M18.79 0.0200195H12.54V6.27002H18.79V0.0200195Z" fill="#4C4C4C"/>
<path d="M143.81 6.27002H137.56V12.52H143.81V6.27002Z" fill="#4C4C4C"/>
<path d="M137.56 6.27002H131.31V12.52H137.56V6.27002Z" fill="#3D3D3D"/>
<path d="M131.31 6.27002H125.06V12.52H131.31V6.27002Z" fill="#3D3D3D"/>
<path d="M125.06 6.27002H118.81V12.52H125.06V6.27002Z" fill="#3D3D3D"/>
<path d="M118.81 6.27002H112.56V12.52H118.81V6.27002Z" fill="#3D3D3D"/>
<path d="M112.55 6.27002H106.3V12.52H112.55V6.27002Z" fill="#D6D6D6"/>
<path d="M106.3 6.27002H100.05V12.52H106.3V6.27002Z" fill="#A5A5A5"/>
<path d="M100.05 6.27002H93.8V12.52H100.05V6.27002Z" fill="#A5A5A5"/>
<path d="M93.8 6.27002H87.55V12.52H93.8V6.27002Z" fill="#A5A5A5"/>
<path d="M87.55 6.27002H81.3V12.52H87.55V6.27002Z" fill="#A5A5A5"/>
<path d="M81.3 6.27002H75.05V12.52H81.3V6.27002Z" fill="#A5A5A5"/>
<path d="M75.05 6.27002H68.8V12.52H75.05V6.27002Z" fill="#A5A5A5"/>
<path d="M68.8001 6.27002H62.55V12.52H68.8001V6.27002Z" fill="#A5A5A5"/>
<path d="M62.55 6.27002H56.3V12.52H62.55V6.27002Z" fill="#A5A5A5"/>
<path d="M56.3 6.27002H50.05V12.52H56.3V6.27002Z" fill="#A5A5A5"/>
<path d="M50.05 6.27002H43.8V12.52H50.05V6.27002Z" fill="#D6D6D6"/>
<path d="M43.8 6.27002H37.55V12.52H43.8V6.27002Z" fill="#D6D6D6"/>
<path d="M37.54 6.27002H31.29V12.52H37.54V6.27002Z" fill="#808080"/>
<path d="M31.29 6.27002H25.04V12.52H31.29V6.27002Z" fill="#808080"/>
<path d="M25.04 6.27002H18.79V12.52H25.04V6.27002Z" fill="#808080"/>
<path d="M18.79 6.27002H12.54V12.52H18.79V6.27002Z" fill="#808080"/>
<path d="M12.54 6.27002H6.29004V12.52H12.54V6.27002Z" fill="#4C4C4C"/>
<path d="M150.06 12.52H143.81V18.77H150.06V12.52Z" fill="#4C4C4C"/>
<path d="M143.81 12.52H137.56V18.77H143.81V12.52Z" fill="#3D3D3D"/>
<path d="M137.56 12.52H131.31V18.77H137.56V12.52Z" fill="#3D3D3D"/>
<path d="M131.31 12.52H125.06V18.77H131.31V12.52Z" fill="#3D3D3D"/>
<path d="M125.06 12.52H118.81V18.77H125.06V12.52Z" fill="#3D3D3D"/>
<path d="M118.81 12.52H112.56V18.77H118.81V12.52Z" fill="#D6D6D6"/>
<path d="M112.55 12.52H106.3V18.77H112.55V12.52Z" fill="#A5A5A5"/>
<path d="M106.3 12.52H100.05V18.77H106.3V12.52Z" fill="#A5A5A5"/>
<path d="M100.05 12.52H93.8V18.77H100.05V12.52Z" fill="#A5A5A5"/>
<path d="M93.8 12.52H87.55V18.77H93.8V12.52Z" fill="#A5A5A5"/>
<path d="M87.55 12.52H81.3V18.77H87.55V12.52Z" fill="#A5A5A5"/>
<path d="M81.3 12.52H75.05V18.77H81.3V12.52Z" fill="#A5A5A5"/>
<path d="M75.05 12.52H68.8V18.77H75.05V12.52Z" fill="#A5A5A5"/>
<path d="M68.8001 12.52H62.55V18.77H68.8001V12.52Z" fill="#A5A5A5"/>
<path d="M62.55 12.52H56.3V18.77H62.55V12.52Z" fill="#A5A5A5"/>
<path d="M56.3 12.52H50.05V18.77H56.3V12.52Z" fill="#D6D6D6"/>
<path d="M50.05 12.52H43.8V18.77H50.05V12.52Z" fill="#D6D6D6"/>
<path d="M43.8 12.52H37.55V18.77H43.8V12.52Z" fill="#D6D6D6"/>
<path d="M37.54 12.52H31.29V18.77H37.54V12.52Z" fill="#A5A5A5"/>
<path d="M31.29 12.52H25.04V18.77H31.29V12.52Z" fill="#808080"/>
<path d="M25.04 12.52H18.79V18.77H25.04V12.52Z" fill="#808080"/>
<path d="M18.79 12.52H12.54V18.77H18.79V12.52Z" fill="#808080"/>
<path d="M12.54 12.52H6.29004V18.77H12.54V12.52Z" fill="#808080"/>
<path d="M6.29004 12.52H0.0400391V18.77H6.29004V12.52Z" fill="#4C4C4C"/>
<path d="M150.06 18.77H143.81V25.02H150.06V18.77Z" fill="#4C4C4C"/>
<path d="M143.81 18.77H137.56V25.02H143.81V18.77Z" fill="#3D3D3D"/>
<path d="M137.56 18.77H131.31V25.02H137.56V18.77Z" fill="#3D3D3D"/>
<path d="M131.31 18.77H125.06V25.02H131.31V18.77Z" fill="#3D3D3D"/>
<path d="M125.06 18.77H118.81V25.02H125.06V18.77Z" fill="#3D3D3D"/>
<path d="M118.81 18.77H112.56V25.02H118.81V18.77Z" fill="#A5A5A5"/>
<path d="M112.55 18.77H106.3V25.02H112.55V18.77Z" fill="#A5A5A5"/>
<path d="M106.3 18.77H100.05V25.02H106.3V18.77Z" fill="#A5A5A5"/>
<path d="M100.05 18.77H93.8V25.02H100.05V18.77Z" fill="#A5A5A5"/>
<path d="M93.8 18.77H87.55V25.02H93.8V18.77Z" fill="#A5A5A5"/>
<path d="M87.55 18.77H81.3V25.02H87.55V18.77Z" fill="#A5A5A5"/>
<path d="M81.3 18.77H75.05V25.02H81.3V18.77Z" fill="#A5A5A5"/>
<path d="M75.05 18.77H68.8V25.02H75.05V18.77Z" fill="#A5A5A5"/>
<path d="M68.8001 18.77H62.55V25.02H68.8001V18.77Z" fill="#A5A5A5"/>
<path d="M62.55 18.77H56.3V25.02H62.55V18.77Z" fill="#D6D6D6"/>
<path d="M56.3 18.77H50.05V25.02H56.3V18.77Z" fill="#D6D6D6"/>
<path d="M50.05 18.77H43.8V25.02H50.05V18.77Z" fill="#D6D6D6"/>
<path d="M43.8 18.77H37.55V25.02H43.8V18.77Z" fill="#A5A5A5"/>
<path d="M37.54 18.77H31.29V25.02H37.54V18.77Z" fill="#A5A5A5"/>
<path d="M31.29 18.77H25.04V25.02H31.29V18.77Z" fill="#808080"/>
<path d="M25.04 18.77H18.79V25.02H25.04V18.77Z" fill="#808080"/>
<path d="M18.79 18.77H12.54V25.02H18.79V18.77Z" fill="#808080"/>
<path d="M12.54 18.77H6.29004V25.02H12.54V18.77Z" fill="#808080"/>
<path d="M6.29004 18.77H0.0400391V25.02H6.29004V18.77Z" fill="#4C4C4C"/>
<path d="M150.06 25.02H143.81V31.27H150.06V25.02Z" fill="#4C4C4C"/>
<path d="M143.81 25.02H137.56V31.27H143.81V25.02Z" fill="#3D3D3D"/>
<path d="M137.56 25.02H131.31V31.27H137.56V25.02Z" fill="#3D3D3D"/>
<path d="M131.31 25.02H125.06V31.27H131.31V25.02Z" fill="#3D3D3D"/>
<path d="M125.06 25.02H118.81V31.27H125.06V25.02Z" fill="#3D3D3D"/>
<path d="M118.81 25.02H112.56V31.27H118.81V25.02Z" fill="#A5A5A5"/>
<path d="M112.55 25.02H106.3V31.27H112.55V25.02Z" fill="#A5A5A5"/>
<path d="M106.3 25.02H100.05V31.27H106.3V25.02Z" fill="#A5A5A5"/>
<path d="M100.05 25.02H93.8V31.27H100.05V25.02Z" fill="#A5A5A5"/>
<path d="M93.8 25.02H87.55V31.27H93.8V25.02Z" fill="#A5A5A5"/>
<path d="M87.55 25.02H81.3V31.27H87.55V25.02Z" fill="#A5A5A5"/>
<path d="M81.3 25.02H75.05V31.27H81.3V25.02Z" fill="#A5A5A5"/>
<path d="M75.05 25.02H68.8V31.27H75.05V25.02Z" fill="#A5A5A5"/>
<path d="M68.8001 25.02H62.55V31.27H68.8001V25.02Z" fill="#D6D6D6"/>
<path d="M62.55 25.02H56.3V31.27H62.55V25.02Z" fill="#D6D6D6"/>
<path d="M56.3 25.02H50.05V31.27H56.3V25.02Z" fill="#D6D6D6"/>
<path d="M50.05 25.02H43.8V31.27H50.05V25.02Z" fill="#A5A5A5"/>
<path d="M43.8 25.02H37.55V31.27H43.8V25.02Z" fill="#A5A5A5"/>
<path d="M37.54 25.02H31.29V31.27H37.54V25.02Z" fill="#A5A5A5"/>
<path d="M31.29 25.02H25.04V31.27H31.29V25.02Z" fill="#808080"/>
<path d="M25.04 25.02H18.79V31.27H25.04V25.02Z" fill="#808080"/>
<path d="M18.79 25.02H12.54V31.27H18.79V25.02Z" fill="#808080"/>
<path d="M12.54 25.02H6.29004V31.27H12.54V25.02Z" fill="#808080"/>
<path d="M6.29004 25.02H0.0400391V31.27H6.29004V25.02Z" fill="#4C4C4C"/>
<path d="M150.06 31.27H143.81V37.52H150.06V31.27Z" fill="#4C4C4C"/>
<path d="M143.81 31.27H137.56V37.52H143.81V31.27Z" fill="#3D3D3D"/>
<path d="M137.56 31.27H131.31V37.52H137.56V31.27Z" fill="#3D3D3D"/>
<path d="M131.31 31.27H125.06V37.52H131.31V31.27Z" fill="#3D3D3D"/>
<path d="M125.06 31.27H118.81V37.52H125.06V31.27Z" fill="#3D3D3D"/>
<path d="M118.81 31.27H112.56V37.52H118.81V31.27Z" fill="#A5A5A5"/>
<path d="M112.55 31.27H106.3V37.52H112.55V31.27Z" fill="#A5A5A5"/>
<path d="M106.3 31.27H100.05V37.52H106.3V31.27Z" fill="#A5A5A5"/>
<path d="M100.05 31.27H93.8V37.52H100.05V31.27Z" fill="#A5A5A5"/>
<path d="M93.8 31.27H87.55V37.52H93.8V31.27Z" fill="#A5A5A5"/>
<path d="M87.55 31.27H81.3V37.52H87.55V31.27Z" fill="#A5A5A5"/>
<path d="M81.3 31.27H75.05V37.52H81.3V31.27Z" fill="#A5A5A5"/>
<path d="M75.05 31.27H68.8V37.52H75.05V31.27Z" fill="#D6D6D6"/>
<path d="M68.8001 31.27H62.55V37.52H68.8001V31.27Z" fill="#D6D6D6"/>
<path d="M62.55 31.27H56.3V37.52H62.55V31.27Z" fill="#D6D6D6"/>
<path d="M56.3 31.27H50.05V37.52H56.3V31.27Z" fill="#A5A5A5"/>
<path d="M50.05 31.27H43.8V37.52H50.05V31.27Z" fill="#A5A5A5"/>
<path d="M43.8 31.27H37.55V37.52H43.8V31.27Z" fill="#A5A5A5"/>
<path d="M37.54 31.27H31.29V37.52H37.54V31.27Z" fill="#D6D6D6"/>
<path d="M31.29 31.27H25.04V37.52H31.29V31.27Z" fill="#808080"/>
<path d="M25.04 31.27H18.79V37.52H25.04V31.27Z" fill="#808080"/>
<path d="M18.79 31.27H12.54V37.52H18.79V31.27Z" fill="#808080"/>
<path d="M12.54 31.27H6.29004V37.52H12.54V31.27Z" fill="#808080"/>
<path d="M6.29004 31.27H0.0400391V37.52H6.29004V31.27Z" fill="#4C4C4C"/>
<path d="M150.06 37.53H143.81V43.78H150.06V37.53Z" fill="#4C4C4C"/>
<path d="M143.81 37.53H137.56V43.78H143.81V37.53Z" fill="#3D3D3D"/>
<path d="M137.56 37.53H131.31V43.78H137.56V37.53Z" fill="#3D3D3D"/>
<path d="M131.31 37.53H125.06V43.78H131.31V37.53Z" fill="#3D3D3D"/>
<path d="M125.06 37.53H118.81V43.78H125.06V37.53Z" fill="#3D3D3D"/>
<path d="M118.81 37.53H112.56V43.78H118.81V37.53Z" fill="#A5A5A5"/>
<path d="M112.55 37.53H106.3V43.78H112.55V37.53Z" fill="#A5A5A5"/>
<path d="M106.3 37.53H100.05V43.78H106.3V37.53Z" fill="#A5A5A5"/>
<path d="M100.05 37.53H93.8V43.78H100.05V37.53Z" fill="#A5A5A5"/>
<path d="M93.8 37.53H87.55V43.78H93.8V37.53Z" fill="#A5A5A5"/>
<path d="M87.55 37.53H81.3V43.78H87.55V37.53Z" fill="#A5A5A5"/>
<path d="M81.3 37.53H75.05V43.78H81.3V37.53Z" fill="#D6D6D6"/>
<path d="M75.05 37.53H68.8V43.78H75.05V37.53Z" fill="#D6D6D6"/>
<path d="M68.8001 37.53H62.55V43.78H68.8001V37.53Z" fill="#D6D6D6"/>
<path d="M62.55 37.53H56.3V43.78H62.55V37.53Z" fill="#A5A5A5"/>
<path d="M56.3 37.53H50.05V43.78H56.3V37.53Z" fill="#A5A5A5"/>
<path d="M50.05 37.53H43.8V43.78H50.05V37.53Z" fill="#A5A5A5"/>
<path d="M43.8 37.53H37.55V43.78H43.8V37.53Z" fill="#D6D6D6"/>
<path d="M37.54 37.53H31.29V43.78H37.54V37.53Z" fill="#A5A5A5"/>
<path d="M31.29 37.53H25.04V43.78H31.29V37.53Z" fill="#808080"/>
<path d="M25.04 37.53H18.79V43.78H25.04V37.53Z" fill="#808080"/>
<path d="M18.79 37.53H12.54V43.78H18.79V37.53Z" fill="#808080"/>
<path d="M12.54 37.53H6.29004V43.78H12.54V37.53Z" fill="#808080"/>
<path d="M6.29004 37.53H0.0400391V43.78H6.29004V37.53Z" fill="#4C4C4C"/>
<path d="M150.06 43.78H143.81V50.03H150.06V43.78Z" fill="#4C4C4C"/>
<path d="M143.81 43.78H137.56V50.03H143.81V43.78Z" fill="#3D3D3D"/>
<path d="M137.56 43.78H131.31V50.03H137.56V43.78Z" fill="#3D3D3D"/>
<path d="M131.31 43.78H125.06V50.03H131.31V43.78Z" fill="#3D3D3D"/>
<path d="M125.06 43.78H118.81V50.03H125.06V43.78Z" fill="#3D3D3D"/>
<path d="M118.81 43.78H112.56V50.03H118.81V43.78Z" fill="#A5A5A5"/>
<path d="M112.55 43.78H106.3V50.03H112.55V43.78Z" fill="#A5A5A5"/>
<path d="M106.3 43.78H100.05V50.03H106.3V43.78Z" fill="#A5A5A5"/>
<path d="M100.05 43.78H93.8V50.03H100.05V43.78Z" fill="#A5A5A5"/>
<path d="M93.8 43.78H87.55V50.03H93.8V43.78Z" fill="#A5A5A5"/>
<path d="M87.55 43.78H81.3V50.03H87.55V43.78Z" fill="#D6D6D6"/>
<path d="M81.3 43.78H75.05V50.03H81.3V43.78Z" fill="#D6D6D6"/>
<path d="M75.05 43.78H68.8V50.03H75.05V43.78Z" fill="#D6D6D6"/>
<path d="M68.8001 43.78H62.55V50.03H68.8001V43.78Z" fill="#A5A5A5"/>
<path d="M62.55 43.78H56.3V50.03H62.55V43.78Z" fill="#A5A5A5"/>
<path d="M56.3 43.78H50.05V50.03H56.3V43.78Z" fill="#A5A5A5"/>
<path d="M50.05 43.78H43.8V50.03H50.05V43.78Z" fill="#D6D6D6"/>
<path d="M43.8 43.78H37.55V50.03H43.8V43.78Z" fill="#A5A5A5"/>
<path d="M37.54 43.78H31.29V50.03H37.54V43.78Z" fill="#A5A5A5"/>
<path d="M31.29 43.78H25.04V50.03H31.29V43.78Z" fill="#808080"/>
<path d="M25.04 43.78H18.79V50.03H25.04V43.78Z" fill="#808080"/>
<path d="M18.79 43.78H12.54V50.03H18.79V43.78Z" fill="#808080"/>
<path d="M12.54 43.78H6.29004V50.03H12.54V43.78Z" fill="#808080"/>
<path d="M6.29004 43.78H0.0400391V50.03H6.29004V43.78Z" fill="#4C4C4C"/>
<path d="M150.06 50.03H143.81V56.28H150.06V50.03Z" fill="#4C4C4C"/>
<path d="M143.81 50.03H137.56V56.28H143.81V50.03Z" fill="#3D3D3D"/>
<path d="M137.56 50.03H131.31V56.28H137.56V50.03Z" fill="#3D3D3D"/>
<path d="M131.31 50.03H125.06V56.28H131.31V50.03Z" fill="#3D3D3D"/>
<path d="M125.06 50.03H118.81V56.28H125.06V50.03Z" fill="#3D3D3D"/>
<path d="M118.81 50.03H112.56V56.28H118.81V50.03Z" fill="#A5A5A5"/>
<path d="M112.55 50.03H106.3V56.28H112.55V50.03Z" fill="#A5A5A5"/>
<path d="M106.3 50.03H100.05V56.28H106.3V50.03Z" fill="#A5A5A5"/>
<path d="M100.05 50.03H93.8V56.28H100.05V50.03Z" fill="#A5A5A5"/>
<path d="M93.8 50.03H87.55V56.28H93.8V50.03Z" fill="#D6D6D6"/>
<path d="M87.55 50.03H81.3V56.28H87.55V50.03Z" fill="#D6D6D6"/>
<path d="M81.3 50.03H75.05V56.28H81.3V50.03Z" fill="#D6D6D6"/>
<path d="M75.05 50.03H68.8V56.28H75.05V50.03Z" fill="#A5A5A5"/>
<path d="M68.8001 50.03H62.55V56.28H68.8001V50.03Z" fill="#A5A5A5"/>
<path d="M62.55 50.03H56.3V56.28H62.55V50.03Z" fill="#A5A5A5"/>
<path d="M56.3 50.03H50.05V56.28H56.3V50.03Z" fill="#D6D6D6"/>
<path d="M50.05 50.03H43.8V56.28H50.05V50.03Z" fill="#A5A5A5"/>
<path d="M43.8 50.03H37.55V56.28H43.8V50.03Z" fill="#A5A5A5"/>
<path d="M37.54 50.03H31.29V56.28H37.54V50.03Z" fill="#A5A5A5"/>
<path d="M31.29 50.03H25.04V56.28H31.29V50.03Z" fill="#808080"/>
<path d="M25.04 50.03H18.79V56.28H25.04V50.03Z" fill="#808080"/>
<path d="M18.79 50.03H12.54V56.28H18.79V50.03Z" fill="#808080"/>
<path d="M12.54 50.03H6.29004V56.28H12.54V50.03Z" fill="#808080"/>
<path d="M6.29004 50.03H0.0400391V56.28H6.29004V50.03Z" fill="#4C4C4C"/>
<path d="M150.06 56.28H143.81V62.53H150.06V56.28Z" fill="#4C4C4C"/>
<path d="M143.81 56.28H137.56V62.53H143.81V56.28Z" fill="#3D3D3D"/>
<path d="M137.56 56.28H131.31V62.53H137.56V56.28Z" fill="#3D3D3D"/>
<path d="M131.31 56.28H125.06V62.53H131.31V56.28Z" fill="#3D3D3D"/>
<path d="M125.06 56.28H118.81V62.53H125.06V56.28Z" fill="#3D3D3D"/>
<path d="M118.81 56.28H112.56V62.53H118.81V56.28Z" fill="#A5A5A5"/>
<path d="M112.55 56.28H106.3V62.53H112.55V56.28Z" fill="#A5A5A5"/>
<path d="M106.3 56.28H100.05V62.53H106.3V56.28Z" fill="#A5A5A5"/>
<path d="M150.06 62.53H143.81V68.78H150.06V62.53Z" fill="#4C4C4C"/>
<path d="M143.81 62.53H137.56V68.78H143.81V62.53Z" fill="#3D3D3D"/>
<path d="M137.56 62.53H131.31V68.78H137.56V62.53Z" fill="#3D3D3D"/>
<path d="M131.31 62.53H125.06V68.78H131.31V62.53Z" fill="#3D3D3D"/>
<path d="M125.06 62.53H118.81V68.78H125.06V62.53Z" fill="#3D3D3D"/>
<path d="M118.81 62.53H112.56V68.78H118.81V62.53Z" fill="#A5A5A5"/>
<path d="M112.55 62.53H106.3V68.78H112.55V62.53Z" fill="#A5A5A5"/>
<path d="M106.3 62.53H100.05V68.78H106.3V62.53Z" fill="#D6D6D6"/>
<path d="M150.06 68.78H143.81V75.03H150.06V68.78Z" fill="#4C4C4C"/>
<path d="M143.81 68.78H137.56V75.03H143.81V68.78Z" fill="#3D3D3D"/>
<path d="M137.56 68.78H131.31V75.03H137.56V68.78Z" fill="#3D3D3D"/>
<path d="M131.31 68.78H125.06V75.03H131.31V68.78Z" fill="#3D3D3D"/>
<path d="M125.06 68.78H118.81V75.03H125.06V68.78Z" fill="#3D3D3D"/>
<path d="M118.81 68.78H112.56V75.03H118.81V68.78Z" fill="#A5A5A5"/>
<path d="M112.55 68.78H106.3V75.03H112.55V68.78Z" fill="#D6D6D6"/>
<path d="M106.3 68.78H100.05V75.03H106.3V68.78Z" fill="#D6D6D6"/>
<path d="M150.06 75.03H143.81V81.28H150.06V75.03Z" fill="#4C4C4C"/>
<path d="M143.81 75.03H137.56V81.28H143.81V75.03Z" fill="#3D3D3D"/>
<path d="M137.56 75.03H131.31V81.28H137.56V75.03Z" fill="#3D3D3D"/>
<path d="M131.31 75.03H125.06V81.28H131.31V75.03Z" fill="#3D3D3D"/>
<path d="M125.06 75.03H118.81V81.28H125.06V75.03Z" fill="#3D3D3D"/>
<path d="M118.81 75.03H112.56V81.28H118.81V75.03Z" fill="#D6D6D6"/>
<path d="M112.55 75.03H106.3V81.28H112.55V75.03Z" fill="#D6D6D6"/>
<path d="M106.3 75.03H100.05V81.28H106.3V75.03Z" fill="#D6D6D6"/>
<path d="M150.06 81.28H143.81V87.53H150.06V81.28Z" fill="#4C4C4C"/>
<path d="M143.81 81.28H137.56V87.53H143.81V81.28Z" fill="#3D3D3D"/>
<path d="M137.56 81.28H131.31V87.53H137.56V81.28Z" fill="#3D3D3D"/>
<path d="M131.31 81.28H125.06V87.53H131.31V81.28Z" fill="#3D3D3D"/>
<path d="M125.06 81.28H118.81V87.53H125.06V81.28Z" fill="#3D3D3D"/>
<path d="M118.81 81.28H112.56V87.53H118.81V81.28Z" fill="#D6D6D6"/>
<path d="M112.55 81.28H106.3V87.53H112.55V81.28Z" fill="#D6D6D6"/>
<path d="M106.3 81.28H100.05V87.53H106.3V81.28Z" fill="#A5A5A5"/>
<path d="M150.06 87.53H143.81V93.78H150.06V87.53Z" fill="#4C4C4C"/>
<path d="M143.81 87.53H137.56V93.78H143.81V87.53Z" fill="#3D3D3D"/>
<path d="M137.56 87.53H131.31V93.78H137.56V87.53Z" fill="#3D3D3D"/>
<path d="M131.31 87.53H125.06V93.78H131.31V87.53Z" fill="#3D3D3D"/>
<path d="M125.06 87.53H118.81V93.78H125.06V87.53Z" fill="#3D3D3D"/>
<path d="M118.81 87.53H112.56V93.78H118.81V87.53Z" fill="#D6D6D6"/>
<path d="M112.55 87.53H106.3V93.78H112.55V87.53Z" fill="#A5A5A5"/>
<path d="M106.3 87.53H100.05V93.78H106.3V87.53Z" fill="#A5A5A5"/>
<path d="M150.06 93.78H143.81V100.03H150.06V93.78Z" fill="#4C4C4C"/>
<path d="M143.81 93.78H137.56V100.03H143.81V93.78Z" fill="#3D3D3D"/>
<path d="M137.56 93.78H131.31V100.03H137.56V93.78Z" fill="#3D3D3D"/>
<path d="M131.31 93.78H125.06V100.03H131.31V93.78Z" fill="#3D3D3D"/>
<path d="M125.06 93.78H118.81V100.03H125.06V93.78Z" fill="#3D3D3D"/>
<path d="M118.81 93.78H112.56V100.03H118.81V93.78Z" fill="#A5A5A5"/>
<path d="M112.55 93.78H106.3V100.03H112.55V93.78Z" fill="#A5A5A5"/>
<path d="M106.3 93.78H100.05V100.03H106.3V93.78Z" fill="#A5A5A5"/>
<path d="M150.06 100.03H143.81V106.28H150.06V100.03Z" fill="#4C4C4C"/>
<path d="M143.81 100.03H137.56V106.28H143.81V100.03Z" fill="#3D3D3D"/>
<path d="M137.56 100.03H131.31V106.28H137.56V100.03Z" fill="#3D3D3D"/>
<path d="M131.31 100.03H125.06V106.28H131.31V100.03Z" fill="#3D3D3D"/>
<path d="M125.06 100.03H118.81V106.28H125.06V100.03Z" fill="#3D3D3D"/>
<path d="M118.81 100.03H112.56V106.28H118.81V100.03Z" fill="#A5A5A5"/>
<path d="M112.55 100.03H106.3V106.28H112.55V100.03Z" fill="#A5A5A5"/>
<path d="M106.3 100.03H100.05V106.28H106.3V100.03Z" fill="#D6D6D6"/>
<path d="M100.05 62.53H93.8V68.78H100.05V62.53Z" fill="#D6D6D6"/>
<path d="M93.8 62.53H87.55V68.78H93.8V62.53Z" fill="#D6D6D6"/>
<path d="M87.55 62.53H81.3V68.78H87.55V62.53Z" fill="#A5A5A5"/>
<path d="M100.05 68.78H93.8V75.03H100.05V68.78Z" fill="#D6D6D6"/>
<path d="M93.8 68.78H87.55V75.03H93.8V68.78Z" fill="#A5A5A5"/>
<path d="M87.55 68.78H81.3V75.03H87.55V68.78Z" fill="#A5A5A5"/>
<path d="M100.05 75.03H93.8V81.28H100.05V75.03Z" fill="#A5A5A5"/>
<path d="M93.8 75.03H87.55V81.28H93.8V75.03Z" fill="#A5A5A5"/>
<path d="M87.55 75.03H81.3V81.28H87.55V75.03Z" fill="#A5A5A5"/>
<path d="M100.05 81.28H93.8V87.53H100.05V81.28Z" fill="#A5A5A5"/>
<path d="M93.8 81.28H87.55V87.53H93.8V81.28Z" fill="#A5A5A5"/>
<path d="M87.55 81.28H81.3V87.53H87.55V81.28Z" fill="#D6D6D6"/>
<path d="M100.05 87.53H93.8V93.78H100.05V87.53Z" fill="#A5A5A5"/>
<path d="M93.8 87.53H87.55V93.78H93.8V87.53Z" fill="#D6D6D6"/>
<path d="M87.55 87.53H81.3V93.78H87.55V87.53Z" fill="#A5A5A5"/>
<path d="M100.05 93.78H93.8V100.03H100.05V93.78Z" fill="#D6D6D6"/>
<path d="M93.8 93.78H87.55V100.03H93.8V93.78Z" fill="#A5A5A5"/>
<path d="M87.55 93.78H81.3V100.03H87.55V93.78Z" fill="#A5A5A5"/>
<path d="M100.05 100.03H93.8V106.28H100.05V100.03Z" fill="#A5A5A5"/>
<path d="M93.8 100.03H87.55V106.28H93.8V100.03Z" fill="#A5A5A5"/>
<path d="M87.55 100.03H81.3V106.28H87.55V100.03Z" fill="#A5A5A5"/>
<path d="M81.3 62.53H75.05V68.78H81.3V62.53Z" fill="#A5A5A5"/>
<path d="M75.05 62.53H68.8V68.78H75.05V62.53Z" fill="#A5A5A5"/>
<path d="M68.8001 62.53H62.55V68.78H68.8001V62.53Z" fill="#D6D6D6"/>
<path d="M81.3 68.78H75.05V75.03H81.3V68.78Z" fill="#A5A5A5"/>
<path d="M75.05 68.78H68.8V75.03H75.05V68.78Z" fill="#D6D6D6"/>
<path d="M68.8001 68.78H62.55V75.03H68.8001V68.78Z" fill="#A5A5A5"/>
<path d="M81.3 75.03H75.05V81.28H81.3V75.03Z" fill="#D6D6D6"/>
<path d="M75.05 75.03H68.8V81.28H75.05V75.03Z" fill="#A5A5A5"/>
<path d="M68.8001 75.03H62.55V81.28H68.8001V75.03Z" fill="#A5A5A5"/>
<path d="M81.3 81.28H75.05V87.53H81.3V81.28Z" fill="#A5A5A5"/>
<path d="M75.05 81.28H68.8V87.53H75.05V81.28Z" fill="#A5A5A5"/>
<path d="M68.8001 81.28H62.55V87.53H68.8001V81.28Z" fill="#A5A5A5"/>
<path d="M81.3 87.53H75.05V93.78H81.3V87.53Z" fill="#A5A5A5"/>
<path d="M75.05 87.53H68.8V93.78H75.05V87.53Z" fill="#A5A5A5"/>
<path d="M68.8001 87.53H62.55V93.78H68.8001V87.53Z" fill="#A5A5A5"/>
<path d="M81.3 93.78H75.05V100.03H81.3V93.78Z" fill="#A5A5A5"/>
<path d="M75.05 93.78H68.8V100.03H75.05V93.78Z" fill="#A5A5A5"/>
<path d="M68.8001 93.78H62.55V100.03H68.8001V93.78Z" fill="#A5A5A5"/>
<path d="M81.3 100.03H75.05V106.28H81.3V100.03Z" fill="#A5A5A5"/>
<path d="M75.05 100.03H68.8V106.28H75.05V100.03Z" fill="#A5A5A5"/>
<path d="M68.8001 100.03H62.55V106.28H68.8001V100.03Z" fill="#A5A5A5"/>
<path d="M62.55 62.53H56.3V68.78H62.55V62.53Z" fill="#A5A5A5"/>
<path d="M56.3 62.53H50.05V68.78H56.3V62.53Z" fill="#A5A5A5"/>
<path d="M50.05 62.53H43.8V68.78H50.05V62.53Z" fill="#A5A5A5"/>
<path d="M62.55 68.78H56.3V75.03H62.55V68.78Z" fill="#A5A5A5"/>
<path d="M56.3 68.78H50.05V75.03H56.3V68.78Z" fill="#A5A5A5"/>
<path d="M50.05 68.78H43.8V75.03H50.05V68.78Z" fill="#A5A5A5"/>
<path d="M62.55 75.03H56.3V81.28H62.55V75.03Z" fill="#A5A5A5"/>
<path d="M56.3 75.03H50.05V81.28H56.3V75.03Z" fill="#A5A5A5"/>
<path d="M50.05 75.03H43.8V81.28H50.05V75.03Z" fill="#A5A5A5"/>
<path d="M62.55 81.28H56.3V87.53H62.55V81.28Z" fill="#A5A5A5"/>
<path d="M56.3 81.28H50.05V87.53H56.3V81.28Z" fill="#A5A5A5"/>
<path d="M50.05 81.28H43.8V87.53H50.05V81.28Z" fill="#A5A5A5"/>
<path d="M62.55 87.53H56.3V93.78H62.55V87.53Z" fill="#A5A5A5"/>
<path d="M56.3 87.53H50.05V93.78H56.3V87.53Z" fill="#A5A5A5"/>
<path d="M50.05 87.53H43.8V93.78H50.05V87.53Z" fill="#A5A5A5"/>
<path d="M62.55 93.78H56.3V100.03H62.55V93.78Z" fill="#A5A5A5"/>
<path d="M56.3 93.78H50.05V100.03H56.3V93.78Z" fill="#A5A5A5"/>
<path d="M50.05 93.78H43.8V100.03H50.05V93.78Z" fill="#A5A5A5"/>
<path d="M62.55 100.03H56.3V106.28H62.55V100.03Z" fill="#A5A5A5"/>
<path d="M56.3 100.03H50.05V106.28H56.3V100.03Z" fill="#A5A5A5"/>
<path d="M50.05 100.03H43.8V106.28H50.05V100.03Z" fill="#A5A5A5"/>
<path d="M43.8 62.53H37.55V68.78H43.8V62.53Z" fill="#A5A5A5"/>
<path d="M37.54 62.53H31.29V68.78H37.54V62.53Z" fill="#A5A5A5"/>
<path d="M43.8 68.78H37.55V75.03H43.8V68.78Z" fill="#A5A5A5"/>
<path d="M37.54 68.78H31.29V75.03H37.54V68.78Z" fill="#A5A5A5"/>
<path d="M43.8 75.03H37.55V81.28H43.8V75.03Z" fill="#A5A5A5"/>
<path d="M37.54 75.03H31.29V81.28H37.54V75.03Z" fill="#A5A5A5"/>
<path d="M43.8 81.28H37.55V87.53H43.8V81.28Z" fill="#A5A5A5"/>
<path d="M37.54 81.28H31.29V87.53H37.54V81.28Z" fill="#A5A5A5"/>
<path d="M43.8 87.53H37.55V93.78H43.8V87.53Z" fill="#A5A5A5"/>
<path d="M37.54 87.53H31.29V93.78H37.54V87.53Z" fill="#A5A5A5"/>
<path d="M43.8 93.78H37.55V100.03H43.8V93.78Z" fill="#A5A5A5"/>
<path d="M37.54 93.78H31.29V100.03H37.54V93.78Z" fill="#A5A5A5"/>
<path d="M43.8 100.03H37.55V106.28H43.8V100.03Z" fill="#A5A5A5"/>
<path d="M37.54 100.03H31.29V106.28H37.54V100.03Z" fill="#A5A5A5"/>
<path d="M100.05 56.28H93.8V62.53H100.05V56.28Z" fill="#D6D6D6"/>
<path d="M93.8 56.28H87.55V62.53H93.8V56.28Z" fill="#D6D6D6"/>
<path d="M87.55 56.28H81.3V62.53H87.55V56.28Z" fill="#D6D6D6"/>
<path d="M81.3 56.28H75.05V62.53H81.3V56.28Z" fill="#A5A5A5"/>
<path d="M75.05 56.28H68.8V62.53H75.05V56.28Z" fill="#A5A5A5"/>
<path d="M68.8001 56.28H62.55V62.53H68.8001V56.28Z" fill="#A5A5A5"/>
<path d="M62.55 56.28H56.3V62.53H62.55V56.28Z" fill="#D6D6D6"/>
<path d="M56.3 56.28H50.05V62.53H56.3V56.28Z" fill="#A5A5A5"/>
<path d="M50.05 56.28H43.8V62.53H50.05V56.28Z" fill="#A5A5A5"/>
<path d="M43.8 56.28H37.55V62.53H43.8V56.28Z" fill="#A5A5A5"/>
<path d="M37.54 56.28H31.29V62.53H37.54V56.28Z" fill="#A5A5A5"/>
<path d="M31.29 56.28H25.04V62.53H31.29V56.28Z" fill="#808080"/>
<path d="M25.04 56.28H18.79V62.53H25.04V56.28Z" fill="#808080"/>
<path d="M18.79 56.28H12.54V62.53H18.79V56.28Z" fill="#808080"/>
<path d="M12.54 56.28H6.29004V62.53H12.54V56.28Z" fill="#808080"/>
<path d="M6.29004 56.28H0.0400391V62.53H6.29004V56.28Z" fill="#4C4C4C"/>
<path d="M31.29 62.53H25.04V68.78H31.29V62.53Z" fill="#808080"/>
<path d="M25.04 62.53H18.79V68.78H25.04V62.53Z" fill="#808080"/>
<path d="M18.79 62.53H12.54V68.78H18.79V62.53Z" fill="#808080"/>
<path d="M12.54 62.53H6.29004V68.78H12.54V62.53Z" fill="#808080"/>
<path d="M6.29004 62.53H0.0400391V68.78H6.29004V62.53Z" fill="#4C4C4C"/>
<path d="M31.29 68.78H25.04V75.03H31.29V68.78Z" fill="#808080"/>
<path d="M25.04 68.78H18.79V75.03H25.04V68.78Z" fill="#808080"/>
<path d="M18.79 68.78H12.54V75.03H18.79V68.78Z" fill="#808080"/>
<path d="M12.54 68.78H6.29004V75.03H12.54V68.78Z" fill="#808080"/>
<path d="M6.29004 68.78H0.0400391V75.03H6.29004V68.78Z" fill="#4C4C4C"/>
<path d="M31.29 75.03H25.04V81.28H31.29V75.03Z" fill="#808080"/>
<path d="M25.04 75.03H18.79V81.28H25.04V75.03Z" fill="#808080"/>
<path d="M18.79 75.03H12.54V81.28H18.79V75.03Z" fill="#808080"/>
<path d="M12.54 75.03H6.29004V81.28H12.54V75.03Z" fill="#808080"/>
<path d="M6.29004 75.03H0.0400391V81.28H6.29004V75.03Z" fill="#4C4C4C"/>
<path d="M31.29 81.28H25.04V87.53H31.29V81.28Z" fill="#808080"/>
<path d="M25.04 81.28H18.79V87.53H25.04V81.28Z" fill="#808080"/>
<path d="M18.79 81.28H12.54V87.53H18.79V81.28Z" fill="#808080"/>
<path d="M12.54 81.28H6.29004V87.53H12.54V81.28Z" fill="#808080"/>
<path d="M6.29004 81.28H0.0400391V87.53H6.29004V81.28Z" fill="#4C4C4C"/>
<path d="M31.29 87.53H25.04V93.78H31.29V87.53Z" fill="#808080"/>
<path d="M25.04 87.53H18.79V93.78H25.04V87.53Z" fill="#808080"/>
<path d="M18.79 87.53H12.54V93.78H18.79V87.53Z" fill="#808080"/>
<path d="M12.54 87.53H6.29004V93.78H12.54V87.53Z" fill="#808080"/>
<path d="M6.29004 87.53H0.0400391V93.78H6.29004V87.53Z" fill="#4C4C4C"/>
<path d="M31.29 93.78H25.04V100.03H31.29V93.78Z" fill="#808080"/>
<path d="M25.04 93.78H18.79V100.03H25.04V93.78Z" fill="#808080"/>
<path d="M18.79 93.78H12.54V100.03H18.79V93.78Z" fill="#808080"/>
<path d="M12.54 93.78H6.29004V100.03H12.54V93.78Z" fill="#808080"/>
<path d="M6.29004 93.78H0.0400391V100.03H6.29004V93.78Z" fill="#4C4C4C"/>
<path d="M31.29 100.03H25.04V106.28H31.29V100.03Z" fill="#808080"/>
<path d="M25.04 100.03H18.79V106.28H25.04V100.03Z" fill="#808080"/>
<path d="M18.79 100.03H12.54V106.28H18.79V100.03Z" fill="#808080"/>
<path d="M12.54 100.03H6.29004V106.28H12.54V100.03Z" fill="#808080"/>
<path d="M6.29004 100.03H0.0400391V106.28H6.29004V100.03Z" fill="#4C4C4C"/>
<path d="M150.06 106.28H143.81V112.53H150.06V106.28Z" fill="#4C4C4C"/>
<path d="M143.81 106.28H137.56V112.53H143.81V106.28Z" fill="#3D3D3D"/>
<path d="M137.56 106.28H131.31V112.53H137.56V106.28Z" fill="#3D3D3D"/>
<path d="M131.31 106.28H125.06V112.53H131.31V106.28Z" fill="#3D3D3D"/>
<path d="M125.06 106.28H118.81V112.53H125.06V106.28Z" fill="#3D3D3D"/>
<path d="M118.81 106.28H112.56V112.53H118.81V106.28Z" fill="#D6D6D6"/>
<path d="M112.55 106.28H106.3V112.53H112.55V106.28Z" fill="#D6D6D6"/>
<path d="M106.3 106.28H100.05V112.53H106.3V106.28Z" fill="#A5A5A5"/>
<path d="M100.05 106.28H93.8V112.53H100.05V106.28Z" fill="#A5A5A5"/>
<path d="M93.8 106.28H87.55V112.53H93.8V106.28Z" fill="#A5A5A5"/>
<path d="M87.55 106.28H81.3V112.53H87.55V106.28Z" fill="#A5A5A5"/>
<path d="M81.3 106.28H75.05V112.53H81.3V106.28Z" fill="#A5A5A5"/>
<path d="M75.05 106.28H68.8V112.53H75.05V106.28Z" fill="#A5A5A5"/>
<path d="M68.8001 106.28H62.55V112.53H68.8001V106.28Z" fill="#A5A5A5"/>
<path d="M62.55 106.28H56.3V112.53H62.55V106.28Z" fill="#A5A5A5"/>
<path d="M56.3 106.28H50.05V112.53H56.3V106.28Z" fill="#A5A5A5"/>
<path d="M50.05 106.28H43.8V112.53H50.05V106.28Z" fill="#A5A5A5"/>
<path d="M43.8 106.28H37.55V112.53H43.8V106.28Z" fill="#A5A5A5"/>
<path d="M37.54 106.28H31.29V112.53H37.54V106.28Z" fill="#D6D6D6"/>
<path d="M31.29 106.28H25.04V112.53H31.29V106.28Z" fill="#808080"/>
<path d="M25.04 106.28H18.79V112.53H25.04V106.28Z" fill="#808080"/>
<path d="M18.79 106.28H12.54V112.53H18.79V106.28Z" fill="#808080"/>
<path d="M12.54 106.28H6.29004V112.53H12.54V106.28Z" fill="#808080"/>
<path d="M6.29004 106.28H0.0400391V112.53H6.29004V106.28Z" fill="#4C4C4C"/>
<path d="M150.06 112.54H143.81V118.79H150.06V112.54Z" fill="#4C4C4C"/>
<path d="M143.81 112.54H137.56V118.79H143.81V112.54Z" fill="#3D3D3D"/>
<path d="M137.56 112.54H131.31V118.79H137.56V112.54Z" fill="#3D3D3D"/>
<path d="M131.31 112.54H125.06V118.79H131.31V112.54Z" fill="#3D3D3D"/>
<path d="M125.06 112.54H118.81V118.79H125.06V112.54Z" fill="#3D3D3D"/>
<path d="M118.81 112.54H112.56V118.79H118.81V112.54Z" fill="#808080"/>
<path d="M112.55 112.54H106.3V118.79H112.55V112.54Z" fill="#D6D6D6"/>
<path d="M106.3 112.54H100.05V118.79H106.3V112.54Z" fill="#D6D6D6"/>
<path d="M100.05 112.54H93.8V118.79H100.05V112.54Z" fill="#D6D6D6"/>
<path d="M93.8 112.54H87.55V118.79H93.8V112.54Z" fill="#D6D6D6"/>
<path d="M87.55 112.54H81.3V118.79H87.55V112.54Z" fill="#D6D6D6"/>
<path d="M81.3 112.54H75.05V118.79H81.3V112.54Z" fill="#D6D6D6"/>
<path d="M75.05 112.54H68.8V118.79H75.05V112.54Z" fill="#D6D6D6"/>
<path d="M68.8001 112.54H62.55V118.79H68.8001V112.54Z" fill="#D6D6D6"/>
<path d="M62.55 112.54H56.3V118.79H62.55V112.54Z" fill="#D6D6D6"/>
<path d="M56.3 112.54H50.05V118.79H56.3V112.54Z" fill="#D6D6D6"/>
<path d="M50.05 112.54H43.8V118.79H50.05V112.54Z" fill="#D6D6D6"/>
<path d="M43.8 112.54H37.55V118.79H43.8V112.54Z" fill="#D6D6D6"/>
<path d="M37.54 112.54H31.29V118.79H37.54V112.54Z" fill="#A5A5A5"/>
<path d="M31.29 112.54H25.04V118.79H31.29V112.54Z" fill="#808080"/>
<path d="M25.04 112.54H18.79V118.79H25.04V112.54Z" fill="#808080"/>
<path d="M18.79 112.54H12.54V118.79H18.79V112.54Z" fill="#808080"/>
<path d="M12.54 112.54H6.29004V118.79H12.54V112.54Z" fill="#808080"/>
<path d="M6.29004 112.54H0.0400391V118.79H6.29004V112.54Z" fill="#4C4C4C"/>
<path d="M150.06 118.79H143.81V125.04H150.06V118.79Z" fill="#4C4C4C"/>
<path d="M143.81 118.79H137.56V125.04H143.81V118.79Z" fill="#3D3D3D"/>
<path d="M137.56 118.79H131.31V125.04H137.56V118.79Z" fill="#3D3D3D"/>
<path d="M131.31 118.79H125.06V125.04H131.31V118.79Z" fill="#3D3D3D"/>
<path d="M125.06 118.79H118.81V125.04H125.06V118.79Z" fill="#808080"/>
<path d="M118.81 118.79H112.56V125.04H118.81V118.79Z" fill="#606060"/>
<path d="M112.55 118.79H106.3V125.04H112.55V118.79Z" fill="#606060"/>
<path d="M106.3 118.79H100.05V125.04H106.3V118.79Z" fill="#606060"/>
<path d="M100.05 118.79H93.8V125.04H100.05V118.79Z" fill="#606060"/>
<path d="M93.8 118.79H87.55V125.04H93.8V118.79Z" fill="#606060"/>
<path d="M87.55 118.79H81.3V125.04H87.55V118.79Z" fill="#606060"/>
<path d="M81.3 118.79H75.05V125.04H81.3V118.79Z" fill="#606060"/>
<path d="M75.05 118.79H68.8V125.04H75.05V118.79Z" fill="#606060"/>
<path d="M68.8001 118.79H62.55V125.04H68.8001V118.79Z" fill="#606060"/>
<path d="M62.55 118.79H56.3V125.04H62.55V118.79Z" fill="#606060"/>
<path d="M56.3 118.79H50.05V125.04H56.3V118.79Z" fill="#606060"/>
<path d="M50.05 118.79H43.8V125.04H50.05V118.79Z" fill="#606060"/>
<path d="M43.8 118.79H37.55V125.04H43.8V118.79Z" fill="#606060"/>
<path d="M37.54 118.79H31.29V125.04H37.54V118.79Z" fill="#606060"/>
<path d="M31.29 118.79H25.04V125.04H31.29V118.79Z" fill="#A5A5A5"/>
<path d="M25.04 118.79H18.79V125.04H25.04V118.79Z" fill="#808080"/>
<path d="M18.79 118.79H12.54V125.04H18.79V118.79Z" fill="#808080"/>
<path d="M12.54 118.79H6.29004V125.04H12.54V118.79Z" fill="#808080"/>
<path d="M6.29004 118.79H0.0400391V125.04H6.29004V118.79Z" fill="#4C4C4C"/>
<path d="M150.06 125.04H143.81V131.29H150.06V125.04Z" fill="#4C4C4C"/>
<path d="M143.81 125.04H137.56V131.29H143.81V125.04Z" fill="#3D3D3D"/>
<path d="M137.56 125.04H131.31V131.29H137.56V125.04Z" fill="#3D3D3D"/>
<path d="M131.31 125.04H125.06V131.29H131.31V125.04Z" fill="#808080"/>
<path d="M125.06 125.04H118.81V131.29H125.06V125.04Z" fill="#606060"/>
<path d="M118.81 125.04H112.56V131.29H118.81V125.04Z" fill="#606060"/>
<path d="M112.55 125.04H106.3V131.29H112.55V125.04Z" fill="#606060"/>
<path d="M106.3 125.04H100.05V131.29H106.3V125.04Z" fill="#606060"/>
<path d="M100.05 125.04H93.8V131.29H100.05V125.04Z" fill="#606060"/>
<path d="M93.8 125.04H87.55V131.29H93.8V125.04Z" fill="#606060"/>
<path d="M87.55 125.04H81.3V131.29H87.55V125.04Z" fill="#606060"/>
<path d="M81.3 125.04H75.05V131.29H81.3V125.04Z" fill="#606060"/>
<path d="M75.05 125.04H68.8V131.29H75.05V125.04Z" fill="#606060"/>
<path d="M68.8001 125.04H62.55V131.29H68.8001V125.04Z" fill="#606060"/>
<path d="M62.55 125.04H56.3V131.29H62.55V125.04Z" fill="#606060"/>
<path d="M56.3 125.04H50.05V131.29H56.3V125.04Z" fill="#606060"/>
<path d="M50.05 125.04H43.8V131.29H50.05V125.04Z" fill="#606060"/>
<path d="M43.8 125.04H37.55V131.29H43.8V125.04Z" fill="#606060"/>
<path d="M37.54 125.04H31.29V131.29H37.54V125.04Z" fill="#606060"/>
<path d="M31.29 125.04H25.04V131.29H31.29V125.04Z" fill="#606060"/>
<path d="M25.04 125.04H18.79V131.29H25.04V125.04Z" fill="#A5A5A5"/>
<path d="M18.79 125.04H12.54V131.29H18.79V125.04Z" fill="#808080"/>
<path d="M12.54 125.04H6.29004V131.29H12.54V125.04Z" fill="#808080"/>
<path d="M6.29004 125.04H0.0400391V131.29H6.29004V125.04Z" fill="#4C4C4C"/>
<path d="M150.06 131.29H143.81V137.54H150.06V131.29Z" fill="#4C4C4C"/>
<path d="M143.81 131.29H137.56V137.54H143.81V131.29Z" fill="#3D3D3D"/>
<path d="M137.56 131.29H131.31V137.54H137.56V131.29Z" fill="#808080"/>
<path d="M131.31 131.29H125.06V137.54H131.31V131.29Z" fill="#606060"/>
<path d="M125.06 131.29H118.81V137.54H125.06V131.29Z" fill="#606060"/>
<path d="M118.81 131.29H112.56V137.54H118.81V131.29Z" fill="#606060"/>
<path d="M112.55 131.29H106.3V137.54H112.55V131.29Z" fill="#606060"/>
<path d="M106.3 131.29H100.05V137.54H106.3V131.29Z" fill="#606060"/>
<path d="M100.05 131.29H93.8V137.54H100.05V131.29Z" fill="#606060"/>
<path d="M93.8 131.29H87.55V137.54H93.8V131.29Z" fill="#606060"/>
<path d="M87.55 131.29H81.3V137.54H87.55V131.29Z" fill="#606060"/>
<path d="M81.3 131.29H75.05V137.54H81.3V131.29Z" fill="#606060"/>
<path d="M75.05 131.29H68.8V137.54H75.05V131.29Z" fill="#606060"/>
<path d="M68.8001 131.29H62.55V137.54H68.8001V131.29Z" fill="#606060"/>
<path d="M62.55 131.29H56.3V137.54H62.55V131.29Z" fill="#606060"/>
<path d="M56.3 131.29H50.05V137.54H56.3V131.29Z" fill="#606060"/>
<path d="M50.05 131.29H43.8V137.54H50.05V131.29Z" fill="#606060"/>
<path d="M43.8 131.29H37.55V137.54H43.8V131.29Z" fill="#606060"/>
<path d="M37.54 131.29H31.29V137.54H37.54V131.29Z" fill="#606060"/>
<path d="M31.29 131.29H25.04V137.54H31.29V131.29Z" fill="#606060"/>
<path d="M25.04 131.29H18.79V137.54H25.04V131.29Z" fill="#606060"/>
<path d="M18.79 131.29H12.54V137.54H18.79V131.29Z" fill="#A5A5A5"/>
<path d="M12.54 131.29H6.29004V137.54H12.54V131.29Z" fill="#808080"/>
<path d="M6.29004 131.29H0.0400391V137.54H6.29004V131.29Z" fill="#4C4C4C"/>
<path d="M143.81 137.54H137.56V143.79H143.81V137.54Z" fill="#4C4C4C"/>
<path d="M137.56 137.54H131.31V143.79H137.56V137.54Z" fill="#606060"/>
<path d="M131.31 137.54H125.06V143.79H131.31V137.54Z" fill="#606060"/>
<path d="M125.06 137.54H118.81V143.79H125.06V137.54Z" fill="#606060"/>
<path d="M118.81 137.54H112.56V143.79H118.81V137.54Z" fill="#606060"/>
<path d="M112.55 137.54H106.3V143.79H112.55V137.54Z" fill="#606060"/>
<path d="M106.3 137.54H100.05V143.79H106.3V137.54Z" fill="#606060"/>
<path d="M100.05 137.54H93.8V143.79H100.05V137.54Z" fill="#606060"/>
<path d="M93.8 137.54H87.55V143.79H93.8V137.54Z" fill="#606060"/>
<path d="M87.55 137.54H81.3V143.79H87.55V137.54Z" fill="#606060"/>
<path d="M81.3 137.54H75.05V143.79H81.3V137.54Z" fill="#606060"/>
<path d="M75.05 137.54H68.8V143.79H75.05V137.54Z" fill="#606060"/>
<path d="M68.8001 137.54H62.55V143.79H68.8001V137.54Z" fill="#606060"/>
<path d="M62.55 137.54H56.3V143.79H62.55V137.54Z" fill="#606060"/>
<path d="M56.3 137.54H50.05V143.79H56.3V137.54Z" fill="#606060"/>
<path d="M50.05 137.54H43.8V143.79H50.05V137.54Z" fill="#606060"/>
<path d="M43.8 137.54H37.55V143.79H43.8V137.54Z" fill="#606060"/>
<path d="M37.54 137.54H31.29V143.79H37.54V137.54Z" fill="#606060"/>
<path d="M31.29 137.54H25.04V143.79H31.29V137.54Z" fill="#606060"/>
<path d="M25.04 137.54H18.79V143.79H25.04V137.54Z" fill="#606060"/>
<path d="M18.79 137.54H12.54V143.79H18.79V137.54Z" fill="#606060"/>
<path d="M12.54 137.54H6.29004V143.79H12.54V137.54Z" fill="#4C4C4C"/>
<path d="M137.56 143.79H131.31V150.04H137.56V143.79Z" fill="#4C4C4C"/>
<path d="M131.31 143.79H125.06V150.04H131.31V143.79Z" fill="#4C4C4C"/>
<path d="M125.06 143.79H118.81V150.04H125.06V143.79Z" fill="#4C4C4C"/>
<path d="M118.81 143.79H112.56V150.04H118.81V143.79Z" fill="#4C4C4C"/>
<path d="M112.55 143.79H106.3V150.04H112.55V143.79Z" fill="#4C4C4C"/>
<path d="M106.3 143.79H100.05V150.04H106.3V143.79Z" fill="#4C4C4C"/>
<path d="M100.05 143.79H93.8V150.04H100.05V143.79Z" fill="#4C4C4C"/>
<path d="M93.8 143.79H87.55V150.04H93.8V143.79Z" fill="#4C4C4C"/>
<path d="M87.55 143.79H81.3V150.04H87.55V143.79Z" fill="#4C4C4C"/>
<path d="M81.3 143.79H75.05V150.04H81.3V143.79Z" fill="#4C4C4C"/>
<path d="M75.05 143.79H68.8V150.04H75.05V143.79Z" fill="#4C4C4C"/>
<path d="M68.8001 143.79H62.55V150.04H68.8001V143.79Z" fill="#4C4C4C"/>
<path d="M62.55 143.79H56.3V150.04H62.55V143.79Z" fill="#4C4C4C"/>
<path d="M56.3 143.79H50.05V150.04H56.3V143.79Z" fill="#4C4C4C"/>
<path d="M50.05 143.79H43.8V150.04H50.05V143.79Z" fill="#4C4C4C"/>
<path d="M43.8 143.79H37.55V150.04H43.8V143.79Z" fill="#4C4C4C"/>
<path d="M37.54 143.79H31.29V150.04H37.54V143.79Z" fill="#4C4C4C"/>
<path d="M31.29 143.79H25.04V150.04H31.29V143.79Z" fill="#4C4C4C"/>
<path d="M25.04 143.79H18.79V150.04H25.04V143.79Z" fill="#4C4C4C"/>
<path d="M18.79 143.79H12.54V150.04H18.79V143.79Z" fill="#4C4C4C"/>
<path d="M53.17 93.79V75.03H59.42V68.78H65.68V62.53H59.42V56.27H53.17V43.78H65.68V56.27H71.93V62.53H78.18V56.27H84.44V43.78H96.93V56.27H90.68V62.53H84.43V68.78H90.68V75.03H96.93V93.79H84.44V75.03H78.18V68.78H71.93V75.03H65.68V93.79H53.17Z" fill="#808080"/>
<path d="M53.17 81.28V62.52H59.42V56.27H65.68V50.02H59.42V43.76H53.17V31.27H65.68V43.76H71.93V50.02H78.18V43.76H84.44V31.27H96.93V43.76H90.68V50.02H84.43V56.27H90.68V62.52H96.93V81.28H84.44V62.52H78.18V56.27H71.93V62.52H65.68V81.28H53.17Z" fill="#E5E5E5"/>
<path d="M53.17 87.53V68.77H59.42V62.52H65.68V56.27H59.42V50.01H53.17V37.52H65.68V50.01H71.93V56.27H78.18V50.01H84.44V37.52H96.93V50.01H90.68V56.27H84.43V62.52H90.68V68.77H96.93V87.53H84.44V68.77H78.18V62.52H71.93V68.77H65.68V87.53H53.17Z" fill="#282828"/>
<g style="mix-blend-mode:color">
<path d="M12.54 0.0200195V6.27002H6.29004V12.52H0.0400391V137.54H6.29004V143.79H12.54V150.04H37.54V150.02H37.55V150.04H112.55V150.02H112.56V150.04H137.56V143.79H143.81V137.54H150.06V112.54H150.04V112.53H150.06V37.53H150.04V37.52H150.06V12.52H143.81V6.27002H137.56V0.0200195H12.54Z" fill="#7DC4C8"/>
</g>
</g>
<defs>
<clipPath id="clip0_3_41594">
<rect width="150.02" height="150.02" fill="white" transform="translate(0.0400391 0.0200195)"/>
</clipPath>
</defs>
</svg>
