<svg width="151" height="151" viewBox="0 0 151 151" fill="none" xmlns="http://www.w3.org/2000/svg">
<g clip-path="url(#clip0_3_11154)">
<path d="M12.54 0V6.25H6.29004V12.5H0.0400391V137.52H6.29004V143.77H12.54V150.02H37.54V150H37.55V150.02H112.55V150H112.56V150.02H137.56V143.77H143.81V137.52H150.06V112.52H150.04V112.51H150.06V37.51H150.04V37.5H150.06V12.5H143.81V6.25H137.56V0H12.54Z" fill="#4C4C4C"/>
<path d="M137.56 0H131.31V6.25H137.56V0Z" fill="#4C4C4C"/>
<path d="M131.31 0H125.06V6.25H131.31V0Z" fill="#4C4C4C"/>
<path d="M125.06 0H118.81V6.25H125.06V0Z" fill="#4C4C4C"/>
<path d="M118.81 0H112.56V6.25H118.81V0Z" fill="#4C4C4C"/>
<path d="M112.55 0H106.3V6.25H112.55V0Z" fill="#4C4C4C"/>
<path d="M106.3 0H100.05V6.25H106.3V0Z" fill="#4C4C4C"/>
<path d="M100.05 0H93.8V6.25H100.05V0Z" fill="#4C4C4C"/>
<path d="M93.8 0H87.55V6.25H93.8V0Z" fill="#4C4C4C"/>
<path d="M87.55 0H81.3V6.25H87.55V0Z" fill="#4C4C4C"/>
<path d="M81.3 0H75.05V6.25H81.3V0Z" fill="#4C4C4C"/>
<path d="M75.05 0H68.8V6.25H75.05V0Z" fill="#4C4C4C"/>
<path d="M68.8001 0H62.55V6.25H68.8001V0Z" fill="#4C4C4C"/>
<path d="M62.55 0H56.3V6.25H62.55V0Z" fill="#4C4C4C"/>
<path d="M56.3 0H50.05V6.25H56.3V0Z" fill="#4C4C4C"/>
<path d="M50.05 0H43.8V6.25H50.05V0Z" fill="#4C4C4C"/>
<path d="M43.8 0H37.55V6.25H43.8V0Z" fill="#4C4C4C"/>
<path d="M37.54 0H31.29V6.25H37.54V0Z" fill="#4C4C4C"/>
<path d="M31.29 0H25.04V6.25H31.29V0Z" fill="#4C4C4C"/>
<path d="M25.04 0H18.79V6.25H25.04V0Z" fill="#4C4C4C"/>
<path d="M18.79 0H12.54V6.25H18.79V0Z" fill="#4C4C4C"/>
<path d="M143.81 6.25H137.56V12.5H143.81V6.25Z" fill="#4C4C4C"/>
<path d="M137.56 6.25H131.31V12.5H137.56V6.25Z" fill="#3D3D3D"/>
<path d="M131.31 6.25H125.06V12.5H131.31V6.25Z" fill="#3D3D3D"/>
<path d="M125.06 6.25H118.81V12.5H125.06V6.25Z" fill="#3D3D3D"/>
<path d="M118.81 6.25H112.56V12.5H118.81V6.25Z" fill="#3D3D3D"/>
<path d="M112.55 6.25H106.3V12.5H112.55V6.25Z" fill="#D6D6D6"/>
<path d="M106.3 6.25H100.05V12.5H106.3V6.25Z" fill="#A5A5A5"/>
<path d="M100.05 6.25H93.8V12.5H100.05V6.25Z" fill="#A5A5A5"/>
<path d="M93.8 6.25H87.55V12.5H93.8V6.25Z" fill="#A5A5A5"/>
<path d="M87.55 6.25H81.3V12.5H87.55V6.25Z" fill="#A5A5A5"/>
<path d="M81.3 6.25H75.05V12.5H81.3V6.25Z" fill="#A5A5A5"/>
<path d="M75.05 6.25H68.8V12.5H75.05V6.25Z" fill="#A5A5A5"/>
<path d="M68.8001 6.25H62.55V12.5H68.8001V6.25Z" fill="#A5A5A5"/>
<path d="M62.55 6.25H56.3V12.5H62.55V6.25Z" fill="#A5A5A5"/>
<path d="M56.3 6.25H50.05V12.5H56.3V6.25Z" fill="#A5A5A5"/>
<path d="M50.05 6.25H43.8V12.5H50.05V6.25Z" fill="#D6D6D6"/>
<path d="M43.8 6.25H37.55V12.5H43.8V6.25Z" fill="#D6D6D6"/>
<path d="M37.54 6.25H31.29V12.5H37.54V6.25Z" fill="#808080"/>
<path d="M31.29 6.25H25.04V12.5H31.29V6.25Z" fill="#808080"/>
<path d="M25.04 6.25H18.79V12.5H25.04V6.25Z" fill="#808080"/>
<path d="M18.79 6.25H12.54V12.5H18.79V6.25Z" fill="#808080"/>
<path d="M12.54 6.25H6.29004V12.5H12.54V6.25Z" fill="#4C4C4C"/>
<path d="M150.06 12.5H143.81V18.75H150.06V12.5Z" fill="#4C4C4C"/>
<path d="M143.81 12.5H137.56V18.75H143.81V12.5Z" fill="#3D3D3D"/>
<path d="M137.56 12.5H131.31V18.75H137.56V12.5Z" fill="#3D3D3D"/>
<path d="M131.31 12.5H125.06V18.75H131.31V12.5Z" fill="#3D3D3D"/>
<path d="M125.06 12.5H118.81V18.75H125.06V12.5Z" fill="#3D3D3D"/>
<path d="M118.81 12.5H112.56V18.75H118.81V12.5Z" fill="#D6D6D6"/>
<path d="M112.55 12.5H106.3V18.75H112.55V12.5Z" fill="#A5A5A5"/>
<path d="M106.3 12.5H100.05V18.75H106.3V12.5Z" fill="#A5A5A5"/>
<path d="M100.05 12.5H93.8V18.75H100.05V12.5Z" fill="#A5A5A5"/>
<path d="M93.8 12.5H87.55V18.75H93.8V12.5Z" fill="#A5A5A5"/>
<path d="M87.55 12.5H81.3V18.75H87.55V12.5Z" fill="#A5A5A5"/>
<path d="M81.3 12.5H75.05V18.75H81.3V12.5Z" fill="#A5A5A5"/>
<path d="M75.05 12.5H68.8V18.75H75.05V12.5Z" fill="#A5A5A5"/>
<path d="M68.8001 12.5H62.55V18.75H68.8001V12.5Z" fill="#A5A5A5"/>
<path d="M62.55 12.5H56.3V18.75H62.55V12.5Z" fill="#A5A5A5"/>
<path d="M56.3 12.5H50.05V18.75H56.3V12.5Z" fill="#D6D6D6"/>
<path d="M50.05 12.5H43.8V18.75H50.05V12.5Z" fill="#D6D6D6"/>
<path d="M43.8 12.5H37.55V18.75H43.8V12.5Z" fill="#D6D6D6"/>
<path d="M37.54 12.5H31.29V18.75H37.54V12.5Z" fill="#A5A5A5"/>
<path d="M31.29 12.5H25.04V18.75H31.29V12.5Z" fill="#808080"/>
<path d="M25.04 12.5H18.79V18.75H25.04V12.5Z" fill="#808080"/>
<path d="M18.79 12.5H12.54V18.75H18.79V12.5Z" fill="#808080"/>
<path d="M12.54 12.5H6.29004V18.75H12.54V12.5Z" fill="#808080"/>
<path d="M6.29004 12.5H0.0400391V18.75H6.29004V12.5Z" fill="#4C4C4C"/>
<path d="M150.06 18.75H143.81V25H150.06V18.75Z" fill="#4C4C4C"/>
<path d="M143.81 18.75H137.56V25H143.81V18.75Z" fill="#3D3D3D"/>
<path d="M137.56 18.75H131.31V25H137.56V18.75Z" fill="#3D3D3D"/>
<path d="M131.31 18.75H125.06V25H131.31V18.75Z" fill="#3D3D3D"/>
<path d="M125.06 18.75H118.81V25H125.06V18.75Z" fill="#3D3D3D"/>
<path d="M118.81 18.75H112.56V25H118.81V18.75Z" fill="#A5A5A5"/>
<path d="M112.55 18.75H106.3V25H112.55V18.75Z" fill="#A5A5A5"/>
<path d="M106.3 18.75H100.05V25H106.3V18.75Z" fill="#A5A5A5"/>
<path d="M100.05 18.75H93.8V25H100.05V18.75Z" fill="#A5A5A5"/>
<path d="M93.8 18.75H87.55V25H93.8V18.75Z" fill="#A5A5A5"/>
<path d="M87.55 18.75H81.3V25H87.55V18.75Z" fill="#A5A5A5"/>
<path d="M81.3 18.75H75.05V25H81.3V18.75Z" fill="#A5A5A5"/>
<path d="M75.05 18.75H68.8V25H75.05V18.75Z" fill="#A5A5A5"/>
<path d="M68.8001 18.75H62.55V25H68.8001V18.75Z" fill="#A5A5A5"/>
<path d="M62.55 18.75H56.3V25H62.55V18.75Z" fill="#D6D6D6"/>
<path d="M56.3 18.75H50.05V25H56.3V18.75Z" fill="#D6D6D6"/>
<path d="M50.05 18.75H43.8V25H50.05V18.75Z" fill="#D6D6D6"/>
<path d="M43.8 18.75H37.55V25H43.8V18.75Z" fill="#A5A5A5"/>
<path d="M37.54 18.75H31.29V25H37.54V18.75Z" fill="#A5A5A5"/>
<path d="M31.29 18.75H25.04V25H31.29V18.75Z" fill="#808080"/>
<path d="M25.04 18.75H18.79V25H25.04V18.75Z" fill="#808080"/>
<path d="M18.79 18.75H12.54V25H18.79V18.75Z" fill="#808080"/>
<path d="M12.54 18.75H6.29004V25H12.54V18.75Z" fill="#808080"/>
<path d="M6.29004 18.75H0.0400391V25H6.29004V18.75Z" fill="#4C4C4C"/>
<path d="M150.06 25H143.81V31.25H150.06V25Z" fill="#4C4C4C"/>
<path d="M143.81 25H137.56V31.25H143.81V25Z" fill="#3D3D3D"/>
<path d="M137.56 25H131.31V31.25H137.56V25Z" fill="#3D3D3D"/>
<path d="M131.31 25H125.06V31.25H131.31V25Z" fill="#3D3D3D"/>
<path d="M125.06 25H118.81V31.25H125.06V25Z" fill="#3D3D3D"/>
<path d="M118.81 25H112.56V31.25H118.81V25Z" fill="#A5A5A5"/>
<path d="M112.55 25H106.3V31.25H112.55V25Z" fill="#A5A5A5"/>
<path d="M106.3 25H100.05V31.25H106.3V25Z" fill="#A5A5A5"/>
<path d="M100.05 25H93.8V31.25H100.05V25Z" fill="#A5A5A5"/>
<path d="M93.8 25H87.55V31.25H93.8V25Z" fill="#A5A5A5"/>
<path d="M87.55 25H81.3V31.25H87.55V25Z" fill="#A5A5A5"/>
<path d="M81.3 25H75.05V31.25H81.3V25Z" fill="#A5A5A5"/>
<path d="M75.05 25H68.8V31.25H75.05V25Z" fill="#A5A5A5"/>
<path d="M68.8001 25H62.55V31.25H68.8001V25Z" fill="#D6D6D6"/>
<path d="M62.55 25H56.3V31.25H62.55V25Z" fill="#D6D6D6"/>
<path d="M56.3 25H50.05V31.25H56.3V25Z" fill="#D6D6D6"/>
<path d="M50.05 25H43.8V31.25H50.05V25Z" fill="#A5A5A5"/>
<path d="M43.8 25H37.55V31.25H43.8V25Z" fill="#A5A5A5"/>
<path d="M37.54 25H31.29V31.25H37.54V25Z" fill="#A5A5A5"/>
<path d="M31.29 25H25.04V31.25H31.29V25Z" fill="#808080"/>
<path d="M25.04 25H18.79V31.25H25.04V25Z" fill="#808080"/>
<path d="M18.79 25H12.54V31.25H18.79V25Z" fill="#808080"/>
<path d="M12.54 25H6.29004V31.25H12.54V25Z" fill="#808080"/>
<path d="M6.29004 25H0.0400391V31.25H6.29004V25Z" fill="#4C4C4C"/>
<path d="M150.06 31.25H143.81V37.5H150.06V31.25Z" fill="#4C4C4C"/>
<path d="M143.81 31.25H137.56V37.5H143.81V31.25Z" fill="#3D3D3D"/>
<path d="M137.56 31.25H131.31V37.5H137.56V31.25Z" fill="#3D3D3D"/>
<path d="M131.31 31.25H125.06V37.5H131.31V31.25Z" fill="#3D3D3D"/>
<path d="M125.06 31.25H118.81V37.5H125.06V31.25Z" fill="#3D3D3D"/>
<path d="M118.81 31.25H112.56V37.5H118.81V31.25Z" fill="#A5A5A5"/>
<path d="M112.55 31.25H106.3V37.5H112.55V31.25Z" fill="#A5A5A5"/>
<path d="M106.3 31.25H100.05V37.5H106.3V31.25Z" fill="#A5A5A5"/>
<path d="M100.05 31.25H93.8V37.5H100.05V31.25Z" fill="#A5A5A5"/>
<path d="M93.8 31.25H87.55V37.5H93.8V31.25Z" fill="#A5A5A5"/>
<path d="M87.55 31.25H81.3V37.5H87.55V31.25Z" fill="#A5A5A5"/>
<path d="M81.3 31.25H75.05V37.5H81.3V31.25Z" fill="#A5A5A5"/>
<path d="M75.05 31.25H68.8V37.5H75.05V31.25Z" fill="#D6D6D6"/>
<path d="M68.8001 31.25H62.55V37.5H68.8001V31.25Z" fill="#D6D6D6"/>
<path d="M62.55 31.25H56.3V37.5H62.55V31.25Z" fill="#D6D6D6"/>
<path d="M56.3 31.25H50.05V37.5H56.3V31.25Z" fill="#A5A5A5"/>
<path d="M50.05 31.25H43.8V37.5H50.05V31.25Z" fill="#A5A5A5"/>
<path d="M43.8 31.25H37.55V37.5H43.8V31.25Z" fill="#A5A5A5"/>
<path d="M37.54 31.25H31.29V37.5H37.54V31.25Z" fill="#D6D6D6"/>
<path d="M31.29 31.25H25.04V37.5H31.29V31.25Z" fill="#808080"/>
<path d="M25.04 31.25H18.79V37.5H25.04V31.25Z" fill="#808080"/>
<path d="M18.79 31.25H12.54V37.5H18.79V31.25Z" fill="#808080"/>
<path d="M12.54 31.25H6.29004V37.5H12.54V31.25Z" fill="#808080"/>
<path d="M6.29004 31.25H0.0400391V37.5H6.29004V31.25Z" fill="#4C4C4C"/>
<path d="M150.06 37.51H143.81V43.76H150.06V37.51Z" fill="#4C4C4C"/>
<path d="M143.81 37.51H137.56V43.76H143.81V37.51Z" fill="#3D3D3D"/>
<path d="M137.56 37.51H131.31V43.76H137.56V37.51Z" fill="#3D3D3D"/>
<path d="M131.31 37.51H125.06V43.76H131.31V37.51Z" fill="#3D3D3D"/>
<path d="M125.06 37.51H118.81V43.76H125.06V37.51Z" fill="#3D3D3D"/>
<path d="M118.81 37.51H112.56V43.76H118.81V37.51Z" fill="#A5A5A5"/>
<path d="M112.55 37.51H106.3V43.76H112.55V37.51Z" fill="#A5A5A5"/>
<path d="M106.3 37.51H100.05V43.76H106.3V37.51Z" fill="#A5A5A5"/>
<path d="M100.05 37.51H93.8V43.76H100.05V37.51Z" fill="#A5A5A5"/>
<path d="M93.8 37.51H87.55V43.76H93.8V37.51Z" fill="#A5A5A5"/>
<path d="M87.55 37.51H81.3V43.76H87.55V37.51Z" fill="#A5A5A5"/>
<path d="M81.3 37.51H75.05V43.76H81.3V37.51Z" fill="#D6D6D6"/>
<path d="M75.05 37.51H68.8V43.76H75.05V37.51Z" fill="#D6D6D6"/>
<path d="M68.8001 37.51H62.55V43.76H68.8001V37.51Z" fill="#D6D6D6"/>
<path d="M62.55 37.51H56.3V43.76H62.55V37.51Z" fill="#A5A5A5"/>
<path d="M56.3 37.51H50.05V43.76H56.3V37.51Z" fill="#A5A5A5"/>
<path d="M50.05 37.51H43.8V43.76H50.05V37.51Z" fill="#A5A5A5"/>
<path d="M43.8 37.51H37.55V43.76H43.8V37.51Z" fill="#D6D6D6"/>
<path d="M37.54 37.51H31.29V43.76H37.54V37.51Z" fill="#A5A5A5"/>
<path d="M31.29 37.51H25.04V43.76H31.29V37.51Z" fill="#808080"/>
<path d="M25.04 37.51H18.79V43.76H25.04V37.51Z" fill="#808080"/>
<path d="M18.79 37.51H12.54V43.76H18.79V37.51Z" fill="#808080"/>
<path d="M12.54 37.51H6.29004V43.76H12.54V37.51Z" fill="#808080"/>
<path d="M6.29004 37.51H0.0400391V43.76H6.29004V37.51Z" fill="#4C4C4C"/>
<path d="M150.06 43.76H143.81V50.01H150.06V43.76Z" fill="#4C4C4C"/>
<path d="M143.81 43.76H137.56V50.01H143.81V43.76Z" fill="#3D3D3D"/>
<path d="M137.56 43.76H131.31V50.01H137.56V43.76Z" fill="#3D3D3D"/>
<path d="M131.31 43.76H125.06V50.01H131.31V43.76Z" fill="#3D3D3D"/>
<path d="M125.06 43.76H118.81V50.01H125.06V43.76Z" fill="#3D3D3D"/>
<path d="M118.81 43.76H112.56V50.01H118.81V43.76Z" fill="#A5A5A5"/>
<path d="M112.55 43.76H106.3V50.01H112.55V43.76Z" fill="#A5A5A5"/>
<path d="M106.3 43.76H100.05V50.01H106.3V43.76Z" fill="#A5A5A5"/>
<path d="M100.05 43.76H93.8V50.01H100.05V43.76Z" fill="#A5A5A5"/>
<path d="M93.8 43.76H87.55V50.01H93.8V43.76Z" fill="#A5A5A5"/>
<path d="M87.55 43.76H81.3V50.01H87.55V43.76Z" fill="#D6D6D6"/>
<path d="M81.3 43.76H75.05V50.01H81.3V43.76Z" fill="#D6D6D6"/>
<path d="M75.05 43.76H68.8V50.01H75.05V43.76Z" fill="#D6D6D6"/>
<path d="M68.8001 43.76H62.55V50.01H68.8001V43.76Z" fill="#A5A5A5"/>
<path d="M62.55 43.76H56.3V50.01H62.55V43.76Z" fill="#A5A5A5"/>
<path d="M56.3 43.76H50.05V50.01H56.3V43.76Z" fill="#A5A5A5"/>
<path d="M50.05 43.76H43.8V50.01H50.05V43.76Z" fill="#D6D6D6"/>
<path d="M43.8 43.76H37.55V50.01H43.8V43.76Z" fill="#A5A5A5"/>
<path d="M37.54 43.76H31.29V50.01H37.54V43.76Z" fill="#A5A5A5"/>
<path d="M31.29 43.76H25.04V50.01H31.29V43.76Z" fill="#808080"/>
<path d="M25.04 43.76H18.79V50.01H25.04V43.76Z" fill="#808080"/>
<path d="M18.79 43.76H12.54V50.01H18.79V43.76Z" fill="#808080"/>
<path d="M12.54 43.76H6.29004V50.01H12.54V43.76Z" fill="#808080"/>
<path d="M6.29004 43.76H0.0400391V50.01H6.29004V43.76Z" fill="#4C4C4C"/>
<path d="M150.06 50.01H143.81V56.26H150.06V50.01Z" fill="#4C4C4C"/>
<path d="M143.81 50.01H137.56V56.26H143.81V50.01Z" fill="#3D3D3D"/>
<path d="M137.56 50.01H131.31V56.26H137.56V50.01Z" fill="#3D3D3D"/>
<path d="M131.31 50.01H125.06V56.26H131.31V50.01Z" fill="#3D3D3D"/>
<path d="M125.06 50.01H118.81V56.26H125.06V50.01Z" fill="#3D3D3D"/>
<path d="M118.81 50.01H112.56V56.26H118.81V50.01Z" fill="#A5A5A5"/>
<path d="M112.55 50.01H106.3V56.26H112.55V50.01Z" fill="#A5A5A5"/>
<path d="M106.3 50.01H100.05V56.26H106.3V50.01Z" fill="#A5A5A5"/>
<path d="M100.05 50.01H93.8V56.26H100.05V50.01Z" fill="#A5A5A5"/>
<path d="M93.8 50.01H87.55V56.26H93.8V50.01Z" fill="#D6D6D6"/>
<path d="M87.55 50.01H81.3V56.26H87.55V50.01Z" fill="#D6D6D6"/>
<path d="M81.3 50.01H75.05V56.26H81.3V50.01Z" fill="#D6D6D6"/>
<path d="M75.05 50.01H68.8V56.26H75.05V50.01Z" fill="#A5A5A5"/>
<path d="M68.8001 50.01H62.55V56.26H68.8001V50.01Z" fill="#A5A5A5"/>
<path d="M62.55 50.01H56.3V56.26H62.55V50.01Z" fill="#A5A5A5"/>
<path d="M56.3 50.01H50.05V56.26H56.3V50.01Z" fill="#D6D6D6"/>
<path d="M50.05 50.01H43.8V56.26H50.05V50.01Z" fill="#A5A5A5"/>
<path d="M43.8 50.01H37.55V56.26H43.8V50.01Z" fill="#A5A5A5"/>
<path d="M37.54 50.01H31.29V56.26H37.54V50.01Z" fill="#A5A5A5"/>
<path d="M31.29 50.01H25.04V56.26H31.29V50.01Z" fill="#808080"/>
<path d="M25.04 50.01H18.79V56.26H25.04V50.01Z" fill="#808080"/>
<path d="M18.79 50.01H12.54V56.26H18.79V50.01Z" fill="#808080"/>
<path d="M12.54 50.01H6.29004V56.26H12.54V50.01Z" fill="#808080"/>
<path d="M6.29004 50.01H0.0400391V56.26H6.29004V50.01Z" fill="#4C4C4C"/>
<path d="M150.06 56.26H143.81V62.51H150.06V56.26Z" fill="#4C4C4C"/>
<path d="M143.81 56.26H137.56V62.51H143.81V56.26Z" fill="#3D3D3D"/>
<path d="M137.56 56.26H131.31V62.51H137.56V56.26Z" fill="#3D3D3D"/>
<path d="M131.31 56.26H125.06V62.51H131.31V56.26Z" fill="#3D3D3D"/>
<path d="M125.06 56.26H118.81V62.51H125.06V56.26Z" fill="#3D3D3D"/>
<path d="M118.81 56.26H112.56V62.51H118.81V56.26Z" fill="#A5A5A5"/>
<path d="M112.55 56.26H106.3V62.51H112.55V56.26Z" fill="#A5A5A5"/>
<path d="M106.3 56.26H100.05V62.51H106.3V56.26Z" fill="#A5A5A5"/>
<path d="M150.06 62.51H143.81V68.76H150.06V62.51Z" fill="#4C4C4C"/>
<path d="M143.81 62.51H137.56V68.76H143.81V62.51Z" fill="#3D3D3D"/>
<path d="M137.56 62.51H131.31V68.76H137.56V62.51Z" fill="#3D3D3D"/>
<path d="M131.31 62.51H125.06V68.76H131.31V62.51Z" fill="#3D3D3D"/>
<path d="M125.06 62.51H118.81V68.76H125.06V62.51Z" fill="#3D3D3D"/>
<path d="M118.81 62.51H112.56V68.76H118.81V62.51Z" fill="#A5A5A5"/>
<path d="M112.55 62.51H106.3V68.76H112.55V62.51Z" fill="#A5A5A5"/>
<path d="M106.3 62.51H100.05V68.76H106.3V62.51Z" fill="#D6D6D6"/>
<path d="M150.06 68.76H143.81V75.01H150.06V68.76Z" fill="#4C4C4C"/>
<path d="M143.81 68.76H137.56V75.01H143.81V68.76Z" fill="#3D3D3D"/>
<path d="M137.56 68.76H131.31V75.01H137.56V68.76Z" fill="#3D3D3D"/>
<path d="M131.31 68.76H125.06V75.01H131.31V68.76Z" fill="#3D3D3D"/>
<path d="M125.06 68.76H118.81V75.01H125.06V68.76Z" fill="#3D3D3D"/>
<path d="M118.81 68.76H112.56V75.01H118.81V68.76Z" fill="#A5A5A5"/>
<path d="M112.55 68.76H106.3V75.01H112.55V68.76Z" fill="#D6D6D6"/>
<path d="M106.3 68.76H100.05V75.01H106.3V68.76Z" fill="#D6D6D6"/>
<path d="M150.06 75.01H143.81V81.26H150.06V75.01Z" fill="#4C4C4C"/>
<path d="M143.81 75.01H137.56V81.26H143.81V75.01Z" fill="#3D3D3D"/>
<path d="M137.56 75.01H131.31V81.26H137.56V75.01Z" fill="#3D3D3D"/>
<path d="M131.31 75.01H125.06V81.26H131.31V75.01Z" fill="#3D3D3D"/>
<path d="M125.06 75.01H118.81V81.26H125.06V75.01Z" fill="#3D3D3D"/>
<path d="M118.81 75.01H112.56V81.26H118.81V75.01Z" fill="#D6D6D6"/>
<path d="M112.55 75.01H106.3V81.26H112.55V75.01Z" fill="#D6D6D6"/>
<path d="M106.3 75.01H100.05V81.26H106.3V75.01Z" fill="#D6D6D6"/>
<path d="M150.06 81.26H143.81V87.51H150.06V81.26Z" fill="#4C4C4C"/>
<path d="M143.81 81.26H137.56V87.51H143.81V81.26Z" fill="#3D3D3D"/>
<path d="M137.56 81.26H131.31V87.51H137.56V81.26Z" fill="#3D3D3D"/>
<path d="M131.31 81.26H125.06V87.51H131.31V81.26Z" fill="#3D3D3D"/>
<path d="M125.06 81.26H118.81V87.51H125.06V81.26Z" fill="#3D3D3D"/>
<path d="M118.81 81.26H112.56V87.51H118.81V81.26Z" fill="#D6D6D6"/>
<path d="M112.55 81.26H106.3V87.51H112.55V81.26Z" fill="#D6D6D6"/>
<path d="M106.3 81.26H100.05V87.51H106.3V81.26Z" fill="#A5A5A5"/>
<path d="M150.06 87.51H143.81V93.76H150.06V87.51Z" fill="#4C4C4C"/>
<path d="M143.81 87.51H137.56V93.76H143.81V87.51Z" fill="#3D3D3D"/>
<path d="M137.56 87.51H131.31V93.76H137.56V87.51Z" fill="#3D3D3D"/>
<path d="M131.31 87.51H125.06V93.76H131.31V87.51Z" fill="#3D3D3D"/>
<path d="M125.06 87.51H118.81V93.76H125.06V87.51Z" fill="#3D3D3D"/>
<path d="M118.81 87.51H112.56V93.76H118.81V87.51Z" fill="#D6D6D6"/>
<path d="M112.55 87.51H106.3V93.76H112.55V87.51Z" fill="#A5A5A5"/>
<path d="M106.3 87.51H100.05V93.76H106.3V87.51Z" fill="#A5A5A5"/>
<path d="M150.06 93.76H143.81V100.01H150.06V93.76Z" fill="#4C4C4C"/>
<path d="M143.81 93.76H137.56V100.01H143.81V93.76Z" fill="#3D3D3D"/>
<path d="M137.56 93.76H131.31V100.01H137.56V93.76Z" fill="#3D3D3D"/>
<path d="M131.31 93.76H125.06V100.01H131.31V93.76Z" fill="#3D3D3D"/>
<path d="M125.06 93.76H118.81V100.01H125.06V93.76Z" fill="#3D3D3D"/>
<path d="M118.81 93.76H112.56V100.01H118.81V93.76Z" fill="#A5A5A5"/>
<path d="M112.55 93.76H106.3V100.01H112.55V93.76Z" fill="#A5A5A5"/>
<path d="M106.3 93.76H100.05V100.01H106.3V93.76Z" fill="#A5A5A5"/>
<path d="M150.06 100.01H143.81V106.26H150.06V100.01Z" fill="#4C4C4C"/>
<path d="M143.81 100.01H137.56V106.26H143.81V100.01Z" fill="#3D3D3D"/>
<path d="M137.56 100.01H131.31V106.26H137.56V100.01Z" fill="#3D3D3D"/>
<path d="M131.31 100.01H125.06V106.26H131.31V100.01Z" fill="#3D3D3D"/>
<path d="M125.06 100.01H118.81V106.26H125.06V100.01Z" fill="#3D3D3D"/>
<path d="M118.81 100.01H112.56V106.26H118.81V100.01Z" fill="#A5A5A5"/>
<path d="M112.55 100.01H106.3V106.26H112.55V100.01Z" fill="#A5A5A5"/>
<path d="M106.3 100.01H100.05V106.26H106.3V100.01Z" fill="#D6D6D6"/>
<path d="M100.05 62.51H93.8V68.76H100.05V62.51Z" fill="#D6D6D6"/>
<path d="M93.8 62.51H87.55V68.76H93.8V62.51Z" fill="#D6D6D6"/>
<path d="M87.55 62.51H81.3V68.76H87.55V62.51Z" fill="#A5A5A5"/>
<path d="M100.05 68.76H93.8V75.01H100.05V68.76Z" fill="#D6D6D6"/>
<path d="M93.8 68.76H87.55V75.01H93.8V68.76Z" fill="#A5A5A5"/>
<path d="M87.55 68.76H81.3V75.01H87.55V68.76Z" fill="#A5A5A5"/>
<path d="M100.05 75.01H93.8V81.26H100.05V75.01Z" fill="#A5A5A5"/>
<path d="M93.8 75.01H87.55V81.26H93.8V75.01Z" fill="#A5A5A5"/>
<path d="M87.55 75.01H81.3V81.26H87.55V75.01Z" fill="#A5A5A5"/>
<path d="M100.05 81.26H93.8V87.51H100.05V81.26Z" fill="#A5A5A5"/>
<path d="M93.8 81.26H87.55V87.51H93.8V81.26Z" fill="#A5A5A5"/>
<path d="M87.55 81.26H81.3V87.51H87.55V81.26Z" fill="#D6D6D6"/>
<path d="M100.05 87.51H93.8V93.76H100.05V87.51Z" fill="#A5A5A5"/>
<path d="M93.8 87.51H87.55V93.76H93.8V87.51Z" fill="#D6D6D6"/>
<path d="M87.55 87.51H81.3V93.76H87.55V87.51Z" fill="#A5A5A5"/>
<path d="M100.05 93.76H93.8V100.01H100.05V93.76Z" fill="#D6D6D6"/>
<path d="M93.8 93.76H87.55V100.01H93.8V93.76Z" fill="#A5A5A5"/>
<path d="M87.55 93.76H81.3V100.01H87.55V93.76Z" fill="#A5A5A5"/>
<path d="M100.05 100.01H93.8V106.26H100.05V100.01Z" fill="#A5A5A5"/>
<path d="M93.8 100.01H87.55V106.26H93.8V100.01Z" fill="#A5A5A5"/>
<path d="M87.55 100.01H81.3V106.26H87.55V100.01Z" fill="#A5A5A5"/>
<path d="M81.3 62.51H75.05V68.76H81.3V62.51Z" fill="#A5A5A5"/>
<path d="M75.05 62.51H68.8V68.76H75.05V62.51Z" fill="#A5A5A5"/>
<path d="M68.8001 62.51H62.55V68.76H68.8001V62.51Z" fill="#D6D6D6"/>
<path d="M81.3 68.76H75.05V75.01H81.3V68.76Z" fill="#A5A5A5"/>
<path d="M75.05 68.76H68.8V75.01H75.05V68.76Z" fill="#D6D6D6"/>
<path d="M68.8001 68.76H62.55V75.01H68.8001V68.76Z" fill="#A5A5A5"/>
<path d="M81.3 75.01H75.05V81.26H81.3V75.01Z" fill="#D6D6D6"/>
<path d="M75.05 75.01H68.8V81.26H75.05V75.01Z" fill="#A5A5A5"/>
<path d="M68.8001 75.01H62.55V81.26H68.8001V75.01Z" fill="#A5A5A5"/>
<path d="M81.3 81.26H75.05V87.51H81.3V81.26Z" fill="#A5A5A5"/>
<path d="M75.05 81.26H68.8V87.51H75.05V81.26Z" fill="#A5A5A5"/>
<path d="M68.8001 81.26H62.55V87.51H68.8001V81.26Z" fill="#A5A5A5"/>
<path d="M81.3 87.51H75.05V93.76H81.3V87.51Z" fill="#A5A5A5"/>
<path d="M75.05 87.51H68.8V93.76H75.05V87.51Z" fill="#A5A5A5"/>
<path d="M68.8001 87.51H62.55V93.76H68.8001V87.51Z" fill="#A5A5A5"/>
<path d="M81.3 93.76H75.05V100.01H81.3V93.76Z" fill="#A5A5A5"/>
<path d="M75.05 93.76H68.8V100.01H75.05V93.76Z" fill="#A5A5A5"/>
<path d="M68.8001 93.76H62.55V100.01H68.8001V93.76Z" fill="#A5A5A5"/>
<path d="M81.3 100.01H75.05V106.26H81.3V100.01Z" fill="#A5A5A5"/>
<path d="M75.05 100.01H68.8V106.26H75.05V100.01Z" fill="#A5A5A5"/>
<path d="M68.8001 100.01H62.55V106.26H68.8001V100.01Z" fill="#A5A5A5"/>
<path d="M62.55 62.51H56.3V68.76H62.55V62.51Z" fill="#A5A5A5"/>
<path d="M56.3 62.51H50.05V68.76H56.3V62.51Z" fill="#A5A5A5"/>
<path d="M50.05 62.51H43.8V68.76H50.05V62.51Z" fill="#A5A5A5"/>
<path d="M62.55 68.76H56.3V75.01H62.55V68.76Z" fill="#A5A5A5"/>
<path d="M56.3 68.76H50.05V75.01H56.3V68.76Z" fill="#A5A5A5"/>
<path d="M50.05 68.76H43.8V75.01H50.05V68.76Z" fill="#A5A5A5"/>
<path d="M62.55 75.01H56.3V81.26H62.55V75.01Z" fill="#A5A5A5"/>
<path d="M56.3 75.01H50.05V81.26H56.3V75.01Z" fill="#A5A5A5"/>
<path d="M50.05 75.01H43.8V81.26H50.05V75.01Z" fill="#A5A5A5"/>
<path d="M62.55 81.26H56.3V87.51H62.55V81.26Z" fill="#A5A5A5"/>
<path d="M56.3 81.26H50.05V87.51H56.3V81.26Z" fill="#A5A5A5"/>
<path d="M50.05 81.26H43.8V87.51H50.05V81.26Z" fill="#A5A5A5"/>
<path d="M62.55 87.51H56.3V93.76H62.55V87.51Z" fill="#A5A5A5"/>
<path d="M56.3 87.51H50.05V93.76H56.3V87.51Z" fill="#A5A5A5"/>
<path d="M50.05 87.51H43.8V93.76H50.05V87.51Z" fill="#A5A5A5"/>
<path d="M62.55 93.76H56.3V100.01H62.55V93.76Z" fill="#A5A5A5"/>
<path d="M56.3 93.76H50.05V100.01H56.3V93.76Z" fill="#A5A5A5"/>
<path d="M50.05 93.76H43.8V100.01H50.05V93.76Z" fill="#A5A5A5"/>
<path d="M62.55 100.01H56.3V106.26H62.55V100.01Z" fill="#A5A5A5"/>
<path d="M56.3 100.01H50.05V106.26H56.3V100.01Z" fill="#A5A5A5"/>
<path d="M50.05 100.01H43.8V106.26H50.05V100.01Z" fill="#A5A5A5"/>
<path d="M43.8 62.51H37.55V68.76H43.8V62.51Z" fill="#A5A5A5"/>
<path d="M37.54 62.51H31.29V68.76H37.54V62.51Z" fill="#A5A5A5"/>
<path d="M43.8 68.76H37.55V75.01H43.8V68.76Z" fill="#A5A5A5"/>
<path d="M37.54 68.76H31.29V75.01H37.54V68.76Z" fill="#A5A5A5"/>
<path d="M43.8 75.01H37.55V81.26H43.8V75.01Z" fill="#A5A5A5"/>
<path d="M37.54 75.01H31.29V81.26H37.54V75.01Z" fill="#A5A5A5"/>
<path d="M43.8 81.26H37.55V87.51H43.8V81.26Z" fill="#A5A5A5"/>
<path d="M37.54 81.26H31.29V87.51H37.54V81.26Z" fill="#A5A5A5"/>
<path d="M43.8 87.51H37.55V93.76H43.8V87.51Z" fill="#A5A5A5"/>
<path d="M37.54 87.51H31.29V93.76H37.54V87.51Z" fill="#A5A5A5"/>
<path d="M43.8 93.76H37.55V100.01H43.8V93.76Z" fill="#A5A5A5"/>
<path d="M37.54 93.76H31.29V100.01H37.54V93.76Z" fill="#A5A5A5"/>
<path d="M43.8 100.01H37.55V106.26H43.8V100.01Z" fill="#A5A5A5"/>
<path d="M37.54 100.01H31.29V106.26H37.54V100.01Z" fill="#A5A5A5"/>
<path d="M100.05 56.26H93.8V62.51H100.05V56.26Z" fill="#D6D6D6"/>
<path d="M93.8 56.26H87.55V62.51H93.8V56.26Z" fill="#D6D6D6"/>
<path d="M87.55 56.26H81.3V62.51H87.55V56.26Z" fill="#D6D6D6"/>
<path d="M81.3 56.26H75.05V62.51H81.3V56.26Z" fill="#A5A5A5"/>
<path d="M75.05 56.26H68.8V62.51H75.05V56.26Z" fill="#A5A5A5"/>
<path d="M68.8001 56.26H62.55V62.51H68.8001V56.26Z" fill="#A5A5A5"/>
<path d="M62.55 56.26H56.3V62.51H62.55V56.26Z" fill="#D6D6D6"/>
<path d="M56.3 56.26H50.05V62.51H56.3V56.26Z" fill="#A5A5A5"/>
<path d="M50.05 56.26H43.8V62.51H50.05V56.26Z" fill="#A5A5A5"/>
<path d="M43.8 56.26H37.55V62.51H43.8V56.26Z" fill="#A5A5A5"/>
<path d="M37.54 56.26H31.29V62.51H37.54V56.26Z" fill="#A5A5A5"/>
<path d="M31.29 56.26H25.04V62.51H31.29V56.26Z" fill="#808080"/>
<path d="M25.04 56.26H18.79V62.51H25.04V56.26Z" fill="#808080"/>
<path d="M18.79 56.26H12.54V62.51H18.79V56.26Z" fill="#808080"/>
<path d="M12.54 56.26H6.29004V62.51H12.54V56.26Z" fill="#808080"/>
<path d="M6.29004 56.26H0.0400391V62.51H6.29004V56.26Z" fill="#4C4C4C"/>
<path d="M31.29 62.51H25.04V68.76H31.29V62.51Z" fill="#808080"/>
<path d="M25.04 62.51H18.79V68.76H25.04V62.51Z" fill="#808080"/>
<path d="M18.79 62.51H12.54V68.76H18.79V62.51Z" fill="#808080"/>
<path d="M12.54 62.51H6.29004V68.76H12.54V62.51Z" fill="#808080"/>
<path d="M6.29004 62.51H0.0400391V68.76H6.29004V62.51Z" fill="#4C4C4C"/>
<path d="M31.29 68.76H25.04V75.01H31.29V68.76Z" fill="#808080"/>
<path d="M25.04 68.76H18.79V75.01H25.04V68.76Z" fill="#808080"/>
<path d="M18.79 68.76H12.54V75.01H18.79V68.76Z" fill="#808080"/>
<path d="M12.54 68.76H6.29004V75.01H12.54V68.76Z" fill="#808080"/>
<path d="M6.29004 68.76H0.0400391V75.01H6.29004V68.76Z" fill="#4C4C4C"/>
<path d="M31.29 75.01H25.04V81.26H31.29V75.01Z" fill="#808080"/>
<path d="M25.04 75.01H18.79V81.26H25.04V75.01Z" fill="#808080"/>
<path d="M18.79 75.01H12.54V81.26H18.79V75.01Z" fill="#808080"/>
<path d="M12.54 75.01H6.29004V81.26H12.54V75.01Z" fill="#808080"/>
<path d="M6.29004 75.01H0.0400391V81.26H6.29004V75.01Z" fill="#4C4C4C"/>
<path d="M31.29 81.26H25.04V87.51H31.29V81.26Z" fill="#808080"/>
<path d="M25.04 81.26H18.79V87.51H25.04V81.26Z" fill="#808080"/>
<path d="M18.79 81.26H12.54V87.51H18.79V81.26Z" fill="#808080"/>
<path d="M12.54 81.26H6.29004V87.51H12.54V81.26Z" fill="#808080"/>
<path d="M6.29004 81.26H0.0400391V87.51H6.29004V81.26Z" fill="#4C4C4C"/>
<path d="M31.29 87.51H25.04V93.76H31.29V87.51Z" fill="#808080"/>
<path d="M25.04 87.51H18.79V93.76H25.04V87.51Z" fill="#808080"/>
<path d="M18.79 87.51H12.54V93.76H18.79V87.51Z" fill="#808080"/>
<path d="M12.54 87.51H6.29004V93.76H12.54V87.51Z" fill="#808080"/>
<path d="M6.29004 87.51H0.0400391V93.76H6.29004V87.51Z" fill="#4C4C4C"/>
<path d="M31.29 93.76H25.04V100.01H31.29V93.76Z" fill="#808080"/>
<path d="M25.04 93.76H18.79V100.01H25.04V93.76Z" fill="#808080"/>
<path d="M18.79 93.76H12.54V100.01H18.79V93.76Z" fill="#808080"/>
<path d="M12.54 93.76H6.29004V100.01H12.54V93.76Z" fill="#808080"/>
<path d="M6.29004 93.76H0.0400391V100.01H6.29004V93.76Z" fill="#4C4C4C"/>
<path d="M31.29 100.01H25.04V106.26H31.29V100.01Z" fill="#808080"/>
<path d="M25.04 100.01H18.79V106.26H25.04V100.01Z" fill="#808080"/>
<path d="M18.79 100.01H12.54V106.26H18.79V100.01Z" fill="#808080"/>
<path d="M12.54 100.01H6.29004V106.26H12.54V100.01Z" fill="#808080"/>
<path d="M6.29004 100.01H0.0400391V106.26H6.29004V100.01Z" fill="#4C4C4C"/>
<path d="M150.06 106.26H143.81V112.51H150.06V106.26Z" fill="#4C4C4C"/>
<path d="M143.81 106.26H137.56V112.51H143.81V106.26Z" fill="#3D3D3D"/>
<path d="M137.56 106.26H131.31V112.51H137.56V106.26Z" fill="#3D3D3D"/>
<path d="M131.31 106.26H125.06V112.51H131.31V106.26Z" fill="#3D3D3D"/>
<path d="M125.06 106.26H118.81V112.51H125.06V106.26Z" fill="#3D3D3D"/>
<path d="M118.81 106.26H112.56V112.51H118.81V106.26Z" fill="#D6D6D6"/>
<path d="M112.55 106.26H106.3V112.51H112.55V106.26Z" fill="#D6D6D6"/>
<path d="M106.3 106.26H100.05V112.51H106.3V106.26Z" fill="#A5A5A5"/>
<path d="M100.05 106.26H93.8V112.51H100.05V106.26Z" fill="#A5A5A5"/>
<path d="M93.8 106.26H87.55V112.51H93.8V106.26Z" fill="#A5A5A5"/>
<path d="M87.55 106.26H81.3V112.51H87.55V106.26Z" fill="#A5A5A5"/>
<path d="M81.3 106.26H75.05V112.51H81.3V106.26Z" fill="#A5A5A5"/>
<path d="M75.05 106.26H68.8V112.51H75.05V106.26Z" fill="#A5A5A5"/>
<path d="M68.8001 106.26H62.55V112.51H68.8001V106.26Z" fill="#A5A5A5"/>
<path d="M62.55 106.26H56.3V112.51H62.55V106.26Z" fill="#A5A5A5"/>
<path d="M56.3 106.26H50.05V112.51H56.3V106.26Z" fill="#A5A5A5"/>
<path d="M50.05 106.26H43.8V112.51H50.05V106.26Z" fill="#A5A5A5"/>
<path d="M43.8 106.26H37.55V112.51H43.8V106.26Z" fill="#A5A5A5"/>
<path d="M37.54 106.26H31.29V112.51H37.54V106.26Z" fill="#D6D6D6"/>
<path d="M31.29 106.26H25.04V112.51H31.29V106.26Z" fill="#808080"/>
<path d="M25.04 106.26H18.79V112.51H25.04V106.26Z" fill="#808080"/>
<path d="M18.79 106.26H12.54V112.51H18.79V106.26Z" fill="#808080"/>
<path d="M12.54 106.26H6.29004V112.51H12.54V106.26Z" fill="#808080"/>
<path d="M6.29004 106.26H0.0400391V112.51H6.29004V106.26Z" fill="#4C4C4C"/>
<path d="M150.06 112.52H143.81V118.77H150.06V112.52Z" fill="#4C4C4C"/>
<path d="M143.81 112.52H137.56V118.77H143.81V112.52Z" fill="#3D3D3D"/>
<path d="M137.56 112.52H131.31V118.77H137.56V112.52Z" fill="#3D3D3D"/>
<path d="M131.31 112.52H125.06V118.77H131.31V112.52Z" fill="#3D3D3D"/>
<path d="M125.06 112.52H118.81V118.77H125.06V112.52Z" fill="#3D3D3D"/>
<path d="M118.81 112.52H112.56V118.77H118.81V112.52Z" fill="#808080"/>
<path d="M112.55 112.52H106.3V118.77H112.55V112.52Z" fill="#D6D6D6"/>
<path d="M106.3 112.52H100.05V118.77H106.3V112.52Z" fill="#D6D6D6"/>
<path d="M100.05 112.52H93.8V118.77H100.05V112.52Z" fill="#D6D6D6"/>
<path d="M93.8 112.52H87.55V118.77H93.8V112.52Z" fill="#D6D6D6"/>
<path d="M87.55 112.52H81.3V118.77H87.55V112.52Z" fill="#D6D6D6"/>
<path d="M81.3 112.52H75.05V118.77H81.3V112.52Z" fill="#D6D6D6"/>
<path d="M75.05 112.52H68.8V118.77H75.05V112.52Z" fill="#D6D6D6"/>
<path d="M68.8001 112.52H62.55V118.77H68.8001V112.52Z" fill="#D6D6D6"/>
<path d="M62.55 112.52H56.3V118.77H62.55V112.52Z" fill="#D6D6D6"/>
<path d="M56.3 112.52H50.05V118.77H56.3V112.52Z" fill="#D6D6D6"/>
<path d="M50.05 112.52H43.8V118.77H50.05V112.52Z" fill="#D6D6D6"/>
<path d="M43.8 112.52H37.55V118.77H43.8V112.52Z" fill="#D6D6D6"/>
<path d="M37.54 112.52H31.29V118.77H37.54V112.52Z" fill="#A5A5A5"/>
<path d="M31.29 112.52H25.04V118.77H31.29V112.52Z" fill="#808080"/>
<path d="M25.04 112.52H18.79V118.77H25.04V112.52Z" fill="#808080"/>
<path d="M18.79 112.52H12.54V118.77H18.79V112.52Z" fill="#808080"/>
<path d="M12.54 112.52H6.29004V118.77H12.54V112.52Z" fill="#808080"/>
<path d="M6.29004 112.52H0.0400391V118.77H6.29004V112.52Z" fill="#4C4C4C"/>
<path d="M150.06 118.77H143.81V125.02H150.06V118.77Z" fill="#4C4C4C"/>
<path d="M143.81 118.77H137.56V125.02H143.81V118.77Z" fill="#3D3D3D"/>
<path d="M137.56 118.77H131.31V125.02H137.56V118.77Z" fill="#3D3D3D"/>
<path d="M131.31 118.77H125.06V125.02H131.31V118.77Z" fill="#3D3D3D"/>
<path d="M125.06 118.77H118.81V125.02H125.06V118.77Z" fill="#808080"/>
<path d="M118.81 118.77H112.56V125.02H118.81V118.77Z" fill="#606060"/>
<path d="M112.55 118.77H106.3V125.02H112.55V118.77Z" fill="#606060"/>
<path d="M106.3 118.77H100.05V125.02H106.3V118.77Z" fill="#606060"/>
<path d="M100.05 118.77H93.8V125.02H100.05V118.77Z" fill="#606060"/>
<path d="M93.8 118.77H87.55V125.02H93.8V118.77Z" fill="#606060"/>
<path d="M87.55 118.77H81.3V125.02H87.55V118.77Z" fill="#606060"/>
<path d="M81.3 118.77H75.05V125.02H81.3V118.77Z" fill="#606060"/>
<path d="M75.05 118.77H68.8V125.02H75.05V118.77Z" fill="#606060"/>
<path d="M68.8001 118.77H62.55V125.02H68.8001V118.77Z" fill="#606060"/>
<path d="M62.55 118.77H56.3V125.02H62.55V118.77Z" fill="#606060"/>
<path d="M56.3 118.77H50.05V125.02H56.3V118.77Z" fill="#606060"/>
<path d="M50.05 118.77H43.8V125.02H50.05V118.77Z" fill="#606060"/>
<path d="M43.8 118.77H37.55V125.02H43.8V118.77Z" fill="#606060"/>
<path d="M37.54 118.77H31.29V125.02H37.54V118.77Z" fill="#606060"/>
<path d="M31.29 118.77H25.04V125.02H31.29V118.77Z" fill="#A5A5A5"/>
<path d="M25.04 118.77H18.79V125.02H25.04V118.77Z" fill="#808080"/>
<path d="M18.79 118.77H12.54V125.02H18.79V118.77Z" fill="#808080"/>
<path d="M12.54 118.77H6.29004V125.02H12.54V118.77Z" fill="#808080"/>
<path d="M6.29004 118.77H0.0400391V125.02H6.29004V118.77Z" fill="#4C4C4C"/>
<path d="M150.06 125.02H143.81V131.27H150.06V125.02Z" fill="#4C4C4C"/>
<path d="M143.81 125.02H137.56V131.27H143.81V125.02Z" fill="#3D3D3D"/>
<path d="M137.56 125.02H131.31V131.27H137.56V125.02Z" fill="#3D3D3D"/>
<path d="M131.31 125.02H125.06V131.27H131.31V125.02Z" fill="#808080"/>
<path d="M125.06 125.02H118.81V131.27H125.06V125.02Z" fill="#606060"/>
<path d="M118.81 125.02H112.56V131.27H118.81V125.02Z" fill="#606060"/>
<path d="M112.55 125.02H106.3V131.27H112.55V125.02Z" fill="#606060"/>
<path d="M106.3 125.02H100.05V131.27H106.3V125.02Z" fill="#606060"/>
<path d="M100.05 125.02H93.8V131.27H100.05V125.02Z" fill="#606060"/>
<path d="M93.8 125.02H87.55V131.27H93.8V125.02Z" fill="#606060"/>
<path d="M87.55 125.02H81.3V131.27H87.55V125.02Z" fill="#606060"/>
<path d="M81.3 125.02H75.05V131.27H81.3V125.02Z" fill="#606060"/>
<path d="M75.05 125.02H68.8V131.27H75.05V125.02Z" fill="#606060"/>
<path d="M68.8001 125.02H62.55V131.27H68.8001V125.02Z" fill="#606060"/>
<path d="M62.55 125.02H56.3V131.27H62.55V125.02Z" fill="#606060"/>
<path d="M56.3 125.02H50.05V131.27H56.3V125.02Z" fill="#606060"/>
<path d="M50.05 125.02H43.8V131.27H50.05V125.02Z" fill="#606060"/>
<path d="M43.8 125.02H37.55V131.27H43.8V125.02Z" fill="#606060"/>
<path d="M37.54 125.02H31.29V131.27H37.54V125.02Z" fill="#606060"/>
<path d="M31.29 125.02H25.04V131.27H31.29V125.02Z" fill="#606060"/>
<path d="M25.04 125.02H18.79V131.27H25.04V125.02Z" fill="#A5A5A5"/>
<path d="M18.79 125.02H12.54V131.27H18.79V125.02Z" fill="#808080"/>
<path d="M12.54 125.02H6.29004V131.27H12.54V125.02Z" fill="#808080"/>
<path d="M6.29004 125.02H0.0400391V131.27H6.29004V125.02Z" fill="#4C4C4C"/>
<path d="M150.06 131.27H143.81V137.52H150.06V131.27Z" fill="#4C4C4C"/>
<path d="M143.81 131.27H137.56V137.52H143.81V131.27Z" fill="#3D3D3D"/>
<path d="M137.56 131.27H131.31V137.52H137.56V131.27Z" fill="#808080"/>
<path d="M131.31 131.27H125.06V137.52H131.31V131.27Z" fill="#606060"/>
<path d="M125.06 131.27H118.81V137.52H125.06V131.27Z" fill="#606060"/>
<path d="M118.81 131.27H112.56V137.52H118.81V131.27Z" fill="#606060"/>
<path d="M112.55 131.27H106.3V137.52H112.55V131.27Z" fill="#606060"/>
<path d="M106.3 131.27H100.05V137.52H106.3V131.27Z" fill="#606060"/>
<path d="M100.05 131.27H93.8V137.52H100.05V131.27Z" fill="#606060"/>
<path d="M93.8 131.27H87.55V137.52H93.8V131.27Z" fill="#606060"/>
<path d="M87.55 131.27H81.3V137.52H87.55V131.27Z" fill="#606060"/>
<path d="M81.3 131.27H75.05V137.52H81.3V131.27Z" fill="#606060"/>
<path d="M75.05 131.27H68.8V137.52H75.05V131.27Z" fill="#606060"/>
<path d="M68.8001 131.27H62.55V137.52H68.8001V131.27Z" fill="#606060"/>
<path d="M62.55 131.27H56.3V137.52H62.55V131.27Z" fill="#606060"/>
<path d="M56.3 131.27H50.05V137.52H56.3V131.27Z" fill="#606060"/>
<path d="M50.05 131.27H43.8V137.52H50.05V131.27Z" fill="#606060"/>
<path d="M43.8 131.27H37.55V137.52H43.8V131.27Z" fill="#606060"/>
<path d="M37.54 131.27H31.29V137.52H37.54V131.27Z" fill="#606060"/>
<path d="M31.29 131.27H25.04V137.52H31.29V131.27Z" fill="#606060"/>
<path d="M25.04 131.27H18.79V137.52H25.04V131.27Z" fill="#606060"/>
<path d="M18.79 131.27H12.54V137.52H18.79V131.27Z" fill="#A5A5A5"/>
<path d="M12.54 131.27H6.29004V137.52H12.54V131.27Z" fill="#808080"/>
<path d="M6.29004 131.27H0.0400391V137.52H6.29004V131.27Z" fill="#4C4C4C"/>
<path d="M143.81 137.52H137.56V143.77H143.81V137.52Z" fill="#4C4C4C"/>
<path d="M137.56 137.52H131.31V143.77H137.56V137.52Z" fill="#606060"/>
<path d="M131.31 137.52H125.06V143.77H131.31V137.52Z" fill="#606060"/>
<path d="M125.06 137.52H118.81V143.77H125.06V137.52Z" fill="#606060"/>
<path d="M118.81 137.52H112.56V143.77H118.81V137.52Z" fill="#606060"/>
<path d="M112.55 137.52H106.3V143.77H112.55V137.52Z" fill="#606060"/>
<path d="M106.3 137.52H100.05V143.77H106.3V137.52Z" fill="#606060"/>
<path d="M100.05 137.52H93.8V143.77H100.05V137.52Z" fill="#606060"/>
<path d="M93.8 137.52H87.55V143.77H93.8V137.52Z" fill="#606060"/>
<path d="M87.55 137.52H81.3V143.77H87.55V137.52Z" fill="#606060"/>
<path d="M81.3 137.52H75.05V143.77H81.3V137.52Z" fill="#606060"/>
<path d="M75.05 137.52H68.8V143.77H75.05V137.52Z" fill="#606060"/>
<path d="M68.8001 137.52H62.55V143.77H68.8001V137.52Z" fill="#606060"/>
<path d="M62.55 137.52H56.3V143.77H62.55V137.52Z" fill="#606060"/>
<path d="M56.3 137.52H50.05V143.77H56.3V137.52Z" fill="#606060"/>
<path d="M50.05 137.52H43.8V143.77H50.05V137.52Z" fill="#606060"/>
<path d="M43.8 137.52H37.55V143.77H43.8V137.52Z" fill="#606060"/>
<path d="M37.54 137.52H31.29V143.77H37.54V137.52Z" fill="#606060"/>
<path d="M31.29 137.52H25.04V143.77H31.29V137.52Z" fill="#606060"/>
<path d="M25.04 137.52H18.79V143.77H25.04V137.52Z" fill="#606060"/>
<path d="M18.79 137.52H12.54V143.77H18.79V137.52Z" fill="#606060"/>
<path d="M12.54 137.52H6.29004V143.77H12.54V137.52Z" fill="#4C4C4C"/>
<path d="M137.56 143.77H131.31V150.02H137.56V143.77Z" fill="#4C4C4C"/>
<path d="M131.31 143.77H125.06V150.02H131.31V143.77Z" fill="#4C4C4C"/>
<path d="M125.06 143.77H118.81V150.02H125.06V143.77Z" fill="#4C4C4C"/>
<path d="M118.81 143.77H112.56V150.02H118.81V143.77Z" fill="#4C4C4C"/>
<path d="M112.55 143.77H106.3V150.02H112.55V143.77Z" fill="#4C4C4C"/>
<path d="M106.3 143.77H100.05V150.02H106.3V143.77Z" fill="#4C4C4C"/>
<path d="M100.05 143.77H93.8V150.02H100.05V143.77Z" fill="#4C4C4C"/>
<path d="M93.8 143.77H87.55V150.02H93.8V143.77Z" fill="#4C4C4C"/>
<path d="M87.55 143.77H81.3V150.02H87.55V143.77Z" fill="#4C4C4C"/>
<path d="M81.3 143.77H75.05V150.02H81.3V143.77Z" fill="#4C4C4C"/>
<path d="M75.05 143.77H68.8V150.02H75.05V143.77Z" fill="#4C4C4C"/>
<path d="M68.8001 143.77H62.55V150.02H68.8001V143.77Z" fill="#4C4C4C"/>
<path d="M62.55 143.77H56.3V150.02H62.55V143.77Z" fill="#4C4C4C"/>
<path d="M56.3 143.77H50.05V150.02H56.3V143.77Z" fill="#4C4C4C"/>
<path d="M50.05 143.77H43.8V150.02H50.05V143.77Z" fill="#4C4C4C"/>
<path d="M43.8 143.77H37.55V150.02H43.8V143.77Z" fill="#4C4C4C"/>
<path d="M37.54 143.77H31.29V150.02H37.54V143.77Z" fill="#4C4C4C"/>
<path d="M31.29 143.77H25.04V150.02H31.29V143.77Z" fill="#4C4C4C"/>
<path d="M25.04 143.77H18.79V150.02H25.04V143.77Z" fill="#4C4C4C"/>
<path d="M18.79 143.77H12.54V150.02H18.79V143.77Z" fill="#4C4C4C"/>
<path d="M53.17 93.77V75.01H59.42V68.76H65.68V62.51H59.42V56.25H53.17V43.76H65.68V56.25H71.93V62.51H78.18V56.25H84.44V43.76H96.93V56.25H90.68V62.51H84.43V68.76H90.68V75.01H96.93V93.77H84.44V75.01H78.18V68.76H71.93V75.01H65.68V93.77H53.17Z" fill="#808080"/>
<path d="M53.17 81.26V62.5H59.42V56.25H65.68V50H59.42V43.74H53.17V31.25H65.68V43.74H71.93V50H78.18V43.74H84.44V31.25H96.93V43.74H90.68V50H84.43V56.25H90.68V62.5H96.93V81.26H84.44V62.5H78.18V56.25H71.93V62.5H65.68V81.26H53.17Z" fill="#E5E5E5"/>
<path d="M53.17 87.51V68.75H59.42V62.5H65.68V56.25H59.42V49.99H53.17V37.5H65.68V49.99H71.93V56.25H78.18V49.99H84.44V37.5H96.93V49.99H90.68V56.25H84.43V62.5H90.68V68.75H96.93V87.51H84.44V68.75H78.18V62.5H71.93V68.75H65.68V87.51H53.17Z" fill="#282828"/>
</g>
<defs>
<clipPath id="clip0_3_11154">
<rect width="150.02" height="150.02" fill="white" transform="translate(0.0400391)"/>
</clipPath>
</defs>
</svg>
