<svg width="151" height="151" viewBox="0 0 151 151" fill="none" xmlns="http://www.w3.org/2000/svg">
<g clip-path="url(#clip0_3_42165)">
<path d="M12.5601 0.0200195V6.27002H6.31006V12.52H0.0600586V137.54H6.31006V143.79H12.5601V150.04H37.5601V150.02H37.5701V150.04H112.57V150.02H112.58V150.04H137.58V143.79H143.83V137.54H150.08V112.54H150.06V112.53H150.08V37.53H150.06V37.52H150.08V12.52H143.83V6.27002H137.58V0.0200195H12.5601Z" fill="#4C4C4C"/>
<path d="M137.58 0.0200195H131.33V6.27002H137.58V0.0200195Z" fill="#4C4C4C"/>
<path d="M131.33 0.0200195H125.08V6.27002H131.33V0.0200195Z" fill="#4C4C4C"/>
<path d="M125.08 0.0200195H118.83V6.27002H125.08V0.0200195Z" fill="#4C4C4C"/>
<path d="M118.83 0.0200195H112.58V6.27002H118.83V0.0200195Z" fill="#4C4C4C"/>
<path d="M112.57 0.0200195H106.32V6.27002H112.57V0.0200195Z" fill="#4C4C4C"/>
<path d="M106.32 0.0200195H100.07V6.27002H106.32V0.0200195Z" fill="#4C4C4C"/>
<path d="M100.07 0.0200195H93.8201V6.27002H100.07V0.0200195Z" fill="#4C4C4C"/>
<path d="M93.8201 0.0200195H87.5701V6.27002H93.8201V0.0200195Z" fill="#4C4C4C"/>
<path d="M87.5701 0.0200195H81.3201V6.27002H87.5701V0.0200195Z" fill="#4C4C4C"/>
<path d="M81.3201 0.0200195H75.0701V6.27002H81.3201V0.0200195Z" fill="#4C4C4C"/>
<path d="M75.0701 0.0200195H68.8201V6.27002H75.0701V0.0200195Z" fill="#4C4C4C"/>
<path d="M68.8201 0.0200195H62.5701V6.27002H68.8201V0.0200195Z" fill="#4C4C4C"/>
<path d="M62.5701 0.0200195H56.3201V6.27002H62.5701V0.0200195Z" fill="#4C4C4C"/>
<path d="M56.3201 0.0200195H50.0701V6.27002H56.3201V0.0200195Z" fill="#4C4C4C"/>
<path d="M50.0701 0.0200195H43.8201V6.27002H50.0701V0.0200195Z" fill="#4C4C4C"/>
<path d="M43.8201 0.0200195H37.5701V6.27002H43.8201V0.0200195Z" fill="#4C4C4C"/>
<path d="M37.5601 0.0200195H31.3101V6.27002H37.5601V0.0200195Z" fill="#4C4C4C"/>
<path d="M31.3101 0.0200195H25.0601V6.27002H31.3101V0.0200195Z" fill="#4C4C4C"/>
<path d="M25.0601 0.0200195H18.8101V6.27002H25.0601V0.0200195Z" fill="#4C4C4C"/>
<path d="M18.8101 0.0200195H12.5601V6.27002H18.8101V0.0200195Z" fill="#4C4C4C"/>
<path d="M143.83 6.27002H137.58V12.52H143.83V6.27002Z" fill="#4C4C4C"/>
<path d="M137.58 6.27002H131.33V12.52H137.58V6.27002Z" fill="#3D3D3D"/>
<path d="M131.33 6.27002H125.08V12.52H131.33V6.27002Z" fill="#3D3D3D"/>
<path d="M125.08 6.27002H118.83V12.52H125.08V6.27002Z" fill="#3D3D3D"/>
<path d="M118.83 6.27002H112.58V12.52H118.83V6.27002Z" fill="#3D3D3D"/>
<path d="M112.57 6.27002H106.32V12.52H112.57V6.27002Z" fill="#D6D6D6"/>
<path d="M106.32 6.27002H100.07V12.52H106.32V6.27002Z" fill="#A5A5A5"/>
<path d="M100.07 6.27002H93.8201V12.52H100.07V6.27002Z" fill="#A5A5A5"/>
<path d="M93.8201 6.27002H87.5701V12.52H93.8201V6.27002Z" fill="#A5A5A5"/>
<path d="M87.5701 6.27002H81.3201V12.52H87.5701V6.27002Z" fill="#A5A5A5"/>
<path d="M81.3201 6.27002H75.0701V12.52H81.3201V6.27002Z" fill="#A5A5A5"/>
<path d="M75.0701 6.27002H68.8201V12.52H75.0701V6.27002Z" fill="#A5A5A5"/>
<path d="M68.8201 6.27002H62.5701V12.52H68.8201V6.27002Z" fill="#A5A5A5"/>
<path d="M62.5701 6.27002H56.3201V12.52H62.5701V6.27002Z" fill="#A5A5A5"/>
<path d="M56.3201 6.27002H50.0701V12.52H56.3201V6.27002Z" fill="#A5A5A5"/>
<path d="M50.0701 6.27002H43.8201V12.52H50.0701V6.27002Z" fill="#D6D6D6"/>
<path d="M43.8201 6.27002H37.5701V12.52H43.8201V6.27002Z" fill="#D6D6D6"/>
<path d="M37.5601 6.27002H31.3101V12.52H37.5601V6.27002Z" fill="#808080"/>
<path d="M31.3101 6.27002H25.0601V12.52H31.3101V6.27002Z" fill="#808080"/>
<path d="M25.0601 6.27002H18.8101V12.52H25.0601V6.27002Z" fill="#808080"/>
<path d="M18.8101 6.27002H12.5601V12.52H18.8101V6.27002Z" fill="#808080"/>
<path d="M12.5601 6.27002H6.31006V12.52H12.5601V6.27002Z" fill="#4C4C4C"/>
<path d="M150.08 12.52H143.83V18.77H150.08V12.52Z" fill="#4C4C4C"/>
<path d="M143.83 12.52H137.58V18.77H143.83V12.52Z" fill="#3D3D3D"/>
<path d="M137.58 12.52H131.33V18.77H137.58V12.52Z" fill="#3D3D3D"/>
<path d="M131.33 12.52H125.08V18.77H131.33V12.52Z" fill="#3D3D3D"/>
<path d="M125.08 12.52H118.83V18.77H125.08V12.52Z" fill="#3D3D3D"/>
<path d="M118.83 12.52H112.58V18.77H118.83V12.52Z" fill="#D6D6D6"/>
<path d="M112.57 12.52H106.32V18.77H112.57V12.52Z" fill="#A5A5A5"/>
<path d="M106.32 12.52H100.07V18.77H106.32V12.52Z" fill="#A5A5A5"/>
<path d="M100.07 12.52H93.8201V18.77H100.07V12.52Z" fill="#A5A5A5"/>
<path d="M93.8201 12.52H87.5701V18.77H93.8201V12.52Z" fill="#A5A5A5"/>
<path d="M87.5701 12.52H81.3201V18.77H87.5701V12.52Z" fill="#A5A5A5"/>
<path d="M81.3201 12.52H75.0701V18.77H81.3201V12.52Z" fill="#A5A5A5"/>
<path d="M75.0701 12.52H68.8201V18.77H75.0701V12.52Z" fill="#A5A5A5"/>
<path d="M68.8201 12.52H62.5701V18.77H68.8201V12.52Z" fill="#A5A5A5"/>
<path d="M62.5701 12.52H56.3201V18.77H62.5701V12.52Z" fill="#A5A5A5"/>
<path d="M56.3201 12.52H50.0701V18.77H56.3201V12.52Z" fill="#D6D6D6"/>
<path d="M50.0701 12.52H43.8201V18.77H50.0701V12.52Z" fill="#D6D6D6"/>
<path d="M43.8201 12.52H37.5701V18.77H43.8201V12.52Z" fill="#D6D6D6"/>
<path d="M37.5601 12.52H31.3101V18.77H37.5601V12.52Z" fill="#A5A5A5"/>
<path d="M31.3101 12.52H25.0601V18.77H31.3101V12.52Z" fill="#808080"/>
<path d="M25.0601 12.52H18.8101V18.77H25.0601V12.52Z" fill="#808080"/>
<path d="M18.8101 12.52H12.5601V18.77H18.8101V12.52Z" fill="#808080"/>
<path d="M12.5601 12.52H6.31006V18.77H12.5601V12.52Z" fill="#808080"/>
<path d="M6.31006 12.52H0.0600586V18.77H6.31006V12.52Z" fill="#4C4C4C"/>
<path d="M150.08 18.77H143.83V25.02H150.08V18.77Z" fill="#4C4C4C"/>
<path d="M143.83 18.77H137.58V25.02H143.83V18.77Z" fill="#3D3D3D"/>
<path d="M137.58 18.77H131.33V25.02H137.58V18.77Z" fill="#3D3D3D"/>
<path d="M131.33 18.77H125.08V25.02H131.33V18.77Z" fill="#3D3D3D"/>
<path d="M125.08 18.77H118.83V25.02H125.08V18.77Z" fill="#3D3D3D"/>
<path d="M118.83 18.77H112.58V25.02H118.83V18.77Z" fill="#A5A5A5"/>
<path d="M112.57 18.77H106.32V25.02H112.57V18.77Z" fill="#A5A5A5"/>
<path d="M106.32 18.77H100.07V25.02H106.32V18.77Z" fill="#A5A5A5"/>
<path d="M100.07 18.77H93.8201V25.02H100.07V18.77Z" fill="#A5A5A5"/>
<path d="M93.8201 18.77H87.5701V25.02H93.8201V18.77Z" fill="#A5A5A5"/>
<path d="M87.5701 18.77H81.3201V25.02H87.5701V18.77Z" fill="#A5A5A5"/>
<path d="M81.3201 18.77H75.0701V25.02H81.3201V18.77Z" fill="#A5A5A5"/>
<path d="M75.0701 18.77H68.8201V25.02H75.0701V18.77Z" fill="#A5A5A5"/>
<path d="M68.8201 18.77H62.5701V25.02H68.8201V18.77Z" fill="#A5A5A5"/>
<path d="M62.5701 18.77H56.3201V25.02H62.5701V18.77Z" fill="#D6D6D6"/>
<path d="M56.3201 18.77H50.0701V25.02H56.3201V18.77Z" fill="#D6D6D6"/>
<path d="M50.0701 18.77H43.8201V25.02H50.0701V18.77Z" fill="#D6D6D6"/>
<path d="M43.8201 18.77H37.5701V25.02H43.8201V18.77Z" fill="#A5A5A5"/>
<path d="M37.5601 18.77H31.3101V25.02H37.5601V18.77Z" fill="#A5A5A5"/>
<path d="M31.3101 18.77H25.0601V25.02H31.3101V18.77Z" fill="#808080"/>
<path d="M25.0601 18.77H18.8101V25.02H25.0601V18.77Z" fill="#808080"/>
<path d="M18.8101 18.77H12.5601V25.02H18.8101V18.77Z" fill="#808080"/>
<path d="M12.5601 18.77H6.31006V25.02H12.5601V18.77Z" fill="#808080"/>
<path d="M6.31006 18.77H0.0600586V25.02H6.31006V18.77Z" fill="#4C4C4C"/>
<path d="M150.08 25.02H143.83V31.27H150.08V25.02Z" fill="#4C4C4C"/>
<path d="M143.83 25.02H137.58V31.27H143.83V25.02Z" fill="#3D3D3D"/>
<path d="M137.58 25.02H131.33V31.27H137.58V25.02Z" fill="#3D3D3D"/>
<path d="M131.33 25.02H125.08V31.27H131.33V25.02Z" fill="#3D3D3D"/>
<path d="M125.08 25.02H118.83V31.27H125.08V25.02Z" fill="#3D3D3D"/>
<path d="M118.83 25.02H112.58V31.27H118.83V25.02Z" fill="#A5A5A5"/>
<path d="M112.57 25.02H106.32V31.27H112.57V25.02Z" fill="#A5A5A5"/>
<path d="M106.32 25.02H100.07V31.27H106.32V25.02Z" fill="#A5A5A5"/>
<path d="M100.07 25.02H93.8201V31.27H100.07V25.02Z" fill="#A5A5A5"/>
<path d="M93.8201 25.02H87.5701V31.27H93.8201V25.02Z" fill="#A5A5A5"/>
<path d="M87.5701 25.02H81.3201V31.27H87.5701V25.02Z" fill="#A5A5A5"/>
<path d="M81.3201 25.02H75.0701V31.27H81.3201V25.02Z" fill="#A5A5A5"/>
<path d="M75.0701 25.02H68.8201V31.27H75.0701V25.02Z" fill="#A5A5A5"/>
<path d="M68.8201 25.02H62.5701V31.27H68.8201V25.02Z" fill="#D6D6D6"/>
<path d="M62.5701 25.02H56.3201V31.27H62.5701V25.02Z" fill="#D6D6D6"/>
<path d="M56.3201 25.02H50.0701V31.27H56.3201V25.02Z" fill="#D6D6D6"/>
<path d="M50.0701 25.02H43.8201V31.27H50.0701V25.02Z" fill="#A5A5A5"/>
<path d="M43.8201 25.02H37.5701V31.27H43.8201V25.02Z" fill="#A5A5A5"/>
<path d="M37.5601 25.02H31.3101V31.27H37.5601V25.02Z" fill="#A5A5A5"/>
<path d="M31.3101 25.02H25.0601V31.27H31.3101V25.02Z" fill="#808080"/>
<path d="M25.0601 25.02H18.8101V31.27H25.0601V25.02Z" fill="#808080"/>
<path d="M18.8101 25.02H12.5601V31.27H18.8101V25.02Z" fill="#808080"/>
<path d="M12.5601 25.02H6.31006V31.27H12.5601V25.02Z" fill="#808080"/>
<path d="M6.31006 25.02H0.0600586V31.27H6.31006V25.02Z" fill="#4C4C4C"/>
<path d="M150.08 31.27H143.83V37.52H150.08V31.27Z" fill="#4C4C4C"/>
<path d="M143.83 31.27H137.58V37.52H143.83V31.27Z" fill="#3D3D3D"/>
<path d="M137.58 31.27H131.33V37.52H137.58V31.27Z" fill="#3D3D3D"/>
<path d="M131.33 31.27H125.08V37.52H131.33V31.27Z" fill="#3D3D3D"/>
<path d="M125.08 31.27H118.83V37.52H125.08V31.27Z" fill="#3D3D3D"/>
<path d="M118.83 31.27H112.58V37.52H118.83V31.27Z" fill="#A5A5A5"/>
<path d="M112.57 31.27H106.32V37.52H112.57V31.27Z" fill="#A5A5A5"/>
<path d="M106.32 31.27H100.07V37.52H106.32V31.27Z" fill="#A5A5A5"/>
<path d="M100.07 31.27H93.8201V37.52H100.07V31.27Z" fill="#A5A5A5"/>
<path d="M93.8201 31.27H87.5701V37.52H93.8201V31.27Z" fill="#A5A5A5"/>
<path d="M87.5701 31.27H81.3201V37.52H87.5701V31.27Z" fill="#A5A5A5"/>
<path d="M81.3201 31.27H75.0701V37.52H81.3201V31.27Z" fill="#A5A5A5"/>
<path d="M75.0701 31.27H68.8201V37.52H75.0701V31.27Z" fill="#D6D6D6"/>
<path d="M68.8201 31.27H62.5701V37.52H68.8201V31.27Z" fill="#D6D6D6"/>
<path d="M62.5701 31.27H56.3201V37.52H62.5701V31.27Z" fill="#D6D6D6"/>
<path d="M56.3201 31.27H50.0701V37.52H56.3201V31.27Z" fill="#A5A5A5"/>
<path d="M50.0701 31.27H43.8201V37.52H50.0701V31.27Z" fill="#A5A5A5"/>
<path d="M43.8201 31.27H37.5701V37.52H43.8201V31.27Z" fill="#A5A5A5"/>
<path d="M37.5601 31.27H31.3101V37.52H37.5601V31.27Z" fill="#D6D6D6"/>
<path d="M31.3101 31.27H25.0601V37.52H31.3101V31.27Z" fill="#808080"/>
<path d="M25.0601 31.27H18.8101V37.52H25.0601V31.27Z" fill="#808080"/>
<path d="M18.8101 31.27H12.5601V37.52H18.8101V31.27Z" fill="#808080"/>
<path d="M12.5601 31.27H6.31006V37.52H12.5601V31.27Z" fill="#808080"/>
<path d="M6.31006 31.27H0.0600586V37.52H6.31006V31.27Z" fill="#4C4C4C"/>
<path d="M150.08 37.53H143.83V43.78H150.08V37.53Z" fill="#4C4C4C"/>
<path d="M143.83 37.53H137.58V43.78H143.83V37.53Z" fill="#3D3D3D"/>
<path d="M137.58 37.53H131.33V43.78H137.58V37.53Z" fill="#3D3D3D"/>
<path d="M131.33 37.53H125.08V43.78H131.33V37.53Z" fill="#3D3D3D"/>
<path d="M125.08 37.53H118.83V43.78H125.08V37.53Z" fill="#3D3D3D"/>
<path d="M118.83 37.53H112.58V43.78H118.83V37.53Z" fill="#A5A5A5"/>
<path d="M112.57 37.53H106.32V43.78H112.57V37.53Z" fill="#A5A5A5"/>
<path d="M106.32 37.53H100.07V43.78H106.32V37.53Z" fill="#A5A5A5"/>
<path d="M100.07 37.53H93.8201V43.78H100.07V37.53Z" fill="#A5A5A5"/>
<path d="M93.8201 37.53H87.5701V43.78H93.8201V37.53Z" fill="#A5A5A5"/>
<path d="M87.5701 37.53H81.3201V43.78H87.5701V37.53Z" fill="#A5A5A5"/>
<path d="M81.3201 37.53H75.0701V43.78H81.3201V37.53Z" fill="#D6D6D6"/>
<path d="M75.0701 37.53H68.8201V43.78H75.0701V37.53Z" fill="#D6D6D6"/>
<path d="M68.8201 37.53H62.5701V43.78H68.8201V37.53Z" fill="#D6D6D6"/>
<path d="M62.5701 37.53H56.3201V43.78H62.5701V37.53Z" fill="#A5A5A5"/>
<path d="M56.3201 37.53H50.0701V43.78H56.3201V37.53Z" fill="#A5A5A5"/>
<path d="M50.0701 37.53H43.8201V43.78H50.0701V37.53Z" fill="#A5A5A5"/>
<path d="M43.8201 37.53H37.5701V43.78H43.8201V37.53Z" fill="#D6D6D6"/>
<path d="M37.5601 37.53H31.3101V43.78H37.5601V37.53Z" fill="#A5A5A5"/>
<path d="M31.3101 37.53H25.0601V43.78H31.3101V37.53Z" fill="#808080"/>
<path d="M25.0601 37.53H18.8101V43.78H25.0601V37.53Z" fill="#808080"/>
<path d="M18.8101 37.53H12.5601V43.78H18.8101V37.53Z" fill="#808080"/>
<path d="M12.5601 37.53H6.31006V43.78H12.5601V37.53Z" fill="#808080"/>
<path d="M6.31006 37.53H0.0600586V43.78H6.31006V37.53Z" fill="#4C4C4C"/>
<path d="M150.08 43.78H143.83V50.03H150.08V43.78Z" fill="#4C4C4C"/>
<path d="M143.83 43.78H137.58V50.03H143.83V43.78Z" fill="#3D3D3D"/>
<path d="M137.58 43.78H131.33V50.03H137.58V43.78Z" fill="#3D3D3D"/>
<path d="M131.33 43.78H125.08V50.03H131.33V43.78Z" fill="#3D3D3D"/>
<path d="M125.08 43.78H118.83V50.03H125.08V43.78Z" fill="#3D3D3D"/>
<path d="M118.83 43.78H112.58V50.03H118.83V43.78Z" fill="#A5A5A5"/>
<path d="M112.57 43.78H106.32V50.03H112.57V43.78Z" fill="#A5A5A5"/>
<path d="M106.32 43.78H100.07V50.03H106.32V43.78Z" fill="#A5A5A5"/>
<path d="M100.07 43.78H93.8201V50.03H100.07V43.78Z" fill="#A5A5A5"/>
<path d="M93.8201 43.78H87.5701V50.03H93.8201V43.78Z" fill="#A5A5A5"/>
<path d="M87.5701 43.78H81.3201V50.03H87.5701V43.78Z" fill="#D6D6D6"/>
<path d="M81.3201 43.78H75.0701V50.03H81.3201V43.78Z" fill="#D6D6D6"/>
<path d="M75.0701 43.78H68.8201V50.03H75.0701V43.78Z" fill="#D6D6D6"/>
<path d="M68.8201 43.78H62.5701V50.03H68.8201V43.78Z" fill="#A5A5A5"/>
<path d="M62.5701 43.78H56.3201V50.03H62.5701V43.78Z" fill="#A5A5A5"/>
<path d="M56.3201 43.78H50.0701V50.03H56.3201V43.78Z" fill="#A5A5A5"/>
<path d="M50.0701 43.78H43.8201V50.03H50.0701V43.78Z" fill="#D6D6D6"/>
<path d="M43.8201 43.78H37.5701V50.03H43.8201V43.78Z" fill="#A5A5A5"/>
<path d="M37.5601 43.78H31.3101V50.03H37.5601V43.78Z" fill="#A5A5A5"/>
<path d="M31.3101 43.78H25.0601V50.03H31.3101V43.78Z" fill="#808080"/>
<path d="M25.0601 43.78H18.8101V50.03H25.0601V43.78Z" fill="#808080"/>
<path d="M18.8101 43.78H12.5601V50.03H18.8101V43.78Z" fill="#808080"/>
<path d="M12.5601 43.78H6.31006V50.03H12.5601V43.78Z" fill="#808080"/>
<path d="M6.31006 43.78H0.0600586V50.03H6.31006V43.78Z" fill="#4C4C4C"/>
<path d="M150.08 50.03H143.83V56.28H150.08V50.03Z" fill="#4C4C4C"/>
<path d="M143.83 50.03H137.58V56.28H143.83V50.03Z" fill="#3D3D3D"/>
<path d="M137.58 50.03H131.33V56.28H137.58V50.03Z" fill="#3D3D3D"/>
<path d="M131.33 50.03H125.08V56.28H131.33V50.03Z" fill="#3D3D3D"/>
<path d="M125.08 50.03H118.83V56.28H125.08V50.03Z" fill="#3D3D3D"/>
<path d="M118.83 50.03H112.58V56.28H118.83V50.03Z" fill="#A5A5A5"/>
<path d="M112.57 50.03H106.32V56.28H112.57V50.03Z" fill="#A5A5A5"/>
<path d="M106.32 50.03H100.07V56.28H106.32V50.03Z" fill="#A5A5A5"/>
<path d="M100.07 50.03H93.8201V56.28H100.07V50.03Z" fill="#A5A5A5"/>
<path d="M93.8201 50.03H87.5701V56.28H93.8201V50.03Z" fill="#D6D6D6"/>
<path d="M87.5701 50.03H81.3201V56.28H87.5701V50.03Z" fill="#D6D6D6"/>
<path d="M81.3201 50.03H75.0701V56.28H81.3201V50.03Z" fill="#D6D6D6"/>
<path d="M75.0701 50.03H68.8201V56.28H75.0701V50.03Z" fill="#A5A5A5"/>
<path d="M68.8201 50.03H62.5701V56.28H68.8201V50.03Z" fill="#A5A5A5"/>
<path d="M62.5701 50.03H56.3201V56.28H62.5701V50.03Z" fill="#A5A5A5"/>
<path d="M56.3201 50.03H50.0701V56.28H56.3201V50.03Z" fill="#D6D6D6"/>
<path d="M50.0701 50.03H43.8201V56.28H50.0701V50.03Z" fill="#A5A5A5"/>
<path d="M43.8201 50.03H37.5701V56.28H43.8201V50.03Z" fill="#A5A5A5"/>
<path d="M37.5601 50.03H31.3101V56.28H37.5601V50.03Z" fill="#A5A5A5"/>
<path d="M31.3101 50.03H25.0601V56.28H31.3101V50.03Z" fill="#808080"/>
<path d="M25.0601 50.03H18.8101V56.28H25.0601V50.03Z" fill="#808080"/>
<path d="M18.8101 50.03H12.5601V56.28H18.8101V50.03Z" fill="#808080"/>
<path d="M12.5601 50.03H6.31006V56.28H12.5601V50.03Z" fill="#808080"/>
<path d="M6.31006 50.03H0.0600586V56.28H6.31006V50.03Z" fill="#4C4C4C"/>
<path d="M150.08 56.28H143.83V62.53H150.08V56.28Z" fill="#4C4C4C"/>
<path d="M143.83 56.28H137.58V62.53H143.83V56.28Z" fill="#3D3D3D"/>
<path d="M137.58 56.28H131.33V62.53H137.58V56.28Z" fill="#3D3D3D"/>
<path d="M131.33 56.28H125.08V62.53H131.33V56.28Z" fill="#3D3D3D"/>
<path d="M125.08 56.28H118.83V62.53H125.08V56.28Z" fill="#3D3D3D"/>
<path d="M118.83 56.28H112.58V62.53H118.83V56.28Z" fill="#A5A5A5"/>
<path d="M112.57 56.28H106.32V62.53H112.57V56.28Z" fill="#A5A5A5"/>
<path d="M106.32 56.28H100.07V62.53H106.32V56.28Z" fill="#A5A5A5"/>
<path d="M150.08 62.53H143.83V68.78H150.08V62.53Z" fill="#4C4C4C"/>
<path d="M143.83 62.53H137.58V68.78H143.83V62.53Z" fill="#3D3D3D"/>
<path d="M137.58 62.53H131.33V68.78H137.58V62.53Z" fill="#3D3D3D"/>
<path d="M131.33 62.53H125.08V68.78H131.33V62.53Z" fill="#3D3D3D"/>
<path d="M125.08 62.53H118.83V68.78H125.08V62.53Z" fill="#3D3D3D"/>
<path d="M118.83 62.53H112.58V68.78H118.83V62.53Z" fill="#A5A5A5"/>
<path d="M112.57 62.53H106.32V68.78H112.57V62.53Z" fill="#A5A5A5"/>
<path d="M106.32 62.53H100.07V68.78H106.32V62.53Z" fill="#D6D6D6"/>
<path d="M150.08 68.78H143.83V75.03H150.08V68.78Z" fill="#4C4C4C"/>
<path d="M143.83 68.78H137.58V75.03H143.83V68.78Z" fill="#3D3D3D"/>
<path d="M137.58 68.78H131.33V75.03H137.58V68.78Z" fill="#3D3D3D"/>
<path d="M131.33 68.78H125.08V75.03H131.33V68.78Z" fill="#3D3D3D"/>
<path d="M125.08 68.78H118.83V75.03H125.08V68.78Z" fill="#3D3D3D"/>
<path d="M118.83 68.78H112.58V75.03H118.83V68.78Z" fill="#A5A5A5"/>
<path d="M112.57 68.78H106.32V75.03H112.57V68.78Z" fill="#D6D6D6"/>
<path d="M106.32 68.78H100.07V75.03H106.32V68.78Z" fill="#D6D6D6"/>
<path d="M150.08 75.03H143.83V81.28H150.08V75.03Z" fill="#4C4C4C"/>
<path d="M143.83 75.03H137.58V81.28H143.83V75.03Z" fill="#3D3D3D"/>
<path d="M137.58 75.03H131.33V81.28H137.58V75.03Z" fill="#3D3D3D"/>
<path d="M131.33 75.03H125.08V81.28H131.33V75.03Z" fill="#3D3D3D"/>
<path d="M125.08 75.03H118.83V81.28H125.08V75.03Z" fill="#3D3D3D"/>
<path d="M118.83 75.03H112.58V81.28H118.83V75.03Z" fill="#D6D6D6"/>
<path d="M112.57 75.03H106.32V81.28H112.57V75.03Z" fill="#D6D6D6"/>
<path d="M106.32 75.03H100.07V81.28H106.32V75.03Z" fill="#D6D6D6"/>
<path d="M150.08 81.28H143.83V87.53H150.08V81.28Z" fill="#4C4C4C"/>
<path d="M143.83 81.28H137.58V87.53H143.83V81.28Z" fill="#3D3D3D"/>
<path d="M137.58 81.28H131.33V87.53H137.58V81.28Z" fill="#3D3D3D"/>
<path d="M131.33 81.28H125.08V87.53H131.33V81.28Z" fill="#3D3D3D"/>
<path d="M125.08 81.28H118.83V87.53H125.08V81.28Z" fill="#3D3D3D"/>
<path d="M118.83 81.28H112.58V87.53H118.83V81.28Z" fill="#D6D6D6"/>
<path d="M112.57 81.28H106.32V87.53H112.57V81.28Z" fill="#D6D6D6"/>
<path d="M106.32 81.28H100.07V87.53H106.32V81.28Z" fill="#A5A5A5"/>
<path d="M150.08 87.53H143.83V93.78H150.08V87.53Z" fill="#4C4C4C"/>
<path d="M143.83 87.53H137.58V93.78H143.83V87.53Z" fill="#3D3D3D"/>
<path d="M137.58 87.53H131.33V93.78H137.58V87.53Z" fill="#3D3D3D"/>
<path d="M131.33 87.53H125.08V93.78H131.33V87.53Z" fill="#3D3D3D"/>
<path d="M125.08 87.53H118.83V93.78H125.08V87.53Z" fill="#3D3D3D"/>
<path d="M118.83 87.53H112.58V93.78H118.83V87.53Z" fill="#D6D6D6"/>
<path d="M112.57 87.53H106.32V93.78H112.57V87.53Z" fill="#A5A5A5"/>
<path d="M106.32 87.53H100.07V93.78H106.32V87.53Z" fill="#A5A5A5"/>
<path d="M150.08 93.78H143.83V100.03H150.08V93.78Z" fill="#4C4C4C"/>
<path d="M143.83 93.78H137.58V100.03H143.83V93.78Z" fill="#3D3D3D"/>
<path d="M137.58 93.78H131.33V100.03H137.58V93.78Z" fill="#3D3D3D"/>
<path d="M131.33 93.78H125.08V100.03H131.33V93.78Z" fill="#3D3D3D"/>
<path d="M125.08 93.78H118.83V100.03H125.08V93.78Z" fill="#3D3D3D"/>
<path d="M118.83 93.78H112.58V100.03H118.83V93.78Z" fill="#A5A5A5"/>
<path d="M112.57 93.78H106.32V100.03H112.57V93.78Z" fill="#A5A5A5"/>
<path d="M106.32 93.78H100.07V100.03H106.32V93.78Z" fill="#A5A5A5"/>
<path d="M150.08 100.03H143.83V106.28H150.08V100.03Z" fill="#4C4C4C"/>
<path d="M143.83 100.03H137.58V106.28H143.83V100.03Z" fill="#3D3D3D"/>
<path d="M137.58 100.03H131.33V106.28H137.58V100.03Z" fill="#3D3D3D"/>
<path d="M131.33 100.03H125.08V106.28H131.33V100.03Z" fill="#3D3D3D"/>
<path d="M125.08 100.03H118.83V106.28H125.08V100.03Z" fill="#3D3D3D"/>
<path d="M118.83 100.03H112.58V106.28H118.83V100.03Z" fill="#A5A5A5"/>
<path d="M112.57 100.03H106.32V106.28H112.57V100.03Z" fill="#A5A5A5"/>
<path d="M106.32 100.03H100.07V106.28H106.32V100.03Z" fill="#D6D6D6"/>
<path d="M100.07 62.53H93.8201V68.78H100.07V62.53Z" fill="#D6D6D6"/>
<path d="M93.8201 62.53H87.5701V68.78H93.8201V62.53Z" fill="#D6D6D6"/>
<path d="M87.5701 62.53H81.3201V68.78H87.5701V62.53Z" fill="#A5A5A5"/>
<path d="M100.07 68.78H93.8201V75.03H100.07V68.78Z" fill="#D6D6D6"/>
<path d="M93.8201 68.78H87.5701V75.03H93.8201V68.78Z" fill="#A5A5A5"/>
<path d="M87.5701 68.78H81.3201V75.03H87.5701V68.78Z" fill="#A5A5A5"/>
<path d="M100.07 75.03H93.8201V81.28H100.07V75.03Z" fill="#A5A5A5"/>
<path d="M93.8201 75.03H87.5701V81.28H93.8201V75.03Z" fill="#A5A5A5"/>
<path d="M87.5701 75.03H81.3201V81.28H87.5701V75.03Z" fill="#A5A5A5"/>
<path d="M100.07 81.28H93.8201V87.53H100.07V81.28Z" fill="#A5A5A5"/>
<path d="M93.8201 81.28H87.5701V87.53H93.8201V81.28Z" fill="#A5A5A5"/>
<path d="M87.5701 81.28H81.3201V87.53H87.5701V81.28Z" fill="#D6D6D6"/>
<path d="M100.07 87.53H93.8201V93.78H100.07V87.53Z" fill="#A5A5A5"/>
<path d="M93.8201 87.53H87.5701V93.78H93.8201V87.53Z" fill="#D6D6D6"/>
<path d="M87.5701 87.53H81.3201V93.78H87.5701V87.53Z" fill="#A5A5A5"/>
<path d="M100.07 93.78H93.8201V100.03H100.07V93.78Z" fill="#D6D6D6"/>
<path d="M93.8201 93.78H87.5701V100.03H93.8201V93.78Z" fill="#A5A5A5"/>
<path d="M87.5701 93.78H81.3201V100.03H87.5701V93.78Z" fill="#A5A5A5"/>
<path d="M100.07 100.03H93.8201V106.28H100.07V100.03Z" fill="#A5A5A5"/>
<path d="M93.8201 100.03H87.5701V106.28H93.8201V100.03Z" fill="#A5A5A5"/>
<path d="M87.5701 100.03H81.3201V106.28H87.5701V100.03Z" fill="#A5A5A5"/>
<path d="M81.3201 62.53H75.0701V68.78H81.3201V62.53Z" fill="#A5A5A5"/>
<path d="M75.0701 62.53H68.8201V68.78H75.0701V62.53Z" fill="#A5A5A5"/>
<path d="M68.8201 62.53H62.5701V68.78H68.8201V62.53Z" fill="#D6D6D6"/>
<path d="M81.3201 68.78H75.0701V75.03H81.3201V68.78Z" fill="#A5A5A5"/>
<path d="M75.0701 68.78H68.8201V75.03H75.0701V68.78Z" fill="#D6D6D6"/>
<path d="M68.8201 68.78H62.5701V75.03H68.8201V68.78Z" fill="#A5A5A5"/>
<path d="M81.3201 75.03H75.0701V81.28H81.3201V75.03Z" fill="#D6D6D6"/>
<path d="M75.0701 75.03H68.8201V81.28H75.0701V75.03Z" fill="#A5A5A5"/>
<path d="M68.8201 75.03H62.5701V81.28H68.8201V75.03Z" fill="#A5A5A5"/>
<path d="M81.3201 81.28H75.0701V87.53H81.3201V81.28Z" fill="#A5A5A5"/>
<path d="M75.0701 81.28H68.8201V87.53H75.0701V81.28Z" fill="#A5A5A5"/>
<path d="M68.8201 81.28H62.5701V87.53H68.8201V81.28Z" fill="#A5A5A5"/>
<path d="M81.3201 87.53H75.0701V93.78H81.3201V87.53Z" fill="#A5A5A5"/>
<path d="M75.0701 87.53H68.8201V93.78H75.0701V87.53Z" fill="#A5A5A5"/>
<path d="M68.8201 87.53H62.5701V93.78H68.8201V87.53Z" fill="#A5A5A5"/>
<path d="M81.3201 93.78H75.0701V100.03H81.3201V93.78Z" fill="#A5A5A5"/>
<path d="M75.0701 93.78H68.8201V100.03H75.0701V93.78Z" fill="#A5A5A5"/>
<path d="M68.8201 93.78H62.5701V100.03H68.8201V93.78Z" fill="#A5A5A5"/>
<path d="M81.3201 100.03H75.0701V106.28H81.3201V100.03Z" fill="#A5A5A5"/>
<path d="M75.0701 100.03H68.8201V106.28H75.0701V100.03Z" fill="#A5A5A5"/>
<path d="M68.8201 100.03H62.5701V106.28H68.8201V100.03Z" fill="#A5A5A5"/>
<path d="M62.5701 62.53H56.3201V68.78H62.5701V62.53Z" fill="#A5A5A5"/>
<path d="M56.3201 62.53H50.0701V68.78H56.3201V62.53Z" fill="#A5A5A5"/>
<path d="M50.0701 62.53H43.8201V68.78H50.0701V62.53Z" fill="#A5A5A5"/>
<path d="M62.5701 68.78H56.3201V75.03H62.5701V68.78Z" fill="#A5A5A5"/>
<path d="M56.3201 68.78H50.0701V75.03H56.3201V68.78Z" fill="#A5A5A5"/>
<path d="M50.0701 68.78H43.8201V75.03H50.0701V68.78Z" fill="#A5A5A5"/>
<path d="M62.5701 75.03H56.3201V81.28H62.5701V75.03Z" fill="#A5A5A5"/>
<path d="M56.3201 75.03H50.0701V81.28H56.3201V75.03Z" fill="#A5A5A5"/>
<path d="M50.0701 75.03H43.8201V81.28H50.0701V75.03Z" fill="#A5A5A5"/>
<path d="M62.5701 81.28H56.3201V87.53H62.5701V81.28Z" fill="#A5A5A5"/>
<path d="M56.3201 81.28H50.0701V87.53H56.3201V81.28Z" fill="#A5A5A5"/>
<path d="M50.0701 81.28H43.8201V87.53H50.0701V81.28Z" fill="#A5A5A5"/>
<path d="M62.5701 87.53H56.3201V93.78H62.5701V87.53Z" fill="#A5A5A5"/>
<path d="M56.3201 87.53H50.0701V93.78H56.3201V87.53Z" fill="#A5A5A5"/>
<path d="M50.0701 87.53H43.8201V93.78H50.0701V87.53Z" fill="#A5A5A5"/>
<path d="M62.5701 93.78H56.3201V100.03H62.5701V93.78Z" fill="#A5A5A5"/>
<path d="M56.3201 93.78H50.0701V100.03H56.3201V93.78Z" fill="#A5A5A5"/>
<path d="M50.0701 93.78H43.8201V100.03H50.0701V93.78Z" fill="#A5A5A5"/>
<path d="M62.5701 100.03H56.3201V106.28H62.5701V100.03Z" fill="#A5A5A5"/>
<path d="M56.3201 100.03H50.0701V106.28H56.3201V100.03Z" fill="#A5A5A5"/>
<path d="M50.0701 100.03H43.8201V106.28H50.0701V100.03Z" fill="#A5A5A5"/>
<path d="M43.8201 62.53H37.5701V68.78H43.8201V62.53Z" fill="#A5A5A5"/>
<path d="M37.5601 62.53H31.3101V68.78H37.5601V62.53Z" fill="#A5A5A5"/>
<path d="M43.8201 68.78H37.5701V75.03H43.8201V68.78Z" fill="#A5A5A5"/>
<path d="M37.5601 68.78H31.3101V75.03H37.5601V68.78Z" fill="#A5A5A5"/>
<path d="M43.8201 75.03H37.5701V81.28H43.8201V75.03Z" fill="#A5A5A5"/>
<path d="M37.5601 75.03H31.3101V81.28H37.5601V75.03Z" fill="#A5A5A5"/>
<path d="M43.8201 81.28H37.5701V87.53H43.8201V81.28Z" fill="#A5A5A5"/>
<path d="M37.5601 81.28H31.3101V87.53H37.5601V81.28Z" fill="#A5A5A5"/>
<path d="M43.8201 87.53H37.5701V93.78H43.8201V87.53Z" fill="#A5A5A5"/>
<path d="M37.5601 87.53H31.3101V93.78H37.5601V87.53Z" fill="#A5A5A5"/>
<path d="M43.8201 93.78H37.5701V100.03H43.8201V93.78Z" fill="#A5A5A5"/>
<path d="M37.5601 93.78H31.3101V100.03H37.5601V93.78Z" fill="#A5A5A5"/>
<path d="M43.8201 100.03H37.5701V106.28H43.8201V100.03Z" fill="#A5A5A5"/>
<path d="M37.5601 100.03H31.3101V106.28H37.5601V100.03Z" fill="#A5A5A5"/>
<path d="M100.07 56.28H93.8201V62.53H100.07V56.28Z" fill="#D6D6D6"/>
<path d="M93.8201 56.28H87.5701V62.53H93.8201V56.28Z" fill="#D6D6D6"/>
<path d="M87.5701 56.28H81.3201V62.53H87.5701V56.28Z" fill="#D6D6D6"/>
<path d="M81.3201 56.28H75.0701V62.53H81.3201V56.28Z" fill="#A5A5A5"/>
<path d="M75.0701 56.28H68.8201V62.53H75.0701V56.28Z" fill="#A5A5A5"/>
<path d="M68.8201 56.28H62.5701V62.53H68.8201V56.28Z" fill="#A5A5A5"/>
<path d="M62.5701 56.28H56.3201V62.53H62.5701V56.28Z" fill="#D6D6D6"/>
<path d="M56.3201 56.28H50.0701V62.53H56.3201V56.28Z" fill="#A5A5A5"/>
<path d="M50.0701 56.28H43.8201V62.53H50.0701V56.28Z" fill="#A5A5A5"/>
<path d="M43.8201 56.28H37.5701V62.53H43.8201V56.28Z" fill="#A5A5A5"/>
<path d="M37.5601 56.28H31.3101V62.53H37.5601V56.28Z" fill="#A5A5A5"/>
<path d="M31.3101 56.28H25.0601V62.53H31.3101V56.28Z" fill="#808080"/>
<path d="M25.0601 56.28H18.8101V62.53H25.0601V56.28Z" fill="#808080"/>
<path d="M18.8101 56.28H12.5601V62.53H18.8101V56.28Z" fill="#808080"/>
<path d="M12.5601 56.28H6.31006V62.53H12.5601V56.28Z" fill="#808080"/>
<path d="M6.31006 56.28H0.0600586V62.53H6.31006V56.28Z" fill="#4C4C4C"/>
<path d="M31.3101 62.53H25.0601V68.78H31.3101V62.53Z" fill="#808080"/>
<path d="M25.0601 62.53H18.8101V68.78H25.0601V62.53Z" fill="#808080"/>
<path d="M18.8101 62.53H12.5601V68.78H18.8101V62.53Z" fill="#808080"/>
<path d="M12.5601 62.53H6.31006V68.78H12.5601V62.53Z" fill="#808080"/>
<path d="M6.31006 62.53H0.0600586V68.78H6.31006V62.53Z" fill="#4C4C4C"/>
<path d="M31.3101 68.78H25.0601V75.03H31.3101V68.78Z" fill="#808080"/>
<path d="M25.0601 68.78H18.8101V75.03H25.0601V68.78Z" fill="#808080"/>
<path d="M18.8101 68.78H12.5601V75.03H18.8101V68.78Z" fill="#808080"/>
<path d="M12.5601 68.78H6.31006V75.03H12.5601V68.78Z" fill="#808080"/>
<path d="M6.31006 68.78H0.0600586V75.03H6.31006V68.78Z" fill="#4C4C4C"/>
<path d="M31.3101 75.03H25.0601V81.28H31.3101V75.03Z" fill="#808080"/>
<path d="M25.0601 75.03H18.8101V81.28H25.0601V75.03Z" fill="#808080"/>
<path d="M18.8101 75.03H12.5601V81.28H18.8101V75.03Z" fill="#808080"/>
<path d="M12.5601 75.03H6.31006V81.28H12.5601V75.03Z" fill="#808080"/>
<path d="M6.31006 75.03H0.0600586V81.28H6.31006V75.03Z" fill="#4C4C4C"/>
<path d="M31.3101 81.28H25.0601V87.53H31.3101V81.28Z" fill="#808080"/>
<path d="M25.0601 81.28H18.8101V87.53H25.0601V81.28Z" fill="#808080"/>
<path d="M18.8101 81.28H12.5601V87.53H18.8101V81.28Z" fill="#808080"/>
<path d="M12.5601 81.28H6.31006V87.53H12.5601V81.28Z" fill="#808080"/>
<path d="M6.31006 81.28H0.0600586V87.53H6.31006V81.28Z" fill="#4C4C4C"/>
<path d="M31.3101 87.53H25.0601V93.78H31.3101V87.53Z" fill="#808080"/>
<path d="M25.0601 87.53H18.8101V93.78H25.0601V87.53Z" fill="#808080"/>
<path d="M18.8101 87.53H12.5601V93.78H18.8101V87.53Z" fill="#808080"/>
<path d="M12.5601 87.53H6.31006V93.78H12.5601V87.53Z" fill="#808080"/>
<path d="M6.31006 87.53H0.0600586V93.78H6.31006V87.53Z" fill="#4C4C4C"/>
<path d="M31.3101 93.78H25.0601V100.03H31.3101V93.78Z" fill="#808080"/>
<path d="M25.0601 93.78H18.8101V100.03H25.0601V93.78Z" fill="#808080"/>
<path d="M18.8101 93.78H12.5601V100.03H18.8101V93.78Z" fill="#808080"/>
<path d="M12.5601 93.78H6.31006V100.03H12.5601V93.78Z" fill="#808080"/>
<path d="M6.31006 93.78H0.0600586V100.03H6.31006V93.78Z" fill="#4C4C4C"/>
<path d="M31.3101 100.03H25.0601V106.28H31.3101V100.03Z" fill="#808080"/>
<path d="M25.0601 100.03H18.8101V106.28H25.0601V100.03Z" fill="#808080"/>
<path d="M18.8101 100.03H12.5601V106.28H18.8101V100.03Z" fill="#808080"/>
<path d="M12.5601 100.03H6.31006V106.28H12.5601V100.03Z" fill="#808080"/>
<path d="M6.31006 100.03H0.0600586V106.28H6.31006V100.03Z" fill="#4C4C4C"/>
<path d="M150.08 106.28H143.83V112.53H150.08V106.28Z" fill="#4C4C4C"/>
<path d="M143.83 106.28H137.58V112.53H143.83V106.28Z" fill="#3D3D3D"/>
<path d="M137.58 106.28H131.33V112.53H137.58V106.28Z" fill="#3D3D3D"/>
<path d="M131.33 106.28H125.08V112.53H131.33V106.28Z" fill="#3D3D3D"/>
<path d="M125.08 106.28H118.83V112.53H125.08V106.28Z" fill="#3D3D3D"/>
<path d="M118.83 106.28H112.58V112.53H118.83V106.28Z" fill="#D6D6D6"/>
<path d="M112.57 106.28H106.32V112.53H112.57V106.28Z" fill="#D6D6D6"/>
<path d="M106.32 106.28H100.07V112.53H106.32V106.28Z" fill="#A5A5A5"/>
<path d="M100.07 106.28H93.8201V112.53H100.07V106.28Z" fill="#A5A5A5"/>
<path d="M93.8201 106.28H87.5701V112.53H93.8201V106.28Z" fill="#A5A5A5"/>
<path d="M87.5701 106.28H81.3201V112.53H87.5701V106.28Z" fill="#A5A5A5"/>
<path d="M81.3201 106.28H75.0701V112.53H81.3201V106.28Z" fill="#A5A5A5"/>
<path d="M75.0701 106.28H68.8201V112.53H75.0701V106.28Z" fill="#A5A5A5"/>
<path d="M68.8201 106.28H62.5701V112.53H68.8201V106.28Z" fill="#A5A5A5"/>
<path d="M62.5701 106.28H56.3201V112.53H62.5701V106.28Z" fill="#A5A5A5"/>
<path d="M56.3201 106.28H50.0701V112.53H56.3201V106.28Z" fill="#A5A5A5"/>
<path d="M50.0701 106.28H43.8201V112.53H50.0701V106.28Z" fill="#A5A5A5"/>
<path d="M43.8201 106.28H37.5701V112.53H43.8201V106.28Z" fill="#A5A5A5"/>
<path d="M37.5601 106.28H31.3101V112.53H37.5601V106.28Z" fill="#D6D6D6"/>
<path d="M31.3101 106.28H25.0601V112.53H31.3101V106.28Z" fill="#808080"/>
<path d="M25.0601 106.28H18.8101V112.53H25.0601V106.28Z" fill="#808080"/>
<path d="M18.8101 106.28H12.5601V112.53H18.8101V106.28Z" fill="#808080"/>
<path d="M12.5601 106.28H6.31006V112.53H12.5601V106.28Z" fill="#808080"/>
<path d="M6.31006 106.28H0.0600586V112.53H6.31006V106.28Z" fill="#4C4C4C"/>
<path d="M150.08 112.54H143.83V118.79H150.08V112.54Z" fill="#4C4C4C"/>
<path d="M143.83 112.54H137.58V118.79H143.83V112.54Z" fill="#3D3D3D"/>
<path d="M137.58 112.54H131.33V118.79H137.58V112.54Z" fill="#3D3D3D"/>
<path d="M131.33 112.54H125.08V118.79H131.33V112.54Z" fill="#3D3D3D"/>
<path d="M125.08 112.54H118.83V118.79H125.08V112.54Z" fill="#3D3D3D"/>
<path d="M118.83 112.54H112.58V118.79H118.83V112.54Z" fill="#808080"/>
<path d="M112.57 112.54H106.32V118.79H112.57V112.54Z" fill="#D6D6D6"/>
<path d="M106.32 112.54H100.07V118.79H106.32V112.54Z" fill="#D6D6D6"/>
<path d="M100.07 112.54H93.8201V118.79H100.07V112.54Z" fill="#D6D6D6"/>
<path d="M93.8201 112.54H87.5701V118.79H93.8201V112.54Z" fill="#D6D6D6"/>
<path d="M87.5701 112.54H81.3201V118.79H87.5701V112.54Z" fill="#D6D6D6"/>
<path d="M81.3201 112.54H75.0701V118.79H81.3201V112.54Z" fill="#D6D6D6"/>
<path d="M75.0701 112.54H68.8201V118.79H75.0701V112.54Z" fill="#D6D6D6"/>
<path d="M68.8201 112.54H62.5701V118.79H68.8201V112.54Z" fill="#D6D6D6"/>
<path d="M62.5701 112.54H56.3201V118.79H62.5701V112.54Z" fill="#D6D6D6"/>
<path d="M56.3201 112.54H50.0701V118.79H56.3201V112.54Z" fill="#D6D6D6"/>
<path d="M50.0701 112.54H43.8201V118.79H50.0701V112.54Z" fill="#D6D6D6"/>
<path d="M43.8201 112.54H37.5701V118.79H43.8201V112.54Z" fill="#D6D6D6"/>
<path d="M37.5601 112.54H31.3101V118.79H37.5601V112.54Z" fill="#A5A5A5"/>
<path d="M31.3101 112.54H25.0601V118.79H31.3101V112.54Z" fill="#808080"/>
<path d="M25.0601 112.54H18.8101V118.79H25.0601V112.54Z" fill="#808080"/>
<path d="M18.8101 112.54H12.5601V118.79H18.8101V112.54Z" fill="#808080"/>
<path d="M12.5601 112.54H6.31006V118.79H12.5601V112.54Z" fill="#808080"/>
<path d="M6.31006 112.54H0.0600586V118.79H6.31006V112.54Z" fill="#4C4C4C"/>
<path d="M150.08 118.79H143.83V125.04H150.08V118.79Z" fill="#4C4C4C"/>
<path d="M143.83 118.79H137.58V125.04H143.83V118.79Z" fill="#3D3D3D"/>
<path d="M137.58 118.79H131.33V125.04H137.58V118.79Z" fill="#3D3D3D"/>
<path d="M131.33 118.79H125.08V125.04H131.33V118.79Z" fill="#3D3D3D"/>
<path d="M125.08 118.79H118.83V125.04H125.08V118.79Z" fill="#808080"/>
<path d="M118.83 118.79H112.58V125.04H118.83V118.79Z" fill="#606060"/>
<path d="M112.57 118.79H106.32V125.04H112.57V118.79Z" fill="#606060"/>
<path d="M106.32 118.79H100.07V125.04H106.32V118.79Z" fill="#606060"/>
<path d="M100.07 118.79H93.8201V125.04H100.07V118.79Z" fill="#606060"/>
<path d="M93.8201 118.79H87.5701V125.04H93.8201V118.79Z" fill="#606060"/>
<path d="M87.5701 118.79H81.3201V125.04H87.5701V118.79Z" fill="#606060"/>
<path d="M81.3201 118.79H75.0701V125.04H81.3201V118.79Z" fill="#606060"/>
<path d="M75.0701 118.79H68.8201V125.04H75.0701V118.79Z" fill="#606060"/>
<path d="M68.8201 118.79H62.5701V125.04H68.8201V118.79Z" fill="#606060"/>
<path d="M62.5701 118.79H56.3201V125.04H62.5701V118.79Z" fill="#606060"/>
<path d="M56.3201 118.79H50.0701V125.04H56.3201V118.79Z" fill="#606060"/>
<path d="M50.0701 118.79H43.8201V125.04H50.0701V118.79Z" fill="#606060"/>
<path d="M43.8201 118.79H37.5701V125.04H43.8201V118.79Z" fill="#606060"/>
<path d="M37.5601 118.79H31.3101V125.04H37.5601V118.79Z" fill="#606060"/>
<path d="M31.3101 118.79H25.0601V125.04H31.3101V118.79Z" fill="#A5A5A5"/>
<path d="M25.0601 118.79H18.8101V125.04H25.0601V118.79Z" fill="#808080"/>
<path d="M18.8101 118.79H12.5601V125.04H18.8101V118.79Z" fill="#808080"/>
<path d="M12.5601 118.79H6.31006V125.04H12.5601V118.79Z" fill="#808080"/>
<path d="M6.31006 118.79H0.0600586V125.04H6.31006V118.79Z" fill="#4C4C4C"/>
<path d="M150.08 125.04H143.83V131.29H150.08V125.04Z" fill="#4C4C4C"/>
<path d="M143.83 125.04H137.58V131.29H143.83V125.04Z" fill="#3D3D3D"/>
<path d="M137.58 125.04H131.33V131.29H137.58V125.04Z" fill="#3D3D3D"/>
<path d="M131.33 125.04H125.08V131.29H131.33V125.04Z" fill="#808080"/>
<path d="M125.08 125.04H118.83V131.29H125.08V125.04Z" fill="#606060"/>
<path d="M118.83 125.04H112.58V131.29H118.83V125.04Z" fill="#606060"/>
<path d="M112.57 125.04H106.32V131.29H112.57V125.04Z" fill="#606060"/>
<path d="M106.32 125.04H100.07V131.29H106.32V125.04Z" fill="#606060"/>
<path d="M100.07 125.04H93.8201V131.29H100.07V125.04Z" fill="#606060"/>
<path d="M93.8201 125.04H87.5701V131.29H93.8201V125.04Z" fill="#606060"/>
<path d="M87.5701 125.04H81.3201V131.29H87.5701V125.04Z" fill="#606060"/>
<path d="M81.3201 125.04H75.0701V131.29H81.3201V125.04Z" fill="#606060"/>
<path d="M75.0701 125.04H68.8201V131.29H75.0701V125.04Z" fill="#606060"/>
<path d="M68.8201 125.04H62.5701V131.29H68.8201V125.04Z" fill="#606060"/>
<path d="M62.5701 125.04H56.3201V131.29H62.5701V125.04Z" fill="#606060"/>
<path d="M56.3201 125.04H50.0701V131.29H56.3201V125.04Z" fill="#606060"/>
<path d="M50.0701 125.04H43.8201V131.29H50.0701V125.04Z" fill="#606060"/>
<path d="M43.8201 125.04H37.5701V131.29H43.8201V125.04Z" fill="#606060"/>
<path d="M37.5601 125.04H31.3101V131.29H37.5601V125.04Z" fill="#606060"/>
<path d="M31.3101 125.04H25.0601V131.29H31.3101V125.04Z" fill="#606060"/>
<path d="M25.0601 125.04H18.8101V131.29H25.0601V125.04Z" fill="#A5A5A5"/>
<path d="M18.8101 125.04H12.5601V131.29H18.8101V125.04Z" fill="#808080"/>
<path d="M12.5601 125.04H6.31006V131.29H12.5601V125.04Z" fill="#808080"/>
<path d="M6.31006 125.04H0.0600586V131.29H6.31006V125.04Z" fill="#4C4C4C"/>
<path d="M150.08 131.29H143.83V137.54H150.08V131.29Z" fill="#4C4C4C"/>
<path d="M143.83 131.29H137.58V137.54H143.83V131.29Z" fill="#3D3D3D"/>
<path d="M137.58 131.29H131.33V137.54H137.58V131.29Z" fill="#808080"/>
<path d="M131.33 131.29H125.08V137.54H131.33V131.29Z" fill="#606060"/>
<path d="M125.08 131.29H118.83V137.54H125.08V131.29Z" fill="#606060"/>
<path d="M118.83 131.29H112.58V137.54H118.83V131.29Z" fill="#606060"/>
<path d="M112.57 131.29H106.32V137.54H112.57V131.29Z" fill="#606060"/>
<path d="M106.32 131.29H100.07V137.54H106.32V131.29Z" fill="#606060"/>
<path d="M100.07 131.29H93.8201V137.54H100.07V131.29Z" fill="#606060"/>
<path d="M93.8201 131.29H87.5701V137.54H93.8201V131.29Z" fill="#606060"/>
<path d="M87.5701 131.29H81.3201V137.54H87.5701V131.29Z" fill="#606060"/>
<path d="M81.3201 131.29H75.0701V137.54H81.3201V131.29Z" fill="#606060"/>
<path d="M75.0701 131.29H68.8201V137.54H75.0701V131.29Z" fill="#606060"/>
<path d="M68.8201 131.29H62.5701V137.54H68.8201V131.29Z" fill="#606060"/>
<path d="M62.5701 131.29H56.3201V137.54H62.5701V131.29Z" fill="#606060"/>
<path d="M56.3201 131.29H50.0701V137.54H56.3201V131.29Z" fill="#606060"/>
<path d="M50.0701 131.29H43.8201V137.54H50.0701V131.29Z" fill="#606060"/>
<path d="M43.8201 131.29H37.5701V137.54H43.8201V131.29Z" fill="#606060"/>
<path d="M37.5601 131.29H31.3101V137.54H37.5601V131.29Z" fill="#606060"/>
<path d="M31.3101 131.29H25.0601V137.54H31.3101V131.29Z" fill="#606060"/>
<path d="M25.0601 131.29H18.8101V137.54H25.0601V131.29Z" fill="#606060"/>
<path d="M18.8101 131.29H12.5601V137.54H18.8101V131.29Z" fill="#A5A5A5"/>
<path d="M12.5601 131.29H6.31006V137.54H12.5601V131.29Z" fill="#808080"/>
<path d="M6.31006 131.29H0.0600586V137.54H6.31006V131.29Z" fill="#4C4C4C"/>
<path d="M143.83 137.54H137.58V143.79H143.83V137.54Z" fill="#4C4C4C"/>
<path d="M137.58 137.54H131.33V143.79H137.58V137.54Z" fill="#606060"/>
<path d="M131.33 137.54H125.08V143.79H131.33V137.54Z" fill="#606060"/>
<path d="M125.08 137.54H118.83V143.79H125.08V137.54Z" fill="#606060"/>
<path d="M118.83 137.54H112.58V143.79H118.83V137.54Z" fill="#606060"/>
<path d="M112.57 137.54H106.32V143.79H112.57V137.54Z" fill="#606060"/>
<path d="M106.32 137.54H100.07V143.79H106.32V137.54Z" fill="#606060"/>
<path d="M100.07 137.54H93.8201V143.79H100.07V137.54Z" fill="#606060"/>
<path d="M93.8201 137.54H87.5701V143.79H93.8201V137.54Z" fill="#606060"/>
<path d="M87.5701 137.54H81.3201V143.79H87.5701V137.54Z" fill="#606060"/>
<path d="M81.3201 137.54H75.0701V143.79H81.3201V137.54Z" fill="#606060"/>
<path d="M75.0701 137.54H68.8201V143.79H75.0701V137.54Z" fill="#606060"/>
<path d="M68.8201 137.54H62.5701V143.79H68.8201V137.54Z" fill="#606060"/>
<path d="M62.5701 137.54H56.3201V143.79H62.5701V137.54Z" fill="#606060"/>
<path d="M56.3201 137.54H50.0701V143.79H56.3201V137.54Z" fill="#606060"/>
<path d="M50.0701 137.54H43.8201V143.79H50.0701V137.54Z" fill="#606060"/>
<path d="M43.8201 137.54H37.5701V143.79H43.8201V137.54Z" fill="#606060"/>
<path d="M37.5601 137.54H31.3101V143.79H37.5601V137.54Z" fill="#606060"/>
<path d="M31.3101 137.54H25.0601V143.79H31.3101V137.54Z" fill="#606060"/>
<path d="M25.0601 137.54H18.8101V143.79H25.0601V137.54Z" fill="#606060"/>
<path d="M18.8101 137.54H12.5601V143.79H18.8101V137.54Z" fill="#606060"/>
<path d="M12.5601 137.54H6.31006V143.79H12.5601V137.54Z" fill="#4C4C4C"/>
<path d="M137.58 143.79H131.33V150.04H137.58V143.79Z" fill="#4C4C4C"/>
<path d="M131.33 143.79H125.08V150.04H131.33V143.79Z" fill="#4C4C4C"/>
<path d="M125.08 143.79H118.83V150.04H125.08V143.79Z" fill="#4C4C4C"/>
<path d="M118.83 143.79H112.58V150.04H118.83V143.79Z" fill="#4C4C4C"/>
<path d="M112.57 143.79H106.32V150.04H112.57V143.79Z" fill="#4C4C4C"/>
<path d="M106.32 143.79H100.07V150.04H106.32V143.79Z" fill="#4C4C4C"/>
<path d="M100.07 143.79H93.8201V150.04H100.07V143.79Z" fill="#4C4C4C"/>
<path d="M93.8201 143.79H87.5701V150.04H93.8201V143.79Z" fill="#4C4C4C"/>
<path d="M87.5701 143.79H81.3201V150.04H87.5701V143.79Z" fill="#4C4C4C"/>
<path d="M81.3201 143.79H75.0701V150.04H81.3201V143.79Z" fill="#4C4C4C"/>
<path d="M75.0701 143.79H68.8201V150.04H75.0701V143.79Z" fill="#4C4C4C"/>
<path d="M68.8201 143.79H62.5701V150.04H68.8201V143.79Z" fill="#4C4C4C"/>
<path d="M62.5701 143.79H56.3201V150.04H62.5701V143.79Z" fill="#4C4C4C"/>
<path d="M56.3201 143.79H50.0701V150.04H56.3201V143.79Z" fill="#4C4C4C"/>
<path d="M50.0701 143.79H43.8201V150.04H50.0701V143.79Z" fill="#4C4C4C"/>
<path d="M43.8201 143.79H37.5701V150.04H43.8201V143.79Z" fill="#4C4C4C"/>
<path d="M37.5601 143.79H31.3101V150.04H37.5601V143.79Z" fill="#4C4C4C"/>
<path d="M31.3101 143.79H25.0601V150.04H31.3101V143.79Z" fill="#4C4C4C"/>
<path d="M25.0601 143.79H18.8101V150.04H25.0601V143.79Z" fill="#4C4C4C"/>
<path d="M18.8101 143.79H12.5601V150.04H18.8101V143.79Z" fill="#4C4C4C"/>
<path d="M53.1901 81.27V68.78H59.4401V62.52H65.7001V56.27H71.9501V50.02H78.2001V43.76H84.4601V37.51H53.2001V31.26H96.9501V43.75H90.7001V50.01H84.4501V56.26H78.1901V62.51H71.9401V68.77H65.6901V75.02H96.9401V81.27H53.1901Z" fill="#E5E5E5"/>
<path d="M53.1901 93.78V81.29H59.4401V75.03H65.7001V68.78H71.9501V62.53H78.2001V56.27H84.4601V50.02H53.2001V43.77H96.9501V56.26H90.7001V62.52H84.4501V68.77H78.1901V75.02H71.9401V81.28H65.6901V87.53H96.9401V93.78H53.1901Z" fill="#808080"/>
<path d="M53.1901 87.53V75.04H59.4401V68.78H65.7001V62.53H71.9501V56.28H78.2001V50.02H84.4601V43.77H53.2001V37.52H96.9501V50.01H90.7001V56.27H84.4501V62.52H78.1901V68.77H71.9401V75.03H65.6901V81.28H96.9401V87.53H53.1901Z" fill="#282828"/>
<g style="mix-blend-mode:color">
<path d="M12.5601 0V6.25H6.31006V12.5H0.0600586V137.52H6.31006V143.77H12.5601V150.02H37.5601V150H37.5701V150.02H112.57V150H112.58V150.02H137.58V143.77H143.83V137.52H150.08V112.52H150.06V112.51H150.08V37.51H150.06V37.5H150.08V12.5H143.83V6.25H137.58V0H12.5601Z" fill="#7DC4C8"/>
</g>
</g>
<defs>
<clipPath id="clip0_3_42165">
<rect width="150.02" height="150.02" fill="white" transform="translate(0.0600586 0.0200195)"/>
</clipPath>
</defs>
</svg>
