<svg width="151" height="151" viewBox="0 0 151 151" fill="none" xmlns="http://www.w3.org/2000/svg">
<g clip-path="url(#clip0_3_11155)">
<path d="M12.5601 0V6.25H6.31006V12.5H0.0600586V137.52H6.31006V143.77H12.5601V150.02H37.5601V150H37.5701V150.02H112.57V150H112.58V150.02H137.58V143.77H143.83V137.52H150.08V112.52H150.06V112.51H150.08V37.51H150.06V37.5H150.08V12.5H143.83V6.25H137.58V0H12.5601Z" fill="#4C4C4C"/>
<path d="M137.58 0H131.33V6.25H137.58V0Z" fill="#4C4C4C"/>
<path d="M131.33 0H125.08V6.25H131.33V0Z" fill="#4C4C4C"/>
<path d="M125.08 0H118.83V6.25H125.08V0Z" fill="#4C4C4C"/>
<path d="M118.83 0H112.58V6.25H118.83V0Z" fill="#4C4C4C"/>
<path d="M112.57 0H106.32V6.25H112.57V0Z" fill="#4C4C4C"/>
<path d="M106.32 0H100.07V6.25H106.32V0Z" fill="#4C4C4C"/>
<path d="M100.07 0H93.8201V6.25H100.07V0Z" fill="#4C4C4C"/>
<path d="M93.8201 0H87.5701V6.25H93.8201V0Z" fill="#4C4C4C"/>
<path d="M87.5701 0H81.3201V6.25H87.5701V0Z" fill="#4C4C4C"/>
<path d="M81.3201 0H75.0701V6.25H81.3201V0Z" fill="#4C4C4C"/>
<path d="M75.0701 0H68.8201V6.25H75.0701V0Z" fill="#4C4C4C"/>
<path d="M68.8201 0H62.5701V6.25H68.8201V0Z" fill="#4C4C4C"/>
<path d="M62.5701 0H56.3201V6.25H62.5701V0Z" fill="#4C4C4C"/>
<path d="M56.3201 0H50.0701V6.25H56.3201V0Z" fill="#4C4C4C"/>
<path d="M50.0701 0H43.8201V6.25H50.0701V0Z" fill="#4C4C4C"/>
<path d="M43.8201 0H37.5701V6.25H43.8201V0Z" fill="#4C4C4C"/>
<path d="M37.5601 0H31.3101V6.25H37.5601V0Z" fill="#4C4C4C"/>
<path d="M31.3101 0H25.0601V6.25H31.3101V0Z" fill="#4C4C4C"/>
<path d="M25.0601 0H18.8101V6.25H25.0601V0Z" fill="#4C4C4C"/>
<path d="M18.8101 0H12.5601V6.25H18.8101V0Z" fill="#4C4C4C"/>
<path d="M143.83 6.25H137.58V12.5H143.83V6.25Z" fill="#4C4C4C"/>
<path d="M137.58 6.25H131.33V12.5H137.58V6.25Z" fill="#3D3D3D"/>
<path d="M131.33 6.25H125.08V12.5H131.33V6.25Z" fill="#3D3D3D"/>
<path d="M125.08 6.25H118.83V12.5H125.08V6.25Z" fill="#3D3D3D"/>
<path d="M118.83 6.25H112.58V12.5H118.83V6.25Z" fill="#3D3D3D"/>
<path d="M112.57 6.25H106.32V12.5H112.57V6.25Z" fill="#D6D6D6"/>
<path d="M106.32 6.25H100.07V12.5H106.32V6.25Z" fill="#A5A5A5"/>
<path d="M100.07 6.25H93.8201V12.5H100.07V6.25Z" fill="#A5A5A5"/>
<path d="M93.8201 6.25H87.5701V12.5H93.8201V6.25Z" fill="#A5A5A5"/>
<path d="M87.5701 6.25H81.3201V12.5H87.5701V6.25Z" fill="#A5A5A5"/>
<path d="M81.3201 6.25H75.0701V12.5H81.3201V6.25Z" fill="#A5A5A5"/>
<path d="M75.0701 6.25H68.8201V12.5H75.0701V6.25Z" fill="#A5A5A5"/>
<path d="M68.8201 6.25H62.5701V12.5H68.8201V6.25Z" fill="#A5A5A5"/>
<path d="M62.5701 6.25H56.3201V12.5H62.5701V6.25Z" fill="#A5A5A5"/>
<path d="M56.3201 6.25H50.0701V12.5H56.3201V6.25Z" fill="#A5A5A5"/>
<path d="M50.0701 6.25H43.8201V12.5H50.0701V6.25Z" fill="#D6D6D6"/>
<path d="M43.8201 6.25H37.5701V12.5H43.8201V6.25Z" fill="#D6D6D6"/>
<path d="M37.5601 6.25H31.3101V12.5H37.5601V6.25Z" fill="#808080"/>
<path d="M31.3101 6.25H25.0601V12.5H31.3101V6.25Z" fill="#808080"/>
<path d="M25.0601 6.25H18.8101V12.5H25.0601V6.25Z" fill="#808080"/>
<path d="M18.8101 6.25H12.5601V12.5H18.8101V6.25Z" fill="#808080"/>
<path d="M12.5601 6.25H6.31006V12.5H12.5601V6.25Z" fill="#4C4C4C"/>
<path d="M150.08 12.5H143.83V18.75H150.08V12.5Z" fill="#4C4C4C"/>
<path d="M143.83 12.5H137.58V18.75H143.83V12.5Z" fill="#3D3D3D"/>
<path d="M137.58 12.5H131.33V18.75H137.58V12.5Z" fill="#3D3D3D"/>
<path d="M131.33 12.5H125.08V18.75H131.33V12.5Z" fill="#3D3D3D"/>
<path d="M125.08 12.5H118.83V18.75H125.08V12.5Z" fill="#3D3D3D"/>
<path d="M118.83 12.5H112.58V18.75H118.83V12.5Z" fill="#D6D6D6"/>
<path d="M112.57 12.5H106.32V18.75H112.57V12.5Z" fill="#A5A5A5"/>
<path d="M106.32 12.5H100.07V18.75H106.32V12.5Z" fill="#A5A5A5"/>
<path d="M100.07 12.5H93.8201V18.75H100.07V12.5Z" fill="#A5A5A5"/>
<path d="M93.8201 12.5H87.5701V18.75H93.8201V12.5Z" fill="#A5A5A5"/>
<path d="M87.5701 12.5H81.3201V18.75H87.5701V12.5Z" fill="#A5A5A5"/>
<path d="M81.3201 12.5H75.0701V18.75H81.3201V12.5Z" fill="#A5A5A5"/>
<path d="M75.0701 12.5H68.8201V18.75H75.0701V12.5Z" fill="#A5A5A5"/>
<path d="M68.8201 12.5H62.5701V18.75H68.8201V12.5Z" fill="#A5A5A5"/>
<path d="M62.5701 12.5H56.3201V18.75H62.5701V12.5Z" fill="#A5A5A5"/>
<path d="M56.3201 12.5H50.0701V18.75H56.3201V12.5Z" fill="#D6D6D6"/>
<path d="M50.0701 12.5H43.8201V18.75H50.0701V12.5Z" fill="#D6D6D6"/>
<path d="M43.8201 12.5H37.5701V18.75H43.8201V12.5Z" fill="#D6D6D6"/>
<path d="M37.5601 12.5H31.3101V18.75H37.5601V12.5Z" fill="#A5A5A5"/>
<path d="M31.3101 12.5H25.0601V18.75H31.3101V12.5Z" fill="#808080"/>
<path d="M25.0601 12.5H18.8101V18.75H25.0601V12.5Z" fill="#808080"/>
<path d="M18.8101 12.5H12.5601V18.75H18.8101V12.5Z" fill="#808080"/>
<path d="M12.5601 12.5H6.31006V18.75H12.5601V12.5Z" fill="#808080"/>
<path d="M6.31006 12.5H0.0600586V18.75H6.31006V12.5Z" fill="#4C4C4C"/>
<path d="M150.08 18.75H143.83V25H150.08V18.75Z" fill="#4C4C4C"/>
<path d="M143.83 18.75H137.58V25H143.83V18.75Z" fill="#3D3D3D"/>
<path d="M137.58 18.75H131.33V25H137.58V18.75Z" fill="#3D3D3D"/>
<path d="M131.33 18.75H125.08V25H131.33V18.75Z" fill="#3D3D3D"/>
<path d="M125.08 18.75H118.83V25H125.08V18.75Z" fill="#3D3D3D"/>
<path d="M118.83 18.75H112.58V25H118.83V18.75Z" fill="#A5A5A5"/>
<path d="M112.57 18.75H106.32V25H112.57V18.75Z" fill="#A5A5A5"/>
<path d="M106.32 18.75H100.07V25H106.32V18.75Z" fill="#A5A5A5"/>
<path d="M100.07 18.75H93.8201V25H100.07V18.75Z" fill="#A5A5A5"/>
<path d="M93.8201 18.75H87.5701V25H93.8201V18.75Z" fill="#A5A5A5"/>
<path d="M87.5701 18.75H81.3201V25H87.5701V18.75Z" fill="#A5A5A5"/>
<path d="M81.3201 18.75H75.0701V25H81.3201V18.75Z" fill="#A5A5A5"/>
<path d="M75.0701 18.75H68.8201V25H75.0701V18.75Z" fill="#A5A5A5"/>
<path d="M68.8201 18.75H62.5701V25H68.8201V18.75Z" fill="#A5A5A5"/>
<path d="M62.5701 18.75H56.3201V25H62.5701V18.75Z" fill="#D6D6D6"/>
<path d="M56.3201 18.75H50.0701V25H56.3201V18.75Z" fill="#D6D6D6"/>
<path d="M50.0701 18.75H43.8201V25H50.0701V18.75Z" fill="#D6D6D6"/>
<path d="M43.8201 18.75H37.5701V25H43.8201V18.75Z" fill="#A5A5A5"/>
<path d="M37.5601 18.75H31.3101V25H37.5601V18.75Z" fill="#A5A5A5"/>
<path d="M31.3101 18.75H25.0601V25H31.3101V18.75Z" fill="#808080"/>
<path d="M25.0601 18.75H18.8101V25H25.0601V18.75Z" fill="#808080"/>
<path d="M18.8101 18.75H12.5601V25H18.8101V18.75Z" fill="#808080"/>
<path d="M12.5601 18.75H6.31006V25H12.5601V18.75Z" fill="#808080"/>
<path d="M6.31006 18.75H0.0600586V25H6.31006V18.75Z" fill="#4C4C4C"/>
<path d="M150.08 25H143.83V31.25H150.08V25Z" fill="#4C4C4C"/>
<path d="M143.83 25H137.58V31.25H143.83V25Z" fill="#3D3D3D"/>
<path d="M137.58 25H131.33V31.25H137.58V25Z" fill="#3D3D3D"/>
<path d="M131.33 25H125.08V31.25H131.33V25Z" fill="#3D3D3D"/>
<path d="M125.08 25H118.83V31.25H125.08V25Z" fill="#3D3D3D"/>
<path d="M118.83 25H112.58V31.25H118.83V25Z" fill="#A5A5A5"/>
<path d="M112.57 25H106.32V31.25H112.57V25Z" fill="#A5A5A5"/>
<path d="M106.32 25H100.07V31.25H106.32V25Z" fill="#A5A5A5"/>
<path d="M100.07 25H93.8201V31.25H100.07V25Z" fill="#A5A5A5"/>
<path d="M93.8201 25H87.5701V31.25H93.8201V25Z" fill="#A5A5A5"/>
<path d="M87.5701 25H81.3201V31.25H87.5701V25Z" fill="#A5A5A5"/>
<path d="M81.3201 25H75.0701V31.25H81.3201V25Z" fill="#A5A5A5"/>
<path d="M75.0701 25H68.8201V31.25H75.0701V25Z" fill="#A5A5A5"/>
<path d="M68.8201 25H62.5701V31.25H68.8201V25Z" fill="#D6D6D6"/>
<path d="M62.5701 25H56.3201V31.25H62.5701V25Z" fill="#D6D6D6"/>
<path d="M56.3201 25H50.0701V31.25H56.3201V25Z" fill="#D6D6D6"/>
<path d="M50.0701 25H43.8201V31.25H50.0701V25Z" fill="#A5A5A5"/>
<path d="M43.8201 25H37.5701V31.25H43.8201V25Z" fill="#A5A5A5"/>
<path d="M37.5601 25H31.3101V31.25H37.5601V25Z" fill="#A5A5A5"/>
<path d="M31.3101 25H25.0601V31.25H31.3101V25Z" fill="#808080"/>
<path d="M25.0601 25H18.8101V31.25H25.0601V25Z" fill="#808080"/>
<path d="M18.8101 25H12.5601V31.25H18.8101V25Z" fill="#808080"/>
<path d="M12.5601 25H6.31006V31.25H12.5601V25Z" fill="#808080"/>
<path d="M6.31006 25H0.0600586V31.25H6.31006V25Z" fill="#4C4C4C"/>
<path d="M150.08 31.25H143.83V37.5H150.08V31.25Z" fill="#4C4C4C"/>
<path d="M143.83 31.25H137.58V37.5H143.83V31.25Z" fill="#3D3D3D"/>
<path d="M137.58 31.25H131.33V37.5H137.58V31.25Z" fill="#3D3D3D"/>
<path d="M131.33 31.25H125.08V37.5H131.33V31.25Z" fill="#3D3D3D"/>
<path d="M125.08 31.25H118.83V37.5H125.08V31.25Z" fill="#3D3D3D"/>
<path d="M118.83 31.25H112.58V37.5H118.83V31.25Z" fill="#A5A5A5"/>
<path d="M112.57 31.25H106.32V37.5H112.57V31.25Z" fill="#A5A5A5"/>
<path d="M106.32 31.25H100.07V37.5H106.32V31.25Z" fill="#A5A5A5"/>
<path d="M100.07 31.25H93.8201V37.5H100.07V31.25Z" fill="#A5A5A5"/>
<path d="M93.8201 31.25H87.5701V37.5H93.8201V31.25Z" fill="#A5A5A5"/>
<path d="M87.5701 31.25H81.3201V37.5H87.5701V31.25Z" fill="#A5A5A5"/>
<path d="M81.3201 31.25H75.0701V37.5H81.3201V31.25Z" fill="#A5A5A5"/>
<path d="M75.0701 31.25H68.8201V37.5H75.0701V31.25Z" fill="#D6D6D6"/>
<path d="M68.8201 31.25H62.5701V37.5H68.8201V31.25Z" fill="#D6D6D6"/>
<path d="M62.5701 31.25H56.3201V37.5H62.5701V31.25Z" fill="#D6D6D6"/>
<path d="M56.3201 31.25H50.0701V37.5H56.3201V31.25Z" fill="#A5A5A5"/>
<path d="M50.0701 31.25H43.8201V37.5H50.0701V31.25Z" fill="#A5A5A5"/>
<path d="M43.8201 31.25H37.5701V37.5H43.8201V31.25Z" fill="#A5A5A5"/>
<path d="M37.5601 31.25H31.3101V37.5H37.5601V31.25Z" fill="#D6D6D6"/>
<path d="M31.3101 31.25H25.0601V37.5H31.3101V31.25Z" fill="#808080"/>
<path d="M25.0601 31.25H18.8101V37.5H25.0601V31.25Z" fill="#808080"/>
<path d="M18.8101 31.25H12.5601V37.5H18.8101V31.25Z" fill="#808080"/>
<path d="M12.5601 31.25H6.31006V37.5H12.5601V31.25Z" fill="#808080"/>
<path d="M6.31006 31.25H0.0600586V37.5H6.31006V31.25Z" fill="#4C4C4C"/>
<path d="M150.08 37.51H143.83V43.76H150.08V37.51Z" fill="#4C4C4C"/>
<path d="M143.83 37.51H137.58V43.76H143.83V37.51Z" fill="#3D3D3D"/>
<path d="M137.58 37.51H131.33V43.76H137.58V37.51Z" fill="#3D3D3D"/>
<path d="M131.33 37.51H125.08V43.76H131.33V37.51Z" fill="#3D3D3D"/>
<path d="M125.08 37.51H118.83V43.76H125.08V37.51Z" fill="#3D3D3D"/>
<path d="M118.83 37.51H112.58V43.76H118.83V37.51Z" fill="#A5A5A5"/>
<path d="M112.57 37.51H106.32V43.76H112.57V37.51Z" fill="#A5A5A5"/>
<path d="M106.32 37.51H100.07V43.76H106.32V37.51Z" fill="#A5A5A5"/>
<path d="M100.07 37.51H93.8201V43.76H100.07V37.51Z" fill="#A5A5A5"/>
<path d="M93.8201 37.51H87.5701V43.76H93.8201V37.51Z" fill="#A5A5A5"/>
<path d="M87.5701 37.51H81.3201V43.76H87.5701V37.51Z" fill="#A5A5A5"/>
<path d="M81.3201 37.51H75.0701V43.76H81.3201V37.51Z" fill="#D6D6D6"/>
<path d="M75.0701 37.51H68.8201V43.76H75.0701V37.51Z" fill="#D6D6D6"/>
<path d="M68.8201 37.51H62.5701V43.76H68.8201V37.51Z" fill="#D6D6D6"/>
<path d="M62.5701 37.51H56.3201V43.76H62.5701V37.51Z" fill="#A5A5A5"/>
<path d="M56.3201 37.51H50.0701V43.76H56.3201V37.51Z" fill="#A5A5A5"/>
<path d="M50.0701 37.51H43.8201V43.76H50.0701V37.51Z" fill="#A5A5A5"/>
<path d="M43.8201 37.51H37.5701V43.76H43.8201V37.51Z" fill="#D6D6D6"/>
<path d="M37.5601 37.51H31.3101V43.76H37.5601V37.51Z" fill="#A5A5A5"/>
<path d="M31.3101 37.51H25.0601V43.76H31.3101V37.51Z" fill="#808080"/>
<path d="M25.0601 37.51H18.8101V43.76H25.0601V37.51Z" fill="#808080"/>
<path d="M18.8101 37.51H12.5601V43.76H18.8101V37.51Z" fill="#808080"/>
<path d="M12.5601 37.51H6.31006V43.76H12.5601V37.51Z" fill="#808080"/>
<path d="M6.31006 37.51H0.0600586V43.76H6.31006V37.51Z" fill="#4C4C4C"/>
<path d="M150.08 43.76H143.83V50.01H150.08V43.76Z" fill="#4C4C4C"/>
<path d="M143.83 43.76H137.58V50.01H143.83V43.76Z" fill="#3D3D3D"/>
<path d="M137.58 43.76H131.33V50.01H137.58V43.76Z" fill="#3D3D3D"/>
<path d="M131.33 43.76H125.08V50.01H131.33V43.76Z" fill="#3D3D3D"/>
<path d="M125.08 43.76H118.83V50.01H125.08V43.76Z" fill="#3D3D3D"/>
<path d="M118.83 43.76H112.58V50.01H118.83V43.76Z" fill="#A5A5A5"/>
<path d="M112.57 43.76H106.32V50.01H112.57V43.76Z" fill="#A5A5A5"/>
<path d="M106.32 43.76H100.07V50.01H106.32V43.76Z" fill="#A5A5A5"/>
<path d="M100.07 43.76H93.8201V50.01H100.07V43.76Z" fill="#A5A5A5"/>
<path d="M93.8201 43.76H87.5701V50.01H93.8201V43.76Z" fill="#A5A5A5"/>
<path d="M87.5701 43.76H81.3201V50.01H87.5701V43.76Z" fill="#D6D6D6"/>
<path d="M81.3201 43.76H75.0701V50.01H81.3201V43.76Z" fill="#D6D6D6"/>
<path d="M75.0701 43.76H68.8201V50.01H75.0701V43.76Z" fill="#D6D6D6"/>
<path d="M68.8201 43.76H62.5701V50.01H68.8201V43.76Z" fill="#A5A5A5"/>
<path d="M62.5701 43.76H56.3201V50.01H62.5701V43.76Z" fill="#A5A5A5"/>
<path d="M56.3201 43.76H50.0701V50.01H56.3201V43.76Z" fill="#A5A5A5"/>
<path d="M50.0701 43.76H43.8201V50.01H50.0701V43.76Z" fill="#D6D6D6"/>
<path d="M43.8201 43.76H37.5701V50.01H43.8201V43.76Z" fill="#A5A5A5"/>
<path d="M37.5601 43.76H31.3101V50.01H37.5601V43.76Z" fill="#A5A5A5"/>
<path d="M31.3101 43.76H25.0601V50.01H31.3101V43.76Z" fill="#808080"/>
<path d="M25.0601 43.76H18.8101V50.01H25.0601V43.76Z" fill="#808080"/>
<path d="M18.8101 43.76H12.5601V50.01H18.8101V43.76Z" fill="#808080"/>
<path d="M12.5601 43.76H6.31006V50.01H12.5601V43.76Z" fill="#808080"/>
<path d="M6.31006 43.76H0.0600586V50.01H6.31006V43.76Z" fill="#4C4C4C"/>
<path d="M150.08 50.01H143.83V56.26H150.08V50.01Z" fill="#4C4C4C"/>
<path d="M143.83 50.01H137.58V56.26H143.83V50.01Z" fill="#3D3D3D"/>
<path d="M137.58 50.01H131.33V56.26H137.58V50.01Z" fill="#3D3D3D"/>
<path d="M131.33 50.01H125.08V56.26H131.33V50.01Z" fill="#3D3D3D"/>
<path d="M125.08 50.01H118.83V56.26H125.08V50.01Z" fill="#3D3D3D"/>
<path d="M118.83 50.01H112.58V56.26H118.83V50.01Z" fill="#A5A5A5"/>
<path d="M112.57 50.01H106.32V56.26H112.57V50.01Z" fill="#A5A5A5"/>
<path d="M106.32 50.01H100.07V56.26H106.32V50.01Z" fill="#A5A5A5"/>
<path d="M100.07 50.01H93.8201V56.26H100.07V50.01Z" fill="#A5A5A5"/>
<path d="M93.8201 50.01H87.5701V56.26H93.8201V50.01Z" fill="#D6D6D6"/>
<path d="M87.5701 50.01H81.3201V56.26H87.5701V50.01Z" fill="#D6D6D6"/>
<path d="M81.3201 50.01H75.0701V56.26H81.3201V50.01Z" fill="#D6D6D6"/>
<path d="M75.0701 50.01H68.8201V56.26H75.0701V50.01Z" fill="#A5A5A5"/>
<path d="M68.8201 50.01H62.5701V56.26H68.8201V50.01Z" fill="#A5A5A5"/>
<path d="M62.5701 50.01H56.3201V56.26H62.5701V50.01Z" fill="#A5A5A5"/>
<path d="M56.3201 50.01H50.0701V56.26H56.3201V50.01Z" fill="#D6D6D6"/>
<path d="M50.0701 50.01H43.8201V56.26H50.0701V50.01Z" fill="#A5A5A5"/>
<path d="M43.8201 50.01H37.5701V56.26H43.8201V50.01Z" fill="#A5A5A5"/>
<path d="M37.5601 50.01H31.3101V56.26H37.5601V50.01Z" fill="#A5A5A5"/>
<path d="M31.3101 50.01H25.0601V56.26H31.3101V50.01Z" fill="#808080"/>
<path d="M25.0601 50.01H18.8101V56.26H25.0601V50.01Z" fill="#808080"/>
<path d="M18.8101 50.01H12.5601V56.26H18.8101V50.01Z" fill="#808080"/>
<path d="M12.5601 50.01H6.31006V56.26H12.5601V50.01Z" fill="#808080"/>
<path d="M6.31006 50.01H0.0600586V56.26H6.31006V50.01Z" fill="#4C4C4C"/>
<path d="M150.08 56.26H143.83V62.51H150.08V56.26Z" fill="#4C4C4C"/>
<path d="M143.83 56.26H137.58V62.51H143.83V56.26Z" fill="#3D3D3D"/>
<path d="M137.58 56.26H131.33V62.51H137.58V56.26Z" fill="#3D3D3D"/>
<path d="M131.33 56.26H125.08V62.51H131.33V56.26Z" fill="#3D3D3D"/>
<path d="M125.08 56.26H118.83V62.51H125.08V56.26Z" fill="#3D3D3D"/>
<path d="M118.83 56.26H112.58V62.51H118.83V56.26Z" fill="#A5A5A5"/>
<path d="M112.57 56.26H106.32V62.51H112.57V56.26Z" fill="#A5A5A5"/>
<path d="M106.32 56.26H100.07V62.51H106.32V56.26Z" fill="#A5A5A5"/>
<path d="M150.08 62.51H143.83V68.76H150.08V62.51Z" fill="#4C4C4C"/>
<path d="M143.83 62.51H137.58V68.76H143.83V62.51Z" fill="#3D3D3D"/>
<path d="M137.58 62.51H131.33V68.76H137.58V62.51Z" fill="#3D3D3D"/>
<path d="M131.33 62.51H125.08V68.76H131.33V62.51Z" fill="#3D3D3D"/>
<path d="M125.08 62.51H118.83V68.76H125.08V62.51Z" fill="#3D3D3D"/>
<path d="M118.83 62.51H112.58V68.76H118.83V62.51Z" fill="#A5A5A5"/>
<path d="M112.57 62.51H106.32V68.76H112.57V62.51Z" fill="#A5A5A5"/>
<path d="M106.32 62.51H100.07V68.76H106.32V62.51Z" fill="#D6D6D6"/>
<path d="M150.08 68.76H143.83V75.01H150.08V68.76Z" fill="#4C4C4C"/>
<path d="M143.83 68.76H137.58V75.01H143.83V68.76Z" fill="#3D3D3D"/>
<path d="M137.58 68.76H131.33V75.01H137.58V68.76Z" fill="#3D3D3D"/>
<path d="M131.33 68.76H125.08V75.01H131.33V68.76Z" fill="#3D3D3D"/>
<path d="M125.08 68.76H118.83V75.01H125.08V68.76Z" fill="#3D3D3D"/>
<path d="M118.83 68.76H112.58V75.01H118.83V68.76Z" fill="#A5A5A5"/>
<path d="M112.57 68.76H106.32V75.01H112.57V68.76Z" fill="#D6D6D6"/>
<path d="M106.32 68.76H100.07V75.01H106.32V68.76Z" fill="#D6D6D6"/>
<path d="M150.08 75.01H143.83V81.26H150.08V75.01Z" fill="#4C4C4C"/>
<path d="M143.83 75.01H137.58V81.26H143.83V75.01Z" fill="#3D3D3D"/>
<path d="M137.58 75.01H131.33V81.26H137.58V75.01Z" fill="#3D3D3D"/>
<path d="M131.33 75.01H125.08V81.26H131.33V75.01Z" fill="#3D3D3D"/>
<path d="M125.08 75.01H118.83V81.26H125.08V75.01Z" fill="#3D3D3D"/>
<path d="M118.83 75.01H112.58V81.26H118.83V75.01Z" fill="#D6D6D6"/>
<path d="M112.57 75.01H106.32V81.26H112.57V75.01Z" fill="#D6D6D6"/>
<path d="M106.32 75.01H100.07V81.26H106.32V75.01Z" fill="#D6D6D6"/>
<path d="M150.08 81.26H143.83V87.51H150.08V81.26Z" fill="#4C4C4C"/>
<path d="M143.83 81.26H137.58V87.51H143.83V81.26Z" fill="#3D3D3D"/>
<path d="M137.58 81.26H131.33V87.51H137.58V81.26Z" fill="#3D3D3D"/>
<path d="M131.33 81.26H125.08V87.51H131.33V81.26Z" fill="#3D3D3D"/>
<path d="M125.08 81.26H118.83V87.51H125.08V81.26Z" fill="#3D3D3D"/>
<path d="M118.83 81.26H112.58V87.51H118.83V81.26Z" fill="#D6D6D6"/>
<path d="M112.57 81.26H106.32V87.51H112.57V81.26Z" fill="#D6D6D6"/>
<path d="M106.32 81.26H100.07V87.51H106.32V81.26Z" fill="#A5A5A5"/>
<path d="M150.08 87.51H143.83V93.76H150.08V87.51Z" fill="#4C4C4C"/>
<path d="M143.83 87.51H137.58V93.76H143.83V87.51Z" fill="#3D3D3D"/>
<path d="M137.58 87.51H131.33V93.76H137.58V87.51Z" fill="#3D3D3D"/>
<path d="M131.33 87.51H125.08V93.76H131.33V87.51Z" fill="#3D3D3D"/>
<path d="M125.08 87.51H118.83V93.76H125.08V87.51Z" fill="#3D3D3D"/>
<path d="M118.83 87.51H112.58V93.76H118.83V87.51Z" fill="#D6D6D6"/>
<path d="M112.57 87.51H106.32V93.76H112.57V87.51Z" fill="#A5A5A5"/>
<path d="M106.32 87.51H100.07V93.76H106.32V87.51Z" fill="#A5A5A5"/>
<path d="M150.08 93.76H143.83V100.01H150.08V93.76Z" fill="#4C4C4C"/>
<path d="M143.83 93.76H137.58V100.01H143.83V93.76Z" fill="#3D3D3D"/>
<path d="M137.58 93.76H131.33V100.01H137.58V93.76Z" fill="#3D3D3D"/>
<path d="M131.33 93.76H125.08V100.01H131.33V93.76Z" fill="#3D3D3D"/>
<path d="M125.08 93.76H118.83V100.01H125.08V93.76Z" fill="#3D3D3D"/>
<path d="M118.83 93.76H112.58V100.01H118.83V93.76Z" fill="#A5A5A5"/>
<path d="M112.57 93.76H106.32V100.01H112.57V93.76Z" fill="#A5A5A5"/>
<path d="M106.32 93.76H100.07V100.01H106.32V93.76Z" fill="#A5A5A5"/>
<path d="M150.08 100.01H143.83V106.26H150.08V100.01Z" fill="#4C4C4C"/>
<path d="M143.83 100.01H137.58V106.26H143.83V100.01Z" fill="#3D3D3D"/>
<path d="M137.58 100.01H131.33V106.26H137.58V100.01Z" fill="#3D3D3D"/>
<path d="M131.33 100.01H125.08V106.26H131.33V100.01Z" fill="#3D3D3D"/>
<path d="M125.08 100.01H118.83V106.26H125.08V100.01Z" fill="#3D3D3D"/>
<path d="M118.83 100.01H112.58V106.26H118.83V100.01Z" fill="#A5A5A5"/>
<path d="M112.57 100.01H106.32V106.26H112.57V100.01Z" fill="#A5A5A5"/>
<path d="M106.32 100.01H100.07V106.26H106.32V100.01Z" fill="#D6D6D6"/>
<path d="M100.07 62.51H93.8201V68.76H100.07V62.51Z" fill="#D6D6D6"/>
<path d="M93.8201 62.51H87.5701V68.76H93.8201V62.51Z" fill="#D6D6D6"/>
<path d="M87.5701 62.51H81.3201V68.76H87.5701V62.51Z" fill="#A5A5A5"/>
<path d="M100.07 68.76H93.8201V75.01H100.07V68.76Z" fill="#D6D6D6"/>
<path d="M93.8201 68.76H87.5701V75.01H93.8201V68.76Z" fill="#A5A5A5"/>
<path d="M87.5701 68.76H81.3201V75.01H87.5701V68.76Z" fill="#A5A5A5"/>
<path d="M100.07 75.01H93.8201V81.26H100.07V75.01Z" fill="#A5A5A5"/>
<path d="M93.8201 75.01H87.5701V81.26H93.8201V75.01Z" fill="#A5A5A5"/>
<path d="M87.5701 75.01H81.3201V81.26H87.5701V75.01Z" fill="#A5A5A5"/>
<path d="M100.07 81.26H93.8201V87.51H100.07V81.26Z" fill="#A5A5A5"/>
<path d="M93.8201 81.26H87.5701V87.51H93.8201V81.26Z" fill="#A5A5A5"/>
<path d="M87.5701 81.26H81.3201V87.51H87.5701V81.26Z" fill="#D6D6D6"/>
<path d="M100.07 87.51H93.8201V93.76H100.07V87.51Z" fill="#A5A5A5"/>
<path d="M93.8201 87.51H87.5701V93.76H93.8201V87.51Z" fill="#D6D6D6"/>
<path d="M87.5701 87.51H81.3201V93.76H87.5701V87.51Z" fill="#A5A5A5"/>
<path d="M100.07 93.76H93.8201V100.01H100.07V93.76Z" fill="#D6D6D6"/>
<path d="M93.8201 93.76H87.5701V100.01H93.8201V93.76Z" fill="#A5A5A5"/>
<path d="M87.5701 93.76H81.3201V100.01H87.5701V93.76Z" fill="#A5A5A5"/>
<path d="M100.07 100.01H93.8201V106.26H100.07V100.01Z" fill="#A5A5A5"/>
<path d="M93.8201 100.01H87.5701V106.26H93.8201V100.01Z" fill="#A5A5A5"/>
<path d="M87.5701 100.01H81.3201V106.26H87.5701V100.01Z" fill="#A5A5A5"/>
<path d="M81.3201 62.51H75.0701V68.76H81.3201V62.51Z" fill="#A5A5A5"/>
<path d="M75.0701 62.51H68.8201V68.76H75.0701V62.51Z" fill="#A5A5A5"/>
<path d="M68.8201 62.51H62.5701V68.76H68.8201V62.51Z" fill="#D6D6D6"/>
<path d="M81.3201 68.76H75.0701V75.01H81.3201V68.76Z" fill="#A5A5A5"/>
<path d="M75.0701 68.76H68.8201V75.01H75.0701V68.76Z" fill="#D6D6D6"/>
<path d="M68.8201 68.76H62.5701V75.01H68.8201V68.76Z" fill="#A5A5A5"/>
<path d="M81.3201 75.01H75.0701V81.26H81.3201V75.01Z" fill="#D6D6D6"/>
<path d="M75.0701 75.01H68.8201V81.26H75.0701V75.01Z" fill="#A5A5A5"/>
<path d="M68.8201 75.01H62.5701V81.26H68.8201V75.01Z" fill="#A5A5A5"/>
<path d="M81.3201 81.26H75.0701V87.51H81.3201V81.26Z" fill="#A5A5A5"/>
<path d="M75.0701 81.26H68.8201V87.51H75.0701V81.26Z" fill="#A5A5A5"/>
<path d="M68.8201 81.26H62.5701V87.51H68.8201V81.26Z" fill="#A5A5A5"/>
<path d="M81.3201 87.51H75.0701V93.76H81.3201V87.51Z" fill="#A5A5A5"/>
<path d="M75.0701 87.51H68.8201V93.76H75.0701V87.51Z" fill="#A5A5A5"/>
<path d="M68.8201 87.51H62.5701V93.76H68.8201V87.51Z" fill="#A5A5A5"/>
<path d="M81.3201 93.76H75.0701V100.01H81.3201V93.76Z" fill="#A5A5A5"/>
<path d="M75.0701 93.76H68.8201V100.01H75.0701V93.76Z" fill="#A5A5A5"/>
<path d="M68.8201 93.76H62.5701V100.01H68.8201V93.76Z" fill="#A5A5A5"/>
<path d="M81.3201 100.01H75.0701V106.26H81.3201V100.01Z" fill="#A5A5A5"/>
<path d="M75.0701 100.01H68.8201V106.26H75.0701V100.01Z" fill="#A5A5A5"/>
<path d="M68.8201 100.01H62.5701V106.26H68.8201V100.01Z" fill="#A5A5A5"/>
<path d="M62.5701 62.51H56.3201V68.76H62.5701V62.51Z" fill="#A5A5A5"/>
<path d="M56.3201 62.51H50.0701V68.76H56.3201V62.51Z" fill="#A5A5A5"/>
<path d="M50.0701 62.51H43.8201V68.76H50.0701V62.51Z" fill="#A5A5A5"/>
<path d="M62.5701 68.76H56.3201V75.01H62.5701V68.76Z" fill="#A5A5A5"/>
<path d="M56.3201 68.76H50.0701V75.01H56.3201V68.76Z" fill="#A5A5A5"/>
<path d="M50.0701 68.76H43.8201V75.01H50.0701V68.76Z" fill="#A5A5A5"/>
<path d="M62.5701 75.01H56.3201V81.26H62.5701V75.01Z" fill="#A5A5A5"/>
<path d="M56.3201 75.01H50.0701V81.26H56.3201V75.01Z" fill="#A5A5A5"/>
<path d="M50.0701 75.01H43.8201V81.26H50.0701V75.01Z" fill="#A5A5A5"/>
<path d="M62.5701 81.26H56.3201V87.51H62.5701V81.26Z" fill="#A5A5A5"/>
<path d="M56.3201 81.26H50.0701V87.51H56.3201V81.26Z" fill="#A5A5A5"/>
<path d="M50.0701 81.26H43.8201V87.51H50.0701V81.26Z" fill="#A5A5A5"/>
<path d="M62.5701 87.51H56.3201V93.76H62.5701V87.51Z" fill="#A5A5A5"/>
<path d="M56.3201 87.51H50.0701V93.76H56.3201V87.51Z" fill="#A5A5A5"/>
<path d="M50.0701 87.51H43.8201V93.76H50.0701V87.51Z" fill="#A5A5A5"/>
<path d="M62.5701 93.76H56.3201V100.01H62.5701V93.76Z" fill="#A5A5A5"/>
<path d="M56.3201 93.76H50.0701V100.01H56.3201V93.76Z" fill="#A5A5A5"/>
<path d="M50.0701 93.76H43.8201V100.01H50.0701V93.76Z" fill="#A5A5A5"/>
<path d="M62.5701 100.01H56.3201V106.26H62.5701V100.01Z" fill="#A5A5A5"/>
<path d="M56.3201 100.01H50.0701V106.26H56.3201V100.01Z" fill="#A5A5A5"/>
<path d="M50.0701 100.01H43.8201V106.26H50.0701V100.01Z" fill="#A5A5A5"/>
<path d="M43.8201 62.51H37.5701V68.76H43.8201V62.51Z" fill="#A5A5A5"/>
<path d="M37.5601 62.51H31.3101V68.76H37.5601V62.51Z" fill="#A5A5A5"/>
<path d="M43.8201 68.76H37.5701V75.01H43.8201V68.76Z" fill="#A5A5A5"/>
<path d="M37.5601 68.76H31.3101V75.01H37.5601V68.76Z" fill="#A5A5A5"/>
<path d="M43.8201 75.01H37.5701V81.26H43.8201V75.01Z" fill="#A5A5A5"/>
<path d="M37.5601 75.01H31.3101V81.26H37.5601V75.01Z" fill="#A5A5A5"/>
<path d="M43.8201 81.26H37.5701V87.51H43.8201V81.26Z" fill="#A5A5A5"/>
<path d="M37.5601 81.26H31.3101V87.51H37.5601V81.26Z" fill="#A5A5A5"/>
<path d="M43.8201 87.51H37.5701V93.76H43.8201V87.51Z" fill="#A5A5A5"/>
<path d="M37.5601 87.51H31.3101V93.76H37.5601V87.51Z" fill="#A5A5A5"/>
<path d="M43.8201 93.76H37.5701V100.01H43.8201V93.76Z" fill="#A5A5A5"/>
<path d="M37.5601 93.76H31.3101V100.01H37.5601V93.76Z" fill="#A5A5A5"/>
<path d="M43.8201 100.01H37.5701V106.26H43.8201V100.01Z" fill="#A5A5A5"/>
<path d="M37.5601 100.01H31.3101V106.26H37.5601V100.01Z" fill="#A5A5A5"/>
<path d="M100.07 56.26H93.8201V62.51H100.07V56.26Z" fill="#D6D6D6"/>
<path d="M93.8201 56.26H87.5701V62.51H93.8201V56.26Z" fill="#D6D6D6"/>
<path d="M87.5701 56.26H81.3201V62.51H87.5701V56.26Z" fill="#D6D6D6"/>
<path d="M81.3201 56.26H75.0701V62.51H81.3201V56.26Z" fill="#A5A5A5"/>
<path d="M75.0701 56.26H68.8201V62.51H75.0701V56.26Z" fill="#A5A5A5"/>
<path d="M68.8201 56.26H62.5701V62.51H68.8201V56.26Z" fill="#A5A5A5"/>
<path d="M62.5701 56.26H56.3201V62.51H62.5701V56.26Z" fill="#D6D6D6"/>
<path d="M56.3201 56.26H50.0701V62.51H56.3201V56.26Z" fill="#A5A5A5"/>
<path d="M50.0701 56.26H43.8201V62.51H50.0701V56.26Z" fill="#A5A5A5"/>
<path d="M43.8201 56.26H37.5701V62.51H43.8201V56.26Z" fill="#A5A5A5"/>
<path d="M37.5601 56.26H31.3101V62.51H37.5601V56.26Z" fill="#A5A5A5"/>
<path d="M31.3101 56.26H25.0601V62.51H31.3101V56.26Z" fill="#808080"/>
<path d="M25.0601 56.26H18.8101V62.51H25.0601V56.26Z" fill="#808080"/>
<path d="M18.8101 56.26H12.5601V62.51H18.8101V56.26Z" fill="#808080"/>
<path d="M12.5601 56.26H6.31006V62.51H12.5601V56.26Z" fill="#808080"/>
<path d="M6.31006 56.26H0.0600586V62.51H6.31006V56.26Z" fill="#4C4C4C"/>
<path d="M31.3101 62.51H25.0601V68.76H31.3101V62.51Z" fill="#808080"/>
<path d="M25.0601 62.51H18.8101V68.76H25.0601V62.51Z" fill="#808080"/>
<path d="M18.8101 62.51H12.5601V68.76H18.8101V62.51Z" fill="#808080"/>
<path d="M12.5601 62.51H6.31006V68.76H12.5601V62.51Z" fill="#808080"/>
<path d="M6.31006 62.51H0.0600586V68.76H6.31006V62.51Z" fill="#4C4C4C"/>
<path d="M31.3101 68.76H25.0601V75.01H31.3101V68.76Z" fill="#808080"/>
<path d="M25.0601 68.76H18.8101V75.01H25.0601V68.76Z" fill="#808080"/>
<path d="M18.8101 68.76H12.5601V75.01H18.8101V68.76Z" fill="#808080"/>
<path d="M12.5601 68.76H6.31006V75.01H12.5601V68.76Z" fill="#808080"/>
<path d="M6.31006 68.76H0.0600586V75.01H6.31006V68.76Z" fill="#4C4C4C"/>
<path d="M31.3101 75.01H25.0601V81.26H31.3101V75.01Z" fill="#808080"/>
<path d="M25.0601 75.01H18.8101V81.26H25.0601V75.01Z" fill="#808080"/>
<path d="M18.8101 75.01H12.5601V81.26H18.8101V75.01Z" fill="#808080"/>
<path d="M12.5601 75.01H6.31006V81.26H12.5601V75.01Z" fill="#808080"/>
<path d="M6.31006 75.01H0.0600586V81.26H6.31006V75.01Z" fill="#4C4C4C"/>
<path d="M31.3101 81.26H25.0601V87.51H31.3101V81.26Z" fill="#808080"/>
<path d="M25.0601 81.26H18.8101V87.51H25.0601V81.26Z" fill="#808080"/>
<path d="M18.8101 81.26H12.5601V87.51H18.8101V81.26Z" fill="#808080"/>
<path d="M12.5601 81.26H6.31006V87.51H12.5601V81.26Z" fill="#808080"/>
<path d="M6.31006 81.26H0.0600586V87.51H6.31006V81.26Z" fill="#4C4C4C"/>
<path d="M31.3101 87.51H25.0601V93.76H31.3101V87.51Z" fill="#808080"/>
<path d="M25.0601 87.51H18.8101V93.76H25.0601V87.51Z" fill="#808080"/>
<path d="M18.8101 87.51H12.5601V93.76H18.8101V87.51Z" fill="#808080"/>
<path d="M12.5601 87.51H6.31006V93.76H12.5601V87.51Z" fill="#808080"/>
<path d="M6.31006 87.51H0.0600586V93.76H6.31006V87.51Z" fill="#4C4C4C"/>
<path d="M31.3101 93.76H25.0601V100.01H31.3101V93.76Z" fill="#808080"/>
<path d="M25.0601 93.76H18.8101V100.01H25.0601V93.76Z" fill="#808080"/>
<path d="M18.8101 93.76H12.5601V100.01H18.8101V93.76Z" fill="#808080"/>
<path d="M12.5601 93.76H6.31006V100.01H12.5601V93.76Z" fill="#808080"/>
<path d="M6.31006 93.76H0.0600586V100.01H6.31006V93.76Z" fill="#4C4C4C"/>
<path d="M31.3101 100.01H25.0601V106.26H31.3101V100.01Z" fill="#808080"/>
<path d="M25.0601 100.01H18.8101V106.26H25.0601V100.01Z" fill="#808080"/>
<path d="M18.8101 100.01H12.5601V106.26H18.8101V100.01Z" fill="#808080"/>
<path d="M12.5601 100.01H6.31006V106.26H12.5601V100.01Z" fill="#808080"/>
<path d="M6.31006 100.01H0.0600586V106.26H6.31006V100.01Z" fill="#4C4C4C"/>
<path d="M150.08 106.26H143.83V112.51H150.08V106.26Z" fill="#4C4C4C"/>
<path d="M143.83 106.26H137.58V112.51H143.83V106.26Z" fill="#3D3D3D"/>
<path d="M137.58 106.26H131.33V112.51H137.58V106.26Z" fill="#3D3D3D"/>
<path d="M131.33 106.26H125.08V112.51H131.33V106.26Z" fill="#3D3D3D"/>
<path d="M125.08 106.26H118.83V112.51H125.08V106.26Z" fill="#3D3D3D"/>
<path d="M118.83 106.26H112.58V112.51H118.83V106.26Z" fill="#D6D6D6"/>
<path d="M112.57 106.26H106.32V112.51H112.57V106.26Z" fill="#D6D6D6"/>
<path d="M106.32 106.26H100.07V112.51H106.32V106.26Z" fill="#A5A5A5"/>
<path d="M100.07 106.26H93.8201V112.51H100.07V106.26Z" fill="#A5A5A5"/>
<path d="M93.8201 106.26H87.5701V112.51H93.8201V106.26Z" fill="#A5A5A5"/>
<path d="M87.5701 106.26H81.3201V112.51H87.5701V106.26Z" fill="#A5A5A5"/>
<path d="M81.3201 106.26H75.0701V112.51H81.3201V106.26Z" fill="#A5A5A5"/>
<path d="M75.0701 106.26H68.8201V112.51H75.0701V106.26Z" fill="#A5A5A5"/>
<path d="M68.8201 106.26H62.5701V112.51H68.8201V106.26Z" fill="#A5A5A5"/>
<path d="M62.5701 106.26H56.3201V112.51H62.5701V106.26Z" fill="#A5A5A5"/>
<path d="M56.3201 106.26H50.0701V112.51H56.3201V106.26Z" fill="#A5A5A5"/>
<path d="M50.0701 106.26H43.8201V112.51H50.0701V106.26Z" fill="#A5A5A5"/>
<path d="M43.8201 106.26H37.5701V112.51H43.8201V106.26Z" fill="#A5A5A5"/>
<path d="M37.5601 106.26H31.3101V112.51H37.5601V106.26Z" fill="#D6D6D6"/>
<path d="M31.3101 106.26H25.0601V112.51H31.3101V106.26Z" fill="#808080"/>
<path d="M25.0601 106.26H18.8101V112.51H25.0601V106.26Z" fill="#808080"/>
<path d="M18.8101 106.26H12.5601V112.51H18.8101V106.26Z" fill="#808080"/>
<path d="M12.5601 106.26H6.31006V112.51H12.5601V106.26Z" fill="#808080"/>
<path d="M6.31006 106.26H0.0600586V112.51H6.31006V106.26Z" fill="#4C4C4C"/>
<path d="M150.08 112.52H143.83V118.77H150.08V112.52Z" fill="#4C4C4C"/>
<path d="M143.83 112.52H137.58V118.77H143.83V112.52Z" fill="#3D3D3D"/>
<path d="M137.58 112.52H131.33V118.77H137.58V112.52Z" fill="#3D3D3D"/>
<path d="M131.33 112.52H125.08V118.77H131.33V112.52Z" fill="#3D3D3D"/>
<path d="M125.08 112.52H118.83V118.77H125.08V112.52Z" fill="#3D3D3D"/>
<path d="M118.83 112.52H112.58V118.77H118.83V112.52Z" fill="#808080"/>
<path d="M112.57 112.52H106.32V118.77H112.57V112.52Z" fill="#D6D6D6"/>
<path d="M106.32 112.52H100.07V118.77H106.32V112.52Z" fill="#D6D6D6"/>
<path d="M100.07 112.52H93.8201V118.77H100.07V112.52Z" fill="#D6D6D6"/>
<path d="M93.8201 112.52H87.5701V118.77H93.8201V112.52Z" fill="#D6D6D6"/>
<path d="M87.5701 112.52H81.3201V118.77H87.5701V112.52Z" fill="#D6D6D6"/>
<path d="M81.3201 112.52H75.0701V118.77H81.3201V112.52Z" fill="#D6D6D6"/>
<path d="M75.0701 112.52H68.8201V118.77H75.0701V112.52Z" fill="#D6D6D6"/>
<path d="M68.8201 112.52H62.5701V118.77H68.8201V112.52Z" fill="#D6D6D6"/>
<path d="M62.5701 112.52H56.3201V118.77H62.5701V112.52Z" fill="#D6D6D6"/>
<path d="M56.3201 112.52H50.0701V118.77H56.3201V112.52Z" fill="#D6D6D6"/>
<path d="M50.0701 112.52H43.8201V118.77H50.0701V112.52Z" fill="#D6D6D6"/>
<path d="M43.8201 112.52H37.5701V118.77H43.8201V112.52Z" fill="#D6D6D6"/>
<path d="M37.5601 112.52H31.3101V118.77H37.5601V112.52Z" fill="#A5A5A5"/>
<path d="M31.3101 112.52H25.0601V118.77H31.3101V112.52Z" fill="#808080"/>
<path d="M25.0601 112.52H18.8101V118.77H25.0601V112.52Z" fill="#808080"/>
<path d="M18.8101 112.52H12.5601V118.77H18.8101V112.52Z" fill="#808080"/>
<path d="M12.5601 112.52H6.31006V118.77H12.5601V112.52Z" fill="#808080"/>
<path d="M6.31006 112.52H0.0600586V118.77H6.31006V112.52Z" fill="#4C4C4C"/>
<path d="M150.08 118.77H143.83V125.02H150.08V118.77Z" fill="#4C4C4C"/>
<path d="M143.83 118.77H137.58V125.02H143.83V118.77Z" fill="#3D3D3D"/>
<path d="M137.58 118.77H131.33V125.02H137.58V118.77Z" fill="#3D3D3D"/>
<path d="M131.33 118.77H125.08V125.02H131.33V118.77Z" fill="#3D3D3D"/>
<path d="M125.08 118.77H118.83V125.02H125.08V118.77Z" fill="#808080"/>
<path d="M118.83 118.77H112.58V125.02H118.83V118.77Z" fill="#606060"/>
<path d="M112.57 118.77H106.32V125.02H112.57V118.77Z" fill="#606060"/>
<path d="M106.32 118.77H100.07V125.02H106.32V118.77Z" fill="#606060"/>
<path d="M100.07 118.77H93.8201V125.02H100.07V118.77Z" fill="#606060"/>
<path d="M93.8201 118.77H87.5701V125.02H93.8201V118.77Z" fill="#606060"/>
<path d="M87.5701 118.77H81.3201V125.02H87.5701V118.77Z" fill="#606060"/>
<path d="M81.3201 118.77H75.0701V125.02H81.3201V118.77Z" fill="#606060"/>
<path d="M75.0701 118.77H68.8201V125.02H75.0701V118.77Z" fill="#606060"/>
<path d="M68.8201 118.77H62.5701V125.02H68.8201V118.77Z" fill="#606060"/>
<path d="M62.5701 118.77H56.3201V125.02H62.5701V118.77Z" fill="#606060"/>
<path d="M56.3201 118.77H50.0701V125.02H56.3201V118.77Z" fill="#606060"/>
<path d="M50.0701 118.77H43.8201V125.02H50.0701V118.77Z" fill="#606060"/>
<path d="M43.8201 118.77H37.5701V125.02H43.8201V118.77Z" fill="#606060"/>
<path d="M37.5601 118.77H31.3101V125.02H37.5601V118.77Z" fill="#606060"/>
<path d="M31.3101 118.77H25.0601V125.02H31.3101V118.77Z" fill="#A5A5A5"/>
<path d="M25.0601 118.77H18.8101V125.02H25.0601V118.77Z" fill="#808080"/>
<path d="M18.8101 118.77H12.5601V125.02H18.8101V118.77Z" fill="#808080"/>
<path d="M12.5601 118.77H6.31006V125.02H12.5601V118.77Z" fill="#808080"/>
<path d="M6.31006 118.77H0.0600586V125.02H6.31006V118.77Z" fill="#4C4C4C"/>
<path d="M150.08 125.02H143.83V131.27H150.08V125.02Z" fill="#4C4C4C"/>
<path d="M143.83 125.02H137.58V131.27H143.83V125.02Z" fill="#3D3D3D"/>
<path d="M137.58 125.02H131.33V131.27H137.58V125.02Z" fill="#3D3D3D"/>
<path d="M131.33 125.02H125.08V131.27H131.33V125.02Z" fill="#808080"/>
<path d="M125.08 125.02H118.83V131.27H125.08V125.02Z" fill="#606060"/>
<path d="M118.83 125.02H112.58V131.27H118.83V125.02Z" fill="#606060"/>
<path d="M112.57 125.02H106.32V131.27H112.57V125.02Z" fill="#606060"/>
<path d="M106.32 125.02H100.07V131.27H106.32V125.02Z" fill="#606060"/>
<path d="M100.07 125.02H93.8201V131.27H100.07V125.02Z" fill="#606060"/>
<path d="M93.8201 125.02H87.5701V131.27H93.8201V125.02Z" fill="#606060"/>
<path d="M87.5701 125.02H81.3201V131.27H87.5701V125.02Z" fill="#606060"/>
<path d="M81.3201 125.02H75.0701V131.27H81.3201V125.02Z" fill="#606060"/>
<path d="M75.0701 125.02H68.8201V131.27H75.0701V125.02Z" fill="#606060"/>
<path d="M68.8201 125.02H62.5701V131.27H68.8201V125.02Z" fill="#606060"/>
<path d="M62.5701 125.02H56.3201V131.27H62.5701V125.02Z" fill="#606060"/>
<path d="M56.3201 125.02H50.0701V131.27H56.3201V125.02Z" fill="#606060"/>
<path d="M50.0701 125.02H43.8201V131.27H50.0701V125.02Z" fill="#606060"/>
<path d="M43.8201 125.02H37.5701V131.27H43.8201V125.02Z" fill="#606060"/>
<path d="M37.5601 125.02H31.3101V131.27H37.5601V125.02Z" fill="#606060"/>
<path d="M31.3101 125.02H25.0601V131.27H31.3101V125.02Z" fill="#606060"/>
<path d="M25.0601 125.02H18.8101V131.27H25.0601V125.02Z" fill="#A5A5A5"/>
<path d="M18.8101 125.02H12.5601V131.27H18.8101V125.02Z" fill="#808080"/>
<path d="M12.5601 125.02H6.31006V131.27H12.5601V125.02Z" fill="#808080"/>
<path d="M6.31006 125.02H0.0600586V131.27H6.31006V125.02Z" fill="#4C4C4C"/>
<path d="M150.08 131.27H143.83V137.52H150.08V131.27Z" fill="#4C4C4C"/>
<path d="M143.83 131.27H137.58V137.52H143.83V131.27Z" fill="#3D3D3D"/>
<path d="M137.58 131.27H131.33V137.52H137.58V131.27Z" fill="#808080"/>
<path d="M131.33 131.27H125.08V137.52H131.33V131.27Z" fill="#606060"/>
<path d="M125.08 131.27H118.83V137.52H125.08V131.27Z" fill="#606060"/>
<path d="M118.83 131.27H112.58V137.52H118.83V131.27Z" fill="#606060"/>
<path d="M112.57 131.27H106.32V137.52H112.57V131.27Z" fill="#606060"/>
<path d="M106.32 131.27H100.07V137.52H106.32V131.27Z" fill="#606060"/>
<path d="M100.07 131.27H93.8201V137.52H100.07V131.27Z" fill="#606060"/>
<path d="M93.8201 131.27H87.5701V137.52H93.8201V131.27Z" fill="#606060"/>
<path d="M87.5701 131.27H81.3201V137.52H87.5701V131.27Z" fill="#606060"/>
<path d="M81.3201 131.27H75.0701V137.52H81.3201V131.27Z" fill="#606060"/>
<path d="M75.0701 131.27H68.8201V137.52H75.0701V131.27Z" fill="#606060"/>
<path d="M68.8201 131.27H62.5701V137.52H68.8201V131.27Z" fill="#606060"/>
<path d="M62.5701 131.27H56.3201V137.52H62.5701V131.27Z" fill="#606060"/>
<path d="M56.3201 131.27H50.0701V137.52H56.3201V131.27Z" fill="#606060"/>
<path d="M50.0701 131.27H43.8201V137.52H50.0701V131.27Z" fill="#606060"/>
<path d="M43.8201 131.27H37.5701V137.52H43.8201V131.27Z" fill="#606060"/>
<path d="M37.5601 131.27H31.3101V137.52H37.5601V131.27Z" fill="#606060"/>
<path d="M31.3101 131.27H25.0601V137.52H31.3101V131.27Z" fill="#606060"/>
<path d="M25.0601 131.27H18.8101V137.52H25.0601V131.27Z" fill="#606060"/>
<path d="M18.8101 131.27H12.5601V137.52H18.8101V131.27Z" fill="#A5A5A5"/>
<path d="M12.5601 131.27H6.31006V137.52H12.5601V131.27Z" fill="#808080"/>
<path d="M6.31006 131.27H0.0600586V137.52H6.31006V131.27Z" fill="#4C4C4C"/>
<path d="M143.83 137.52H137.58V143.77H143.83V137.52Z" fill="#4C4C4C"/>
<path d="M137.58 137.52H131.33V143.77H137.58V137.52Z" fill="#606060"/>
<path d="M131.33 137.52H125.08V143.77H131.33V137.52Z" fill="#606060"/>
<path d="M125.08 137.52H118.83V143.77H125.08V137.52Z" fill="#606060"/>
<path d="M118.83 137.52H112.58V143.77H118.83V137.52Z" fill="#606060"/>
<path d="M112.57 137.52H106.32V143.77H112.57V137.52Z" fill="#606060"/>
<path d="M106.32 137.52H100.07V143.77H106.32V137.52Z" fill="#606060"/>
<path d="M100.07 137.52H93.8201V143.77H100.07V137.52Z" fill="#606060"/>
<path d="M93.8201 137.52H87.5701V143.77H93.8201V137.52Z" fill="#606060"/>
<path d="M87.5701 137.52H81.3201V143.77H87.5701V137.52Z" fill="#606060"/>
<path d="M81.3201 137.52H75.0701V143.77H81.3201V137.52Z" fill="#606060"/>
<path d="M75.0701 137.52H68.8201V143.77H75.0701V137.52Z" fill="#606060"/>
<path d="M68.8201 137.52H62.5701V143.77H68.8201V137.52Z" fill="#606060"/>
<path d="M62.5701 137.52H56.3201V143.77H62.5701V137.52Z" fill="#606060"/>
<path d="M56.3201 137.52H50.0701V143.77H56.3201V137.52Z" fill="#606060"/>
<path d="M50.0701 137.52H43.8201V143.77H50.0701V137.52Z" fill="#606060"/>
<path d="M43.8201 137.52H37.5701V143.77H43.8201V137.52Z" fill="#606060"/>
<path d="M37.5601 137.52H31.3101V143.77H37.5601V137.52Z" fill="#606060"/>
<path d="M31.3101 137.52H25.0601V143.77H31.3101V137.52Z" fill="#606060"/>
<path d="M25.0601 137.52H18.8101V143.77H25.0601V137.52Z" fill="#606060"/>
<path d="M18.8101 137.52H12.5601V143.77H18.8101V137.52Z" fill="#606060"/>
<path d="M12.5601 137.52H6.31006V143.77H12.5601V137.52Z" fill="#4C4C4C"/>
<path d="M137.58 143.77H131.33V150.02H137.58V143.77Z" fill="#4C4C4C"/>
<path d="M131.33 143.77H125.08V150.02H131.33V143.77Z" fill="#4C4C4C"/>
<path d="M125.08 143.77H118.83V150.02H125.08V143.77Z" fill="#4C4C4C"/>
<path d="M118.83 143.77H112.58V150.02H118.83V143.77Z" fill="#4C4C4C"/>
<path d="M112.57 143.77H106.32V150.02H112.57V143.77Z" fill="#4C4C4C"/>
<path d="M106.32 143.77H100.07V150.02H106.32V143.77Z" fill="#4C4C4C"/>
<path d="M100.07 143.77H93.8201V150.02H100.07V143.77Z" fill="#4C4C4C"/>
<path d="M93.8201 143.77H87.5701V150.02H93.8201V143.77Z" fill="#4C4C4C"/>
<path d="M87.5701 143.77H81.3201V150.02H87.5701V143.77Z" fill="#4C4C4C"/>
<path d="M81.3201 143.77H75.0701V150.02H81.3201V143.77Z" fill="#4C4C4C"/>
<path d="M75.0701 143.77H68.8201V150.02H75.0701V143.77Z" fill="#4C4C4C"/>
<path d="M68.8201 143.77H62.5701V150.02H68.8201V143.77Z" fill="#4C4C4C"/>
<path d="M62.5701 143.77H56.3201V150.02H62.5701V143.77Z" fill="#4C4C4C"/>
<path d="M56.3201 143.77H50.0701V150.02H56.3201V143.77Z" fill="#4C4C4C"/>
<path d="M50.0701 143.77H43.8201V150.02H50.0701V143.77Z" fill="#4C4C4C"/>
<path d="M43.8201 143.77H37.5701V150.02H43.8201V143.77Z" fill="#4C4C4C"/>
<path d="M37.5601 143.77H31.3101V150.02H37.5601V143.77Z" fill="#4C4C4C"/>
<path d="M31.3101 143.77H25.0601V150.02H31.3101V143.77Z" fill="#4C4C4C"/>
<path d="M25.0601 143.77H18.8101V150.02H25.0601V143.77Z" fill="#4C4C4C"/>
<path d="M18.8101 143.77H12.5601V150.02H18.8101V143.77Z" fill="#4C4C4C"/>
<path d="M53.1901 81.25V68.76H59.4401V62.5H65.7001V56.25H71.9501V50H78.2001V43.74H84.4601V37.49H53.2001V31.24H96.9501V43.73H90.7001V49.99H84.4501V56.24H78.1901V62.49H71.9401V68.75H65.6901V75H96.9401V81.25H53.1901Z" fill="#E5E5E5"/>
<path d="M53.1901 93.76V81.27H59.4401V75.01H65.7001V68.76H71.9501V62.51H78.2001V56.25H84.4601V50H53.2001V43.75H96.9501V56.24H90.7001V62.5H84.4501V68.75H78.1901V75H71.9401V81.26H65.6901V87.51H96.9401V93.76H53.1901Z" fill="#808080"/>
<path d="M53.1901 87.51V75.02H59.4401V68.76H65.7001V62.51H71.9501V56.26H78.2001V50H84.4601V43.75H53.2001V37.5H96.9501V49.99H90.7001V56.25H84.4501V62.5H78.1901V68.75H71.9401V75.01H65.6901V81.26H96.9401V87.51H53.1901Z" fill="#282828"/>
</g>
<defs>
<clipPath id="clip0_3_11155">
<rect width="150.02" height="150.02" fill="white" transform="translate(0.0600586)"/>
</clipPath>
</defs>
</svg>
